<svg width="532" height="532" viewBox="0 0 532 532" fill="none" xmlns="http://www.w3.org/2000/svg">
<path d="M264.153 530.71C248.325 530.539 233.262 524.347 220.321 513.213C209.438 503.851 198.945 494.026 188.42 484.258C179.758 476.229 169.493 472.645 157.846 471.873C142.571 470.865 127.141 471.044 112.077 468.297C80.1443 462.471 57.6058 435.791 56.223 403.366C55.5886 388.486 55.5561 373.573 54.0676 358.742C53.2461 350.551 49.8462 343.432 44.356 337.272C35.7912 327.666 27.145 318.126 18.8242 308.309C3.0367 289.682 -3.34018 268.537 2.81704 244.417C5.93226 232.203 12.3417 221.744 21.1505 212.78C29.4143 204.369 37.7351 196.023 46.1779 187.799C55.3121 178.908 59.3546 167.97 60.3306 155.479C61.4368 141.306 62.4697 127.101 64.4462 113.034C68.7896 82.1203 93.0363 60.3897 124.245 58.8294C136.023 58.2443 147.809 57.6998 159.594 57.3747C171.754 57.0415 182.328 53.0839 191.373 44.8597C201.198 35.9286 211.032 26.9974 221.134 18.3751C240.468 1.88614 262.291 -3.97315 286.985 4.08033C298.86 7.9486 308.344 15.6201 317.429 23.8605C325.059 30.7763 332.778 37.5945 340.431 44.4778C348.492 51.7267 357.894 55.6763 368.761 56.172C381.49 56.749 394.212 57.4479 406.941 58.0086C439.232 59.4226 463.82 81.6814 467.879 113.83C469.741 128.596 470.701 143.476 471.978 158.307C472.848 168.36 476.329 177.307 483.308 184.646C491.71 193.479 500.243 202.199 508.864 210.822C537.235 239.2 538.512 279.5 511.882 309.552C504.692 317.662 497.599 325.87 490.141 333.729C481.088 343.253 477.045 354.321 476.606 367.487C476.077 383.423 476.574 399.497 473.719 415.279C468.879 442.048 445.405 464.632 418.45 468.598C403.956 470.727 389.282 470.971 374.674 471.841C362.1 472.596 351.249 476.733 341.993 485.331C332.062 494.546 322.017 503.648 311.882 512.636C298.714 524.322 283.333 530.555 264.145 530.726L264.153 530.71ZM266.618 510.125C277.338 509.857 287.684 506.127 296.371 498.61C307.742 488.768 318.714 478.472 329.947 468.476C341.473 458.228 354.991 452.58 370.388 451.467C384.313 450.459 398.246 449.671 412.154 448.46C433.993 446.55 452.205 428.843 454.173 407.128C455.442 393.118 456.003 379.018 456.41 364.951C456.89 348.259 462.405 333.794 473.719 321.449C481.779 312.664 489.587 303.652 497.51 294.745C515.379 274.648 514.965 247.302 496.436 227.904C489.327 220.46 482.324 212.894 474.906 205.767C460.631 192.049 452.034 175.828 450.985 155.788C450.383 144.297 449.212 132.839 448.374 121.364C446.511 95.8705 429.918 79.7879 404.436 78.7559C391.845 78.2439 379.245 77.7238 366.663 76.9843C351.973 76.1147 338.967 70.9137 327.914 61.1048C317.576 51.9299 307.262 42.7387 296.965 33.515C279.193 17.5949 253.685 17.3999 235.824 33.133C225.047 42.6249 214.359 52.2143 203.573 61.7062C192.536 71.4175 179.725 77.1224 164.971 77.9432C152.25 78.6502 139.52 79.0972 126.791 79.6092C102.455 80.5844 86.09 96.1875 83.959 120.502C82.7959 133.724 81.6734 146.946 80.5022 160.16C79.1194 175.828 73.1168 189.473 62.1688 200.801C52.8476 210.44 43.2579 219.826 33.896 229.423C28.9019 234.543 25.4044 240.679 23.1839 247.44C17.4415 264.945 22.0696 280.312 33.5625 293.933C42.0379 303.969 50.9036 313.68 59.5986 323.53C68.1064 333.16 73.4666 344.301 74.3694 357.141C75.4593 372.533 75.9392 387.974 76.6468 403.39C77.7204 426.787 96.4036 446.632 119.154 448.379C131.314 449.314 143.473 450.362 155.658 450.866C174.886 451.662 191.454 458.074 205.355 471.719C215.009 481.202 225.234 490.134 235.515 498.951C244.128 506.346 254.393 509.922 266.618 510.133V510.125Z" fill="#472505" stroke="#472505" stroke-miterlimit="10"/>
<path d="M178.854 383.281C174.918 383.102 171.811 381.428 170.159 377.714C168.354 373.643 168.858 369.742 171.819 366.345C179.285 357.764 186.834 349.247 194.308 340.673C244.689 282.885 295.061 225.096 345.433 167.308C346.848 165.683 348.125 163.935 350.24 163.05C354.835 161.14 359.854 162.375 362.628 166.211C365.45 170.12 365.084 175.776 361.652 179.701C350.419 192.557 339.146 205.365 327.921 218.221C282.519 270.28 237.124 322.356 191.73 374.423C190.128 376.26 188.558 378.129 186.915 379.925C184.776 382.265 182.002 383.192 178.846 383.281H178.854Z" fill="#472505" stroke="#472505" stroke-miterlimit="10"/>
<path d="M333.091 391.687C304.168 391.532 281.816 369.29 281.93 340.773C282.052 312.208 306.095 288.218 334.328 288.487C363.78 288.763 385.724 311.062 385.602 340.586C385.489 368.493 361.502 391.833 333.091 391.687ZM334.555 309.161C316.376 309.177 302.012 323.374 302.159 341.18C302.297 358.124 315.718 371.281 332.904 371.321C350.977 371.362 365.439 357.205 365.447 339.449C365.463 322.326 352.018 309.153 334.547 309.169L334.555 309.161Z" fill="#472505" stroke="#472505" stroke-miterlimit="10"/>
<path d="M200.307 154.487C228.409 154.187 251.054 176.381 251.436 204.596C251.826 233.421 228.312 257.338 199.144 257.769C171.18 258.183 148.081 235.989 147.731 208.367C147.357 178.949 170.912 154.804 200.307 154.487ZM198.973 237.184C216.713 237.216 231.215 223.149 231.264 205.864C231.313 188.432 218.169 175.194 200.779 175.162C182.616 175.129 167.911 189.359 167.96 206.928C168.008 224.116 181.364 237.143 198.973 237.176V237.184Z" fill="#472505" stroke="#472505" stroke-miterlimit="10"/>
</svg>
