<svg width="604" height="531" viewBox="0 0 604 531" fill="none" xmlns="http://www.w3.org/2000/svg">
<path d="M135.673 189.752C155.593 189.752 175.528 189.468 195.44 189.874C205.265 190.069 213.814 186.989 221.972 182.194C249.309 166.152 276.533 149.907 303.919 133.947C335.047 115.8 365.939 97.255 396.603 78.3362C406.762 72.0706 417.653 70.559 428.918 74.8824C442.265 80.0022 450.342 92.2084 450.415 107.275C450.537 133.679 450.472 160.09 450.488 186.493C450.488 190.963 450.66 195.441 450.456 199.894C450.334 202.665 451.212 203.828 453.994 204.648C480.941 212.547 497.176 230.727 501.951 258.016C506.725 285.329 497.16 307.816 475.085 324.744C468.895 329.489 461.892 332.829 454.214 334.374C451.147 334.991 450.472 336.405 450.481 339.315C450.554 371.813 450.57 404.311 450.448 436.81C450.383 453.51 439.752 466.968 424.062 470.446C414.798 472.502 406.03 470.982 397.855 466.163C368.46 448.821 339.057 431.487 309.662 414.144C281.194 397.347 252.726 380.549 224.274 363.727C214.766 358.103 204.818 354.365 193.463 355.243C188.209 355.649 182.889 355.43 177.611 355.243C174.447 355.129 173.308 355.901 173.991 359.339C177.017 374.487 180.661 389.464 185.248 404.23C194.13 432.803 203.012 461.376 211.585 490.039C217.059 508.324 201.979 528.624 182.206 529.413C168.672 529.949 155.096 529.819 141.554 529.413C127.621 528.998 115.363 519.222 111.223 506.195C96.1108 458.621 80.8437 411.089 66.0159 363.426C64.0557 357.12 61.4613 354.154 54.7022 352.317C25.5916 344.402 7.07086 319.226 6.99765 289.108C6.97325 278.275 7.24991 267.435 6.90829 256.61C5.7045 218.325 37.3205 190.077 73.0519 189.817C93.923 189.663 114.794 189.793 135.665 189.793V189.752H135.673ZM431.008 272.067C431.008 236.188 431.008 200.301 431.008 164.422C431.008 145.462 431.057 126.511 431.008 107.551C430.984 98.8316 425.665 92.8829 417.523 92.1109C412.423 91.6314 408.389 94.1669 404.354 96.678C392.975 103.773 381.767 111.143 370.233 117.97C331.069 141.147 291.833 164.21 252.539 187.168C240.623 194.124 229.064 201.828 215.88 206.355C213.562 207.151 213.749 208.793 213.749 210.556C213.757 219.626 213.765 228.703 213.765 237.772C213.749 269.726 213.733 301.68 213.716 333.634C213.716 335.788 213.456 337.754 216.36 338.746C225.901 341.996 234.587 347.067 243.225 352.155C297.737 384.255 352.184 416.444 406.664 448.593C408.649 449.763 410.609 450.966 412.903 451.486C422.866 453.754 431.033 446.708 431.033 435.761C431.041 381.191 431.033 326.629 431.033 272.059L431.008 272.067ZM129.719 335.495C149.915 335.495 170.111 335.446 190.307 335.552C193.13 335.568 194.391 335.129 194.382 331.871C194.293 292.188 194.317 252.514 194.423 212.832C194.423 210.028 193.366 209.427 190.861 209.427C151.144 209.476 111.427 209.159 71.7179 209.581C47.1459 209.841 25.3068 230.142 26.291 256.139C26.6977 266.825 26.291 277.536 26.3399 288.231C26.4537 315.56 46.2269 335.357 73.6131 335.471C92.3206 335.552 111.02 335.487 129.727 335.487L129.719 335.495ZM129.484 394.559C129.484 394.559 129.484 394.511 129.484 394.494C120.821 394.494 112.151 394.519 103.488 394.494C96.0703 394.47 96.0701 394.437 98.2744 401.369C108.604 433.835 118.942 466.301 129.28 498.767C131.574 505.959 136.828 509.965 144.368 510.03C155.609 510.12 166.842 510.079 178.083 510.047C189.681 510.014 195.131 502.676 191.731 491.559C182.157 460.255 172.511 428.976 162.986 397.656C162.262 395.266 161.181 394.486 158.732 394.519C148.988 394.649 139.236 394.567 129.484 394.567V394.559ZM483.756 269.751C483.756 250.117 471.783 231.938 454.588 225.16C451.44 223.917 450.415 224.225 450.432 227.931C450.546 255.553 450.464 283.184 450.464 310.806C450.464 315.609 450.749 315.772 455.19 313.935C472.124 306.922 483.772 288.905 483.772 269.751H483.756ZM118.454 355.34V355.259C108.019 355.259 97.5829 355.308 87.1473 355.226C84.6177 355.21 83.642 355.747 84.6099 358.477C86.2285 363.069 87.6435 367.733 88.9937 372.414C89.5386 374.283 90.4903 374.999 92.4505 374.999C112.915 374.942 133.388 374.909 153.852 374.999C156.666 375.007 157.04 373.836 156.552 371.537C155.674 367.433 154.682 363.337 154.104 359.192C153.681 356.185 152.404 355.226 149.362 355.283C139.065 355.47 128.759 355.357 118.462 355.357L118.454 355.34Z" fill="#472505" stroke="#472505" stroke-miterlimit="10"/>
<path d="M71.54 0.507812C77.1034 0.532192 80.4954 4.54674 80.9509 11.0805C82.3418 31.2508 91.1015 47.3578 108.093 58.5806C115.527 63.4891 123.84 66.366 132.828 67.0486C138.838 67.5037 142.45 71.3638 142.344 77.0443C142.238 82.4323 138.513 86.1705 132.779 86.6419C105.002 88.9173 82.3662 112.346 80.9835 140.253C80.6826 146.34 77.0305 150.103 71.4264 150.103C66.0581 150.103 62.593 146.429 62.1294 140.448C59.8438 110.64 35.8655 87.7308 9.12998 86.4712C4.03828 86.2355 0.467686 82.091 0.500221 76.9712C0.532755 71.4288 4.07105 67.5281 9.78092 67.138C20.8428 66.3741 30.595 62.3189 39.1354 55.4438C53.3124 44.034 60.7873 29.0404 62.1294 10.9749C62.6256 4.30294 65.9442 0.491559 71.5483 0.515939L71.54 0.507812ZM40.811 76.6705C54.0933 84.4396 64.0407 94.6791 71.1984 107.958C71.8735 107.194 72.2801 106.861 72.5241 106.438C79.2019 94.6628 88.0761 85.0003 99.8455 78.1496C102.652 76.5161 100.724 75.8253 99.3654 74.972C87.905 67.7312 78.9175 58.1743 72.4268 46.2769C72.1991 45.8625 72.0443 45.2205 71.0114 45.4887C64.0408 58.2881 54.1419 68.617 40.8026 76.6705H40.811Z" fill="#472505" stroke="#472505" stroke-miterlimit="10"/>
<path d="M565.376 260.042C574.315 260.042 583.262 259.969 592.201 260.066C599.261 260.139 603.149 263.699 603.133 269.802C603.125 275.775 598.96 279.546 592.103 279.57C574.486 279.627 556.876 279.57 539.258 279.627C535.029 279.635 531.458 278.392 529.27 274.605C525.586 268.234 529.84 260.416 537.323 260.196C546.66 259.928 556.022 260.131 565.368 260.131V260.05L565.376 260.042Z" fill="#472505" stroke="#472505" stroke-miterlimit="10"/>
<path d="M563.994 161.985C568.565 162.017 572.095 164.496 573.38 168.307C574.836 172.631 573.51 176.832 569.573 179.75C559.471 187.251 549.329 194.695 539.202 202.163C535.062 205.21 530.947 208.29 526.766 211.289C521.91 214.776 515.688 214.101 512.637 209.818C509.506 205.438 510.571 199.254 515.216 195.8C529.336 185.317 543.513 174.906 557.649 164.447C559.658 162.96 561.781 161.863 563.994 161.977V161.985Z" fill="#472505" stroke="#472505" stroke-miterlimit="10"/>
<path d="M573.967 365.549C574.048 372.643 566.679 377.178 560.099 373.903C557.447 372.586 555.04 370.766 552.592 369.076C540.44 360.697 528.328 352.254 516.169 343.899C510.768 340.186 509.263 334.391 512.606 329.629C515.786 325.103 521.724 324.396 527.043 328.044C538.105 335.627 549.118 343.266 560.148 350.88C563.377 353.115 566.614 355.342 569.827 357.593C572.592 359.519 573.894 362.217 573.959 365.549H573.967Z" fill="#472505" stroke="#472505" stroke-miterlimit="10"/>
</svg>
