<svg width="617" height="574" viewBox="0 0 617 574" fill="none" xmlns="http://www.w3.org/2000/svg">
<path d="M616.121 273.446C616.121 348.073 616.121 422.7 616.121 497.335C616.121 526.257 595.633 546.818 566.742 546.818C490.691 546.834 414.641 546.826 338.599 546.826C336.972 546.826 335.329 546.883 333.727 546.688C328.904 546.078 325.439 542.234 325.455 537.643C325.471 532.759 328.936 528.687 333.727 528.102C335.468 527.891 337.249 527.956 339.006 527.956C414.649 527.94 490.293 527.94 565.928 527.932C585.36 527.932 597.463 515.888 597.463 496.571C597.463 347.724 597.463 198.885 597.463 50.0374C597.463 31.3868 585.547 19.4894 566.994 19.4976C505.446 19.5301 443.906 19.5788 382.359 19.4569C378.105 19.4488 376.958 20.619 376.974 24.8367C377.137 67.7697 377.104 110.703 377.096 153.644C377.096 161.689 371.671 166.256 364.643 164.241C362.756 163.696 361.308 162.477 359.844 161.266C347.741 151.246 335.582 141.283 323.576 131.141C321.486 129.378 320.266 129.345 318.2 131.092C306.308 141.153 294.222 151.003 282.346 161.088C278.589 164.281 274.701 165.769 270.073 163.648C265.55 161.575 264.956 157.52 264.956 153.059C265.005 110.126 264.948 67.1927 265.062 24.2516C265.07 20.6759 264.371 19.0912 260.442 19.4976C256.286 19.9283 252.056 19.1725 247.884 20.042C233.91 22.9514 224.898 33.7517 224.882 47.9895C224.833 100.268 224.849 152.547 224.841 204.833C224.841 214.853 224.947 224.882 224.792 234.902C224.687 241.769 219.66 245.824 213.234 244.564C208.712 243.679 206.003 240.16 205.979 234.707C205.906 219.534 205.93 204.37 205.93 189.198C205.93 142.201 205.93 95.2052 205.922 48.2008C205.914 21.5617 226.679 0.51377 253.26 0.505643C357.909 0.481264 462.565 0.546277 567.214 0.505643C580.455 0.505643 591.981 4.56895 601.538 13.7683C611.55 23.4065 616.121 35.3607 616.121 49.1597C616.121 123.925 616.121 198.69 616.121 273.454H616.105L616.121 273.446ZM358.104 135.773C358.25 134.172 358.364 133.53 358.364 132.888C358.389 96.1966 358.38 59.4968 358.47 22.8051C358.47 19.9852 357.347 19.4894 354.85 19.4976C332.352 19.5788 309.855 19.6032 287.365 19.4813C284.355 19.4651 283.477 20.2371 283.493 23.3171C283.607 59.0661 283.566 94.807 283.607 130.556C283.607 131.946 283.119 133.482 284.193 134.774C285.706 134.514 286.568 133.392 287.576 132.555C295.409 126.078 303.177 119.544 311.01 113.076C318.899 106.558 322.316 106.526 330.148 112.897C339.274 120.316 348.351 127.793 358.104 135.781V135.773Z" fill="#472505" stroke="#472505" stroke-miterlimit="10"/>
<path d="M165.399 277.211C205.905 277.048 244.117 279.51 281.768 287.8C297.409 291.237 312.733 295.747 326.674 303.996C330.782 306.426 334.548 309.262 337.76 312.821C342.112 317.641 344.446 323.191 344.454 329.774C344.463 334.349 342.576 340.216 345.187 343.166C347.846 346.165 353.865 344.068 358.404 344.466C382.496 346.604 401.13 357.242 411.737 379.468C420.131 397.054 420.09 415.558 414.128 433.778C401.724 471.664 368.018 494.663 328.073 493.005C324.039 492.834 321.721 493.728 319.435 497.572C296.563 536.076 263.955 561.415 219.366 570.086C212.038 571.508 204.612 572.353 197.145 572.394C173.451 572.54 149.644 574.068 126.292 568.452C77.8394 556.799 43.4337 527.494 20.8708 483.749C6.4009 455.696 1.26859 425.383 0.804967 394.169C0.495885 373.178 0.821337 352.187 0.504122 331.196C0.357716 321.842 4.11548 314.731 11.0617 308.969C20.3097 301.298 31.2414 296.918 42.5147 293.326C66.5336 285.679 91.3495 282.273 116.312 279.746C133.311 278.023 150.384 277.495 165.399 277.227V277.211ZM325.674 388.675C325.674 376.177 325.641 366.295 325.698 356.413C325.714 354.129 325.43 353.073 322.819 354.43C303.802 364.295 283.142 368.895 262.255 372.235C203.888 381.565 145.406 381.54 86.9572 372.902C65.0694 369.667 43.5151 364.889 23.4005 355.153C19.4068 353.219 19.3662 353.186 19.358 357.461C19.3336 372.349 19.0571 387.245 19.7484 402.133C21.3914 437.289 30.729 469.885 52.1614 498.377C74.643 528.274 104.355 546.364 141.38 551.964C162.105 555.1 183.041 554.402 203.855 553.053C225.662 551.638 245.646 544.235 263.565 531.623C290.154 512.899 307.373 487.43 317.125 456.695C324.413 433.705 326.186 410.024 325.674 388.692V388.675ZM173.728 296.471C166.009 296.471 158.282 296.251 150.563 296.511C117.451 297.633 84.6148 300.948 52.5029 309.571C42.5391 312.244 32.7379 315.503 24.3683 321.818C18.0322 326.604 18.016 329.644 24.3034 334.389C30.8592 339.347 38.4398 342.362 46.24 344.743C73.4798 353.064 101.533 356.632 129.83 358.704C178.169 362.248 226.239 360.313 273.886 351.033C288.804 348.132 303.542 344.418 316.898 336.771C328.065 330.383 328.041 325.995 316.898 319.437C307.584 313.951 297.409 310.619 287.006 308.059C249.803 298.909 211.867 296.414 173.72 296.463L173.728 296.471ZM352.613 363.198C351.531 363.198 350.417 363.361 349.367 363.174C345.04 362.386 344.227 364.36 344.373 368.326C344.682 376.705 344.373 385.1 344.446 393.478C344.698 420.068 341.445 446.098 331.985 471.112C330.782 474.306 332.116 474.452 334.58 474.371C346.325 473.964 357.208 470.779 367.286 464.708C390.085 450.99 402.301 425.261 398.381 399.012C395.136 377.266 376.997 363.076 352.613 363.206V363.198Z" fill="#472505" stroke="#472505" stroke-miterlimit="10"/>
<path d="M468.273 249.377C491.844 249.377 515.416 249.352 538.987 249.393C544.925 249.401 548.593 252.563 549.016 257.772C549.48 263.395 546.039 267.532 540.411 267.979C538.255 268.149 536.075 268.052 533.912 268.052C488.664 268.052 443.416 268.068 398.168 268.052C390.905 268.052 386.513 263.81 387.253 257.601C387.871 252.481 391.604 249.409 397.55 249.393C420.04 249.336 442.529 249.344 465.011 249.328C466.093 249.328 467.175 249.328 468.264 249.328V249.377H468.273Z" fill="#472505" stroke="#472505" stroke-miterlimit="10"/>
<path d="M468.72 192.651C492.031 192.651 515.343 192.635 538.654 192.659C544.575 192.659 548.187 195.463 548.886 200.404C549.789 206.791 545.844 211.236 538.963 211.277C525.949 211.366 512.943 211.334 499.929 211.334C465.914 211.334 431.891 211.318 397.875 211.285C389.652 211.285 384.862 204.597 388.229 197.844C390.213 193.862 393.67 192.578 397.981 192.594C421.561 192.659 445.149 192.626 468.728 192.626V192.651H468.72Z" fill="#472505" stroke="#472505" stroke-miterlimit="10"/>
<path d="M438.771 323.29C424.944 323.29 411.116 323.371 397.297 323.257C389.627 323.192 385.194 317.024 387.976 310.458C389.774 306.216 393.23 304.664 397.761 304.68C419.852 304.761 441.951 304.72 464.043 304.729C469.468 304.729 474.885 304.688 480.31 304.737C486.443 304.794 490.282 308.418 490.29 314.058C490.29 319.722 486.565 323.265 480.245 323.298C466.418 323.371 452.59 323.322 438.771 323.322V323.29Z" fill="#472505" stroke="#472505" stroke-miterlimit="10"/>
<path d="M122.417 479.471C122.108 446.883 150.112 413.272 181.687 408.339C208.618 404.137 228.391 421.138 228.244 448.379C228.082 479.747 200.541 513.026 170.072 518.666C142.621 523.745 122.685 507.353 122.417 479.471ZM197.621 421.52C191.683 420.074 186.673 420.187 181.842 421.544C157.408 428.403 143.076 445.071 136.464 468.955C134.438 476.269 134.633 483.624 136.887 490.97C137.919 494.326 139.701 495.163 142.881 494.205C148.436 492.53 153.317 489.759 157.457 485.696C164.427 478.853 167.786 470.45 169.007 460.829C170.918 445.778 178.401 433.946 190.976 425.405C192.838 424.137 194.88 423.121 197.629 421.52H197.621ZM152.202 505.59C159.108 507.15 164.875 507.101 170.446 505.208C194.782 496.943 208.821 479.536 214.531 454.945C215.906 449.037 215.434 443.104 213.701 437.302C212.115 432.003 211.115 431.345 205.901 433.287C191.716 438.57 184.054 449.102 182.069 463.884C181.305 469.565 179.922 474.993 177.498 480.202C172.341 491.311 164.004 499.284 152.194 505.59H152.202Z" fill="#472505" stroke="#472505" stroke-miterlimit="10"/>
</svg>
