<svg width="543" height="471" viewBox="0 0 543 471" fill="none" xmlns="http://www.w3.org/2000/svg">
<path d="M1.13858 265.975C1.46393 245.479 1.88688 218.361 2.78159 191.226C3.35095 173.957 0.862031 156.42 1.04911 138.931C1.21991 122.329 1.70794 105.702 1.01657 89.1232C0.235735 70.4482 8.70293 56.8524 22.514 45.7758C36.6992 34.3904 52.9991 26.8895 70.1369 21.2009C125.959 2.67221 183.383 -1.61864 241.726 2.00583C275.261 4.08624 308.219 9.23852 340.144 19.9088C358.526 26.0525 376.119 33.9272 391.191 46.5235C404.262 57.4538 412.249 70.6108 411.314 88.4568C410.679 100.541 411.574 112.699 411.102 124.799C410.883 130.398 412.818 132.397 418.057 133.933C469.478 149 506.21 181.482 527.374 230.299C554.305 292.435 543.552 374.603 485.697 425.907C447.175 460.071 401.732 474.024 350.539 468.701C312.058 464.695 279.287 448.239 251.372 421.803C248.94 419.503 246.622 418.975 243.54 419.267C200.984 423.282 158.697 420.958 116.792 412.855C85.3225 406.777 54.7642 397.886 27.9636 379.309C10.0043 366.851 -0.349893 350.784 0.935234 327.802C1.96008 309.46 1.13858 291.013 1.13858 265.967V265.975ZM216.113 298.148C216.381 385.03 285.152 452.172 369.409 452.651C456.448 453.147 524.909 384.388 524.69 298.424C524.47 212.924 454.886 144.157 369.206 144.758C284.883 145.351 215.673 214.688 216.105 298.14L216.113 298.148ZM201.456 150.853C225.898 150.926 252.527 149.723 278.954 145.108C301.598 141.158 322.941 132.641 344.967 126.53C358.957 122.646 371.906 115.307 383.065 105.58C398.031 92.5364 398.617 76.8927 384.627 63.118C381.284 59.8349 377.608 56.7793 373.695 54.2031C359.152 44.6218 343.251 37.9986 326.528 33.2608C276.286 19.0067 224.978 15.5854 173.126 18.771C138.509 20.9002 104.469 26.5889 71.723 38.4781C56.277 44.0855 41.3679 50.8793 29.1348 62.2972C13.4856 76.8926 13.3635 91.5287 28.8501 106.189C31.6075 108.798 34.6658 111.146 37.8135 113.267C50.5672 121.841 64.4189 128.139 79.0921 132.666C118.199 144.734 158.298 150.268 201.456 150.845V150.853ZM17.3572 120.013C17.3572 134.925 17.9022 148.838 17.1945 162.677C16.5438 175.379 21.7087 184.652 31.0707 192.413C43.3363 202.579 57.3344 209.633 72.2273 214.793C115.702 229.852 160.649 235.776 206.531 235.622C210.598 235.606 211.867 233.631 213.16 230.518C223.059 206.715 237.952 186.48 257.253 169.43C258.262 168.537 260.279 168.081 259.392 165.578C227.467 168.829 195.396 169.512 163.39 166.383C111.904 161.353 61.5884 152.218 17.3572 120.013ZM18.4715 288.486C16.6252 291.029 17.3653 293.321 17.3491 295.442C17.2759 307.778 17.7639 320.131 17.2108 332.442C16.7472 342.739 20.6595 350.638 27.7358 357.57C38.7082 368.313 52.0394 375.205 66.0619 380.78C102.346 395.221 140.445 400.982 179.145 403.445C196.966 404.574 214.811 404.842 232.836 403.055C232.201 399.536 229.948 397.537 228.362 395.196C217.723 379.455 209.427 362.576 205.059 344.072C203.684 338.229 201.195 336.904 195.608 336.92C161.113 337.066 127.089 333.174 93.7003 324.235C66.4523 316.937 40.5546 306.762 18.4634 288.477L18.4715 288.486ZM179.836 321.155C184.546 321.155 189.288 320.862 193.965 321.236C198.934 321.626 200.073 319.57 199.609 315.003C197.633 295.629 199.064 276.442 204.099 257.637C205.458 252.55 203.164 252.541 199.552 252.59C179.755 252.867 160.063 251.225 140.485 248.568C98.3284 242.83 57.554 232.908 22.27 207.447C18.4797 204.708 17.8615 206.187 17.8208 209.812C17.6663 222.148 17.8452 234.5 17.1701 246.812C16.4869 259.352 21.5135 268.876 30.5745 276.938C44.2554 289.103 60.4171 296.75 77.4491 302.691C110.578 314.255 144.935 319.123 179.828 321.155H179.836ZM384.749 126.88C388.507 127.757 391.63 129.504 393.712 127.481C395.542 125.701 395.339 122.426 393.834 119.07C390.687 121.776 388.092 124.003 384.749 126.871V126.88Z" fill="#472505" stroke="#472505" stroke-width="1.66" stroke-miterlimit="10"/>
<path d="M379.364 342C379.364 351.419 379.454 360.846 379.332 370.265C379.25 377.205 376.306 380.626 370.694 380.773C364.911 380.919 360.95 377.132 360.893 370.387C360.754 352.216 360.738 334.044 361.104 315.881C361.226 310.014 359.917 307.722 353.418 307.893C335.467 308.364 317.499 308.031 299.54 308.031C294.847 308.031 291.162 306.406 289.592 301.66C288.348 297.881 289.414 294.565 292.228 291.859C294.684 289.494 297.808 289.34 301.02 289.348C318.76 289.389 336.5 289.12 354.223 289.478C359.746 289.592 360.99 287.706 360.893 282.611C360.608 266.691 360.771 250.763 360.771 234.835C360.771 232.364 360.689 229.886 360.933 227.439C361.543 221.296 365.602 217.273 370.848 217.777C376.843 218.354 379.356 222.19 379.372 227.895C379.429 244.717 379.454 261.539 379.446 278.361C379.446 289.429 379.413 289.421 390.467 289.413C406.856 289.397 423.246 289.356 439.635 289.405C447.2 289.429 451.291 292.599 451.494 298.36C451.706 304.423 447.541 307.982 439.643 308.031C421.684 308.145 403.717 308.307 385.766 307.974C380.56 307.877 379.218 309.526 379.397 314.427C379.722 323.61 379.494 332.817 379.494 342.017H379.348L379.364 342Z" fill="#472505" stroke="#472505" stroke-width="1.66" stroke-miterlimit="10"/>
</svg>
