<?xml version="1.0" encoding="UTF-8"?>
<svg xmlns="http://www.w3.org/2000/svg" width="256" height="256" viewBox="6200.80 1840.80 893.40 893.40" preserveAspectRatio="xMidYMid meet">
<path style=" stroke:none;fill-rule:nonzero;fill:rgb(27.842712%,14.509583%,1.960754%);fill-opacity:1;" d="M 6699.488281 2429.703125 C 6687.160156 2429.628906 6677.875 2442.152344 6667.503906 2447.636719 C 6661.492188 2450.921875 6661.746094 2450.222656 6664.300781 2456.777344 C 6684.605469 2508.523438 6705.273438 2560.132812 6725.332031 2611.980469 C 6725.691406 2612.898438 6725.886719 2614.144531 6727.050781 2614.179688 C 6728.132812 2614.210938 6728.605469 2613.058594 6729.148438 2612.238281 C 6736.390625 2600.082031 6743.3125 2587.726562 6750.429688 2575.5 C 6755.585938 2566.554688 6760.644531 2557.550781 6765.90625 2548.671875 C 6772.660156 2536.828125 6782.796875 2542.726562 6792.949219 2545.773438 C 6810.195312 2551.367188 6827.210938 2557.765625 6844.570312 2562.957031 C 6845.820312 2563.214844 6846.585938 2562.46875 6846.234375 2561.3125 C 6843.753906 2553.71875 6840.246094 2546.5 6837.277344 2539.089844 C 6817.527344 2492.871094 6798.992188 2446.078125 6778.785156 2400.085938 C 6778.164062 2399.027344 6777.050781 2398.972656 6776.398438 2399.988281 C 6775.410156 2401.527344 6774.519531 2403.128906 6773.609375 2404.714844 C 6763.984375 2424.511719 6749.261719 2436.839844 6726.324219 2433.5625 C 6716.871094 2432.40625 6709.632812 2430.066406 6699.488281 2429.703125 M 6569.363281 2614.820312 C 6570.898438 2613.289062 6571.503906 2611.175781 6572.3125 2609.195312 C 6579.574219 2591.476562 6586.789062 2573.738281 6594.050781 2556.019531 C 6607.921875 2522.113281 6621.933594 2488.265625 6635.761719 2454.34375 C 6636.75 2451.863281 6636.492188 2451.070312 6633.992188 2450.074219 C 6625.492188 2446.734375 6618.78125 2440.613281 6611.53125 2435.304688 C 6600.621094 2426.417969 6588.503906 2430.5 6576.101562 2432.707031 C 6569.511719 2433.796875 6562.976562 2434.53125 6556.246094 2433.480469 C 6537.324219 2430.617188 6529.175781 2417.644531 6520.941406 2402.0625 C 6520.25 2400.847656 6520.050781 2398.765625 6518.160156 2398.988281 C 6516.734375 2399.15625 6516.632812 2401.003906 6515.976562 2402.128906 C 6506.71875 2424.59375 6497.390625 2447.035156 6487.960938 2469.429688 C 6475.453125 2500.101562 6462.28125 2530.511719 6449.671875 2561.128906 C 6449.363281 2562.265625 6450.152344 2563.222656 6451.226562 2563.007812 C 6452.039062 2562.84375 6452.851562 2562.628906 6453.636719 2562.363281 C 6468.617188 2557.289062 6483.589844 2552.195312 6498.570312 2547.121094 C 6503.613281 2545.410156 6508.636719 2543.613281 6513.730469 2542.0625 C 6521.863281 2539.375 6527.398438 2543.394531 6531.136719 2550.597656 C 6543.136719 2571.167969 6554.957031 2591.839844 6566.871094 2612.460938 C 6567.433594 2613.429688 6567.816406 2614.65625 6569.363281 2614.820312 M 6844.566406 2084.203125 C 6846.5625 2026.757812 6800.0625 2056.085938 6780.058594 2018.902344 C 6776.082031 2011.410156 6772.777344 2003.554688 6768.792969 1996.0625 C 6762.273438 1984.0625 6748.378906 1978.851562 6737.085938 1980.992188 C 6717.601562 1984.210938 6699.3125 1988.417969 6682.511719 1974.949219 C 6678.191406 1971.550781 6673.851562 1968.179688 6669.570312 1964.734375 C 6656.238281 1953.242188 6639.878906 1953.445312 6626.425781 1964.828125 C 6613.121094 1975.546875 6603.425781 1984.941406 6585.109375 1984.226562 C 6578.261719 1984.003906 6571.539062 1982.832031 6564.796875 1981.8125 C 6559.039062 1980.945312 6553.355469 1979.984375 6547.453125 1981.292969 C 6538.613281 1983.25 6531.914062 1987.929688 6527.480469 1995.753906 C 6523.101562 2003.402344 6519.929688 2011.746094 6515.65625 2019.417969 C 6510.277344 2028.375 6503.039062 2035.277344 6492.792969 2038.476562 C 6486.148438 2040.640625 6479.394531 2042.480469 6472.742188 2044.601562 C 6464.078125 2047.535156 6457.75 2053.109375 6454.234375 2061.628906 C 6452.570312 2065.660156 6451.796875 2069.9375 6451.695312 2074.300781 C 6451.5625 2079.960938 6451.523438 2085.625 6451.5 2091.285156 C 6451.832031 2104.734375 6446.929688 2117.566406 6436.808594 2126.558594 C 6433.023438 2130.074219 6429.238281 2133.585938 6425.476562 2137.121094 C 6423.042969 2139.402344 6420.597656 2141.707031 6418.847656 2144.570312 C 6411.976562 2155.40625 6412.703125 2165.457031 6418.425781 2176.730469 C 6420.871094 2181.835938 6423.339844 2186.929688 6425.816406 2192.019531 C 6429.605469 2199.792969 6430.214844 2207.972656 6428.996094 2216.398438 C 6427.445312 2226.347656 6422.148438 2235.132812 6419.109375 2244.613281 C 6415.304688 2256.378906 6418.058594 2266.628906 6427.003906 2275.128906 C 6432.914062 2280.515625 6439.917969 2284.550781 6445.972656 2289.777344 C 6455.058594 2297.671875 6460.375 2307.496094 6461.605469 2319.523438 C 6462.234375 2325.652344 6462.929688 2331.777344 6463.792969 2337.875 C 6465.769531 2351.851562 6473.558594 2360.84375 6487.1875 2364.695312 C 6493.628906 2366.351562 6500.164062 2367.695312 6506.554688 2369.53125 C 6519.335938 2373.011719 6526.902344 2381.71875 6533.164062 2392.898438 C 6535.75 2397.171875 6538.214844 2401.519531 6540.789062 2405.796875 C 6546.703125 2415.800781 6558.882812 2420.617188 6570.117188 2418.171875 C 6587.726562 2414.90625 6603.894531 2409.789062 6619.410156 2422.191406 C 6624.824219 2426.328125 6630.109375 2430.734375 6635.953125 2434.242188 C 6641.53125 2437.382812 6647.464844 2438.285156 6653.800781 2436.84375 C 6658.167969 2435.851562 6661.773438 2433.542969 6665.246094 2430.953125 C 6668.851562 2428.265625 6672.347656 2425.433594 6675.890625 2422.660156 C 6707.171875 2398.398438 6734.132812 2437.433594 6755.511719 2405.175781 C 6759.179688 2399.027344 6762.726562 2392.808594 6766.445312 2386.6875 C 6785.308594 2356.914062 6821.449219 2376.777344 6831.375 2342.628906 C 6833.253906 2334.195312 6833.476562 2325.433594 6834.765625 2316.890625 C 6835.988281 2308.0625 6839.65625 2300.359375 6845.765625 2293.820312 C 6852.46875 2286.511719 6861.390625 2281.964844 6868.75 2275.429688 C 6876.554688 2268.421875 6879.546875 2259.699219 6878.136719 2249.351562 C 6877.726562 2246.335938 6876.671875 2243.535156 6875.59375 2240.75 C 6873.484375 2235.320312 6871.089844 2229.992188 6869.09375 2224.523438 C 6856.101562 2189.449219 6892.417969 2176.164062 6879.023438 2147.953125 C 6876.890625 2143.507812 6873.71875 2139.929688 6870.132812 2136.636719 C 6850.261719 2118.785156 6843.316406 2112.085938 6844.566406 2084.203125 M 6859.710938 2081.894531 C 6860.289062 2094.425781 6859.359375 2104.507812 6869.179688 2113.90625 C 6873.480469 2118.085938 6877.914062 2122.128906 6882.339844 2126.175781 C 6885.054688 2128.65625 6887.589844 2131.273438 6889.714844 2134.292969 C 6896.238281 2143.550781 6898.710938 2153.804688 6897.578125 2165.035156 C 6896.753906 2176.226562 6890.960938 2185.855469 6886.003906 2195.632812 C 6880.820312 2205.242188 6881.574219 2215.273438 6886.265625 2224.886719 C 6888.613281 2230.578125 6891.175781 2236.1875 6892.8125 2242.152344 C 6897.570312 2258.539062 6892.210938 2276.96875 6878.878906 2287.738281 C 6873.082031 2292.480469 6866.921875 2296.78125 6860.957031 2301.308594 C 6855.085938 2305.757812 6851.710938 2311.777344 6850.511719 2318.921875 C 6848.734375 2328.898438 6849.007812 2339.253906 6846.023438 2349.011719 C 6837.933594 2373.921875 6820.503906 2378.613281 6797.320312 2383.453125 C 6790.585938 2385.125 6790.5 2385.519531 6793.144531 2391.792969 C 6805.859375 2422.035156 6818.4375 2452.328125 6831.148438 2482.566406 C 6842.96875 2511.351562 6855.78125 2539.8125 6866.628906 2568.953125 C 6868.5625 2577.078125 6861.839844 2584.039062 6853.640625 2582.691406 C 6850.046875 2582.101562 6846.519531 2580.957031 6843.058594 2579.785156 C 6822.519531 2572.980469 6802.1875 2565.519531 6781.554688 2559.015625 C 6779.542969 2558.441406 6778.835938 2558.722656 6777.800781 2560.441406 C 6764.625 2583.023438 6751.75 2605.785156 6738.738281 2628.464844 C 6736.261719 2632.804688 6732.828125 2635.585938 6727.730469 2636.0625 C 6721.800781 2636.617188 6717.390625 2634.183594 6714.804688 2628.738281 C 6708.761719 2614.304688 6703.21875 2599.652344 6697.390625 2585.125 C 6683.980469 2551.027344 6670.582031 2516.925781 6657.203125 2482.820312 C 6655.503906 2478.476562 6653.902344 2474.097656 6652.246094 2469.738281 C 6651.773438 2468.589844 6650.324219 2464.011719 6648.488281 2465.886719 C 6634.894531 2499.140625 6621.03125 2532.339844 6607.554688 2565.667969 C 6599.660156 2585.105469 6591.699219 2604.515625 6583.699219 2623.910156 C 6583.003906 2625.601562 6582.363281 2627.335938 6581.488281 2628.933594 C 6576.527344 2638 6564.054688 2638.523438 6558.320312 2629.914062 C 6544.648438 2606.855469 6531.429688 2583.503906 6518.027344 2560.285156 C 6516.996094 2558.582031 6516.289062 2558.304688 6514.273438 2558.855469 C 6490.445312 2566.289062 6467.179688 2575.550781 6443.195312 2582.464844 C 6434.429688 2584.683594 6427.011719 2576.957031 6429.570312 2568.339844 C 6443.117188 2532.726562 6458.777344 2497.878906 6473.164062 2462.582031 C 6483.441406 2437.640625 6494.375 2412.957031 6504.398438 2387.921875 C 6504.890625 2386.3125 6504.472656 2385.410156 6502.816406 2384.808594 C 6501.101562 2384.1875 6499.316406 2383.757812 6497.542969 2383.320312 C 6479.9375 2379.515625 6463.457031 2375.703125 6453.941406 2358.609375 C 6447.710938 2347.589844 6447.386719 2334.5625 6446.105469 2322.269531 C 6444.964844 2306.375 6433.527344 2300.257812 6422.023438 2291.824219 C 6405.765625 2280.863281 6397.570312 2260.464844 6403.46875 2241.515625 C 6405.773438 2233.5 6409.5625 2226.03125 6412.273438 2218.15625 C 6416.847656 2205.808594 6409.859375 2195.921875 6404.71875 2185.210938 C 6401.957031 2179.5 6399.449219 2173.695312 6398.570312 2167.332031 C 6395.3125 2143.367188 6407.253906 2130.652344 6424.453125 2116.277344 C 6431.703125 2110.199219 6435.953125 2101.234375 6435.960938 2091.746094 C 6436.226562 2081.128906 6435.164062 2070.296875 6437.890625 2059.917969 C 6443.121094 2040.539062 6458.179688 2031.171875 6476.777344 2026.8125 C 6479.644531 2025.929688 6482.511719 2025.070312 6485.382812 2024.207031 C 6493.691406 2021.699219 6499.574219 2016.355469 6503.339844 2008.648438 C 6506.117188 2002.960938 6508.769531 1997.214844 6511.390625 1991.453125 C 6517.753906 1977.65625 6530.375 1967.367188 6545.664062 1965.398438 C 6553.367188 1964.304688 6560.949219 1964.964844 6568.550781 1966.03125 C 6582.953125 1968.046875 6591.621094 1971.21875 6604.351562 1961.714844 C 6609.949219 1957.523438 6615.179688 1952.839844 6620.804688 1948.675781 C 6633.105469 1939.960938 6646.507812 1937.375 6661.121094 1941.464844 C 6672.433594 1944.550781 6680.699219 1953.253906 6689.824219 1960.089844 C 6696.988281 1966.066406 6706.214844 1969.710938 6715.683594 1967.996094 C 6722.382812 1966.71875 6729.1875 1965.949219 6735.96875 1965.171875 C 6759.183594 1962.199219 6777.394531 1973.582031 6786.441406 1994.996094 C 6793.066406 2009.613281 6795.320312 2019.253906 6812.050781 2024.726562 C 6819.011719 2026.992188 6826.277344 2028.351562 6832.945312 2031.441406 C 6853.953125 2040.378906 6861.542969 2060.171875 6859.710938 2081.894531 "/>
<path style="fill:none;stroke-width:7;stroke-linecap:butt;stroke-linejoin:miter;stroke:rgb(27.842712%,14.509583%,1.960754%);stroke-opacity:1;stroke-miterlimit:10;" d="M -0.00051875 -0.001025 C -12.328644 0.0731938 -21.6138 -12.450244 -31.984894 -17.934619 C -37.996612 -21.219775 -37.742706 -20.520556 -35.188019 -27.075244 C -14.883331 -78.821337 5.784638 -130.430712 25.843231 -182.278369 C 26.202606 -183.196337 26.397919 -184.442431 27.561981 -184.477587 C 28.644013 -184.508837 29.116669 -183.356494 29.659638 -182.536181 C 36.901825 -170.379931 43.8237 -158.024462 50.940888 -145.7979 C 56.097138 -136.852587 61.155731 -127.848681 66.41745 -118.969775 C 73.171356 -107.126025 83.308075 -113.024462 93.460419 -116.071337 C 110.706513 -121.665087 127.722138 -128.063525 145.081513 -133.254931 C 146.331513 -133.512744 147.097138 -132.76665 146.745575 -131.6104 C 144.265106 -124.01665 140.757294 -116.7979 137.788544 -109.387744 C 118.038544 -63.168994 99.503388 -16.376025 79.296356 29.616163 C 78.675263 30.674756 77.561981 30.729444 76.909638 29.713819 C 75.921356 28.174756 75.030731 26.573194 74.120575 24.987256 C 64.495575 5.190381 49.772919 -7.137744 26.835419 -3.8604 C 17.382294 -2.70415 10.144013 -0.364306 -0.00051875 -0.001025 Z M -130.125519 -185.118212 C -128.590362 -183.586962 -127.984894 -181.473681 -127.1763 -179.493212 C -119.914581 -161.774462 -112.699737 -144.036181 -105.438019 -126.317431 C -91.566925 -92.411181 -77.555206 -58.563525 -63.727081 -24.64165 C -62.7388 -22.161181 -62.996612 -21.368212 -65.496612 -20.372119 C -73.996612 -17.032275 -80.70755 -10.911181 -87.95755 -5.602587 C -98.867706 3.284131 -110.984894 -0.7979 -123.387237 -3.004931 C -129.977081 -4.094775 -136.512237 -4.82915 -143.242706 -3.778369 C -162.164581 -0.915087 -170.313019 12.057569 -178.547394 27.6396 C -179.2388 28.854444 -179.438019 30.936475 -181.328644 30.713819 C -182.754425 30.54585 -182.855987 28.698194 -183.512237 27.573194 C -192.77005 5.10835 -202.098175 -17.333056 -211.527862 -39.727587 C -224.035675 -70.399462 -237.20755 -100.809619 -249.816925 -131.426806 C -250.125519 -132.563525 -249.336456 -133.520556 -248.262237 -133.305712 C -247.449737 -133.14165 -246.637237 -132.926806 -245.852081 -132.661181 C -230.871612 -127.586962 -215.898956 -122.493212 -200.918487 -117.418994 C -195.875519 -115.708056 -190.852081 -113.911181 -185.758331 -112.3604 C -177.625519 -109.6729 -172.090362 -113.692431 -168.352081 -120.895556 C -156.352081 -141.465869 -144.531769 -162.137744 -132.617706 -182.758837 C -132.055206 -183.727587 -131.672394 -184.95415 -130.125519 -185.118212 Z M 145.077606 345.498975 C 147.0737 402.944288 100.5737 373.616163 80.569794 410.799756 C 76.593231 418.291944 73.288544 426.147413 69.304169 433.6396 C 62.784638 445.6396 48.890106 450.850538 37.597138 448.709913 C 18.112763 445.491163 -0.1763 441.284131 -16.977081 454.752881 C -21.297394 458.151319 -25.637237 461.522413 -29.918487 464.967725 C -43.250519 476.459913 -59.609894 476.256788 -73.063019 464.873975 C -86.367706 454.155225 -96.063019 444.760694 -114.379425 445.475538 C -121.227081 445.698194 -127.949737 446.870069 -134.691925 447.8896 C -140.449737 448.756788 -146.133331 449.717725 -152.035675 448.409131 C -160.875519 446.4521 -167.574737 441.772413 -172.008331 433.948194 C -176.387237 426.299756 -179.559112 417.956006 -183.83255 410.284131 C -189.211456 401.3271 -196.449737 394.424756 -206.695831 391.225538 C -213.340362 389.061475 -220.094269 387.221631 -226.746612 385.100538 C -235.410675 382.166944 -241.7388 376.592725 -245.254425 368.073194 C -246.918487 364.041944 -247.691925 359.7646 -247.793487 355.401319 C -247.9263 349.741163 -247.965362 344.0771 -247.9888 338.416944 C -247.656769 324.967725 -252.559112 312.135694 -262.680206 303.143506 C -266.465362 299.627881 -270.250519 296.116163 -274.012237 292.581006 C -276.445831 290.299756 -278.891144 287.995069 -280.641144 285.131788 C -287.512237 274.29585 -286.785675 264.245069 -281.063019 252.971631 C -278.617706 247.866163 -276.148956 242.772413 -273.672394 237.682569 C -269.883331 229.909131 -269.273956 221.729444 -270.492706 213.303663 C -272.043487 203.354444 -277.340362 194.569288 -280.379425 185.088819 C -284.184112 173.323194 -281.430206 163.073194 -272.484894 154.573194 C -266.574737 149.186475 -259.570831 145.151319 -253.516144 139.924756 C -244.430206 132.030225 -239.1138 122.206006 -237.883331 110.178663 C -237.254425 104.049756 -236.559112 97.924756 -235.695831 91.8271 C -233.719269 77.850538 -225.930206 68.85835 -212.3013 65.006788 C -205.859894 63.350538 -199.324737 62.006788 -192.934112 60.17085 C -180.152862 56.690381 -172.586456 47.98335 -166.324737 36.803663 C -163.7388 32.530225 -161.273956 28.182569 -158.699737 23.905225 C -152.785675 13.901319 -140.605987 9.084913 -129.371612 11.530225 C -111.762237 14.79585 -95.594269 19.913038 -80.078644 7.510694 C -74.664581 3.373975 -69.379425 -1.032275 -63.535675 -4.540087 C -57.95755 -7.680712 -52.023956 -8.583056 -45.688019 -7.14165 C -41.320831 -6.149462 -37.715362 -3.840869 -34.242706 -1.251025 C -30.637237 1.436475 -27.141144 4.268506 -23.598175 7.041944 C 7.683075 31.303663 34.644013 -7.731494 56.022919 24.526319 C 59.690888 30.674756 63.237763 36.893506 66.956513 43.0146 C 85.819794 72.788038 121.960419 52.924756 131.8862 87.073194 C 133.765106 95.506788 133.987763 104.268506 135.276825 112.811475 C 136.499481 121.6396 140.16745 129.342725 146.276825 135.881788 C 152.97995 143.190381 161.901825 147.737256 169.2612 154.272413 C 177.065888 161.280225 180.058075 170.002881 178.647919 180.350538 C 178.237763 183.366163 177.183075 186.166944 176.10495 188.9521 C 173.995575 194.381788 171.601044 199.709913 169.60495 205.178663 C 156.612763 240.252881 192.929169 253.538038 179.534638 281.748975 C 177.401825 286.194288 174.22995 289.772413 170.644013 293.065381 C 150.772919 310.916944 143.827606 317.616163 145.077606 345.498975 Z M 160.222138 347.807569 C 160.800263 335.276319 159.870575 325.194288 169.690888 315.79585 C 173.991669 311.616163 178.425263 307.573194 182.851044 303.526319 C 185.565888 301.04585 188.101044 298.428663 190.226044 295.409131 C 196.749481 286.151319 199.222138 275.897413 198.089325 264.666944 C 197.265106 253.475538 191.472138 243.846631 186.515106 234.069288 C 181.331513 224.459913 182.085419 214.428663 186.776825 204.815381 C 189.124481 199.123975 191.686981 193.5146 193.3237 187.549756 C 198.081513 171.163038 192.722138 152.73335 179.390106 141.963819 C 173.593231 137.221631 167.433075 132.92085 161.468231 128.393506 C 155.597138 123.944288 152.222138 117.924756 151.022919 110.780225 C 149.245575 100.803663 149.519013 90.448194 146.534638 80.690381 C 138.444794 55.780225 121.015106 51.088819 97.831513 46.248975 C 91.097138 44.5771 91.0112 44.182569 93.655731 37.909131 C 106.370575 7.666944 118.9487 -22.626025 131.659638 -52.864306 C 143.47995 -81.649462 156.29245 -110.1104 167.140106 -139.251025 C 169.0737 -147.376025 162.351044 -154.336962 154.151825 -152.989306 C 150.558075 -152.399462 147.030731 -151.254931 143.569794 -150.083056 C 123.030731 -143.278369 102.6987 -135.817431 82.065888 -129.313525 C 80.054169 -128.739306 79.347138 -129.020556 78.311981 -130.739306 C 65.1362 -153.321337 52.2612 -176.083056 39.249481 -198.762744 C 36.772919 -203.102587 33.339325 -205.883837 28.241669 -206.3604 C 22.311981 -206.915087 17.901825 -204.481494 15.315888 -199.036181 C 9.272919 -184.602587 3.72995 -169.950244 -2.098175 -155.4229 C -15.508331 -121.325244 -28.906769 -87.223681 -42.285675 -53.118212 C -43.984894 -48.774462 -45.586456 -44.395556 -47.242706 -40.036181 C -47.715362 -38.887744 -49.164581 -34.309619 -51.000519 -36.184619 C -64.594269 -69.438525 -78.45755 -102.637744 -91.934112 -135.965869 C -99.828644 -155.403369 -107.789581 -174.813525 -115.789581 -194.208056 C -116.484894 -195.899462 -117.125519 -197.633837 -118.000519 -199.231494 C -122.961456 -208.2979 -135.434112 -208.821337 -141.168487 -200.211962 C -154.840362 -177.153369 -168.059112 -153.801806 -181.461456 -130.583056 C -182.492706 -128.879931 -183.199737 -128.602587 -185.215362 -129.153369 C -209.043487 -136.586962 -232.309112 -145.848681 -256.293487 -152.762744 C -265.059112 -154.981494 -272.477081 -147.254931 -269.918487 -138.637744 C -256.371612 -103.024462 -240.711456 -68.176806 -226.324737 -32.879931 C -216.047394 -7.938525 -205.1138 16.745069 -195.090362 41.780225 C -194.598175 43.3896 -195.016144 44.291944 -196.672394 44.893506 C -198.387237 45.5146 -200.172394 45.944288 -201.945831 46.381788 C -219.5513 50.186475 -236.031769 53.998975 -245.547394 71.092725 C -251.777862 82.112256 -252.102081 95.1396 -253.383331 107.432569 C -254.523956 123.3271 -265.961456 129.444288 -277.465362 137.877881 C -293.723175 148.838819 -301.918487 169.237256 -296.02005 188.186475 C -293.715362 196.2021 -289.9263 203.67085 -287.215362 211.54585 C -282.641144 223.893506 -289.629425 233.780225 -294.77005 244.491163 C -297.531769 250.2021 -300.039581 256.006788 -300.918487 262.370069 C -304.1763 286.334913 -292.234894 299.049756 -275.035675 313.424756 C -267.785675 319.502881 -263.535675 328.467725 -263.527862 337.956006 C -263.262237 348.573194 -264.324737 359.405225 -261.598175 369.784131 C -256.367706 389.163038 -241.309112 398.530225 -222.711456 402.8896 C -219.844269 403.772413 -216.977081 404.631788 -214.105987 405.495069 C -205.797394 408.002881 -199.914581 413.346631 -196.148956 421.053663 C -193.371612 426.741163 -190.719269 432.487256 -188.098175 438.248975 C -181.734894 452.04585 -169.1138 462.334913 -153.824737 464.303663 C -146.121612 465.397413 -138.539581 464.737256 -130.938019 463.67085 C -116.535675 461.655225 -107.867706 458.48335 -95.137237 467.987256 C -89.539581 472.178663 -84.309112 476.862256 -78.684112 481.026319 C -66.383331 489.741163 -52.980987 492.3271 -38.367706 488.237256 C -27.055206 485.151319 -18.789581 476.448194 -9.664581 469.612256 C -2.500519 463.635694 6.726044 459.991163 16.194794 461.706006 C 22.894013 462.98335 29.6987 463.752881 36.47995 464.530225 C 59.694794 467.502881 77.905731 456.120069 86.952606 434.706006 C 93.577606 420.088819 95.831513 410.448194 112.561981 404.975538 C 119.522919 402.709913 126.788544 401.350538 133.456513 398.260694 C 154.464325 389.323194 162.054169 369.530225 160.222138 347.807569 Z M 160.222138 347.807569 " transform="matrix(1,0,0,-1,6699.4888,2429.7021)"/>
<path style=" stroke:none;fill-rule:nonzero;fill:rgb(27.842712%,14.509583%,1.960754%);fill-opacity:1;" d="M 6648.367188 2355.4375 C 6726.816406 2356.679688 6793.761719 2294.164062 6802.289062 2217.117188 C 6803.21875 2209.523438 6804.199219 2201.859375 6803.652344 2194.199219 C 6803.023438 2185.40625 6802.207031 2176.601562 6800.335938 2167.957031 C 6789.464844 2115.683594 6752.011719 2069.269531 6701.28125 2051.195312 C 6590.570312 2010.320312 6479.035156 2104.300781 6494.078125 2219.679688 C 6504.226562 2295.269531 6571.921875 2356.554688 6648.367188 2355.4375 M 6648.441406 2372.128906 C 6531.085938 2372.492188 6446.40625 2251.972656 6486.246094 2141.636719 C 6510.382812 2068.753906 6583.164062 2019.398438 6659.910156 2025.460938 C 6777.066406 2033.535156 6850.371094 2156.085938 6807.003906 2264.035156 C 6782.519531 2327.945312 6717.023438 2373.070312 6648.441406 2372.128906 "/>
<path style="fill:none;stroke-width:7;stroke-linecap:butt;stroke-linejoin:miter;stroke:rgb(27.842712%,14.509583%,1.960754%);stroke-opacity:1;stroke-miterlimit:10;" d="M -0.0005125 -0.000000000000909495 C 78.448706 -1.242188 145.394019 61.273437 153.921363 138.320312 C 154.85105 145.914062 155.831519 153.578125 155.284644 161.238281 C 154.655738 170.03125 153.839331 178.835937 151.968238 187.480469 C 141.097144 239.753906 103.644019 286.167969 52.91355 304.242187 C -57.797387 345.117187 -169.332544 251.136719 -154.289575 135.757812 C -144.141137 60.167969 -76.445825 -1.117188 -0.0005125 -0.000000000000909495 Z M 0.0737063 -16.691406 C -117.281762 -17.054688 -201.96145 103.464844 -162.121606 213.800781 C -137.984887 286.683594 -65.203637 336.039062 11.542456 329.976562 C 128.698706 321.902344 202.003394 199.351562 158.636206 91.402344 C 134.151831 27.492187 68.655738 -17.632813 0.0737063 -16.691406 Z M 0.0737063 -16.691406 " transform="matrix(1,0,0,-1,6648.3677,2355.4375)"/>
<path style=" stroke:none;fill-rule:nonzero;fill:rgb(27.842712%,14.509583%,1.960754%);fill-opacity:1;" d="M 6697.132812 2269.992188 C 6697.371094 2269.777344 6697.789062 2269.578125 6697.796875 2269.363281 C 6697.847656 2268.214844 6697.9375 2267.035156 6697.75 2265.914062 C 6695.273438 2251.144531 6692.46875 2236.421875 6690.363281 2221.59375 C 6689.6875 2216.679688 6691.074219 2212.476562 6694.929688 2209.039062 C 6705.621094 2199.277344 6715.859375 2189.007812 6726.257812 2178.925781 C 6727.078125 2178.121094 6727.824219 2177.214844 6728.457031 2176.257812 C 6728.625 2176.003906 6728.371094 2175.109375 6728.097656 2174.988281 C 6727.207031 2174.589844 6726.230469 2174.296875 6725.261719 2174.164062 C 6710.585938 2172.222656 6695.917969 2170.199219 6681.25 2168.214844 C 6675.78125 2167.648438 6672.109375 2164.503906 6669.964844 2159.578125 C 6662.941406 2145.621094 6656.464844 2131.34375 6649.148438 2117.554688 C 6647.296875 2115.617188 6645.789062 2120.050781 6645.160156 2121.269531 C 6638.828125 2134.285156 6632.414062 2147.265625 6626.183594 2160.332031 C 6623.960938 2164.996094 6620.449219 2167.449219 6615.429688 2168.132812 C 6599.949219 2170.304688 6584.429688 2172.300781 6568.976562 2174.632812 C 6567.867188 2174.921875 6567.433594 2176.09375 6568.179688 2176.945312 C 6579.054688 2187.953125 6590.371094 2198.539062 6601.464844 2209.332031 C 6605.390625 2213.101562 6606.855469 2217.5 6605.929688 2222.875 C 6603.472656 2237.140625 6601.105469 2251.421875 6598.785156 2265.707031 C 6598.5625 2267.066406 6597.453125 2268.847656 6598.949219 2269.839844 C 6600.074219 2270.585938 6601.453125 2269.355469 6602.589844 2268.769531 C 6615.160156 2262.277344 6627.632812 2255.601562 6640.132812 2248.984375 C 6646.449219 2245.546875 6652.605469 2246.585938 6658.578125 2250.25 C 6670.652344 2256.605469 6682.710938 2262.992188 6694.804688 2269.316406 C 6695.523438 2269.691406 6696.242188 2270.179688 6697.132812 2269.992188 M 6582.109375 2269.640625 C 6584.113281 2254.914062 6586.832031 2239.375 6589.570312 2224.65625 C 6590.269531 2221.976562 6589.703125 2219.894531 6587.585938 2217.941406 C 6576.667969 2207.6875 6565.984375 2197.164062 6555.320312 2186.640625 C 6545.816406 2177.792969 6550.425781 2161.523438 6563.117188 2159.597656 C 6577.917969 2157.402344 6592.722656 2155.03125 6607.554688 2153.027344 C 6611.175781 2152.570312 6613.136719 2150.945312 6614.664062 2147.785156 C 6621.359375 2134.210938 6627.886719 2120.511719 6634.933594 2107.125 C 6642.5 2095.503906 6657.566406 2098.410156 6662.277344 2108.339844 C 6668.199219 2120.820312 6674.558594 2133.085938 6680.6875 2145.46875 C 6684.085938 2152.335938 6684.054688 2152.285156 6691.691406 2153.402344 C 6705.355469 2155.40625 6719.007812 2157.507812 6732.664062 2159.566406 C 6738.382812 2160.425781 6742.703125 2163.3125 6744.71875 2168.789062 C 6747.152344 2175.40625 6746.28125 2181.65625 6741.117188 2186.773438 C 6730.390625 2197.230469 6719.574219 2207.613281 6708.746094 2217.964844 C 6706.804688 2219.753906 6706.304688 2221.691406 6706.738281 2224.21875 C 6708.875 2236.683594 6710.925781 2249.160156 6712.988281 2261.632812 C 6713.421875 2264.261719 6713.949219 2266.886719 6714.148438 2269.535156 C 6715.199219 2283.644531 6703.136719 2288.988281 6694.34375 2286.484375 C 6692.082031 2285.84375 6689.953125 2284.925781 6687.890625 2283.84375 C 6676.402344 2277.792969 6664.902344 2271.769531 6653.433594 2265.6875 C 6648.359375 2262.980469 6648.320312 2262.96875 6643.328125 2265.574219 C 6631.816406 2271.570312 6620.3125 2277.582031 6608.796875 2283.582031 C 6606.585938 2284.734375 6604.367188 2285.832031 6601.914062 2286.476562 C 6590.636719 2289.511719 6581.21875 2281.101562 6582.109375 2269.640625 "/>
<path style="fill:none;stroke-width:7;stroke-linecap:butt;stroke-linejoin:miter;stroke:rgb(27.842712%,14.509583%,1.960754%);stroke-opacity:1;stroke-miterlimit:10;" d="M 0.0010125 0.0015125 C 0.239294 0.216356 0.657262 0.415575 0.665075 0.630419 C 0.715856 1.778856 0.8057 2.958544 0.6182 4.079637 C -1.858363 18.849169 -4.66305 33.571825 -6.768519 48.39995 C -7.4443 53.314012 -6.057581 57.517137 -2.202113 60.954637 C 8.489294 70.716356 18.727575 80.985887 29.126012 91.067919 C 29.946325 91.872606 30.692419 92.778856 31.325231 93.735887 C 31.4932 93.989794 31.239294 94.884325 30.965856 95.005419 C 30.075231 95.403856 29.098669 95.696825 28.129919 95.829637 C 13.454137 97.771044 -1.213831 99.794481 -15.8818 101.778856 C -21.35055 102.345262 -25.022425 105.489794 -27.166956 110.415575 C -34.190394 124.372606 -40.666956 138.64995 -47.983363 152.439012 C -49.834925 154.376512 -51.342738 149.942919 -51.971644 148.724169 C -58.303675 135.708544 -64.717738 122.728075 -70.948206 109.661669 C -73.170863 104.997606 -76.682581 102.544481 -81.702113 101.860887 C -97.182581 99.689012 -112.702113 97.692919 -128.155238 95.360887 C -129.264613 95.071825 -129.698206 93.89995 -128.952113 93.048387 C -118.077113 82.040575 -106.760706 71.454637 -95.666956 60.661669 C -91.741175 56.892137 -90.276331 52.4937 -91.202113 47.1187 C -93.659144 32.853075 -96.026331 18.571825 -98.346644 4.286669 C -98.5693 2.927294 -99.678675 1.146044 -98.182581 0.153856 C -97.057581 -0.592238 -95.678675 0.638231 -94.541956 1.224169 C -81.971644 7.716356 -69.498988 14.392137 -56.998988 21.009325 C -50.682581 24.446825 -44.526331 23.407762 -38.553675 19.7437 C -26.479456 13.388231 -14.420863 7.001512 -2.327113 0.677294 C -1.608363 0.302294 -0.889613 -0.185988 0.0010125 0.0015125 Z M -115.022425 0.353075 C -113.018519 15.079637 -110.299769 30.6187 -107.561488 45.33745 C -106.862269 48.017137 -107.428675 50.099169 -109.545863 52.052294 C -120.463831 62.3062 -131.147425 72.829637 -141.811488 83.353075 C -151.315394 92.200731 -146.706019 108.470262 -134.014613 110.396044 C -119.213831 112.591356 -104.409144 114.96245 -89.577113 116.966356 C -85.956019 117.423387 -83.995081 119.048387 -82.467738 122.208544 C -75.772425 135.782762 -69.245081 149.481981 -62.198206 162.8687 C -54.6318 174.489794 -39.565394 171.583544 -34.854456 161.653856 C -28.932581 149.173387 -22.573206 136.907762 -16.4443 124.52495 C -13.045863 117.657762 -13.077113 117.708544 -5.440394 116.591356 C 8.223669 114.58745 21.876012 112.485887 35.532262 110.427294 C 41.251012 109.567919 45.571325 106.6812 47.58695 101.204637 C 50.020544 94.58745 49.14945 88.33745 43.985387 83.220262 C 33.258825 72.763231 22.442419 62.380419 11.614294 52.028856 C 9.672887 50.239794 9.172887 48.302294 9.606481 45.77495 C 11.7432 33.310106 13.793981 20.833544 15.856481 8.360887 C 16.290075 5.731981 16.817419 3.106981 17.016637 0.458544 C 18.067419 -13.650831 6.004919 -18.994581 -2.78805 -16.490675 C -5.049769 -15.85005 -7.178675 -14.932081 -9.241175 -13.85005 C -20.729456 -7.799269 -32.229456 -1.775831 -43.698206 4.3062 C -48.772425 7.013231 -48.811488 7.02495 -53.803675 4.419481 C -65.315394 -1.576613 -76.8193 -7.588331 -88.334925 -13.588331 C -90.545863 -14.740675 -92.764613 -15.838331 -95.217738 -16.482863 C -106.495081 -19.518019 -115.91305 -11.107863 -115.022425 0.353075 Z M -115.022425 0.353075 " transform="matrix(1,0,0,-1,6697.1318,2269.9937)"/>
</svg>
