<?xml version="1.0" encoding="UTF-8"?>
<svg xmlns="http://www.w3.org/2000/svg" width="256" height="256" viewBox="11938.32 784.82 845.35 845.35" preserveAspectRatio="xMidYMid meet">
<path style=" stroke:none;fill-rule:nonzero;fill:rgb(27.842712%,14.509583%,1.960754%);fill-opacity:1;" d="M 12393.328125 1010.339844 L 12393.332031 1010.339844 C 12393.332031 991.179688 12393.328125 972.019531 12393.332031 952.855469 C 12393.332031 947.097656 12394.070312 946.34375 12387.09375 946.335938 C 12371.105469 946.398438 12355.109375 946.035156 12339.121094 946.441406 C 12335.15625 946.566406 12334.800781 946.957031 12334.753906 950.746094 C 12334.722656 953.074219 12334.835938 955.425781 12334.570312 957.734375 C 12333.847656 964.042969 12333.894531 970.371094 12333.84375 976.703125 C 12333.699219 984.863281 12333.871094 993.039062 12333.414062 1001.1875 C 12333.097656 1005.210938 12330.996094 1008.019531 12327.320312 1009.625 C 12310.226562 1014.839844 12293.621094 1021.195312 12278.273438 1030.492188 C 12272.910156 1034.074219 12266.851562 1035.074219 12261.695312 1030.605469 C 12250.738281 1020.621094 12239.859375 1010.542969 12228.925781 1000.539062 C 12226.570312 998.527344 12225.535156 998.503906 12223.332031 1000.453125 C 12222.335938 1001.335938 12221.398438 1002.289062 12220.460938 1003.234375 C 12217.53125 1006.195312 12214.628906 1009.179688 12211.6875 1012.128906 C 12200.269531 1023.566406 12188.835938 1034.984375 12177.425781 1046.425781 C 12174.160156 1049.699219 12174.167969 1050.238281 12177.4375 1053.761719 C 12185.023438 1061.945312 12192.632812 1070.113281 12200.234375 1078.28125 C 12205.871094 1084.308594 12212.613281 1089.40625 12207.921875 1098.3125 C 12195.957031 1117.121094 12185.917969 1137.265625 12179.925781 1158.832031 C 12178.332031 1164.601562 12176.054688 1166.367188 12169.9375 1166.742188 C 12167.28125 1166.90625 12164.609375 1166.808594 12161.945312 1166.808594 C 12147.796875 1166.972656 12133.609375 1166.414062 12119.480469 1167.011719 C 12117.339844 1167.28125 12116.609375 1168.105469 12116.59375 1170.328125 C 12116.902344 1195.980469 12116.566406 1221.644531 12116.648438 1247.296875 C 12116.648438 1252.414062 12115.871094 1253.289062 12122.9375 1253.257812 C 12138.761719 1253.226562 12154.589844 1253.140625 12170.410156 1253.242188 C 12176.222656 1253.3125 12178.5625 1258.476562 12179.820312 1263.339844 C 12180.886719 1266.84375 12181.777344 1270.398438 12182.898438 1273.882812 C 12188.742188 1292.238281 12197.609375 1309.21875 12208.085938 1325.316406 C 12210.757812 1330.179688 12210.070312 1334.632812 12206.726562 1338.769531 C 12203.390625 1342.46875 12199.726562 1345.925781 12196.554688 1349.769531 C 12193.058594 1354.023438 12189.382812 1358.09375 12185.605469 1362.09375 C 12182.519531 1365.363281 12179.574219 1368.765625 12176.640625 1372.175781 C 12175.179688 1373.871094 12175.253906 1374.828125 12176.707031 1376.5625 C 12192.5 1392.3125 12208.039062 1408.398438 12224.25 1423.710938 C 12226.804688 1425.652344 12229.023438 1422.214844 12230.90625 1420.808594 C 12240.507812 1412.054688 12250.097656 1403.289062 12259.695312 1394.53125 C 12263.371094 1390.796875 12268.511719 1388.261719 12273.628906 1390.867188 C 12290.515625 1400.371094 12307.652344 1409.191406 12326.507812 1414.136719 C 12334.09375 1416.242188 12335.960938 1418.660156 12336.144531 1426.53125 C 12336.316406 1439.023438 12336.515625 1451.519531 12336.617188 1464.011719 C 12336.390625 1470.167969 12337.339844 1469.535156 12343.09375 1469.632812 C 12358.914062 1469.566406 12374.75 1469.753906 12390.566406 1469.554688 C 12392.558594 1469.394531 12393.136719 1468.800781 12393.273438 1466.722656 C 12393.4375 1429.40625 12393.257812 1392.074219 12393.316406 1354.753906 C 12393.3125 1350.367188 12393.167969 1350.222656 12388.914062 1350.089844 C 12388.246094 1350.070312 12387.578125 1350.101562 12386.914062 1350.070312 C 12259.867188 1350.539062 12194.78125 1201.023438 12288.183594 1112.171875 C 12315.441406 1086.285156 12352.550781 1073.359375 12389.929688 1074.144531 C 12392.632812 1073.949219 12393.132812 1073.441406 12393.234375 1070.824219 C 12393.46875 1050.667969 12393.257812 1030.5 12393.328125 1010.339844 M 12408.105469 1011.851562 C 12407.976562 1034.675781 12408.363281 1057.527344 12407.953125 1080.339844 C 12407.5 1085.414062 12404.941406 1088.21875 12399.925781 1089.109375 C 12398.300781 1089.394531 12396.609375 1089.371094 12394.949219 1089.363281 C 12387.113281 1089.335938 12379.308594 1089.511719 12371.496094 1090.320312 C 12358.785156 1091.636719 12346.574219 1094.757812 12334.917969 1099.890625 C 12278.605469 1122.90625 12244.886719 1189.710938 12264.695312 1248.109375 C 12278.3125 1292.46875 12318.96875 1325.945312 12364.546875 1333.035156 C 12372.132812 1334.257812 12379.769531 1334.761719 12387.4375 1334.917969 C 12391.761719 1335.066406 12396.121094 1334.722656 12400.417969 1335.25 C 12404.621094 1335.898438 12407.035156 1338.089844 12407.773438 1342.277344 C 12408.839844 1384.175781 12407.472656 1426.269531 12408.125 1468.234375 C 12408.503906 1476.25 12406.460938 1483.898438 12396.890625 1484.480469 C 12375.746094 1484.652344 12354.5625 1484.640625 12333.417969 1484.488281 C 12324.828125 1483.679688 12321.898438 1476.851562 12322.089844 1469.054688 C 12321.871094 1457.058594 12321.734375 1445.058594 12321.566406 1433.0625 C 12321.753906 1428.101562 12320.445312 1428.042969 12316.273438 1426.703125 C 12300.988281 1422.261719 12286.636719 1415.683594 12272.859375 1407.785156 C 12271.625 1407.066406 12270.132812 1405.925781 12268.769531 1407.042969 C 12259.34375 1415.730469 12249.609375 1424.101562 12240.4375 1433.074219 C 12234.949219 1438.53125 12228.300781 1440.375 12220.707031 1438.589844 C 12217.515625 1437.839844 12214.90625 1436.140625 12212.617188 1433.863281 C 12197.074219 1418.539062 12181.734375 1403.003906 12166.210938 1387.65625 C 12159.050781 1380.941406 12158.414062 1369.183594 12164.921875 1361.90625 C 12173.167969 1352.964844 12181.351562 1343.96875 12189.59375 1335.027344 C 12194.066406 1330.167969 12193.40625 1330.75 12190.71875 1326.164062 C 12180.78125 1309.226562 12172.046875 1291.449219 12166.816406 1272.449219 C 12165.746094 1268.53125 12165.492188 1268.316406 12161.269531 1268.308594 C 12147.773438 1268.28125 12134.277344 1268.292969 12120.78125 1268.289062 C 12108.636719 1268.945312 12101.578125 1262.125 12102.054688 1249.847656 C 12102.398438 1221.542969 12101.316406 1193.136719 12102.578125 1164.878906 C 12103.640625 1157.746094 12107.777344 1153.632812 12114.933594 1152.425781 C 12117.054688 1152.066406 12119.246094 1151.992188 12121.402344 1151.980469 C 12134.566406 1151.902344 12147.726562 1151.871094 12160.890625 1151.832031 C 12166.136719 1151.816406 12166.203125 1151.847656 12167.921875 1146.75 C 12170.585938 1138.851562 12173.515625 1131.066406 12177.03125 1123.5 C 12180.964844 1115.035156 12185.199219 1106.730469 12189.949219 1098.691406 C 12190.628906 1097.542969 12191.25 1096.363281 12191.96875 1095.242188 C 12192.941406 1093.734375 12192.667969 1092.4375 12191.496094 1091.1875 C 12182.910156 1081.878906 12174.207031 1072.683594 12165.515625 1063.476562 C 12158.054688 1056.210938 12158.289062 1044.832031 12164.398438 1038.175781 C 12167.148438 1035.277344 12170.007812 1032.480469 12172.824219 1029.636719 C 12185.726562 1016.621094 12198.632812 1003.605469 12211.539062 990.589844 C 12218.828125 981.820312 12231.871094 981.867188 12238.722656 988.550781 C 12247.09375 996.433594 12255.613281 1004.15625 12264.070312 1011.941406 C 12265.542969 1013.292969 12267.035156 1014.625 12268.527344 1015.953125 C 12269.667969 1016.964844 12270.890625 1017.015625 12272.203125 1016.257812 C 12284.453125 1009.128906 12297.402344 1003.308594 12310.917969 999.007812 C 12312.1875 998.609375 12313.40625 998.003906 12314.699219 997.71875 C 12317.542969 997.097656 12319.101562 995.582031 12318.90625 992.519531 C 12319.386719 975.742188 12319.628906 958.847656 12320.898438 942.085938 C 12321.667969 934.746094 12328.429688 930.910156 12336.964844 931.28125 C 12357.117188 931.421875 12377.300781 931.078125 12397.441406 931.546875 C 12403.253906 932.261719 12407.273438 936.082031 12407.960938 941.875 C 12408.332031 945.003906 12408.375 948.199219 12408.277344 951.355469 C 12407.667969 971.519531 12408.105469 991.6875 12408.105469 1011.851562 "/>
<path style="fill:none;stroke-width:7;stroke-linecap:butt;stroke-linejoin:miter;stroke:rgb(27.842712%,14.509583%,1.960754%);stroke-opacity:1;stroke-miterlimit:10;" d="M 0.001925 0.00095625 L 0.00583125 0.00095625 C 0.00583125 19.161112 0.001925 38.321269 0.00583125 57.485331 C 0.00583125 63.243144 0.744113 63.99705 -6.23245 64.004862 C -22.220731 63.942362 -38.216825 64.305644 -54.205106 63.899394 C -58.16995 63.774394 -58.525419 63.383769 -58.572294 59.594706 C -58.603544 57.266581 -58.490262 54.915019 -58.755887 52.606425 C -59.478544 46.297831 -59.431669 39.969706 -59.48245 33.637675 C -59.626981 25.477519 -59.455106 17.301737 -59.912137 9.1533 C -60.228544 5.129862 -62.330106 2.321269 -66.005887 0.7158 C -83.099637 -4.499044 -99.705106 -10.854513 -115.052762 -20.151388 C -120.416044 -23.733419 -126.474637 -24.733419 -131.630887 -20.264669 C -142.587919 -10.280294 -153.466825 -0.202169 -164.400419 9.801737 C -166.755887 11.813456 -167.791044 11.836894 -169.994169 9.887675 C -170.990262 9.004862 -171.927762 8.051737 -172.865262 7.106425 C -175.79495 4.145487 -178.697294 1.161112 -181.6387 -1.788106 C -193.056669 -13.225606 -204.490262 -24.643575 -215.900419 -36.084981 C -219.166044 -39.358419 -219.158231 -39.897481 -215.8887 -43.420919 C -208.302762 -51.604513 -200.693387 -59.772481 -193.091825 -67.94045 C -187.455106 -73.967794 -180.712919 -79.06545 -185.404325 -87.9717 C -197.369169 -106.780294 -207.408231 -126.924825 -213.400419 -148.491231 C -214.994169 -154.260763 -217.271512 -156.026388 -223.3887 -156.401388 C -226.04495 -156.56545 -228.716825 -156.467794 -231.380887 -156.467794 C -245.529325 -156.631856 -259.716825 -156.073263 -273.845731 -156.670919 C -275.986356 -156.94045 -276.716825 -157.764669 -276.73245 -159.987325 C -276.423856 -185.639669 -276.759794 -211.303731 -276.677762 -236.956075 C -276.677762 -242.073263 -277.455106 -242.948263 -270.3887 -242.917013 C -254.564481 -242.885763 -238.736356 -242.799825 -222.916044 -242.901388 C -217.103544 -242.9717 -214.7637 -248.135763 -213.505887 -252.999044 C -212.439481 -256.50295 -211.548856 -260.057638 -210.427762 -263.542013 C -204.584012 -281.897481 -195.716825 -298.87795 -185.240262 -314.975606 C -182.568387 -319.838888 -183.255887 -324.292013 -186.599637 -328.428731 C -189.935575 -332.12795 -193.599637 -335.584981 -196.771512 -339.428731 C -200.267606 -343.682638 -203.943387 -347.75295 -207.720731 -351.75295 C -210.806669 -355.022481 -213.751981 -358.424825 -216.685575 -361.834981 C -218.146512 -363.530294 -218.072294 -364.487325 -216.619169 -366.2217 C -200.8262 -381.9717 -185.287137 -398.057638 -169.0762 -413.370138 C -166.521512 -415.311544 -164.302762 -411.874044 -162.41995 -410.467794 C -152.818387 -401.713888 -143.228544 -392.948263 -133.630887 -384.19045 C -129.955106 -380.456075 -124.814481 -377.920919 -119.697294 -380.526388 C -102.810575 -390.030294 -85.673856 -398.850606 -66.818387 -403.795919 C -59.23245 -405.901388 -57.365262 -408.319356 -57.181669 -416.19045 C -57.009794 -428.682638 -56.810575 -441.178731 -56.709012 -453.670919 C -56.935575 -459.827169 -55.986356 -459.194356 -50.23245 -459.292013 C -34.412137 -459.225606 -18.5762 -459.413106 -2.759794 -459.213888 C -0.767606 -459.053731 -0.189481 -458.459981 -0.0527625 -456.381856 C 0.1113 -419.06545 -0.0683875 -381.733419 -0.00979375 -344.413106 C -0.0137 -340.026388 -0.158231 -339.881856 -4.412137 -339.749044 C -5.080106 -339.729513 -5.748075 -339.760763 -6.412137 -339.729513 C -133.459012 -340.198263 -198.54495 -190.682638 -105.142606 -101.831075 C -77.884794 -75.944356 -40.775419 -63.018575 -3.396512 -63.803731 C -0.693387 -63.608419 -0.193387 -63.100606 -0.091825 -60.483419 C 0.14255 -40.327169 -0.0683875 -20.1592 0.001925 0.00095625 Z M 14.779269 -1.510763 C 14.650363 -24.334981 15.037081 -47.186544 14.626925 -69.999044 C 14.1738 -75.073263 11.615206 -77.87795 6.599581 -78.768575 C 4.974581 -79.053731 3.283175 -79.030294 1.623019 -79.022481 C -6.212919 -78.995138 -14.017606 -79.170919 -21.830106 -79.979513 C -34.541044 -81.295919 -46.751981 -84.417013 -58.408231 -89.549825 C -114.720731 -112.56545 -148.439481 -179.370138 -128.630887 -237.768575 C -115.0137 -282.12795 -74.35745 -315.604513 -28.779325 -322.694356 C -21.193387 -323.917013 -13.556669 -324.420919 -5.8887 -324.577169 C -1.564481 -324.725606 2.794894 -324.381856 7.091769 -324.9092 C 11.294894 -325.557638 13.708956 -327.749044 14.447238 -331.936544 C 15.513644 -373.834981 14.146456 -415.928731 14.7988 -457.893575 C 15.177706 -465.9092 13.134738 -473.557638 3.564425 -474.139669 C -17.580106 -474.311544 -38.7637 -474.299825 -59.908231 -474.147481 C -68.498075 -473.338888 -71.427762 -466.510763 -71.236356 -458.713888 C -71.455106 -446.717794 -71.591825 -434.717794 -71.759794 -422.7217 C -71.572294 -417.760763 -72.880887 -417.702169 -77.052762 -416.362325 C -92.337919 -411.920919 -106.689481 -405.342794 -120.466825 -397.444356 C -121.7012 -396.725606 -123.193387 -395.584981 -124.556669 -396.702169 C -133.98245 -405.389669 -143.716825 -413.760763 -152.8887 -422.733419 C -158.376981 -428.19045 -165.025419 -430.0342 -172.619169 -428.249044 C -175.810575 -427.499044 -178.41995 -425.799825 -180.709012 -423.522481 C -196.251981 -408.198263 -211.591825 -392.663106 -227.115262 -377.31545 C -234.275419 -370.600606 -234.912137 -358.842794 -228.404325 -351.56545 C -220.158231 -342.624044 -211.974637 -333.62795 -203.73245 -324.686544 C -199.259794 -319.827169 -199.91995 -320.4092 -202.60745 -315.823263 C -212.54495 -298.885763 -221.279325 -281.108419 -226.509794 -262.108419 C -227.580106 -258.19045 -227.834012 -257.975606 -232.056669 -257.967794 C -245.552762 -257.94045 -259.048856 -257.952169 -272.54495 -257.948263 C -284.689481 -258.604513 -291.748075 -251.7842 -291.271512 -239.506856 C -290.927762 -211.202169 -292.009794 -182.795919 -290.748075 -154.538106 C -289.685575 -147.405294 -285.548856 -143.292013 -278.392606 -142.084981 C -276.271512 -141.725606 -274.080106 -141.651388 -271.923856 -141.639669 C -258.759794 -141.561544 -245.599637 -141.530294 -232.435575 -141.491231 C -227.189481 -141.475606 -227.123075 -141.506856 -225.404325 -136.4092 C -222.740262 -128.510763 -219.810575 -120.725606 -216.29495 -113.1592 C -212.361356 -104.694356 -208.126981 -96.389669 -203.376981 -88.350606 C -202.697294 -87.202169 -202.0762 -86.022481 -201.35745 -84.901388 C -200.384794 -83.393575 -200.658231 -82.0967 -201.830106 -80.8467 C -210.416044 -71.538106 -219.119169 -62.342794 -227.810575 -53.135763 C -235.271512 -45.870138 -235.037137 -34.491231 -228.927762 -27.834981 C -226.177762 -24.936544 -223.318387 -22.139669 -220.501981 -19.295919 C -207.599637 -6.280294 -194.693387 6.735331 -181.787137 19.750956 C -174.498075 28.520487 -161.455106 28.473612 -154.603544 21.790019 C -146.23245 13.907206 -137.712919 6.18455 -129.255887 -1.600606 C -127.783231 -2.952169 -126.291044 -4.2842 -124.798856 -5.612325 C -123.658231 -6.624044 -122.435575 -6.674825 -121.123075 -5.917013 C -108.873075 1.211894 -95.923856 7.032206 -82.408231 11.332987 C -81.1387 11.731425 -79.91995 12.336894 -78.626981 12.62205 C -75.783231 13.243144 -74.224637 14.758769 -74.41995 17.821269 C -73.939481 34.598612 -73.697294 51.493144 -72.427762 68.254862 C -71.658231 75.594706 -64.896512 79.430644 -56.361356 79.05955 C -36.209012 78.918925 -16.025419 79.262675 4.115206 78.793925 C 9.927706 78.079081 13.947238 74.258769 14.634738 68.4658 C 15.005831 65.336894 15.0488 62.141581 14.951144 58.985331 C 14.341769 38.821269 14.779269 18.6533 14.779269 -1.510763 Z M 14.779269 -1.510763 " transform="matrix(1,0,0,-1,12393.3262,1010.3408)"/>
<path style=" stroke:none;fill-rule:nonzero;fill:rgb(27.842712%,14.509583%,1.960754%);fill-opacity:1;" d="M 12577.480469 1142.101562 C 12577.121094 1150.707031 12584.566406 1156.617188 12591.355469 1156.949219 C 12598.453125 1157.296875 12605.855469 1150.304688 12606.332031 1142.878906 C 12606.769531 1136.113281 12599.730469 1128.769531 12592.589844 1128.285156 C 12584.296875 1127.722656 12577.792969 1133.882812 12577.480469 1142.101562 M 12536.710938 998.0625 C 12536.980469 990.148438 12529.878906 982.558594 12521.722656 982.511719 C 12514.074219 982.46875 12506.417969 990.265625 12506.378906 998.046875 C 12506.339844 1005.636719 12513.746094 1013.1875 12521.339844 1013.300781 C 12529.324219 1013.421875 12536.578125 1006.226562 12536.710938 998.0625 M 12499.125 1161.855469 C 12510.285156 1161.855469 12521.449219 1161.773438 12532.605469 1161.902344 C 12536.402344 1161.945312 12539.804688 1161.09375 12543.078125 1159.226562 C 12548.28125 1156.253906 12553.5625 1153.410156 12558.800781 1150.496094 C 12563.246094 1148.046875 12562.671875 1147.640625 12562.691406 1142.863281 C 12562.765625 1139.351562 12563.125 1135.863281 12564.304688 1132.535156 C 12568.257812 1121.421875 12576.152344 1115.109375 12587.820312 1113.644531 C 12608.242188 1110.277344 12623.902344 1128.484375 12620.238281 1148.371094 C 12616.8125 1170.433594 12587.152344 1179.6875 12570.515625 1162.910156 C 12568.839844 1161.632812 12567.046875 1163.367188 12565.515625 1164.074219 C 12560.425781 1166.917969 12555.246094 1169.609375 12550.28125 1172.65625 C 12545.410156 1175.644531 12540.261719 1176.765625 12534.585938 1176.683594 C 12506.949219 1176.195312 12479.273438 1176.875 12451.644531 1176.457031 C 12446.984375 1176.058594 12444.515625 1172.109375 12444.792969 1167.640625 C 12444.765625 1153.648438 12444.585938 1139.644531 12444.664062 1125.65625 C 12444.421875 1120.992188 12446.394531 1117.496094 12449.726562 1114.25 C 12469.1875 1095.316406 12488.136719 1075.851562 12507.679688 1057.003906 C 12510.003906 1054.785156 12511.222656 1052.367188 12511.25 1049.132812 C 12511.296875 1043.304688 12511.59375 1037.476562 12512.367188 1031.6875 C 12512.71875 1029.054688 12511.84375 1027.277344 12509.199219 1026.226562 C 12488.175781 1017.5 12484.46875 985.882812 12504.070312 972.773438 C 12523.742188 958.488281 12552.480469 972.382812 12552.128906 997.113281 C 12552.886719 1010.378906 12544.515625 1023.078125 12531.746094 1027.109375 C 12528.554688 1028.113281 12527.289062 1029.867188 12527.179688 1033.21875 C 12526.953125 1040.535156 12526.210938 1047.839844 12525.957031 1055.160156 C 12525.824219 1058.90625 12524.523438 1061.738281 12521.832031 1064.378906 C 12501.636719 1084.230469 12481.46875 1104.113281 12461.550781 1124.246094 C 12460.035156 1125.753906 12459.367188 1127.457031 12459.367188 1129.601562 C 12459.457031 1139.261719 12459.136719 1148.929688 12459.347656 1158.585938 C 12459.59375 1161.265625 12460.097656 1161.789062 12462.648438 1161.972656 C 12474.800781 1162.066406 12486.964844 1161.972656 12499.125 1162.003906 Z M 12499.125 1161.855469 "/>
<path style="fill:none;stroke-width:7;stroke-linecap:butt;stroke-linejoin:miter;stroke:rgb(27.842712%,14.509583%,1.960754%);stroke-opacity:1;stroke-miterlimit:10;" d="M -0.00093125 0.0014375 C -0.360306 -8.604031 7.085006 -14.514187 13.874069 -14.846219 C 20.971725 -15.193875 28.374069 -8.201687 28.850631 -0.775906 C 29.288131 5.989719 22.249069 13.333469 15.108444 13.817844 C 6.815475 14.380344 0.311569 8.220188 -0.00093125 0.0014375 Z M -40.770463 144.0405 C -40.500931 151.954563 -47.602494 159.544406 -55.758744 159.591281 C -63.407181 159.63425 -71.063431 151.837375 -71.102494 144.056125 C -71.141556 136.466281 -63.735306 128.9155 -56.141556 128.802219 C -48.157181 128.681125 -40.903275 135.876438 -40.770463 144.0405 Z M -78.3564 -19.752469 C -67.196244 -19.752469 -56.032181 -19.670437 -44.875931 -19.799344 C -41.079056 -19.842312 -37.676713 -18.99075 -34.403275 -17.123562 C -29.20015 -14.150906 -23.9189 -11.307156 -18.680619 -8.393094 C -14.235306 -5.943875 -14.809525 -5.537625 -14.789994 -0.760281 C -14.715775 2.751438 -14.3564 6.239719 -13.176713 9.567844 C -9.223588 20.681125 -1.329056 26.993625 10.338912 28.458469 C 30.760787 31.825656 46.420944 13.618625 42.756881 -6.268094 C 39.3311 -28.330594 9.670944 -37.5845 -6.965775 -20.807156 C -8.641556 -19.529812 -10.434525 -21.264187 -11.965775 -21.971219 C -17.055619 -24.814969 -22.235306 -27.506375 -27.20015 -30.55325 C -32.071244 -33.541531 -37.219681 -34.662625 -42.895463 -34.580594 C -70.532181 -34.092312 -98.207963 -34.772 -125.836869 -34.354031 C -130.497025 -33.955594 -132.965775 -30.006375 -132.688431 -25.537625 C -132.715775 -11.545437 -132.895463 2.458469 -132.817338 16.44675 C -133.059525 21.110813 -131.086869 24.606906 -127.754838 27.853 C -108.2939 46.786594 -89.344681 66.251438 -69.801713 85.099094 C -67.477494 87.317844 -66.258744 89.735813 -66.2314 92.970188 C -66.184525 98.798313 -65.88765 104.626438 -65.114213 110.4155 C -64.76265 113.048313 -65.63765 114.825656 -68.282181 115.876438 C -89.305619 124.603 -93.01265 156.220188 -73.411088 169.329563 C -53.739213 183.614719 -25.000931 169.720188 -25.352494 144.989719 C -24.594681 131.724094 -32.965775 119.024875 -45.735306 114.993625 C -48.926713 113.989719 -50.192338 112.235813 -50.301713 108.88425 C -50.528275 101.567844 -51.270463 94.263156 -51.524369 86.942844 C -51.657181 83.19675 -52.957963 80.364719 -55.649369 77.724094 C -75.844681 57.872531 -96.01265 37.989719 -115.930619 17.856906 C -117.446244 16.349094 -118.114213 14.645969 -118.114213 12.501438 C -118.024369 2.841281 -118.344681 -6.826687 -118.133744 -16.482937 C -117.88765 -19.162625 -117.383744 -19.686062 -114.832963 -19.869656 C -102.680619 -19.963406 -90.516556 -19.869656 -78.3564 -19.900906 Z M -78.3564 -19.752469 " transform="matrix(1,0,0,-1,12577.4814,1142.103)"/>
<path style=" stroke:none;fill-rule:nonzero;fill:rgb(27.842712%,14.509583%,1.960754%);fill-opacity:1;" d="M 12588.816406 1305.839844 C 12596.621094 1305.761719 12602.796875 1299.539062 12602.804688 1291.824219 C 12602.8125 1285.289062 12597.980469 1277.917969 12588.902344 1277.679688 C 12580.933594 1277.472656 12573.929688 1284.539062 12574.183594 1292.261719 C 12574.429688 1299.621094 12581.210938 1305.914062 12588.816406 1305.839844 M 12527.085938 1427.664062 C 12527.207031 1420.027344 12520.429688 1412.476562 12513.132812 1412.902344 C 12505.441406 1413.347656 12499.320312 1418.136719 12498.746094 1427.308594 C 12498.300781 1434.457031 12505 1441.519531 12512.519531 1441.542969 C 12520.609375 1441.570312 12526.960938 1435.636719 12527.085938 1427.664062 M 12496.253906 1252.410156 C 12509.078125 1252.410156 12521.902344 1252.5 12534.726562 1252.367188 C 12539.757812 1252.3125 12544.160156 1253.5625 12548.28125 1256.507812 C 12553.832031 1260.476562 12559.667969 1264.050781 12565.261719 1267.957031 C 12567.589844 1269.585938 12569.402344 1269.949219 12571.921875 1268.09375 C 12578.75 1263.066406 12586.554688 1261.976562 12594.753906 1263.441406 C 12604.78125 1265.238281 12611.503906 1271.253906 12615.382812 1280.449219 C 12621.324219 1293.859375 12615.570312 1310.703125 12602.417969 1317.339844 C 12593.644531 1322.246094 12577.921875 1321.992188 12568.816406 1313.113281 C 12561.839844 1306.308594 12558.632812 1298.070312 12560.015625 1288.257812 C 12560.347656 1286.011719 12561.121094 1283.308594 12558.765625 1281.875 C 12552.367188 1277.386719 12545.765625 1273.15625 12539.300781 1268.753906 C 12537.1875 1267.203125 12534.601562 1267.289062 12532.101562 1267.289062 C 12508.789062 1267.402344 12485.460938 1267.019531 12462.15625 1267.425781 C 12459.039062 1267.386719 12459.441406 1270.617188 12459.371094 1272.8125 C 12459.375 1281.644531 12459.453125 1290.472656 12459.371094 1299.300781 C 12459.347656 1301.820312 12460.136719 1303.777344 12461.894531 1305.539062 C 12480.472656 1324.410156 12499.078125 1343.257812 12517.882812 1361.90625 C 12520.699219 1364.695312 12522.046875 1367.742188 12521.910156 1371.675781 C 12521.609375 1379.160156 12521.832031 1386.6875 12521.628906 1394.160156 C 12521.28125 1397.625 12522.789062 1399.429688 12525.898438 1401.039062 C 12541.371094 1409.046875 12545.375 1425.683594 12539.546875 1439.414062 C 12532.117188 1458.789062 12504.046875 1462.492188 12490.964844 1446.652344 C 12485.628906 1440.667969 12483.910156 1433.574219 12484.292969 1425.816406 C 12484.851562 1412.582031 12491.949219 1403.230469 12504.578125 1399.101562 C 12506.226562 1398.613281 12506.699219 1397.128906 12506.652344 1395.539062 C 12506.757812 1389.210938 12506.765625 1382.878906 12507.007812 1376.554688 C 12507.121094 1373.660156 12506.175781 1371.414062 12504.160156 1369.4375 C 12486.121094 1351.4375 12468.117188 1333.398438 12450.082031 1315.390625 C 12449.257812 1314.566406 12448.4375 1313.738281 12447.632812 1312.894531 C 12444.878906 1310.183594 12444.644531 1306.28125 12444.671875 1302.632812 C 12444.847656 1288.320312 12444.292969 1273.960938 12444.921875 1259.671875 C 12445.683594 1253.683594 12451.542969 1252.085938 12456.78125 1252.429688 C 12469.9375 1252.425781 12483.097656 1252.425781 12496.253906 1252.425781 Z M 12496.253906 1252.410156 "/>
<path style="fill:none;stroke-width:7;stroke-linecap:butt;stroke-linejoin:miter;stroke:rgb(27.842712%,14.509583%,1.960754%);stroke-opacity:1;stroke-miterlimit:10;" d="M 0.00000625 -0.00194375 C 7.804694 0.0761812 13.980475 6.298837 13.988288 14.013681 C 13.9961 20.548837 9.164069 27.919931 0.0859438 28.158212 C -7.882806 28.365244 -14.886712 21.298837 -14.632806 13.576181 C -14.386712 6.216806 -7.605462 -0.0761625 0.00000625 -0.00194375 Z M -61.730462 -121.826163 C -61.609369 -114.189444 -68.386712 -106.638663 -75.683587 -107.064444 C -83.374994 -107.509756 -89.496087 -112.298819 -90.070306 -121.470694 C -90.515619 -128.619131 -83.8164 -135.681631 -76.296869 -135.705069 C -68.207025 -135.732413 -61.855462 -129.798819 -61.730462 -121.826163 Z M -92.562494 53.427744 C -79.738275 53.427744 -66.914056 53.3379 -54.089837 53.470712 C -49.058587 53.5254 -44.656244 52.2754 -40.53515 49.330087 C -34.984369 45.361337 -29.148431 41.787119 -23.554681 37.880869 C -21.226556 36.251962 -19.414056 35.888681 -16.894525 37.74415 C -10.0664 42.771494 -2.261712 43.861337 5.937506 42.396494 C 15.96485 40.599619 22.687506 34.583994 26.566413 25.388681 C 32.507819 11.978525 26.753913 -4.865225 13.601569 -11.501944 C 4.828131 -16.408194 -10.894525 -16.154288 -19.999994 -7.275381 C -26.976556 -0.470694 -30.183587 7.767587 -28.800775 17.580087 C -28.468744 19.826181 -27.695306 22.529306 -30.050775 23.9629 C -36.449212 28.451181 -43.050775 32.68165 -49.515619 37.083994 C -51.6289 38.634775 -54.214837 38.548837 -56.714837 38.548837 C -80.027337 38.435556 -103.355462 38.818369 -126.66015 38.412119 C -129.777337 38.451181 -129.374994 35.220712 -129.445306 33.0254 C -129.4414 24.193369 -129.363275 15.365244 -129.445306 6.537119 C -129.468744 4.017587 -128.679681 2.060556 -126.921869 0.298837 C -108.343744 -18.572256 -89.738275 -37.419913 -70.933587 -56.06835 C -68.117181 -58.857413 -66.769525 -61.904288 -66.906244 -65.837881 C -67.207025 -73.322256 -66.984369 -80.8496 -67.187494 -88.322256 C -67.53515 -91.7871 -66.027337 -93.591788 -62.917962 -95.201163 C -47.445306 -103.208975 -43.4414 -119.845694 -49.269525 -133.576163 C -56.699212 -152.951163 -84.769525 -156.654288 -97.851556 -140.814444 C -103.187494 -134.830069 -104.906244 -127.736319 -104.523431 -119.978506 C -103.964837 -106.744131 -96.867181 -97.392569 -84.238275 -93.263663 C -82.589837 -92.775381 -82.117181 -91.291006 -82.164056 -89.701163 C -82.058587 -83.373038 -82.050775 -77.041006 -81.808587 -70.716788 C -81.695306 -67.822256 -82.640619 -65.576163 -84.656244 -63.5996 C -102.695306 -45.5996 -120.699212 -27.560538 -138.734369 -9.552725 C -139.558587 -8.728506 -140.3789 -7.900381 -141.183587 -7.056631 C -143.937494 -4.345694 -144.171869 -0.44335 -144.144525 3.205087 C -143.968744 17.517587 -144.523431 31.876962 -143.894525 46.166025 C -143.132806 52.154306 -137.273431 53.751962 -132.03515 53.408212 C -118.8789 53.412119 -105.718744 53.412119 -92.562494 53.412119 Z M -92.562494 53.427744 " transform="matrix(1,0,0,-1,12588.8164,1305.8379)"/>
<path style=" stroke:none;fill-rule:nonzero;fill:rgb(27.842712%,14.509583%,1.960754%);fill-opacity:1;" d="M 12346.859375 1212.734375 C 12347.886719 1213.984375 12349.1875 1214.382812 12350.375 1214.941406 C 12365.933594 1222.261719 12377.058594 1233.886719 12384.042969 1249.550781 C 12384.3125 1250.152344 12384.632812 1250.734375 12384.980469 1251.296875 C 12385.460938 1252.074219 12386.550781 1252.097656 12387.007812 1251.273438 C 12394.386719 1235.824219 12404.757812 1222.46875 12420.785156 1215.402344 C 12436.476562 1208.832031 12404.523438 1213.902344 12387.949219 1175.414062 C 12387.472656 1174.601562 12387.175781 1173.40625 12385.914062 1173.570312 C 12385.011719 1173.683594 12384.679688 1174.597656 12384.332031 1175.332031 C 12383.40625 1177.277344 12382.664062 1179.324219 12381.597656 1181.191406 C 12374.296875 1193.960938 12364.054688 1203.632812 12350.828125 1210.117188 C 12349.519531 1210.761719 12347.945312 1211 12346.859375 1212.734375 M 12470.007812 1212.441406 C 12469.988281 1217.078125 12468.324219 1219.179688 12463.730469 1219.964844 C 12452.078125 1220.699219 12440.5 1222.511719 12429.804688 1227.433594 C 12409.871094 1235.761719 12398.804688 1255.679688 12395.140625 1276.1875 C 12393.757812 1281.695312 12394.113281 1287.46875 12393 1293.007812 C 12391.46875 1300.214844 12380.882812 1300.179688 12379.265625 1292.9375 C 12378.855469 1291.167969 12378.710938 1289.3125 12378.660156 1287.488281 C 12377.761719 1271.371094 12372.539062 1255.339844 12362.519531 1242.613281 C 12350.910156 1228.054688 12330.015625 1221.097656 12311.867188 1220.390625 C 12310.039062 1220.339844 12308.210938 1220.332031 12306.441406 1219.722656 C 12303.335938 1218.65625 12301.25 1215.679688 12301.410156 1212.46875 C 12301.683594 1207.347656 12305.8125 1205.179688 12310.496094 1205.371094 C 12319.199219 1204.921875 12327.667969 1203.300781 12335.90625 1200.453125 C 12365.5 1190.417969 12376.875 1165.289062 12378.902344 1135.839844 C 12378.824219 1130.777344 12381.1875 1126.882812 12386.761719 1127.199219 C 12391.824219 1127.179688 12393.695312 1132.128906 12393.597656 1136.46875 C 12394.433594 1153.546875 12399.402344 1170.839844 12410.515625 1184.089844 C 12414.582031 1189.074219 12419.902344 1192.546875 12425.433594 1195.648438 C 12437.378906 1202.414062 12450.691406 1204.957031 12464.246094 1205.597656 C 12468.222656 1206.230469 12470.019531 1208.429688 12470.007812 1212.441406 "/>
<path style="fill:none;stroke-width:7;stroke-linecap:butt;stroke-linejoin:miter;stroke:rgb(27.842712%,14.509583%,1.960754%);stroke-opacity:1;stroke-miterlimit:10;" d="M -0.001925 -0.001475 C 1.025419 -1.251475 2.3262 -1.649913 3.5137 -2.208506 C 19.072294 -9.528819 30.197294 -21.153819 37.181669 -36.817881 C 37.4512 -37.419444 37.771513 -38.001475 38.119169 -38.563975 C 38.599638 -39.341319 39.689481 -39.364756 40.146513 -38.540538 C 47.525419 -23.091319 57.896513 -9.73585 73.923856 -2.669444 C 89.615263 3.900869 57.662138 -1.169444 41.087919 37.318837 C 40.611356 38.131337 40.314481 39.32665 39.052763 39.162587 C 38.150419 39.049306 37.818388 38.135244 37.470731 37.400869 C 36.54495 35.455556 35.802763 33.408681 34.736356 31.541494 C 27.435575 18.771962 17.193388 9.100087 3.966825 2.615712 C 2.658231 1.971181 1.084013 1.7329 -0.001925 -0.001475 Z M 123.146513 0.291494 C 123.126981 -4.345225 121.462919 -6.446788 116.869169 -7.231944 C 105.216825 -7.966319 93.6387 -9.778819 82.943388 -14.700694 C 63.009794 -23.028819 51.943388 -42.946788 48.279325 -63.4546 C 46.896513 -68.962413 47.251981 -74.73585 46.1387 -80.274913 C 44.60745 -87.481944 34.021513 -87.446788 32.404325 -80.2046 C 31.994169 -78.435069 31.849638 -76.5796 31.798856 -74.755381 C 30.900419 -58.638194 25.677763 -42.606944 15.658231 -29.880381 C 4.048856 -15.321788 -16.845675 -8.364756 -34.994112 -7.657725 C -36.822237 -7.606944 -38.650362 -7.599131 -40.419894 -6.989756 C -43.525362 -5.92335 -45.6113 -2.946788 -45.451144 0.26415 C -45.177706 5.385244 -41.0488 7.553212 -36.365206 7.361806 C -27.662081 7.811025 -19.193331 9.432119 -10.95505 12.279775 C 18.6387 22.314931 30.0137 47.443837 32.041044 76.893056 C 31.962919 81.955556 34.3262 85.850087 39.900419 85.533681 C 44.962919 85.553212 46.834013 80.603994 46.736356 76.26415 C 47.572294 59.186025 52.541044 41.893056 63.654325 28.643056 C 67.720731 23.658681 73.041044 20.186025 78.572294 17.084462 C 90.517606 10.318837 103.830106 7.775869 117.384794 7.135244 C 121.361356 6.502431 123.158231 4.303212 123.146513 0.291494 Z M 123.146513 0.291494 " transform="matrix(1,0,0,-1,12346.8613,1212.7329)"/>
<path style="fill-rule:nonzero;fill:rgb(27.842712%,14.509583%,1.960754%);fill-opacity:1;stroke-width:7;stroke-linecap:butt;stroke-linejoin:miter;stroke:rgb(27.842712%,14.509583%,1.960754%);stroke-opacity:1;stroke-miterlimit:10;" d="M -0.00096875 0.0004625 C -20.446281 0.195775 -40.938469 -0.405788 -61.36425 0.254369 C -69.583 0.894994 -69.497063 12.49265 -62.079094 14.160619 C -57.012688 15.012181 -51.778313 14.644994 -46.649406 14.801244 C -10.563469 14.594212 25.561531 15.004369 61.627937 14.453587 C 65.534187 13.879369 67.862312 11.082494 67.792 7.230931 C 67.409187 -1.015163 59.491219 0.0903062 53.397469 0.0278062 C 35.596687 0.0121812 17.799812 0.0199937 -0.00096875 0.0199937 Z M -0.00096875 0.0004625 " transform="matrix(1,0,0,-1,12552.083,1222.7739)"/>
</svg>
