<?xml version="1.0" encoding="UTF-8"?>
<svg xmlns="http://www.w3.org/2000/svg" width="256" height="256" viewBox="10902.48 733.98 1011.05 1011.05" preserveAspectRatio="xMidYMid meet">
<path style=" stroke:none;fill-rule:nonzero;fill:rgb(27.842712%,14.509583%,1.960754%);fill-opacity:1;" d="M 11340.710938 1300.207031 C 11340.542969 1217.761719 11293.789062 1171.734375 11213.640625 1161.480469 C 11202.757812 1160.210938 11191.769531 1159.054688 11180.808594 1158.6875 C 11177.632812 1158.871094 11176.988281 1159.546875 11176.957031 1162.597656 C 11179.644531 1217.15625 11192.644531 1278.492188 11239.917969 1311.933594 C 11266.027344 1330.578125 11297.230469 1339.535156 11327.984375 1347.089844 C 11329.125 1347.21875 11329.902344 1346.21875 11329.355469 1345.148438 C 11310.0625 1306.078125 11283.292969 1272.273438 11251.28125 1242.90625 C 11247.691406 1237.359375 11250.988281 1229.328125 11258.496094 1229.136719 C 11261.867188 1229.046875 11264.574219 1230.25 11267.101562 1232.429688 C 11277.597656 1241.476562 11287.441406 1251.199219 11296.4375 1261.714844 C 11312.175781 1280.101562 11326.132812 1299.808594 11337.894531 1320.996094 C 11338.257812 1321.539062 11338.703125 1322.171875 11339.433594 1321.855469 C 11340.492188 1321.082031 11340.21875 1319.378906 11340.304688 1318.191406 C 11340.441406 1312.195312 11340.574219 1306.203125 11340.710938 1300.207031 M 11640.324219 1068.632812 C 11640.277344 1056.964844 11639.75 1045.316406 11638.644531 1033.699219 C 11638.136719 1028.375 11637.820312 1028.007812 11632.011719 1028.507812 C 11631.679688 1028.535156 11631.351562 1028.601562 11631.023438 1028.660156 C 11574.527344 1037.808594 11516.914062 1053.539062 11471.402344 1089.753906 C 11424.875 1126.75 11400.394531 1182.035156 11397.550781 1240.769531 C 11396.257812 1255.921875 11398.398438 1271.046875 11399.144531 1286.167969 C 11399.335938 1290.179688 11400.097656 1294.101562 11400.472656 1298.082031 C 11400.519531 1298.5625 11400.695312 1299.078125 11400.964844 1299.476562 C 11401.238281 1299.882812 11401.871094 1300.179688 11402.207031 1299.734375 C 11406.585938 1293.070312 11409.703125 1285.632812 11413.777344 1278.777344 C 11438.449219 1235.621094 11471.484375 1197.585938 11509.667969 1165.851562 C 11518.277344 1158.738281 11527.160156 1151.988281 11536.464844 1145.800781 C 11538.542969 1144.414062 11540.628906 1143.015625 11543.097656 1142.394531 C 11548.695312 1140.984375 11554.039062 1144.765625 11554.507812 1150.519531 C 11554.855469 1154.75 11553.132812 1157.945312 11549.46875 1160.097656 C 11543.851562 1163.394531 11538.632812 1167.261719 11533.433594 1171.15625 C 11507.007812 1191.4375 11483.082031 1215.011719 11462.382812 1241.097656 C 11439.992188 1269.066406 11421.957031 1300.355469 11407.75 1333.210938 C 11407.425781 1333.957031 11407.199219 1334.785156 11407.113281 1335.59375 C 11407.007812 1337.203125 11409.105469 1337.164062 11410.234375 1336.925781 C 11455.109375 1331.492188 11501.46875 1326.003906 11541.144531 1302.542969 C 11574.59375 1283.203125 11597.96875 1250.871094 11612.179688 1215.488281 C 11630.886719 1168.925781 11640.128906 1118.769531 11640.324219 1068.632812 M 11658.910156 1069.613281 C 11659.09375 1131.9375 11645.042969 1200.722656 11613.878906 1255.066406 C 11582.269531 1309.585938 11530.113281 1336.90625 11469.644531 1347.890625 C 11447.074219 1352.167969 11424.210938 1354.953125 11401.332031 1356.816406 C 11399.34375 1357.109375 11398.015625 1358.128906 11397.394531 1360.125 C 11389.523438 1383.328125 11383.414062 1407.066406 11379.78125 1431.304688 C 11378.183594 1441.34375 11377.199219 1451.464844 11376.320312 1461.589844 C 11376.382812 1468.011719 11372.273438 1474.125 11363.609375 1472.140625 C 11358.382812 1470.941406 11357.398438 1466.175781 11357.640625 1461.414062 C 11358.859375 1431.242188 11355.609375 1401.175781 11342.503906 1373.640625 C 11341.414062 1371.222656 11339.625 1370.125 11337.273438 1369.511719 C 11313.796875 1363.222656 11290.039062 1357.765625 11267.457031 1348.59375 C 11207.0625 1325.003906 11175.148438 1277.507812 11163.890625 1215.007812 C 11159.941406 1193.550781 11157.664062 1171.742188 11157.851562 1149.910156 C 11158 1143.835938 11160.652344 1141.402344 11166.46875 1140.011719 C 11208.738281 1138.6875 11252.855469 1144.859375 11290.097656 1166 C 11361.273438 1207.707031 11364.0625 1281.421875 11356.640625 1355.207031 C 11356.417969 1357.429688 11356.601562 1359.527344 11357.523438 1361.546875 C 11361.347656 1369.882812 11364.792969 1378.359375 11367.554688 1387.109375 C 11367.699219 1387.578125 11368.105469 1388.078125 11368.648438 1387.871094 C 11369.027344 1387.722656 11369.410156 1387.261719 11369.550781 1386.855469 C 11370.246094 1384.804688 11370.925781 1382.746094 11371.496094 1380.660156 C 11375.136719 1367.3125 11379.363281 1354.152344 11384.4375 1341.28125 C 11385.644531 1338.21875 11386.003906 1335.191406 11385.597656 1331.992188 C 11383.992188 1318.769531 11382.117188 1305.558594 11380.867188 1292.300781 C 11371.070312 1212.039062 11390.964844 1132.355469 11454.609375 1078.75 C 11508.054688 1033.988281 11578.027344 1014.789062 11646.273438 1008.183594 C 11650.578125 1008.292969 11653.527344 1010.457031 11654.984375 1014.460938 C 11655.605469 1016.160156 11655.964844 1018 11656.160156 1019.804688 C 11657.980469 1036.378906 11659.378906 1052.980469 11658.910156 1069.613281 "/>
<path style="fill:none;stroke-width:7;stroke-linecap:butt;stroke-linejoin:miter;stroke:rgb(27.842712%,14.509583%,1.960754%);stroke-opacity:1;stroke-miterlimit:10;" d="M -0.0009625 0.00096875 C -0.168931 82.446281 -46.922838 128.473625 -127.071275 138.727531 C -137.954088 139.997062 -148.942369 141.153312 -159.903306 141.5205 C -163.079088 141.336906 -163.723619 140.661125 -163.754869 137.610344 C -161.067369 83.05175 -148.067369 21.715812 -100.793931 -11.725594 C -74.684556 -30.370125 -43.481431 -39.327156 -12.727525 -46.881844 C -11.5869 -47.01075 -10.809556 -46.01075 -11.356431 -44.940438 C -30.6494 -5.870125 -57.418931 27.934562 -89.43065 57.30175 C -93.020494 62.848625 -89.723619 70.879875 -82.215806 71.071281 C -78.844713 71.161125 -76.137681 69.958 -73.610338 67.778312 C -63.114244 58.731437 -53.270494 49.008781 -44.2744 38.493156 C -28.536119 20.106437 -14.579088 0.399406 -2.817369 -20.788094 C -2.454088 -21.331063 -2.008775 -21.963875 -1.278306 -21.647469 C -0.219713 -20.874031 -0.49315 -19.170906 -0.407213 -17.983406 C -0.270494 -11.987313 -0.137681 -5.995125 -0.0009625 0.00096875 Z M 299.612319 231.575187 C 299.565444 243.243156 299.0381 254.891594 297.932631 266.508781 C 297.424819 271.833 297.108412 272.200187 291.299819 271.700187 C 290.967787 271.672844 290.639662 271.606437 290.311537 271.547844 C 233.815444 262.399406 176.202162 246.668937 130.690444 210.454094 C 84.1631 173.458 59.682631 118.172844 56.838881 59.438469 C 55.545912 44.286125 57.686537 29.161125 58.432631 14.040031 C 58.624037 10.028312 59.385756 6.106437 59.760756 2.125969 C 59.807631 1.6455 59.983412 1.129875 60.252944 0.731437 C 60.526381 0.325187 61.159194 0.0283125 61.495131 0.473625 C 65.874037 7.137687 68.991225 14.575187 73.065444 21.430656 C 97.737319 64.586906 130.772475 102.622062 168.956069 134.356437 C 177.565444 141.469719 186.448256 148.219719 195.752944 154.407219 C 197.831069 155.793937 199.917006 157.192375 202.385756 157.813469 C 207.983412 159.223625 213.327162 155.442375 213.795912 149.688469 C 214.143569 145.458 212.420912 142.262687 208.75685 140.110344 C 203.139662 136.813469 197.920912 132.946281 192.721694 129.05175 C 166.295912 108.7705 142.370131 85.196281 121.670912 59.110344 C 99.280287 31.141594 81.245131 -0.147469 67.0381 -33.002938 C 66.713881 -33.749031 66.487319 -34.577156 66.401381 -35.38575 C 66.295912 -36.995125 68.393569 -36.956063 69.522475 -36.717781 C 114.397475 -31.284188 160.75685 -25.795906 200.432631 -2.334969 C 233.88185 17.004875 257.25685 49.336906 271.467787 84.719719 C 290.174819 131.282219 299.417006 181.438469 299.612319 231.575187 Z M 318.198256 230.594719 C 318.38185 168.2705 304.331069 99.485344 273.167006 45.141594 C 241.557631 -9.377938 189.401381 -36.69825 128.932631 -47.682625 C 106.362319 -51.959969 83.499037 -54.745125 60.620131 -56.608406 C 58.63185 -56.901375 57.303725 -57.920906 56.682631 -59.917 C 48.811537 -83.120125 42.702162 -106.858406 39.06935 -131.096688 C 37.471694 -141.13575 36.487319 -151.256844 35.608412 -161.381844 C 35.670912 -167.803719 31.561537 -173.917 22.897475 -171.932625 C 17.670912 -170.733406 16.686537 -165.967781 16.928725 -161.206063 C 18.147475 -131.034188 14.897475 -100.967781 1.792006 -73.432625 C 0.702162 -71.014656 -1.0869 -69.917 -3.438463 -69.303719 C -26.915025 -63.014656 -50.672838 -57.557625 -73.254869 -48.38575 C -133.6494 -24.795906 -165.563463 22.700187 -176.821275 85.200187 C -180.770494 106.657219 -183.047838 128.465812 -182.860338 150.297844 C -182.7119 156.372062 -180.059556 158.805656 -174.24315 160.196281 C -131.973619 161.5205 -87.856431 155.348625 -50.614244 134.208 C 20.561537 92.500969 23.3506 18.786125 15.928725 -54.999031 C 15.706069 -57.221688 15.889662 -59.319344 16.811537 -61.338875 C 20.635756 -69.674813 24.081069 -78.151375 26.842787 -86.901375 C 26.987319 -87.370125 27.393569 -87.870125 27.936537 -87.663094 C 28.315444 -87.514656 28.698256 -87.053719 28.838881 -86.647469 C 29.534194 -84.596688 30.213881 -82.538094 30.784194 -80.452156 C 34.424819 -67.1045 38.651381 -53.944344 43.7256 -41.07325 C 44.932631 -38.01075 45.292006 -34.983406 44.885756 -31.784188 C 43.280287 -18.561531 41.405287 -5.350594 40.155287 7.907219 C 30.358412 88.168937 50.252944 167.852531 113.897475 221.458 C 167.342787 266.219719 237.315444 285.418937 305.561537 292.024406 C 309.866225 291.915031 312.815444 289.750969 314.272475 285.747062 C 314.893569 284.047844 315.252944 282.208 315.448256 280.403312 C 317.268569 263.829094 318.667006 247.227531 318.198256 230.594719 Z M 318.198256 230.594719 " transform="matrix(1,0,0,-1,11340.7119,1300.208)"/>
</svg>
