<?xml version="1.0" encoding="UTF-8"?>
<svg xmlns="http://www.w3.org/2000/svg" width="256" height="256" viewBox="3848.09 1849.59 884.82 884.82" preserveAspectRatio="xMidYMid meet">
<path style=" stroke:none;fill-rule:nonzero;fill:rgb(27.842712%,14.509583%,1.960754%);fill-opacity:1;" d="M 4542.953125 2326.992188 C 4543.4375 2305.589844 4533.570312 2283.300781 4512.808594 2275.191406 C 4501.601562 2270.625 4489.195312 2270.578125 4477.386719 2272.421875 C 4470.597656 2273.371094 4464.011719 2275.136719 4457.652344 2277.710938 C 4453.164062 2279.527344 4452.871094 2280.015625 4452.886719 2284.695312 C 4452.902344 2289.363281 4452.957031 2294.027344 4452.933594 2298.691406 C 4452.835938 2322.519531 4453.09375 2346.347656 4451 2370.105469 C 4450.203125 2385.808594 4447.1875 2401.140625 4443.128906 2416.308594 C 4442.890625 2417.417969 4443.613281 2418.378906 4444.730469 2418.296875 C 4458.527344 2417.09375 4472.132812 2414.25 4484.824219 2408.5625 C 4517.375 2394.40625 4541.859375 2362.988281 4542.953125 2326.992188 M 4435.792969 2316.378906 C 4435.8125 2300.058594 4435.75 2283.730469 4435.820312 2267.414062 C 4435.691406 2263.835938 4432.261719 2266.519531 4430.503906 2267.371094 C 4427.046875 2269.015625 4423.660156 2270.835938 4420.105469 2272.234375 C 4387.28125 2285.136719 4352.226562 2290.1875 4317.359375 2293.933594 C 4307.253906 2294.984375 4297.140625 2295.914062 4286.976562 2296.152344 C 4245.222656 2297.644531 4203.292969 2297.019531 4161.84375 2291.347656 C 4129.71875 2286.460938 4096.964844 2281.027344 4067.792969 2266.011719 C 4065.746094 2265.078125 4064.933594 2265.511719 4064.929688 2267.625 C 4065.152344 2292.105469 4064.953125 2316.59375 4064.980469 2341.074219 C 4064.964844 2355.75 4065.933594 2370.347656 4068.070312 2384.882812 C 4075.578125 2437.496094 4107.703125 2487.222656 4155.417969 2511.691406 C 4201.261719 2535.859375 4272.304688 2536.898438 4321.25 2521.546875 C 4380.539062 2503.503906 4422.1875 2448.253906 4431.683594 2388.101562 C 4436.019531 2364.457031 4435.753906 2340.328125 4435.792969 2316.378906 M 4047.761719 2299.273438 C 4047.761719 2279.445312 4047.957031 2259.617188 4047.679688 2239.796875 C 4047.539062 2229.96875 4051.390625 2222.390625 4058.714844 2216.300781 C 4082.753906 2197.140625 4128.441406 2190.738281 4158.769531 2187.03125 C 4163.898438 2186.191406 4169.589844 2187.621094 4170.15625 2193.582031 C 4170.863281 2199.3125 4168.265625 2202.789062 4162.4375 2203.679688 C 4140.460938 2206.386719 4118.527344 2209.652344 4097.359375 2216.398438 C 4088.097656 2219.511719 4078.617188 2222.863281 4070.917969 2229.054688 C 4063.890625 2235.339844 4062.90625 2238.792969 4070.214844 2245.785156 C 4087.105469 2260.929688 4126.871094 2268.515625 4149.40625 2272.421875 C 4226.765625 2284.113281 4323.976562 2284.050781 4399.152344 2261.445312 C 4409.070312 2258.304688 4446.199219 2245.042969 4432.304688 2231.234375 C 4429.714844 2228.367188 4426.472656 2226.273438 4423.09375 2224.441406 C 4416.78125 2221.015625 4410.109375 2218.40625 4403.261719 2216.277344 C 4376.636719 2208.183594 4348.929688 2204.164062 4321.21875 2202.214844 C 4317.0625 2201.9375 4312.90625 2201.667969 4308.769531 2201.203125 C 4302.167969 2200.46875 4298.988281 2194.652344 4301.839844 2188.824219 C 4302.871094 2186.722656 4304.414062 2185.335938 4306.753906 2185.046875 C 4308.398438 2184.84375 4310.070312 2184.730469 4311.730469 2184.75 C 4319.398438 2184.835938 4327.027344 2185.542969 4334.652344 2186.304688 C 4367.027344 2189.589844 4418.675781 2196.292969 4443.664062 2217.628906 C 4449.789062 2222.960938 4452.984375 2229.644531 4452.972656 2237.820312 C 4453.042969 2244.644531 4452.835938 2251.484375 4453.125 2258.300781 C 4453.238281 2259.242188 4453.875 2259.851562 4454.824219 2259.703125 C 4456.300781 2259.476562 4457.769531 2259.144531 4459.207031 2258.734375 C 4471.011719 2255.378906 4483.082031 2254.296875 4495.304688 2254.464844 C 4564.546875 2256.199219 4576.667969 2334.652344 4543.03125 2383.082031 C 4520.128906 2417.996094 4480.789062 2434.582031 4440.019531 2435.898438 C 4437.050781 2436.015625 4435.453125 2437.28125 4434.417969 2439.863281 C 4417.234375 2480.949219 4384.332031 2515.414062 4342.792969 2532.074219 C 4315.644531 2543.332031 4286.222656 2548.113281 4256.917969 2548.089844 C 4197.078125 2550.242188 4136.269531 2534.816406 4096.054688 2487.765625 C 4046.1875 2429.78125 4047.0625 2371.148438 4047.777344 2299.273438 Z M 4047.761719 2299.273438 "/>
<path style="fill:none;stroke-width:7;stroke-linecap:butt;stroke-linejoin:miter;stroke:rgb(27.842712%,14.509583%,1.960754%);stroke-opacity:1;stroke-miterlimit:10;" d="M 0.000025 0.0000125 C 0.4844 21.402356 -9.382787 43.691419 -30.144506 51.800794 C -41.351537 56.3672 -53.757787 56.414075 -65.566381 54.570325 C -72.355444 53.621106 -78.941381 51.855481 -85.300756 49.281263 C -89.789037 47.464856 -90.082006 46.976575 -90.066381 42.296888 C -90.050756 37.628919 -89.996069 32.964856 -90.019506 28.300794 C -90.117162 4.472669 -89.85935 -19.355456 -91.9531 -43.113269 C -92.749975 -58.816394 -95.7656 -74.148425 -99.824194 -89.316394 C -100.062475 -90.425769 -99.339819 -91.386706 -98.222631 -91.304675 C -84.425756 -90.10155 -70.820287 -87.2578 -58.128881 -81.5703 C -25.5781 -67.41405 -1.093725 -35.996081 0.000025 0.0000125 Z M -107.160131 10.613294 C -107.1406 26.933606 -107.2031 43.261731 -107.132787 59.578138 C -107.261694 63.156263 -110.691381 60.472669 -112.449194 59.621106 C -115.906225 57.976575 -119.292944 56.156263 -122.847631 54.757825 C -155.67185 41.855481 -190.726537 36.8047 -225.593725 33.058606 C -235.699194 32.007825 -245.812475 31.078138 -255.976537 30.839856 C -297.730444 29.347669 -339.660131 29.972669 -381.10935 35.644544 C -413.23435 40.531263 -445.988256 45.964856 -475.160131 60.980481 C -477.207006 61.914075 -478.019506 61.480481 -478.023412 59.3672 C -477.800756 34.886731 -477.999975 10.39845 -477.972631 -14.082019 C -477.988256 -28.7578 -477.019506 -43.355456 -474.882787 -57.890612 C -467.374975 -110.503894 -435.249975 -160.230456 -387.535131 -184.699206 C -341.691381 -208.867175 -270.648412 -209.906237 -221.7031 -194.554675 C -162.414037 -176.511706 -120.7656 -121.261706 -111.269506 -61.109362 C -106.933569 -37.464831 -107.199194 -13.335925 -107.160131 10.613294 Z M -495.191381 27.718763 C -495.191381 47.546888 -494.996069 67.375013 -495.273412 87.195325 C -495.414037 97.02345 -491.562475 104.601575 -484.238256 110.691419 C -460.199194 129.851575 -414.511694 136.253919 -384.183569 139.96095 C -379.054662 140.800794 -373.363256 139.371106 -372.79685 133.410169 C -372.089819 127.6797 -374.687475 124.203138 -380.5156 123.312513 C -402.492162 120.605481 -424.425756 117.339856 -445.593725 110.593763 C -454.855444 107.480481 -464.335912 104.128919 -472.035131 97.937513 C -479.062475 91.652356 -480.04685 88.199231 -472.738256 81.207044 C -455.847631 66.062513 -416.082006 58.476575 -393.54685 54.570325 C -316.187475 42.878919 -218.976537 42.941419 -143.800756 65.546888 C -133.882787 68.687513 -96.753881 81.949231 -110.648412 95.757825 C -113.238256 98.625013 -116.480444 100.718763 -119.85935 102.550794 C -126.17185 105.976575 -132.843725 108.58595 -139.691381 110.714856 C -166.316381 118.808606 -194.023412 122.828138 -221.73435 124.777356 C -225.8906 125.0547 -230.04685 125.324231 -234.183569 125.789075 C -240.785131 126.52345 -243.964819 132.339856 -241.113256 138.167981 C -240.082006 140.269544 -238.539037 141.656263 -236.199194 141.945325 C -234.554662 142.14845 -232.882787 142.261731 -231.222631 142.2422 C -223.554662 142.156263 -215.925756 141.449231 -208.300756 140.687513 C -175.925756 137.402356 -124.277319 130.699231 -99.289037 109.363294 C -93.164037 104.031263 -89.968725 97.347669 -89.980444 89.171888 C -89.910131 82.347669 -90.117162 75.507825 -89.8281 68.691419 C -89.714819 67.750013 -89.0781 67.140638 -88.128881 67.289075 C -86.652319 67.515638 -85.183569 67.847669 -83.746069 68.257825 C -71.941381 71.613294 -59.871069 72.695325 -47.648412 72.527356 C 21.593775 70.792981 33.714869 -7.660144 0.07815 -56.089831 C -22.824194 -91.003894 -62.164037 -107.589831 -102.933569 -108.906237 C -105.902319 -109.023425 -107.499975 -110.28905 -108.535131 -112.871081 C -125.718725 -153.957019 -158.621069 -188.421862 -200.160131 -205.082019 C -227.308569 -216.339831 -256.730444 -221.121081 -286.035131 -221.097644 C -345.874975 -223.249987 -406.683569 -207.824206 -446.898412 -160.773425 C -496.7656 -102.78905 -495.8906 -44.156237 -495.175756 27.718763 Z M -495.191381 27.718763 " transform="matrix(1,0,0,-1,4542.9531,2326.9922)"/>
<path style=" stroke:none;fill-rule:nonzero;fill:rgb(27.842712%,14.509583%,1.960754%);fill-opacity:1;" d="M 4258.222656 2577.269531 C 4301.660156 2577.152344 4345.222656 2573.148438 4387.605469 2563.441406 C 4404.316406 2559.488281 4420.746094 2554.609375 4436.28125 2547.113281 C 4441.378906 2544.652344 4446.457031 2542.109375 4450.921875 2538.566406 C 4453.910156 2535.976562 4457.265625 2533.570312 4459.351562 2530.144531 C 4463.839844 2523.457031 4458.757812 2517.382812 4452.933594 2513.761719 C 4445.253906 2508.554688 4436.402344 2506.042969 4427.617188 2503.433594 C 4421.855469 2501.34375 4421.183594 2495.183594 4423.433594 2491 C 4425.519531 2487.066406 4430.667969 2486.636719 4434.535156 2487.761719 C 4448.089844 2491.824219 4462.292969 2496.722656 4472.109375 2507.425781 C 4480.027344 2516.0625 4480.675781 2529.316406 4474.941406 2539.0625 C 4461.8125 2560.011719 4426.671875 2570.761719 4403.746094 2577.175781 C 4356.492188 2589.359375 4307.519531 2594.160156 4258.789062 2593.84375 C 4227.148438 2594.1875 4195.492188 2593.578125 4164.042969 2589.652344 C 4130.363281 2585.515625 4096.6875 2579.605469 4064.949219 2567.234375 C 4050.441406 2561.210938 4033.011719 2552.917969 4024.6875 2539.078125 C 4015.496094 2522.878906 4023.574219 2506.382812 4039.054688 2498.066406 C 4046.933594 2493.609375 4055.296875 2490.390625 4064.015625 2488.058594 C 4069.570312 2486.398438 4075.28125 2487.199219 4076.855469 2493.554688 C 4077.761719 2497.183594 4076.085938 2501.246094 4072.800781 2502.9375 C 4071.488281 2503.613281 4069.996094 2503.957031 4068.558594 2504.367188 C 4061.488281 2506.367188 4054.625 2508.878906 4048.253906 2512.601562 C 4045.355469 2514.296875 4042.773438 2516.378906 4040.742188 2519.089844 C 4037.695312 2523.15625 4037.535156 2525.816406 4040.253906 2530.0625 C 4042.8125 2534.050781 4046.25 2537.195312 4050.160156 2539.808594 C 4057.246094 2544.546875 4064.816406 2548.378906 4072.738281 2551.503906 C 4091.550781 2558.929688 4111.078125 2563.730469 4130.921875 2567.414062 C 4172.890625 2575.191406 4215.589844 2577.867188 4258.222656 2577.269531 "/>
<path style="fill:none;stroke-width:7;stroke-linecap:butt;stroke-linejoin:miter;stroke:rgb(27.842712%,14.509583%,1.960754%);stroke-opacity:1;stroke-miterlimit:10;" d="M -0.00194375 0.00096875 C 43.435556 0.118156 86.998056 4.122062 129.380869 13.829094 C 146.091806 17.782219 162.521494 22.661125 178.05665 30.157219 C 183.154306 32.618156 188.232431 35.161125 192.697275 38.704094 C 195.685556 41.293937 199.041025 43.700187 201.126962 47.125969 C 205.615244 53.813469 200.533212 59.887687 194.708994 63.508781 C 187.029306 68.715812 178.177744 71.227531 169.392587 73.836906 C 163.630869 75.92675 162.958994 82.086906 165.208994 86.2705 C 167.294931 90.204094 172.443369 90.633781 176.310556 89.508781 C 189.865244 85.446281 204.068369 80.547844 213.884775 69.844719 C 221.802744 61.208 222.451181 47.954094 216.716806 38.208 C 203.5879 17.258781 168.447275 6.508781 145.521494 0.0947187 C 98.267587 -12.088875 49.294931 -16.889656 0.564462 -16.57325 C -31.076163 -16.917 -62.732413 -16.307625 -94.181631 -12.381844 C -127.861319 -8.245125 -161.5371 -2.334969 -193.275381 10.036125 C -207.783194 16.059562 -225.212881 24.352531 -233.5371 38.192375 C -242.728506 54.391594 -234.650381 70.887687 -219.169913 79.204094 C -211.291006 83.661125 -202.927725 86.879875 -194.208975 89.211906 C -188.654288 90.872062 -182.94335 90.071281 -181.369131 83.715812 C -180.462881 80.086906 -182.138663 76.024406 -185.423819 74.333 C -186.736319 73.657219 -188.228506 73.313469 -189.666006 72.903312 C -196.736319 70.903312 -203.5996 68.391594 -209.970694 64.668937 C -212.869131 62.973625 -215.451163 60.891594 -217.482413 58.180656 C -220.529288 54.11425 -220.689444 51.454094 -217.970694 47.208 C -215.4121 43.219719 -211.9746 40.075187 -208.064444 37.461906 C -200.978506 32.723625 -193.408194 28.891594 -185.486319 25.766594 C -166.673819 18.340812 -147.146475 13.540031 -127.302725 9.856437 C -85.333975 2.079094 -42.634756 -0.596688 -0.00194375 0.00096875 Z M -0.00194375 0.00096875 " transform="matrix(1,0,0,-1,4258.2246,2577.2705)"/>
<path style=" stroke:none;fill-rule:nonzero;fill:rgb(27.842712%,14.509583%,1.960754%);fill-opacity:1;" d="M 4380.09375 2244.390625 C 4380.027344 2249.898438 4376.40625 2253.171875 4371.1875 2252.820312 C 4354.425781 2249.207031 4337.660156 2245.691406 4320.527344 2244.179688 C 4281.5625 2240.28125 4242.332031 2238.921875 4203.277344 2242.007812 C 4179.199219 2243.554688 4155.125 2246.179688 4131.617188 2251.78125 C 4129.835938 2252.199219 4128.035156 2252.691406 4126.226562 2252.773438 C 4117.273438 2253.808594 4113.625 2241.941406 4121.625 2237.695312 C 4123.53125 2236.730469 4125.65625 2236.117188 4127.746094 2235.601562 C 4140.203125 2232.515625 4152.792969 2230.082031 4165.53125 2228.496094 C 4225.558594 2221.539062 4286.566406 2221.5 4346.363281 2230.527344 C 4354.410156 2231.855469 4362.445312 2233.292969 4370.300781 2235.558594 C 4375.117188 2236.660156 4380.34375 2238.800781 4380.09375 2244.390625 "/>
<path style="fill:none;stroke-width:7;stroke-linecap:butt;stroke-linejoin:miter;stroke:rgb(27.842712%,14.509583%,1.960754%);stroke-opacity:1;stroke-miterlimit:10;" d="M -0.00195 -0.001025 C -0.0683562 -5.508838 -3.68945 -8.782275 -8.9082 -8.430713 C -25.669919 -4.817431 -42.435544 -1.301806 -59.568356 0.209912 C -98.5332 4.10835 -137.763669 5.467725 -176.818356 2.381787 C -200.896481 0.834912 -224.9707 -1.790088 -248.478512 -7.39165 C -250.259762 -7.809619 -252.060544 -8.301806 -253.869137 -8.383838 C -262.822262 -9.418994 -266.4707 2.448194 -258.4707 6.694287 C -256.56445 7.659131 -254.43945 8.272412 -252.349606 8.788037 C -239.892575 11.873975 -227.302731 14.307569 -214.56445 15.893506 C -154.537106 22.850537 -93.529294 22.8896 -33.732419 13.862256 C -25.685544 12.534131 -17.650387 11.096631 -9.794919 8.831006 C -4.978512 7.729444 0.24805 5.588819 -0.00195 -0.001025 Z M -0.00195 -0.001025 " transform="matrix(1,0,0,-1,4380.0957,2244.3896)"/>
<path style=" stroke:none;fill-rule:nonzero;fill:rgb(27.842712%,14.509583%,1.960754%);fill-opacity:1;" d="M 4279.027344 2125.421875 C 4279.652344 2102.898438 4258.015625 2090.867188 4247.425781 2073.5625 C 4229.601562 2047.65625 4239.824219 2011.386719 4264.988281 1994.367188 C 4269.785156 1990.460938 4278.054688 1989.03125 4281.035156 1995.183594 C 4283.695312 2000.65625 4281.105469 2005.804688 4276.011719 2008.566406 C 4258.964844 2020.597656 4249.507812 2043.40625 4261.5625 2062.179688 C 4264.441406 2067.0625 4267.933594 2071.542969 4271.980469 2075.542969 C 4276.492188 2080 4280.613281 2084.808594 4284.515625 2089.789062 C 4303.128906 2112.363281 4300.777344 2147.289062 4278.605469 2166.535156 C 4273.097656 2172.203125 4262.304688 2170.230469 4262.566406 2161.261719 C 4262.660156 2158.296875 4263.800781 2155.804688 4266.058594 2153.796875 C 4273.972656 2146.636719 4279.542969 2136.09375 4279.027344 2125.421875 "/>
<path style="fill:none;stroke-width:7;stroke-linecap:butt;stroke-linejoin:miter;stroke:rgb(27.842712%,14.509583%,1.960754%);stroke-opacity:1;stroke-miterlimit:10;" d="M 0.00044375 0.001425 C 0.625444 22.524863 -21.011275 34.556113 -31.601119 51.8608 C -49.425338 77.76705 -39.202681 114.036581 -14.038619 131.056113 C -9.241744 134.962363 -0.972213 136.39205 2.008256 130.239706 C 4.668412 124.76705 2.078569 119.618613 -3.015181 116.856894 C -20.062056 104.825644 -29.519088 82.01705 -17.4644 63.243613 C -14.585494 58.3608 -11.093306 53.880331 -7.046431 49.880331 C -2.534713 45.4233 1.586381 40.614706 5.488725 35.634238 C 24.102006 13.060019 21.750444 -21.865762 -0.421431 -41.111856 C -5.929244 -46.779825 -16.722213 -44.807169 -16.460494 -35.838419 C -16.366744 -32.873575 -15.226119 -30.381387 -12.968306 -28.373575 C -5.054244 -21.213419 0.516069 -10.67045 0.00044375 0.001425 Z M 0.00044375 0.001425 " transform="matrix(1,0,0,-1,4279.0269,2125.4233)"/>
<path style=" stroke:none;fill-rule:nonzero;fill:rgb(27.842712%,14.509583%,1.960754%);fill-opacity:1;" d="M 4199.839844 2190.28125 C 4192.398438 2190.453125 4189.789062 2183.242188 4192.480469 2178.160156 C 4193.445312 2176.34375 4194.8125 2174.949219 4196.242188 2173.550781 C 4208.921875 2161.59375 4210.253906 2140.742188 4199.671875 2127.027344 C 4193.613281 2118.859375 4186.035156 2111.988281 4179.644531 2104.09375 C 4163.78125 2084.265625 4166.878906 2058.558594 4182.917969 2043.40625 C 4184.953125 2041.507812 4187.363281 2040.457031 4190.0625 2040.140625 C 4196.328125 2039.410156 4201.242188 2045.875 4198.917969 2051.730469 C 4198.226562 2053.464844 4197.140625 2054.925781 4195.675781 2056.089844 C 4185.835938 2063.914062 4183.746094 2079.28125 4192.402344 2091.246094 C 4203.785156 2105.488281 4220.046875 2117.242188 4223.335938 2136.304688 C 4226.507812 2153.203125 4223.582031 2168.765625 4212.542969 2182.355469 C 4211.078125 2184.15625 4209.386719 2185.777344 4207.738281 2187.421875 C 4205.609375 2189.542969 4202.945312 2190.324219 4199.839844 2190.28125 "/>
<path style="fill:none;stroke-width:7;stroke-linecap:butt;stroke-linejoin:miter;stroke:rgb(27.842712%,14.509583%,1.960754%);stroke-opacity:1;stroke-miterlimit:10;" d="M -0.00095625 -0.00095 C -7.442362 -0.172825 -10.051737 7.038113 -7.360331 12.120144 C -6.395487 13.93655 -5.0283 15.331081 -3.598612 16.729519 C 9.081075 28.68655 10.413106 49.538113 -0.168925 63.252956 C -6.227519 71.420925 -13.805644 78.292019 -20.196269 86.18655 C -36.05955 106.014675 -32.961894 131.721706 -16.922831 146.87405 C -14.887675 148.772488 -12.477519 149.823269 -9.7783 150.139675 C -3.512675 150.870144 1.401388 144.4053 -0.922831 138.549831 C -1.614237 136.815456 -2.700175 135.354519 -4.165019 134.190456 C -14.004862 126.366238 -16.094706 110.99905 -7.438456 99.034206 C 3.944356 84.792019 20.206075 73.038113 23.495138 53.975613 C 26.667013 37.077175 23.741231 21.514675 12.702169 7.924831 C 11.237325 6.12405 9.545919 4.502956 7.897481 2.858425 C 5.768575 0.737331 3.104513 -0.0439187 -0.00095625 -0.00095 Z M -0.00095625 -0.00095 " transform="matrix(1,0,0,-1,4199.8408,2190.2803)"/>
<path style=" stroke:none;fill-rule:nonzero;fill:rgb(27.842712%,14.509583%,1.960754%);fill-opacity:1;" d="M 4186.660156 2385.433594 C 4186.527344 2414.222656 4223.742188 2443.03125 4245.183594 2458.800781 C 4249.921875 2462.222656 4249.339844 2462.722656 4254.644531 2458.941406 C 4274.628906 2444.230469 4303.828125 2420.9375 4311.378906 2396.800781 C 4316.753906 2381.257812 4310.679688 2360.40625 4292.289062 2358.0625 C 4277.925781 2355.929688 4264.753906 2365.59375 4258.015625 2377.632812 C 4255.011719 2383.171875 4245 2384.046875 4241.878906 2377.523438 C 4236.527344 2367.761719 4225.933594 2359.035156 4214.53125 2357.808594 C 4200.628906 2356.242188 4190.078125 2365.773438 4187.90625 2375.558594 C 4187.179688 2378.835938 4186.722656 2382.101562 4186.660156 2385.433594 M 4211.511719 2341.214844 C 4225.324219 2341.390625 4236.703125 2346.507812 4246.222656 2355.964844 C 4246.929688 2356.667969 4247.539062 2357.464844 4248.234375 2358.183594 C 4249.53125 2359.523438 4250.15625 2359.546875 4251.574219 2358.234375 C 4262.699219 2346.355469 4277.15625 2339.824219 4293.574219 2341.53125 C 4328.527344 2345.5 4337.71875 2384.640625 4323.164062 2412.375 C 4312.53125 2433.28125 4294.625 2449.289062 4276.679688 2463.84375 C 4270.847656 2468.5625 4264.644531 2472.746094 4258.527344 2477.070312 C 4253.109375 2480.902344 4247.816406 2480.960938 4242.265625 2477.46875 C 4216.976562 2460.609375 4184.289062 2434.03125 4173.492188 2405.007812 C 4162.457031 2375.570312 4177.195312 2341.289062 4211.511719 2341.214844 "/>
<path style="fill:none;stroke-width:7;stroke-linecap:butt;stroke-linejoin:miter;stroke:rgb(27.842712%,14.509583%,1.960754%);stroke-opacity:1;stroke-miterlimit:10;" d="M -0.00194375 -0.00149375 C -0.134756 -28.790556 37.080087 -57.59915 58.521494 -73.368681 C 63.259775 -76.790556 62.677744 -77.290556 67.982431 -73.509306 C 87.966806 -58.798369 117.166025 -35.5054 124.716806 -11.368681 C 130.091806 4.174287 124.017587 25.02585 105.626962 27.3696 C 91.263681 29.502412 78.091806 19.83835 71.353525 7.799287 C 68.349619 2.260225 58.3379 1.385225 55.216806 7.908662 C 49.865244 17.670381 39.271494 26.396944 27.86915 27.623506 C 13.966806 29.189912 3.416025 19.658662 1.24415 9.873506 C 0.517587 6.596162 0.0605562 3.330537 -0.00194375 -0.00149375 Z M 24.849619 44.217256 C 38.662119 44.041475 50.041025 38.924287 59.560556 29.467256 C 60.267587 28.764131 60.876962 27.967256 61.572275 27.248506 C 62.86915 25.908662 63.49415 25.885225 64.912119 27.197725 C 76.037119 39.076631 90.49415 45.607881 106.912119 43.90085 C 141.865244 39.9321 151.05665 0.791475 136.501962 -26.9429 C 125.86915 -47.84915 107.9629 -63.856963 90.017587 -78.41165 C 84.185556 -83.1304 77.982431 -87.313994 71.865244 -91.638213 C 66.447275 -95.470244 61.154306 -95.528838 55.603525 -92.03665 C 30.314462 -75.177275 -2.373038 -48.59915 -13.169913 -19.575713 C -24.205069 9.861787 -9.466788 44.143037 24.849619 44.217256 Z M 24.849619 44.217256 " transform="matrix(1,0,0,-1,4186.6621,2385.4321)"/>
</svg>
