<?xml version="1.0" encoding="UTF-8"?>
<svg xmlns="http://www.w3.org/2000/svg" width="256" height="256" viewBox="2564.58 1777.58 1035.84 1035.84" preserveAspectRatio="xMidYMid meet">
<path style=" stroke:none;fill-rule:nonzero;fill:rgb(27.842712%,14.509583%,1.960754%);fill-opacity:1;" d="M 2963.164062 2186.441406 C 2963.027344 2182.113281 2962.929688 2177.78125 2962.734375 2173.457031 C 2962.601562 2170.597656 2962.191406 2170.105469 2959.339844 2169.390625 C 2934.035156 2163.082031 2908.121094 2173.320312 2887.527344 2187.75 C 2835.84375 2223.472656 2797.71875 2299.957031 2812.183594 2362.722656 C 2815.964844 2380.003906 2826.054688 2395.183594 2840.238281 2405.710938 C 2841.347656 2406.59375 2842.382812 2408.277344 2844.011719 2407.429688 C 2845.363281 2406.726562 2844.730469 2405.007812 2844.789062 2403.734375 C 2845.761719 2372.867188 2856.144531 2342.320312 2876.058594 2318.539062 C 2887.015625 2304.777344 2901.378906 2294.46875 2915.292969 2283.902344 C 2946.40625 2260.390625 2962.289062 2225.039062 2963.164062 2186.441406 M 2865.472656 2405.394531 C 2865.472656 2409.058594 2865.402344 2412.722656 2865.492188 2416.382812 C 2865.566406 2419.359375 2865.960938 2419.832031 2868.671875 2420.683594 C 2875.042969 2422.691406 2881.558594 2424.019531 2888.222656 2424.5 C 2934.609375 2426.394531 2975.722656 2386.667969 2998.394531 2349.578125 C 3029.105469 2299.925781 3046.382812 2215.800781 2986.289062 2181.019531 C 2984.609375 2180.035156 2983.738281 2180.433594 2983.566406 2182.242188 C 2982.96875 2201.136719 2980.601562 2219.710938 2974.105469 2237.59375 C 2963.171875 2269.921875 2939.195312 2293.714844 2911.757812 2312.726562 C 2882.625 2334.554688 2865.558594 2369.046875 2865.472656 2405.394531 M 2788.5 2336.011719 C 2788.652344 2268.636719 2827.519531 2200.402344 2884.03125 2165.058594 C 2907.933594 2150.097656 2937.382812 2142.191406 2965.148438 2149.730469 C 3102.796875 2187.226562 3044.8125 2373.871094 2949.976562 2428.265625 C 2906.414062 2456.082031 2854.835938 2448.984375 2817.816406 2413.761719 C 2796.992188 2394.882812 2788.359375 2362.246094 2788.5 2336.011719 "/>
<path style="fill:none;stroke-width:7;stroke-linecap:butt;stroke-linejoin:miter;stroke:rgb(27.842712%,14.509583%,1.960754%);stroke-opacity:1;stroke-miterlimit:10;" d="M -0.0009375 -0.00100625 C -0.137656 4.327119 -0.235312 8.65915 -0.430625 12.983369 C -0.563437 15.842744 -0.973594 16.334931 -3.825156 17.049775 C -29.129844 23.358369 -55.043906 13.120087 -75.637656 -1.3096 C -127.32125 -37.032256 -165.44625 -113.516631 -150.981406 -176.282256 C -147.200156 -193.563506 -137.110312 -208.743194 -122.926719 -219.270538 C -121.817344 -220.15335 -120.782187 -221.836944 -119.153281 -220.989288 C -117.801719 -220.286163 -118.434531 -218.567413 -118.375937 -217.293975 C -117.403281 -186.426788 -107.020469 -155.879913 -87.106406 -132.098663 C -76.149375 -118.336944 -61.786094 -108.02835 -47.872031 -97.461944 C -16.75875 -73.950225 -0.875937 -38.598663 -0.0009375 -0.00100625 Z M -97.692344 -218.954131 C -97.692344 -222.618194 -97.762656 -226.282256 -97.672812 -229.942413 C -97.598594 -232.918975 -97.204062 -233.391631 -94.493125 -234.243194 C -88.122031 -236.251006 -81.606406 -237.579131 -74.942344 -238.0596 C -28.555625 -239.954131 12.557656 -200.227569 35.229531 -163.137725 C 65.940469 -113.485381 83.217813 -29.360381 23.124063 5.420869 C 21.444375 6.405244 20.573281 6.006806 20.401406 4.198212 C 19.80375 -14.696319 17.436563 -33.270538 10.940469 -51.15335 C 0.006875 -83.481475 -23.969687 -107.274444 -51.407187 -126.286163 C -80.54 -148.114288 -97.606406 -182.606475 -97.692344 -218.954131 Z M -174.665 -149.571319 C -174.512656 -82.196319 -135.645469 -13.961944 -79.13375 21.381806 C -55.231406 36.342744 -25.782187 44.248994 1.983438 36.709931 C 139.631875 -0.786163 81.6475 -187.430694 -13.188437 -241.825225 C -56.750937 -269.641631 -108.329062 -262.543975 -145.348594 -227.321319 C -166.172812 -208.442413 -174.805625 -175.805694 -174.665 -149.571319 Z M -174.665 -149.571319 " transform="matrix(1,0,0,-1,2963.165,2186.4404)"/>
<path style=" stroke:none;fill-rule:nonzero;fill:rgb(27.842712%,14.509583%,1.960754%);fill-opacity:1;" d="M 3261.777344 2370.664062 C 3261.867188 2370.664062 3261.953125 2370.667969 3262.039062 2370.667969 C 3262.039062 2375.164062 3261.984375 2379.664062 3262.054688 2384.160156 C 3262.121094 2388.636719 3263.652344 2392.660156 3266.375 2396.175781 C 3267.796875 2398.007812 3269.367188 2399.761719 3271.0625 2401.34375 C 3277.640625 2407.484375 3284.375 2413.453125 3291.535156 2418.910156 C 3295.945312 2422.59375 3301.664062 2423.105469 3307.160156 2422.257812 C 3314.859375 2420.847656 3322.519531 2419.214844 3330.039062 2417.050781 C 3338.730469 2414.722656 3343.429688 2408.199219 3345.136719 2399.554688 C 3348.195312 2387.109375 3351.277344 2374.664062 3354.292969 2362.207031 C 3355.546875 2357.03125 3356.773438 2351.839844 3357.820312 2346.617188 C 3359.289062 2339.296875 3357.671875 2332.78125 3352.496094 2327.199219 C 3345.949219 2319.652344 3339.332031 2312.164062 3332.335938 2305.019531 C 3324.984375 2297.804688 3314.820312 2305.109375 3308.269531 2309.902344 C 3301.816406 2314.621094 3295.355469 2319.328125 3288.957031 2324.121094 C 3283.625 2328.117188 3278.457031 2332.328125 3273.078125 2336.257812 C 3260.6875 2345.144531 3262.28125 2357.1875 3261.777344 2370.664062 M 3243.394531 2370.375 C 3243.144531 2338.867188 3246.6875 2330.460938 3272.492188 2312.085938 C 3280.902344 2305.820312 3289.351562 2299.605469 3297.808594 2293.40625 C 3301.027344 2291.039062 3304.375 2288.867188 3307.925781 2287.003906 C 3319.535156 2280.996094 3335.554688 2280.570312 3345.109375 2290.496094 C 3353.527344 2299.035156 3361.726562 2307.78125 3369.320312 2317.066406 C 3373.988281 2322.777344 3376.109375 2329.59375 3377.050781 2336.796875 C 3377.878906 2343.15625 3377.132812 2349.4375 3375.628906 2355.617188 C 3371.5 2372.589844 3367.328125 2389.550781 3363.113281 2406.503906 C 3359.921875 2420.550781 3349.246094 2432.003906 3335.222656 2435.71875 C 3316.558594 2440.835938 3295.101562 2447.789062 3278.574219 2433.648438 C 3270.914062 2427.46875 3263.699219 2420.8125 3256.515625 2414.128906 C 3247.796875 2406.015625 3243.5 2395.796875 3243.402344 2383.859375 C 3243.363281 2379.367188 3243.394531 2374.871094 3243.394531 2370.375 "/>
<path style="fill:none;stroke-width:7;stroke-linecap:butt;stroke-linejoin:miter;stroke:rgb(27.842712%,14.509583%,1.960754%);stroke-opacity:1;stroke-miterlimit:10;" d="M -0.00145625 0.0005375 C 0.0883875 0.0005375 0.174325 -0.00336875 0.260263 -0.00336875 C 0.260263 -4.499462 0.205575 -8.999462 0.275888 -13.495556 C 0.342294 -17.972119 1.873544 -21.995556 4.5962 -25.511181 C 6.018075 -27.343212 7.588388 -29.097119 9.2837 -30.67915 C 15.861825 -36.819775 22.5962 -42.788525 29.756356 -48.245556 C 34.166513 -51.92915 39.885263 -52.440869 45.381356 -51.593212 C 53.080575 -50.183056 60.740731 -48.550244 68.260263 -46.386181 C 76.951669 -44.058056 81.650888 -37.534619 83.357919 -28.890087 C 86.416513 -16.444775 89.498544 -3.999462 92.514169 8.457569 C 93.768075 13.63335 94.994638 18.824756 96.041513 24.047413 C 97.510263 31.367725 95.893075 37.88335 90.717294 43.465381 C 84.170419 51.012256 77.553231 58.500538 70.557138 65.645069 C 63.205575 72.859913 53.041513 65.555225 46.490731 60.762256 C 40.037606 56.043506 33.576669 51.336475 27.178231 46.543506 C 21.8462 42.547413 16.678231 38.336475 11.299325 34.406788 C -1.0913 25.520069 0.50245 13.4771 -0.00145625 0.0005375 Z M -18.384269 0.2896 C -18.634269 31.797413 -15.0913 40.203663 10.713388 58.578663 C 19.123544 64.844288 27.572763 71.059131 36.029794 77.25835 C 39.248544 79.625538 42.5962 81.797413 46.146981 83.660694 C 57.756356 89.668506 73.775888 90.094288 83.330575 80.168506 C 91.748544 71.629444 99.947763 62.88335 107.541513 53.598194 C 112.209481 47.887256 114.330575 41.07085 115.271981 33.867725 C 116.100106 27.50835 115.354013 21.2271 113.850106 15.047413 C 109.7212 -1.925244 105.549325 -18.886181 101.334481 -35.839306 C 98.143075 -49.886181 87.467294 -61.339306 73.443856 -65.05415 C 54.779794 -70.171337 33.322763 -77.124462 16.795419 -62.983837 C 9.135263 -56.80415 1.920419 -50.1479 -5.263175 -43.464306 C -13.981925 -35.351025 -18.2788 -25.132275 -18.376456 -13.194775 C -18.415519 -8.702587 -18.384269 -4.206494 -18.384269 0.2896 Z M -18.384269 0.2896 " transform="matrix(1,0,0,-1,3261.7788,2370.6646)"/>
<path style=" stroke:none;fill-rule:nonzero;fill:rgb(27.842712%,14.509583%,1.960754%);fill-opacity:1;" d="M 3177.585938 2421.039062 C 3182.363281 2421.039062 3185.691406 2421.109375 3189.015625 2421.023438 C 3194.242188 2420.886719 3196.691406 2419.25 3198.296875 2414.339844 C 3200.882812 2406.441406 3203.09375 2398.433594 3204.691406 2390.265625 C 3205.726562 2384.992188 3204.5 2380.332031 3200.742188 2376.472656 C 3196.21875 2371.824219 3191.570312 2367.296875 3187.035156 2362.664062 C 3183.195312 2358.738281 3178.644531 2359.355469 3175.332031 2361.757812 C 3168.570312 2366.660156 3162.527344 2372.351562 3156.785156 2378.375 C 3152.96875 2382.199219 3152.675781 2387.796875 3153.09375 2392.878906 C 3153.648438 2399.019531 3154.898438 2405.050781 3156.300781 2411.035156 C 3158.808594 2422.320312 3169.253906 2420.425781 3177.585938 2421.039062 M 3181.144531 2440.128906 C 3164.96875 2440.648438 3146.722656 2438.476562 3140.585938 2421.007812 C 3136.859375 2410.601562 3134.878906 2399.808594 3134.558594 2388.773438 C 3134.289062 2379.5625 3137.457031 2371.425781 3143.65625 2364.628906 C 3149.949219 2357.730469 3157.109375 2351.746094 3164.621094 2346.21875 C 3170.359375 2342.003906 3176.910156 2340.515625 3183.972656 2341.210938 C 3188.738281 2341.679688 3193.054688 2343.300781 3196.652344 2346.496094 C 3203.617188 2352.6875 3210.347656 2359.148438 3216.449219 2366.1875 C 3222.0625 2372.660156 3224.128906 2380.4375 3223.476562 2388.933594 C 3222.53125 2399.578125 3219.003906 2409.71875 3216.097656 2419.929688 C 3212.269531 2433.882812 3200.699219 2440.152344 3189.628906 2440.128906 C 3186.800781 2440.125 3183.972656 2440.128906 3181.144531 2440.128906 "/>
<path style="fill:none;stroke-width:7;stroke-linecap:butt;stroke-linejoin:miter;stroke:rgb(27.842712%,14.509583%,1.960754%);stroke-opacity:1;stroke-miterlimit:10;" d="M -0.0007625 0.0000375 C 4.776581 0.0000375 8.104706 -0.070275 11.428925 0.0156625 C 16.655488 0.152381 19.104706 1.7891 20.710175 6.699256 C 23.296113 14.597694 25.50705 22.605506 27.104706 30.773475 C 28.139863 36.046912 26.9133 40.707069 23.155488 44.566444 C 18.63205 49.214881 13.983613 53.742225 9.448456 58.375037 C 5.608613 62.300819 1.057831 61.683631 -2.254669 59.281287 C -9.016387 54.378944 -15.059356 48.687537 -20.801544 42.6641 C -24.61795 38.839881 -24.910919 33.242225 -24.49295 28.160194 C -23.938262 22.019569 -22.688262 15.988319 -21.285919 10.003944 C -18.778106 -1.281213 -8.332794 0.613319 -0.0007625 0.0000375 Z M 3.557831 -19.089806 C -12.61795 -19.609338 -30.864044 -17.437463 -37.000762 0.0312875 C -40.727325 10.437537 -42.707794 21.230506 -43.028106 32.265662 C -43.297637 41.4766 -40.129669 49.613319 -33.93045 56.410194 C -27.637481 63.308631 -20.477325 69.293006 -12.965606 74.82035 C -7.227325 79.035194 -0.676544 80.523475 6.385956 79.828162 C 11.151581 79.359412 15.467988 77.738319 19.065644 74.543006 C 26.030488 68.3516 32.760956 61.890662 38.862519 54.8516 C 44.4758 48.378944 46.542206 40.6016 45.889863 32.105506 C 44.94455 21.460975 41.417206 11.32035 38.510956 1.109412 C 34.682831 -12.843713 23.112519 -19.113244 12.042206 -19.089806 C 9.214081 -19.0859 6.385956 -19.089806 3.557831 -19.089806 Z M 3.557831 -19.089806 " transform="matrix(1,0,0,-1,3177.5867,2421.0391)"/>
<path style=" stroke:none;fill-rule:nonzero;fill:rgb(27.842712%,14.509583%,1.960754%);fill-opacity:1;" d="M 3078.8125 2425.9375 C 3083.28125 2424.984375 3088.292969 2425.761719 3089.910156 2420.144531 C 3091.035156 2416.496094 3092.300781 2412.894531 3093.421875 2409.246094 C 3094.152344 2406.855469 3093.769531 2405.566406 3091.535156 2404.195312 C 3087.4375 2401.675781 3083.179688 2399.425781 3078.703125 2397.625 C 3077.273438 2397.050781 3075.734375 2396.980469 3074.308594 2397.53125 C 3071.839844 2398.484375 3069.359375 2399.464844 3067.015625 2400.6875 C 3064.964844 2401.757812 3063.96875 2403.621094 3064.011719 2406.023438 C 3064.183594 2416.019531 3062.996094 2415.476562 3071.691406 2423.027344 C 3073.789062 2424.84375 3075.71875 2425.886719 3078.8125 2425.9375 M 3047.578125 2407.136719 C 3047.328125 2399.816406 3049.859375 2392.082031 3056.148438 2387.910156 C 3064.546875 2382.148438 3075.964844 2378.203125 3085.789062 2382.597656 C 3090.621094 2384.808594 3095.304688 2387.339844 3100.050781 2389.738281 C 3107.863281 2394.433594 3111.082031 2401.496094 3109.820312 2410.433594 C 3108.863281 2416.6875 3106.175781 2422.519531 3104.207031 2428.496094 C 3101.664062 2435.503906 3096.648438 2439.707031 3089.355469 2441.066406 C 3080.394531 2442.78125 3069.554688 2443.425781 3062.238281 2436.949219 C 3059.046875 2434.035156 3055.988281 2430.976562 3052.945312 2427.902344 C 3047.457031 2422.4375 3048.453125 2414.21875 3047.578125 2407.136719 "/>
<path style="fill:none;stroke-width:7;stroke-linecap:butt;stroke-linejoin:miter;stroke:rgb(27.842712%,14.509583%,1.960754%);stroke-opacity:1;stroke-miterlimit:10;" d="M 0.0007 0.0005 C 4.46945 0.953625 9.481169 0.176281 11.098356 5.793469 C 12.223356 9.441906 13.488981 13.043469 14.610075 16.691906 C 15.340544 19.082531 14.957731 20.371594 12.723356 21.742687 C 8.6257 24.262219 4.367887 26.512219 -0.108675 28.313 C -1.538363 28.887219 -3.077425 28.957531 -4.503206 28.40675 C -6.971956 27.453625 -9.452425 26.473156 -11.796175 25.2505 C -13.846956 24.180187 -14.84305 22.316906 -14.800081 19.914562 C -14.628206 9.918469 -15.815706 10.461437 -7.120394 2.910656 C -5.022738 1.09425 -3.09305 0.0512812 0.0007 0.0005 Z M -31.233675 18.801281 C -31.483675 26.121594 -28.952425 33.855969 -22.663363 38.027844 C -14.264925 43.789562 -2.846956 47.734875 6.977262 43.340344 C 11.809294 41.129406 16.492887 38.598156 21.238981 36.199719 C 29.051481 31.504406 32.270231 24.441906 31.008512 15.504406 C 30.051481 9.2505 27.363981 3.418469 25.395231 -2.558094 C 22.852262 -9.565906 17.836637 -13.769031 10.543669 -15.128406 C 1.582731 -16.84325 -9.257113 -17.487781 -16.573519 -11.011219 C -19.764925 -8.097156 -22.823519 -5.038563 -25.866488 -1.964344 C -31.354769 3.5005 -30.358675 11.71925 -31.233675 18.801281 Z M -31.233675 18.801281 " transform="matrix(1,0,0,-1,3078.8118,2425.938)"/>
</svg>
