<?xml version="1.0" encoding="UTF-8"?>
<svg xmlns="http://www.w3.org/2000/svg" width="256" height="256" viewBox="4160.95 709.95 1026.10 1026.10" preserveAspectRatio="xMidYMid meet">
<path style=" stroke:none;fill-rule:nonzero;fill:rgb(27.842712%,14.509583%,1.960754%);fill-opacity:1;" d="M 4857.46875 1307.058594 C 4857.46875 1261.246094 4837.183594 1219.050781 4814.40625 1180.378906 C 4786.886719 1133.753906 4757.757812 1088.09375 4728.585938 1042.488281 C 4711.554688 1016.007812 4694.421875 989.589844 4677.339844 963.140625 C 4675.015625 959.546875 4674.359375 959.597656 4671.941406 963.375 C 4651.039062 996.078125 4629.914062 1028.640625 4609.078125 1061.386719 C 4580.75 1106.917969 4551.003906 1151.632812 4525.148438 1198.648438 C 4507.972656 1229.914062 4494.347656 1264.070312 4492.332031 1300.015625 C 4487.777344 1371.527344 4529.738281 1441.457031 4594.640625 1471.597656 C 4718.429688 1531.136719 4857.707031 1444.753906 4857.46875 1307.058594 M 4677.914062 1510.519531 C 4599.003906 1511.625 4522.300781 1465.042969 4489.976562 1392.898438 C 4466.769531 1342.042969 4467.058594 1282.121094 4487.75 1230.457031 C 4502.261719 1193.65625 4523.488281 1160.085938 4544.109375 1126.492188 C 4573.0625 1079.570312 4602.691406 1033.070312 4632.238281 986.523438 C 4637.410156 978.363281 4642.566406 970.195312 4647.738281 962.035156 C 4649.707031 958.9375 4651.429688 955.722656 4652.910156 952.351562 C 4655.019531 947.550781 4657.988281 943.398438 4662.5 940.476562 C 4674.464844 932.441406 4690.316406 938.113281 4695.933594 950.996094 C 4699.199219 958.742188 4704.167969 965.460938 4708.628906 972.476562 C 4721.136719 992.15625 4733.816406 1011.726562 4746.292969 1031.429688 C 4773.875 1075.46875 4802.003906 1119.183594 4828.445312 1163.921875 C 4849.136719 1198.917969 4868.511719 1235.757812 4874.941406 1276.355469 C 4881.5625 1318.832031 4875.039062 1363.351562 4855.285156 1401.644531 C 4822.699219 1467.902344 4751.714844 1511.757812 4677.914062 1510.519531 "/>
<path style="fill:none;stroke-width:7;stroke-linecap:butt;stroke-linejoin:miter;stroke:rgb(27.842712%,14.509583%,1.960754%);stroke-opacity:1;stroke-miterlimit:10;" d="M -0.00145 0.00150625 C -0.00145 45.814006 -20.286606 88.009319 -43.06395 126.681194 C -70.583481 173.306194 -99.712387 218.96635 -128.884262 264.571819 C -145.915512 291.052288 -163.048325 317.470256 -180.130356 343.919475 C -182.454575 347.513225 -183.110825 347.462444 -185.528794 343.6851 C -206.431137 310.981975 -227.556137 278.419475 -248.392075 245.673381 C -276.7202 200.142131 -306.466294 155.427288 -332.321762 108.411663 C -349.497544 77.146038 -363.122544 42.989788 -365.138169 7.044475 C -369.692856 -64.467244 -327.731919 -134.396931 -262.829575 -164.537556 C -139.040512 -224.076619 0.236831 -137.693806 -0.00145 0.00150625 Z M -179.556137 -203.459431 C -258.466294 -204.5649 -335.169419 -157.982869 -367.493637 -85.838337 C -390.700669 -34.982869 -390.411606 24.939006 -369.7202 76.603069 C -355.208481 113.40385 -333.981919 146.974163 -313.360825 180.567913 C -284.4077 227.489788 -254.778794 273.989788 -225.231919 320.536663 C -220.060044 328.696819 -214.903794 336.864788 -209.731919 345.024944 C -207.763169 348.1226 -206.040512 351.337444 -204.560044 354.708538 C -202.450669 359.509319 -199.481919 363.661663 -194.9702 366.583538 C -183.005356 374.618694 -167.153794 368.946819 -161.536606 356.064006 C -158.270981 348.317913 -153.302231 341.599163 -148.841294 334.583538 C -136.333481 314.90385 -123.653794 295.333538 -111.177231 275.630413 C -83.5952 231.59135 -55.466294 187.876506 -29.024887 143.138225 C -8.333481 108.142131 11.041519 71.302288 17.471206 30.704631 C 24.0923 -11.771931 17.568863 -56.291462 -2.185044 -94.584431 C -34.770981 -160.842244 -105.755356 -204.697712 -179.556137 -203.459431 Z M -179.556137 -203.459431 " transform="matrix(1,0,0,-1,4857.4702,1307.0601)"/>
<path style=" stroke:none;fill-rule:nonzero;fill:rgb(27.842712%,14.509583%,1.960754%);fill-opacity:1;" d="M 4609.007812 1303.476562 C 4608.347656 1308.164062 4609.054688 1312.125 4609.324219 1316.105469 C 4610.417969 1332.257812 4614.488281 1347.585938 4621.859375 1362.023438 C 4629.484375 1376.679688 4640.90625 1390.207031 4656.46875 1396.621094 C 4660.257812 1398.136719 4660.996094 1397.878906 4662.628906 1394.222656 C 4664.738281 1389.503906 4666.378906 1384.601562 4667.78125 1379.632812 C 4674.945312 1355.183594 4673.128906 1328.910156 4664.882812 1304.96875 C 4655.058594 1276.207031 4654.328125 1250.644531 4664.449219 1221.808594 C 4665.414062 1219.027344 4665.472656 1217.628906 4661.632812 1218.492188 C 4626.53125 1229.351562 4611 1269.84375 4609.007812 1303.476562 M 4740.710938 1307.539062 C 4739.816406 1273.105469 4724.882812 1230.886719 4689.046875 1218.792969 C 4686.5 1217.71875 4685.234375 1219.785156 4684.433594 1222.023438 C 4673.222656 1249.253906 4673.53125 1273.847656 4683.296875 1301.425781 C 4686.089844 1309.808594 4688.203125 1318.371094 4689.476562 1327.125 C 4692.519531 1349.21875 4690.621094 1372.054688 4683.355469 1393.164062 C 4681.929688 1397.238281 4680.515625 1400.65625 4686.835938 1398.714844 C 4724.027344 1387.96875 4740.3125 1344.261719 4740.710938 1307.539062 M 4759.058594 1309.398438 C 4759.941406 1366.28125 4718.945312 1434.078125 4654.3125 1415.988281 C 4630.628906 1408.402344 4613.1875 1388.453125 4603.03125 1366.378906 C 4587.097656 1332.160156 4586.300781 1291.550781 4600.328125 1256.558594 C 4609.976562 1232.6875 4627.199219 1210.265625 4652.203125 1201.53125 C 4674.628906 1193.746094 4695.488281 1197.300781 4714.878906 1210.617188 C 4745.921875 1232.808594 4759.277344 1272.433594 4759.058594 1309.398438 "/>
<path style="fill:none;stroke-width:7;stroke-linecap:butt;stroke-linejoin:miter;stroke:rgb(27.842712%,14.509583%,1.960754%);stroke-opacity:1;stroke-miterlimit:10;" d="M 0.0005125 -0.0009625 C -0.659644 -4.688463 0.0473875 -8.6494 0.316919 -12.629869 C 1.410669 -28.782213 5.480981 -44.110338 12.852075 -58.547838 C 20.477075 -73.204088 31.89895 -86.731431 47.46145 -93.145494 C 51.250513 -94.661119 51.988794 -94.403306 53.621606 -90.747056 C 55.730981 -86.028306 57.371606 -81.125963 58.77395 -76.157213 C 65.938013 -51.707994 64.121606 -25.434556 55.875513 -1.49315 C 46.051294 27.268569 45.320825 52.831069 55.441919 81.667006 C 56.406763 84.448256 56.465356 85.846694 52.625513 84.983412 C 17.52395 74.124037 1.9927 33.63185 0.0005125 -0.0009625 Z M 131.703638 -4.063463 C 130.809106 30.370131 115.875513 72.588881 80.039575 84.682631 C 77.4927 85.75685 76.227075 83.690444 75.426294 81.452162 C 64.215356 54.221694 64.52395 29.627944 74.289575 2.049819 C 77.082544 -6.332994 79.195825 -14.895494 80.469263 -23.6494 C 83.512231 -45.74315 81.613794 -68.579088 74.348169 -89.688463 C 72.922388 -93.762681 71.508325 -97.18065 77.828638 -95.239244 C 115.020044 -84.49315 131.3052 -40.786119 131.703638 -4.063463 Z M 150.051294 -5.922838 C 150.934106 -62.80565 109.938013 -130.602525 45.3052 -112.512681 C 21.621606 -104.926744 4.1802 -84.977525 -5.97605 -62.903306 C -21.909644 -28.684556 -22.706519 11.924819 -8.679175 46.917006 C 0.969263 70.7881 18.191919 93.209975 43.195825 101.94435 C 65.621606 109.729506 86.480981 106.174819 105.871606 92.858412 C 136.914575 70.667006 150.270044 31.042006 150.051294 -5.922838 Z M 150.051294 -5.922838 " transform="matrix(1,0,0,-1,4609.0073,1303.4756)"/>
</svg>
