<?xml version="1.0" encoding="UTF-8"?>
<svg xmlns="http://www.w3.org/2000/svg" width="256" height="256" viewBox="202.64 1799.64 990.70 990.70" preserveAspectRatio="xMidYMid meet">
<path style=" stroke:none;fill-rule:nonzero;fill:rgb(27.842712%,14.509583%,1.960754%);fill-opacity:1;" d="M 700.570312 2531.003906 C 829.960938 2530.601562 935.0625 2420.742188 932.507812 2291.78125 C 930.34375 2158.222656 814.796875 2050.035156 680.871094 2061.148438 C 565.234375 2069.425781 473.925781 2164.019531 465.488281 2278.957031 C 455.75 2414.292969 563.917969 2532.578125 700.570312 2531.003906 M 698.121094 2033.695312 C 852.464844 2033.582031 970.65625 2166.003906 957.414062 2318.789062 C 947.523438 2443.390625 848.371094 2544.519531 723.878906 2556.460938 C 588.359375 2570.449219 463.648438 2473.546875 442.546875 2339.117188 C 415.972656 2180.726562 536.492188 2033.691406 698.121094 2033.695312 "/>
<path style=" stroke:none;fill-rule:nonzero;fill:rgb(27.842712%,14.509583%,1.960754%);fill-opacity:1;" d="M 710.851562 2223.523438 C 710.851562 2242.503906 710.792969 2261.484375 710.878906 2280.464844 C 710.921875 2290.621094 710.699219 2288.628906 716.992188 2294.039062 C 745.058594 2318.078125 773.296875 2341.921875 801.25 2366.097656 C 803.269531 2367.832031 805.296875 2369.5625 807.390625 2371.210938 C 811.972656 2374.816406 813.230469 2379.621094 812.105469 2385.050781 C 811.109375 2389.847656 808.003906 2393.050781 803.238281 2394.214844 C 798.835938 2395.289062 794.59375 2394.507812 790.941406 2391.699219 C 787.777344 2389.269531 784.6875 2386.722656 781.667969 2384.109375 C 765.609375 2370.109375 749.59375 2356.058594 733.417969 2342.191406 C 719.566406 2330.476562 705.859375 2318.582031 692.027344 2306.847656 C 688.125 2303.609375 686.371094 2299.570312 686.363281 2294.628906 C 686.367188 2251.339844 686.316406 2208.046875 686.296875 2164.757812 C 686.296875 2162.261719 686.214844 2159.761719 686.75 2157.296875 C 687.984375 2151.605469 692.65625 2147.804688 698.546875 2147.707031 C 704.296875 2147.609375 709.101562 2151.457031 710.449219 2157.144531 C 711.03125 2159.601562 711.097656 2162.078125 711.097656 2164.582031 C 711.078125 2184.230469 711.085938 2203.875 711.085938 2223.523438 Z M 710.851562 2223.523438 "/>
</svg>
