<?xml version="1.0" encoding="UTF-8"?>
<svg xmlns="http://www.w3.org/2000/svg" width="256" height="256" viewBox="5098.79 689.79 1072.43 1072.43" preserveAspectRatio="xMidYMid meet">
<path style=" stroke:none;fill-rule:nonzero;fill:rgb(27.842712%,14.509583%,1.960754%);fill-opacity:1;" d="M 5683.75 1153.570312 L 5683.777344 1153.570312 C 5683.605469 1104.253906 5684.117188 1054.929688 5683.570312 1005.621094 C 5681.859375 967.949219 5637 945.769531 5605.441406 970.359375 C 5593.828125 979.625 5587.828125 991.835938 5587.015625 1006.601562 C 5586.457031 1080.730469 5586.984375 1154.886719 5586.828125 1229.023438 C 5586.800781 1253.015625 5586.996094 1277.007812 5586.929688 1301 C 5586.914062 1307.808594 5584.136719 1313.140625 5578.660156 1317.238281 C 5544.996094 1341.445312 5529.949219 1388.105469 5543.914062 1427.261719 C 5557.316406 1466.976562 5597.089844 1494.308594 5639.003906 1492.425781 C 5679.503906 1491.113281 5716.863281 1462.882812 5728.011719 1423.785156 C 5740.496094 1383.917969 5724.777344 1341.019531 5691.367188 1316.507812 C 5686.183594 1312.644531 5683.648438 1307.480469 5683.746094 1301.019531 C 5683.753906 1251.871094 5683.746094 1202.71875 5683.75 1153.570312 M 5705.78125 1147.367188 C 5705.820312 1195.695312 5705.695312 1244.023438 5705.855469 1292.347656 C 5705.816406 1296.683594 5707.632812 1299.894531 5711.003906 1302.621094 C 5735.902344 1322.777344 5752.164062 1353.210938 5754.757812 1385.15625 C 5763.398438 1481.671875 5660.960938 1546.730469 5576.667969 1500.296875 C 5503.433594 1459.675781 5494.585938 1356.421875 5558.941406 1303.316406 C 5562.902344 1299.980469 5564.539062 1296.226562 5564.507812 1291.195312 C 5564.585938 1203.371094 5564.582031 1115.546875 5564.578125 1027.722656 C 5564.578125 1020.558594 5564.542969 1013.390625 5564.605469 1006.226562 C 5564.492188 965.375 5599.714844 934.121094 5640.1875 937.347656 C 5676.511719 938.160156 5707.585938 970.996094 5705.8125 1007.386719 C 5705.726562 1054.046875 5705.597656 1100.707031 5705.652344 1147.367188 Z M 5705.78125 1147.367188 "/>
<path style="fill:none;stroke-width:7;stroke-linecap:butt;stroke-linejoin:miter;stroke:rgb(27.842712%,14.509583%,1.960754%);stroke-opacity:1;stroke-miterlimit:10;" d="M 0.0015 -0.0019125 L 0.0288438 -0.0019125 C -0.143031 49.314494 0.368688 98.638713 -0.178187 147.947306 C -1.889125 185.619181 -46.7485 207.798869 -78.307094 183.209025 C -89.920375 173.9434 -95.920375 161.732463 -96.732875 146.966838 C -97.291469 72.837931 -96.764125 -1.318319 -96.920375 -75.455037 C -96.947719 -99.447225 -96.752406 -123.439412 -96.818812 -147.4316 C -96.834437 -154.240194 -99.611781 -159.572225 -105.088344 -163.669881 C -138.752406 -187.876912 -153.799281 -234.537069 -139.834437 -273.693319 C -126.432094 -313.408162 -86.658656 -340.740194 -44.744594 -338.857381 C -4.244594 -337.544881 33.114781 -309.314412 44.263219 -270.216756 C 56.747594 -230.349569 41.028844 -187.451131 7.618688 -162.939412 C 2.435094 -159.076131 -0.100062 -153.912069 -0.00240625 -147.451131 C 0.00540625 -98.302694 -0.00240625 -49.15035 0.0015 -0.0019125 Z M 22.03275 6.201213 C 22.071813 -42.126912 21.946813 -90.455037 22.106969 -138.779256 C 22.067906 -143.115194 23.884313 -146.326131 27.255406 -149.052694 C 52.153844 -169.208944 68.415563 -199.642537 71.009313 -231.58785 C 79.649938 -328.103475 -22.787562 -393.162069 -107.080531 -346.728475 C -180.314906 -306.107381 -189.162562 -202.853475 -124.807094 -149.748006 C -120.846156 -146.412069 -119.209437 -142.658162 -119.240687 -137.626912 C -119.162562 -49.802694 -119.166469 38.021525 -119.170375 125.845744 C -119.170375 133.009806 -119.205531 140.177775 -119.143031 147.341838 C -119.256312 188.1934 -84.033656 219.447306 -43.561 216.220744 C -7.236781 215.408244 23.837438 182.572306 22.064 146.181681 C 21.978063 99.521525 21.849156 52.861369 21.903844 6.201213 Z M 22.03275 6.201213 " transform="matrix(1,0,0,-1,5683.7485,1153.5684)"/>
<path style=" stroke:none;fill-rule:nonzero;fill:rgb(27.842712%,14.509583%,1.960754%);fill-opacity:1;" d="M 5635.414062 1431.5 C 5672.613281 1430.984375 5686.097656 1381.523438 5649.933594 1364.234375 C 5637.484375 1357.96875 5621.988281 1360.910156 5611.714844 1370.070312 C 5586.300781 1392.007812 5604.0625 1431.804688 5635.414062 1431.5 M 5646.984375 1231.511719 C 5646.984375 1265.5 5646.996094 1299.492188 5646.972656 1333.484375 C 5646.96875 1339.980469 5647.621094 1338.757812 5652.066406 1340.398438 C 5679.160156 1347.972656 5697.074219 1375.554688 5693.558594 1402.742188 C 5691.136719 1425.691406 5674.734375 1445.703125 5652.445312 1451.804688 C 5611.09375 1464.855469 5570.582031 1428.609375 5577.773438 1387.28125 C 5581.496094 1362.875 5597.269531 1346.621094 5620.703125 1339.792969 C 5623.453125 1338.835938 5623.726562 1338.480469 5623.832031 1335.464844 C 5624.132812 1265.496094 5623.085938 1195.484375 5624.078125 1125.53125 C 5625.171875 1111.984375 5645.953125 1111.992188 5646.671875 1126.042969 C 5647.246094 1161.183594 5646.699219 1196.359375 5646.875 1231.511719 Z M 5646.984375 1231.511719 "/>
<path style="fill:none;stroke-width:7;stroke-linecap:butt;stroke-linejoin:miter;stroke:rgb(27.842712%,14.509583%,1.960754%);stroke-opacity:1;stroke-miterlimit:10;" d="M 0.0004625 -0.0015 C 37.199681 0.514125 50.684056 49.975062 14.519994 67.264125 C 2.070775 73.52975 -13.425319 70.588344 -23.698756 61.428187 C -49.112819 39.490687 -31.3511 -0.306188 0.0004625 -0.0015 Z M 11.570775 199.986781 C 11.570775 165.9985 11.582494 132.006312 11.559056 98.014125 C 11.55515 91.518031 12.207494 92.740687 16.652806 91.100062 C 43.746556 83.525844 61.660619 55.943812 58.144994 28.756312 C 55.723119 5.807094 39.320775 -14.204625 17.031713 -20.306188 C -24.31985 -33.356969 -64.831569 2.889125 -57.640162 44.21725 C -53.917506 68.6235 -38.144069 84.877406 -14.710475 91.705531 C -11.960475 92.662562 -11.687037 93.018031 -11.581569 96.033656 C -11.280787 166.002406 -12.327662 236.014125 -11.335475 305.96725 C -10.241725 319.514125 10.539525 319.506312 11.258275 305.455531 C 11.832494 270.314906 11.285619 235.139125 11.4614 199.986781 Z M 11.570775 199.986781 " transform="matrix(1,0,0,-1,5635.4136,1431.4985)"/>
</svg>
