<?xml version="1.0" encoding="UTF-8"?>
<svg xmlns="http://www.w3.org/2000/svg" width="256" height="256" viewBox="11064.00 3235.50 780.99 780.99" preserveAspectRatio="xMidYMid meet">
<path style=" stroke:none;fill-rule:nonzero;fill:rgb(27.842712%,14.509583%,1.960754%);fill-opacity:1;" d="M 11596.359375 3443.578125 L 11596.394531 3443.578125 C 11596.25 3436.601562 11596.742188 3429.554688 11596.117188 3422.609375 C 11594.976562 3415.960938 11588.878906 3411 11582.328125 3411.242188 C 11577.074219 3411.433594 11570.472656 3415.222656 11569.816406 3423.230469 C 11569.695312 3424.722656 11569.574219 3426.21875 11569.53125 3427.714844 C 11569.203125 3439.035156 11569.238281 3450.359375 11569.558594 3461.679688 C 11569.269531 3468.972656 11575.890625 3475.882812 11582.925781 3475.707031 C 11588.589844 3475.59375 11594.289062 3471.15625 11595.757812 3465.503906 C 11596.210938 3463.757812 11596.308594 3461.882812 11596.332031 3460.0625 C 11596.40625 3454.570312 11596.359375 3449.074219 11596.359375 3443.578125 M 11313.921875 3442.839844 L 11313.828125 3442.839844 C 11313.816406 3448.652344 11313.828125 3454.46875 11313.898438 3460.28125 C 11313.550781 3468.273438 11318.421875 3474.667969 11326.375 3475.667969 C 11334.214844 3476.5625 11341.175781 3468.6875 11340.847656 3460.660156 C 11340.855469 3449.199219 11340.890625 3437.738281 11340.824219 3426.277344 C 11340.8125 3424.472656 11340.511719 3422.613281 11340.003906 3420.882812 C 11337.601562 3412.714844 11326.332031 3406.726562 11317.648438 3415.417969 C 11315.027344 3418.042969 11313.949219 3421.273438 11313.929688 3424.898438 C 11313.902344 3430.878906 11313.921875 3436.859375 11313.921875 3442.839844 M 11455.328125 3526.847656 L 11455.328125 3526.804688 C 11529.15625 3526.746094 11602.992188 3526.925781 11676.820312 3526.753906 C 11678.710938 3526.667969 11679.300781 3526.132812 11679.476562 3524.472656 C 11679.578125 3509.15625 11679.738281 3493.804688 11679.375 3478.492188 C 11678.628906 3463.824219 11665.097656 3452.34375 11650.648438 3452.945312 C 11639.316406 3452.910156 11627.980469 3452.917969 11616.648438 3452.917969 C 11615.652344 3452.917969 11614.644531 3452.933594 11613.65625 3453.035156 C 11611.625 3453.25 11611.015625 3453.808594 11610.902344 3455.867188 C 11610.644531 3461.832031 11611.242188 3467.992188 11608.574219 3473.550781 C 11597.199219 3499.425781 11557.277344 3493.5625 11555.371094 3465.15625 C 11555.128906 3462.007812 11555.316406 3458.816406 11554.988281 3455.675781 C 11554.785156 3452.472656 11551.277344 3453.015625 11548.964844 3452.902344 C 11544.964844 3452.890625 11540.964844 3452.914062 11536.964844 3452.914062 C 11477.46875 3453 11417.964844 3452.726562 11358.472656 3452.996094 C 11355.882812 3453.160156 11355.171875 3453.769531 11355.007812 3456.261719 C 11354.832031 3458.921875 11354.875 3461.589844 11354.804688 3464.253906 C 11354.691406 3468.675781 11353.457031 3472.75 11351.261719 3476.601562 C 11337.800781 3499.726562 11300.96875 3491.898438 11299.449219 3464.226562 C 11299.242188 3461.90625 11299.367188 3459.5625 11299.277344 3457.230469 C 11299.140625 3453.585938 11298.722656 3453.164062 11295.28125 3452.988281 C 11283.78125 3452.964844 11272.28125 3452.949219 11260.785156 3453.007812 C 11249.828125 3452.765625 11239.308594 3457.445312 11234.179688 3467.480469 C 11231.898438 3471.632812 11230.738281 3476.101562 11230.730469 3480.886719 C 11230.914062 3495.535156 11230.199219 3510.230469 11230.8125 3524.859375 C 11230.96875 3525.972656 11231.714844 3526.65625 11232.835938 3526.71875 C 11306.996094 3527.078125 11381.167969 3526.730469 11455.328125 3526.847656 M 11455.152344 3541.355469 L 11455.152344 3541.46875 C 11381.019531 3541.773438 11306.84375 3540.871094 11232.734375 3541.808594 C 11231.644531 3541.914062 11230.90625 3542.6875 11230.804688 3543.785156 C 11230.664062 3545.273438 11230.644531 3546.773438 11230.644531 3548.273438 C 11230.609375 3632.894531 11230.578125 3717.519531 11230.558594 3802.144531 C 11230.742188 3808.269531 11230.234375 3814.535156 11231.566406 3820.554688 C 11234.671875 3832.558594 11245.761719 3841.363281 11258.210938 3841.722656 C 11387.503906 3842.011719 11516.808594 3841.703125 11646.105469 3841.78125 C 11662.71875 3843.042969 11674.964844 3833.816406 11678.402344 3821.398438 C 11679.417969 3817.632812 11679.5625 3813.847656 11679.5625 3810.015625 C 11679.542969 3722.230469 11679.492188 3634.441406 11679.605469 3546.652344 C 11679.609375 3542.722656 11679.8125 3541.292969 11674.09375 3541.316406 C 11601.113281 3541.421875 11528.132812 3541.328125 11455.152344 3541.355469 M 11455.273438 3856.554688 C 11389.449219 3856.476562 11323.621094 3856.714844 11257.796875 3856.46875 C 11235.929688 3856.460938 11217.34375 3838.363281 11215.964844 3816.621094 C 11215.359375 3706.183594 11215.886719 3595.695312 11215.726562 3485.246094 C 11215.738281 3480.082031 11215.800781 3474.910156 11217.203125 3469.871094 C 11221.710938 3453.695312 11232.089844 3443.425781 11248.34375 3439.292969 C 11253.355469 3438.019531 11258.585938 3438.015625 11263.753906 3438.011719 C 11273.585938 3437.996094 11283.421875 3438.015625 11293.253906 3438.011719 C 11300.148438 3438.1875 11299.121094 3437.375 11299.34375 3431.449219 C 11299.46875 3427.789062 11299.453125 3424.117188 11299.75 3420.472656 C 11300.738281 3408.300781 11311.460938 3397.988281 11323.671875 3396.65625 C 11336.292969 3395.28125 11345.207031 3400.742188 11351.757812 3410.953125 C 11353.675781 3413.9375 11354.507812 3417.359375 11354.855469 3420.886719 C 11355.234375 3424.714844 11355.132812 3428.535156 11354.960938 3432.371094 C 11354.714844 3437.824219 11354.988281 3438.050781 11360.378906 3438.046875 C 11423.539062 3438.03125 11486.699219 3437.964844 11549.859375 3438.007812 C 11554.714844 3438.003906 11554.921875 3437.789062 11555.074219 3433.011719 C 11555.324219 3420.296875 11554.449219 3411.601562 11565.328125 3402.675781 C 11583.460938 3387.660156 11611.382812 3401.371094 11610.925781 3424.835938 C 11610.800781 3428.164062 11610.746094 3431.5 11610.816406 3434.828125 C 11610.871094 3437.390625 11611.539062 3438.019531 11614.195312 3438.046875 C 11619.859375 3438.101562 11625.527344 3438.046875 11631.191406 3438.046875 C 11638.191406 3438.046875 11645.1875 3438.09375 11652.1875 3438.050781 C 11668.933594 3437.726562 11684.742188 3448.410156 11690.9375 3463.902344 C 11693.488281 3470.15625 11694.566406 3476.683594 11694.527344 3483.429688 C 11694.3125 3592.722656 11694.625 3702.019531 11694.382812 3811.3125 C 11695.476562 3834.550781 11677.253906 3856.382812 11652.253906 3856.492188 C 11629.253906 3856.546875 11606.257812 3856.503906 11583.261719 3856.503906 C 11540.597656 3856.503906 11497.9375 3856.503906 11455.273438 3856.503906 Z M 11455.273438 3856.554688 "/>
<path style="fill:none;stroke-width:7;stroke-linecap:butt;stroke-linejoin:miter;stroke:rgb(27.842712%,14.509583%,1.960754%);stroke-opacity:1;stroke-miterlimit:10;" d="M 0.000975 -0.001025 L 0.0361313 -0.001025 C -0.1084 6.975537 0.383788 14.022412 -0.241212 20.967725 C -1.381837 27.616162 -7.479494 32.5771 -14.030275 32.334912 C -19.284181 32.143506 -25.885744 28.354444 -26.541994 20.346631 C -26.663087 18.854444 -26.784181 17.35835 -26.82715 15.862256 C -27.155275 4.541944 -27.120119 -6.782275 -26.799806 -18.102588 C -27.088869 -25.395556 -20.467775 -32.305713 -13.432619 -32.129931 C -7.768556 -32.01665 -2.069337 -27.57915 -0.600587 -21.926806 C -0.147462 -20.180713 -0.0498062 -18.305713 -0.0263687 -16.4854 C 0.04785 -10.993213 0.000975 -5.497119 0.000975 -0.001025 Z M -282.436525 0.737256 L -282.530275 0.737256 C -282.541994 -5.075244 -282.530275 -10.89165 -282.459962 -16.70415 C -282.807619 -24.696338 -277.936525 -31.090869 -269.9834 -32.090869 C -262.143556 -32.9854 -255.182619 -25.1104 -255.510744 -17.083056 C -255.502931 -5.622119 -255.467775 5.838819 -255.534181 17.299756 C -255.5459 19.104444 -255.846681 20.963819 -256.354494 22.694287 C -258.756837 30.862256 -270.026369 36.850537 -278.709962 28.159131 C -281.331056 25.534131 -282.409181 22.303662 -282.428712 18.678662 C -282.456056 12.698194 -282.436525 6.717725 -282.436525 0.737256 Z M -141.030275 -83.270556 L -141.030275 -83.227588 C -67.20215 -83.168994 6.633788 -83.348681 80.461913 -83.176806 C 82.352538 -83.090869 82.942381 -82.555713 83.118163 -80.895556 C 83.219725 -65.57915 83.379881 -50.227588 83.0166 -34.915088 C 82.270506 -20.247119 68.739256 -8.76665 54.290038 -9.368213 C 42.958006 -9.333056 31.622069 -9.340869 20.290038 -9.340869 C 19.293944 -9.340869 18.286131 -9.356494 17.29785 -9.458056 C 15.2666 -9.6729 14.657225 -10.231494 14.543944 -12.290088 C 14.286131 -18.254931 14.883788 -24.415088 12.215819 -29.973681 C 0.840819 -55.848681 -39.081056 -49.9854 -40.987306 -21.57915 C -41.229494 -18.430713 -41.041994 -15.239306 -41.370119 -12.098681 C -41.573244 -8.895556 -45.081056 -9.438525 -47.393556 -9.325244 C -51.393556 -9.313525 -55.393556 -9.336963 -59.393556 -9.336963 C -118.88965 -9.4229 -178.393556 -9.149463 -237.885744 -9.418994 C -240.475587 -9.583056 -241.186525 -10.192431 -241.350587 -12.684619 C -241.526369 -15.344775 -241.4834 -18.012744 -241.553712 -20.676806 C -241.666994 -25.098681 -242.901369 -29.1729 -245.096681 -33.024463 C -258.557619 -56.149463 -295.38965 -48.321338 -296.909181 -20.649463 C -297.116212 -18.32915 -296.991212 -15.9854 -297.081056 -13.653369 C -297.217775 -10.008838 -297.635744 -9.586963 -301.07715 -9.411181 C -312.57715 -9.387744 -324.07715 -9.372119 -335.573244 -9.430713 C -346.530275 -9.188525 -357.049806 -13.868213 -362.178712 -23.903369 C -364.459962 -28.055713 -365.620119 -32.524463 -365.627931 -37.309619 C -365.444337 -51.958056 -366.159181 -66.653369 -365.5459 -81.282275 C -365.38965 -82.395556 -364.643556 -83.07915 -363.522462 -83.14165 C -289.362306 -83.501025 -215.190431 -83.153369 -141.030275 -83.270556 Z M -141.206056 -97.778369 L -141.206056 -97.89165 C -215.338869 -98.196338 -289.51465 -97.293994 -363.624025 -98.231494 C -364.713869 -98.336963 -365.45215 -99.1104 -365.553712 -100.208056 C -365.694337 -101.696338 -365.713869 -103.196338 -365.713869 -104.696338 C -365.749025 -189.317431 -365.780275 -273.942431 -365.799806 -358.567431 C -365.616212 -364.692431 -366.124025 -370.958056 -364.791994 -376.977588 C -361.686525 -388.981494 -350.596681 -397.786181 -338.147462 -398.145556 C -208.854494 -398.434619 -79.549806 -398.126025 49.747069 -398.20415 C 66.36035 -399.465869 78.606444 -390.239306 82.043944 -377.821338 C 83.059569 -374.055713 83.2041 -370.270556 83.2041 -366.438525 C 83.184569 -278.653369 83.133788 -190.864306 83.247069 -103.075244 C 83.250975 -99.145556 83.4541 -97.715869 77.73535 -97.739306 C 4.754881 -97.844775 -68.225587 -97.751025 -141.206056 -97.778369 Z M -141.084962 -412.977588 C -206.909181 -412.899463 -272.737306 -413.137744 -338.561525 -412.89165 C -360.428712 -412.883838 -379.01465 -394.786181 -380.393556 -373.043994 C -380.999025 -262.606494 -380.471681 -152.118213 -380.631837 -41.668994 C -380.620119 -36.504931 -380.557619 -31.333056 -379.155275 -26.293994 C -374.647462 -10.118213 -364.268556 0.151319 -348.01465 4.284131 C -343.002931 5.557569 -337.772462 5.561475 -332.604494 5.565381 C -322.772462 5.581006 -312.936525 5.561475 -303.104494 5.565381 C -296.209962 5.3896 -297.237306 6.2021 -297.01465 12.127881 C -296.88965 15.788037 -296.905275 19.459912 -296.6084 23.104444 C -295.620119 35.276319 -284.897462 45.588819 -272.686525 46.92085 C -260.065431 48.29585 -251.151369 42.834912 -244.600587 32.623975 C -242.682619 29.6396 -241.850587 26.217725 -241.502931 22.690381 C -241.124025 18.862256 -241.225587 15.041944 -241.397462 11.206006 C -241.643556 5.752881 -241.370119 5.526319 -235.979494 5.530225 C -172.819337 5.54585 -109.659181 5.612256 -46.499025 5.569287 C -41.643556 5.573194 -41.436525 5.788037 -41.284181 10.565381 C -41.034181 23.280225 -41.909181 31.975537 -31.030275 40.901319 C -12.897462 55.916944 15.024413 42.206006 14.567381 18.741162 C 14.442381 15.413037 14.387694 12.0771 14.458006 8.748975 C 14.512694 6.186475 15.180663 5.557569 17.836913 5.530225 C 23.500975 5.475537 29.168944 5.530225 34.833006 5.530225 C 41.833006 5.530225 48.8291 5.48335 55.8291 5.526319 C 72.575194 5.850537 88.383788 -4.833056 94.5791 -20.325244 C 97.129881 -26.57915 98.208006 -33.106494 98.168944 -39.852588 C 97.9541 -149.145556 98.2666 -258.442431 98.024413 -367.7354 C 99.118163 -390.973681 80.895506 -412.805713 55.895506 -412.915088 C 32.895506 -412.969775 9.899413 -412.926806 -13.096681 -412.926806 C -55.760744 -412.926806 -98.4209 -412.926806 -141.084962 -412.926806 Z M -141.084962 -412.977588 " transform="matrix(1,0,0,-1,11596.3584,3443.5771)"/>
<path style="fill:none;stroke-width:21;stroke-linecap:round;stroke-linejoin:round;stroke:rgb(27.842712%,14.509583%,1.960754%);stroke-opacity:1;stroke-miterlimit:10;" d="M 0 0 C 0 -57.160156 -46.339844 -103.5 -103.5 -103.5 C -160.660156 -103.5 -207 -57.160156 -207 0 C -207 57.160156 -160.660156 103.5 -103.5 103.5 C -46.339844 103.5 0 57.160156 0 0 Z M 0 0 " transform="matrix(1,0,0,-1,11556.5,3686)"/>
<path style="fill:none;stroke-width:21;stroke-linecap:round;stroke-linejoin:round;stroke:rgb(27.842712%,14.509583%,1.960754%);stroke-opacity:1;stroke-miterlimit:10;" d="M -0.00000625 0.00143125 L 31.214837 -31.869663 L 96.47265 35.946744 " transform="matrix(1,0,0,-1,11405.2461,3690.7319)"/>
</svg>
