<?xml version="1.0" encoding="UTF-8"?>
<svg xmlns="http://www.w3.org/2000/svg" width="256" height="256" viewBox="9035.44 3296.94 640.12 640.12" preserveAspectRatio="xMidYMid meet">
<path style=" stroke:none;fill-rule:nonzero;fill:rgb(27.842712%,14.509583%,1.960754%);fill-opacity:1;" d="M 9497.359375 3434.207031 L 9497.394531 3434.207031 C 9497.257812 3427.394531 9497.710938 3420.519531 9497.140625 3413.734375 C 9496.054688 3407.074219 9490.003906 3402.042969 9483.457031 3402.234375 C 9477.925781 3402.398438 9471.496094 3406.371094 9470.832031 3414.101562 C 9470.707031 3415.59375 9470.582031 3417.089844 9470.535156 3418.585938 C 9470.1875 3429.910156 9470.253906 3441.230469 9470.546875 3452.554688 C 9470.347656 3459.796875 9476.238281 3466.359375 9483.296875 3466.699219 C 9489.328125 3467.03125 9495.699219 3461.953125 9496.972656 3455.660156 C 9497.808594 3448.574219 9497.175781 3441.339844 9497.359375 3434.207031 M 9214.925781 3433.730469 L 9214.90625 3433.730469 C 9214.90625 3439.710938 9214.898438 3445.691406 9214.910156 3451.671875 C 9214.914062 3453.5 9215.066406 3455.308594 9215.628906 3457.082031 C 9217.304688 3462.378906 9222.300781 3466.390625 9227.753906 3466.75 C 9235.785156 3467 9242.234375 3459.4375 9241.855469 3451.273438 C 9241.855469 3440.140625 9241.855469 3429.011719 9241.875 3417.882812 C 9241.878906 3415.871094 9241.609375 3413.902344 9241.054688 3411.980469 C 9238.722656 3403.867188 9227.480469 3397.6875 9218.722656 3406.339844 C 9216.085938 3408.949219 9214.957031 3412.164062 9214.933594 3415.789062 C 9214.898438 3421.769531 9214.925781 3427.75 9214.925781 3433.730469 M 9356 3517.847656 L 9356 3517.816406 C 9429.996094 3517.746094 9503.996094 3517.949219 9577.992188 3517.742188 C 9579.753906 3517.660156 9580.421875 3517.042969 9580.480469 3515.300781 C 9580.589844 3501.144531 9580.484375 3486.976562 9580.492188 3472.816406 C 9580.488281 3469.820312 9580.304688 3466.851562 9579.441406 3463.921875 C 9576.835938 3455.089844 9568.765625 3444.605469 9553.972656 3444.097656 C 9541.15625 3443.660156 9528.308594 3443.980469 9515.480469 3443.964844 C 9513.074219 3444.066406 9511.921875 3444.570312 9511.886719 3447.039062 C 9511.742188 3449.867188 9511.914062 3452.714844 9511.671875 3455.53125 C 9510.859375 3471.996094 9495.121094 3483.476562 9479.144531 3480.804688 C 9470.429688 3479.609375 9459.132812 3472.65625 9456.835938 3459.449219 C 9456.175781 3455.355469 9456.296875 3451.132812 9456.027344 3447 C 9455.792969 3444.832031 9455.074219 3444.199219 9452.789062 3443.984375 C 9389.964844 3443.773438 9327.128906 3443.980469 9264.296875 3443.902344 C 9262.796875 3443.902344 9261.296875 3443.894531 9259.800781 3443.976562 C 9256.671875 3444.15625 9256.125 3444.683594 9255.949219 3447.929688 C 9255.8125 3450.425781 9255.867188 3452.929688 9255.796875 3455.425781 C 9255.671875 3459.667969 9254.570312 3463.640625 9252.414062 3467.3125 C 9242.800781 3485.042969 9215.449219 3485.96875 9204.875 3468.652344 C 9201.992188 3464.410156 9200.546875 3459.679688 9200.402344 3454.558594 C 9200.332031 3452.226562 9200.367188 3449.890625 9200.253906 3447.5625 C 9200.121094 3444.699219 9199.558594 3444.195312 9196.609375 3444.003906 C 9191.78125 3443.957031 9186.941406 3443.941406 9182.109375 3443.933594 C 9174.945312 3443.9375 9167.777344 3443.910156 9160.613281 3444.015625 C 9155.570312 3444.089844 9150.640625 3444.867188 9146.175781 3447.429688 C 9137.058594 3452.667969 9132.09375 3460.605469 9131.828125 3471.0625 C 9131.492188 3484.214844 9131.613281 3497.382812 9131.570312 3510.546875 C 9131.542969 3518.5625 9131.53125 3517.835938 9139.003906 3517.835938 C 9211.335938 3517.851562 9283.667969 3517.847656 9356 3517.847656 M 9356.164062 3532.347656 L 9356.164062 3532.476562 C 9282.191406 3532.691406 9208.1875 3532.0625 9134.234375 3532.710938 C 9130.769531 3532.894531 9131.835938 3536.894531 9131.640625 3539.261719 C 9131.609375 3623.886719 9131.578125 3708.507812 9131.558594 3793.132812 C 9131.742188 3799.257812 9131.238281 3805.527344 9132.5625 3811.542969 C 9135.664062 3823.550781 9146.753906 3832.363281 9159.199219 3832.722656 C 9290.660156 3832.902344 9422.132812 3832.917969 9553.589844 3832.667969 C 9568.046875 3831.804688 9576.953125 3821.421875 9579.398438 3812.410156 C 9580.464844 3808.476562 9580.558594 3804.523438 9580.558594 3800.527344 C 9580.550781 3756.71875 9580.523438 3712.90625 9580.53125 3669.09375 C 9580.535156 3625.117188 9580.554688 3581.140625 9580.617188 3537.164062 C 9580.621094 3533.574219 9580.269531 3532.492188 9576.101562 3532.3125 C 9502.789062 3532.40625 9429.472656 3532.320312 9356.164062 3532.347656 M 9355.988281 3847.554688 C 9290.5 3847.511719 9225.003906 3847.648438 9159.515625 3847.496094 C 9137.378906 3847.960938 9118.09375 3829.261719 9116.941406 3807.339844 C 9116.402344 3697.0625 9116.867188 3586.75 9116.722656 3476.460938 C 9115.34375 3447.800781 9135.285156 3427.625 9164.039062 3429.023438 C 9173.871094 3428.992188 9183.703125 3428.984375 9193.535156 3429.023438 C 9200.820312 3429.054688 9200.226562 3429.105469 9200.355469 3422.167969 C 9200.425781 3418.503906 9200.453125 3414.832031 9200.785156 3411.191406 C 9204.332031 3385.011719 9238.882812 3378.71875 9252.394531 3401.339844 C 9256.636719 3407.742188 9256.230469 3415.789062 9255.96875 3423.15625 C 9255.691406 3428.835938 9255.964844 3429.046875 9261.664062 3429.042969 C 9324.324219 3429.03125 9386.980469 3429.011719 9449.640625 3429.023438 C 9455.851562 3429.023438 9456.011719 3429.203125 9456.113281 3422.726562 C 9456.175781 3418.898438 9456.328125 3415.070312 9456.527344 3411.246094 C 9457.105469 3400.089844 9467.679688 3389.785156 9478.65625 3387.890625 C 9495.578125 3384.972656 9507.371094 3395.925781 9511.015625 3408.207031 C 9512.515625 3413.210938 9511.660156 3418.476562 9511.773438 3423.613281 C 9511.738281 3428.824219 9511.96875 3429.054688 9516.976562 3429.0625 C 9528.308594 3429.007812 9539.640625 3429.015625 9550.972656 3429.042969 C 9555.472656 3429.0625 9560.011719 3429.105469 9564.347656 3430.441406 C 9579.519531 3435.125 9589.410156 3445.042969 9593.800781 3460.375 C 9595.289062 3465.566406 9595.53125 3470.871094 9595.523438 3476.210938 C 9595.332031 3585.007812 9595.636719 3693.800781 9595.375 3802.597656 C 9596.363281 3825.78125 9578.09375 3847.441406 9552.96875 3847.511719 C 9529.304688 3847.496094 9505.640625 3847.5 9481.976562 3847.5 C 9439.980469 3847.5 9397.984375 3847.5 9355.988281 3847.5 Z M 9355.988281 3847.554688 "/>
<path style="fill:none;stroke-width:7;stroke-linecap:butt;stroke-linejoin:miter;stroke:rgb(27.842712%,14.509583%,1.960754%);stroke-opacity:1;stroke-miterlimit:10;" d="M -0.000025 -0.00143125 L 0.0351313 -0.00143125 C -0.101587 6.811069 0.351538 13.686069 -0.218775 20.471225 C -1.304712 27.131381 -7.355494 32.162631 -13.902369 31.971225 C -19.433619 31.807163 -25.863306 27.834506 -26.527369 20.104038 C -26.652369 18.61185 -26.777369 17.115756 -26.824244 15.619663 C -27.1719 4.295444 -27.105494 -7.024869 -26.812525 -18.349087 C -27.011744 -25.591275 -21.121119 -32.153775 -14.062525 -32.493619 C -8.031275 -32.82565 -1.660181 -27.747525 -0.386744 -21.454556 C 0.449194 -14.368619 -0.183619 -7.134244 -0.000025 -0.00143125 Z M -282.433619 0.475131 L -282.45315 0.475131 C -282.45315 -5.505337 -282.460962 -11.485806 -282.449244 -17.466275 C -282.445337 -19.2944 -282.292994 -21.102994 -281.730494 -22.876431 C -280.054712 -28.173306 -275.058619 -32.185025 -269.605494 -32.5444 C -261.574244 -32.7944 -255.125025 -25.2319 -255.503931 -17.067837 C -255.503931 -5.935025 -255.503931 5.193881 -255.4844 16.322788 C -255.480494 18.334506 -255.750025 20.303256 -256.304712 22.225131 C -258.636744 30.338413 -269.878931 36.5181 -278.636744 27.865756 C -281.273462 25.256381 -282.402369 22.041538 -282.425806 18.416538 C -282.460962 12.436069 -282.433619 6.4556 -282.433619 0.475131 Z M -141.3594 -83.642056 L -141.3594 -83.610806 C -67.363306 -83.540494 6.636694 -83.743619 80.632788 -83.536587 C 82.394506 -83.454556 83.062475 -82.837369 83.121069 -81.095181 C 83.230444 -66.938931 83.124975 -52.770962 83.132788 -38.610806 C 83.128881 -35.614712 82.945288 -32.645962 82.082006 -29.716275 C 79.476538 -20.884244 71.406225 -10.399869 56.613256 -9.892056 C 43.79685 -9.454556 30.949194 -9.774869 18.121069 -9.759244 C 15.714819 -9.860806 14.562475 -10.364712 14.527319 -12.833462 C 14.382788 -15.661587 14.554663 -18.509244 14.312475 -21.32565 C 13.499975 -37.790494 -2.238306 -49.270962 -18.214869 -46.599087 C -26.929712 -45.403775 -38.226587 -38.45065 -40.523462 -25.243619 C -41.183619 -21.149869 -41.062525 -16.927212 -41.332056 -12.7944 C -41.566431 -10.626431 -42.285181 -9.993619 -44.570337 -9.778775 C -107.394556 -9.567837 -170.230494 -9.774869 -233.062525 -9.696744 C -234.562525 -9.696744 -236.062525 -9.688931 -237.558619 -9.770962 C -240.687525 -9.95065 -241.2344 -10.477994 -241.410181 -13.724087 C -241.5469 -16.220181 -241.492212 -18.724087 -241.562525 -21.220181 C -241.687525 -25.462369 -242.789087 -29.435025 -244.945337 -33.1069 C -254.558619 -50.837369 -281.910181 -51.76315 -292.4844 -34.446744 C -295.367212 -30.204556 -296.812525 -25.474087 -296.957056 -20.352994 C -297.027369 -18.020962 -296.992212 -15.685025 -297.105494 -13.3569 C -297.238306 -10.493619 -297.800806 -9.989712 -300.750025 -9.798306 C -305.57815 -9.751431 -310.417994 -9.735806 -315.250025 -9.727994 C -322.414087 -9.7319 -329.582056 -9.704556 -336.746119 -9.810025 C -341.789087 -9.884244 -346.718775 -10.661587 -351.183619 -13.224087 C -360.300806 -18.462369 -365.26565 -26.399869 -365.531275 -36.8569 C -365.867212 -50.009244 -365.746119 -63.177212 -365.789087 -76.341275 C -365.816431 -84.3569 -365.82815 -83.630337 -358.355494 -83.630337 C -286.023462 -83.645962 -213.691431 -83.642056 -141.3594 -83.642056 Z M -141.195337 -98.142056 L -141.195337 -98.270962 C -215.167994 -98.485806 -289.1719 -97.8569 -363.125025 -98.505337 C -366.589869 -98.688931 -365.523462 -102.688931 -365.718775 -105.056119 C -365.750025 -189.681119 -365.781275 -274.302212 -365.800806 -358.927212 C -365.617212 -365.052212 -366.121119 -371.321744 -364.7969 -377.337369 C -361.695337 -389.345181 -350.605494 -398.157681 -338.160181 -398.517056 C -206.699244 -398.696744 -75.226587 -398.712369 56.230444 -398.462369 C 70.687475 -397.599087 79.593725 -387.216275 82.039038 -378.204556 C 83.105444 -374.270962 83.199194 -370.317837 83.199194 -366.321744 C 83.191381 -322.51315 83.164038 -278.70065 83.17185 -234.88815 C 83.175756 -190.911587 83.195288 -146.935025 83.257788 -102.958462 C 83.261694 -99.368619 82.910131 -98.286587 78.742163 -98.1069 C 5.429663 -98.20065 -67.886744 -98.114712 -141.195337 -98.142056 Z M -141.371119 -413.349087 C -206.8594 -413.306119 -272.355494 -413.442837 -337.843775 -413.290494 C -359.980494 -413.755337 -379.26565 -395.056119 -380.417994 -373.134244 C -380.957056 -262.8569 -380.492212 -152.5444 -380.636744 -42.255337 C -382.01565 -13.595181 -362.074244 6.5806 -333.320337 5.182163 C -323.488306 5.213413 -313.656275 5.221225 -303.824244 5.182163 C -296.539087 5.150913 -297.132837 5.100131 -297.003931 12.037631 C -296.933619 15.701694 -296.906275 19.373569 -296.574244 23.014194 C -293.027369 49.193881 -258.476587 55.48685 -244.964869 32.865756 C -240.722681 26.463413 -241.128931 18.416538 -241.39065 11.04935 C -241.667994 5.369663 -241.394556 5.158725 -235.695337 5.162631 C -173.035181 5.17435 -110.378931 5.193881 -47.718775 5.182163 C -41.507837 5.182163 -41.347681 5.002475 -41.246119 11.479038 C -41.183619 15.307163 -41.031275 19.135288 -40.832056 22.959506 C -40.253931 34.115756 -29.679712 44.420444 -18.70315 46.314975 C -1.781275 49.232944 10.011694 38.279819 13.656225 25.998569 C 15.156225 20.994663 14.300756 15.729038 14.414038 10.592319 C 14.378881 5.381381 14.60935 5.150913 19.617163 5.1431 C 30.949194 5.197788 42.281225 5.189975 53.613256 5.162631 C 58.113256 5.1431 62.652319 5.100131 66.988256 3.764194 C 82.160131 -0.9194 92.050756 -10.837369 96.441381 -26.1694 C 97.929663 -31.360806 98.17185 -36.665494 98.164038 -42.005337 C 97.972631 -150.802212 98.277319 -259.595181 98.0156 -368.392056 C 99.003881 -391.57565 80.73435 -413.235806 55.60935 -413.306119 C 31.945288 -413.290494 8.281225 -413.2944 -15.382837 -413.2944 C -57.378931 -413.2944 -99.375025 -413.2944 -141.371119 -413.2944 Z M -141.371119 -413.349087 " transform="matrix(1,0,0,-1,9497.3594,3434.2056)"/>
<path style=" stroke:none;fill-rule:nonzero;fill:rgb(27.842712%,14.509583%,1.960754%);fill-opacity:1;" d="M 9470.742188 3727.269531 C 9470.535156 3744.816406 9483.6875 3760.886719 9504.007812 3761.492188 C 9549.34375 3761.738281 9550.710938 3695.140625 9504.992188 3693.503906 C 9486.765625 3693.480469 9471.273438 3707.0625 9470.742188 3727.269531 M 9550.992188 3727.664062 C 9551.847656 3749.773438 9534.054688 3773.953125 9505.472656 3774.21875 C 9443.972656 3773.929688 9442.046875 3682.773438 9504.789062 3680.820312 C 9531.011719 3680.355469 9551.65625 3702.554688 9550.992188 3727.664062 "/>
<path style=" stroke:none;fill-rule:nonzero;fill:rgb(27.842712%,14.509583%,1.960754%);fill-opacity:1;" d="M 9223.234375 3727.734375 L 9223.300781 3727.734375 C 9223.265625 3722.078125 9223.382812 3716.414062 9223.246094 3710.761719 C 9223.125 3707.320312 9221.734375 3705.890625 9218.472656 3705.601562 C 9207.828125 3705.492188 9197.167969 3705.582031 9186.519531 3705.554688 C 9183.425781 3705.433594 9180.105469 3705.914062 9179.347656 3709.421875 C 9179.035156 3710.695312 9178.960938 3712.054688 9178.960938 3713.378906 C 9178.929688 3723.191406 9179.03125 3733.011719 9178.917969 3742.824219 C 9178.855469 3748.085938 9181.042969 3750.042969 9186.105469 3749.960938 C 9196.589844 3749.785156 9207.074219 3749.933594 9217.558594 3749.941406 C 9222.304688 3750.226562 9223.445312 3747.4375 9223.222656 3743.207031 C 9223.246094 3738.050781 9223.234375 3732.890625 9223.234375 3727.734375 M 9167.175781 3727.769531 C 9167.175781 3722.28125 9167.140625 3716.792969 9167.195312 3711.304688 C 9166.808594 3702.945312 9170.332031 3695.425781 9179.152344 3693.722656 C 9181.429688 3693.3125 9183.78125 3693.15625 9186.097656 3693.144531 C 9196.742188 3693.089844 9207.386719 3693.113281 9218.03125 3693.140625 C 9228.945312 3692.746094 9235.863281 3699.96875 9235.660156 3710.789062 C 9235.691406 3722.429688 9235.65625 3734.070312 9235.625 3745.710938 C 9235.621094 3748.046875 9235.460938 3750.386719 9234.578125 3752.574219 C 9231.804688 3759.890625 9224.753906 3762.984375 9217.304688 3762.59375 C 9206.492188 3762.601562 9195.679688 3762.617188 9184.871094 3762.582031 C 9183.046875 3762.574219 9181.195312 3762.5 9179.414062 3762.171875 C 9173.449219 3761.066406 9167.363281 3755.597656 9167.308594 3748.21875 C 9167.300781 3746.890625 9167.222656 3745.558594 9167.222656 3744.230469 C 9167.210938 3738.742188 9167.21875 3733.253906 9167.21875 3727.769531 Z M 9167.175781 3727.769531 "/>
<path style=" stroke:none;fill-rule:nonzero;fill:rgb(27.842712%,14.509583%,1.960754%);fill-opacity:1;" d="M 9302.625 3749.863281 L 9302.625 3749.96875 C 9308.4375 3749.90625 9314.269531 3750.097656 9320.074219 3749.886719 C 9324.703125 3749.734375 9324.65625 3745.6875 9324.617188 3742.007812 C 9324.597656 3738.683594 9324.511719 3735.363281 9324.519531 3732.039062 C 9324.527344 3725.558594 9324.648438 3719.078125 9324.59375 3712.597656 C 9324.539062 3706.527344 9323.539062 3705.554688 9317.679688 3705.542969 C 9308.039062 3705.519531 9298.398438 3705.539062 9288.757812 3705.550781 C 9279.089844 3705.019531 9280.65625 3710.109375 9280.496094 3717.527344 C 9280.503906 3726.332031 9280.585938 3735.140625 9280.527344 3743.945312 C 9280.5 3748.179688 9282.773438 3750.039062 9286.671875 3749.910156 C 9291.984375 3749.730469 9297.308594 3749.863281 9302.625 3749.863281 M 9336.933594 3727.84375 C 9336.933594 3733.839844 9336.949219 3739.839844 9336.925781 3745.835938 C 9336.917969 3747.664062 9336.917969 3749.507812 9336.3125 3751.273438 C 9334.097656 3757.710938 9329.644531 3761.476562 9322.878906 3762.390625 C 9310.914062 3762.878906 9298.886719 3762.453125 9286.898438 3762.578125 C 9275.261719 3763.292969 9268.082031 3755.820312 9268.34375 3744.269531 C 9268.3125 3733.273438 9268.300781 3722.28125 9268.363281 3711.285156 C 9268.375 3709.304688 9268.613281 3707.292969 9268.996094 3705.34375 C 9270.691406 3696.351562 9278.40625 3692.75 9286.984375 3693.167969 C 9298.972656 3693.246094 9310.988281 3692.808594 9322.964844 3693.25 C 9330.839844 3694.277344 9336.253906 3699.949219 9336.910156 3707.859375 C 9337.167969 3714.511719 9336.957031 3721.1875 9337.019531 3727.84375 Z M 9336.933594 3727.84375 "/>
<path style=" stroke:none;fill-rule:nonzero;fill:rgb(27.842712%,14.509583%,1.960754%);fill-opacity:1;" d="M 9425.960938 3727.757812 L 9426.058594 3727.757812 C 9426.027344 3721.933594 9426.136719 3716.097656 9425.949219 3710.273438 C 9425.9375 3706.101562 9422.886719 3705.40625 9419.308594 3705.582031 C 9409.3125 3705.578125 9399.316406 3705.570312 9389.324219 3705.570312 C 9385.460938 3705.398438 9381.855469 3706.050781 9381.996094 3710.75 C 9381.90625 3722.074219 9381.902344 3733.398438 9381.984375 3744.722656 C 9382.015625 3748.414062 9383.4375 3749.632812 9387.25 3749.855469 C 9397.910156 3749.953125 9408.570312 3749.925781 9419.234375 3749.96875 C 9424.375 3750.226562 9426.277344 3748.445312 9425.957031 3743.246094 C 9425.96875 3738.082031 9425.960938 3732.921875 9425.960938 3727.757812 M 9369.699219 3727.804688 C 9369.699219 3721.808594 9369.617188 3715.816406 9369.71875 3709.824219 C 9369.890625 3699.34375 9375.800781 3693.289062 9386.15625 3693.183594 C 9398.644531 3693.113281 9411.136719 3693.066406 9423.621094 3693.269531 C 9435.125 3694.097656 9438.585938 3703.011719 9438.550781 3711.566406 C 9438.601562 3722.21875 9438.578125 3732.875 9438.550781 3743.53125 C 9438.546875 3745.023438 9438.34375 3746.519531 9438.304688 3748.015625 C 9438.125 3754.964844 9432.011719 3762.121094 9423.195312 3762.546875 C 9411.039062 3762.648438 9398.882812 3762.550781 9386.730469 3762.609375 C 9381.851562 3762.621094 9377.621094 3761.222656 9374.128906 3757.617188 C 9371.15625 3754.550781 9369.855469 3750.945312 9369.847656 3746.78125 C 9369.832031 3740.453125 9369.84375 3734.128906 9369.84375 3727.804688 Z M 9369.699219 3727.804688 "/>
<path style=" stroke:none;fill-rule:nonzero;fill:rgb(27.842712%,14.509583%,1.960754%);fill-opacity:1;" d="M 9223.238281 3621.808594 L 9223.292969 3621.808594 C 9223.292969 3616.65625 9223.195312 3611.503906 9223.316406 3606.355469 C 9223.464844 3600.011719 9221.261719 3599.15625 9215.898438 3599.234375 C 9206.261719 3599.371094 9196.617188 3599.292969 9186.976562 3599.316406 C 9183.605469 3599.332031 9180.242188 3599.035156 9179.308594 3603.039062 C 9179.019531 3604.144531 9178.972656 3605.339844 9178.96875 3606.496094 C 9179.066406 3617.289062 9178.726562 3628.113281 9179.109375 3638.886719 C 9179.621094 3642.636719 9182.796875 3643.746094 9186.167969 3643.554688 C 9196.472656 3643.570312 9206.777344 3643.574219 9217.085938 3643.570312 C 9222.425781 3643.796875 9223.511719 3641.089844 9223.234375 3636.265625 C 9223.246094 3631.449219 9223.238281 3626.628906 9223.238281 3621.808594 M 9201.550781 3655.898438 C 9195.222656 3655.898438 9188.898438 3655.90625 9182.578125 3655.894531 C 9178.589844 3655.886719 9175.074219 3654.664062 9172.121094 3651.898438 C 9168.433594 3648.675781 9167.058594 3644.121094 9167.242188 3639.320312 C 9167.359375 3626.515625 9166.777344 3613.679688 9167.402344 3600.894531 C 9167.792969 3591.144531 9177.011719 3585.953125 9185.679688 3586.6875 C 9196.5 3586.679688 9207.316406 3586.6875 9218.136719 3586.691406 C 9228.867188 3586.3125 9235.953125 3594.015625 9235.640625 3604.585938 C 9235.6875 3616.234375 9235.648438 3627.882812 9235.660156 3639.53125 C 9235.664062 3643.105469 9235.046875 3646.503906 9232.890625 3649.449219 C 9230.082031 3653.289062 9226.292969 3655.566406 9221.515625 3655.765625 C 9214.871094 3655.996094 9208.203125 3655.824219 9201.550781 3655.871094 Z M 9201.550781 3655.898438 "/>
<path style=" stroke:none;fill-rule:nonzero;fill:rgb(27.842712%,14.509583%,1.960754%);fill-opacity:1;" d="M 9381.914062 3621.140625 L 9381.867188 3621.140625 C 9381.882812 3626.792969 9381.847656 3632.449219 9381.964844 3638.097656 C 9381.867188 3643.394531 9385.710938 3643.65625 9390.03125 3643.570312 C 9399.511719 3643.582031 9408.988281 3643.59375 9418.46875 3643.578125 C 9421.597656 3643.683594 9425.445312 3643.417969 9425.929688 3639.5625 C 9426.230469 3628.277344 9426.007812 3616.949219 9426.042969 3605.652344 C 9426.015625 3600.324219 9424.957031 3599.363281 9419.476562 3599.347656 C 9409.5 3599.328125 9399.523438 3599.347656 9389.542969 3599.359375 C 9383.5625 3599.128906 9381.582031 3600.386719 9381.917969 3606.675781 C 9381.910156 3611.496094 9381.914062 3616.320312 9381.914062 3621.140625 M 9404.101562 3655.980469 C 9398.265625 3655.980469 9392.433594 3655.988281 9386.601562 3655.976562 C 9378.679688 3656.523438 9371.226562 3651.261719 9370.050781 3643.207031 C 9369.273438 3630.597656 9369.882812 3617.882812 9369.660156 3605.238281 C 9369.660156 3603.742188 9369.726562 3602.242188 9369.863281 3600.75 C 9370.597656 3592.8125 9377.878906 3586.871094 9385.027344 3586.71875 C 9397.851562 3586.625 9410.699219 3586.566406 9423.519531 3586.765625 C 9432.921875 3587.371094 9438.929688 3595.5625 9438.542969 3604.675781 C 9438.582031 3615.171875 9438.585938 3625.667969 9438.535156 3636.167969 C 9438.523438 3638.492188 9438.386719 3640.839844 9438.042969 3643.140625 C 9436.976562 3650.296875 9431.8125 3655.3125 9424.589844 3655.65625 C 9417.773438 3655.976562 9410.933594 3655.722656 9404.101562 3655.722656 Z M 9404.101562 3655.980469 "/>
<path style=" stroke:none;fill-rule:nonzero;fill:rgb(27.842712%,14.509583%,1.960754%);fill-opacity:1;" d="M 9483.34375 3621.359375 C 9483.34375 3626.851562 9483.28125 3632.339844 9483.363281 3637.828125 C 9483.429688 3642.199219 9484.613281 3643.324219 9489.050781 3643.578125 C 9498.699219 3643.664062 9508.351562 3643.574219 9518 3643.59375 C 9522.875 3643.617188 9527.4375 3643.914062 9527.207031 3637.734375 C 9527.230469 3627.085938 9527.175781 3616.441406 9527.140625 3605.792969 C 9527.253906 3603.207031 9526.816406 3599.882812 9523.667969 3599.527344 C 9511.726562 3599.046875 9499.703125 3599.316406 9487.746094 3599.40625 C 9483.335938 3599.664062 9483.265625 3603.265625 9483.351562 3606.886719 C 9483.34375 3611.710938 9483.347656 3616.535156 9483.34375 3621.359375 M 9471.125 3621.054688 C 9471.125 3614.894531 9471.09375 3608.730469 9471.136719 3602.570312 C 9471.171875 3597.402344 9473.355469 3593.257812 9477.386719 3590.074219 C 9480.382812 3587.703125 9483.847656 3586.714844 9487.625 3586.703125 C 9493.789062 3586.683594 9499.949219 3586.652344 9506.113281 3586.660156 C 9511.945312 3586.664062 9517.777344 3586.703125 9523.605469 3586.734375 C 9528.386719 3586.761719 9532.292969 3588.636719 9535.453125 3592.214844 C 9538.730469 3595.574219 9539.449219 3600.199219 9539.527344 3604.699219 C 9539.578125 3615.855469 9539.5625 3627.015625 9539.597656 3638.171875 C 9539.988281 3646.648438 9535.191406 3654.90625 9526.175781 3655.660156 C 9523.375 3655.992188 9520.523438 3655.964844 9517.695312 3655.980469 C 9507.035156 3655.964844 9496.367188 3656.21875 9485.71875 3655.914062 C 9476.402344 3655.375 9471.324219 3648.402344 9471.113281 3640.539062 C 9470.953125 3634.050781 9471.113281 3627.550781 9471.078125 3621.054688 Z M 9471.125 3621.054688 "/>
<path style=" stroke:none;fill-rule:nonzero;fill:rgb(27.842712%,14.509583%,1.960754%);fill-opacity:1;" d="M 9302.96875 3599.304688 L 9302.96875 3599.261719 C 9297.308594 3599.28125 9291.644531 3599.257812 9285.984375 3599.40625 C 9281.496094 3599.382812 9280.453125 3601.65625 9280.476562 3605.910156 C 9280.503906 3616.398438 9280.53125 3626.886719 9280.566406 3637.375 C 9280.410156 3640.460938 9281.6875 3643.128906 9285.019531 3643.460938 C 9295.828125 3643.734375 9306.671875 3643.53125 9317.488281 3643.585938 C 9323.386719 3643.570312 9324.46875 3642.511719 9324.515625 3636.578125 C 9324.589844 3626.753906 9324.578125 3616.933594 9324.570312 3607.109375 C 9324.496094 3601.023438 9324.183594 3598.992188 9317.457031 3599.3125 C 9312.625 3599.296875 9307.796875 3599.304688 9302.96875 3599.304688 M 9336.945312 3622.179688 C 9336.945312 3628.171875 9336.753906 3634.167969 9336.996094 3640.152344 C 9337.285156 3647.46875 9331.765625 3655.886719 9321.230469 3655.90625 C 9308.746094 3655.925781 9296.265625 3655.851562 9283.78125 3655.886719 C 9275.492188 3655.910156 9269.371094 3649.421875 9268.6875 3642.652344 C 9267.757812 3630.066406 9268.53125 3617.367188 9268.332031 3604.742188 C 9268.339844 3603.089844 9268.542969 3601.421875 9268.84375 3599.792969 C 9270.21875 3591.328125 9277.300781 3586.382812 9285.644531 3586.699219 C 9297.128906 3586.6875 9308.613281 3586.699219 9320.101562 3586.679688 C 9323.867188 3586.671875 9327.378906 3587.53125 9330.402344 3589.839844 C 9334.628906 3593.066406 9336.859375 3597.40625 9336.96875 3602.710938 C 9337.089844 3609.199219 9336.9375 3615.691406 9336.972656 3622.179688 Z M 9336.945312 3622.179688 "/>
<path style=" stroke:none;fill-rule:nonzero;fill:rgb(27.842712%,14.509583%,1.960754%);fill-opacity:1;" d="M 9526.667969 3716.570312 C 9526.8125 3720.679688 9523.011719 3723.039062 9520.515625 3725.753906 C 9514.988281 3731.265625 9509.40625 3736.730469 9503.914062 3742.269531 C 9500.582031 3745.382812 9497.609375 3745.671875 9494.246094 3742.601562 C 9490.699219 3739.359375 9487.515625 3735.722656 9484.183594 3732.25 C 9482.148438 3729.886719 9482.191406 3726.128906 9484.285156 3724.078125 C 9486.1875 3722.15625 9489.796875 3721.695312 9492.085938 3723.398438 C 9493.933594 3724.777344 9495.488281 3726.546875 9497.183594 3728.132812 C 9498.765625 3729.617188 9499.433594 3729.738281 9500.96875 3728.21875 C 9504.980469 3724.25 9508.898438 3720.183594 9512.839844 3716.136719 C 9514.34375 3714.59375 9515.722656 3712.910156 9517.597656 3711.777344 C 9521.324219 3709.15625 9526.589844 3712.144531 9526.667969 3716.570312 "/>
</svg>
