<?xml version="1.0" encoding="UTF-8"?>
<svg xmlns="http://www.w3.org/2000/svg" width="256" height="256" viewBox="1690.34 3294.84 644.31 644.31" preserveAspectRatio="xMidYMid meet">
<path style=" stroke:none;fill-rule:nonzero;fill:rgb(27.842712%,14.509583%,1.960754%);fill-opacity:1;" d="M 2154.359375 3434.230469 L 2154.394531 3434.230469 C 2154.261719 3427.421875 2154.707031 3420.546875 2154.148438 3413.761719 C 2153.074219 3407.105469 2147.027344 3402.050781 2140.480469 3402.234375 C 2134.90625 3402.390625 2128.503906 3406.386719 2127.835938 3414.078125 C 2127.707031 3415.570312 2127.582031 3417.0625 2127.535156 3418.5625 C 2127.1875 3429.882812 2127.25 3441.203125 2127.550781 3452.527344 C 2127.339844 3459.539062 2132.746094 3465.898438 2139.773438 3466.667969 C 2144.855469 3467.265625 2151.097656 3463.253906 2153.25 3458.074219 C 2154.164062 3455.863281 2154.359375 3453.566406 2154.359375 3451.21875 C 2154.355469 3445.558594 2154.359375 3439.894531 2154.359375 3434.230469 M 1871.921875 3433.878906 L 1871.898438 3433.878906 C 1871.898438 3439.691406 1871.882812 3445.507812 1871.902344 3451.320312 C 1871.910156 3453.144531 1872 3454.960938 1872.523438 3456.746094 C 1874.097656 3462.136719 1878.816406 3466.128906 1884.40625 3466.71875 C 1889.222656 3467.226562 1894.921875 3463.738281 1897.261719 3458.863281 C 1898.4375 3456.414062 1898.859375 3453.820312 1898.859375 3451.125 C 1898.855469 3440.160156 1898.855469 3429.199219 1898.878906 3418.234375 C 1898.886719 3416.054688 1898.648438 3413.914062 1898.019531 3411.835938 C 1895.585938 3403.855469 1884.65625 3397.871094 1875.972656 3406.09375 C 1873.140625 3408.777344 1871.941406 3412.121094 1871.925781 3415.9375 C 1871.90625 3421.917969 1871.921875 3427.898438 1871.921875 3433.878906 M 2013.5 3517.847656 L 2013.5 3517.816406 C 2087.328125 3517.746094 2161.164062 3517.949219 2234.992188 3517.742188 C 2236.753906 3517.664062 2237.417969 3517.042969 2237.484375 3515.300781 C 2237.589844 3501.140625 2237.484375 3486.976562 2237.492188 3472.816406 C 2237.484375 3469.816406 2237.304688 3466.847656 2236.441406 3463.921875 C 2233.835938 3455.085938 2225.761719 3444.605469 2210.96875 3444.097656 C 2198.152344 3443.660156 2185.308594 3443.976562 2172.476562 3443.964844 C 2170.074219 3444.066406 2168.917969 3444.570312 2168.886719 3447.039062 C 2168.742188 3449.867188 2168.914062 3452.714844 2168.671875 3455.53125 C 2167.859375 3472 2152.117188 3483.476562 2136.144531 3480.800781 C 2127.425781 3479.605469 2116.132812 3472.652344 2113.835938 3459.445312 C 2113.175781 3455.355469 2113.300781 3451.128906 2113.027344 3447 C 2112.792969 3444.828125 2112.074219 3444.199219 2109.785156 3443.984375 C 2046.964844 3443.773438 1984.125 3443.976562 1921.296875 3443.902344 C 1919.796875 3443.902344 1918.292969 3443.890625 1916.796875 3443.976562 C 1913.671875 3444.15625 1913.125 3444.683594 1912.949219 3447.933594 C 1912.8125 3450.425781 1912.867188 3452.929688 1912.796875 3455.425781 C 1912.671875 3459.671875 1911.570312 3463.640625 1909.414062 3467.3125 C 1899.800781 3485.046875 1872.445312 3485.96875 1861.875 3468.652344 C 1858.992188 3464.410156 1857.546875 3459.675781 1857.398438 3454.554688 C 1857.332031 3452.222656 1857.367188 3449.886719 1857.253906 3447.558594 C 1857.117188 3444.699219 1856.5625 3444.195312 1853.605469 3444.003906 C 1848.777344 3443.960938 1843.941406 3443.941406 1839.109375 3443.933594 C 1831.941406 3443.9375 1824.777344 3443.914062 1817.609375 3444.015625 C 1812.738281 3444.082031 1807.960938 3444.808594 1803.609375 3447.1875 C 1794.382812 3452.246094 1789.203125 3460.140625 1788.871094 3470.566406 C 1788.554688 3485.535156 1788.34375 3500.570312 1788.757812 3515.539062 C 1788.964844 3516.964844 1789.59375 3517.625 1791.011719 3517.726562 C 1865.167969 3518.0625 1939.339844 3517.734375 2013.5 3517.847656 M 2013.503906 3532.351562 L 2013.503906 3532.476562 C 1940.859375 3532.476562 1868.210938 3532.472656 1795.5625 3532.484375 C 1788.660156 3532.484375 1788.644531 3532.539062 1788.640625 3539.417969 C 1788.609375 3623.875 1788.574219 3708.332031 1788.558594 3792.789062 C 1788.785156 3799.039062 1788.167969 3805.597656 1789.566406 3811.707031 C 1792.816406 3823.675781 1803.867188 3832.398438 1816.355469 3832.730469 C 1820.1875 3832.832031 1824.019531 3832.828125 1827.851562 3832.828125 C 1955.648438 3832.671875 2083.457031 3833.078125 2211.246094 3832.632812 C 2227.242188 3831.5625 2238.785156 3817.160156 2237.5625 3801.371094 C 2237.570312 3713.582031 2237.566406 3625.792969 2237.597656 3538.007812 C 2237.597656 3533.742188 2238.046875 3532.277344 2231.945312 3532.320312 C 2159.132812 3532.40625 2086.320312 3532.320312 2013.503906 3532.351562 M 2013.507812 3847.558594 C 1947.851562 3847.511719 1882.191406 3847.652344 1816.53125 3847.496094 C 1794.398438 3847.964844 1775.105469 3829.28125 1773.941406 3807.355469 C 1773.402344 3697.078125 1773.867188 3586.765625 1773.726562 3476.476562 C 1772.339844 3447.820312 1792.265625 3427.632812 1821.023438 3429.023438 C 1830.855469 3428.992188 1840.6875 3428.984375 1850.519531 3429.023438 C 1857.8125 3429.054688 1857.230469 3429.113281 1857.359375 3422.179688 C 1857.425781 3418.519531 1857.453125 3414.847656 1857.78125 3411.207031 C 1861.308594 3385.03125 1895.871094 3378.707031 1909.382812 3401.328125 C 1913.632812 3407.722656 1913.226562 3415.773438 1912.964844 3423.136719 C 1912.695312 3428.832031 1912.964844 3429.046875 1918.648438 3429.042969 C 1981.308594 3429.03125 2043.96875 3429.019531 2106.628906 3429.007812 C 2112.988281 3429.007812 2112.960938 3429.011719 2113.109375 3422.742188 C 2113.199219 3418.914062 2113.328125 3415.085938 2113.527344 3411.261719 C 2114.101562 3400.085938 2124.675781 3389.789062 2135.640625 3387.894531 C 2152.566406 3384.964844 2164.355469 3395.910156 2168.015625 3408.191406 C 2169.640625 3413.859375 2168.550781 3419.800781 2168.808594 3425.597656 C 2168.863281 3428.449219 2169.484375 3428.960938 2172.460938 3429.066406 C 2173.460938 3429.101562 2174.460938 3429.042969 2175.460938 3429.042969 C 2186.292969 3429.039062 2197.125 3429 2207.957031 3429.042969 C 2212.457031 3429.0625 2216.996094 3429.101562 2221.335938 3430.4375 C 2236.503906 3435.113281 2246.398438 3445.03125 2250.796875 3460.359375 C 2252.285156 3465.550781 2252.53125 3470.855469 2252.523438 3476.199219 C 2252.332031 3584.992188 2252.632812 3693.789062 2252.375 3802.582031 C 2253.363281 3825.765625 2235.105469 3847.4375 2209.984375 3847.511719 C 2186.320312 3847.5 2162.65625 3847.503906 2138.992188 3847.5 C 2097.164062 3847.5 2055.335938 3847.5 2013.507812 3847.5 Z M 2013.507812 3847.558594 "/>
<path style="fill:none;stroke-width:7;stroke-linecap:butt;stroke-linejoin:miter;stroke:rgb(27.842712%,14.509583%,1.960754%);stroke-opacity:1;stroke-miterlimit:10;" d="M 0.001675 0.00193125 L 0.0368312 0.00193125 C -0.0959813 6.810525 0.349331 13.685525 -0.209263 20.470681 C -1.283481 27.126931 -7.330356 32.181619 -13.877231 31.998025 C -19.45145 31.841775 -25.853794 27.845681 -26.521763 20.154275 C -26.650669 18.662087 -26.775669 17.1699 -26.822544 15.6699 C -27.1702 4.349587 -27.1077 -6.970725 -26.806919 -18.294944 C -27.017856 -25.306663 -21.611606 -31.666038 -14.584263 -32.435569 C -9.502231 -33.033225 -3.260044 -29.021506 -1.1077 -23.841819 C -0.193638 -21.630881 0.001675 -19.334006 0.001675 -16.98635 C -0.00223125 -11.326194 0.001675 -5.662131 0.001675 0.00193125 Z M -282.435825 0.353494 L -282.459263 0.353494 C -282.459263 -5.459006 -282.474888 -11.275413 -282.455356 -17.087913 C -282.447544 -18.912131 -282.3577 -20.728538 -281.834263 -22.513694 C -280.260044 -27.904319 -275.541294 -31.896506 -269.95145 -32.48635 C -265.135044 -32.994163 -259.435825 -29.505881 -257.095981 -24.630881 C -255.9202 -22.181663 -255.498325 -19.587913 -255.498325 -16.8926 C -255.502231 -5.927756 -255.502231 5.033181 -255.478794 15.998025 C -255.470981 18.177712 -255.709263 20.318337 -256.338169 22.396462 C -258.771763 30.376931 -269.70145 36.361306 -278.385044 28.13865 C -281.217075 25.455056 -282.416294 22.111306 -282.431919 18.2949 C -282.45145 12.314431 -282.435825 6.333962 -282.435825 0.353494 Z M -140.8577 -83.615256 L -140.8577 -83.584006 C -67.029575 -83.513694 6.806362 -83.716819 80.634487 -83.509788 C 82.396206 -83.431663 83.060269 -82.810569 83.126675 -81.068381 C 83.232144 -66.908225 83.126675 -52.744163 83.134487 -38.584006 C 83.126675 -35.584006 82.946987 -32.615256 82.083706 -29.689475 C 79.478237 -20.853538 71.404019 -10.373069 56.61105 -9.865256 C 43.794644 -9.427756 30.950894 -9.744163 18.118862 -9.732444 C 15.716519 -9.834006 14.560269 -10.337913 14.529019 -12.806663 C 14.384487 -15.634788 14.556362 -18.482444 14.314175 -21.29885 C 13.501675 -37.7676 -2.240513 -49.244163 -18.213169 -46.568381 C -26.931919 -45.373069 -38.224888 -38.419944 -40.521763 -25.212913 C -41.181919 -21.123069 -41.056919 -16.896506 -41.330356 -12.7676 C -41.564731 -10.595725 -42.283481 -9.966819 -44.572544 -9.751975 C -107.392856 -9.541038 -170.2327 -9.744163 -233.060825 -9.669944 C -234.560825 -9.669944 -236.064731 -9.658225 -237.560825 -9.744163 C -240.685825 -9.92385 -241.2327 -10.451194 -241.408481 -13.701194 C -241.5452 -16.193381 -241.490513 -18.697288 -241.560825 -21.193381 C -241.685825 -25.439475 -242.787388 -29.408225 -244.943638 -33.0801 C -254.556919 -50.814475 -281.912388 -51.73635 -292.4827 -34.419944 C -295.365513 -30.177756 -296.810825 -25.443381 -296.959263 -20.322288 C -297.025669 -17.990256 -296.990513 -15.654319 -297.103794 -13.326194 C -297.240513 -10.466819 -297.7952 -9.962913 -300.752231 -9.771506 C -305.580356 -9.728538 -310.416294 -9.709006 -315.248325 -9.701194 C -322.416294 -9.7051 -329.580356 -9.681663 -336.748325 -9.783225 C -341.619419 -9.849631 -346.396763 -10.576194 -350.748325 -12.9551 C -359.974888 -18.013694 -365.154575 -25.908225 -365.486606 -36.334006 C -365.803013 -51.302756 -366.01395 -66.337913 -365.599888 -81.306663 C -365.392856 -82.732444 -364.76395 -83.3926 -363.345981 -83.494163 C -289.189731 -83.8301 -215.017856 -83.501975 -140.8577 -83.615256 Z M -140.853794 -98.119163 L -140.853794 -98.244163 C -213.498325 -98.244163 -286.146763 -98.240256 -358.7952 -98.251975 C -365.697544 -98.251975 -365.713169 -98.306663 -365.717075 -105.185569 C -365.748325 -189.6426 -365.783481 -274.099631 -365.799106 -358.556663 C -365.572544 -364.806663 -366.189731 -371.365256 -364.791294 -377.474631 C -361.541294 -389.443381 -350.490513 -398.166038 -338.002231 -398.498069 C -334.1702 -398.599631 -330.338169 -398.595725 -326.506138 -398.595725 C -198.709263 -398.439475 -70.900669 -398.845725 56.888394 -398.400413 C 72.884487 -397.3301 84.427456 -382.927756 83.2048 -367.138694 C 83.212612 -279.349631 83.208706 -191.560569 83.239956 -103.775413 C 83.239956 -99.509788 83.689175 -98.044944 77.587612 -98.087913 C 4.775112 -98.17385 -68.037388 -98.087913 -140.853794 -98.119163 Z M -140.849888 -413.326194 C -206.506138 -413.279319 -272.166294 -413.419944 -337.82645 -413.263694 C -359.959263 -413.732444 -379.252231 -395.04885 -380.416294 -373.123069 C -380.955356 -262.845725 -380.490513 -152.533225 -380.631138 -42.244163 C -382.017856 -13.587913 -362.092075 6.599587 -333.334263 5.208962 C -323.502231 5.240212 -313.6702 5.248025 -303.838169 5.208962 C -296.5452 5.177712 -297.127231 5.119119 -296.998325 12.052712 C -296.931919 15.712869 -296.904575 19.384744 -296.57645 23.025369 C -293.049106 49.20115 -258.486606 55.525369 -244.974888 32.904275 C -240.724888 26.509744 -241.131138 18.458962 -241.392856 11.095681 C -241.662388 5.400369 -241.392856 5.185525 -235.709263 5.189431 C -173.049106 5.20115 -110.38895 5.212869 -47.728794 5.224587 C -41.369419 5.224587 -41.396763 5.220681 -41.248325 11.490212 C -41.158481 15.318337 -41.029575 19.146462 -40.830356 22.970681 C -40.256138 34.146462 -29.681919 44.443337 -18.717075 46.337869 C -1.791294 49.267556 9.997769 38.322244 13.657925 26.040994 C 15.282925 20.373025 14.193081 14.431619 14.450894 8.634744 C 14.505581 5.783181 15.126675 5.271462 18.103237 5.165994 C 19.103237 5.130837 20.103237 5.189431 21.103237 5.189431 C 31.935269 5.193337 42.7673 5.2324 53.599331 5.189431 C 58.099331 5.1699 62.638394 5.130837 66.978237 3.7949 C 82.146206 -0.880881 92.040737 -10.79885 96.439175 -26.126975 C 97.927456 -31.318381 98.17355 -36.623069 98.165737 -41.966819 C 97.974331 -150.759788 98.275112 -259.556663 98.0173 -368.349631 C 99.005581 -391.533225 80.747769 -413.2051 55.626675 -413.279319 C 31.962612 -413.2676 8.29855 -413.271506 -15.365513 -413.2676 C -57.193638 -413.2676 -99.021763 -413.2676 -140.849888 -413.2676 Z M -140.849888 -413.326194 " transform="matrix(1,0,0,-1,2154.3577,3434.2324)"/>
<path style=" stroke:none;fill-rule:nonzero;fill:rgb(27.842712%,14.509583%,1.960754%);fill-opacity:1;" d="M 2183.9375 3620.28125 L 2183.875 3620.28125 C 2183.875 3615.128906 2183.945312 3609.976562 2183.859375 3604.828125 C 2183.757812 3598.71875 2182.65625 3597.675781 2176.417969 3597.664062 C 2166.777344 3597.640625 2157.136719 3597.667969 2147.496094 3597.691406 C 2144.503906 3597.585938 2140.914062 3597.867188 2140.472656 3601.535156 C 2140.015625 3612.972656 2140.335938 3624.464844 2140.296875 3635.917969 C 2140.34375 3641.699219 2141.605469 3642.835938 2147.457031 3642.863281 C 2157.097656 3642.90625 2166.738281 3642.886719 2176.378906 3642.882812 C 2182.171875 3643.21875 2184.28125 3640.984375 2183.929688 3635.238281 C 2183.945312 3630.253906 2183.9375 3625.265625 2183.9375 3620.28125 M 2126.359375 3620.21875 C 2126.359375 3614.390625 2126.367188 3608.566406 2126.355469 3602.738281 C 2126.351562 3600.730469 2126.507812 3598.753906 2126.980469 3596.792969 C 2128.738281 3589.5 2134.128906 3584.625 2141.582031 3583.6875 C 2153.707031 3583.03125 2165.894531 3583.527344 2178.039062 3583.332031 C 2187.703125 3582.914062 2195.898438 3588.515625 2197.214844 3598.34375 C 2197.492188 3600.144531 2197.632812 3601.980469 2197.640625 3603.800781 C 2197.671875 3614.789062 2197.625 3625.777344 2197.65625 3636.765625 C 2197.789062 3650.824219 2189.738281 3657.75 2175.933594 3657.191406 C 2165.777344 3657.242188 2155.617188 3657.214844 2145.460938 3657.226562 C 2141.382812 3657.230469 2137.535156 3656.53125 2134.128906 3654.058594 C 2128.890625 3650.253906 2126.300781 3645.117188 2126.242188 3638.699219 C 2126.191406 3632.539062 2126.230469 3626.378906 2126.230469 3620.21875 Z M 2126.359375 3620.21875 "/>
<path style=" stroke:none;fill-rule:nonzero;fill:rgb(27.842712%,14.509583%,1.960754%);fill-opacity:1;" d="M 2040.695312 3620.324219 L 2040.773438 3620.324219 C 2040.820312 3626.144531 2040.65625 3631.976562 2040.84375 3637.792969 C 2040.996094 3641.0625 2042.578125 3642.566406 2045.84375 3642.816406 C 2055.320312 3642.9375 2064.816406 3642.878906 2074.300781 3642.9375 C 2078.808594 3642.992188 2083.851562 3643.570312 2084.222656 3637.679688 C 2084.367188 3626.871094 2084.269531 3616.046875 2084.261719 3605.234375 C 2084.226562 3598.839844 2083.03125 3597.664062 2076.644531 3597.636719 C 2067.160156 3597.601562 2057.671875 3597.632812 2048.1875 3597.664062 C 2041.648438 3597.507812 2040.464844 3599.601562 2040.699219 3605.847656 C 2040.683594 3610.675781 2040.695312 3615.5 2040.695312 3620.324219 M 2098.050781 3620.769531 C 2098.050781 3626.933594 2098.0625 3633.097656 2098.046875 3639.261719 C 2098.03125 3645.996094 2094.992188 3651.039062 2089.363281 3654.601562 C 2085.714844 3657.097656 2081.089844 3657.058594 2076.847656 3657.3125 C 2066.515625 3657.339844 2056.183594 3657.257812 2045.855469 3657.222656 C 2037.398438 3657.476562 2028.476562 3651.8125 2027.460938 3642.972656 C 2026.59375 3629.859375 2027.265625 3616.652344 2027.039062 3603.511719 C 2027.039062 3602.011719 2027.175781 3600.515625 2027.257812 3599.019531 C 2027.734375 3590.242188 2035.648438 3583.761719 2043.414062 3583.480469 C 2056.394531 3583.40625 2069.417969 3582.914062 2082.386719 3583.5 C 2090.292969 3584.230469 2097.476562 3590.914062 2097.898438 3599.78125 C 2098.1875 3606.773438 2098.042969 3613.773438 2098.074219 3620.769531 Z M 2098.050781 3620.769531 "/>
<path style=" stroke:none;fill-rule:nonzero;fill:rgb(27.842712%,14.509583%,1.960754%);fill-opacity:1;" d="M 1985.390625 3620.53125 C 1985.34375 3620.53125 1985.296875 3620.53125 1985.25 3620.53125 C 1985.25 3615.546875 1985.132812 3610.554688 1985.277344 3605.574219 C 1985.460938 3599.226562 1984.0625 3597.496094 1977.046875 3597.597656 C 1967.570312 3597.734375 1958.089844 3597.804688 1948.617188 3597.625 C 1943.554688 3597.527344 1941.527344 3599.546875 1941.574219 3604.292969 C 1941.839844 3615.417969 1941.066406 3626.582031 1941.667969 3637.691406 C 1942.074219 3641.367188 1943.449219 3642.773438 1947.097656 3642.808594 C 1957.738281 3642.90625 1968.382812 3642.953125 1979.023438 3642.859375 C 1983.882812 3642.816406 1985.371094 3641.042969 1985.386719 3635.992188 C 1985.402344 3630.839844 1985.390625 3625.6875 1985.390625 3620.53125 M 1998.824219 3620.414062 C 1998.824219 3626.070312 1998.832031 3631.730469 1998.820312 3637.386719 C 1999.628906 3646.433594 1994.535156 3654.964844 1985.25 3656.640625 C 1983.296875 3657.011719 1981.28125 3657.1875 1979.296875 3657.199219 C 1968.3125 3657.253906 1957.324219 3657.246094 1946.339844 3657.234375 C 1936.71875 3657.5625 1928.117188 3649.738281 1927.859375 3640.066406 C 1927.667969 3626.757812 1927.410156 3613.4375 1928.003906 3600.136719 C 1928.425781 3590.65625 1935.183594 3584.078125 1944.660156 3583.492188 C 1948.308594 3583.269531 1951.976562 3583.328125 1955.640625 3583.308594 C 1964.957031 3583.378906 1974.289062 3582.984375 1983.59375 3583.503906 C 1990.929688 3583.992188 1998.789062 3591.101562 1998.824219 3599.949219 C 1998.820312 3606.769531 1998.773438 3613.59375 1998.792969 3620.414062 Z M 1998.824219 3620.414062 "/>
<path style=" stroke:none;fill-rule:nonzero;fill:rgb(27.842712%,14.509583%,1.960754%);fill-opacity:1;" d="M 2084.246094 3730.660156 L 2084.222656 3730.660156 C 2084.167969 3724.839844 2084.34375 3719.003906 2084.15625 3713.191406 C 2083.941406 3709.882812 2082.523438 3708.464844 2079.21875 3708.015625 C 2068.75 3707.691406 2058.246094 3707.949219 2047.765625 3707.941406 C 2042.070312 3707.996094 2040.71875 3709.378906 2040.695312 3715.082031 C 2040.652344 3725.566406 2040.839844 3736.054688 2040.695312 3746.535156 C 2040.621094 3752.726562 2044.019531 3753.519531 2049.203125 3753.265625 C 2059.019531 3753.261719 2068.847656 3753.457031 2078.660156 3753.34375 C 2083.964844 3753.101562 2084.4375 3749.140625 2084.246094 3744.640625 C 2084.25 3739.980469 2084.246094 3735.320312 2084.246094 3730.660156 M 2098.027344 3730.957031 C 2098.027344 3737.125 2097.824219 3743.296875 2098.078125 3749.449219 C 2098.386719 3756.96875 2092.617188 3766.148438 2081.957031 3767.421875 C 2069.816406 3767.917969 2057.625 3767.378906 2045.46875 3767.546875 C 2041.148438 3767.554688 2037.277344 3766.335938 2033.785156 3763.816406 C 2028.394531 3760.121094 2026.941406 3754.191406 2027.089844 3747.980469 C 2027.160156 3735.15625 2026.722656 3722.316406 2027.210938 3709.503906 C 2027.648438 3700.613281 2035.519531 3694.03125 2043.730469 3693.757812 C 2048.222656 3693.609375 2052.726562 3693.667969 2057.226562 3693.652344 C 2064.722656 3693.632812 2072.222656 3693.617188 2079.722656 3693.617188 C 2084.019531 3693.621094 2087.953125 3694.777344 2091.324219 3697.519531 C 2095.582031 3700.984375 2097.847656 3705.472656 2097.90625 3710.96875 C 2097.976562 3717.632812 2097.921875 3724.296875 2097.921875 3730.957031 Z M 2098.027344 3730.957031 "/>
<path style=" stroke:none;fill-rule:nonzero;fill:rgb(27.842712%,14.509583%,1.960754%);fill-opacity:1;" d="M 2183.910156 3731.164062 C 2183.878906 3731.164062 2183.847656 3731.164062 2183.8125 3731.164062 C 2183.8125 3725.347656 2183.921875 3719.527344 2183.777344 3713.710938 C 2183.671875 3709.492188 2182.191406 3708.179688 2177.929688 3707.941406 C 2170.117188 3707.871094 2162.300781 3707.972656 2154.488281 3707.96875 C 2151.496094 3707.976562 2148.496094 3707.867188 2145.511719 3708.042969 C 2141.757812 3708.261719 2140.550781 3709.589844 2140.285156 3713.3125 C 2140.199219 3724.113281 2140.257812 3734.917969 2140.234375 3745.722656 C 2140.144531 3749.265625 2140.699219 3752.882812 2144.890625 3753.167969 C 2156.3125 3753.390625 2167.875 3753.492188 2179.289062 3753.132812 C 2183.703125 3752.648438 2184.089844 3748.789062 2183.90625 3745.125 C 2183.917969 3740.472656 2183.910156 3735.816406 2183.910156 3731.164062 M 2126.324219 3730.5625 C 2126.515625 3723.140625 2125.835938 3715.460938 2126.757812 3708.117188 C 2128.292969 3700.082031 2133.914062 3694.886719 2142.035156 3693.890625 C 2154.675781 3693.519531 2167.351562 3693.796875 2180.003906 3693.691406 C 2185.707031 3693.695312 2190.296875 3696.058594 2193.835938 3700.5 C 2195.523438 3702.613281 2196.800781 3704.917969 2197.046875 3707.683594 C 2197.238281 3709.835938 2197.589844 3711.984375 2197.597656 3714.136719 C 2197.417969 3726.9375 2198.15625 3739.808594 2197.164062 3752.5625 C 2196.789062 3760.753906 2188.15625 3768.234375 2177.910156 3767.511719 C 2166.917969 3767.523438 2155.925781 3767.5 2144.9375 3767.542969 C 2140.8125 3767.558594 2137.050781 3766.613281 2133.707031 3764.09375 C 2128.683594 3760.308594 2126.269531 3755.253906 2126.214844 3749.042969 C 2126.164062 3742.882812 2126.203125 3736.722656 2126.203125 3730.5625 Z M 2126.324219 3730.5625 "/>
<path style=" stroke:none;fill-rule:nonzero;fill:rgb(27.842712%,14.509583%,1.960754%);fill-opacity:1;" d="M 1842.476562 3620.074219 L 1842.527344 3620.074219 C 1842.527344 3625.402344 1842.476562 3630.726562 1842.542969 3636.050781 C 1842.609375 3641.78125 1843.628906 3642.800781 1849.21875 3642.835938 C 1858.539062 3642.898438 1867.859375 3642.917969 1877.183594 3642.933594 C 1880.601562 3642.976562 1884.925781 3643.179688 1885.707031 3638.910156 C 1886.238281 3627.632812 1885.78125 3616.277344 1885.894531 3604.976562 C 1885.863281 3598.808594 1884.722656 3597.652344 1878.609375 3597.644531 C 1868.953125 3597.625 1859.300781 3597.699219 1849.644531 3597.75 C 1844.273438 3597.527344 1842.214844 3598.996094 1842.484375 3604.601562 C 1842.472656 3609.757812 1842.476562 3614.917969 1842.476562 3620.074219 M 1899.792969 3620.6875 C 1899.792969 3627.019531 1899.882812 3633.351562 1899.765625 3639.679688 C 1899.664062 3644.910156 1897.75 3649.410156 1893.675781 3652.867188 C 1891.207031 3654.960938 1888.476562 3656.472656 1885.207031 3656.824219 C 1883.550781 3657 1881.890625 3657.226562 1880.230469 3657.226562 C 1869.398438 3657.246094 1858.566406 3657.230469 1847.734375 3657.171875 C 1838.53125 3657.496094 1830.136719 3651.601562 1829.023438 3642.125 C 1828.371094 3629.328125 1828.835938 3616.46875 1828.675781 3603.652344 C 1828.679688 3601.664062 1828.933594 3599.667969 1829.160156 3597.6875 C 1829.953125 3590.773438 1836.703125 3584.066406 1844.535156 3583.585938 C 1857.1875 3583.21875 1869.871094 3583.191406 1882.523438 3583.417969 C 1892.28125 3583.59375 1899.535156 3591.105469 1899.730469 3601.195312 C 1899.839844 3607.691406 1899.859375 3614.1875 1899.851562 3620.6875 Z M 1899.792969 3620.6875 "/>
<path style=" stroke:none;fill-rule:nonzero;fill:rgb(27.842712%,14.509583%,1.960754%);fill-opacity:1;" d="M 1985.355469 3730.558594 C 1985.304688 3730.558594 1985.257812 3730.558594 1985.210938 3730.558594 C 1985.160156 3724.578125 1985.320312 3718.582031 1985.144531 3712.605469 C 1984.851562 3707.90625 1980.359375 3707.898438 1976.703125 3707.890625 C 1967.390625 3707.890625 1958.078125 3707.925781 1948.765625 3707.964844 C 1945.433594 3707.832031 1942.054688 3708.53125 1941.675781 3712.457031 C 1941.464844 3723.410156 1941.464844 3734.402344 1941.492188 3745.363281 C 1941.679688 3752.234375 1942.671875 3753.199219 1949.375 3753.253906 C 1958.519531 3753.328125 1967.667969 3753.339844 1976.8125 3753.335938 C 1981.832031 3753.496094 1985.769531 3752.421875 1985.351562 3746.519531 C 1985.355469 3741.199219 1985.355469 3735.878906 1985.355469 3730.558594 M 1998.800781 3730.804688 C 1998.792969 3737.296875 1998.816406 3743.785156 1998.78125 3750.277344 C 1998.742188 3761.050781 1990.542969 3766.90625 1982.210938 3767.484375 C 1970.066406 3767.601562 1957.910156 3767.558594 1945.761719 3767.519531 C 1938.652344 3767.46875 1933.410156 3764.125 1929.898438 3757.984375 C 1928.453125 3755.457031 1927.808594 3752.722656 1927.804688 3749.855469 C 1927.804688 3737.042969 1927.808594 3724.230469 1927.894531 3711.417969 C 1927.96875 3700.9375 1935.96875 3693.648438 1946.171875 3693.691406 C 1957.660156 3693.738281 1969.144531 3693.667969 1980.628906 3693.625 C 1985.300781 3693.609375 1989.453125 3694.898438 1992.988281 3698.082031 C 1996.792969 3701.515625 1998.792969 3705.714844 1998.808594 3710.835938 C 1998.828125 3717.492188 1998.8125 3724.148438 1998.8125 3730.804688 Z M 1998.800781 3730.804688 "/>
<path style=" stroke:none;fill-rule:nonzero;fill:rgb(27.842712%,14.509583%,1.960754%);fill-opacity:1;" d="M 1842.429688 3730.257812 L 1842.46875 3730.257812 C 1842.46875 3735.582031 1842.417969 3740.910156 1842.484375 3746.234375 C 1842.558594 3752.179688 1843.585938 3753.183594 1849.519531 3753.234375 C 1858.507812 3753.304688 1867.496094 3753.339844 1876.488281 3753.378906 C 1880.929688 3753.417969 1885.613281 3753.507812 1885.84375 3747.933594 C 1885.964844 3737.121094 1885.875 3726.296875 1885.867188 3715.476562 C 1885.839844 3709.109375 1884.648438 3707.902344 1878.25 3707.894531 C 1868.929688 3707.886719 1859.605469 3707.984375 1850.28125 3708.0625 C 1844.882812 3708.042969 1842.144531 3708.582031 1842.433594 3714.777344 C 1842.425781 3719.9375 1842.429688 3725.097656 1842.429688 3730.257812 M 1899.769531 3730.699219 C 1899.769531 3737.019531 1899.828125 3743.339844 1899.753906 3749.660156 C 1899.6875 3755.476562 1897.460938 3760.300781 1892.789062 3763.914062 C 1889.34375 3766.578125 1885.394531 3767.566406 1881.117188 3767.558594 C 1872.136719 3767.542969 1863.152344 3767.546875 1854.167969 3767.53125 C 1846.46875 3767.574219 1839.507812 3768.25 1833.667969 3762.160156 C 1829.84375 3758.601562 1828.695312 3753.5625 1828.738281 3748.515625 C 1828.675781 3736.875 1828.628906 3725.234375 1828.636719 3713.59375 C 1828.636719 3711.773438 1828.925781 3709.953125 1829.109375 3708.136719 C 1829.753906 3700.460938 1838.3125 3692.96875 1847.828125 3693.734375 C 1859.304688 3693.75 1870.789062 3693.542969 1882.261719 3693.707031 C 1892.472656 3694.234375 1899.214844 3700.964844 1899.675781 3711.246094 C 1899.910156 3717.722656 1899.792969 3724.214844 1899.824219 3730.699219 Z M 1899.769531 3730.699219 "/>
<path style=" stroke:none;fill-rule:nonzero;fill:rgb(27.842712%,14.509583%,1.960754%);fill-opacity:1;" d="M 2145.050781 3619.671875 C 2144.984375 3616.84375 2146.730469 3614.9375 2149.539062 3614.761719 C 2152.597656 3614.363281 2154.765625 3616.527344 2156.742188 3618.527344 C 2159.425781 3621.039062 2159.445312 3621.058594 2162.257812 3618.332031 C 2164.761719 3615.90625 2167.222656 3613.4375 2169.6875 3610.972656 C 2170.894531 3609.765625 2172.210938 3608.863281 2173.996094 3608.742188 C 2180.226562 3608.597656 2181.0625 3615.289062 2176.988281 3618.972656 C 2172.363281 3623.496094 2168.0625 3628.386719 2163.226562 3632.667969 C 2160.671875 3634.535156 2158.339844 3634.734375 2155.90625 3632.816406 C 2152.25 3629.933594 2149.027344 3626.574219 2146.128906 3622.921875 C 2145.394531 3621.996094 2145.042969 3620.878906 2145.050781 3619.671875 "/>
<path style=" stroke:none;fill-rule:nonzero;fill:rgb(27.842712%,14.509583%,1.960754%);fill-opacity:1;" d="M 2050.601562 3614.722656 C 2054.21875 3614.558594 2056.332031 3617.730469 2058.738281 3619.894531 C 2059.6875 3620.773438 2060.359375 3620.78125 2061.3125 3619.828125 C 2063.785156 3617.371094 2066.191406 3614.84375 2068.65625 3612.378906 C 2071.449219 3609.191406 2075.496094 3606.953125 2078.847656 3610.527344 C 2080.558594 3612.515625 2080.558594 3615.414062 2078.769531 3617.339844 C 2076.625 3619.652344 2074.542969 3622.019531 2072.347656 3624.28125 C 2069.6875 3627.023438 2067.027344 3629.773438 2064.210938 3632.339844 C 2061.449219 3634.851562 2059.042969 3634.925781 2056.183594 3632.613281 C 2052.554688 3629.683594 2049.496094 3626.15625 2046.503906 3622.605469 C 2043.621094 3619.457031 2046.277344 3614.164062 2050.601562 3614.722656 "/>
<path style=" stroke:none;fill-rule:nonzero;fill:rgb(27.842712%,14.509583%,1.960754%);fill-opacity:1;" d="M 1951.496094 3614.707031 C 1954.703125 3614.367188 1956.550781 3617.515625 1958.628906 3619.433594 C 1960.019531 3620.773438 1960.671875 3620.820312 1962.007812 3619.546875 C 1965.566406 3616.3125 1968.703125 3612.539062 1972.515625 3609.617188 C 1977.523438 3606.457031 1982.851562 3611.582031 1979.980469 3616.6875 C 1979.488281 3617.539062 1978.839844 3618.328125 1978.148438 3619.039062 C 1973.542969 3623.597656 1969.214844 3628.480469 1964.375 3632.789062 C 1962.101562 3634.460938 1959.667969 3634.640625 1957.464844 3632.890625 C 1953.6875 3629.878906 1950.269531 3626.449219 1947.230469 3622.695312 C 1944.394531 3619.378906 1947.097656 3614.335938 1951.496094 3614.707031 "/>
<path style=" stroke:none;fill-rule:nonzero;fill:rgb(27.842712%,14.509583%,1.960754%);fill-opacity:1;" d="M 2050.15625 3725 C 2052.949219 3724.808594 2055.183594 3726.644531 2056.992188 3728.542969 C 2059.902344 3731.707031 2060.167969 3731.433594 2063.140625 3728.296875 C 2065.3125 3726.007812 2067.558594 3723.796875 2069.773438 3721.554688 C 2072.214844 3718.699219 2076.910156 3717.878906 2079.1875 3721.363281 C 2080.394531 3723.199219 2080.503906 3725.109375 2079.222656 3726.945312 C 2078.464844 3728.027344 2077.617188 3729.066406 2076.699219 3730.015625 C 2072.378906 3734.371094 2068.269531 3738.964844 2063.746094 3743.105469 C 2061.378906 3744.929688 2059.199219 3745.191406 2056.878906 3743.460938 C 2052.730469 3740.375 2049.203125 3736.574219 2046.1875 3732.417969 C 2043.800781 3729.125 2046.128906 3725.117188 2050.15625 3725 "/>
<path style=" stroke:none;fill-rule:nonzero;fill:rgb(27.842712%,14.509583%,1.960754%);fill-opacity:1;" d="M 2150.390625 3725.0625 C 2152.085938 3725.058594 2154.128906 3726.183594 2155.375 3727.535156 C 2159.957031 3732.285156 2159.375 3731.367188 2163.761719 3727.183594 C 2165.6875 3725.355469 2167.550781 3723.460938 2169.414062 3721.570312 C 2171.453125 3718.996094 2175.992188 3717.886719 2178.121094 3720.5625 C 2179.410156 3722.226562 2180.023438 3724.105469 2179.058594 3726.132812 C 2178.570312 3727.167969 2177.972656 3728.21875 2177.1875 3729.03125 C 2172.914062 3733.4375 2168.566406 3737.777344 2164.238281 3742.132812 C 2161.734375 3744.550781 2158.636719 3745.519531 2155.78125 3743.089844 C 2152.25 3740.320312 2149.179688 3737.03125 2146.324219 3733.570312 C 2145.71875 3732.839844 2145.316406 3731.828125 2145.128906 3730.882812 C 2144.464844 3727.542969 2146.703125 3724.988281 2150.390625 3725.0625 "/>
<path style=" stroke:none;fill-rule:nonzero;fill:rgb(27.842712%,14.509583%,1.960754%);fill-opacity:1;" d="M 1847.332031 3619.507812 C 1847.296875 3613.898438 1853.894531 3613.523438 1857.046875 3616.757812 C 1858.140625 3617.78125 1859.183594 3618.859375 1860.269531 3619.890625 C 1861.140625 3620.714844 1862.054688 3620.6875 1862.917969 3619.875 C 1865.871094 3617.175781 1868.554688 3614.207031 1871.394531 3611.394531 C 1873.585938 3608.984375 1877.222656 3607.597656 1879.761719 3609.933594 C 1882.65625 3612.960938 1881.753906 3616.535156 1879.015625 3619.140625 C 1874.941406 3623.3125 1870.835938 3627.453125 1866.714844 3631.578125 C 1862.929688 3635.023438 1860.464844 3635.105469 1856.75 3631.671875 C 1854.179688 3629.296875 1851.761719 3626.761719 1849.308594 3624.269531 C 1847.972656 3622.90625 1847.226562 3621.269531 1847.332031 3619.507812 "/>
<path style=" stroke:none;fill-rule:nonzero;fill:rgb(27.842712%,14.509583%,1.960754%);fill-opacity:1;" d="M 1951.6875 3724.992188 C 1953.59375 3724.945312 1955.1875 3726.101562 1956.394531 3727.472656 C 1960.605469 3732.207031 1960.449219 3731.414062 1964.367188 3727.542969 C 1967.285156 3724.871094 1969.816406 3721.59375 1973.238281 3719.558594 C 1977.683594 3717.191406 1982.40625 3721.953125 1980.222656 3726.421875 C 1979.726562 3727.453125 1979.023438 3728.4375 1978.226562 3729.257812 C 1974.175781 3733.449219 1970.066406 3737.578125 1965.964844 3741.722656 C 1963.511719 3744.300781 1960.027344 3745.808594 1957.1875 3743.050781 C 1953.824219 3740.078125 1950.722656 3736.808594 1947.601562 3733.578125 C 1946.941406 3732.898438 1946.496094 3731.886719 1946.253906 3730.953125 C 1945.390625 3727.621094 1947.929688 3724.890625 1951.6875 3724.992188 "/>
<path style=" stroke:none;fill-rule:nonzero;fill:rgb(27.842712%,14.509583%,1.960754%);fill-opacity:1;" d="M 1847.316406 3729.960938 C 1847.398438 3723.167969 1855 3724.121094 1858.21875 3728.25 C 1861.597656 3731.945312 1861.800781 3731.40625 1865.21875 3728.015625 C 1867.996094 3725.40625 1870.347656 3722.265625 1873.414062 3719.996094 C 1878.609375 3716.726562 1883.519531 3722.613281 1880.726562 3727.3125 C 1880.210938 3728.152344 1879.539062 3728.917969 1878.84375 3729.628906 C 1874.621094 3733.882812 1870.464844 3738.210938 1866.167969 3742.386719 C 1862.851562 3745.203125 1860.496094 3745.351562 1857.328125 3742.527344 C 1854.472656 3739.984375 1851.84375 3737.1875 1849.15625 3734.460938 C 1847.945312 3733.230469 1847.261719 3731.730469 1847.316406 3729.960938 "/>
</svg>
