<?xml version="1.0" encoding="UTF-8"?>
<svg xmlns="http://www.w3.org/2000/svg" width="256" height="256" viewBox="1480.59 785.59 836.83 836.83" preserveAspectRatio="xMidYMid meet">
<path style="fill-rule:nonzero;fill:rgb(27.842712%,14.509583%,1.960754%);fill-opacity:1;stroke-width:7;stroke-linecap:butt;stroke-linejoin:miter;stroke:rgb(27.842712%,14.509583%,1.960754%);stroke-opacity:1;stroke-miterlimit:10;" d="M -0.001425 -0.0000125 C 31.580606 -0.0156375 63.162638 0.0273312 94.744669 -0.0156375 C 98.404825 -0.02345 102.287638 -2.910169 102.049356 -7.546888 C 102.318888 -13.542981 99.756388 -16.4297 93.779825 -16.687513 C 90.033731 -16.851575 86.283731 -16.894544 82.533731 -16.89845 C 24.373575 -17.105481 -33.794394 -16.519544 -91.950644 -16.949231 C -94.810019 -17.027356 -95.509237 -17.957044 -95.368612 -20.871106 C -95.196737 -24.382825 -93.7983 -27.500013 -92.458456 -30.632825 C -85.849081 -46.105481 -79.165487 -61.546888 -72.571737 -77.02345 C -67.841269 -88.136731 -63.185019 -99.281263 -58.556112 -110.433606 C -50.458456 -129.5547 -45.505331 -150.753919 -20.813925 -151.925794 C -13.669394 -152.332044 -6.489706 -152.125013 0.678263 -152.128919 C 32.256388 -151.996106 63.846231 -152.468763 95.416544 -151.937513 C 99.959513 -151.707044 103.510294 -149.816419 105.897013 -145.765638 C 108.432169 -141.46095 111.115763 -137.2422 113.830606 -133.046888 C 117.893106 -126.765638 123.54545 -122.925794 131.061075 -121.8672 C 134.373575 -121.402356 137.674356 -121.14845 141.0142 -121.152356 C 184.592325 -121.191419 228.174356 -121.195325 271.752481 -121.257825 C 280.428263 -121.070325 289.525919 -124.7422 294.404825 -132.207044 C 297.377481 -136.828138 300.342325 -141.457044 303.303263 -146.08595 C 305.037638 -148.789075 307.42045 -150.632825 310.498575 -151.574231 C 312.119669 -152.070325 313.791544 -152.039075 315.455606 -152.046888 C 332.787638 -152.08595 350.119669 -152.136731 367.4517 -152.14845 C 385.865763 -152.160169 404.283731 -152.14845 422.697794 -152.113294 C 435.311075 -152.496106 445.588419 -149.906263 453.873575 -139.683606 C 456.635294 -136.386731 458.541544 -132.605481 460.193888 -128.675794 C 472.654825 -98.949231 485.248575 -69.285169 497.92045 -39.64845 C 499.842325 -35.128919 501.654825 -30.562513 503.5767 -26.039075 C 504.42045 -24.062513 504.553263 -21.996106 504.5142 -19.917981 C 504.475138 -17.910169 503.647013 -17.1172 501.592325 -16.902356 C 458.60795 -16.656263 415.600138 -16.8672 372.60795 -16.765638 C 368.236856 -16.796888 362.549356 -16.996106 360.666544 -12.097669 C 358.561075 -7.359388 360.900919 -0.6172 366.561075 -0.0937625 C 409.791544 0.355456 453.053263 -0.0898563 496.29545 0.0507687 C 508.529825 0.640612 518.084513 -1.781263 520.861856 -15.402356 C 522.0767 -21.613294 520.682169 -27.480481 518.689981 -33.289075 C 516.225138 -40.464856 512.854044 -47.261731 510.022013 -54.285169 C 502.631388 -72.39845 494.811075 -90.33595 487.178263 -108.347669 C 481.936075 -120.214856 477.502481 -132.500013 471.5767 -144.042981 C 462.654825 -160.152356 445.291544 -169.519544 426.971231 -168.792981 C 389.975138 -168.839856 352.979044 -168.8672 315.98295 -168.976575 C 305.631388 -169.238294 294.9517 -165.070325 289.408731 -155.964856 C 287.0767 -152.316419 284.564981 -148.761731 282.510294 -144.957044 C 279.814981 -139.976575 275.725138 -137.902356 270.248575 -137.933606 C 225.752481 -138.093763 181.248575 -137.484388 136.760294 -138.21095 C 132.615763 -138.27345 129.373575 -139.906263 127.17045 -143.500013 C 118.752481 -156.687513 114.994669 -167.320325 97.287638 -168.652356 C 60.490763 -169.308606 23.627481 -168.714856 -13.196737 -168.980481 C -28.763144 -169.796888 -43.657675 -165.789075 -54.661581 -154.238294 C -60.157675 -148.687513 -63.763144 -142.02345 -66.716269 -134.863294 C -79.872519 -103.003919 -93.462362 -71.320325 -106.981894 -39.609388 C -108.575644 -35.859388 -110.224081 -32.125013 -111.1108 -28.105481 C -113.888144 -15.183606 -110.450644 -1.96095 -95.2358 -0.152356 C -63.509237 0.441394 -31.739706 -0.105481 -0.001425 0.0742062 Z M -0.001425 -0.0000125 " transform="matrix(1,0,0,-1,1694.6733,1278.8828)"/>
<path style=" stroke:none;fill-rule:nonzero;fill:rgb(27.842712%,14.509583%,1.960754%);fill-opacity:1;" d="M 1898.320312 1121.519531 C 1932.691406 1122.046875 1958.191406 1086.410156 1945.378906 1054.597656 C 1935.515625 1028.367188 1918.527344 1005.664062 1901.046875 984.058594 C 1899.394531 982.015625 1898.871094 981.984375 1897.214844 984 C 1887.167969 996 1877.570312 1008.398438 1869.308594 1021.710938 C 1860.335938 1036.945312 1848.71875 1055.847656 1849.261719 1073.960938 C 1849.808594 1099.574219 1873.207031 1121.8125 1898.320312 1121.519531 M 1900.398438 1138.507812 C 1871.628906 1139.0625 1846.765625 1121.4375 1836.523438 1095.429688 C 1828.128906 1074.4375 1833.300781 1051.527344 1843.765625 1032.261719 C 1856.363281 1007.152344 1873.265625 984.988281 1891.667969 963.925781 C 1894.761719 959.691406 1902.804688 959.621094 1906.457031 964.015625 C 1921.203125 981.390625 1935.601562 999.226562 1947.082031 1018.976562 C 1961.105469 1042.035156 1972.382812 1070.402344 1960.839844 1096.78125 C 1951.378906 1121.015625 1926.304688 1138.757812 1900.398438 1138.507812 "/>
<path style="fill:none;stroke-width:7;stroke-linecap:butt;stroke-linejoin:miter;stroke:rgb(27.842712%,14.509583%,1.960754%);stroke-opacity:1;stroke-miterlimit:10;" d="M 0.0008125 -0.00093125 C 34.371906 -0.528275 59.871906 35.108444 47.059406 66.920944 C 37.196125 93.151413 20.207844 115.854538 2.727375 137.460006 C 1.075031 139.502975 0.551594 139.534225 -1.104656 137.5186 C -11.151531 125.5186 -20.749188 113.120163 -29.010906 99.807663 C -37.983563 84.573288 -49.60075 65.670944 -49.057781 47.557663 C -48.510906 21.944381 -25.112469 -0.2939 0.0008125 -0.00093125 Z M 2.078937 -16.989212 C -26.690594 -17.5439 -51.553875 0.0811 -61.796063 26.088913 C -70.190594 47.0811 -65.018719 69.991256 -54.553875 89.256881 C -41.956219 114.366256 -25.053875 136.530319 -6.651531 157.592819 C -3.557781 161.827194 4.485187 161.897506 8.137531 157.502975 C 22.883625 140.127975 37.282062 122.292038 48.762531 102.542038 C 62.785969 79.483444 74.063312 51.116256 62.520344 24.73735 C 53.059406 0.502975 27.985187 -17.239212 2.078937 -16.989212 Z M 2.078937 -16.989212 " transform="matrix(1,0,0,-1,1898.3195,1121.5186)"/>
<path style="fill-rule:nonzero;fill:rgb(27.842712%,14.509583%,1.960754%);fill-opacity:1;stroke-width:7;stroke-linecap:butt;stroke-linejoin:miter;stroke:rgb(27.842712%,14.509583%,1.960754%);stroke-opacity:1;stroke-miterlimit:10;" d="M -0.0016875 0.001925 C 0.119406 13.908175 -0.298562 27.833956 0.260031 41.732394 C 0.424094 44.458956 1.404563 46.884737 4.142844 47.927706 C 7.287375 49.130831 10.525656 49.341769 13.474875 47.318331 C 16.494406 45.177706 16.330344 40.990206 16.467063 37.658175 C 16.470969 20.990206 16.424094 4.326144 16.529563 -12.337919 C 16.568625 -18.423856 16.357688 -24.498075 16.220969 -30.5762 C 16.14675 -33.908231 16.517844 -37.240263 16.166281 -40.568388 C 16.123313 -40.978544 16.154563 -41.408231 16.244406 -41.810575 C 16.928 -44.439481 19.486594 -40.873075 20.474875 -40.130888 C 24.900656 -35.716825 29.303 -31.283231 33.717063 -26.865263 C 37.1155 -22.736356 43.705344 -22.275419 46.9905 -26.6387 C 50.041281 -30.392606 49.201438 -35.927763 45.553 -38.959013 C 34.912375 -49.384794 24.689719 -60.283231 13.795188 -70.435575 C 9.103781 -74.154325 4.045188 -72.205106 0.306906 -68.189481 C -9.661844 -58.251981 -19.618875 -48.302763 -29.564187 -38.341825 C -32.083719 -35.822294 -32.818094 -32.861356 -31.810281 -29.404325 C -30.146219 -23.681669 -22.681375 -21.6387 -18.72825 -25.533231 C -15.525125 -28.685575 -12.372781 -31.892606 -9.181375 -35.060575 C -6.876687 -37.345731 -4.544656 -39.60745 -2.220437 -41.876981 C -1.572 -42.623075 0.00221875 -43.673856 0.107688 -41.990263 C 0.02175 -28.001981 0.08425 -13.994169 0.068625 0.001925 Z M -0.0016875 0.001925 " transform="matrix(1,0,0,-1,1890.697,1223.4238)"/>
<path style="fill-rule:nonzero;fill:rgb(27.842712%,14.509583%,1.960754%);fill-opacity:1;stroke-width:7;stroke-linecap:butt;stroke-linejoin:miter;stroke:rgb(27.842712%,14.509583%,1.960754%);stroke-opacity:1;stroke-miterlimit:10;" d="M -0.00194375 0.0014625 C -19.494131 0.0014625 -38.990225 0.0014625 -58.486319 -0.00244375 C -60.326163 -0.00244375 -62.154288 0.0952125 -63.908194 0.7124 C -67.892569 2.122556 -70.056631 6.677244 -68.646475 10.661619 C -67.169913 14.8374 -64.751944 16.696775 -60.283194 16.884275 C -20.548819 17.110837 19.197275 16.872556 58.935556 16.946775 C 60.783212 16.946775 62.5879 16.8374 64.2754 15.954587 C 67.466806 14.290525 69.552744 10.552244 69.048837 7.329587 C 68.439462 3.474119 65.693369 0.665525 61.724619 0.208494 C 41.18165 -0.459475 20.564462 0.145994 -0.00194375 -0.0493188 Z M -0.00194375 0.0014625 " transform="matrix(1,0,0,-1,1898.8496,1364.0874)"/>
<path style="fill-rule:nonzero;fill:rgb(27.842712%,14.509583%,1.960754%);fill-opacity:1;stroke-width:7;stroke-linecap:butt;stroke-linejoin:miter;stroke:rgb(27.842712%,14.509583%,1.960754%);stroke-opacity:1;stroke-miterlimit:10;" d="M 0.0009875 -0.00053125 C 19.411144 -0.00053125 38.817394 -0.00053125 58.22755 -0.00053125 C 66.118175 -0.01225 68.075206 -7.055219 66.211925 -11.992719 C 65.020519 -15.13725 62.403331 -16.527875 59.22755 -16.875531 C 20.512706 -17.020063 -18.2412 -16.7935 -56.971669 -16.961469 C -62.342762 -17.363813 -67.225575 -14.641156 -67.14745 -8.703656 C -66.979481 -1.551313 -61.608387 0.366656 -55.479481 0.00728125 C -49.483387 0.0150937 -43.483387 -0.0200625 -37.487294 -0.0239688 C -24.9912 -0.0317813 -12.495106 -0.0239688 0.0009875 -0.0239688 Z M 0.0009875 -0.00053125 " transform="matrix(1,0,0,-1,1728.2412,1347.144)"/>
<path style=" stroke:none;fill-rule:nonzero;fill:rgb(27.842712%,14.509583%,1.960754%);fill-opacity:1;" d="M 2069.75 1347.15625 C 2089.246094 1347.167969 2108.746094 1347.132812 2128.242188 1347.167969 C 2139.460938 1347.238281 2139.140625 1363.695312 2128.917969 1364 C 2102.683594 1364.433594 2076.421875 1363.914062 2050.175781 1364.03125 C 2037.679688 1364.015625 2025.179688 1364.074219 2012.679688 1364.101562 C 2007.925781 1364.421875 2003.039062 1362.148438 2002.964844 1356.824219 C 2002.574219 1352.082031 2004.179688 1348.214844 2009.269531 1347.425781 C 2029.390625 1346.71875 2049.601562 1347.378906 2069.75 1347.15625 "/>
<path style="fill:none;stroke-width:7;stroke-linecap:butt;stroke-linejoin:miter;stroke:rgb(27.842712%,14.509583%,1.960754%);stroke-opacity:1;stroke-miterlimit:10;" d="M 0.0015 0.00095 C 19.497594 -0.0107688 38.997594 0.0243875 58.493688 -0.0107688 C 69.712438 -0.0810813 69.392125 -16.538113 59.169469 -16.8428 C 32.935094 -17.276394 6.673375 -16.756863 -19.572719 -16.87405 C -32.068812 -16.858425 -44.568812 -16.917019 -57.068812 -16.944363 C -61.822719 -17.264675 -66.709437 -14.991238 -66.783656 -9.667019 C -67.174281 -4.924831 -65.568812 -1.057644 -60.478969 -0.268581 C -40.357875 0.43845 -20.146937 -0.221706 0.0015 0.00095 Z M 0.0015 0.00095 " transform="matrix(1,0,0,-1,2069.7485,1347.1572)"/>
</svg>
