<?xml version="1.0" encoding="UTF-8"?>
<svg xmlns="http://www.w3.org/2000/svg" width="256" height="256" viewBox="3340.33 823.83 830.35 830.35" preserveAspectRatio="xMidYMid meet">
<path style=" stroke:none;fill-rule:nonzero;fill:rgb(27.842712%,14.509583%,1.960754%);fill-opacity:1;" d="M 3549.835938 1184.101562 C 3549.960938 1178.796875 3548.992188 1178.644531 3544.425781 1181.019531 C 3543.222656 1181.847656 3541.445312 1182.460938 3541.324219 1183.96875 C 3541.171875 1185.886719 3543.183594 1186.496094 3544.546875 1187.277344 C 3548.585938 1189.589844 3550.105469 1189.808594 3549.835938 1184.101562 M 3789.285156 1187.320312 L 3789.3125 1187.320312 C 3789.3125 1189.144531 3789.257812 1190.96875 3789.332031 1192.792969 C 3789.382812 1193.988281 3790.34375 1194.546875 3791.425781 1194.039062 C 3793.535156 1193.046875 3795.605469 1191.972656 3797.113281 1190.113281 C 3799.394531 1187.390625 3796.042969 1184.960938 3794.105469 1183.332031 C 3792.957031 1182.464844 3791.75 1180.808594 3790.3125 1181.386719 C 3788.394531 1182.164062 3789.574219 1184.300781 3789.300781 1185.828125 C 3789.214844 1186.308594 3789.285156 1186.820312 3789.285156 1187.320312 M 3669.652344 1274.234375 C 3669.652344 1274.136719 3669.65625 1274.039062 3669.65625 1273.941406 C 3675.300781 1274.097656 3680.949219 1274.242188 3686.597656 1274.414062 C 3689.765625 1274.507812 3690.242188 1274.242188 3690.277344 1271.246094 C 3690.363281 1263.765625 3690.359375 1256.285156 3690.300781 1248.804688 C 3690.445312 1245.816406 3688.644531 1245.503906 3685.921875 1245.527344 C 3674.136719 1245.6875 3662.308594 1245.242188 3650.539062 1245.761719 C 3648.347656 1246.007812 3648.433594 1248.496094 3648.417969 1250.195312 C 3648.398438 1256.511719 3648.394531 1262.828125 3648.402344 1269.144531 C 3648.441406 1273.542969 3648.355469 1274.730469 3653.199219 1274.238281 C 3658.683594 1274.230469 3664.167969 1274.234375 3669.652344 1274.234375 M 3668.355469 1220.550781 C 3646.203125 1220.074219 3624.039062 1221.324219 3602.136719 1224.734375 C 3594.082031 1225.980469 3586.015625 1227.332031 3578.375 1230.367188 C 3576.519531 1231.105469 3574.691406 1231.914062 3572.898438 1232.785156 C 3571.871094 1233.285156 3571.777344 1234.574219 3572.707031 1235.210938 C 3576.964844 1238.171875 3582.082031 1239.496094 3587.007812 1240.917969 C 3600.425781 1244.476562 3614.175781 1245.933594 3627.933594 1247.253906 C 3634.085938 1247.84375 3634.105469 1247.621094 3634.210938 1241.628906 C 3633.730469 1235.070312 3636.523438 1231.054688 3644.167969 1231.15625 C 3662.460938 1231.566406 3680.847656 1230.636719 3699.097656 1231.570312 C 3704.042969 1232.472656 3705.144531 1236.71875 3704.902344 1241.175781 C 3704.933594 1242.507812 3704.886719 1243.847656 3704.996094 1245.171875 C 3705.140625 1246.886719 3705.753906 1247.390625 3707.617188 1247.4375 C 3714.964844 1247.449219 3722.214844 1246.183594 3729.476562 1245.292969 C 3736.59375 1244.445312 3743.652344 1243.203125 3750.558594 1241.269531 C 3754.398438 1240.195312 3758.152344 1238.796875 3761.914062 1237.460938 C 3763.480469 1236.902344 3764.992188 1236.144531 3766.050781 1234.78125 C 3766.363281 1234.382812 3766.445312 1233.78125 3766.019531 1233.441406 C 3765.246094 1232.824219 3764.433594 1232.210938 3763.546875 1231.796875 C 3759.460938 1229.882812 3755.175781 1228.535156 3750.792969 1227.492188 C 3723.761719 1221.636719 3695.9375 1220.234375 3668.355469 1220.550781 M 3525.1875 1184.421875 C 3525.589844 1180.707031 3526.535156 1177.257812 3529.273438 1174.464844 C 3533.199219 1170.464844 3537.890625 1167.667969 3542.988281 1165.511719 C 3563.96875 1156.785156 3586.710938 1153.660156 3609.140625 1151.03125 C 3658.960938 1145.835938 3709.617188 1146.648438 3758.957031 1155.601562 C 3773.546875 1158.460938 3787.882812 1162.136719 3800.988281 1169.511719 C 3801.671875 1169.894531 3802.503906 1170.570312 3803.199219 1169.855469 C 3803.542969 1169.503906 3803.449219 1168.601562 3803.363281 1167.972656 C 3803.113281 1166.160156 3802.71875 1164.367188 3802.472656 1162.554688 C 3801.855469 1157.988281 3802.261719 1153.433594 3804.386719 1149.386719 C 3806.964844 1144.488281 3805.070312 1144.757812 3801.6875 1143.953125 C 3782.265625 1139.964844 3762.554688 1137.683594 3742.808594 1136.136719 C 3735.523438 1135.335938 3728.238281 1134.628906 3720.902344 1134.460938 C 3702.929688 1133.925781 3684.957031 1132.230469 3666.976562 1132.828125 C 3647.675781 1133.53125 3628.355469 1133.769531 3609.089844 1135.371094 C 3580.714844 1137.523438 3552.3125 1140.628906 3524.707031 1147.757812 C 3510.054688 1151.300781 3461.800781 1166.894531 3480.976562 1187.417969 C 3489.359375 1196.183594 3501.078125 1200.492188 3512.257812 1204.472656 C 3523.464844 1208.386719 3535.113281 1210.480469 3546.699219 1212.8125 C 3548.046875 1213.070312 3550.132812 1213.265625 3550.375 1211.445312 C 3550.710938 1208.191406 3549.867188 1205.503906 3546.363281 1204.46875 C 3540.660156 1202.296875 3534.957031 1199.542969 3530.34375 1195.453125 C 3527.082031 1192.5 3525.542969 1188.738281 3525.1875 1184.421875 M 3566.265625 1219.109375 C 3566.785156 1218.980469 3567.460938 1218.925781 3568.035156 1218.65625 C 3576.394531 1214.679688 3585.328125 1212.660156 3594.351562 1211.011719 C 3610.9375 1207.976562 3627.710938 1206.453125 3644.523438 1205.78125 C 3674.699219 1204.570312 3704.820312 1205.460938 3734.792969 1209.5 C 3746.714844 1211.105469 3758.4375 1213.523438 3769.566406 1218.300781 C 3772.351562 1219.496094 3772.992188 1219.089844 3773.53125 1216.082031 C 3773.675781 1215.265625 3773.761719 1214.429688 3773.804688 1213.601562 C 3774.332031 1203.78125 3774.695312 1193.960938 3774.832031 1184.125 C 3775.128906 1177.542969 3769.441406 1173.996094 3763.910156 1172.332031 C 3735.8125 1165.046875 3706.53125 1164.03125 3677.683594 1162.585938 C 3650.578125 1162.050781 3623.351562 1164.121094 3596.472656 1167.582031 C 3589.71875 1168.566406 3582.96875 1169.601562 3576.34375 1171.3125 C 3573.414062 1172.070312 3570.664062 1173.183594 3568.210938 1175.003906 C 3565.085938 1177.316406 3563.433594 1180.09375 3563.449219 1184.273438 C 3563.476562 1195.128906 3564.375 1205.910156 3565.285156 1216.703125 C 3565.351562 1217.527344 3565.460938 1218.355469 3566.265625 1219.109375 M 3705.398438 1374.390625 C 3705.332031 1374.390625 3705.261719 1374.390625 3705.195312 1374.390625 C 3705.089844 1352.582031 3704.515625 1330.777344 3704.039062 1308.972656 C 3703.953125 1299.007812 3695.683594 1288.597656 3682.371094 1288.800781 C 3674.214844 1288.527344 3666.058594 1288.417969 3657.90625 1288.730469 C 3647.703125 1288.90625 3638.019531 1293.648438 3635.527344 1304.21875 C 3634.972656 1306.316406 3634.660156 1308.453125 3634.625 1310.632812 C 3634.253906 1333.773438 3633.109375 1356.894531 3633.210938 1380.042969 C 3633.230469 1399.023438 3632.871094 1418.003906 3632.886719 1436.984375 C 3631.699219 1461.175781 3656.40625 1477.957031 3678.226562 1471.988281 C 3694.582031 1468.132812 3705.851562 1454.34375 3705.871094 1437.324219 C 3705.710938 1416.347656 3705.554688 1395.367188 3705.398438 1374.390625 M 3946.925781 1367.605469 C 3954.085938 1367.707031 3961.304688 1367.261719 3968.171875 1365.117188 C 3975.550781 1363.101562 3978.589844 1355.027344 3978.265625 1347.972656 C 3977.976562 1341.984375 3977.738281 1335.984375 3977.199219 1330.019531 C 3974.246094 1303.492188 3979.746094 1278.515625 3988.242188 1253.53125 C 3990.375 1245.585938 3997.769531 1226.53125 3985.984375 1223.617188 C 3980.761719 1222.53125 3975.507812 1221.632812 3970.515625 1219.683594 C 3947.945312 1211.644531 3930.539062 1194.609375 3913.128906 1178.84375 C 3889.742188 1157.476562 3857.566406 1138.800781 3825.085938 1148.804688 C 3817.085938 1151.28125 3816.5 1158.4375 3817.894531 1165.667969 C 3818.558594 1169.773438 3819.414062 1173.851562 3820.058594 1177.960938 C 3821.5625 1187.574219 3821.71875 1197.21875 3820.199219 1206.832031 C 3817.757812 1224.894531 3808.472656 1240.683594 3800.984375 1256.988281 C 3795.601562 1268.878906 3791.757812 1281.253906 3789.8125 1294.179688 C 3789.542969 1295.976562 3789.449219 1297.855469 3789.640625 1299.65625 C 3790.109375 1304.933594 3794.59375 1306.332031 3799.292969 1305.621094 C 3808.371094 1304.957031 3817.242188 1306.109375 3825.953125 1308.660156 C 3875.863281 1324.230469 3883.074219 1366.722656 3946.925781 1367.605469 M 3672.664062 1006.132812 L 3672.664062 1006.125 C 3627.851562 1006.1875 3583.042969 1005.964844 3538.230469 1006.277344 C 3533.402344 1006.324219 3528.601562 1006.683594 3523.796875 1007.371094 C 3501.914062 1010.476562 3478.070312 1024.40625 3476.222656 1048.515625 C 3475.753906 1053.667969 3475.539062 1058.820312 3475.546875 1063.988281 C 3475.605469 1092.480469 3475.613281 1120.972656 3475.710938 1149.464844 C 3475.910156 1153.4375 3478.738281 1151.023438 3480.613281 1149.769531 C 3484.757812 1146.949219 3489.175781 1144.644531 3493.730469 1142.554688 C 3555.464844 1115.941406 3677.207031 1115.277344 3745.265625 1121.261719 C 3770.503906 1123.207031 3795.640625 1126.804688 3820.28125 1132.640625 C 3822.597656 1133.199219 3824.808594 1133.183594 3827.167969 1132.753906 C 3838.582031 1130.675781 3850.003906 1130.460938 3861.417969 1132.949219 C 3866.257812 1134.003906 3866.394531 1133.804688 3866.394531 1128.683594 C 3866.390625 1104.6875 3866.394531 1080.695312 3866.394531 1056.699219 C 3866.925781 1045.347656 3864.835938 1035.160156 3856.945312 1026.585938 C 3846.007812 1014.238281 3829.839844 1007.65625 3813.578125 1006.652344 C 3766.632812 1005.375 3719.628906 1006.480469 3672.664062 1006.132812 M 3672.683594 991.476562 C 3716.996094 991.476562 3761.308594 991.472656 3805.625 991.476562 C 3813.128906 991.476562 3820.617188 991.691406 3827.96875 993.472656 C 3853.550781 999.171875 3878.816406 1018.566406 3880.800781 1046.332031 C 3881.660156 1075.625 3880.917969 1104.984375 3881.1875 1134.296875 C 3881.273438 1139.277344 3881.246094 1139.332031 3885.703125 1141.507812 C 3923.777344 1158.402344 3945.742188 1201.714844 3988.46875 1209.175781 C 4006.683594 1212.757812 4010.019531 1230.878906 4005.816406 1245.097656 C 3994.6875 1283.496094 3987.828125 1298.941406 3992.933594 1340.128906 C 3995.550781 1361.082031 3986.238281 1378.585938 3964 1381.472656 C 3928.960938 1385.839844 3897.609375 1377.363281 3870.425781 1354.441406 C 3856.847656 1342.773438 3843.070312 1330.609375 3825.96875 1324.421875 C 3818.855469 1321.773438 3811.535156 1320.460938 3803.964844 1320.460938 C 3800.964844 1320.460938 3797.957031 1320.609375 3794.972656 1320.425781 C 3780.148438 1319.976562 3773.363281 1306.582031 3775.304688 1293.082031 C 3777.390625 1277.242188 3782.261719 1262.253906 3788.996094 1247.828125 C 3792.796875 1239.679688 3796.710938 1231.582031 3800.457031 1223.40625 C 3802.824219 1218.238281 3804.175781 1212.714844 3805.570312 1207.226562 C 3805.769531 1206.445312 3805.703125 1205.582031 3805.691406 1204.757812 C 3805.683594 1204.128906 3804.824219 1203.652344 3804.234375 1203.902344 C 3803.929688 1204.03125 3803.609375 1204.144531 3803.335938 1204.328125 C 3799.441406 1206.949219 3795.238281 1208.957031 3790.785156 1210.402344 C 3788.734375 1211.066406 3787.867188 1212.398438 3787.683594 1214.425781 C 3787.359375 1218.074219 3787.070312 1221.730469 3786.585938 1225.359375 C 3786.210938 1228.160156 3785.621094 1230.933594 3785.015625 1233.699219 C 3782.777344 1244.824219 3771.546875 1250.117188 3761.757812 1253.339844 C 3756.230469 1255.207031 3750.5625 1256.578125 3744.839844 1257.695312 C 3733.21875 1259.960938 3721.480469 1261.328125 3709.695312 1262.355469 C 3707.4375 1262.507812 3704.761719 1262.433594 3704.957031 1265.371094 C 3704.871094 1270.035156 3704.949219 1274.699219 3704.960938 1279.363281 C 3704.890625 1282.085938 3707.460938 1283.519531 3709.054688 1285.355469 C 3715.117188 1291.617188 3718.207031 1299.121094 3718.535156 1307.820312 C 3719.902344 1343.296875 3718.441406 1378.800781 3720.242188 1414.269531 C 3720.640625 1422.25 3720.480469 1430.261719 3720.46875 1438.257812 C 3720.792969 1475.417969 3680.851562 1498.308594 3647.910156 1483.613281 C 3612.664062 1466.296875 3617.890625 1438.703125 3618.550781 1405.285156 C 3619.148438 1375.128906 3619.585938 1344.976562 3620.050781 1314.820312 C 3619.992188 1303.03125 3621.707031 1292.496094 3630.894531 1284.324219 C 3633.359375 1282.066406 3634.402344 1279.675781 3634.316406 1276.492188 C 3634.21875 1272.828125 3634.335938 1269.15625 3634.234375 1265.496094 C 3634.171875 1263.207031 3633.558594 1262.589844 3631.242188 1262.332031 C 3628.429688 1262.015625 3625.601562 1261.832031 3622.777344 1261.597656 C 3609.648438 1260.5 3596.636719 1258.671875 3583.855469 1255.367188 C 3576.722656 1253.644531 3569.8125 1251.09375 3563.546875 1247.230469 C 3558.710938 1244.433594 3555.601562 1240.265625 3553.921875 1234.945312 C 3551.652344 1227.746094 3553.144531 1229.269531 3545.527344 1227.863281 C 3522.714844 1223.605469 3499.433594 1218.5 3479.683594 1205.722656 C 3469.53125 1199.234375 3461.085938 1189.304688 3461.460938 1176.617188 C 3461.496094 1135.292969 3461.472656 1093.96875 3461.417969 1052.644531 C 3461.410156 1047.4375 3462.042969 1042.332031 3463.28125 1037.308594 C 3472.042969 1005.867188 3507.308594 990.625 3537.746094 991.476562 C 3582.726562 991.460938 3627.703125 991.460938 3672.683594 991.460938 Z M 3672.683594 991.476562 "/>
<path style="fill:none;stroke-width:7;stroke-linecap:butt;stroke-linejoin:miter;stroke:rgb(27.842712%,14.509583%,1.960754%);stroke-opacity:1;stroke-miterlimit:10;" d="M -0.0004625 0.0019375 C 0.124537 5.306625 -0.844213 5.458969 -5.410619 3.083969 C -6.613744 2.255844 -8.391088 1.642562 -8.512181 0.13475 C -8.664525 -1.783219 -6.652806 -2.392594 -5.289525 -3.173844 C -1.250463 -5.486344 0.269069 -5.705094 -0.0004625 0.0019375 Z M 239.448756 -3.216813 L 239.4761 -3.216813 C 239.4761 -5.041031 239.421412 -6.86525 239.495631 -8.689469 C 239.546412 -9.884781 240.50735 -10.443375 241.589381 -9.935563 C 243.698756 -8.943375 245.769069 -7.869156 247.276881 -6.009781 C 249.558131 -3.287125 246.206569 -0.857438 244.269069 0.771469 C 243.120631 1.638656 241.9136 3.294906 240.4761 2.716781 C 238.558131 1.939437 239.737819 -0.197281 239.464381 -1.724625 C 239.378444 -2.205094 239.448756 -2.716813 239.448756 -3.216813 Z M 119.815944 -90.130875 C 119.815944 -90.033219 119.81985 -89.935563 119.81985 -89.837906 C 125.464381 -89.994156 131.112819 -90.138688 136.761256 -90.310563 C 139.929225 -90.404313 140.405787 -90.138688 140.440944 -87.142594 C 140.526881 -79.662125 140.522975 -72.181656 140.464381 -64.701188 C 140.608912 -61.712906 138.808131 -61.400406 136.085475 -61.423844 C 124.300319 -61.584 112.472194 -61.138688 100.702662 -61.658219 C 98.511256 -61.904313 98.597194 -64.392594 98.581569 -66.091813 C 98.562037 -72.408219 98.558131 -78.724625 98.565944 -85.041031 C 98.605006 -89.439469 98.519069 -90.626969 103.362819 -90.134781 C 108.847194 -90.126969 114.331569 -90.130875 119.815944 -90.130875 Z M 118.519069 -36.447281 C 96.366725 -35.970719 74.202662 -37.220719 52.300319 -40.630875 C 44.245631 -41.876969 36.179225 -43.228531 28.5386 -46.263688 C 26.683131 -47.001969 24.855006 -47.810563 23.062037 -48.681656 C 22.034694 -49.181656 21.940944 -50.470719 22.870631 -51.107438 C 27.128444 -54.068375 32.245631 -55.392594 37.171412 -56.814469 C 50.589381 -60.373063 64.339381 -61.830094 78.097194 -63.150406 C 84.249537 -63.74025 84.269069 -63.517594 84.374537 -57.525406 C 83.894069 -50.966813 86.687037 -46.951188 94.331569 -47.05275 C 112.624537 -47.462906 131.011256 -46.533219 149.261256 -47.466813 C 154.206569 -48.369156 155.308131 -52.61525 155.065944 -57.072281 C 155.097194 -58.404313 155.050319 -59.744156 155.159694 -61.068375 C 155.304225 -62.783219 155.917506 -63.287125 157.780787 -63.334 C 165.128444 -63.345719 172.378444 -62.080094 179.640162 -61.189469 C 186.75735 -60.341813 193.815944 -59.099625 200.722194 -57.166031 C 204.562037 -56.091813 208.315944 -54.693375 212.077662 -53.357438 C 213.644069 -52.798844 215.155787 -52.041031 216.214381 -50.67775 C 216.526881 -50.279313 216.608912 -49.67775 216.183131 -49.337906 C 215.409694 -48.720719 214.597194 -48.107438 213.710475 -47.693375 C 209.624537 -45.779313 205.339381 -44.431656 200.956569 -43.388688 C 173.925319 -37.533219 146.1011 -36.130875 118.519069 -36.447281 Z M -24.6489 -0.318375 C -24.246556 3.396469 -23.301244 6.845687 -20.562963 9.638656 C -16.637181 13.638656 -11.945775 16.435531 -6.848119 18.591781 C 14.13235 27.318344 36.874537 30.443344 59.304225 33.07225 C 109.124537 38.267562 159.780787 37.455062 209.120631 28.501937 C 223.710475 25.642562 238.046412 21.966781 251.151881 14.591781 C 251.835475 14.208969 252.667506 13.533187 253.362819 14.248031 C 253.706569 14.599594 253.612819 15.501937 253.526881 16.130844 C 253.276881 17.943344 252.88235 19.736312 252.636256 21.548812 C 252.019069 26.115219 252.425319 30.669906 254.550319 34.716781 C 257.128444 39.615219 255.233912 39.345687 251.8511 40.150375 C 232.429225 44.138656 212.718287 46.419906 192.972194 47.966781 C 185.687037 48.767562 178.401881 49.474594 171.065944 49.642562 C 153.093287 50.177719 135.120631 51.873031 117.140162 51.275375 C 97.839381 50.57225 78.519069 50.333969 59.253444 48.732406 C 30.878444 46.580062 2.4761 43.474594 -25.129369 36.345687 C -39.781713 32.802719 -88.035619 17.208969 -68.859838 -3.314469 C -60.477025 -12.080094 -48.758275 -16.388688 -37.578588 -20.369156 C -26.371556 -24.283219 -14.723119 -26.376969 -3.137181 -28.709 C -1.789525 -28.966813 0.296412 -29.162125 0.5386 -27.341813 C 0.874537 -24.087906 0.0307875 -21.400406 -3.473119 -20.36525 C -9.176244 -18.193375 -14.879369 -15.439469 -19.49265 -11.349625 C -22.754369 -8.3965 -24.293431 -4.634781 -24.6489 -0.318375 Z M 16.429225 -35.005875 C 16.948756 -34.876969 17.624537 -34.822281 18.198756 -34.55275 C 26.558131 -30.576188 35.491725 -28.556656 44.515162 -26.908219 C 61.1011 -23.873063 77.874537 -22.349625 94.687037 -21.67775 C 124.862819 -20.466813 154.983912 -21.357438 184.956569 -25.3965 C 196.878444 -27.001969 208.6011 -29.419938 219.730006 -34.197281 C 222.515162 -35.392594 223.155787 -34.986344 223.69485 -31.978531 C 223.839381 -31.162125 223.925319 -30.326188 223.968287 -29.498063 C 224.495631 -19.67775 224.858912 -9.857438 224.995631 -0.0215 C 225.292506 6.560531 219.605006 10.107406 214.073756 11.771469 C 185.9761 19.056625 156.69485 20.07225 127.847194 21.517562 C 100.741725 22.052719 73.515162 19.982406 46.636256 16.521469 C 39.88235 15.537094 33.13235 14.501937 26.50735 12.791 C 23.577662 12.033187 20.827662 10.919906 18.374537 9.099594 C 15.249537 6.787094 13.597194 4.00975 13.612819 -0.169938 C 13.640162 -11.025406 14.5386 -21.806656 15.448756 -32.599625 C 15.515162 -33.423844 15.624537 -34.251969 16.429225 -35.005875 Z M 155.562037 -190.287125 C 155.495631 -190.287125 155.425319 -190.287125 155.358912 -190.287125 C 155.253444 -168.478531 154.679225 -146.673844 154.202662 -124.869156 C 154.116725 -114.904313 145.847194 -104.494156 132.534694 -104.697281 C 124.378444 -104.423844 116.222194 -104.314469 108.06985 -104.626969 C 97.866725 -104.80275 88.183131 -109.544938 85.690944 -120.11525 C 85.136256 -122.212906 84.823756 -124.349625 84.7886 -126.529313 C 84.417506 -149.669938 83.272975 -172.791031 83.374537 -195.939469 C 83.394069 -214.919938 83.034694 -233.900406 83.050319 -252.880875 C 81.862819 -277.072281 106.56985 -293.853531 128.390162 -287.884781 C 144.745631 -284.029313 156.015162 -270.24025 156.034694 -253.220719 C 155.874537 -232.244156 155.718287 -211.263688 155.562037 -190.287125 Z M 397.089381 -183.501969 C 404.249537 -183.603531 411.468287 -183.158219 418.335475 -181.013688 C 425.714381 -178.998063 428.753444 -170.923844 428.429225 -163.869156 C 428.140162 -157.880875 427.901881 -151.880875 427.362819 -145.916031 C 424.409694 -119.388688 429.909694 -94.412125 438.405787 -69.42775 C 440.5386 -61.482438 447.933131 -42.42775 436.147975 -39.513688 C 430.925319 -38.42775 425.671412 -37.529313 420.679225 -35.580094 C 398.108912 -27.541031 380.702662 -10.505875 363.292506 5.25975 C 339.905787 26.626937 307.730006 45.302719 275.249537 35.298812 C 267.249537 32.82225 266.6636 25.666 268.058131 18.435531 C 268.722194 14.330062 269.577662 10.251937 270.222194 6.142562 C 271.7261 -3.470719 271.88235 -13.11525 270.362819 -22.728531 C 267.921412 -40.791031 258.636256 -56.580094 251.147975 -72.884781 C 245.765162 -84.775406 241.921412 -97.150406 239.9761 -110.076188 C 239.706569 -111.873063 239.612819 -113.751969 239.804225 -115.55275 C 240.272975 -120.830094 244.75735 -122.228531 249.456569 -121.517594 C 258.534694 -120.853531 267.405787 -122.005875 276.116725 -124.556656 C 326.026881 -140.126969 333.237819 -182.619156 397.089381 -183.501969 Z M 122.827662 177.970687 L 122.827662 177.9785 C 78.015162 177.916 33.206569 178.138656 -11.605931 177.826156 C -16.434056 177.779281 -21.234838 177.419906 -26.039525 176.732406 C -47.922338 173.626937 -71.766088 159.69725 -73.613744 135.587875 C -74.082494 130.435531 -74.297338 125.283187 -74.289525 120.115219 C -74.230931 91.623031 -74.223119 63.130844 -74.125463 34.638656 C -73.926244 30.666 -71.098119 33.080062 -69.223119 34.333969 C -65.078588 37.154281 -60.660619 39.458969 -56.105931 41.548812 C 5.628444 68.162094 127.370631 68.826156 195.429225 62.841781 C 220.667506 60.896469 245.804225 57.298812 270.44485 51.462875 C 272.761256 50.904281 274.972194 50.919906 277.331569 51.349594 C 288.745631 53.427719 300.167506 53.642562 311.581569 51.154281 C 316.421412 50.099594 316.558131 50.298812 316.558131 55.419906 C 316.554225 79.416 316.558131 103.408187 316.558131 127.404281 C 317.089381 138.755844 314.999537 148.943344 307.108912 157.517562 C 296.171412 169.865219 280.003444 176.44725 263.741725 177.451156 C 216.796412 178.7285 169.792506 177.623031 122.827662 177.970687 Z M 122.847194 192.626937 C 167.159694 192.626937 211.472194 192.630844 255.7886 192.626937 C 263.292506 192.626937 270.780787 192.412094 278.13235 190.630844 C 303.714381 184.931625 328.980006 165.537094 330.964381 137.771469 C 331.823756 108.4785 331.081569 79.119125 331.3511 49.806625 C 331.437037 44.826156 331.409694 44.771469 335.866725 42.595687 C 373.940944 25.701156 395.905787 -17.611344 438.63235 -25.072281 C 456.847194 -28.654313 460.183131 -46.775406 455.980006 -60.994156 C 444.8511 -99.392594 437.991725 -114.837906 443.097194 -156.025406 C 445.714381 -176.978531 436.401881 -194.482438 414.1636 -197.369156 C 379.124537 -201.736344 347.772975 -193.259781 320.589381 -170.337906 C 307.011256 -158.669938 293.233912 -146.505875 276.13235 -140.318375 C 269.019069 -137.669938 261.698756 -136.357438 254.128444 -136.357438 C 251.128444 -136.357438 248.120631 -136.505875 245.136256 -136.322281 C 230.312037 -135.873063 223.526881 -122.478531 225.468287 -108.978531 C 227.554225 -93.138688 232.425319 -78.150406 239.159694 -63.724625 C 242.960475 -55.576188 246.874537 -47.478531 250.620631 -39.30275 C 252.987819 -34.134781 254.339381 -28.611344 255.733912 -23.123063 C 255.933131 -22.341813 255.866725 -21.478531 255.855006 -20.654313 C 255.847194 -20.025406 254.987819 -19.548844 254.397975 -19.798844 C 254.093287 -19.92775 253.772975 -20.041031 253.499537 -20.224625 C 249.605006 -22.845719 245.401881 -24.853531 240.948756 -26.298844 C 238.897975 -26.962906 238.030787 -28.294938 237.847194 -30.322281 C 237.522975 -33.970719 237.233912 -37.626969 236.749537 -41.255875 C 236.374537 -44.056656 235.784694 -46.830094 235.179225 -49.595719 C 232.940944 -60.720719 221.710475 -66.013688 211.921412 -69.236344 C 206.394069 -71.103531 200.7261 -72.474625 195.003444 -73.591813 C 183.38235 -75.857438 171.644069 -77.224625 159.858912 -78.251969 C 157.6011 -78.404313 154.925319 -78.330094 155.120631 -81.267594 C 155.034694 -85.931656 155.112819 -90.595719 155.124537 -95.259781 C 155.054225 -97.982438 157.624537 -99.416031 159.218287 -101.251969 C 165.280787 -107.513688 168.370631 -115.017594 168.698756 -123.716813 C 170.065944 -159.193375 168.605006 -194.697281 170.405787 -230.166031 C 170.804225 -238.1465 170.644069 -246.158219 170.63235 -254.154313 C 170.956569 -291.314469 131.015162 -314.205094 98.073756 -299.509781 C 62.827662 -282.193375 68.054225 -254.599625 68.714381 -221.181656 C 69.312037 -191.025406 69.749537 -160.873063 70.214381 -130.716813 C 70.155787 -118.92775 71.870631 -108.392594 81.058131 -100.220719 C 83.522975 -97.962906 84.565944 -95.572281 84.480006 -92.388688 C 84.38235 -88.724625 84.499537 -85.05275 84.397975 -81.392594 C 84.335475 -79.103531 83.722194 -78.486344 81.405787 -78.228531 C 78.593287 -77.912125 75.765162 -77.728531 72.940944 -77.494156 C 59.812037 -76.3965 46.800319 -74.568375 34.019069 -71.263688 C 26.886256 -69.541031 19.9761 -66.99025 13.710475 -63.126969 C 8.874537 -60.330094 5.765162 -56.162125 4.085475 -50.841813 C 1.815944 -43.642594 3.308131 -45.166031 -4.309056 -43.759781 C -27.121556 -39.501969 -50.402806 -34.3965 -70.152806 -21.619156 C -80.30515 -15.130875 -88.750463 -5.201188 -88.375463 7.486312 C -88.340306 48.810531 -88.363744 90.13475 -88.418431 131.458969 C -88.426244 136.666 -87.793431 141.771469 -86.55515 146.794906 C -77.793431 178.236312 -42.527806 193.4785 -12.090306 192.626937 C 32.890162 192.642562 77.866725 192.642562 122.847194 192.642562 Z M 122.847194 192.626937 " transform="matrix(1,0,0,-1,3549.8364,1184.1035)"/>
<path style=" stroke:none;fill-rule:nonzero;fill:rgb(27.842712%,14.509583%,1.960754%);fill-opacity:1;" d="M 3955.296875 1035.824219 C 3954.773438 1035.855469 3954.226562 1036.316406 3953.683594 1037.539062 C 3950.996094 1043.558594 3947.042969 1048.617188 3942.070312 1052.894531 C 3940.691406 1054.082031 3939.167969 1055.105469 3937.738281 1056.234375 C 3936.492188 1057.222656 3936.472656 1058.039062 3937.867188 1058.949219 C 3944.117188 1063.035156 3948.804688 1068.519531 3952.617188 1074.875 C 3953.484375 1076.324219 3953.445312 1079.015625 3955.664062 1078.851562 C 3957.253906 1078.734375 3957.621094 1076.40625 3958.5 1075.039062 C 3961.792969 1069.242188 3965.792969 1063.890625 3971.46875 1060.1875 C 3973.386719 1058.835938 3975.945312 1057.652344 3972.804688 1055.691406 C 3966.535156 1051.371094 3961.667969 1045.8125 3958.039062 1039.132812 C 3957.488281 1038.117188 3956.832031 1037.15625 3956.160156 1036.214844 C 3956.003906 1035.992188 3955.59375 1035.949219 3955.296875 1035.824219 M 3955.261719 1116.6875 C 3951.402344 1116.609375 3949.003906 1114.671875 3948.3125 1110.871094 C 3947.601562 1101.398438 3946.230469 1091.9375 3941.433594 1083.519531 C 3935.078125 1071.78125 3925.230469 1066.136719 3912.160156 1064.445312 C 3905.617188 1062.929688 3905.023438 1053.796875 3911.160156 1051.296875 C 3913.167969 1050.546875 3915.328125 1050.164062 3917.445312 1049.75 C 3930.855469 1047.316406 3940.597656 1036.371094 3944.613281 1023.792969 C 3946.304688 1019.078125 3947.359375 1014.195312 3947.847656 1009.203125 C 3948.214844 1003.664062 3948.507812 997.570312 3955.511719 997.382812 C 3962.890625 997.421875 3963.027344 1004.332031 3963.394531 1010.074219 C 3964.863281 1027.863281 3975.542969 1046.964844 3994.542969 1049.824219 C 3996.179688 1050.109375 3997.851562 1050.351562 3999.40625 1050.898438 C 4006.574219 1053.5 4004.660156 1064.058594 3998.457031 1064.546875 C 3984.585938 1066.265625 3974.058594 1073.511719 3968.367188 1086.257812 C 3965.585938 1092.175781 3963.925781 1098.433594 3963.398438 1104.976562 C 3963.25 1106.800781 3963.109375 1108.632812 3962.824219 1110.441406 C 3962.140625 1114.78125 3959.675781 1116.777344 3955.261719 1116.6875 "/>
<path style="fill:none;stroke-width:7;stroke-linecap:butt;stroke-linejoin:miter;stroke:rgb(27.842712%,14.509583%,1.960754%);stroke-opacity:1;stroke-miterlimit:10;" d="M -0.000225 -0.00001875 C -0.523663 -0.0312687 -1.070538 -0.492206 -1.613506 -1.714862 C -4.301006 -7.734394 -8.254131 -12.792987 -13.226788 -17.070331 C -14.605694 -18.257831 -16.129131 -19.281269 -17.558819 -20.410175 C -18.804913 -21.398456 -18.824444 -22.214862 -17.429913 -23.125019 C -11.179913 -27.210956 -6.492413 -32.695331 -2.679913 -39.0508 C -1.812725 -40.500019 -1.851788 -43.191425 0.366962 -43.027362 C 1.956806 -42.910175 2.323994 -40.58205 3.2029 -39.214862 C 6.495869 -33.417987 10.495869 -28.066425 16.17165 -24.3633 C 18.089619 -23.011737 20.648212 -21.828144 17.507587 -19.867206 C 11.238056 -15.546894 6.370869 -9.9883 2.741962 -3.308612 C 2.191181 -2.292987 1.534931 -1.33205 0.863056 -0.390644 C 0.706806 -0.167987 0.29665 -0.125019 -0.000225 -0.00001875 Z M -0.0353813 -80.8633 C -3.894756 -80.785175 -6.293194 -78.847675 -6.9846 -75.046894 C -7.695538 -65.574237 -9.066631 -56.1133 -13.863506 -47.695331 C -20.218975 -35.95705 -30.066631 -30.312519 -43.136944 -28.621112 C -49.679913 -27.105487 -50.273663 -17.972675 -44.136944 -15.472675 C -42.129131 -14.722675 -39.968975 -14.339862 -37.851788 -13.9258 C -24.441631 -11.492206 -14.699444 -0.546894 -10.683819 12.031231 C -8.992413 16.746075 -7.937725 21.628888 -7.449444 26.621075 C -7.082256 32.160138 -6.789288 38.253888 0.214619 38.441388 C 7.593525 38.402325 7.730244 31.492169 8.097431 25.749981 C 9.566181 7.960919 20.245869 -11.140644 39.245869 -14.000019 C 40.882587 -14.285175 42.554462 -14.527362 44.10915 -15.074237 C 51.277119 -17.6758 49.363056 -28.234394 43.159931 -28.722675 C 29.288837 -30.441425 18.761494 -37.687519 13.070087 -50.433612 C 10.288837 -56.351581 8.628681 -62.609394 8.101337 -69.152362 C 7.9529 -70.976581 7.812275 -72.808612 7.527119 -74.617206 C 6.843525 -78.95705 4.378681 -80.953144 -0.0353813 -80.8633 Z M -0.0353813 -80.8633 " transform="matrix(1,0,0,-1,3955.2971,1035.8242)"/>
<path style=" stroke:none;fill-rule:nonzero;fill:rgb(27.842712%,14.509583%,1.960754%);fill-opacity:1;" d="M 4021.320312 1117.921875 C 4021.023438 1118.039062 4020.613281 1118.070312 4020.445312 1118.289062 C 4018.941406 1120.222656 4016.566406 1121.433594 4015.742188 1123.929688 C 4016.75 1125.902344 4018.578125 1127.144531 4020.035156 1128.710938 C 4021.964844 1131.09375 4023.859375 1127.164062 4025.402344 1126.058594 C 4027.90625 1123.921875 4027.476562 1123.285156 4025.480469 1121.34375 C 4024.414062 1120.304688 4023.335938 1119.273438 4022.226562 1118.277344 C 4022 1118.074219 4021.625 1118.035156 4021.320312 1117.921875 M 4051.566406 1123.804688 C 4051.9375 1130.839844 4046.433594 1130.382812 4041.277344 1132.222656 C 4034.992188 1134.691406 4030.675781 1138.972656 4029.277344 1145.785156 C 4028.457031 1150.839844 4028.175781 1156.070312 4021.96875 1156.609375 C 4018.425781 1156.875 4015.433594 1154.78125 4014.5 1151.320312 C 4013.441406 1140.707031 4008.976562 1133.636719 3998.347656 1131.28125 C 3994.570312 1130.734375 3991.109375 1128.417969 3991.03125 1124.398438 C 3990.960938 1119.730469 3994.4375 1117.308594 3998.6875 1116.777344 C 4007.53125 1114.71875 4012.199219 1108.828125 4013.867188 1100.210938 C 4014.152344 1098.742188 4014.183594 1097.21875 4014.507812 1095.761719 C 4015.234375 1092.484375 4017.566406 1090.519531 4020.789062 1090.308594 C 4026.394531 1090.121094 4028.296875 1094.265625 4028.734375 1099.179688 C 4029.433594 1103.550781 4030.996094 1107.484375 4034.070312 1110.796875 C 4036.882812 1113.824219 4040.214844 1115.851562 4044.234375 1116.769531 C 4048.679688 1117.429688 4051.664062 1118.886719 4051.566406 1123.804688 "/>
<path style="fill:none;stroke-width:7;stroke-linecap:butt;stroke-linejoin:miter;stroke:rgb(27.842712%,14.509583%,1.960754%);stroke-opacity:1;stroke-miterlimit:10;" d="M 0.0007125 -0.000475 C -0.296163 -0.117662 -0.706319 -0.148912 -0.874288 -0.367662 C -2.378194 -2.301256 -4.753194 -3.512194 -5.577413 -6.008287 C -4.5696 -7.980944 -2.741475 -9.223131 -1.284444 -10.789537 C 0.645244 -13.17235 2.539775 -9.242662 4.082744 -8.137194 C 6.58665 -6.000475 6.156962 -5.363756 4.160869 -3.42235 C 3.094462 -2.383287 2.016337 -1.352037 0.906962 -0.355944 C 0.6804 -0.152819 0.3054 -0.113756 0.0007125 -0.000475 Z M 30.246806 -5.883287 C 30.6179 -12.918444 25.113994 -12.461412 19.957744 -14.301256 C 13.672587 -16.770006 9.356181 -21.051256 7.957744 -27.863756 C 7.137431 -32.918444 6.856181 -38.148912 0.64915 -38.687975 C -2.893819 -38.9536 -5.886006 -36.85985 -6.8196 -33.398912 C -7.878194 -22.785631 -12.343038 -15.715319 -22.971944 -13.35985 C -26.749288 -12.812975 -30.210225 -10.496569 -30.28835 -6.477037 C -30.358663 -1.809069 -26.8821 0.612806 -22.6321 1.144056 C -13.78835 3.20265 -9.120381 9.093275 -7.452413 17.710463 C -7.167256 19.179213 -7.136006 20.70265 -6.811788 22.159681 C -6.085225 25.437025 -3.753194 27.401869 -0.530538 27.612806 C 5.074931 27.800306 6.977275 23.655775 7.414775 18.741713 C 8.113994 14.370619 9.676494 10.437025 12.750712 7.124525 C 15.563212 4.097181 18.895244 2.069838 22.914775 1.151869 C 27.360087 0.491713 30.344462 -0.965319 30.246806 -5.883287 Z M 30.246806 -5.883287 " transform="matrix(1,0,0,-1,4021.3196,1117.9214)"/>
<path style=" stroke:none;fill-rule:nonzero;fill:rgb(27.842712%,14.509583%,1.960754%);fill-opacity:1;" d="M 3878.132812 1211.515625 C 3878.703125 1211.660156 3879.867188 1211.828125 3880.929688 1212.253906 C 3902.523438 1222.277344 3919.324219 1238.699219 3930.933594 1259.375 C 3933.835938 1264.019531 3935.246094 1269.910156 3929.621094 1272.757812 C 3926.0625 1274.4375 3922.316406 1273.355469 3920.101562 1269.871094 C 3910.195312 1251.746094 3896.144531 1236.355469 3877.515625 1227 C 3875.898438 1226.160156 3874.210938 1225.359375 3872.808594 1224.226562 C 3867.484375 1219.78125 3871.257812 1211.523438 3878.132812 1211.515625 "/>
<path style="fill:none;stroke-width:7;stroke-linecap:butt;stroke-linejoin:miter;stroke:rgb(27.842712%,14.509583%,1.960754%);stroke-opacity:1;stroke-miterlimit:10;" d="M 0.0017125 0.000475 C 0.572025 -0.144056 1.736087 -0.312025 2.798587 -0.737806 C 24.392337 -10.761244 41.193119 -27.183119 52.802494 -47.8589 C 55.704837 -52.503431 57.114994 -58.394056 51.489994 -61.241712 C 47.9314 -62.9214 44.185306 -61.839369 41.970462 -58.354994 C 32.064212 -40.229994 18.013431 -24.839369 -0.615475 -15.4839 C -2.232663 -14.644056 -3.920163 -13.843275 -5.322506 -12.710462 C -10.646725 -8.26515 -6.873288 -0.0073375 0.0017125 0.000475 Z M 0.0017125 0.000475 " transform="matrix(1,0,0,-1,3878.1311,1211.5161)"/>
<path style=" stroke:none;fill-rule:nonzero;fill:rgb(27.842712%,14.509583%,1.960754%);fill-opacity:1;" d="M 3867.722656 1241.589844 C 3870.265625 1241.460938 3872.492188 1242.949219 3874.695312 1244.019531 C 3888.546875 1251.867188 3898.917969 1263.042969 3906.21875 1277.132812 C 3908.617188 1281.050781 3907.746094 1286.972656 3903.097656 1288.429688 C 3898.203125 1290.199219 3894.667969 1287.445312 3892.917969 1283.105469 C 3886.65625 1270.332031 3876.125 1261.3125 3863.660156 1254.851562 C 3857.566406 1251.023438 3860.914062 1241.59375 3867.722656 1241.589844 "/>
<path style="fill:none;stroke-width:7;stroke-linecap:butt;stroke-linejoin:miter;stroke:rgb(27.842712%,14.509583%,1.960754%);stroke-opacity:1;stroke-miterlimit:10;" d="M 0.00145625 0.00095625 C 2.544425 0.129862 4.770988 -1.358419 6.974113 -2.428731 C 20.825675 -10.276388 31.196769 -21.452169 38.49755 -35.542013 C 40.895988 -39.459981 40.024894 -45.381856 35.376456 -46.838888 C 30.481925 -48.608419 26.946769 -45.854513 25.196769 -41.514669 C 18.93505 -28.741231 8.4038 -19.7217 -4.061044 -13.260763 C -10.154794 -9.432638 -6.807137 -0.00295 0.00145625 0.00095625 Z M 0.00145625 0.00095625 " transform="matrix(1,0,0,-1,3867.7212,1241.5908)"/>
</svg>
