<?xml version="1.0" encoding="UTF-8"?>
<svg xmlns="http://www.w3.org/2000/svg" width="256" height="256" viewBox="2369.26 810.26 813.47 813.47" preserveAspectRatio="xMidYMid meet">
<path style=" stroke:none;fill-rule:nonzero;fill:rgb(27.842712%,14.509583%,1.960754%);fill-opacity:1;" d="M 2828.988281 1297.71875 L 2828.914062 1297.71875 C 2828.914062 1302.050781 2828.945312 1306.382812 2828.90625 1310.710938 C 2828.550781 1330.589844 2799.285156 1334.175781 2784.113281 1332.09375 C 2771.820312 1331.019531 2758.21875 1325.042969 2756.816406 1311.148438 C 2756.507812 1309.914062 2755.722656 1309.476562 2754.609375 1310.058594 C 2747.5 1313.777344 2741.035156 1318.472656 2734.691406 1323.347656 C 2732.769531 1325.089844 2732.050781 1327.820312 2733.394531 1330.136719 C 2750.421875 1351.277344 2763.996094 1375.242188 2772.179688 1401.207031 C 2776.132812 1413.953125 2779.144531 1426.90625 2780.796875 1440.164062 C 2781.308594 1444.296875 2784.65625 1446.640625 2788.636719 1445.675781 C 2796.796875 1443.207031 2804.019531 1438.457031 2810.539062 1433.023438 C 2837.382812 1408.773438 2859.347656 1389.710938 2897.980469 1391.542969 C 2899.640625 1391.628906 2901.324219 1391.796875 2902.964844 1391.625 C 2907.886719 1391.15625 2908.75 1386.160156 2906.210938 1382.535156 C 2894.246094 1366.878906 2883.5 1350.457031 2875.628906 1332.300781 C 2868.652344 1316.335938 2863.839844 1299.765625 2861.109375 1282.578125 C 2860.898438 1281.257812 2860.746094 1279.945312 2860.132812 1278.726562 C 2858.53125 1275.542969 2856.355469 1274.535156 2852.828125 1275.253906 C 2850.21875 1275.78125 2847.578125 1276.148438 2844.964844 1276.652344 C 2841.042969 1277.410156 2837.101562 1278.105469 2833.222656 1279.054688 C 2829.714844 1279.910156 2829.125 1280.65625 2829.019531 1284.222656 C 2828.890625 1288.71875 2828.988281 1293.21875 2828.988281 1297.71875 M 2813.613281 1197.574219 L 2813.652344 1197.574219 C 2813.652344 1164.585938 2813.675781 1131.597656 2813.640625 1098.613281 C 2813.625 1085.855469 2811.953125 1073.367188 2807.144531 1061.433594 C 2795.515625 1029.976562 2763.746094 1009.261719 2730.472656 1009.695312 C 2706.171875 1009.621094 2681.828125 1009.195312 2657.535156 1009.757812 C 2654.667969 1010.085938 2655.308594 1013.472656 2655.257812 1015.5625 C 2655.574219 1026.382812 2655.207031 1037.207031 2655.234375 1048.03125 C 2655.234375 1053.457031 2655.589844 1053.753906 2660.796875 1053.851562 C 2679.453125 1053.851562 2698.105469 1053.84375 2716.761719 1053.859375 C 2721.589844 1053.863281 2726.4375 1053.703125 2731.25 1054.019531 C 2754.234375 1054.703125 2771.5625 1074.808594 2771.839844 1097.292969 C 2771.820312 1166.925781 2772.273438 1236.566406 2771.972656 1306.203125 C 2771.933594 1310.34375 2773.527344 1312.824219 2777.226562 1314.265625 C 2787.09375 1318.164062 2798.121094 1318.039062 2807.988281 1314.265625 C 2811.835938 1312.871094 2814.214844 1310.472656 2813.613281 1306.027344 C 2813.609375 1269.886719 2813.617188 1233.722656 2813.613281 1197.574219 M 2829.03125 1172.367188 C 2829.023438 1201.855469 2829.066406 1231.355469 2828.984375 1260.835938 C 2829.0625 1263.152344 2829.886719 1263.777344 2832.214844 1263.375 C 2839.441406 1262.21875 2846.585938 1260.367188 2853.875 1259.691406 C 2863.9375 1259.113281 2872.539062 1265.460938 2874.851562 1275.304688 C 2876.296875 1281.457031 2877.3125 1287.714844 2878.761719 1293.867188 C 2883.378906 1313.480469 2890.964844 1331.878906 2901.605469 1349 C 2905.738281 1355.652344 2909.890625 1362.285156 2914.78125 1368.425781 C 2916.441406 1370.503906 2917.921875 1372.734375 2919.375 1374.96875 C 2927.722656 1387.210938 2920.246094 1406.582031 2905.128906 1406.574219 C 2872.222656 1404.882812 2853.855469 1414.332031 2830.15625 1436.246094 C 2821.226562 1444.667969 2811.71875 1452.828125 2800.394531 1457.882812 C 2794.613281 1460.617188 2788.515625 1461.195312 2782.328125 1460.394531 C 2774.597656 1459.394531 2769.976562 1454.34375 2767.148438 1447.480469 C 2766.402344 1445.664062 2766.15625 1443.617188 2765.84375 1441.648438 C 2763.773438 1428.46875 2761.015625 1415.457031 2756.703125 1402.796875 C 2749.429688 1381.464844 2738.773438 1361.984375 2724.949219 1344.214844 C 2715.746094 1334.453125 2714.734375 1320.019531 2725.570312 1311.113281 C 2733.777344 1304.480469 2742.695312 1299.015625 2751.894531 1293.949219 C 2754.152344 1292.84375 2756.800781 1291.886719 2756.730469 1288.90625 C 2756.703125 1225.757812 2756.8125 1162.605469 2756.582031 1099.457031 C 2756.488281 1085.261719 2746.804688 1070.652344 2731.59375 1070.179688 C 2728.601562 1070.011719 2725.601562 1069.894531 2722.605469 1069.878906 C 2701.121094 1069.972656 2679.617188 1069.292969 2658.144531 1070.105469 C 2656.238281 1070.195312 2655.832031 1070.613281 2655.394531 1072.378906 C 2655.15625 1073.347656 2654.90625 1074.339844 2654.863281 1075.328125 C 2654.582031 1081.972656 2646.132812 1089.921875 2638.621094 1089.75 C 2619.144531 1090.117188 2599.644531 1089.878906 2580.15625 1089.914062 C 2576.992188 1089.910156 2573.828125 1089.835938 2570.664062 1089.746094 C 2566.171875 1089.898438 2561.578125 1087.820312 2561.160156 1082.945312 C 2560.433594 1076.75 2565.609375 1073.132812 2571.292969 1073.59375 C 2591.449219 1073.582031 2611.605469 1073.589844 2631.761719 1073.59375 C 2637.757812 1073.539062 2640.261719 1074.316406 2639.941406 1067.214844 C 2639.957031 1043.386719 2639.964844 1019.558594 2639.980469 995.734375 C 2640.242188 991.230469 2638.875 989.910156 2634.066406 989.988281 C 2613.414062 990.058594 2592.765625 989.644531 2572.105469 990.011719 C 2566.710938 990.003906 2561.011719 988.632812 2561.132812 982.058594 C 2561.136719 978.121094 2563.175781 975.300781 2566.929688 974.34375 C 2568.363281 973.976562 2569.890625 973.859375 2571.378906 973.851562 C 2593.199219 973.789062 2615.019531 973.757812 2636.84375 973.738281 C 2646.863281 973.453125 2654.691406 980.894531 2655.570312 990.757812 C 2656.105469 993.21875 2656.289062 993.421875 2658.84375 993.542969 C 2681.664062 993.742188 2704.488281 993.585938 2727.308594 993.582031 C 2761.78125 992.859375 2796.941406 1009.640625 2814.351562 1040.058594 C 2823.230469 1055.273438 2828.566406 1071.625 2828.707031 1089.390625 C 2828.898438 1117.046875 2828.890625 1144.707031 2828.902344 1172.367188 Z M 2829.03125 1172.367188 "/>
<path style="fill:none;stroke-width:7;stroke-linecap:butt;stroke-linejoin:miter;stroke:rgb(27.842712%,14.509583%,1.960754%);stroke-opacity:1;stroke-miterlimit:10;" d="M -0.00191875 -0.00095 L -0.0761375 -0.00095 C -0.0761375 -4.332981 -0.0448875 -8.665013 -0.08395 -12.993138 C -0.439419 -32.872044 -29.705044 -36.457981 -44.876919 -34.37595 C -57.169888 -33.301731 -70.77145 -27.325169 -72.173794 -13.430638 C -72.482388 -12.196263 -73.267544 -11.758763 -74.380825 -12.340794 C -81.4902 -16.059544 -87.955044 -20.754856 -94.298794 -25.629856 C -96.220669 -27.372044 -96.939419 -30.102513 -95.595669 -32.418919 C -78.568325 -53.559544 -64.994106 -77.524388 -56.810513 -103.489231 C -52.857388 -116.235325 -49.845669 -129.18845 -48.193325 -142.446263 C -47.681606 -146.579075 -44.33395 -148.922825 -40.353481 -147.957981 C -32.193325 -145.489231 -24.970669 -140.739231 -18.451138 -135.305638 C 8.392612 -111.055638 30.357456 -91.993138 68.990269 -93.825169 C 70.650425 -93.911106 72.334019 -94.079075 73.974644 -93.9072 C 78.896519 -93.43845 79.7598 -88.442356 77.220737 -84.817356 C 65.255894 -69.161106 54.5098 -52.739231 46.638706 -34.582981 C 39.662144 -18.618138 34.849644 -2.047825 32.119175 15.139675 C 31.908237 16.459987 31.755894 17.772487 31.142612 18.991237 C 29.54105 22.174831 27.365269 23.182644 23.837925 22.463894 C 21.22855 21.93655 18.587925 21.569362 15.974644 21.065456 C 12.052769 20.307644 8.111362 19.612331 4.232456 18.663112 C 0.724644 17.807644 0.1348 17.06155 0.0293312 13.495144 C -0.099575 8.99905 -0.00191875 4.49905 -0.00191875 -0.00095 Z M -15.376919 100.143581 L -15.337856 100.143581 C -15.337856 133.131862 -15.314419 166.120144 -15.349575 199.104519 C -15.3652 211.862331 -17.037075 224.350612 -21.845669 236.284206 C -33.474575 267.741237 -65.244106 288.456081 -98.517544 288.022487 C -122.818325 288.096706 -147.162075 288.522487 -171.455044 287.959987 C -174.322231 287.631862 -173.681606 284.245144 -173.732388 282.1553 C -173.415981 271.334987 -173.783169 260.510769 -173.755825 249.68655 C -173.755825 244.260769 -173.400356 243.963894 -168.193325 243.866237 C -149.537075 243.866237 -130.884731 243.87405 -112.228481 243.858425 C -107.400356 243.854519 -102.5527 244.014675 -97.7402 243.698269 C -74.755825 243.014675 -57.4277 222.909206 -57.150356 200.424831 C -57.169888 130.792019 -56.716763 61.151394 -57.017544 -8.485325 C -57.056606 -12.62595 -55.462856 -15.106419 -51.763638 -16.547825 C -41.89645 -20.446263 -30.869106 -20.321263 -21.001919 -16.547825 C -17.154263 -15.153294 -14.775356 -12.754856 -15.376919 -8.309544 C -15.380825 27.831081 -15.373013 63.995144 -15.376919 100.143581 Z M 0.04105 125.350612 C 0.0332375 95.862331 0.0762062 66.362331 -0.005825 36.881862 C 0.0723 34.565456 0.896519 33.940456 3.224644 34.3428 C 10.451206 35.49905 17.595737 37.350612 24.8848 38.026394 C 34.9473 38.604519 43.548862 32.256862 45.861362 22.413112 C 47.306675 16.260769 48.3223 10.002956 49.771519 3.850612 C 54.388706 -15.762669 61.974644 -34.161106 72.615269 -51.2822 C 76.748081 -57.934544 80.900425 -64.567356 85.79105 -70.707981 C 87.451206 -72.786106 88.931675 -75.016575 90.3848 -77.25095 C 98.732456 -89.493138 91.255894 -108.864231 76.138706 -108.856419 C 43.232456 -107.165013 24.865269 -116.614231 1.16605 -138.528294 C -7.763638 -146.950169 -17.27145 -155.110325 -28.595669 -160.165013 C -34.376919 -162.899388 -40.474575 -163.477513 -46.662075 -162.676731 C -54.392544 -161.676731 -59.013638 -156.62595 -61.841763 -149.762669 C -62.587856 -147.946263 -62.83395 -145.899388 -63.14645 -143.930638 C -65.216763 -130.75095 -67.974575 -117.739231 -72.287075 -105.079075 C -79.560513 -83.747044 -90.216763 -64.266575 -104.040981 -46.497044 C -113.244106 -36.735325 -114.255825 -22.301731 -103.419888 -13.395481 C -95.212856 -6.762669 -86.294888 -1.297825 -77.095669 3.768581 C -74.837856 4.87405 -72.189419 5.831081 -72.259731 8.81155 C -72.287075 71.959987 -72.1777 135.112331 -72.408169 198.260769 C -72.501919 212.456081 -82.185513 227.065456 -97.39645 227.538112 C -100.388638 227.706081 -103.388638 227.823269 -106.384731 227.838894 C -127.869106 227.745144 -149.373013 228.424831 -170.845669 227.612331 C -172.751919 227.522487 -173.158169 227.104519 -173.595669 225.338894 C -173.83395 224.370144 -174.08395 223.377956 -174.126919 222.389675 C -174.408169 215.745144 -182.857388 207.795925 -190.369106 207.9678 C -209.845669 207.600612 -229.345669 207.838894 -248.83395 207.803737 C -251.998013 207.807644 -255.162075 207.881862 -258.326138 207.971706 C -262.818325 207.819362 -267.412075 209.897487 -267.830044 214.772487 C -268.556606 220.9678 -263.380825 224.584987 -257.697231 224.12405 C -237.540981 224.135769 -217.384731 224.127956 -197.228481 224.12405 C -191.232388 224.178737 -188.728481 223.401394 -189.048794 230.502956 C -189.033169 254.331081 -189.025356 278.159206 -189.009731 301.983425 C -188.748013 306.487331 -190.1152 307.807644 -194.923794 307.729519 C -215.576138 307.659206 -236.224575 308.073269 -256.884731 307.706081 C -262.279263 307.713894 -267.978481 309.084987 -267.857388 315.659206 C -267.853481 319.596706 -265.814419 322.417019 -262.060513 323.37405 C -260.626919 323.741237 -259.099575 323.858425 -257.611294 323.866237 C -235.790981 323.928737 -213.970669 323.959987 -192.14645 323.979519 C -182.126919 324.264675 -174.298794 316.823269 -173.419888 306.959987 C -172.884731 304.49905 -172.701138 304.295925 -170.14645 304.174831 C -147.326138 303.975612 -124.501919 304.131862 -101.681606 304.135769 C -67.20895 304.858425 -32.048794 288.077175 -14.638638 257.659206 C -5.759731 242.444362 -0.423794 226.0928 -0.283169 208.327175 C -0.0917625 180.670925 -0.099575 153.010769 -0.0878563 125.350612 Z M 0.04105 125.350612 " transform="matrix(1,0,0,-1,2828.9902,1297.7178)"/>
<path style=" stroke:none;fill-rule:nonzero;fill:rgb(27.842712%,14.509583%,1.960754%);fill-opacity:1;" d="M 2915.882812 1202.816406 C 2916.179688 1202.730469 2916.628906 1202.742188 2916.746094 1202.550781 C 2917.609375 1201.132812 2918.410156 1199.679688 2919.21875 1198.226562 C 2922.847656 1191.683594 2927.917969 1186.507812 2934.152344 1182.414062 C 2935.523438 1181.515625 2937.976562 1181.421875 2938.171875 1179.824219 C 2938.429688 1177.722656 2935.851562 1177.308594 2934.410156 1176.390625 C 2927.644531 1172.085938 2922.328125 1166.503906 2918.660156 1159.359375 C 2918.128906 1158.324219 2917.5 1157.335938 2916.867188 1156.359375 C 2916.507812 1155.792969 2915.570312 1155.890625 2915.21875 1156.53125 C 2914.746094 1157.410156 2914.351562 1158.328125 2913.882812 1159.207031 C 2910.136719 1166.242188 2905.328125 1172.292969 2898.21875 1176.242188 C 2897.058594 1176.890625 2895.976562 1177.679688 2894.890625 1178.449219 C 2892.957031 1180.058594 2895.785156 1181.019531 2896.957031 1181.710938 C 2904.675781 1185.914062 2910.316406 1192.070312 2914.09375 1199.96875 C 2914.652344 1200.96875 2914.738281 1202.316406 2915.882812 1202.816406 M 2915.839844 1131.199219 C 2919.636719 1131.117188 2921.691406 1132.578125 2922.53125 1136.253906 C 2923.777344 1141.96875 2925.703125 1147.457031 2928.402344 1152.644531 C 2933.894531 1164.675781 2946.175781 1170.695312 2958.5625 1173.253906 C 2964.785156 1174.214844 2965.90625 1183.097656 2959.886719 1185.289062 C 2955.128906 1186.730469 2950.117188 1187.5 2945.601562 1189.6875 C 2936.90625 1193.695312 2930.734375 1200.210938 2926.917969 1208.949219 C 2925.117188 1213.070312 2923.625 1217.304688 2922.769531 1221.742188 C 2922.449219 1225.082031 2919.648438 1228.25 2916.324219 1228.253906 C 2911.394531 1228.386719 2909.746094 1223.617188 2909.066406 1219.574219 C 2907.464844 1212.691406 2904.851562 1206.28125 2900.671875 1200.523438 C 2896.519531 1194.800781 2891.011719 1190.957031 2884.453125 1188.578125 C 2880.707031 1187.222656 2876.714844 1186.546875 2872.957031 1185.242188 C 2869.941406 1184.042969 2868.691406 1181.851562 2868.992188 1178.53125 C 2869.242188 1175.765625 2870.582031 1174.132812 2873.636719 1173.445312 C 2877.875 1172.492188 2881.988281 1171.195312 2885.976562 1169.503906 C 2899.089844 1164.308594 2905.636719 1152.578125 2909.203125 1139.519531 C 2910.21875 1135.808594 2911.171875 1131.054688 2915.839844 1131.199219 "/>
<path style="fill:none;stroke-width:7;stroke-linecap:butt;stroke-linejoin:miter;stroke:rgb(27.842712%,14.509583%,1.960754%);stroke-opacity:1;stroke-miterlimit:10;" d="M -0.0016875 -0.00100625 C 0.295187 0.0849312 0.744406 0.0732125 0.861594 0.264619 C 1.724875 1.682587 2.525656 3.135712 3.33425 4.588837 C 6.963156 11.131806 12.033469 16.307587 18.267844 20.401337 C 19.638937 21.299775 22.092062 21.393525 22.287375 22.991181 C 22.545187 25.092744 19.967062 25.506806 18.525656 26.424775 C 11.760031 30.729462 6.443625 36.311494 2.775656 43.456025 C 2.244406 44.491181 1.6155 45.479462 0.982687 46.456025 C 0.623312 47.022431 -0.314188 46.924775 -0.66575 46.28415 C -1.138406 45.405244 -1.532938 44.487275 -2.001688 43.608369 C -5.747781 36.573212 -10.556375 30.522431 -17.66575 26.573212 C -18.825906 25.924775 -19.907938 25.135712 -20.993875 24.366181 C -22.927469 22.756806 -20.099344 21.795869 -18.927469 21.104462 C -11.208719 16.901337 -5.568094 10.745087 -1.79075 2.84665 C -1.232156 1.84665 -1.146219 0.498994 -0.0016875 -0.00100625 Z M -0.0446563 71.616181 C 3.752219 71.698212 5.806906 70.237275 6.64675 66.561494 C 7.892844 60.84665 9.818625 55.358369 12.517844 50.170869 C 18.010031 38.139619 30.291281 32.120087 42.678 29.561494 C 48.900656 28.600556 50.02175 19.717744 44.002219 17.526337 C 39.244406 16.084931 34.232687 15.3154 29.717062 13.1279 C 21.02175 9.120087 14.849875 2.604462 11.033469 -6.133819 C 9.232687 -10.254913 7.7405 -14.489288 6.885031 -18.926788 C 6.564719 -22.266631 3.763937 -25.4346 0.439719 -25.438506 C -4.489969 -25.571319 -6.138406 -20.801788 -6.818094 -16.758819 C -8.419656 -9.876006 -11.032938 -3.46585 -15.212625 2.291962 C -19.364969 8.014619 -24.872781 11.858369 -31.431375 14.237275 C -35.177469 15.592744 -39.169656 16.268525 -42.927469 17.573212 C -45.943094 18.772431 -47.193094 20.963837 -46.892313 24.28415 C -46.642313 27.049775 -45.302469 28.682587 -42.247781 29.370087 C -38.0095 30.323212 -33.896219 31.620087 -29.907938 33.311494 C -16.794656 38.506806 -10.247781 50.237275 -6.681375 63.295869 C -5.66575 67.006806 -4.712625 71.760712 -0.0446563 71.616181 Z M -0.0446563 71.616181 " transform="matrix(1,0,0,-1,2915.8845,1202.8154)"/>
<path style=" stroke:none;fill-rule:nonzero;fill:rgb(27.842712%,14.509583%,1.960754%);fill-opacity:1;" d="M 2979.742188 1329.84375 C 2979.671875 1326.167969 2978.601562 1322.359375 2977.046875 1318.640625 C 2973.835938 1310.949219 2969.542969 1303.820312 2965.621094 1296.496094 C 2964.261719 1294.011719 2963.152344 1294.398438 2961.828125 1296.683594 C 2957.71875 1303.902344 2953.546875 1311.09375 2950.140625 1318.6875 C 2948.84375 1321.582031 2948 1324.609375 2947.546875 1327.761719 C 2946.875 1332.410156 2947.878906 1336.730469 2950.246094 1340.667969 C 2959.4375 1354.9375 2980.105469 1347.597656 2979.742188 1329.84375 M 2992.121094 1330.054688 C 2991.6875 1360.304688 2955.234375 1372.039062 2939.519531 1346.6875 C 2933.734375 1337.011719 2933.988281 1324.613281 2938.5625 1314.484375 C 2943.859375 1302.980469 2950.136719 1292 2956.398438 1281.003906 C 2957.050781 1279.847656 2957.722656 1278.664062 2958.597656 1277.6875 C 2961.421875 1274.539062 2965.902344 1274.617188 2968.652344 1277.808594 C 2975.535156 1288.578125 2981.652344 1299.914062 2987.347656 1311.375 C 2990.25 1317.449219 2992.039062 1323.820312 2992.121094 1330.054688 "/>
<path style="fill:none;stroke-width:7;stroke-linecap:butt;stroke-linejoin:miter;stroke:rgb(27.842712%,14.509583%,1.960754%);stroke-opacity:1;stroke-miterlimit:10;" d="M 0.0016875 0.00005 C -0.068625 3.675831 -1.138937 7.484425 -2.693625 11.203175 C -5.904562 18.894581 -10.197531 26.023487 -14.119406 33.347706 C -15.478781 35.832081 -16.588156 35.445362 -17.912375 33.160206 C -22.02175 25.941456 -26.193625 18.75005 -29.599875 11.1563 C -30.89675 8.261769 -31.7405 5.234425 -32.193625 2.082081 C -32.8655 -2.566356 -31.861594 -6.886669 -29.494406 -10.824169 C -20.303 -25.0937 0.364969 -17.753856 0.0016875 0.00005 Z M 12.380594 -0.210888 C 11.947 -30.460888 -24.506125 -42.195263 -40.220969 -16.8437 C -46.006125 -7.167919 -45.752219 5.230519 -41.178 15.359425 C -35.881125 26.863331 -29.603781 37.8438 -23.342062 48.839894 C -22.689719 49.996144 -22.017844 51.179737 -21.142844 52.1563 C -18.318625 55.304737 -13.838156 55.226612 -11.088156 52.035206 C -4.205344 41.265675 1.911844 29.929737 7.607156 18.4688 C 10.5095 12.394581 12.298563 6.023487 12.380594 -0.210888 Z M 12.380594 -0.210888 " transform="matrix(1,0,0,-1,2979.7405,1329.8438)"/>
</svg>
