<?xml version="1.0" encoding="UTF-8"?>
<svg xmlns="http://www.w3.org/2000/svg" width="256" height="256" viewBox="10058.45 846.95 772.09 772.09" preserveAspectRatio="xMidYMid meet">
<path style=" stroke:none;fill-rule:nonzero;fill:rgb(27.842712%,14.509583%,1.960754%);fill-opacity:1;" d="M 10785.007812 1315.585938 L 10784.917969 1315.585938 C 10784.917969 1308.761719 10784.921875 1301.933594 10784.914062 1295.105469 C 10784.917969 1293.21875 10785.027344 1290.597656 10782.683594 1290.148438 C 10778.789062 1289.3125 10774.695312 1290.046875 10770.769531 1290.335938 C 10765.992188 1290.933594 10763.699219 1293.425781 10763.535156 1298.308594 C 10763.179688 1308.792969 10762.785156 1319.28125 10763.3125 1329.769531 C 10763.320312 1341.015625 10769.238281 1341.492188 10778.761719 1341.378906 C 10784.558594 1341.304688 10785.007812 1340.800781 10785.007812 1335.066406 Z M 10237.332031 1449.890625 C 10269.824219 1450.128906 10293.832031 1425.277344 10294.5625 1394.496094 C 10293.507812 1319.457031 10184.851562 1317.917969 10181.890625 1392.921875 C 10181.371094 1425.644531 10207.648438 1449.757812 10237.332031 1449.890625 M 10644.230469 1449.875 C 10677.171875 1450.214844 10700.859375 1424.035156 10701.550781 1395.160156 C 10700.984375 1319.6875 10591.859375 1317.460938 10588.691406 1392.921875 C 10587.957031 1423.613281 10613.625 1449.933594 10644.230469 1449.875 M 10563.703125 1225.992188 L 10563.792969 1225.992188 C 10563.863281 1270.476562 10563.570312 1315.003906 10564.496094 1359.464844 C 10564.65625 1360.578125 10565.441406 1361.296875 10566.535156 1361.324219 C 10571.027344 1361.441406 10575.523438 1361.492188 10580.019531 1361.523438 C 10582.609375 1361.609375 10583.636719 1358.816406 10584.886719 1357.007812 C 10601.554688 1327.816406 10638.371094 1316.78125 10667.351562 1326.597656 C 10691.070312 1334.316406 10708.964844 1355.378906 10714.097656 1379.632812 C 10714.984375 1382.644531 10715.210938 1382.890625 10718.148438 1383.074219 C 10721.140625 1383.261719 10724.140625 1383.410156 10727.136719 1383.402344 C 10743.285156 1383.179688 10759.480469 1383.632812 10775.609375 1382.9375 C 10780.589844 1382.386719 10784.226562 1377.964844 10784.804688 1373.121094 C 10785.519531 1367.964844 10784.765625 1362.808594 10784.820312 1357.652344 C 10784.84375 1355.621094 10783.824219 1354.6875 10781.6875 1354.5 C 10776.375 1354.089844 10771.027344 1354.574219 10765.730469 1353.769531 C 10758.28125 1352.667969 10752.4375 1346.601562 10750.886719 1339.371094 C 10750.171875 1336.433594 10750.058594 1333.449219 10750.058594 1330.4375 C 10750.050781 1319.605469 10750.003906 1308.773438 10749.941406 1297.941406 C 10749.871094 1285.953125 10758.410156 1278.214844 10767.015625 1277.03125 C 10771.789062 1276.097656 10776.621094 1276.3125 10781.453125 1276.234375 C 10785.007812 1276.335938 10785.015625 1273.167969 10784.984375 1270.339844 C 10784.914062 1256.171875 10784.765625 1242.007812 10784.792969 1227.84375 C 10784.804688 1222.6875 10783.597656 1217.953125 10781.058594 1213.523438 C 10762.929688 1182.441406 10744.367188 1151.613281 10726.082031 1120.625 C 10722.34375 1114.320312 10718.703125 1107.957031 10714.9375 1101.667969 C 10710.792969 1094.742188 10704.761719 1090.8125 10696.578125 1090.507812 C 10670.109375 1089.289062 10643.605469 1089.957031 10617.117188 1089.796875 C 10600.460938 1089.976562 10583.777344 1089.265625 10567.152344 1090.4375 C 10564.292969 1090.496094 10563.847656 1092.542969 10563.917969 1095 C 10563.410156 1138.660156 10563.832031 1182.328125 10563.703125 1225.992188 M 10327.109375 1017.878906 L 10327.109375 1017.738281 C 10263.3125 1017.972656 10199.515625 1018.269531 10135.71875 1018.105469 C 10129.886719 1018.105469 10124.046875 1018.328125 10118.277344 1019.195312 C 10109.808594 1020.464844 10106.292969 1024.683594 10106.238281 1032.433594 C 10105.597656 1138.046875 10105.839844 1243.714844 10106.363281 1349.324219 C 10106.320312 1356.207031 10111.988281 1361.441406 10118.398438 1361.457031 C 10135.382812 1361.707031 10152.375 1361.546875 10169.367188 1361.589844 C 10175.402344 1361.582031 10175.183594 1361.765625 10178.457031 1356.472656 C 10190.628906 1335.941406 10213.210938 1323.308594 10237.074219 1323.246094 C 10262.242188 1322.425781 10286.140625 1335.757812 10298.527344 1357.5625 C 10300.207031 1360.625 10302.46875 1361.796875 10305.804688 1361.589844 C 10307.960938 1361.453125 10310.132812 1361.574219 10312.296875 1361.570312 C 10320.128906 1361.5625 10327.957031 1361.542969 10335.785156 1361.542969 C 10406.238281 1361.394531 10476.714844 1361.828125 10547.160156 1361.382812 C 10549.585938 1361.164062 10549.199219 1358.269531 10549.277344 1356.476562 C 10548.890625 1249.347656 10549.175781 1142.214844 10549.011719 1035.085938 C 10549.011719 1033.585938 10549.050781 1032.082031 10548.929688 1030.589844 C 10548.621094 1023.917969 10542.710938 1019.753906 10536.457031 1019.160156 C 10531.65625 1018.550781 10526.835938 1018.300781 10522.003906 1018.28125 C 10457.039062 1017.898438 10392.074219 1017.800781 10327.109375 1017.878906 M 10327.636719 1003.40625 C 10398.585938 1003.792969 10469.609375 1002.644531 10540.527344 1003.835938 C 10559.511719 1006.695312 10565.363281 1022.0625 10564.152344 1039.550781 C 10563.679688 1050.046875 10564.023438 1060.542969 10564.261719 1071.039062 C 10564.285156 1072.035156 10564.378906 1073.03125 10564.488281 1074.023438 C 10564.644531 1075.390625 10565.53125 1076.074219 10566.808594 1076.226562 C 10609.941406 1076.617188 10653.105469 1076.054688 10696.246094 1076.328125 C 10700.097656 1076.390625 10703.898438 1076.917969 10707.546875 1078.164062 C 10714.1875 1080.433594 10719.761719 1084.226562 10723.820312 1090.039062 C 10725.25 1092.085938 10726.664062 1094.15625 10727.9375 1096.300781 C 10749.09375 1132.363281 10770.589844 1168.21875 10791.953125 1204.15625 C 10796.503906 1211.796875 10798.558594 1220.015625 10798.445312 1228.941406 C 10797.867188 1275.761719 10798.394531 1322.585938 10798.371094 1369.410156 C 10798.371094 1371.40625 10798.410156 1373.417969 10798.222656 1375.402344 C 10797.535156 1385.167969 10790.09375 1394.664062 10780.042969 1395.710938 C 10776.894531 1395.984375 10773.730469 1396.226562 10770.570312 1396.238281 C 10753.417969 1396.464844 10736.242188 1395.84375 10719.101562 1396.613281 C 10716.132812 1396.804688 10715.347656 1397.589844 10714.859375 1400.527344 C 10713.195312 1423.339844 10699.648438 1443.816406 10679.820312 1455.042969 C 10664.730469 1463.710938 10646.960938 1465.667969 10629.964844 1462.519531 C 10601.414062 1456.78125 10578.730469 1432.121094 10575.617188 1403.128906 C 10574.683594 1395.164062 10574.546875 1387.171875 10576.222656 1379.242188 C 10576.648438 1377.214844 10576.070312 1376.402344 10574.105469 1376.085938 C 10572.632812 1375.851562 10571.125 1375.75 10569.632812 1375.746094 C 10483.667969 1375.574219 10397.703125 1375.117188 10311.742188 1375.828125 C 10309.8125 1375.949219 10306.464844 1375.515625 10306.746094 1378.308594 C 10318.179688 1433.71875 10267.636719 1477.433594 10214.261719 1460.144531 C 10181.304688 1447.894531 10162.425781 1413.621094 10169.242188 1379.097656 C 10169.402344 1376.765625 10168.929688 1376.1875 10166.496094 1375.925781 C 10151.023438 1375.484375 10135.511719 1375.804688 10120.023438 1375.671875 C 10116.511719 1375.671875 10113.074219 1375.332031 10109.648438 1374.4375 C 10100.335938 1372.003906 10092.0625 1361.925781 10091.628906 1352.664062 C 10091.386719 1347.492188 10091.527344 1342.351562 10091.613281 1337.191406 C 10092.007812 1314.035156 10092.445312 1290.875 10092.554688 1267.714844 C 10092.417969 1191.910156 10093.402344 1116.058594 10092.199219 1040.269531 C 10091.914062 1035.953125 10091.761719 1031.609375 10091.917969 1027.289062 C 10092.273438 1017.410156 10099.4375 1008.339844 10108.894531 1005.378906 C 10111.621094 1004.527344 10114.402344 1004.105469 10117.234375 1003.878906 C 10187.335938 1002.578125 10257.511719 1003.808594 10327.636719 1003.398438 Z M 10327.636719 1003.40625 "/>
<path style="fill:none;stroke-width:7;stroke-linecap:butt;stroke-linejoin:miter;stroke:rgb(27.842712%,14.509583%,1.960754%);stroke-opacity:1;stroke-miterlimit:10;" d="M 0.0010125 0.0014625 L -0.0888312 0.0014625 C -0.0888312 6.825681 -0.084925 13.653806 -0.0927375 20.481931 C -0.0888312 22.36865 0.0205438 24.989744 -2.323206 25.438962 C -6.217737 26.2749 -10.311487 25.540525 -14.237269 25.251462 C -19.014612 24.653806 -21.307581 22.161619 -21.471644 17.278806 C -21.827112 6.794431 -22.221644 -3.69385 -21.6943 -14.182131 C -21.686487 -25.428225 -15.768519 -25.904788 -6.245081 -25.791506 C -0.448206 -25.717288 0.0010125 -25.213381 0.0010125 -19.479006 Z M -547.674769 -134.303225 C -515.182581 -134.541506 -491.174769 -109.689944 -490.4443 -78.908694 C -491.498987 -3.869631 -600.155237 -2.330569 -603.116175 -77.334475 C -603.635706 -110.057131 -577.358362 -134.170413 -547.674769 -134.303225 Z M -140.776331 -134.2876 C -107.834925 -134.627444 -84.147425 -108.447756 -83.456019 -79.572756 C -84.022425 -4.1001 -193.147425 -1.873538 -196.315394 -77.334475 C -197.049769 -108.025881 -171.3818 -134.346194 -140.776331 -134.2876 Z M -221.303675 89.595212 L -221.213831 89.595212 C -221.143519 45.110837 -221.436487 0.583494 -220.510706 -43.877444 C -220.35055 -44.990725 -219.565394 -45.709475 -218.471644 -45.736819 C -213.979456 -45.854006 -209.483362 -45.904788 -204.987269 -45.936038 C -202.397425 -46.021975 -201.370081 -43.229006 -200.120081 -41.420413 C -183.452112 -12.229006 -146.635706 -1.19385 -117.655237 -11.010256 C -93.936487 -18.729006 -76.041956 -39.791506 -70.909144 -64.045413 C -70.022425 -67.057131 -69.795862 -67.303225 -66.858362 -67.486819 C -63.866175 -67.674319 -60.866175 -67.822756 -57.870081 -67.814944 C -41.721644 -67.592288 -25.526331 -68.045413 -9.397425 -67.3501 C -4.416956 -66.799319 -0.780237 -62.377444 -0.202112 -57.533694 C 0.512731 -52.377444 -0.241175 -47.221194 -0.186487 -42.064944 C -0.16305 -40.033694 -1.182581 -39.1001 -3.3193 -38.9126 C -8.6318 -38.502444 -13.979456 -38.986819 -19.276331 -38.182131 C -26.72555 -37.080569 -32.5693 -31.014163 -34.120081 -23.783694 C -34.834925 -20.846194 -34.948206 -17.861819 -34.948206 -14.8501 C -34.956019 -4.018069 -35.002894 6.813962 -35.065394 17.645994 C -35.135706 29.634275 -26.596644 37.372556 -17.991175 38.55615 C -13.217737 39.489744 -8.385706 39.2749 -3.553675 39.353025 C 0.0010125 39.251462 0.008825 42.419431 -0.022425 45.247556 C -0.0927375 59.415525 -0.241175 73.579587 -0.213831 87.74365 C -0.202112 92.8999 -1.409144 97.634275 -3.948206 102.063962 C -22.077112 133.145994 -40.639612 163.974119 -58.924769 194.9624 C -62.66305 201.267087 -66.303675 207.630369 -70.0693 213.919431 C -74.213831 220.845212 -80.245081 224.7749 -88.428675 225.079587 C -114.897425 226.298337 -141.401331 225.630369 -167.889612 225.790525 C -184.545862 225.610837 -201.229456 226.321775 -217.854456 225.1499 C -220.713831 225.091306 -221.159144 223.044431 -221.088831 220.5874 C -221.596644 176.927244 -221.174769 133.259275 -221.303675 89.595212 Z M -457.897425 297.708494 L -457.897425 297.849119 C -521.6943 297.614744 -585.491175 297.317869 -649.28805 297.481931 C -655.120081 297.481931 -660.959925 297.259275 -666.729456 296.392087 C -675.198206 295.122556 -678.713831 290.903806 -678.768519 283.153806 C -679.409144 177.540525 -679.166956 71.872556 -678.643519 -33.736819 C -678.686487 -40.619631 -673.018519 -45.854006 -666.608362 -45.869631 C -649.623987 -46.119631 -632.6318 -45.959475 -615.639612 -46.002444 C -609.604456 -45.994631 -609.823206 -46.178225 -606.549769 -40.885256 C -594.377894 -20.354006 -571.795862 -7.721194 -547.932581 -7.658694 C -522.764612 -6.838381 -498.866175 -20.170413 -486.479456 -41.9751 C -484.799769 -45.0376 -482.53805 -46.209475 -479.202112 -46.002444 C -477.045862 -45.865725 -474.873987 -45.986819 -472.709925 -45.982913 C -464.877894 -45.9751 -457.049769 -45.955569 -449.221644 -45.955569 C -378.768519 -45.807131 -308.291956 -46.240725 -237.846644 -45.795413 C -235.420862 -45.576663 -235.807581 -42.682131 -235.729456 -40.889163 C -236.116175 66.239744 -235.831019 173.372556 -235.995081 280.501462 C -235.995081 282.001462 -235.956019 283.505369 -236.077112 284.997556 C -236.385706 291.669431 -242.295862 295.833494 -248.549769 296.427244 C -253.35055 297.036619 -258.170862 297.286619 -263.002894 297.30615 C -327.967737 297.688962 -392.932581 297.786619 -457.897425 297.708494 Z M -457.370081 312.18115 C -386.420862 311.794431 -315.397425 312.942869 -244.479456 311.751462 C -225.495081 308.892087 -219.643519 293.5249 -220.854456 276.036619 C -221.327112 265.540525 -220.983362 255.044431 -220.745081 244.548337 C -220.721644 243.552244 -220.627894 242.55615 -220.518519 241.563962 C -220.362269 240.196775 -219.47555 239.513181 -218.198206 239.360837 C -175.065394 238.970212 -131.901331 239.532712 -88.760706 239.259275 C -84.909144 239.196775 -81.108362 238.669431 -77.459925 237.423337 C -70.8193 235.153806 -65.245081 231.360837 -61.186487 225.548337 C -59.7568 223.501462 -58.342737 221.43115 -57.0693 219.286619 C -35.91305 183.224119 -14.416956 147.36865 6.946325 111.43115 C 11.497106 103.790525 13.551794 95.571775 13.438513 86.645994 C 12.860388 39.825681 13.387731 -6.998538 13.364294 -53.822756 C 13.364294 -55.81885 13.403356 -57.830569 13.215856 -59.814944 C 12.528356 -69.580569 5.08695 -79.076663 -4.963831 -80.123538 C -8.112269 -80.396975 -11.276331 -80.639163 -14.436487 -80.650881 C -31.588831 -80.877444 -48.764612 -80.25635 -65.905237 -81.025881 C -68.873987 -81.217288 -69.659144 -82.002444 -70.147425 -84.939944 C -71.811487 -107.752444 -85.358362 -128.229006 -105.186487 -139.455569 C -120.276331 -148.123538 -138.045862 -150.080569 -155.041956 -146.932131 C -183.592737 -141.19385 -206.276331 -116.533694 -209.389612 -87.541506 C -210.323206 -79.576663 -210.459925 -71.584475 -208.784144 -63.654788 C -208.358362 -61.627444 -208.936487 -60.814944 -210.901331 -60.498538 C -212.373987 -60.264163 -213.8818 -60.1626 -215.373987 -60.158694 C -301.338831 -59.986819 -387.303675 -59.529788 -473.264612 -60.240725 C -475.1943 -60.361819 -478.541956 -59.928225 -478.260706 -62.721194 C -466.827112 -118.13135 -517.370081 -161.846194 -570.745081 -144.557131 C -603.702112 -132.307131 -622.581019 -98.033694 -615.764612 -63.510256 C -615.604456 -61.178225 -616.077112 -60.6001 -618.510706 -60.338381 C -633.983362 -59.896975 -649.495081 -60.217288 -664.983362 -60.084475 C -668.495081 -60.084475 -671.932581 -59.744631 -675.358362 -58.8501 C -684.670862 -56.416506 -692.9443 -46.338381 -693.377894 -37.076663 C -693.620081 -31.904788 -693.479456 -26.764163 -693.393519 -21.604006 C -692.998987 1.552244 -692.561487 24.7124 -692.452112 47.872556 C -692.588831 123.677244 -691.604456 199.528806 -692.807581 275.317869 C -693.092737 279.634275 -693.245081 283.978025 -693.088831 288.298337 C -692.733362 298.177244 -685.5693 307.247556 -676.112269 310.208494 C -673.385706 311.060056 -670.604456 311.481931 -667.772425 311.708494 C -597.670862 313.009275 -527.495081 311.778806 -457.370081 312.188962 Z M -457.370081 312.18115 " transform="matrix(1,0,0,-1,10785.0068,1315.5874)"/>
<path style=" stroke:none;fill-rule:nonzero;fill:rgb(27.842712%,14.509583%,1.960754%);fill-opacity:1;" d="M 10672.257812 1213.527344 L 10672.257812 1213.574219 C 10687.410156 1213.574219 10702.5625 1213.574219 10717.710938 1213.570312 C 10721.707031 1213.570312 10725.703125 1213.601562 10729.695312 1213.53125 C 10731.941406 1213.484375 10735.828125 1212.941406 10734.582031 1209.792969 C 10722.265625 1188.089844 10709.015625 1166.898438 10696.339844 1145.394531 C 10693.316406 1140.597656 10690.410156 1134.390625 10683.832031 1134.515625 C 10661.535156 1133.726562 10639.222656 1133.5625 10616.921875 1134.542969 C 10613.535156 1134.480469 10610.367188 1135.621094 10610.152344 1139.496094 C 10610.011719 1162.140625 10610.191406 1184.792969 10610.167969 1207.441406 C 10610.117188 1209.816406 10610.300781 1213.15625 10613.328125 1213.3125 C 10632.953125 1213.863281 10652.621094 1213.367188 10672.257812 1213.527344 M 10672.296875 1227.382812 C 10653.644531 1227.382812 10634.988281 1227.378906 10616.332031 1227.386719 C 10614.164062 1227.386719 10612.023438 1227.324219 10609.878906 1226.847656 C 10600.609375 1225.066406 10595.871094 1216.304688 10596.03125 1207.433594 C 10596.082031 1185.441406 10596.097656 1163.449219 10596.085938 1141.457031 C 10596.082031 1139.101562 10596.460938 1136.820312 10596.859375 1134.523438 C 10598.554688 1123.027344 10610.269531 1120.292969 10620.179688 1120.671875 C 10641 1120.785156 10661.820312 1121.003906 10682.640625 1120.746094 C 10689.523438 1120.515625 10696.046875 1122.175781 10700.671875 1127.578125 C 10702.796875 1129.9375 10704.6875 1132.460938 10706.308594 1135.195312 C 10719.070312 1156.671875 10731.84375 1178.140625 10744.609375 1199.613281 C 10745.289062 1200.757812 10745.929688 1201.925781 10746.578125 1203.089844 C 10748.253906 1206.105469 10748.742188 1209.332031 10748.4375 1212.746094 C 10747.777344 1220.132812 10743.503906 1224.984375 10736.203125 1226.605469 C 10733.582031 1227.1875 10730.9375 1227.328125 10728.265625 1227.328125 C 10709.609375 1227.316406 10690.953125 1227.320312 10672.296875 1227.320312 Z M 10672.296875 1227.382812 "/>
<path style="fill:none;stroke-width:7;stroke-linecap:butt;stroke-linejoin:miter;stroke:rgb(27.842712%,14.509583%,1.960754%);stroke-opacity:1;stroke-miterlimit:10;" d="M 0.0000125 0.00145625 L 0.0000125 -0.0454187 C 15.152356 -0.0454187 30.3047 -0.0454187 45.453138 -0.0415125 C 49.449231 -0.0415125 53.445325 -0.0727625 57.437513 -0.00245 C 59.683606 0.044425 63.570325 0.587394 62.324231 3.735831 C 50.007825 25.438956 36.757825 46.630363 24.082044 68.134269 C 21.058606 72.931144 18.152356 79.138175 11.574231 79.013175 C -10.722644 79.802238 -33.035144 79.9663 -55.335925 78.985831 C -58.722644 79.048331 -61.890612 77.907706 -62.105456 74.032706 C -62.246081 51.388175 -62.066394 28.735831 -62.089831 6.087394 C -62.140612 3.712394 -61.957019 0.37255 -58.929675 0.2163 C -39.304675 -0.334481 -19.636706 0.161613 0.0000125 0.00145625 Z M 0.039075 -13.854012 C -18.613269 -13.854012 -37.269519 -13.850106 -55.925769 -13.857919 C -58.093737 -13.857919 -60.234362 -13.795419 -62.378894 -13.318856 C -71.648425 -11.537606 -76.386706 -2.775887 -76.22655 6.095206 C -76.175769 28.087394 -76.160144 50.079581 -76.171862 72.071769 C -76.175769 74.427238 -75.796862 76.708488 -75.398425 79.005363 C -73.703112 90.501456 -61.988269 93.235831 -52.078112 92.856925 C -31.2578 92.743644 -10.437487 92.524894 10.382825 92.782706 C 17.265638 93.013175 23.789075 91.353019 28.414075 85.950675 C 30.539075 83.5913 32.4297 81.067863 34.050794 78.333488 C 46.812513 56.856925 59.58595 35.388175 72.351575 13.915519 C 73.031263 12.770988 73.671888 11.603019 74.320325 10.438956 C 75.996106 7.423331 76.484388 4.196769 76.1797 0.782706 C 75.519544 -6.604012 71.246106 -11.455575 63.945325 -13.076669 C 61.324231 -13.6587 58.6797 -13.799325 56.007825 -13.799325 C 37.351575 -13.787606 18.695325 -13.791512 0.039075 -13.791512 Z M 0.039075 -13.854012 " transform="matrix(1,0,0,-1,10672.2578,1213.5288)"/>
<path style="fill-rule:nonzero;fill:rgb(27.842712%,14.509583%,1.960754%);fill-opacity:1;stroke-width:7;stroke-linecap:butt;stroke-linejoin:miter;stroke:rgb(27.842712%,14.509583%,1.960754%);stroke-opacity:1;stroke-miterlimit:10;" d="M -0.0009625 -0.00049375 C 3.655288 -0.00049375 7.311538 -0.00830625 10.967788 0.0034125 C 12.471694 0.00731875 13.948256 -0.102056 15.389663 -0.59815 C 18.311538 -1.59815 20.104506 -3.977056 20.124038 -6.918463 C 20.088881 -11.184088 15.991225 -13.801275 11.858413 -13.78565 C 3.7256 -14.203619 -4.415025 -14.199713 -12.55565 -13.898931 C -16.915025 -13.801275 -20.657212 -11.836431 -20.49315 -6.980963 C -20.770494 -1.625494 -15.99315 -0.211431 -11.4619 -0.152838 C -7.645494 -0.0708063 -3.821275 -0.125494 -0.0009625 -0.125494 Z M -0.0009625 -0.00049375 " transform="matrix(1,0,0,-1,10631.3369,1279.9331)"/>
<path style=" stroke:none;fill-rule:nonzero;fill:rgb(27.842712%,14.509583%,1.960754%);fill-opacity:1;" d="M 10645.457031 1411.496094 C 10657.457031 1411.261719 10663.058594 1401.382812 10662.980469 1393.460938 C 10662.894531 1384.457031 10655.589844 1375.953125 10644.910156 1375.726562 C 10635.179688 1375.519531 10626.5625 1384.449219 10626.648438 1393.925781 C 10626.734375 1403.234375 10635.699219 1411.609375 10645.457031 1411.496094 M 10644.667969 1424.902344 C 10626.011719 1425.945312 10611.707031 1408.199219 10613.304688 1391.226562 C 10615.285156 1370.109375 10632.246094 1360.726562 10647.703125 1361.855469 C 10678.367188 1363.929688 10687.863281 1406.65625 10660.125 1421.625 C 10655.460938 1424.496094 10649.960938 1424.53125 10644.667969 1424.902344 "/>
<path style="fill:none;stroke-width:7;stroke-linecap:butt;stroke-linejoin:miter;stroke:rgb(27.842712%,14.509583%,1.960754%);stroke-opacity:1;stroke-miterlimit:10;" d="M -0.00096875 0.00190625 C 11.999031 0.236281 17.600594 10.115187 17.522469 18.037062 C 17.436531 27.040969 10.131844 35.544875 -0.547844 35.771437 C -10.278312 35.978469 -18.8955 27.048781 -18.809562 17.572219 C -18.723625 8.263625 -9.758781 -0.111375 -0.00096875 0.00190625 Z M -0.790031 -13.404344 C -19.446281 -14.447313 -33.750969 3.298781 -32.153312 20.271437 C -30.172844 41.388625 -13.211906 50.771437 2.245125 49.642531 C 32.909188 47.568312 42.405281 4.84175 14.667 -10.127 C 10.002938 -12.998094 4.502938 -13.03325 -0.790031 -13.404344 Z M -0.790031 -13.404344 " transform="matrix(1,0,0,-1,10645.458,1411.498)"/>
<path style=" stroke:none;fill-rule:nonzero;fill:rgb(27.842712%,14.509583%,1.960754%);fill-opacity:1;" d="M 10220.394531 1393.742188 C 10220.09375 1404.859375 10229.667969 1411.488281 10238.019531 1411.457031 C 10261.195312 1411.578125 10262.855469 1376.589844 10237.730469 1375.75 C 10230.347656 1375.71875 10219.878906 1381.535156 10220.394531 1393.742188 M 10269.710938 1393.851562 C 10269.792969 1410.054688 10257.164062 1425.355469 10238.257812 1425.1875 C 10194.707031 1423.808594 10197.542969 1361.875 10238.761719 1361.75 C 10256.617188 1361.824219 10270.445312 1378.015625 10269.710938 1393.851562 "/>
<path style="fill:none;stroke-width:7;stroke-linecap:butt;stroke-linejoin:miter;stroke:rgb(27.842712%,14.509583%,1.960754%);stroke-opacity:1;stroke-miterlimit:10;" d="M -0.00096875 0.0015125 C -0.30175 -11.115675 9.272469 -17.744581 17.624031 -17.713331 C 40.799813 -17.834425 42.459969 17.153856 17.334969 17.9937 C 9.952156 18.02495 -0.516594 12.208544 -0.00096875 0.0015125 Z M 49.315438 -0.107863 C 49.397469 -16.310988 36.768563 -31.611769 17.862313 -31.4438 C -25.688469 -30.064894 -22.852531 31.8687 18.366219 31.9937 C 36.221688 31.919481 50.049813 15.728075 49.315438 -0.107863 Z M 49.315438 -0.107863 " transform="matrix(1,0,0,-1,10220.3955,1393.7437)"/>
</svg>
