<?xml version="1.0" encoding="UTF-8"?>
<svg xmlns="http://www.w3.org/2000/svg" width="256" height="256" viewBox="578.74 3262.74 767.52 767.52" preserveAspectRatio="xMidYMid meet">
<path style=" stroke:none;fill-rule:nonzero;fill:rgb(27.842712%,14.509583%,1.960754%);fill-opacity:1;" d="M 907.820312 3600.109375 C 907.820312 3600.132812 907.820312 3600.160156 907.820312 3600.183594 C 902.003906 3600.183594 896.191406 3600.113281 890.378906 3600.214844 C 887.960938 3600.257812 887.289062 3600.90625 887.199219 3603.113281 C 887.015625 3607.757812 886.90625 3612.414062 887.375 3617.050781 C 887.632812 3619.570312 888.4375 3621.917969 889.960938 3623.972656 C 892.570312 3627.476562 895.9375 3629.605469 900.394531 3629.996094 C 908.199219 3630.679688 916.003906 3630.234375 923.8125 3630.128906 C 927.578125 3630.253906 927.453125 3628.703125 927.550781 3625.238281 C 927.539062 3618.09375 927.265625 3610.957031 927.628906 3603.8125 C 927.789062 3600.738281 927.082031 3600.160156 923.769531 3600.125 C 918.453125 3600.070312 913.136719 3600.109375 907.820312 3600.109375 M 1021.136719 3599.980469 L 1021.136719 3600.050781 C 1015.820312 3600.050781 1010.5 3599.976562 1005.183594 3600.074219 C 1000.464844 3600.15625 1000.050781 3600.648438 999.957031 3605.230469 C 1000.136719 3612.859375 999.703125 3620.527344 1000.273438 3628.136719 C 1000.496094 3630.335938 1003.039062 3630.175781 1004.71875 3630.246094 C 1010.367188 3630.316406 1016.019531 3630.457031 1021.667969 3630.390625 C 1029.859375 3630.578125 1038.515625 3628.046875 1040.191406 3618.929688 C 1041.316406 3613.351562 1040.6875 3607.671875 1040.554688 3602.035156 C 1040.402344 3599.625 1037.316406 3600.113281 1035.597656 3599.988281 C 1030.777344 3599.972656 1025.957031 3599.980469 1021.136719 3599.980469 M 963.707031 3630.230469 C 963.707031 3630.257812 963.707031 3630.289062 963.707031 3630.316406 C 968.539062 3630.316406 973.371094 3630.320312 978.203125 3630.316406 C 984.40625 3630.308594 984.417969 3630.296875 984.425781 3624.332031 C 984.433594 3618.171875 984.433594 3612.007812 984.429688 3605.84375 C 984.375 3603.386719 985.003906 3600.136719 981.589844 3600.027344 C 969.609375 3599.910156 957.59375 3599.996094 945.613281 3600.214844 C 942.707031 3600.304688 943.554688 3603.945312 943.378906 3605.964844 C 943.363281 3611.964844 943.359375 3617.960938 943.367188 3623.957031 C 943.566406 3626.265625 942.601562 3630.066406 945.722656 3630.121094 C 951.707031 3630.378906 957.714844 3630.167969 963.707031 3630.230469 M 963.933594 3583.445312 L 963.933594 3583.511719 C 988.570312 3583.425781 1013.222656 3583.675781 1037.855469 3583.417969 C 1039.832031 3583.253906 1040.535156 3582.628906 1040.558594 3580.578125 C 1040.632812 3574.585938 1040.609375 3568.59375 1040.550781 3562.605469 C 1040.535156 3561.078125 1039.945312 3560.445312 1038.4375 3560.363281 C 989 3559.777344 939.535156 3559.957031 890.097656 3560.386719 C 888.023438 3560.507812 887.363281 3561.042969 887.289062 3563.09375 C 887.113281 3567.75 886.992188 3572.410156 887.050781 3577.070312 C 887.128906 3583.417969 887.210938 3583.4375 893.5 3583.441406 C 916.976562 3583.453125 940.453125 3583.445312 963.933594 3583.445312 M 963.972656 3705.46875 C 1056.292969 3705.472656 1148.617188 3705.425781 1240.941406 3705.449219 C 1244.289062 3705.449219 1247.621094 3705.261719 1250.816406 3704.222656 C 1260.410156 3701.101562 1268.398438 3691.324219 1268.320312 3680.488281 C 1268.199219 3648.667969 1268.207031 3616.835938 1268.277344 3585.023438 C 1268.574219 3573.28125 1257.738281 3560.085938 1243.796875 3560.371094 C 1238.632812 3560.476562 1233.464844 3560.238281 1228.296875 3560.234375 C 1172.804688 3560.234375 1117.3125 3560.167969 1061.816406 3560.28125 C 1056.414062 3560.296875 1056.207031 3560.574219 1056.234375 3565.945312 C 1056.296875 3582.273438 1056.484375 3598.597656 1056.390625 3614.925781 C 1056.945312 3630.636719 1045.789062 3644.433594 1029.871094 3645.867188 C 1027.0625 3646.167969 1024.222656 3646.320312 1021.394531 3646.332031 C 982.734375 3646.171875 944.074219 3646.382812 905.410156 3646.4375 C 891.777344 3646.957031 878.875 3640.726562 873.757812 3627.558594 C 872.058594 3623.503906 871.433594 3619.253906 871.421875 3614.871094 C 871.394531 3598.375 871.320312 3581.882812 871.265625 3565.386719 C 871.179688 3563.59375 871.867188 3560.628906 869.3125 3560.460938 C 820.664062 3559.945312 771.992188 3560.355469 723.335938 3560.191406 C 710.839844 3560.1875 698.34375 3560.277344 685.84375 3560.359375 C 672.464844 3559.726562 660.5 3569.527344 659.667969 3583.136719 C 659.078125 3615.929688 659.253906 3648.789062 659.601562 3681.589844 C 659.8125 3694.25 670.855469 3704.253906 682.015625 3705.175781 C 775.980469 3705.988281 869.992188 3705.207031 963.972656 3705.46875 M 964.203125 3717.441406 L 673.203125 3717.441406 C 667.589844 3718.355469 663.234375 3715.765625 659.164062 3712.390625 C 648.941406 3703.90625 643.609375 3693.054688 643.496094 3679.734375 C 643.261719 3649.078125 643.488281 3618.417969 643.441406 3587.757812 C 643.441406 3584.578125 643.765625 3581.449219 644.214844 3578.308594 C 646.773438 3560.40625 662.332031 3545.324219 681.816406 3543.933594 C 738.125 3543.074219 794.484375 3543.847656 850.804688 3543.578125 C 979.972656 3543.574219 1109.136719 3543.519531 1238.300781 3543.628906 C 1258.261719 3542.324219 1276.542969 3553.949219 1282.351562 3573.347656 C 1283.519531 3576.867188 1283.839844 3580.511719 1283.835938 3584.195312 C 1283.714844 3617.019531 1283.945312 3649.847656 1283.769531 3682.671875 C 1283.136719 3697.5625 1275.921875 3708.449219 1263.398438 3716.125 C 1261.917969 3717.03125 1260.429688 3717.527344 1258.699219 3717.453125 C 1160.535156 3717.4375 1062.367188 3717.453125 964.203125 3717.449219 Z M 964.203125 3717.441406 "/>
<path style="fill:none;stroke-width:7;stroke-linecap:butt;stroke-linejoin:miter;stroke:rgb(27.842712%,14.509583%,1.960754%);stroke-opacity:1;stroke-miterlimit:10;" d="M 0.0005125 0.000025 C 0.0005125 -0.0234125 0.0005125 -0.0507563 0.0005125 -0.0741938 C -5.815894 -0.0741938 -11.628394 -0.00388125 -17.440894 -0.105444 C -19.858862 -0.148413 -20.530737 -0.79685 -20.620581 -3.003881 C -20.804175 -7.648413 -20.91355 -12.304663 -20.4448 -16.941381 C -20.186987 -19.460913 -19.3823 -21.808569 -17.858862 -23.863256 C -15.249487 -27.367163 -11.8823 -29.496069 -7.425269 -29.886694 C 0.379419 -30.570288 8.184106 -30.124975 15.9927 -30.019506 C 19.758325 -30.144506 19.633325 -28.593725 19.730981 -25.128881 C 19.719263 -17.98435 19.445825 -10.847631 19.809106 -3.7031 C 19.969263 -0.628881 19.262231 -0.0507563 15.949731 -0.0156 C 10.633325 0.0390875 5.316919 0.000025 0.0005125 0.000025 Z M 113.316919 0.128931 L 113.316919 0.0586187 C 108.000513 0.0586187 102.6802 0.132837 97.363794 0.0351812 C 92.645044 -0.04685 92.230981 -0.539038 92.137231 -5.121069 C 92.316919 -12.749975 91.883325 -20.417944 92.453638 -28.027319 C 92.676294 -30.226538 95.219263 -30.066381 96.89895 -30.136694 C 102.547388 -30.207006 108.199731 -30.347631 113.848169 -30.281225 C 122.039575 -30.468725 130.695825 -27.937475 132.371606 -18.820288 C 133.496606 -13.242163 132.8677 -7.562475 132.734888 -1.925756 C 132.582544 0.4844 129.496606 -0.00388125 127.777856 0.121119 C 122.957544 0.136744 118.137231 0.128931 113.316919 0.128931 Z M 55.887231 -30.121069 C 55.887231 -30.148413 55.887231 -30.179663 55.887231 -30.207006 C 60.719263 -30.207006 65.551294 -30.210913 70.383325 -30.207006 C 76.58645 -30.199194 76.598169 -30.187475 76.605981 -24.222631 C 76.613794 -18.062475 76.613794 -11.898413 76.609888 -5.73435 C 76.5552 -3.277319 77.184106 -0.0273188 73.770044 0.0820562 C 61.789575 0.199244 49.77395 0.113306 37.793481 -0.105444 C 34.887231 -0.195288 35.734888 -3.835913 35.559106 -5.855444 C 35.543481 -11.855444 35.539575 -17.851538 35.547388 -23.847631 C 35.746606 -26.156225 34.781763 -29.957006 37.902856 -30.011694 C 43.887231 -30.269506 49.895044 -30.058569 55.887231 -30.121069 Z M 56.113794 16.664087 L 56.113794 16.597681 C 80.750513 16.683619 105.402856 16.433619 130.035669 16.691431 C 132.012231 16.855494 132.715356 17.480494 132.738794 19.531275 C 132.813013 25.523462 132.789575 31.51565 132.730981 37.503931 C 132.715356 39.031275 132.125513 39.664087 130.6177 39.746119 C 81.1802 40.332056 31.715356 40.152369 -17.722144 39.722681 C -19.796362 39.601587 -20.456519 39.066431 -20.530737 37.01565 C -20.706519 32.3594 -20.827612 27.699244 -20.769019 23.039087 C -20.690894 16.691431 -20.608862 16.6719 -14.3198 16.667994 C 9.156763 16.656275 32.633325 16.664087 56.113794 16.664087 Z M 56.152856 -105.35935 C 148.473169 -105.363256 240.797388 -105.316381 333.121606 -105.339819 C 336.469263 -105.339819 339.801294 -105.152319 342.996606 -104.113256 C 352.590356 -100.992163 360.578638 -91.214819 360.500513 -80.378881 C 360.379419 -48.558569 360.387231 -16.726538 360.457544 15.085962 C 360.754419 26.82815 349.918481 40.023462 335.977075 39.738306 C 330.813013 39.632837 325.645044 39.871119 320.477075 39.875025 C 264.984888 39.875025 209.4927 39.941431 153.996606 39.82815 C 148.594263 39.812525 148.387231 39.535181 148.414575 34.164087 C 148.477075 17.835962 148.664575 1.511744 148.570825 -14.816381 C 149.125513 -30.527319 137.969263 -44.324194 122.051294 -45.757788 C 119.2427 -46.058569 116.402856 -46.210913 113.574731 -46.222631 C 74.914575 -46.062475 36.254419 -46.273413 -2.409644 -46.3281 C -16.042456 -46.847631 -28.9448 -40.617163 -34.061987 -27.449194 C -35.761206 -23.394506 -36.386206 -19.144506 -36.397925 -14.761694 C -36.425269 1.7344 -36.499487 18.226587 -36.554175 34.722681 C -36.640112 36.51565 -35.952612 39.480494 -38.5073 39.648462 C -87.155737 40.164087 -135.827612 39.753931 -184.483862 39.917994 C -196.979956 39.9219 -209.47605 39.832056 -221.97605 39.750025 C -235.354956 40.382837 -247.3198 30.582056 -248.151831 16.972681 C -248.741675 -15.820288 -248.565894 -48.679663 -248.218237 -81.480444 C -248.0073 -94.1406 -236.964331 -104.144506 -225.804175 -105.066381 C -131.839331 -105.878881 -37.827612 -105.097631 56.152856 -105.35935 Z M 56.383325 -117.332006 L -234.616675 -117.332006 C -240.229956 -118.246069 -244.585425 -115.656225 -248.655737 -112.281225 C -258.878394 -103.79685 -264.210425 -92.945288 -264.323706 -79.624975 C -264.558081 -48.968725 -264.331519 -18.308569 -264.378394 12.351587 C -264.378394 15.531275 -264.054175 18.660181 -263.604956 21.800806 C -261.046362 39.70315 -245.487769 54.785181 -226.003394 56.175806 C -169.6948 57.035181 -113.335425 56.261744 -57.015112 56.531275 C 72.152856 56.535181 201.316919 56.589869 330.480981 56.480494 C 350.441919 57.785181 368.723169 46.160181 374.531763 26.761744 C 375.699731 23.242212 376.020044 19.597681 376.016138 15.914087 C 375.895044 -16.910131 376.125513 -49.738256 375.949731 -82.562475 C 375.316919 -97.4531 368.102075 -108.339819 355.578638 -116.0156 C 354.098169 -116.92185 352.609888 -117.417944 350.879419 -117.343725 C 252.715356 -117.3281 154.547388 -117.343725 56.383325 -117.339819 Z M 56.383325 -117.332006 " transform="matrix(1,0,0,-1,907.8198,3600.1094)"/>
<path style=" stroke:none;fill-rule:nonzero;fill:rgb(27.842712%,14.509583%,1.960754%);fill-opacity:1;" d="M 612 3745.429688 C 845.597656 3744.730469 1080.554688 3744.214844 1313.871094 3745.605469 C 1314.0625 3745.945312 1313.847656 3746.234375 1313.402344 3746.246094 C 1079.613281 3746.644531 845.8125 3746.25 612.023438 3746.386719 C 612.015625 3746.066406 612.007812 3745.75 612 3745.429688 "/>
<path style="fill:none;stroke-width:15;stroke-linecap:round;stroke-linejoin:round;stroke:rgb(27.842712%,14.509583%,1.960754%);stroke-opacity:1;stroke-miterlimit:10;" d="M 0.0002 0.0010125 C 233.597856 0.700231 468.554887 1.215856 701.871294 -0.174769 C 702.0627 -0.514613 701.847856 -0.803675 701.402544 -0.815394 C 467.613481 -1.213831 233.8127 -0.8193 0.0236375 -0.956019 C 0.015825 -0.635706 0.0080125 -0.3193 0.0002 0.0010125 Z M 0.0002 0.0010125 " transform="matrix(1,0,0,-1,611.9998,3745.4307)"/>
<path style=" stroke:none;fill-rule:nonzero;fill:rgb(27.842712%,14.509583%,1.960754%);fill-opacity:1;" d="M 1165.359375 3633.339844 L 1165.511719 3633.339844 C 1165.511719 3623.691406 1165.515625 3614.042969 1165.507812 3604.394531 C 1165.488281 3602.886719 1165.730469 3600.390625 1163.535156 3600.636719 C 1162.882812 3600.6875 1162.203125 3600.816406 1161.605469 3601.070312 C 1155.226562 3603.765625 1149.570312 3607.375 1145.421875 3613.132812 C 1131.253906 3631.992188 1141.003906 3659.636719 1163.210938 3665.234375 C 1165.726562 3665.859375 1165.300781 3662.878906 1165.355469 3661.289062 C 1165.363281 3651.972656 1165.359375 3642.65625 1165.359375 3633.339844 M 1181.027344 3633.070312 L 1181.058594 3633.070312 C 1181.058594 3642.226562 1181.066406 3651.382812 1181.058594 3660.535156 C 1181.050781 3665.359375 1181.390625 3666.570312 1186.902344 3664.105469 C 1198.25 3659.027344 1205.1875 3650.410156 1207.152344 3638.125 C 1209.988281 3621.886719 1199.753906 3606.101562 1184.378906 3600.90625 C 1180.53125 3599.445312 1181.070312 3603.589844 1181.027344 3606.105469 C 1181.023438 3615.09375 1181.027344 3624.082031 1181.027344 3633.070312 M 1172.675781 3682.496094 C 1110.949219 3682.457031 1104.652344 3593.328125 1165.78125 3583.660156 C 1212.421875 3576.1875 1241.753906 3632.421875 1211.285156 3665.984375 C 1201.730469 3677.261719 1187.332031 3682.992188 1172.675781 3682.496094 "/>
<path style="fill:none;stroke-width:7;stroke-linecap:butt;stroke-linejoin:miter;stroke:rgb(27.842712%,14.509583%,1.960754%);stroke-opacity:1;stroke-miterlimit:10;" d="M -0.001025 -0.00094375 L 0.151319 -0.00094375 C 0.151319 9.647494 0.155225 19.295931 0.147413 28.944369 C 0.127881 30.452181 0.370069 32.948275 -1.825244 32.702181 C -2.477587 32.6514 -3.157275 32.522494 -3.754931 32.268587 C -10.133837 29.573275 -15.790087 25.9639 -19.938525 20.206087 C -34.106494 1.346712 -24.356494 -26.297819 -2.149462 -31.895475 C 0.366163 -32.520475 -0.0596187 -29.540006 -0.00493125 -27.950163 C 0.00288125 -18.633756 -0.001025 -9.31735 -0.001025 -0.00094375 Z M 15.666944 0.268587 L 15.698194 0.268587 C 15.698194 -8.887663 15.706006 -18.043913 15.698194 -27.196256 C 15.690381 -32.020475 16.030225 -33.231413 21.541944 -30.766569 C 32.8896 -25.688444 39.8271 -17.071256 41.791944 -4.7861 C 44.627881 11.452181 34.393506 27.237337 19.018506 32.43265 C 15.17085 33.893587 15.709913 29.749056 15.666944 27.233431 C 15.663038 18.24515 15.666944 9.256869 15.666944 0.268587 Z M 7.315381 -49.157194 C -54.411181 -49.118131 -60.708056 40.010775 0.42085 49.678744 C 47.061475 57.1514 76.393506 0.917025 45.924756 -32.645475 C 36.370069 -43.922819 21.971631 -49.653288 7.315381 -49.157194 Z M 7.315381 -49.157194 " transform="matrix(1,0,0,-1,1165.3604,3633.3389)"/>
<path style=" stroke:none;fill-rule:nonzero;fill:rgb(27.842712%,14.509583%,1.960754%);fill-opacity:1;" d="M 762.625 3632.703125 L 762.757812 3632.703125 C 762.773438 3642.683594 762.738281 3652.671875 762.75 3662.652344 C 762.839844 3665.117188 763.484375 3665.59375 765.882812 3664.949219 C 767 3664.648438 768.09375 3664.226562 769.15625 3663.765625 C 777.515625 3660.148438 783.367188 3654.082031 786.738281 3645.628906 C 794.078125 3627.820312 784.429688 3605.757812 764.304688 3600.6875 C 762.453125 3600.601562 762.710938 3602.972656 762.632812 3604.25 C 762.621094 3613.730469 762.625 3623.21875 762.625 3632.703125 M 746.898438 3633.214844 L 746.925781 3633.214844 C 746.921875 3623.070312 746.957031 3612.929688 746.824219 3602.789062 C 746.796875 3601.058594 745.832031 3600.355469 744.222656 3600.773438 C 728.707031 3605.316406 718.550781 3621.578125 720.78125 3637.511719 C 722.59375 3650.773438 730.371094 3659.40625 742.363281 3664.601562 C 743.257812 3664.988281 744.285156 3665.125 745.265625 3665.238281 C 747.40625 3665.332031 746.722656 3662.035156 746.890625 3660.648438 C 746.902344 3651.503906 746.898438 3642.355469 746.898438 3633.214844 M 753.921875 3682.566406 C 714.023438 3683.394531 690.296875 3636.714844 713.515625 3604.59375 C 732.335938 3575.605469 778.855469 3575.839844 796.855469 3605.628906 C 819.078125 3638.703125 794.789062 3684.167969 753.921875 3682.566406 "/>
<path style="fill:none;stroke-width:7;stroke-linecap:butt;stroke-linejoin:miter;stroke:rgb(27.842712%,14.509583%,1.960754%);stroke-opacity:1;stroke-miterlimit:10;" d="M -0.0002 -0.001925 L 0.132613 -0.001925 C 0.148238 -9.982394 0.113081 -19.970675 0.1248 -29.951144 C 0.214644 -32.415987 0.859175 -32.89255 3.257613 -32.248019 C 4.3748 -31.947237 5.46855 -31.525362 6.53105 -31.064425 C 14.890425 -27.447237 20.741988 -21.380831 24.113081 -12.927706 C 31.452925 4.880888 21.804488 26.943388 1.679488 32.0137 C -0.172075 32.099638 0.0857375 29.728544 0.0076125 28.4512 C -0.00410625 18.970731 -0.0002 9.48245 -0.0002 -0.001925 Z M -15.726762 -0.513644 L -15.699419 -0.513644 C -15.703325 9.630888 -15.668169 19.771513 -15.800981 29.912138 C -15.828325 31.642606 -16.793169 32.345731 -18.402544 31.927763 C -33.918169 27.384794 -44.074419 11.123075 -41.84395 -4.810519 C -40.03145 -18.072237 -32.254106 -26.70505 -20.261919 -31.900362 C -19.367387 -32.287081 -18.340044 -32.4238 -17.359575 -32.537081 C -15.21895 -32.630831 -15.902544 -29.333956 -15.734575 -27.947237 C -15.722856 -18.802706 -15.726762 -9.654269 -15.726762 -0.513644 Z M -8.703325 -49.865206 C -48.601762 -50.693331 -72.328325 -4.013644 -49.109575 28.10745 C -30.289262 57.095731 16.230269 56.861356 34.230269 27.072294 C 56.452925 -6.001925 32.163863 -51.466769 -8.703325 -49.865206 Z M -8.703325 -49.865206 " transform="matrix(1,0,0,-1,762.6252,3632.7012)"/>
</svg>
