<?xml version="1.0" encoding="UTF-8"?>
<svg xmlns="http://www.w3.org/2000/svg" width="256" height="256" viewBox="2637.74 3204.24 847.54 847.54" preserveAspectRatio="xMidYMid meet">
<path style=" stroke:none;fill-rule:nonzero;fill:rgb(27.842712%,14.509583%,1.960754%);fill-opacity:1;" d="M 3136.992188 3576.390625 L 3136.992188 3576.472656 C 3126.511719 3576.472656 3116.035156 3576.464844 3105.554688 3576.480469 C 3104.058594 3576.484375 3102.539062 3576.464844 3101.078125 3576.710938 C 3098.625 3577.125 3097 3579.332031 3097.160156 3581.734375 C 3097.503906 3587.089844 3103.910156 3586.054688 3107.785156 3586.175781 C 3128.078125 3586.160156 3148.375 3586.066406 3168.667969 3586.128906 C 3175.839844 3586.152344 3174.957031 3585.628906 3175.054688 3579.394531 C 3175.1875 3576.113281 3172.316406 3576.507812 3169.929688 3576.398438 C 3158.949219 3576.386719 3147.972656 3576.390625 3136.992188 3576.390625 M 3137.367188 3681.972656 L 3137.367188 3681.953125 C 3147.847656 3681.953125 3158.324219 3681.953125 3168.800781 3681.953125 C 3175.132812 3681.957031 3175.144531 3681.984375 3175.132812 3675.574219 C 3175.128906 3673.230469 3174.523438 3672.539062 3172.222656 3672.453125 C 3148.464844 3672.589844 3124.632812 3672.066406 3100.894531 3672.632812 C 3098.730469 3673 3097.101562 3675.09375 3097.050781 3677.253906 C 3097.003906 3679.339844 3098.664062 3681.375 3100.960938 3681.75 C 3102.425781 3681.984375 3103.941406 3681.964844 3105.433594 3681.964844 C 3116.078125 3681.980469 3126.722656 3681.972656 3137.367188 3681.972656 M 3191.035156 3628.179688 C 3191.039062 3657.484375 3191.007812 3686.789062 3191.023438 3716.09375 C 3191.027344 3722.28125 3191.238281 3722.429688 3197.546875 3722.394531 C 3215.535156 3722.300781 3233.523438 3722.132812 3251.507812 3722.175781 C 3262.203125 3722.203125 3272.277344 3719.929688 3281.925781 3715.34375 C 3309.558594 3702.21875 3324.273438 3674.371094 3324.269531 3649.546875 C 3324.269531 3635.5625 3324.230469 3621.574219 3324.167969 3607.589844 C 3323.476562 3573.730469 3297.886719 3542.460938 3264.324219 3536.425781 C 3257.726562 3535.265625 3251.085938 3534.789062 3244.4375 3534.738281 C 3228.449219 3534.609375 3212.460938 3534.722656 3196.472656 3534.804688 C 3191.519531 3534.828125 3191.042969 3535.367188 3191.042969 3540.261719 C 3191.03125 3569.570312 3191.039062 3598.875 3191.035156 3628.179688 M 3380.132812 3619.632812 C 3391.628906 3619.632812 3403.128906 3619.628906 3414.625 3619.640625 C 3415.957031 3619.640625 3417.3125 3619.585938 3418.617188 3619.804688 C 3422.300781 3620.425781 3425.164062 3623.800781 3425.277344 3627.488281 C 3425.402344 3631.59375 3422.105469 3635.519531 3418.726562 3635.746094 C 3393.449219 3637.03125 3368.070312 3635.460938 3342.769531 3636.320312 C 3341.003906 3636.421875 3340.316406 3637.074219 3340.125 3638.71875 C 3339.929688 3640.367188 3339.925781 3642.039062 3339.882812 3643.703125 C 3339.746094 3648.867188 3339.894531 3654.046875 3339.460938 3659.183594 C 3335.886719 3701.882812 3296.914062 3738.503906 3253.84375 3738.246094 C 3232.191406 3738.191406 3210.503906 3738.621094 3188.863281 3738.1875 C 3180.796875 3737.179688 3175.628906 3731.691406 3175.246094 3723.515625 C 3174.960938 3716.195312 3175.253906 3708.851562 3175.203125 3701.527344 C 3175.171875 3698.933594 3174.636719 3698.355469 3171.914062 3698.289062 C 3150.089844 3698.011719 3128.253906 3698.285156 3106.425781 3698.269531 C 3096.703125 3698.570312 3087.773438 3696.425781 3083.433594 3686.832031 C 3076.929688 3674.46875 3085.175781 3657.214844 3099.863281 3656.925781 C 3122.515625 3656.457031 3145.191406 3656.914062 3167.847656 3656.875 C 3176.164062 3656.914062 3175.085938 3655.996094 3175.128906 3649.75 C 3175.230469 3635.425781 3175.226562 3621.097656 3175.226562 3606.769531 C 3175.226562 3602.535156 3174.964844 3602.285156 3170.714844 3602.125 C 3168.386719 3602.035156 3166.050781 3602.082031 3163.71875 3602.085938 C 3144.386719 3602.105469 3125.054688 3602.144531 3105.726562 3602.136719 C 3103.398438 3602.136719 3101.058594 3602.007812 3098.75 3601.726562 C 3086.769531 3600.277344 3078.855469 3588.691406 3081.707031 3576.964844 C 3084.414062 3565.296875 3093.558594 3559.976562 3105.109375 3560.339844 C 3127.761719 3560.214844 3150.441406 3560.710938 3173.082031 3560.214844 C 3174.144531 3560.09375 3174.921875 3559.421875 3175.003906 3558.261719 C 3175.410156 3550.613281 3175.191406 3542.941406 3175.191406 3535.28125 C 3175.199219 3525.113281 3181.488281 3518.675781 3191.808594 3518.953125 C 3212.640625 3518.964844 3233.46875 3518.847656 3254.300781 3519.023438 C 3275.792969 3519.207031 3294.125 3527.457031 3309.917969 3541.703125 C 3331.617188 3561.300781 3341.570312 3587.4375 3340.03125 3616.441406 C 3340.046875 3620.503906 3344.367188 3619.441406 3347.136719 3619.582031 C 3358.132812 3619.582031 3369.132812 3619.582031 3380.132812 3619.582031 Z M 3380.132812 3619.632812 "/>
<path style="fill:none;stroke-width:7;stroke-linecap:butt;stroke-linejoin:miter;stroke:rgb(27.842712%,14.509583%,1.960754%);stroke-opacity:1;stroke-miterlimit:10;" d="M -0.0012125 -0.000025 L -0.0012125 -0.0820563 C -10.481681 -0.0820563 -20.958244 -0.0742438 -31.438713 -0.0898688 C -32.934806 -0.093775 -34.454338 -0.0742438 -35.915275 -0.320338 C -38.3684 -0.7344 -39.9934 -2.941431 -39.833244 -5.343775 C -39.489494 -10.699244 -33.083244 -9.664088 -29.208244 -9.785181 C -8.915275 -9.769556 11.3816 -9.675806 31.674569 -9.738306 C 38.846444 -9.761744 37.963631 -9.238306 38.061287 -3.003931 C 38.1941 0.277319 35.323006 -0.117213 32.936287 -0.0078375 C 21.955819 0.00388125 10.979256 -0.000025 -0.0012125 -0.000025 Z M 0.373787 -105.582056 L 0.373787 -105.562525 C 10.854256 -105.562525 21.330819 -105.562525 31.807381 -105.562525 C 38.139412 -105.566431 38.151131 -105.593775 38.139412 -99.183619 C 38.135506 -96.839869 37.530037 -96.148463 35.229256 -96.062525 C 11.471444 -96.199244 -12.360588 -95.675806 -36.098869 -96.242213 C -38.262931 -96.6094 -39.891838 -98.70315 -39.942619 -100.863306 C -39.989494 -102.949244 -38.329338 -104.9844 -36.032463 -105.3594 C -34.567619 -105.593775 -33.051994 -105.574244 -31.559806 -105.574244 C -20.915275 -105.589869 -10.270744 -105.582056 0.373787 -105.582056 Z M 54.041756 -51.789088 C 54.045662 -81.093775 54.014412 -110.398463 54.030037 -139.70315 C 54.033944 -145.89065 54.244881 -146.039088 60.553475 -146.003931 C 78.541756 -145.910181 96.530037 -145.742213 114.514412 -145.785181 C 125.209725 -145.812525 135.283944 -143.539088 144.932381 -138.95315 C 172.565194 -125.82815 187.280037 -97.980494 187.276131 -73.156275 C 187.276131 -59.1719 187.237069 -45.183619 187.174569 -31.199244 C 186.483162 2.660131 160.893319 33.929662 127.330819 39.964819 C 120.733162 41.124975 114.092537 41.601537 107.4441 41.652319 C 91.455819 41.781225 75.467537 41.667944 59.479256 41.585912 C 54.526131 41.562475 54.049569 41.023412 54.049569 36.128881 C 54.03785 6.820287 54.045662 -22.4844 54.041756 -51.789088 Z M 243.139412 -43.242213 C 254.635506 -43.242213 266.135506 -43.238306 277.6316 -43.250025 C 278.963631 -43.250025 280.3191 -43.195338 281.623787 -43.414088 C 285.307381 -44.035181 288.170662 -47.410181 288.283944 -51.097681 C 288.408944 -55.20315 285.112069 -59.128931 281.733162 -59.355494 C 256.455819 -60.64065 231.076912 -59.070338 205.776131 -59.929713 C 204.010506 -60.031275 203.323006 -60.683619 203.1316 -62.32815 C 202.936287 -63.976588 202.932381 -65.648463 202.889412 -67.312525 C 202.752694 -72.476588 202.901131 -77.656275 202.467537 -82.792994 C 198.893319 -125.492213 159.920662 -162.113306 116.85035 -161.855494 C 95.198006 -161.800806 73.510506 -162.230494 51.869881 -161.7969 C 43.803475 -160.789088 38.635506 -155.300806 38.252694 -147.125025 C 37.967537 -139.804713 38.260506 -132.460963 38.209725 -125.136744 C 38.178475 -122.542994 37.643319 -121.964869 34.920662 -121.898463 C 13.096444 -121.621119 -8.739494 -121.894556 -30.567619 -121.878931 C -40.290275 -122.179713 -49.219963 -120.035181 -53.559806 -110.441431 C -60.063713 -98.07815 -51.817619 -80.824244 -37.130119 -80.535181 C -14.477775 -80.066431 8.198006 -80.523463 30.854256 -80.4844 C 39.170662 -80.523463 38.092537 -79.605494 38.135506 -73.3594 C 38.237069 -59.035181 38.233162 -44.707056 38.233162 -30.378931 C 38.233162 -26.144556 37.971444 -25.894556 33.721444 -25.7344 C 31.393319 -25.644556 29.057381 -25.691431 26.72535 -25.695338 C 7.393319 -25.714869 -11.938713 -25.753931 -31.266838 -25.746119 C -33.594963 -25.746119 -35.934806 -25.617213 -38.2434 -25.335963 C -50.223869 -23.886744 -58.137931 -12.300806 -55.286369 -0.574244 C -52.579338 11.093725 -43.434806 16.414037 -31.884025 16.050756 C -9.231681 16.175756 13.448006 15.679662 36.088631 16.175756 C 37.151131 16.29685 37.928475 16.968725 38.010506 18.128881 C 38.416756 25.777319 38.198006 33.449194 38.198006 41.10935 C 38.205819 51.277319 44.494881 57.714819 54.815194 57.437475 C 75.647225 57.425756 96.47535 57.542944 117.307381 57.367162 C 138.799569 57.183569 157.1316 48.933569 172.924569 34.687475 C 194.623787 15.089819 204.576912 -11.0469 203.03785 -40.050806 C 203.053475 -44.113306 207.373787 -43.050806 210.143319 -43.191431 C 221.139412 -43.191431 232.139412 -43.191431 243.139412 -43.191431 Z M 243.139412 -43.242213 " transform="matrix(1,0,0,-1,3136.9934,3576.3906)"/>
<path style=" stroke:none;fill-rule:nonzero;fill:rgb(27.842712%,14.509583%,1.960754%);fill-opacity:1;" d="M 2955.652344 3628.859375 L 2955.582031 3628.859375 C 2955.582031 3640.34375 2955.558594 3651.828125 2955.59375 3663.3125 C 2955.242188 3678.332031 2957.585938 3693.394531 2964.753906 3706.773438 C 2967.277344 3711.539062 2970.441406 3715.761719 2974.792969 3719.027344 C 2983.363281 3725.925781 2993.597656 3720.132812 2998.898438 3712.128906 C 3007.589844 3699.414062 3011.175781 3683.855469 3011.277344 3668.601562 C 3011.316406 3643.632812 3011.296875 3618.667969 3011.339844 3593.703125 C 3011.457031 3578.0625 3008.753906 3562.214844 3000.851562 3548.546875 C 2996.4375 3540.363281 2986.277344 3531.039062 2976.796875 3537.1875 C 2969.722656 3541.496094 2965.332031 3548.882812 2962.242188 3556.339844 C 2957.679688 3567.058594 2955.699219 3578.304688 2955.660156 3589.910156 C 2955.621094 3602.894531 2955.652344 3615.875 2955.652344 3628.859375 M 2917.226562 3722.046875 C 2917.226562 3722.195312 2917.226562 3722.347656 2917.226562 3722.5 C 2927.21875 3722.5 2937.210938 3722.5 2947.207031 3722.496094 C 2948.703125 3722.496094 2950.207031 3722.515625 2951.699219 3722.414062 C 2954.328125 3722.242188 2954.714844 3721.570312 2953.507812 3719.398438 C 2944.425781 3704.601562 2939.945312 3687.710938 2939.824219 3670.457031 C 2939.589844 3642.980469 2939.683594 3615.5 2939.792969 3588.023438 C 2940.082031 3570.898438 2944.230469 3553.714844 2952.957031 3538.871094 C 2954.835938 3535.707031 2954.332031 3534.960938 2950.558594 3534.742188 C 2934.570312 3534.636719 2918.578125 3534.679688 2902.585938 3534.699219 C 2896.425781 3534.71875 2890.269531 3534.882812 2884.128906 3535.546875 C 2845.566406 3538.882812 2814.890625 3572.691406 2814.945312 3611.296875 C 2814.605469 3622.777344 2814.792969 3634.277344 2814.898438 3645.765625 C 2814.523438 3684.859375 2847.367188 3720.726562 2886.75 3721.996094 C 2896.902344 3722.238281 2907.066406 3722.046875 2917.226562 3722.046875 M 2934.75 3738.363281 C 2920.25 3738.363281 2905.75 3738.3125 2891.253906 3738.375 C 2838.636719 3739.398438 2795.964844 3692.78125 2798.847656 3640.828125 C 2798.785156 3637.027344 2799.058594 3636.058594 2793.960938 3636.050781 C 2764.472656 3635.796875 2734.953125 3636.320312 2705.488281 3635.746094 C 2696.894531 3634.503906 2696.410156 3621.707031 2705.359375 3619.890625 C 2733.800781 3619.148438 2762.359375 3619.84375 2790.839844 3619.585938 C 2799.503906 3619.578125 2798.761719 3620.417969 2798.789062 3611.9375 C 2798.261719 3568.160156 2831.140625 3527.640625 2874.523438 3520.417969 C 2881.242188 3519.148438 2888.101562 3518.953125 2894.945312 3518.953125 C 2923.777344 3518.953125 2952.609375 3519.179688 2981.4375 3518.886719 C 3015.84375 3518.359375 3027.902344 3565.109375 3027.550781 3592.746094 C 3027.628906 3617.074219 3027.636719 3641.398438 3027.527344 3665.726562 C 3027.1875 3689.183594 3021.484375 3715.152344 3003.019531 3731.136719 C 2996.308594 3736.921875 2987.945312 3738.792969 2979.246094 3738.355469 C 2964.414062 3738.355469 2949.582031 3738.355469 2934.75 3738.355469 C 2934.75 3738.359375 2934.75 3738.359375 2934.75 3738.363281 "/>
<path style="fill:none;stroke-width:7;stroke-linecap:butt;stroke-linejoin:miter;stroke:rgb(27.842712%,14.509583%,1.960754%);stroke-opacity:1;stroke-miterlimit:10;" d="M 0.00094375 -0.001475 L -0.0693688 -0.001475 C -0.0693688 -11.48585 -0.0928063 -22.970225 -0.05765 -34.4546 C -0.409213 -49.474131 1.934537 -64.536631 9.102506 -77.915538 C 11.625944 -82.681163 14.790006 -86.903819 19.141569 -90.169444 C 27.711881 -97.067881 37.946256 -91.274913 43.247037 -83.271006 C 51.938444 -70.556163 55.524381 -54.997569 55.625944 -39.743663 C 55.665006 -14.774913 55.645475 10.189931 55.688444 35.154775 C 55.805631 50.7954 53.102506 66.643056 45.200162 80.311025 C 40.7861 88.494619 30.625944 97.818837 21.145475 91.6704 C 14.071256 87.361806 9.680631 79.975087 6.590787 72.518056 C 2.028287 61.799306 0.0478187 50.553212 0.00875625 38.947744 C -0.0303063 25.963369 0.00094375 12.9829 0.00094375 -0.001475 Z M -38.424838 -93.188975 C -38.424838 -93.337413 -38.424838 -93.489756 -38.424838 -93.6421 C -28.43265 -93.6421 -18.440463 -93.6421 -8.444369 -93.638194 C -6.948275 -93.638194 -5.444369 -93.657725 -3.952181 -93.556163 C -1.323275 -93.384288 -0.936556 -92.712413 -2.143588 -90.540538 C -11.225619 -75.743663 -15.706088 -58.853038 -15.827181 -41.599131 C -16.061556 -14.122569 -15.967806 13.3579 -15.858431 40.834462 C -15.569369 57.959462 -11.420931 75.143056 -2.694369 89.986806 C -0.815463 93.150869 -1.319369 93.896962 -5.092806 94.115712 C -21.081088 94.221181 -37.073275 94.178212 -53.065463 94.158681 C -59.225619 94.13915 -65.381869 93.975087 -71.522494 93.311025 C -110.084994 89.975087 -140.760775 56.166494 -140.706088 17.561025 C -141.045931 6.080556 -140.858431 -5.419444 -140.752963 -16.907725 C -141.127963 -56.001475 -108.284213 -91.868663 -68.9014 -93.138194 C -58.749056 -93.380381 -48.584994 -93.188975 -38.424838 -93.188975 Z M -20.9014 -109.505381 C -35.4014 -109.505381 -49.9014 -109.4546 -64.397494 -109.5171 C -117.014681 -110.540538 -159.686556 -63.92335 -156.803744 -11.970225 C -156.866244 -8.169444 -156.592806 -7.200694 -161.690463 -7.192881 C -191.178744 -6.938975 -220.698275 -7.462413 -250.163119 -6.888194 C -258.756869 -5.646006 -259.241244 7.150869 -250.292025 8.967275 C -221.850619 9.709462 -193.292025 9.01415 -164.811556 9.271962 C -156.147494 9.279775 -156.889681 8.439931 -156.862338 16.9204 C -157.389681 60.697744 -124.510775 101.217275 -81.127963 108.439931 C -74.409213 109.709462 -67.549838 109.904775 -60.706088 109.904775 C -31.874056 109.904775 -3.042025 109.678212 25.7861 109.971181 C 60.19235 110.498525 72.250944 63.748525 71.899381 36.111806 C 71.977506 11.783681 71.985319 -12.540538 71.875944 -36.868663 C 71.5361 -60.325694 65.832975 -86.294444 47.368131 -102.278819 C 40.657194 -108.063975 32.293912 -109.935069 23.594694 -109.497569 C 8.762662 -109.497569 -6.069369 -109.497569 -20.9014 -109.497569 C -20.9014 -109.501475 -20.9014 -109.501475 -20.9014 -109.505381 Z M -20.9014 -109.505381 " transform="matrix(1,0,0,-1,2955.6514,3628.8579)"/>
<path style="fill-rule:nonzero;fill:rgb(27.842712%,14.509583%,1.960754%);fill-opacity:1;stroke-width:7;stroke-linecap:butt;stroke-linejoin:miter;stroke:rgb(27.842712%,14.509583%,1.960754%);stroke-opacity:1;stroke-miterlimit:10;" d="M -0.00005 -0.00003125 C 0.171825 3.945281 -0.601612 8.132781 1.085888 11.832 C 2.414013 14.945281 5.703075 16.828094 9.164013 16.546844 C 13.574169 16.316375 16.277294 12.074188 16.296825 7.781219 C 16.37495 3.624969 16.4062 -0.535187 16.390575 -4.695344 C 16.238231 -10.492219 14.199169 -15.296906 7.695263 -14.972687 C -1.246144 -14.718781 0.0272938 -6.539094 0.0858875 -0.00003125 Z M -0.00005 -0.00003125 " transform="matrix(1,0,0,-1,2975.2188,3603.5195)"/>
<path style=" stroke:none;fill-rule:nonzero;fill:rgb(27.842712%,14.509583%,1.960754%);fill-opacity:1;" d="M 2991.765625 3660.316406 C 2991.632812 3661.984375 2991.636719 3663.996094 2991.28125 3665.9375 C 2990.484375 3670.261719 2987.078125 3672.765625 2982.683594 3672.460938 C 2978.445312 3672.164062 2975.539062 3669.515625 2975.277344 3665.199219 C 2975.058594 3661.574219 2975.066406 3657.898438 2975.386719 3654.277344 C 2975.78125 3649.796875 2978.511719 3647.304688 2982.761719 3646.945312 C 2986.625 3646.617188 2989.960938 3648.878906 2991.074219 3652.601562 C 2991.824219 3655.15625 2991.542969 3657.445312 2991.765625 3660.316406 "/>
<path style="fill:none;stroke-width:7;stroke-linecap:butt;stroke-linejoin:miter;stroke:rgb(27.842712%,14.509583%,1.960754%);stroke-opacity:1;stroke-miterlimit:10;" d="M -0.001475 0.00049375 C -0.134288 -1.667475 -0.130381 -3.679194 -0.48585 -5.6206 C -1.282725 -9.944819 -4.688975 -12.448725 -9.083506 -12.144038 C -13.321788 -11.847163 -16.228038 -9.198725 -16.489756 -4.882319 C -16.708506 -1.257319 -16.700694 2.418462 -16.380381 6.039556 C -15.98585 10.520025 -13.255381 13.012212 -9.005381 13.371587 C -5.1421 13.699712 -1.806163 11.437994 -0.692881 7.715337 C 0.0571187 5.16065 -0.224131 2.871587 -0.001475 0.00049375 Z M -0.001475 0.00049375 " transform="matrix(1,0,0,-1,2991.7671,3660.3169)"/>
</svg>
