<?xml version="1.0" encoding="UTF-8"?>
<svg xmlns="http://www.w3.org/2000/svg" width="256" height="256" viewBox="8954.30 693.30 1069.38 1069.38" preserveAspectRatio="xMidYMid meet">
<path style=" stroke:none;fill-rule:nonzero;fill:rgb(27.842712%,14.509583%,1.960754%);fill-opacity:1;" d="M 9746.566406 1099.460938 C 9746.371094 1091.085938 9746.207031 1083.09375 9744.390625 1075.242188 C 9744.089844 1073.953125 9744.070312 1072.605469 9743.796875 1071.308594 C 9743.570312 1070.25 9742.257812 1069.777344 9741.410156 1070.480469 C 9718.332031 1092.597656 9696.21875 1115.757812 9673.523438 1138.28125 C 9669.542969 1142.289062 9664.820312 1144.9375 9659.472656 1146.550781 C 9644.519531 1151 9627.007812 1148 9615.824219 1136.664062 C 9605.855469 1126.609375 9595.738281 1116.699219 9585.710938 1106.699219 C 9578.714844 1099.984375 9572.585938 1092.320312 9570.066406 1082.761719 C 9566.269531 1068.671875 9567.984375 1051.183594 9579.179688 1040.863281 C 9583.101562 1037.257812 9586.765625 1033.371094 9590.503906 1029.570312 C 9608.742188 1010.628906 9627.878906 992.445312 9645.617188 973.074219 C 9646.433594 971.699219 9644.449219 970.761719 9643.335938 970.605469 C 9637.554688 969.867188 9631.785156 969.03125 9625.980469 968.515625 C 9554.617188 964.183594 9492.109375 1022.5 9488.835938 1093.464844 C 9487.605469 1107.839844 9491.976562 1122.027344 9490.570312 1136.332031 C 9489.3125 1149.363281 9484.714844 1161.230469 9477.085938 1171.882812 C 9464.1875 1186.449219 9449.667969 1199.597656 9436.175781 1213.632812 C 9372.355469 1277.511719 9309.425781 1342.304688 9245.6875 1406.242188 C 9204.925781 1450.550781 9262.964844 1514.261719 9311.785156 1478.605469 C 9319.878906 1471.449219 9327.035156 1463.226562 9334.671875 1455.578125 C 9362.128906 1426.277344 9390.582031 1397.949219 9418.195312 1368.792969 C 9449.808594 1336.339844 9480.871094 1303.339844 9512.664062 1271.046875 C 9521.378906 1262.089844 9529.902344 1252.949219 9538.742188 1244.121094 C 9548.5 1234.375 9560.257812 1228.71875 9574.121094 1227.355469 C 9582.167969 1226.566406 9590.109375 1227.085938 9598.011719 1228.261719 C 9608.960938 1229.890625 9619.921875 1230 9630.910156 1229.269531 C 9695.503906 1224.480469 9747.550781 1163.320312 9746.566406 1099.460938 M 9618.628906 1248.199219 C 9608.101562 1248.449219 9597.695312 1247.339844 9587.269531 1245.917969 C 9574.3125 1244.152344 9562.832031 1248 9553.292969 1256.945312 C 9548.316406 1261.609375 9543.824219 1266.789062 9539.03125 1271.660156 C 9486.285156 1324.492188 9435.449219 1379.15625 9383.265625 1432.542969 C 9365.484375 1451.039062 9348.050781 1469.875 9329.980469 1488.09375 C 9312.976562 1505.734375 9286.277344 1511.414062 9262.96875 1505.355469 C 9215.222656 1493.65625 9198.210938 1432.289062 9229.28125 1395.53125 C 9277.671875 1346.621094 9326.113281 1297.714844 9374.277344 1248.5625 C 9401.574219 1220.949219 9428.957031 1193.425781 9456.449219 1166.011719 C 9465.207031 1157.277344 9470.0625 1146.839844 9471.855469 1134.792969 C 9472.277344 1131.976562 9472.15625 1129.128906 9471.839844 1126.3125 C 9470.550781 1114.871094 9469.757812 1103.386719 9470.222656 1091.890625 C 9474.113281 996.242188 9568 927.632812 9660.15625 955.714844 C 9666.683594 957.714844 9670.246094 962.097656 9670.421875 968.90625 C 9670.53125 973.125 9669.128906 977.105469 9666.007812 980.246094 C 9641.65625 1004.90625 9617.652344 1029.914062 9592.984375 1054.261719 C 9583.085938 1063.710938 9585.472656 1079.875 9594.941406 1088.667969 C 9606.355469 1100.113281 9617.789062 1111.539062 9629.1875 1123 C 9635.089844 1128.933594 9642.207031 1130.683594 9650.28125 1129.394531 C 9654.382812 1128.738281 9657.753906 1126.832031 9660.671875 1123.875 C 9684.636719 1099.53125 9708.832031 1075.414062 9732.964844 1051.238281 C 9734.867188 1049.332031 9736.917969 1047.828125 9739.5 1046.8125 C 9747.507812 1043.660156 9756.96875 1047.949219 9759.570312 1057.1875 C 9761.371094 1063.601562 9762.960938 1070.078125 9763.703125 1076.722656 C 9769.671875 1116.222656 9759.816406 1158.160156 9735.683594 1190.160156 C 9708.589844 1226.613281 9664.570312 1250.398438 9618.628906 1248.199219 "/>
<path style="fill:none;stroke-width:7;stroke-linecap:butt;stroke-linejoin:miter;stroke:rgb(27.842712%,14.509583%,1.960754%);stroke-opacity:1;stroke-miterlimit:10;" d="M -0.00099375 -0.0000375 C -0.196306 8.374963 -0.360369 16.36715 -2.176775 24.218713 C -2.477556 25.507775 -2.497087 26.855431 -2.770525 28.152306 C -2.997087 29.2109 -4.309587 29.683556 -5.157244 28.980431 C -28.235369 6.863244 -50.34865 -16.296912 -73.043962 -38.82035 C -77.024431 -42.828162 -81.747087 -45.4766 -87.094744 -47.089881 C -102.047869 -51.5391 -119.559587 -48.5391 -130.743181 -37.203162 C -140.711931 -27.148475 -150.829119 -17.238319 -160.856462 -7.238319 C -167.852556 -0.523475 -173.981462 7.140588 -176.500994 16.699181 C -180.297869 30.789025 -178.583025 48.277306 -167.387712 58.597619 C -163.465837 62.203088 -159.801775 66.089806 -156.063494 69.890588 C -137.825212 88.831994 -118.688494 107.015588 -100.950212 126.386681 C -100.133806 127.761681 -102.118181 128.699181 -103.231462 128.855431 C -109.012712 129.593713 -114.782244 130.42965 -120.586931 130.945275 C -191.950212 135.277306 -254.458025 76.9609 -257.731462 5.996056 C -258.961931 -8.378944 -254.590837 -22.566444 -255.997087 -36.871131 C -257.2549 -49.902381 -261.852556 -61.769569 -269.481462 -72.421912 C -282.3799 -86.988319 -296.899431 -100.136756 -310.391619 -114.171912 C -374.211931 -178.050819 -437.141619 -242.843787 -500.8799 -306.781287 C -541.641619 -351.089881 -483.602556 -414.800819 -434.782244 -379.144569 C -426.688494 -371.988319 -419.532244 -363.765662 -411.895525 -356.117225 C -384.438494 -326.816444 -355.985369 -298.488319 -328.372087 -269.332069 C -296.758806 -236.878944 -265.696306 -203.878944 -233.903337 -171.585975 C -225.188494 -162.628944 -216.665056 -153.488319 -207.825212 -144.660194 C -198.0674 -134.9141 -186.309587 -129.25785 -172.446306 -127.894569 C -164.399431 -127.105506 -156.458025 -127.625037 -148.555681 -128.800819 C -137.606462 -130.429725 -126.645525 -130.5391 -115.657244 -129.808631 C -51.063494 -125.019569 0.983381 -63.859412 -0.00099375 -0.0000375 Z M -127.938494 -148.738319 C -138.465837 -148.988319 -148.872087 -147.878944 -159.297869 -146.457069 C -172.2549 -144.691444 -183.735369 -148.5391 -193.274431 -157.484412 C -198.250994 -162.148475 -202.743181 -167.328162 -207.53615 -172.199256 C -260.282244 -225.031287 -311.118181 -279.69535 -363.301775 -333.082069 C -381.083025 -351.578162 -398.516619 -370.4141 -416.586931 -388.63285 C -433.590837 -406.273475 -460.290056 -411.953162 -483.59865 -405.894569 C -531.344744 -394.19535 -548.356462 -332.828162 -517.28615 -296.07035 C -468.895525 -247.160194 -420.454119 -198.253944 -372.290056 -149.1016 C -344.993181 -121.488319 -317.610369 -93.964881 -290.118181 -66.550819 C -281.360369 -57.816444 -276.5049 -47.378944 -274.711931 -35.332069 C -274.290056 -32.515662 -274.41115 -29.668006 -274.727556 -26.8516 C -276.016619 -15.410194 -276.809587 -3.925819 -276.344744 7.570275 C -272.454119 103.218713 -178.5674 171.828088 -86.41115 143.746056 C -79.883806 141.746056 -76.321306 137.363244 -76.145525 130.55465 C -76.03615 126.3359 -77.438494 122.355431 -80.559587 119.214806 C -104.91115 94.55465 -128.915056 69.546838 -153.583025 45.199181 C -163.481462 35.749963 -161.094744 19.5859 -151.625994 10.792931 C -140.211931 -0.652381 -128.778337 -12.078162 -117.3799 -23.5391 C -111.477556 -29.472694 -104.360369 -31.222694 -96.28615 -29.933631 C -92.184587 -29.277381 -88.813494 -27.371131 -85.895525 -24.4141 C -61.930681 -0.07035 -37.735369 24.046838 -13.602556 48.222619 C -11.700212 50.128869 -9.649431 51.632775 -7.0674 52.6484 C 0.940413 55.800744 10.40135 51.511681 13.002913 42.2734 C 14.803694 35.859338 16.393538 29.382775 17.135725 22.738244 C 23.104475 -16.761756 13.249006 -58.699256 -10.883806 -90.699256 C -37.977556 -127.152381 -81.997087 -150.937537 -127.938494 -148.738319 Z M -127.938494 -148.738319 " transform="matrix(1,0,0,-1,9746.5674,1099.4609)"/>
<path style=" stroke:none;fill-rule:nonzero;fill:rgb(27.842712%,14.509583%,1.960754%);fill-opacity:1;" d="M 9300.367188 1436.460938 C 9299.730469 1431.097656 9296.863281 1426.078125 9291.097656 1423.058594 C 9288.464844 1421.679688 9285.664062 1420.339844 9282.539062 1420.886719 C 9279.066406 1421.492188 9275.789062 1422.679688 9272.949219 1424.871094 C 9267 1429.460938 9264.855469 1438.410156 9268.117188 1445.035156 C 9277.113281 1462.082031 9300.304688 1455.160156 9300.367188 1436.460938 M 9283.460938 1470.277344 C 9266.601562 1472.0625 9252.1875 1457.023438 9251.003906 1443.964844 C 9247.839844 1424.160156 9260.605469 1407.308594 9278.734375 1405.265625 C 9296.699219 1402.546875 9312.425781 1413.695312 9315.804688 1431.503906 C 9317.21875 1438.300781 9316.851562 1439.230469 9315.640625 1445.316406 C 9313.679688 1455.179688 9307.515625 1461.855469 9299.421875 1467.089844 C 9294.695312 1470.121094 9288.867188 1469.941406 9283.472656 1470.492188 C 9283.46875 1470.417969 9283.464844 1470.347656 9283.460938 1470.277344 "/>
<path style="fill:none;stroke-width:7;stroke-linecap:butt;stroke-linejoin:miter;stroke:rgb(27.842712%,14.509583%,1.960754%);stroke-opacity:1;stroke-miterlimit:10;" d="M -0.0000125 -0.0005375 C -0.636731 5.362744 -3.503919 10.382275 -9.269544 13.401806 C -11.902356 14.780712 -14.703137 16.120556 -17.828137 15.573681 C -21.300794 14.968212 -24.578137 13.780712 -27.417981 11.589306 C -33.3672 6.999462 -35.511731 -1.949756 -32.250012 -8.574756 C -23.253919 -25.621631 -0.0625125 -18.699756 -0.0000125 -0.0005375 Z M -16.906262 -33.816944 C -33.765637 -35.6021 -48.1797 -20.563038 -49.363294 -7.504444 C -52.527356 12.300244 -39.761731 29.151806 -21.632825 31.194775 C -3.667981 33.913525 12.058581 22.765087 15.437488 4.956494 C 16.85155 -1.840381 16.484363 -2.770069 15.273425 -8.856006 C 13.312488 -18.719288 7.148425 -25.395069 -0.945325 -30.629444 C -5.671887 -33.660694 -11.500012 -33.481006 -16.894544 -34.031788 C -16.89845 -33.957569 -16.902356 -33.887256 -16.906262 -33.816944 Z M -16.906262 -33.816944 " transform="matrix(1,0,0,-1,9300.3672,1436.4604)"/>
</svg>
