<?xml version="1.0" encoding="UTF-8"?>
<svg xmlns="http://www.w3.org/2000/svg" width="256" height="256" viewBox="3526.14 3055.64 1168.72 1168.72" preserveAspectRatio="xMidYMid meet">
<path style=" stroke:none;fill-rule:nonzero;fill:rgb(27.842712%,14.509583%,1.960754%);fill-opacity:1;" d="M 4088.792969 3633.949219 C 4088.640625 3633.664062 4088.5625 3633.257812 4088.324219 3633.121094 C 4087.617188 3632.703125 4086.867188 3632.328125 4086.09375 3632.046875 C 4079.054688 3629.503906 4072 3626.992188 4064.957031 3624.457031 C 4011.242188 3605.1875 3957.648438 3585.570312 3904.023438 3566.050781 C 3896.046875 3563.152344 3888.007812 3560.421875 3880.089844 3557.375 C 3874.796875 3555.339844 3874.988281 3556.988281 3873.40625 3560.351562 C 3872.199219 3562.902344 3871.347656 3565.617188 3870.257812 3568.226562 C 3862.792969 3586.378906 3854.859375 3604.351562 3847.640625 3622.601562 C 3847.011719 3624.378906 3849.125 3624.917969 3850.390625 3625.421875 C 3882.597656 3638.085938 3914.800781 3650.765625 3946.988281 3663.476562 C 3977.632812 3675.585938 4008.273438 3687.695312 4038.90625 3699.835938 C 4044.820312 3702.175781 4044.1875 3701.941406 4047.507812 3696.949219 C 4060.503906 3677.402344 4073.519531 3657.871094 4086.515625 3638.324219 C 4087.324219 3636.90625 4088.484375 3635.570312 4088.792969 3633.949219 M 4374.816406 3623.277344 C 4374.480469 3621.257812 4373.480469 3619.519531 4372.75 3617.632812 C 4364.351562 3598.050781 4355.902344 3578.492188 4347.726562 3558.816406 C 4346.597656 3556.144531 4345.871094 3555.816406 4343.109375 3556.757812 C 4277.152344 3581.328125 4210.890625 3605.125 4144.683594 3629.03125 C 4141.082031 3630.332031 4137.457031 3631.566406 4133.882812 3632.929688 C 4131.773438 3633.734375 4131.4375 3634.761719 4132.683594 3636.789062 C 4145.832031 3657.027344 4159.265625 3677.09375 4172.539062 3697.257812 C 4175.761719 3702.128906 4175.363281 3702.003906 4180.875 3699.835938 C 4215.703125 3686.054688 4250.605469 3672.457031 4285.511719 3658.871094 C 4314.050781 3647.761719 4342.605469 3636.679688 4371.148438 3625.582031 C 4372.507812 3624.996094 4374.09375 3624.726562 4374.816406 3623.277344 M 4122.53125 3781.597656 L 4122.285156 3781.597656 C 4122.503906 3820.0625 4121.847656 3858.558594 4122.539062 3897.003906 C 4122.671875 3898.195312 4123.535156 3898.695312 4124.714844 3898.230469 C 4187.710938 3872.816406 4250.5625 3847.039062 4313.578125 3821.675781 C 4324.675781 3817.605469 4323.019531 3808.070312 4323.066406 3798.382812 C 4323.019531 3756.414062 4323.316406 3714.433594 4323.09375 3672.472656 C 4322.925781 3670.488281 4322.074219 3669.953125 4320.027344 3670.539062 C 4273.976562 3688.472656 4227.960938 3706.542969 4181.957031 3724.613281 C 4175.878906 3726.816406 4168.238281 3727.871094 4162.960938 3723.339844 C 4161.019531 3721.71875 4159.449219 3719.785156 4158.058594 3717.703125 C 4154.261719 3712.027344 4150.511719 3706.324219 4146.738281 3700.632812 C 4139.375 3689.53125 4132.011719 3678.433594 4124.621094 3667.351562 C 4124.386719 3667 4123.871094 3666.691406 4123.453125 3666.648438 C 4122.839844 3666.585938 4122.683594 3667.207031 4122.65625 3667.679688 C 4122.316406 3705.648438 4122.640625 3743.628906 4122.53125 3781.597656 M 4099.640625 3780.554688 L 4099.644531 3780.554688 C 4099.644531 3742.738281 4099.652344 3704.925781 4099.617188 3667.109375 C 4099.617188 3665.847656 4100.292969 3663.910156 4098.9375 3663.453125 C 4097.167969 3662.855469 4096.746094 3665.039062 4096.003906 3666.148438 C 4083.898438 3684.097656 4072.222656 3702.34375 4059.964844 3720.183594 C 4054.089844 3728.4375 4044.28125 3727.3125 4035.925781 3723.902344 C 4024.636719 3719.40625 4013.324219 3714.96875 4002.03125 3710.476562 C 3968.40625 3697.300781 3935.039062 3683.414062 3901.273438 3670.617188 C 3899.914062 3670.183594 3898.917969 3670.878906 3898.871094 3672.289062 C 3898.679688 3718.257812 3898.5 3764.25 3898.804688 3810.210938 C 3899.125 3814.914062 3901.433594 3818.394531 3905.648438 3820.5 C 3968.195312 3846.105469 4030.960938 3871.246094 4093.558594 3896.757812 C 4099.492188 3899.164062 4099.660156 3899.519531 4099.65625 3892.5 C 4099.625 3855.183594 4099.640625 3817.867188 4099.640625 3780.554688 M 3875.367188 3737.023438 C 3875.34375 3712.367188 3875.433594 3687.699219 3875.296875 3663.050781 C 3875.375 3660.664062 3874.203125 3659.414062 3872.097656 3658.613281 C 3859.511719 3653.769531 3846.914062 3648.953125 3834.394531 3643.945312 C 3827.445312 3641.109375 3823.714844 3635.707031 3822.535156 3628.4375 C 3821.445312 3621.488281 3825.085938 3615.117188 3827.464844 3608.828125 C 3837.570312 3584.53125 3847.699219 3560.246094 3857.808594 3535.953125 C 3860.597656 3529.25 3865.300781 3524.613281 3872.351562 3522.597656 C 3922.332031 3508.417969 3972.359375 3494.386719 4022.351562 3480.242188 C 4031.34375 3477.019531 4040.433594 3482.542969 4039.304688 3492.492188 C 4038.527344 3497.808594 4035.746094 3501.253906 4030.441406 3502.71875 C 3988.574219 3514.347656 3946.792969 3526.261719 3904.941406 3537.9375 C 3904.140625 3538.164062 3903.355469 3538.445312 3902.558594 3538.6875 C 3902.058594 3538.839844 3901.664062 3539.09375 3901.574219 3539.644531 C 3901.46875 3540.261719 3901.898438 3540.5625 3902.359375 3540.738281 C 3904.230469 3541.4375 3906.117188 3542.097656 3907.996094 3542.777344 C 3974.121094 3566.523438 4040.109375 3590.65625 4106.261719 3614.316406 C 4112.828125 3616.644531 4110.847656 3616.398438 4117.25 3614.113281 C 4184.8125 3589.886719 4252.207031 3565.207031 4319.632812 3540.597656 C 4320.09375 3540.429688 4320.472656 3539.988281 4320.34375 3539.433594 C 4320.28125 3539.175781 4319.988281 3538.859375 4319.730469 3538.769531 C 4317.679688 3538.074219 4315.632812 3537.359375 4313.550781 3536.773438 C 4272.84375 3525.328125 4232.128906 3513.910156 4191.410156 3502.511719 C 4189.332031 3501.921875 4187.257812 3501.253906 4185.28125 3500.394531 C 4180.519531 3498.324219 4178.917969 3494.308594 4178.988281 3489.449219 C 4179.0625 3484.398438 4181.636719 3480.707031 4186.03125 3478.949219 C 4188.761719 3477.859375 4191.433594 3477.679688 4194.316406 3478.519531 C 4228.761719 3488.238281 4263.210938 3497.964844 4297.632812 3507.765625 C 4314.449219 3512.542969 4331.242188 3517.398438 4348.082031 3522.089844 C 4361.667969 3525.738281 4363.453125 3536.457031 4368.613281 3547.78125 C 4378.386719 3570.765625 4388.1875 3593.746094 4397.980469 3616.71875 C 4399.933594 3621.636719 4400.492188 3626.632812 4399.03125 3631.871094 C 4397.492188 3638 4392.84375 3642.167969 4387.148438 3644.398438 C 4375.0625 3649.140625 4362.960938 3653.855469 4350.851562 3658.542969 C 4345.25 3660.710938 4345.140625 3660.710938 4345.121094 3666.875 C 4345.078125 3680.535156 4345.140625 3694.195312 4345.113281 3707.855469 C 4345.132812 3742.011719 4344.746094 3776.167969 4345.058594 3810.316406 C 4345.667969 3824.257812 4337.035156 3837.378906 4324.023438 3842.445312 C 4258.867188 3869.191406 4193.585938 3895.628906 4128.332031 3922.136719 C 4123.363281 3924.152344 4118.253906 3925.542969 4112.847656 3925.769531 C 4106.574219 3926.027344 4100.578125 3924.824219 4094.789062 3922.511719 C 4068.523438 3911.957031 4042.328125 3901.230469 4016.101562 3890.585938 C 3979.25 3875.554688 3942.355469 3860.652344 3905.46875 3845.71875 C 3890.171875 3840.289062 3879.648438 3833.910156 3876.101562 3816.941406 C 3875.285156 3813.007812 3875.214844 3809.007812 3875.21875 3805 C 3875.246094 3782.34375 3875.234375 3759.683594 3875.234375 3737.023438 Z M 3875.367188 3737.023438 "/>
<path style="fill:none;stroke-width:7;stroke-linecap:butt;stroke-linejoin:miter;stroke:rgb(27.842712%,14.509583%,1.960754%);stroke-opacity:1;stroke-miterlimit:10;" d="M 0.00026875 0.00098125 C -0.152075 0.286138 -0.2302 0.692388 -0.468481 0.829106 C -1.175512 1.247075 -1.925512 1.622075 -2.69895 1.903325 C -9.738012 4.446294 -16.7927 6.958013 -23.835669 9.493169 C -77.550512 28.7627 -131.144262 48.379888 -184.769262 67.899419 C -192.745825 70.797856 -200.784887 73.528325 -208.702856 76.5752 C -213.995825 78.610356 -213.804419 76.961919 -215.38645 73.598638 C -216.593481 71.047856 -217.445044 68.333013 -218.534887 65.723638 C -225.999731 47.571294 -233.933325 29.598638 -241.152075 11.348638 C -241.780981 9.571294 -239.6677 9.032231 -238.402075 8.528325 C -206.195044 -4.135737 -173.991919 -16.815425 -141.804419 -29.526362 C -111.159887 -41.635737 -80.519262 -53.745112 -49.88645 -65.885737 C -43.972387 -68.225581 -44.6052 -67.991206 -41.284887 -62.999019 C -28.288794 -43.452144 -15.273169 -23.920894 -2.277075 -4.374019 C -1.468481 -2.95605 -0.308325 -1.620112 0.00026875 0.00098125 Z M 286.023706 10.672856 C 285.687769 12.692388 284.687769 14.430669 283.9573 16.317388 C 275.558863 35.899419 267.109644 55.458013 258.933863 75.133794 C 257.804956 77.805669 257.078394 78.133794 254.316675 77.192388 C 188.359644 52.622075 122.097925 28.8252 55.890894 4.91895 C 52.289331 3.618169 48.664331 2.383794 45.090113 1.020513 C 42.980738 0.215825 42.6448 -0.811519 43.890894 -2.838862 C 57.039331 -23.077144 70.472925 -43.14355 83.746363 -63.307612 C 86.969019 -68.178706 86.570581 -68.053706 92.0823 -65.885737 C 126.910425 -52.104487 161.812769 -38.506831 196.719019 -24.920894 C 225.258081 -13.811519 253.812769 -2.729487 282.355738 8.368169 C 283.715113 8.954106 285.30105 9.223638 286.023706 10.672856 Z M 33.73855 -147.647456 L 33.492456 -147.647456 C 33.711206 -186.1123 33.054956 -224.608394 33.746363 -263.053706 C 33.879175 -264.245112 34.742456 -264.745112 35.922144 -264.280269 C 98.918238 -238.866206 161.7698 -213.088862 224.785425 -187.725581 C 235.883081 -183.655269 234.226831 -174.120112 234.273706 -164.432612 C 234.226831 -122.463862 234.523706 -80.483394 234.30105 -38.522456 C 234.133081 -36.538081 233.281519 -36.002925 231.234644 -36.588862 C 185.183863 -54.522456 139.168238 -72.592769 93.164331 -90.663081 C 87.086206 -92.866206 79.445581 -93.920894 74.168238 -89.389644 C 72.226831 -87.76855 70.656519 -85.834956 69.265894 -83.752925 C 65.469019 -78.077144 61.719019 -72.374019 57.945581 -66.682612 C 50.5823 -55.58105 43.219019 -44.483394 35.828394 -33.401362 C 35.594019 -33.0498 35.078394 -32.741206 34.660425 -32.698237 C 34.047144 -32.635737 33.890894 -33.256831 33.86355 -33.729487 C 33.523706 -71.698237 33.847925 -109.678706 33.73855 -147.647456 Z M 10.847925 -146.604487 L 10.851831 -146.604487 C 10.851831 -108.788081 10.859644 -70.975581 10.824488 -33.159175 C 10.824488 -31.897456 11.500269 -29.959956 10.1448 -29.502925 C 8.375269 -28.905269 7.953394 -31.088862 7.211206 -32.198237 C -4.894262 -50.147456 -16.570044 -68.39355 -28.827856 -86.233394 C -34.702856 -94.4873 -44.51145 -93.3623 -52.866919 -89.952144 C -64.155981 -85.45605 -75.468481 -81.01855 -86.76145 -76.526362 C -120.38645 -63.350581 -153.753637 -49.463862 -187.519262 -36.666987 C -188.878637 -36.233394 -189.874731 -36.928706 -189.921606 -38.338862 C -190.113012 -84.307612 -190.2927 -130.2998 -189.988012 -176.260737 C -189.6677 -180.963862 -187.359106 -184.444331 -183.144262 -186.5498 C -120.597387 -212.155269 -57.831762 -237.295894 4.765894 -262.807612 C 10.699488 -265.213862 10.867456 -265.569331 10.86355 -258.5498 C 10.8323 -221.233394 10.847925 -183.916987 10.847925 -146.604487 Z M -213.425512 -103.073237 C -213.44895 -78.416987 -213.359106 -53.749019 -213.495825 -29.100581 C -213.4177 -26.713862 -214.589575 -25.463862 -216.695044 -24.663081 C -229.280981 -19.819331 -241.878637 -15.002925 -254.398169 -9.995112 C -261.347387 -7.159175 -265.077856 -1.756831 -266.257544 5.5127 C -267.347387 12.461919 -263.706762 18.833013 -261.327856 25.122075 C -251.222387 49.41895 -241.093481 73.704106 -230.984106 97.997075 C -228.195044 104.7002 -223.491919 109.336919 -216.441137 111.352544 C -166.460669 125.532231 -116.433325 139.563481 -66.441137 153.708013 C -57.44895 156.930669 -48.359106 151.407231 -49.488012 141.458013 C -50.265356 136.141606 -53.046606 132.696294 -58.351294 131.23145 C -100.218481 119.602544 -141.999731 107.688481 -183.851294 96.0127 C -184.652075 95.786138 -185.437231 95.504888 -186.234106 95.2627 C -186.734106 95.110356 -187.128637 94.85645 -187.218481 94.305669 C -187.32395 93.688481 -186.894262 93.3877 -186.433325 93.211919 C -184.562231 92.5127 -182.675512 91.852544 -180.796606 91.172856 C -114.671606 67.426763 -48.683325 43.29395 17.469019 19.633794 C 24.035425 17.305669 22.054956 17.551763 28.4573 19.836919 C 96.0198 44.063481 163.414331 68.743169 230.840113 93.352544 C 231.30105 93.520513 231.679956 93.961919 231.55105 94.516606 C 231.48855 94.774419 231.195581 95.090825 230.937769 95.180669 C 228.886988 95.875981 226.840113 96.590825 224.758081 97.176763 C 184.05105 108.622075 143.336206 120.040044 102.617456 131.438481 C 100.539331 132.028325 98.465113 132.696294 96.48855 133.555669 C 91.726831 135.625981 90.125269 139.641606 90.195581 144.500981 C 90.2698 149.551763 92.844019 153.243169 97.23855 155.000981 C 99.969019 156.090825 102.640894 156.270513 105.523706 155.430669 C 139.969019 145.711919 174.418238 135.985356 208.840113 126.184575 C 225.656519 121.407231 242.449488 116.551763 259.289331 111.860356 C 272.875269 108.211919 274.660425 97.493169 279.820581 86.16895 C 289.594019 63.184575 299.3948 40.204106 309.187769 17.23145 C 311.140894 12.313481 311.699488 7.317388 310.23855 2.079106 C 308.699488 -4.0498 304.05105 -8.217769 298.355738 -10.448237 C 286.2698 -15.190425 274.168238 -19.905269 262.058863 -24.592769 C 256.4573 -26.760737 256.347925 -26.760737 256.328394 -32.9248 C 256.285425 -46.584956 256.347925 -60.245112 256.320581 -73.905269 C 256.340113 -108.061519 255.953394 -142.217769 256.265894 -176.366206 C 256.875269 -190.307612 248.242456 -203.428706 235.230738 -208.495112 C 170.074488 -235.241206 104.793238 -261.678706 39.539331 -288.186519 C 34.570581 -290.202144 29.461206 -291.592769 24.054956 -291.819331 C 17.781519 -292.077144 11.785425 -290.874019 5.996363 -288.561519 C -20.269262 -278.006831 -46.464575 -267.280269 -72.691137 -256.635737 C -109.5427 -241.604487 -146.437231 -226.702144 -183.32395 -211.76855 C -198.620825 -206.338862 -209.144262 -199.959956 -212.691137 -182.991206 C -213.507544 -179.057612 -213.577856 -175.057612 -213.57395 -171.0498 C -213.546606 -148.39355 -213.558325 -125.733394 -213.558325 -103.073237 Z M -213.425512 -103.073237 " transform="matrix(1,0,0,-1,4088.7927,3633.9502)"/>
<path style=" stroke:none;fill-rule:nonzero;fill:rgb(27.842712%,14.509583%,1.960754%);fill-opacity:1;" d="M 4204.320312 3367.015625 C 4204.226562 3371.609375 4202.90625 3374.796875 4200.5625 3377.539062 C 4195.804688 3383.105469 4190.976562 3388.617188 4186.199219 3394.167969 C 4173.621094 3408.824219 4161.046875 3423.480469 4148.417969 3438.089844 C 4136.394531 3452.125 4124.226562 3466.035156 4112.265625 3480.121094 C 4105.714844 3487.953125 4095.007812 3487.253906 4088.957031 3480.859375 C 4083.003906 3474.570312 4076.746094 3468.574219 4070.625 3462.449219 C 4062.027344 3453.851562 4053.449219 3445.234375 4044.828125 3436.664062 C 4042.671875 3434.523438 4040.792969 3432.277344 4039.902344 3429.285156 C 4038.132812 3423.355469 4039.957031 3417.125 4044.464844 3414.082031 C 4050.964844 3409.609375 4059.332031 3411.457031 4064.175781 3417.355469 C 4075.34375 3428.5625 4086.5 3439.78125 4097.664062 3450.996094 C 4098.480469 3451.824219 4099.773438 3453.429688 4100.9375 3452.308594 C 4123.238281 3426.925781 4144.714844 3400.804688 4166.8125 3375.238281 C 4171.246094 3370.042969 4175.652344 3364.828125 4180.148438 3359.691406 C 4187.902344 3350.484375 4204.058594 3354.585938 4204.320312 3367.015625 "/>
<path style="fill:none;stroke-width:7;stroke-linecap:butt;stroke-linejoin:miter;stroke:rgb(27.842712%,14.509583%,1.960754%);stroke-opacity:1;stroke-miterlimit:10;" d="M 0.0010125 -0.000025 C -0.0927375 -4.593775 -1.41305 -7.781275 -3.7568 -10.523462 C -8.514613 -16.089869 -13.342738 -21.601587 -18.120081 -27.152369 C -30.698206 -41.808619 -43.272425 -56.464869 -55.901331 -71.074244 C -67.924769 -85.1094 -80.092738 -99.019556 -92.053675 -113.105494 C -98.604456 -120.937525 -109.311488 -120.238306 -115.362269 -113.843775 C -121.315394 -107.554712 -127.573206 -101.558619 -133.6943 -95.433619 C -142.291956 -86.835962 -150.870081 -78.218775 -159.491175 -69.648462 C -161.647425 -67.507837 -163.526331 -65.261744 -164.416956 -62.269556 C -166.186488 -56.339869 -164.362269 -50.1094 -159.854456 -47.066431 C -153.354456 -42.593775 -144.987269 -44.441431 -140.143519 -50.339869 C -128.97555 -61.5469 -117.8193 -72.76565 -106.655238 -83.980494 C -105.838831 -84.808619 -104.545863 -86.414087 -103.3818 -85.292994 C -81.081019 -59.910181 -59.604456 -33.789087 -37.5068 -8.222681 C -33.073206 -3.027369 -28.666956 2.187475 -24.170863 7.324194 C -16.416956 16.531225 -0.260706 12.429663 0.0010125 -0.000025 Z M 0.0010125 -0.000025 " transform="matrix(1,0,0,-1,4204.3193,3367.0156)"/>
</svg>
