<?xml version="1.0" encoding="UTF-8"?>
<svg xmlns="http://www.w3.org/2000/svg" width="256" height="256" viewBox="442.59 830.59 776.81 776.81" preserveAspectRatio="xMidYMid meet">
<path style="fill-rule:nonzero;fill:rgb(27.842712%,14.509583%,1.960754%);fill-opacity:1;stroke-width:7;stroke-linecap:butt;stroke-linejoin:miter;stroke:rgb(27.842712%,14.509583%,1.960754%);stroke-opacity:1;stroke-miterlimit:10;" d="M -0.00169375 0.00044375 C -71.470444 -0.116744 -142.947006 0.289506 -214.419662 -0.249556 C -228.966537 -0.851119 -241.556381 10.480913 -243.458725 24.742631 C -244.771225 118.996538 -243.564194 213.383256 -243.982162 307.680131 C -243.982162 311.676225 -243.970444 315.676225 -243.919662 319.672319 C -244.0056 324.852006 -241.841537 329.555131 -235.810287 329.418413 C -231.732162 329.387163 -229.142319 327.242631 -228.767319 323.168413 C -227.732162 303.543413 -228.91185 283.844194 -228.66185 264.195756 C -228.47435 186.875444 -229.103256 109.543413 -228.3806 32.234819 C -228.767319 21.50435 -221.521225 14.918413 -212.993881 15.144975 C -82.716537 14.711381 47.572525 15.055131 177.857681 15.0981 C 189.83815 15.2856 201.873306 14.559038 213.830338 15.320756 C 221.646744 16.246538 226.486588 21.430131 226.830338 29.301225 C 227.02565 33.793413 226.967056 38.297319 226.967056 42.797319 C 227.099869 135.113725 226.795181 227.44185 226.943619 319.75435 C 226.998306 321.242631 227.193619 322.750444 227.52565 324.199663 C 228.092056 326.687944 229.701431 328.203569 232.197525 328.875444 C 243.822525 331.664506 242.709244 320.051225 242.7444 312.008256 C 242.689713 218.852006 242.599869 125.699663 242.65065 32.543413 C 242.65065 28.359819 242.420181 24.215288 241.146744 20.195756 C 237.959244 9.676225 228.072525 0.539506 216.912369 0.0277875 C 144.615494 0.12935 72.302994 -0.0034625 -0.00169375 -0.0034625 Z M -0.00169375 0.00044375 " transform="matrix(1,0,0,-1,832.0681,1486.2231)"/>
<path style=" stroke:none;fill-rule:nonzero;fill:rgb(27.842712%,14.509583%,1.960754%);fill-opacity:1;" d="M 832.382812 952.464844 C 838.753906 952.824219 844.382812 954.652344 849.445312 958.15625 C 877.371094 977.523438 905.164062 997.078125 933.019531 1016.546875 C 993.972656 1059.574219 1055.585938 1101.785156 1116.191406 1145.25 C 1120.992188 1149.613281 1118.691406 1158.339844 1111.707031 1158.621094 C 1106.769531 1159.136719 1103.167969 1155.359375 1099.300781 1152.910156 C 1013.28125 1093.082031 927.660156 1032.6875 841.789062 972.648438 C 832.300781 965.464844 826.789062 968.195312 817.964844 974.574219 C 779.066406 1001.792969 740.21875 1029.078125 701.3125 1056.285156 C 658.816406 1085.621094 616.761719 1115.585938 574.355469 1145.050781 C 569.167969 1148.679688 563.972656 1152.292969 558.800781 1155.941406 C 556.855469 1157.3125 554.820312 1158.332031 552.371094 1158.375 C 546.304688 1158.484375 542.621094 1152.875 545.109375 1147.335938 C 546.039062 1145.261719 547.671875 1143.890625 549.464844 1142.636719 C 555.335938 1138.535156 561.203125 1134.429688 567.074219 1130.324219 C 634.605469 1083.011719 702.261719 1035.875 769.828125 988.609375 C 783.757812 978.882812 797.761719 969.257812 811.621094 959.425781 C 817.964844 954.921875 824.921875 952.683594 832.382812 952.464844 "/>
<path style="fill:none;stroke-width:7;stroke-linecap:butt;stroke-linejoin:miter;stroke:rgb(27.842712%,14.509583%,1.960754%);stroke-opacity:1;stroke-miterlimit:10;" d="M 0.0016125 -0.00094375 C 6.372706 -0.360319 12.001613 -2.188444 17.064113 -5.69235 C 44.989894 -25.059538 72.782863 -44.614225 100.638331 -64.082975 C 161.591456 -107.110319 223.204738 -149.321256 283.810206 -192.7861 C 288.610988 -197.149381 286.310206 -205.875944 279.325831 -206.157194 C 274.388331 -206.672819 270.786769 -202.895475 266.919581 -200.446256 C 180.90005 -140.618131 95.278956 -80.2236 9.407863 -20.184538 C -0.0804187 -13.000944 -5.592137 -15.731413 -14.416356 -22.110319 C -53.314794 -49.329069 -92.16245 -76.614225 -131.0687 -103.821256 C -173.564794 -133.157194 -215.619481 -163.122038 -258.025731 -192.586881 C -263.213231 -196.215788 -268.408544 -199.829069 -273.580419 -203.477506 C -275.525731 -204.8486 -277.560887 -205.868131 -280.010106 -205.9111 C -286.076512 -206.020475 -289.760106 -200.4111 -287.271825 -194.872038 C -286.342137 -192.797819 -284.709325 -191.426725 -282.916356 -190.172819 C -277.045262 -186.071256 -271.178075 -181.965788 -265.306981 -177.860319 C -197.775731 -130.547819 -130.119481 -83.4111 -62.553075 -36.145475 C -48.623387 -26.418913 -34.619481 -16.793913 -20.760106 -6.961881 C -14.416356 -2.457975 -7.459325 -0.219694 0.0016125 -0.00094375 Z M 0.0016125 -0.00094375 " transform="matrix(1,0,0,-1,832.3812,952.4639)"/>
<path style=" stroke:none;fill-rule:nonzero;fill:rgb(27.842712%,14.509583%,1.960754%);fill-opacity:1;" d="M 926.046875 1330.527344 L 925.910156 1330.527344 C 925.734375 1301.050781 926.257812 1271.53125 925.707031 1242.078125 C 925.085938 1236.90625 920.617188 1234.195312 915.65625 1234.480469 C 859.046875 1233.746094 802.398438 1234.5 745.785156 1234.550781 C 740.878906 1235.015625 737.871094 1237.96875 737.453125 1242.898438 C 736.828125 1297.023438 737.398438 1351.183594 737.207031 1405.320312 C 737.207031 1408.984375 737.285156 1412.652344 737.429688 1416.3125 C 737.65625 1422.207031 740.605469 1425.191406 746.386719 1425.453125 C 803.671875 1425.457031 860.984375 1425.789062 918.261719 1425.367188 C 922.179688 1425.039062 925.785156 1421.851562 925.890625 1417.484375 C 926.273438 1388.503906 925.9375 1359.511719 926.046875 1330.527344 M 939.203125 1329.972656 C 938.949219 1360.609375 939.734375 1391.289062 938.867188 1421.910156 C 938.363281 1428.730469 931.621094 1437.589844 921.980469 1438.46875 C 916.996094 1438.921875 912.046875 1439.09375 907.03125 1438.914062 C 853.425781 1437.671875 799.78125 1438.636719 746.164062 1438.832031 C 733.058594 1439.320312 723.378906 1430.351562 723.828125 1416.992188 C 723.609375 1360.851562 723.785156 1304.710938 723.726562 1248.570312 C 723.722656 1245.074219 723.679688 1241.574219 724.222656 1238.101562 C 725.632812 1229.128906 731.996094 1222.742188 740.933594 1221.261719 C 743.90625 1220.769531 746.890625 1220.597656 749.890625 1220.601562 C 778.371094 1220.609375 806.851562 1220.605469 835.328125 1220.625 C 861.976562 1220.644531 888.625 1220.695312 915.273438 1220.722656 C 917.941406 1220.726562 920.59375 1220.773438 923.226562 1221.316406 C 931.507812 1223.023438 937.453125 1229.203125 938.796875 1237.535156 C 939.328125 1240.847656 939.214844 1244.183594 939.203125 1247.511719 C 939.066406 1274.996094 938.988281 1302.484375 939.03125 1329.972656 Z M 939.203125 1329.972656 "/>
<path style="fill:none;stroke-width:7;stroke-linecap:butt;stroke-linejoin:miter;stroke:rgb(27.842712%,14.509583%,1.960754%);stroke-opacity:1;stroke-miterlimit:10;" d="M 0.001875 -0.00144375 L -0.134844 -0.00144375 C -0.310625 29.475119 0.212813 58.99465 -0.337969 88.447775 C -0.959062 93.61965 -5.427812 96.330588 -10.38875 96.045431 C -66.998125 96.779806 -123.646562 96.0259 -180.259844 95.975119 C -185.166094 95.510275 -188.173906 92.55715 -188.591875 87.627463 C -189.216875 33.502463 -188.646562 -20.657694 -188.837969 -74.794412 C -188.837969 -78.458475 -188.759844 -82.126444 -188.615312 -85.7866 C -188.38875 -91.681131 -185.439531 -94.665506 -179.658281 -94.927225 C -122.373125 -94.931131 -65.060625 -95.263162 -7.783281 -94.841287 C -3.865312 -94.513162 -0.259844 -91.325662 -0.154375 -86.958475 C 0.228438 -57.978006 -0.1075 -28.985819 0.001875 -0.00144375 Z M 13.158125 0.553244 C 12.904219 -30.083475 13.689375 -60.763162 12.822188 -91.384256 C 12.318281 -98.204569 5.576094 -107.063944 -4.064531 -107.94285 C -9.048906 -108.395975 -13.998125 -108.56785 -19.01375 -108.388162 C -72.619219 -107.145975 -126.26375 -108.110819 -179.880937 -108.306131 C -192.986406 -108.794412 -202.666094 -99.825662 -202.216875 -86.466287 C -202.435625 -30.325662 -202.259844 25.814963 -202.318437 81.955588 C -202.322344 85.451681 -202.365312 88.951681 -201.822344 92.424338 C -200.412187 101.396994 -194.048906 107.783713 -185.111406 109.264181 C -182.13875 109.756369 -179.154375 109.928244 -176.154375 109.924338 C -147.673906 109.916525 -119.193437 109.920431 -90.716875 109.9009 C -64.068437 109.881369 -37.42 109.830588 -10.771562 109.803244 C -8.103594 109.799338 -5.45125 109.752463 -2.818437 109.209494 C 5.462813 107.502463 11.408125 101.322775 12.751875 92.990744 C 13.283125 89.678244 13.169844 86.342306 13.158125 83.014181 C 13.021406 55.529806 12.943281 28.041525 12.98625 0.553244 Z M 13.158125 0.553244 " transform="matrix(1,0,0,-1,926.045,1330.5259)"/>
<path style="fill-rule:nonzero;fill:rgb(27.842712%,14.509583%,1.960754%);fill-opacity:1;stroke-width:7;stroke-linecap:butt;stroke-linejoin:miter;stroke:rgb(27.842712%,14.509583%,1.960754%);stroke-opacity:1;stroke-miterlimit:10;" d="M 0.00119375 0.0010125 C 0.00119375 9.165075 0.00119375 18.329137 -0.0027125 27.497106 C -0.0027125 28.817419 0.188694 30.157262 -0.330837 31.442419 C -0.549587 31.985387 -1.5574 32.415075 -1.983181 32.020544 C -3.569119 30.551794 -5.123806 29.047887 -6.674587 27.536169 C -7.865994 26.379919 -8.96365 25.126012 -10.541775 24.426794 C -13.596462 23.067419 -17.104275 24.364294 -18.541775 27.3682 C -20.178494 30.383825 -17.920681 33.157262 -15.897244 35.251012 C -10.865994 40.348669 -5.787869 45.403356 -0.71365 50.46195 C 2.09885 53.793981 6.669163 55.223669 10.298069 52.204137 C 15.969944 46.817419 21.399631 41.153356 26.958225 35.645544 C 27.895725 34.704137 28.829319 33.723669 29.559788 32.622106 C 33.0676 27.516637 27.743381 22.184606 22.395725 24.247106 C 20.805881 24.887731 19.626194 26.063512 18.434788 27.231481 C 16.770725 28.860387 15.094944 30.481481 13.391819 32.075231 C 12.954319 32.481481 11.844944 32.094762 11.778538 31.512731 C 10.884006 14.571325 11.66135 -2.463831 11.399631 -19.436488 C 11.399631 -22.604456 11.372288 -25.768519 11.41135 -28.936488 C 11.423069 -29.924769 11.571506 -30.91305 11.716038 -31.893519 C 11.805881 -32.479456 12.884006 -32.909144 13.321506 -32.518519 C 16.094944 -30.147425 18.571506 -27.346644 21.415256 -25.108363 C 24.915256 -22.807581 29.048069 -24.295863 30.274631 -28.174769 C 31.243381 -30.686488 29.391819 -33.045863 27.864475 -34.846644 C 22.587131 -40.174769 17.28635 -45.47555 11.891819 -50.682581 C 7.930881 -54.502894 3.512913 -54.709925 -0.4949 -50.909144 C -6.049587 -45.639613 -11.326931 -40.073206 -16.647244 -34.557581 C -17.541775 -33.627894 -18.096462 -32.338831 -18.698025 -31.159144 C -19.260525 -30.065394 -19.139431 -28.920863 -18.670681 -27.776331 C -17.225369 -24.237269 -13.264431 -22.91305 -9.998806 -25.061488 C -7.100369 -27.237269 -4.698025 -30.123988 -2.002712 -32.5693 C -1.58865 -32.963831 -0.451931 -32.530238 -0.40115 -31.956019 C 0.407444 -21.334925 -0.323025 -10.647425 -0.104275 0.0010125 Z M 0.00119375 0.0010125 " transform="matrix(1,0,0,-1,825.8074,1125.1182)"/>
<path style="fill-rule:nonzero;fill:rgb(27.842712%,14.509583%,1.960754%);fill-opacity:1;stroke-width:7;stroke-linecap:butt;stroke-linejoin:miter;stroke:rgb(27.842712%,14.509583%,1.960754%);stroke-opacity:1;stroke-miterlimit:10;" d="M -0.00075625 -0.0019375 C 6.663306 -0.0019375 13.323463 -0.0019375 19.987525 -0.0019375 C 21.155494 0.134781 23.061744 -0.439438 23.639869 0.86525 C 23.842994 1.513687 23.339088 2.099625 22.87815 2.603531 C 21.757056 3.834 20.635963 5.068375 19.542213 6.322281 C 17.116431 8.853531 14.952369 11.712906 17.948463 14.939469 C 20.671119 18.048844 24.155494 16.216812 26.452369 13.591812 C 30.514869 9.408219 34.546119 5.197281 38.569556 0.982437 C 41.792213 -2.07225 43.928931 -5.955063 40.717994 -9.935531 C 36.257056 -14.873031 31.428931 -19.494125 26.807838 -24.283188 C 24.460181 -26.787094 21.210181 -28.865219 18.186744 -26.068344 C 13.960181 -22.646469 18.7844 -17.990219 21.401588 -15.267563 C 22.260963 -14.310531 23.870338 -13.376938 23.464088 -12.080063 C 22.948463 -10.419906 20.999244 -10.75975 19.600806 -10.75975 C 16.108619 -10.751938 12.612525 -11.001938 9.116431 -11.005844 C -1.37185 -11.07225 -11.867944 -10.849594 -22.356225 -10.990219 C -23.000756 -11.037094 -23.797631 -11.029281 -23.895287 -11.892563 C -23.942162 -12.318344 -23.750756 -12.88475 -23.4656 -13.208969 C -22.364037 -14.455063 -21.1531 -15.607406 -20.032006 -16.837875 C -19.137475 -17.82225 -18.18435 -18.787094 -17.485131 -19.900375 C -14.641381 -24.287094 -19.844506 -29.69725 -24.321069 -26.767563 C -25.024194 -26.341781 -25.692162 -25.806625 -26.266381 -25.216781 C -30.789819 -20.552719 -35.289819 -15.869125 -39.782006 -11.181625 C -41.207787 -9.693344 -42.141381 -7.966781 -42.227319 -5.8535 C -42.321069 -3.544906 -41.438256 -1.642563 -39.864037 -0.00975 C -35.348412 4.662125 -30.844506 9.341812 -26.321069 14.001969 C -24.504662 15.978531 -21.805444 17.466812 -19.242944 15.880875 C -15.918725 14.037125 -16.360131 9.216812 -18.938256 6.822281 C -20.4031 5.228531 -21.949975 3.709 -23.391381 2.095719 C -23.664819 1.791031 -23.828881 1.111344 -23.672631 0.779312 C -23.504662 0.42775 -22.907006 0.103531 -22.481225 0.0761875 C -20.6531 -0.025375 -18.817162 -0.0370938 -16.989037 -0.041 C -11.324975 -0.0527188 -5.664819 -0.0449063 -0.00075625 -0.0449063 Z M -0.00075625 -0.0019375 " transform="matrix(1,0,0,-1,1000.0281,1318.1465)"/>
<path style=" stroke:none;fill-rule:nonzero;fill:rgb(27.842712%,14.509583%,1.960754%);fill-opacity:1;" d="M 664.0625 1318.257812 C 670.554688 1318.257812 677.050781 1318.265625 683.542969 1318.246094 C 684.527344 1318.242188 685.53125 1318.1875 686.484375 1317.972656 C 686.910156 1317.878906 687.273438 1317.214844 686.949219 1316.757812 C 685.296875 1314.46875 683.164062 1312.574219 681.316406 1310.449219 C 680.054688 1308.976562 679.574219 1307.230469 679.996094 1305.320312 C 680.628906 1302.429688 684.023438 1300.714844 686.65625 1302.066406 C 687.808594 1302.660156 688.828125 1303.597656 689.75 1304.539062 C 693.957031 1308.808594 698.117188 1313.128906 702.261719 1317.457031 C 705.179688 1320.105469 706.710938 1324.230469 704.234375 1327.714844 C 700.042969 1332.644531 695.304688 1337.144531 690.878906 1341.882812 C 689.957031 1342.835938 688.988281 1343.777344 687.914062 1344.542969 C 683.617188 1347.847656 677.503906 1342.707031 680.75 1337.925781 C 681.933594 1336.144531 683.59375 1334.6875 684.980469 1333.035156 C 685.808594 1332.046875 687.527344 1331.207031 687.011719 1329.847656 C 686.351562 1328.109375 684.417969 1328.84375 683.003906 1328.851562 C 669.683594 1328.976562 656.355469 1329 643.042969 1329.246094 C 641.9375 1329.339844 640.472656 1328.847656 639.875 1330.042969 C 639.097656 1331.589844 640.769531 1332.347656 641.515625 1333.324219 C 643.648438 1336.214844 648.988281 1340.152344 645.542969 1343.777344 C 643.757812 1345.753906 641.433594 1346.222656 639.265625 1344.867188 C 638.148438 1344.167969 637.132812 1343.269531 636.203125 1342.328125 C 632.21875 1338.304688 628.253906 1334.261719 624.339844 1330.171875 C 619.503906 1325.117188 619.507812 1322.414062 624.25 1317.417969 C 629.027344 1312.558594 633.484375 1307.324219 638.507812 1302.726562 C 642.980469 1299.019531 649.222656 1305.21875 645.566406 1309.636719 C 643.800781 1311.824219 641.613281 1313.6875 639.921875 1315.957031 C 639.335938 1316.714844 639.699219 1317.726562 640.621094 1317.839844 C 642.265625 1318.039062 643.925781 1318.214844 645.578125 1318.226562 C 651.742188 1318.269531 657.902344 1318.242188 664.0625 1318.242188 C 664.0625 1318.246094 664.0625 1318.253906 664.0625 1318.257812 "/>
<path style="fill:none;stroke-width:7;stroke-linecap:butt;stroke-linejoin:miter;stroke:rgb(27.842712%,14.509583%,1.960754%);stroke-opacity:1;stroke-miterlimit:10;" d="M 0.0002 -0.0015125 C 6.492388 -0.0015125 12.988481 -0.009325 19.480669 0.0102063 C 20.465044 0.0141125 21.46895 0.0688 22.422075 0.283644 C 22.847856 0.377394 23.211138 1.041456 22.886919 1.498488 C 21.234575 3.78755 19.101763 5.682081 17.254106 7.807081 C 15.992388 9.279738 15.511919 11.025831 15.933794 12.935988 C 16.566606 15.826613 19.961138 17.541456 22.59395 16.189894 C 23.746294 15.596144 24.765825 14.658644 25.6877 13.717238 C 29.894731 9.447706 34.054888 5.127394 38.199419 0.799269 C 41.117388 -1.849169 42.648638 -5.974169 40.172075 -9.458544 C 35.980669 -14.388231 31.242388 -18.888231 26.816606 -23.626512 C 25.894731 -24.579637 24.925981 -25.521044 23.851763 -26.286669 C 19.554888 -29.591356 13.441606 -24.450731 16.6877 -19.669481 C 17.871294 -17.888231 19.53145 -16.4312 20.918169 -14.778856 C 21.746294 -13.790575 23.465044 -12.950731 22.949419 -11.591356 C 22.289263 -9.853075 20.355669 -10.58745 18.941606 -10.595262 C 5.621294 -10.720262 -7.706831 -10.7437 -21.019331 -10.989794 C -22.1248 -11.083544 -23.589644 -10.591356 -24.1873 -11.786669 C -24.964644 -13.333544 -23.292769 -14.091356 -22.546675 -15.067919 C -20.413862 -17.958544 -15.074019 -21.896044 -18.519331 -25.521044 C -20.304487 -27.497606 -22.628706 -27.966356 -24.796675 -26.610887 C -25.913862 -25.911669 -26.929487 -25.013231 -27.859175 -24.071825 C -31.84355 -20.048387 -35.808394 -16.005419 -39.722456 -11.915575 C -44.558394 -6.860887 -44.554487 -4.157762 -39.8123 0.838331 C -35.034956 5.697706 -30.577925 10.932081 -25.554487 15.529738 C -21.081831 19.236769 -14.839644 13.03755 -18.495894 8.619581 C -20.261519 6.432081 -22.449019 4.5688 -24.140425 2.299269 C -24.726362 1.541456 -24.363081 0.529738 -23.441206 0.416456 C -21.796675 0.217238 -20.136519 0.0414563 -18.484175 0.0297375 C -12.320112 -0.0132312 -6.159956 0.0141125 0.0002 0.0141125 C 0.0002 0.0102063 0.0002 0.00239375 0.0002 -0.0015125 Z M 0.0002 -0.0015125 " transform="matrix(1,0,0,-1,664.0623,1318.2563)"/>
</svg>
