<svg width="508" height="410" viewBox="0 0 508 410" fill="none" xmlns="http://www.w3.org/2000/svg">
<path d="M242.617 408.421C176.742 408.421 110.859 408.031 44.9842 408.608C17.2645 408.852 0.354536 387.381 0.500943 363.855C0.956431 288.553 0.671672 213.252 0.622869 137.951C0.622869 128.41 0.834584 118.983 5.74735 110.353C13.7265 96.3587 25.6832 88.7359 41.8367 88.6465C75.4534 88.4515 109.07 88.5815 142.686 88.5815C194.336 88.5815 245.977 88.5815 297.626 88.5815C298.171 88.5815 298.708 88.5815 299.253 88.5815C304.491 88.6465 307.581 91.117 307.679 95.3185C307.785 99.8938 304.523 102.738 299.025 102.738C214.304 102.738 129.583 102.738 44.8623 102.706C26.4069 102.706 14.8164 114.099 14.8164 132.538C14.792 210.546 14.8082 288.561 14.8326 366.569C14.8326 382.383 26.7974 394.272 42.7069 394.272C175.685 394.289 308.663 394.289 441.633 394.272C458.454 394.272 469.914 382.668 469.906 365.854C469.898 293.941 469.898 222.029 469.898 150.108C469.898 148.483 469.808 146.841 470.003 145.24C470.483 141.218 473.655 138.576 477.543 138.812C481.073 139.023 483.603 141.632 483.749 145.582C483.912 150.043 483.855 154.521 483.855 158.991C483.847 227.791 483.823 296.591 483.814 365.391C483.814 391.128 466.53 408.38 440.665 408.38C374.652 408.38 308.639 408.38 242.626 408.38V408.429L242.617 408.421Z" fill="#472505" stroke="#472505" stroke-miterlimit="10"/>
<path d="M414.253 185.826C409.267 185.883 405.42 182.892 403.939 177.716C400.808 166.777 396.684 156.213 392.357 145.705C386.33 131.077 376.349 120.642 361.522 114.669C351.338 110.565 341.049 106.835 330.557 103.625C324.709 101.837 321.984 98.9118 321.886 94.3284C321.772 89.103 324.668 85.4541 330.516 83.4793C343.725 79.0259 356.934 74.6294 369.265 67.9412C377.504 63.4716 383.849 57.336 388.282 49.0956C394.984 36.6294 399.246 23.2204 403.671 9.86838C404.444 7.53604 405.208 5.25246 407.014 3.47273C412.504 -1.93147 421.361 0.327729 424.046 7.86111C427.088 16.3941 430.081 24.9433 433.098 33.4843C433.277 33.9963 433.538 34.4758 433.708 34.9878C440.378 55.67 454.628 68.4695 475.012 75.2227C483.349 77.9857 491.434 81.4964 499.803 84.2188C504.691 85.8035 507.245 89.5337 507.115 94.2552C506.993 98.7736 504.415 101.715 499.282 103.341C488.318 106.819 477.427 110.46 466.715 114.718C448.959 121.772 439.378 135.668 433.18 152.686C430.13 161.072 427.242 169.516 424.347 177.951C422.606 183.014 419.182 185.753 414.253 185.818V185.826ZM414.212 164.575C420.158 147.818 425.282 130.752 437.881 117.766C450.562 104.698 467.431 98.9118 485.529 93.4426C474.89 90.1513 465.788 86.4374 456.898 82.1709C443.38 75.6778 432.944 66.194 426.404 52.4844C422.02 43.3013 418.564 33.7932 415.294 24.1875C415.034 23.4155 415.196 22.2615 413.992 22.1965C407.803 38.6935 403.321 55.9951 390.649 69.0871C377.968 82.1953 360.822 87.2338 343.449 93.5401C345.181 94.1415 345.913 94.434 346.67 94.6534C355.666 97.2621 364.32 100.708 372.763 104.755C386.232 111.215 396.074 121.097 402.434 134.677C406.973 144.372 410.609 154.376 414.204 164.559L414.212 164.575Z" fill="#472505" stroke="#472505" stroke-miterlimit="10"/>
<path d="M108.032 256.29C100.703 250.561 95.0991 244.441 91.691 236.534C80.8488 211.358 92.7485 183.5 118.427 174.049C143.617 164.776 171.776 178.884 179.039 205.068C184.31 224.06 178.803 240.329 164.155 253.478C160.917 256.379 160.844 256.306 164.927 258.232C184.48 267.456 196.925 282.701 203.115 303.246C204.416 307.569 204.815 312.014 204.896 316.484C204.978 320.962 202.603 323.635 198.593 323.952C194.566 324.269 191.297 321.587 191.126 317.118C190.182 292.974 170.141 270.707 144.91 266.31C111.009 260.402 80.0031 283.872 77.7176 317.085C77.4085 321.53 74.5533 324.188 70.3563 323.968C66.1918 323.757 63.6056 320.945 63.9065 316.273C65.2893 294.461 75.5212 277.5 92.7403 264.457C97.1732 261.093 102.119 258.598 108.048 256.274L108.032 256.29ZM134.06 250.748C151.621 250.78 166.822 235.754 166.944 218.265C167.066 200.208 152.784 185.515 135.15 185.556C116.532 185.596 101.565 200.013 101.468 217.997C101.37 235.478 116.54 250.715 134.068 250.748H134.06Z" fill="#472505" stroke="#472505" stroke-miterlimit="10"/>
<path d="M330.605 234.996C303.373 234.996 276.141 234.996 248.91 234.996C247.828 234.996 246.722 235.045 245.664 234.858C242.085 234.224 239.483 231.177 239.727 227.715C239.987 224.05 241.964 221.62 245.689 221.075C247.958 220.742 250.276 220.742 252.578 220.742C305.284 220.75 357.983 220.783 410.689 220.815C412.178 220.815 413.683 220.775 415.155 220.945C418.913 221.376 421.312 224.017 421.434 227.707C421.556 231.291 419.189 234.249 415.545 234.858C414.219 235.078 412.845 234.996 411.486 234.996C384.523 234.996 357.56 234.996 330.596 234.996H330.605Z" fill="#472505" stroke="#472505" stroke-miterlimit="10"/>
<path d="M299.748 290.565C283.229 290.565 266.709 290.565 250.19 290.565C248.701 290.565 247.18 290.654 245.732 290.394C242.105 289.744 239.941 287.558 239.738 283.795C239.542 280.203 241.934 277.27 245.554 276.571C246.603 276.368 247.709 276.359 248.791 276.359C282.92 276.359 317.041 276.376 351.17 276.384C351.576 276.384 351.983 276.384 352.39 276.4C356.847 276.652 359.678 279.464 359.572 283.535C359.466 287.599 356.603 290.386 352.162 290.5C347.558 290.613 342.955 290.573 338.351 290.573C325.483 290.573 312.624 290.573 299.756 290.573L299.748 290.565Z" fill="#472505" stroke="#472505" stroke-miterlimit="10"/>
</svg>
