<?xml version="1.0" encoding="UTF-8"?>
<svg xmlns="http://www.w3.org/2000/svg" width="256" height="256" viewBox="6212.22 841.72 766.58 766.58" preserveAspectRatio="xMidYMid meet">
<path style=" stroke:none;fill-rule:nonzero;fill:rgb(27.842712%,14.509583%,1.960754%);fill-opacity:1;" d="M 6811.597656 1182.003906 L 6811.675781 1182.003906 C 6811.691406 1196.828125 6811.65625 1211.65625 6811.652344 1226.480469 C 6811.65625 1227.777344 6811.335938 1229.351562 6812.648438 1230.140625 C 6814.140625 1231.042969 6814.984375 1229.453125 6816.039062 1228.792969 C 6833.1875 1214.792969 6850.0625 1200.414062 6867.316406 1186.527344 C 6870.625 1183.816406 6870.859375 1182.59375 6868.496094 1178.949219 C 6866.34375 1175.550781 6863.210938 1172.976562 6860.109375 1170.480469 C 6845.542969 1158.5625 6831.140625 1146.453125 6816.691406 1134.398438 C 6815.804688 1133.65625 6814.84375 1132.972656 6813.828125 1132.433594 C 6811.25 1131.472656 6811.628906 1137.078125 6811.597656 1138.523438 C 6811.59375 1153.015625 6811.597656 1167.511719 6811.597656 1182.003906 M 6381.382812 1182.042969 L 6381.625 1182.042969 C 6381.695312 1166.238281 6381.285156 1150.425781 6381.785156 1134.632812 C 6381.648438 1133.554688 6380.480469 1132.855469 6379.578125 1133.4375 C 6378.046875 1134.425781 6376.558594 1135.496094 6375.136719 1136.632812 C 6370.191406 1140.574219 6365.292969 1144.570312 6360.355469 1148.523438 C 6349.832031 1156.941406 6339.300781 1165.347656 6328.753906 1173.742188 C 6327.046875 1175.101562 6325.515625 1176.589844 6324.332031 1178.441406 C 6321.84375 1182.335938 6321.980469 1183.273438 6325.625 1186.339844 C 6342.695312 1200.421875 6359.734375 1214.539062 6376.796875 1228.628906 C 6378.207031 1229.820312 6381.351562 1232.433594 6381.464844 1228.96875 C 6381.3125 1213.328125 6381.398438 1197.683594 6381.382812 1182.042969 M 6871.503906 1342.710938 L 6871.417969 1342.710938 C 6871.410156 1296.902344 6871.433594 1251.089844 6871.414062 1205.285156 C 6871.328125 1204.070312 6870.335938 1203.425781 6869.359375 1204.050781 C 6865.65625 1206.324219 6862.433594 1209.21875 6859.15625 1212.039062 C 6826.203125 1239.082031 6793.546875 1266.484375 6760.554688 1293.484375 C 6740.445312 1310.183594 6720.230469 1326.773438 6700.214844 1343.582031 C 6698.238281 1345.390625 6699.699219 1346.679688 6701.351562 1347.871094 C 6738.636719 1380.109375 6776.609375 1411.535156 6814.019531 1443.628906 C 6830.886719 1458.242188 6847.929688 1472.644531 6864.910156 1487.117188 C 6868.480469 1490.164062 6869.375 1489.953125 6870.359375 1485.550781 C 6870.941406 1482.953125 6871.398438 1480.328125 6871.390625 1477.640625 C 6871.667969 1432.664062 6871.425781 1387.6875 6871.503906 1342.710938 M 6320.582031 1341.832031 L 6320.542969 1341.832031 C 6320.550781 1386.476562 6320.417969 1431.113281 6320.808594 1475.753906 C 6320.816406 1479.113281 6321.429688 1482.378906 6321.980469 1485.65625 C 6322.136719 1486.605469 6322.613281 1487.535156 6323.105469 1488.378906 C 6323.457031 1488.976562 6324.1875 1489.21875 6324.847656 1488.859375 C 6334.726562 1481.273438 6343.910156 1472.726562 6353.503906 1464.757812 C 6398.160156 1426.277344 6443.082031 1388.101562 6488.085938 1350.027344 C 6489.355469 1348.949219 6490.613281 1347.855469 6491.792969 1346.683594 C 6493.628906 1344.859375 6493.5625 1344.035156 6491.574219 1342.167969 C 6453.066406 1309.574219 6413.757812 1277.933594 6374.816406 1245.859375 C 6357.34375 1231.738281 6340.453125 1216.84375 6322.734375 1203.042969 C 6322.03125 1202.597656 6320.90625 1203.125 6320.800781 1203.929688 C 6320.695312 1204.75 6320.644531 1205.585938 6320.640625 1206.414062 C 6320.507812 1251.554688 6320.613281 1296.695312 6320.582031 1341.832031 M 6595.886719 1506.957031 L 6595.886719 1506.746094 C 6646.507812 1506.996094 6697.125 1506.566406 6747.742188 1506.992188 C 6768.71875 1506.644531 6789.707031 1507.152344 6810.691406 1507.085938 C 6821.019531 1507.042969 6831.335938 1506.28125 6841.660156 1506.980469 C 6847.210938 1507.226562 6852.675781 1505.8125 6857.40625 1502.96875 C 6858.460938 1502.277344 6858.597656 1501.3125 6857.777344 1500.480469 C 6857.191406 1499.886719 6856.546875 1499.355469 6855.917969 1498.808594 C 6807.65625 1457.097656 6758.773438 1416.113281 6710.28125 1374.667969 C 6703.925781 1369.292969 6697.488281 1364.007812 6691.214844 1358.535156 C 6686.898438 1354.769531 6686.96875 1354.628906 6682.613281 1358.246094 C 6664.3125 1373.226562 6646.511719 1388.84375 6627.824219 1403.335938 C 6617.148438 1411.550781 6606.226562 1412.332031 6593.269531 1412.386719 C 6581.363281 1412.664062 6569.730469 1408.140625 6560.660156 1400.5 C 6542.792969 1385.773438 6525.003906 1370.957031 6507.152344 1356.214844 C 6505.425781 1354.789062 6504.875 1354.714844 6503.222656 1356.019531 C 6476.695312 1378.042969 6450.78125 1400.808594 6424.238281 1422.816406 C 6395.761719 1447.1875 6367.402344 1471.699219 6338.976562 1496.128906 C 6337.589844 1497.320312 6336.242188 1498.570312 6334.957031 1499.875 C 6333.558594 1501.292969 6333.753906 1502.429688 6335.574219 1503.40625 C 6341.621094 1506.855469 6348.769531 1506.828125 6355.527344 1506.816406 C 6364.355469 1506.503906 6373.179688 1506.5 6382.011719 1506.65625 C 6389.339844 1506.785156 6396.675781 1507.265625 6403.988281 1507.023438 C 6467.941406 1506.226562 6531.933594 1506.21875 6595.886719 1506.957031 M 6597.273438 944.328125 C 6597.273438 944.382812 6597.273438 944.433594 6597.273438 944.484375 C 6540.140625 943.675781 6483.003906 943.878906 6425.867188 944.078125 C 6420.871094 944.121094 6415.871094 944.308594 6410.886719 944.621094 C 6401.683594 945.089844 6395.667969 952.210938 6395.796875 961.226562 C 6394.648438 1049.519531 6396.144531 1137.84375 6395.710938 1226.148438 C 6395.714844 1231.148438 6395.796875 1236.148438 6395.785156 1241.144531 C 6395.78125 1242.917969 6396.285156 1244.398438 6397.644531 1245.578125 C 6406.332031 1253.351562 6415.472656 1260.601562 6424.394531 1268.105469 C 6425.15625 1268.738281 6425.953125 1269.363281 6426.820312 1269.828125 C 6428.429688 1270.570312 6428.46875 1268.929688 6428.628906 1267.765625 C 6429.53125 1263.347656 6431.199219 1261.78125 6435.605469 1261.375 C 6507.871094 1261.503906 6580.234375 1261.042969 6652.46875 1261.589844 C 6659.308594 1262.835938 6659.78125 1273.90625 6652.007812 1274.238281 C 6595.398438 1273.777344 6538.734375 1273.855469 6482.105469 1273.933594 C 6467.277344 1273.945312 6452.453125 1274.082031 6437.628906 1274.167969 C 6436.511719 1274.183594 6435.253906 1274.054688 6434.476562 1275.011719 C 6434.105469 1275.453125 6434.355469 1276.015625 6434.699219 1276.355469 C 6441.992188 1283.179688 6450.089844 1289.09375 6457.660156 1295.601562 C 6494.742188 1326.816406 6532.1875 1357.601562 6569.289062 1388.792969 C 6572.25 1391.277344 6575.445312 1393.382812 6578.980469 1394.898438 C 6610.460938 1408.441406 6627.15625 1384.492188 6649.546875 1366.882812 C 6697.941406 1327.128906 6745.835938 1286.761719 6794.238281 1247.019531 C 6797.109375 1244.703125 6798.570312 1242.101562 6798.394531 1238.484375 C 6798.339844 1237.320312 6798.386719 1236.152344 6798.371094 1234.988281 C 6797.886719 1144.683594 6798.355469 1054.371094 6798.074219 964.0625 C 6798.925781 953.023438 6792.261719 944.128906 6780.675781 944.507812 C 6719.554688 943.226562 6658.40625 944.402344 6597.273438 944.328125 M 6595.859375 1520.078125 C 6512.722656 1520.050781 6429.582031 1519.9375 6346.445312 1520.589844 C 6322.574219 1520.582031 6307.699219 1500.886719 6306.921875 1480.980469 C 6306.515625 1401.65625 6306.953125 1322.320312 6306.832031 1242.996094 C 6306.835938 1226.996094 6306.769531 1211 6306.78125 1195.003906 C 6306.539062 1182.953125 6308.769531 1170.839844 6318.871094 1163.121094 C 6337.90625 1147.976562 6357.074219 1132.996094 6376.207031 1117.976562 C 6379.886719 1115.625 6381.382812 1112.417969 6381.320312 1107.917969 C 6381.144531 1094.753906 6381.402344 1081.585938 6381.414062 1068.421875 C 6381.601562 1032.597656 6381.070312 996.75 6381.640625 960.933594 C 6381.90625 955.417969 6382.710938 949.96875 6385.546875 945.066406 C 6393.890625 930.371094 6408.488281 929.609375 6423.667969 929.992188 C 6543.132812 930.066406 6662.597656 929.726562 6782.058594 930.082031 C 6796.808594 929.898438 6810.585938 941.613281 6811.597656 956.472656 C 6811.671875 1006.457031 6811.699219 1056.46875 6811.738281 1106.457031 C 6811.648438 1110.109375 6812.996094 1112.679688 6815.84375 1115.003906 C 6834.949219 1130.589844 6853.929688 1146.332031 6872.984375 1161.980469 C 6880.171875 1167.882812 6884.433594 1175.304688 6885.09375 1184.652344 C 6885.351562 1281.449219 6884.691406 1378.300781 6885.335938 1475.113281 C 6885.335938 1480.441406 6885.101562 1485.757812 6883.871094 1491 C 6882.664062 1496.128906 6880.480469 1500.726562 6877.171875 1504.8125 C 6870.511719 1513.328125 6860.835938 1519.851562 6849.773438 1520.296875 C 6765.15625 1521 6680.492188 1519.910156 6595.859375 1520.089844 Z M 6595.859375 1520.078125 "/>
<path style="fill:none;stroke-width:7;stroke-linecap:butt;stroke-linejoin:miter;stroke:rgb(27.842712%,14.509583%,1.960754%);stroke-opacity:1;stroke-miterlimit:10;" d="M 0.00145625 -0.00100625 L 0.0795812 -0.00100625 C 0.0952062 -14.825225 0.06005 -29.65335 0.0561437 -44.477569 C 0.06005 -45.774444 -0.260263 -47.348662 1.052237 -48.137725 C 2.544425 -49.040069 3.388175 -47.450225 4.442862 -46.790069 C 21.5913 -32.790069 38.4663 -18.411162 55.720206 -4.524444 C 59.0288 -1.813506 59.263175 -0.59085 56.899894 3.053681 C 54.74755 6.452119 51.614737 9.026338 48.513175 11.522431 C 33.946769 23.4404 19.544425 35.549775 5.095206 47.604463 C 4.208487 48.34665 3.24755 49.030244 2.231925 49.569306 C -0.3462 50.530244 0.0327062 44.924775 0.00145625 43.479463 C -0.00245 28.987275 0.00145625 14.491181 0.00145625 -0.00100625 Z M -430.213388 -0.0400687 L -429.9712 -0.0400687 C -429.900888 15.764619 -430.311044 31.577119 -429.811044 47.370088 C -429.947763 48.448213 -431.115731 49.147431 -432.018075 48.5654 C -433.549325 47.577119 -435.037606 46.506806 -436.459481 45.370088 C -441.404794 41.428681 -446.303231 37.432588 -451.240731 33.479463 C -461.764169 25.061494 -472.295419 16.655244 -482.842294 8.260713 C -484.549325 6.901338 -486.080575 5.413056 -487.264169 3.561494 C -489.75245 -0.333037 -489.615731 -1.270537 -485.9712 -4.336944 C -468.900888 -18.418975 -451.861825 -32.536162 -434.799325 -46.626006 C -433.389169 -47.817412 -430.244638 -50.430694 -430.131356 -46.96585 C -430.2837 -31.325225 -430.197763 -15.680694 -430.213388 -0.0400687 Z M 59.907706 -160.708037 L 59.821769 -160.708037 C 59.813956 -114.899444 59.837394 -69.086944 59.817862 -23.282256 C 59.731925 -22.067412 58.739737 -21.422881 57.763175 -22.047881 C 54.06005 -24.321319 50.837394 -27.21585 47.56005 -30.036162 C 14.606925 -57.079131 -18.049325 -84.481475 -51.041513 -111.481475 C -71.150888 -128.180694 -91.365731 -144.770537 -111.381356 -161.579131 C -113.357919 -163.387725 -111.896981 -164.676787 -110.244638 -165.868194 C -72.959481 -198.106475 -34.986825 -229.532256 2.423331 -261.626006 C 19.290519 -276.239287 36.333487 -290.641631 53.313956 -305.114287 C 56.884269 -308.161162 57.7788 -307.950225 58.763175 -303.547881 C 59.345206 -300.950225 59.802237 -298.325225 59.794425 -295.637725 C 60.071769 -250.661162 59.829581 -205.6846 59.907706 -160.708037 Z M -491.014169 -159.829131 L -491.053231 -159.829131 C -491.045419 -204.473662 -491.178231 -249.110381 -490.787606 -293.751006 C -490.779794 -297.110381 -490.166513 -300.376006 -489.615731 -303.65335 C -489.459481 -304.602569 -488.982919 -305.532256 -488.490731 -306.376006 C -488.139169 -306.973662 -487.4087 -307.21585 -486.748544 -306.856475 C -476.869638 -299.270537 -467.686044 -290.723662 -458.092294 -282.754912 C -413.436044 -244.274444 -368.514169 -206.098662 -323.510263 -168.024444 C -322.240731 -166.946319 -320.982919 -165.852569 -319.803231 -164.680694 C -317.967294 -162.856475 -318.0337 -162.032256 -320.021981 -160.165069 C -358.529794 -127.571319 -397.838388 -95.930694 -436.779794 -63.856475 C -454.25245 -49.735381 -471.143075 -34.84085 -488.861825 -21.040069 C -489.56495 -20.594756 -490.68995 -21.1221 -490.795419 -21.926787 C -490.900888 -22.7471 -490.951669 -23.583037 -490.955575 -24.411162 C -491.088388 -69.551787 -490.982919 -114.692412 -491.014169 -159.829131 Z M -215.709481 -324.954131 L -215.709481 -324.743194 C -165.088388 -324.993194 -114.4712 -324.563506 -63.854013 -324.989287 C -42.87745 -324.641631 -21.889169 -325.149444 -0.904794 -325.083037 C 9.423331 -325.040069 19.739737 -324.27835 30.063956 -324.977569 C 35.614737 -325.223662 41.079581 -323.8096 45.81005 -320.96585 C 46.864737 -320.274444 47.001456 -319.3096 46.181144 -318.477569 C 45.595206 -317.883819 44.950675 -317.352569 44.321769 -316.805694 C -3.93995 -275.094756 -52.822763 -234.110381 -101.31495 -192.665069 C -107.670419 -187.290069 -114.107919 -182.004912 -120.381356 -176.532256 C -124.697763 -172.766631 -124.62745 -172.626006 -128.982919 -176.243194 C -147.2837 -191.223662 -165.084481 -206.84085 -183.771981 -221.333037 C -194.447763 -229.547881 -205.369638 -230.329131 -218.326669 -230.383819 C -230.232919 -230.661162 -241.865731 -226.137725 -250.936044 -218.4971 C -268.803231 -203.770537 -286.592294 -188.954131 -304.443856 -174.211944 C -306.170419 -172.786162 -306.7212 -172.711944 -308.373544 -174.016631 C -334.900888 -196.040069 -360.81495 -218.805694 -387.357919 -240.813506 C -415.834481 -265.1846 -444.193856 -289.696319 -472.619638 -314.126006 C -474.006356 -315.317412 -475.354013 -316.567412 -476.639169 -317.8721 C -478.037606 -319.290069 -477.842294 -320.426787 -476.021981 -321.40335 C -469.975106 -324.852569 -462.826669 -324.825225 -456.068856 -324.813506 C -447.240731 -324.501006 -438.416513 -324.4971 -429.584481 -324.65335 C -422.256356 -324.782256 -414.920419 -325.262725 -407.607919 -325.020537 C -343.654794 -324.223662 -279.662606 -324.21585 -215.709481 -324.954131 Z M -214.322763 237.674775 C -214.322763 237.620088 -214.322763 237.569306 -214.322763 237.518525 C -271.455575 238.327119 -328.592294 238.123994 -385.729013 237.924775 C -390.725106 237.881806 -395.725106 237.694306 -400.709481 237.381806 C -409.912606 236.913056 -415.928231 229.791963 -415.799325 220.776338 C -416.947763 132.483369 -415.451669 44.15915 -415.885263 -44.145537 C -415.881356 -49.145537 -415.799325 -54.145537 -415.811044 -59.141631 C -415.81495 -60.915069 -415.311044 -62.395537 -413.951669 -63.575225 C -405.264169 -71.348662 -396.123544 -78.598662 -387.201669 -86.102569 C -386.43995 -86.735381 -385.643075 -87.360381 -384.775888 -87.825225 C -383.166513 -88.567412 -383.12745 -86.926787 -382.967294 -85.762725 C -382.06495 -81.344756 -380.396981 -79.77835 -375.990731 -79.3721 C -303.725106 -79.501006 -231.361825 -79.040069 -159.12745 -79.586944 C -152.287606 -80.833037 -151.81495 -91.90335 -159.588388 -92.235381 C -216.197763 -91.774444 -272.861825 -91.852569 -329.490731 -91.930694 C -344.318856 -91.942412 -359.143075 -92.079131 -373.967294 -92.165069 C -375.084481 -92.180694 -376.342294 -92.051787 -377.119638 -93.008819 C -377.490731 -93.450225 -377.240731 -94.012725 -376.896981 -94.352569 C -369.604013 -101.176787 -361.506356 -107.09085 -353.936044 -113.598662 C -316.854013 -144.813506 -279.4087 -175.598662 -242.307138 -206.790069 C -239.3462 -209.274444 -236.150888 -211.379912 -232.615731 -212.895537 C -201.135263 -226.438506 -184.43995 -202.489287 -162.049325 -184.879912 C -113.654794 -145.126006 -65.760263 -104.758819 -17.357919 -65.016631 C -14.486825 -62.700225 -13.025888 -60.098662 -13.201669 -56.481475 C -13.256356 -55.317412 -13.209481 -54.149444 -13.225106 -52.985381 C -13.709481 37.319306 -13.240731 127.631806 -13.521981 217.9404 C -12.670419 228.979463 -19.334481 237.873994 -30.920419 237.495088 C -92.041513 238.776338 -153.18995 237.600556 -214.322763 237.674775 Z M -215.736825 -338.075225 C -298.873544 -338.047881 -382.014169 -337.9346 -465.150888 -338.586944 C -489.021981 -338.579131 -503.896981 -318.883819 -504.674325 -298.977569 C -505.080575 -219.65335 -504.643075 -140.317412 -504.764169 -60.993194 C -504.760263 -44.993194 -504.826669 -28.9971 -504.81495 -13.001006 C -505.057138 -0.950225 -502.826669 11.163056 -492.725106 18.881806 C -473.68995 34.026338 -454.521981 49.006806 -435.389169 64.026338 C -431.709481 66.3779 -430.213388 69.584931 -430.275888 74.084931 C -430.451669 87.248994 -430.193856 100.416963 -430.182138 113.581025 C -429.994638 149.405244 -430.525888 185.2529 -429.955575 221.069306 C -429.68995 226.584931 -428.885263 232.03415 -426.049325 236.936494 C -417.705575 251.631806 -403.107919 252.393525 -387.928231 252.010713 C -268.463388 251.936494 -148.998544 252.276338 -29.537606 251.920869 C -14.787606 252.104463 -1.010263 240.389619 0.00145625 225.530244 C 0.075675 175.545869 0.103019 125.53415 0.142081 75.545869 C 0.0522375 71.893525 1.399894 69.323213 4.24755 66.998994 C 23.353019 51.413056 42.333487 35.670869 61.388175 20.022431 C 68.575675 14.120088 72.837394 6.698213 73.49755 -2.649444 C 73.755362 -99.446319 73.095206 -196.297881 73.739737 -293.110381 C 73.739737 -298.438506 73.505362 -303.754912 72.274894 -308.9971 C 71.067862 -314.126006 68.884269 -318.723662 65.575675 -322.8096 C 58.915519 -331.325225 49.239737 -337.848662 38.177237 -338.293975 C -46.43995 -338.9971 -131.104013 -337.907256 -215.736825 -338.086944 Z M -215.736825 -338.075225 " transform="matrix(1,0,0,-1,6811.5962,1182.0029)"/>
<path style=" stroke:none;fill-rule:nonzero;fill:rgb(27.842712%,14.509583%,1.960754%);fill-opacity:1;" d="M 6441.339844 1075.605469 C 6441.40625 1075.605469 6441.472656 1075.605469 6441.542969 1075.605469 C 6441.480469 1098.417969 6441.90625 1121.238281 6441.742188 1144.050781 C 6441.703125 1150.28125 6446.242188 1154.285156 6451.410156 1154.695312 C 6497.492188 1154.773438 6543.664062 1154.683594 6589.722656 1154.808594 C 6596.03125 1154.023438 6599.183594 1150.628906 6599.675781 1144.316406 C 6599.761719 1118.339844 6599.660156 1092.359375 6599.679688 1066.378906 C 6599.671875 1047.5625 6599.664062 1028.742188 6599.652344 1009.925781 C 6599.652344 1008.09375 6599.625 1006.269531 6599.160156 1004.46875 C 6597.6875 998.316406 6592.671875 996.578125 6586.875 996.605469 C 6579.554688 996.410156 6572.230469 996.140625 6564.90625 996.132812 C 6526.792969 996.386719 6488.632812 996.035156 6450.542969 996.8125 C 6445.292969 997.585938 6442.234375 1000.902344 6441.835938 1006.164062 C 6441.460938 1029.304688 6441.550781 1052.457031 6441.339844 1075.605469 M 6521.023438 1167.945312 C 6499.699219 1168.128906 6478.375 1168.316406 6457.046875 1168.492188 C 6453.214844 1168.523438 6449.390625 1168.632812 6445.589844 1167.875 C 6437.058594 1166.167969 6430.296875 1159.5 6428.507812 1150.953125 C 6427.921875 1148.160156 6427.789062 1145.335938 6427.789062 1142.5 C 6427.804688 1098.5 6427.765625 1054.5 6427.71875 1010.5 C 6426.929688 991.628906 6437.796875 981.8125 6456.425781 982.484375 C 6500.410156 982.589844 6544.398438 982.703125 6588.386719 982.710938 C 6600.152344 982.3125 6610.25 988.6875 6612.75 1000.539062 C 6613.488281 1003.632812 6613.636719 1006.796875 6613.601562 1009.972656 C 6612.824219 1055.800781 6613.605469 1101.636719 6613.152344 1147.464844 C 6612.988281 1157.0625 6604.136719 1167.914062 6592.5 1168.074219 C 6589.167969 1168.121094 6585.839844 1168.265625 6582.507812 1168.269531 C 6562.015625 1168.289062 6541.519531 1168.277344 6521.027344 1168.277344 C 6521.027344 1168.167969 6521.027344 1168.058594 6521.023438 1167.945312 "/>
<path style="fill:none;stroke-width:7;stroke-linecap:butt;stroke-linejoin:miter;stroke:rgb(27.842712%,14.509583%,1.960754%);stroke-opacity:1;stroke-miterlimit:10;" d="M -0.00045625 -0.00096875 C 0.06595 -0.00096875 0.132356 -0.00096875 0.202669 -0.00096875 C 0.140169 -22.813469 0.56595 -45.633781 0.401888 -68.446281 C 0.362825 -74.67675 4.901888 -78.680656 10.069856 -79.090813 C 56.151888 -79.168938 102.323763 -79.079094 148.382356 -79.204094 C 154.69095 -78.418938 157.843294 -75.024406 158.335481 -68.711906 C 158.421419 -42.735344 158.319856 -16.754875 158.339388 9.225594 C 158.331575 28.042 158.323763 46.862312 158.312044 65.678719 C 158.312044 67.51075 158.2847 69.334969 157.819856 71.13575 C 156.3472 77.288094 151.331575 79.026375 145.5347 78.999031 C 138.214388 79.194344 130.890169 79.463875 123.56595 79.471687 C 85.452669 79.217781 47.292513 79.569344 9.202669 78.792 C 3.952669 78.018562 0.894075 74.702156 0.495638 69.440437 C 0.120638 46.299812 0.210481 23.147469 -0.00045625 -0.00096875 Z M 79.683138 -92.340813 C 58.358919 -92.524406 37.0347 -92.711906 15.706575 -92.887688 C 11.874544 -92.918938 8.050325 -93.028313 4.249544 -92.2705 C -4.281706 -90.563469 -11.043425 -83.8955 -12.832487 -75.348625 C -13.418425 -72.555656 -13.551237 -69.731438 -13.551237 -66.8955 C -13.535612 -22.8955 -13.574675 21.1045 -13.62155 65.1045 C -14.410612 83.975594 -3.543425 93.792 15.085481 93.120125 C 59.069856 93.014656 103.058138 92.901375 147.046419 92.893562 C 158.812044 93.292 168.9097 86.917 171.4097 75.065437 C 172.147981 71.971687 172.296419 68.807625 172.261263 65.631844 C 171.483919 19.803719 172.265169 -26.032219 171.812044 -71.860344 C 171.647981 -81.458 162.796419 -92.309563 151.1597 -92.469719 C 147.827669 -92.516594 144.499544 -92.661125 141.167513 -92.665031 C 120.675325 -92.684563 100.179231 -92.672844 79.687044 -92.672844 C 79.687044 -92.563469 79.687044 -92.454094 79.683138 -92.340813 Z M 79.683138 -92.340813 " transform="matrix(1,0,0,-1,6441.3403,1075.6045)"/>
<path style=" stroke:none;fill-rule:nonzero;fill:rgb(27.842712%,14.509583%,1.960754%);fill-opacity:1;" d="M 6688.050781 1248.207031 C 6688.183594 1253.546875 6689.1875 1258.574219 6691.085938 1263.417969 C 6691.578125 1264.496094 6692.121094 1266.148438 6693.421875 1266.351562 C 6693.808594 1266.339844 6694.398438 1265.917969 6694.53125 1265.542969 C 6695.632812 1262.410156 6696.675781 1259.253906 6697.695312 1256.089844 C 6699.511719 1250.441406 6702.539062 1245.53125 6706.730469 1241.355469 C 6708.613281 1239.480469 6710.507812 1237.59375 6712.589844 1235.949219 C 6716.988281 1232.695312 6718.007812 1227.410156 6719.644531 1222.542969 C 6722.222656 1214.855469 6725.707031 1207.777344 6732.746094 1203.085938 C 6733.285156 1202.726562 6733.816406 1202.160156 6733.441406 1201.429688 C 6733.246094 1201.046875 6732.789062 1200.625 6732.382812 1200.542969 C 6730.761719 1200.214844 6729.097656 1199.734375 6727.480469 1199.820312 C 6721.765625 1200.125 6716.324219 1201.441406 6711.5 1204.75 C 6697.144531 1214.3125 6688.726562 1231.234375 6688.050781 1248.207031 M 6749.183594 1227.488281 C 6749.117188 1220.296875 6748.542969 1215.226562 6745.535156 1209.808594 C 6744.824219 1208.675781 6743.601562 1208.410156 6742.511719 1209.222656 C 6739.566406 1211.414062 6736.839844 1213.820312 6734.621094 1216.804688 C 6731.589844 1220.878906 6729.519531 1225.457031 6727.972656 1230.183594 C 6725.722656 1237.0625 6721.753906 1242.476562 6716.382812 1247.265625 C 6708.90625 1254.046875 6705.992188 1263.527344 6705.625 1273.335938 C 6705.75 1274.046875 6706.175781 1274.632812 6706.839844 1274.769531 C 6711.121094 1275.765625 6715.457031 1274.492188 6719.5 1273.054688 C 6725.449219 1270.839844 6730.117188 1266.875 6734.371094 1262.34375 C 6743.902344 1252.1875 6748.757812 1240.097656 6749.183594 1227.488281 M 6760.847656 1230.066406 C 6760.121094 1243.820312 6754.351562 1259.316406 6741.824219 1272.058594 C 6730.550781 1284.449219 6714.058594 1289.882812 6697.863281 1285.019531 C 6692.507812 1283.46875 6688.097656 1280.113281 6684.761719 1275.5 C 6675.589844 1263.023438 6674.835938 1246.539062 6678.757812 1231.996094 C 6682.460938 1217.609375 6690.351562 1205.941406 6701.910156 1196.777344 C 6710.773438 1189.753906 6721.046875 1186.707031 6732.269531 1187.859375 C 6753.441406 1190.433594 6761.53125 1208.449219 6760.847656 1230.066406 "/>
<path style="fill:none;stroke-width:7;stroke-linecap:butt;stroke-linejoin:miter;stroke:rgb(27.842712%,14.509583%,1.960754%);stroke-opacity:1;stroke-miterlimit:10;" d="M 0.00048125 -0.00193125 C 0.133294 -5.341775 1.1372 -10.369119 3.035638 -15.212869 C 3.527825 -16.290994 4.070794 -17.943337 5.371575 -18.146462 C 5.758294 -18.134744 6.348138 -17.712869 6.48095 -17.337869 C 7.582513 -14.205056 8.625481 -11.048806 9.645013 -7.884744 C 11.461419 -2.236306 14.488763 2.67385 18.680169 6.849631 C 20.562981 8.724631 22.457513 10.61135 24.539544 12.255881 C 28.937981 15.509788 29.957513 20.794944 31.594231 25.662131 C 34.172356 33.349631 37.656731 40.427756 44.695794 45.119163 C 45.234856 45.478538 45.766106 46.044944 45.391106 46.775413 C 45.195794 47.158225 44.738763 47.5801 44.332513 47.662131 C 42.711419 47.990256 41.047356 48.470725 39.430169 48.384788 C 33.715325 48.0801 28.273919 46.763694 23.4497 43.4551 C 9.094231 33.8926 0.676263 16.970725 0.00048125 -0.00193125 Z M 61.133294 20.716819 C 61.066888 27.908225 60.492669 32.978538 57.484856 38.396506 C 56.773919 39.529319 55.551263 39.794944 54.461419 38.982444 C 51.516106 36.791038 48.789544 34.384788 46.570794 31.400413 C 43.539544 27.326194 41.469231 22.748069 39.922356 18.021506 C 37.672356 11.1426 33.703606 5.728538 28.332513 0.939475 C 20.85595 -5.841775 17.941888 -15.322244 17.5747 -25.130837 C 17.6997 -25.841775 18.125481 -26.427712 18.789544 -26.564431 C 23.070794 -27.560525 27.406731 -26.287087 31.4497 -24.849587 C 37.398919 -22.634744 42.066888 -18.6699 46.320794 -14.13865 C 55.852044 -3.9824 60.707513 8.107444 61.133294 20.716819 Z M 72.797356 18.138694 C 72.070794 4.384788 66.301263 -11.111306 53.773919 -23.853494 C 42.500481 -36.244119 26.008294 -41.677712 9.812981 -36.814431 C 4.457513 -35.26365 0.0473563 -31.908181 -3.288581 -27.2949 C -12.460456 -14.818337 -13.214362 1.666038 -9.292487 16.209006 C -5.589362 30.595725 2.301263 42.263694 13.859856 51.427756 C 22.723138 58.451194 32.996575 61.498069 44.219231 60.345725 C 65.391106 57.771506 73.48095 39.755881 72.797356 18.138694 Z M 72.797356 18.138694 " transform="matrix(1,0,0,-1,6688.0503,1248.2051)"/>
<path style=" stroke:none;fill-rule:nonzero;fill:rgb(27.842712%,14.509583%,1.960754%);fill-opacity:1;" d="M 6550.308594 1225.761719 C 6504.394531 1225.785156 6472.667969 1226.292969 6433.476562 1226.277344 C 6430.550781 1225.859375 6429.148438 1224.5 6428.644531 1221.988281 C 6428.003906 1218.816406 6429.078125 1216.019531 6431.460938 1214.5625 C 6434.417969 1212.867188 6438 1213.574219 6441.257812 1213.367188 C 6511.667969 1213.648438 6582.183594 1212.71875 6652.546875 1213.632812 C 6656.257812 1214.445312 6658.339844 1217.925781 6657.5 1221.617188 C 6656.597656 1226.296875 6652.144531 1226.308594 6648.257812 1226.375 C 6615.324219 1225.476562 6576.269531 1225.835938 6550.308594 1225.761719 "/>
<path style="fill:none;stroke-width:7;stroke-linecap:butt;stroke-linejoin:miter;stroke:rgb(27.842712%,14.509583%,1.960754%);stroke-opacity:1;stroke-miterlimit:10;" d="M 0.00099375 0.00148125 C -45.913069 -0.0219562 -77.639631 -0.529769 -116.831038 -0.514144 C -119.756819 -0.096175 -121.159163 1.2632 -121.663069 3.774919 C -122.303694 6.946794 -121.229475 9.743669 -118.846663 11.2007 C -115.889631 12.896013 -112.3076 12.188981 -109.049788 12.396013 C -38.639631 12.114763 31.875994 13.04445 102.239275 12.130388 C 105.950212 11.317888 108.032244 7.837419 107.1924 4.146013 C 106.290056 -0.533675 101.836931 -0.545394 97.950212 -0.6118 C 65.016619 0.286638 25.961931 -0.0727375 0.00099375 0.00148125 Z M 0.00099375 0.00148125 " transform="matrix(1,0,0,-1,6550.3076,1225.7632)"/>
<path style=" stroke:none;fill-rule:nonzero;fill:rgb(27.842712%,14.509583%,1.960754%);fill-opacity:1;" d="M 6701.511719 1081.917969 C 6681.699219 1081.9375 6661.847656 1082.746094 6642.050781 1082.28125 C 6637.234375 1081.859375 6634.808594 1077.96875 6636.289062 1073.378906 C 6636.945312 1071.347656 6638.214844 1069.957031 6640.398438 1069.433594 C 6643.339844 1068.722656 6646.316406 1068.566406 6649.324219 1068.589844 C 6684.808594 1068.964844 6720.292969 1068.871094 6755.777344 1068.863281 C 6761.273438 1068.804688 6768.359375 1068.832031 6767.738281 1076.222656 C 6767.265625 1083.894531 6757.425781 1082.195312 6751.988281 1082.382812 C 6735.164062 1082.144531 6718.339844 1081.929688 6701.515625 1082.019531 C 6701.515625 1081.984375 6701.511719 1081.953125 6701.511719 1081.917969 "/>
<path style="fill:none;stroke-width:7;stroke-linecap:butt;stroke-linejoin:miter;stroke:rgb(27.842712%,14.509583%,1.960754%);stroke-opacity:1;stroke-miterlimit:10;" d="M -0.00098125 0.00003125 C -19.813481 -0.0195 -39.665044 -0.828094 -59.461919 -0.36325 C -64.278325 0.058625 -66.704106 3.94925 -65.223638 8.539094 C -64.567388 10.570344 -63.297856 11.960969 -61.114263 12.484406 C -58.172856 13.195344 -55.196294 13.351594 -52.188481 13.328156 C -16.704106 12.953156 18.780269 13.046906 54.264644 13.054719 C 59.760737 13.113312 66.846675 13.085969 66.225581 5.695344 C 65.752925 -1.976531 55.913081 -0.277313 50.475581 -0.464813 C 33.651362 -0.226531 16.827144 -0.0116875 0.002925 -0.101531 C 0.002925 -0.066375 -0.00098125 -0.035125 -0.00098125 0.00003125 Z M -0.00098125 0.00003125 " transform="matrix(1,0,0,-1,6701.5127,1081.918)"/>
<path style="fill-rule:nonzero;fill:rgb(27.842712%,14.509583%,1.960754%);fill-opacity:1;stroke-width:7;stroke-linecap:butt;stroke-linejoin:miter;stroke:rgb(27.842712%,14.509583%,1.960754%);stroke-opacity:1;stroke-miterlimit:10;" d="M 0.0004625 0.0004625 C 20.11765 -0.128444 40.2739 0.250462 60.375463 -0.144069 C 63.418431 -0.593288 65.289525 -2.831569 65.441869 -6.003444 C 65.797338 -12.378444 60.887181 -13.2261 55.879369 -13.085475 C 19.785619 -12.647975 -16.31985 -13.198756 -52.417506 -13.210475 C -55.077662 -13.218288 -57.753444 -13.335475 -60.390162 -13.065944 C -65.784694 -12.515163 -68.222194 -6.827663 -65.120631 -2.2886 C -64.2261 -0.9761 -62.968287 -0.218288 -61.374537 -0.120631 C -40.937037 0.590306 -20.452662 -0.0268813 0.0004625 0.168431 Z M 0.0004625 0.0004625 " transform="matrix(1,0,0,-1,6702.2886,1019.3989)"/>
<path style=" stroke:none;fill-rule:nonzero;fill:rgb(27.842712%,14.509583%,1.960754%);fill-opacity:1;" d="M 6701.726562 1132.195312 C 6681.605469 1131.703125 6661.46875 1132.207031 6641.359375 1132.320312 C 6638.0625 1131.992188 6636.597656 1130.558594 6636.058594 1127.375 C 6635.269531 1122.699219 6637.574219 1119.6875 6642.40625 1119.238281 C 6673.996094 1118.867188 6705.617188 1119.222656 6737.214844 1119.089844 C 6744.363281 1119.085938 6751.515625 1119.011719 6758.667969 1119.027344 C 6760.152344 1119.03125 6761.683594 1119.097656 6763.113281 1119.453125 C 6766.332031 1120.246094 6768.078125 1123.183594 6767.667969 1126.765625 C 6767.308594 1129.945312 6765.441406 1131.871094 6762.101562 1132.0625 C 6758.621094 1132.257812 6755.121094 1132.1875 6751.628906 1132.191406 C 6734.992188 1132.199219 6718.359375 1132.195312 6701.726562 1132.195312 "/>
<path style="fill:none;stroke-width:7;stroke-linecap:butt;stroke-linejoin:miter;stroke:rgb(27.842712%,14.509583%,1.960754%);stroke-opacity:1;stroke-miterlimit:10;" d="M -0.0014375 -0.0005125 C -20.122531 0.491675 -40.25925 -0.0122313 -60.368625 -0.125513 C -63.6655 0.202612 -65.130344 1.636206 -65.669406 4.8198 C -66.458469 9.495581 -64.153781 12.5073 -59.32175 12.956519 C -27.731906 13.327612 3.889187 12.972144 35.486844 13.104956 C 42.635281 13.108862 49.787625 13.183081 56.939969 13.167456 C 58.424344 13.16355 59.955594 13.097144 61.385281 12.741675 C 64.604031 11.948706 66.350125 9.011206 65.939969 5.429175 C 65.580594 2.249487 63.713406 0.323706 60.373562 0.1323 C 56.893094 -0.0630125 53.393094 0.0073 49.900906 0.00339375 C 33.264187 -0.00441875 16.631375 -0.0005125 -0.0014375 -0.0005125 Z M -0.0014375 -0.0005125 " transform="matrix(1,0,0,-1,6701.728,1132.1948)"/>
<path style=" stroke:none;fill-rule:nonzero;fill:rgb(27.842712%,14.509583%,1.960754%);fill-opacity:1;" d="M 6574.738281 1083.992188 C 6574.699219 1079.230469 6570.828125 1075.035156 6566.105469 1074.648438 C 6564.234375 1074.492188 6562.84375 1075.445312 6562.429688 1077.214844 C 6561.492188 1082.601562 6562.425781 1088.144531 6560.992188 1093.507812 C 6560.726562 1094.527344 6561.636719 1095.402344 6562.714844 1095.457031 C 6568.78125 1095.773438 6574.785156 1090.046875 6574.738281 1083.992188 M 6515.539062 1068.339844 L 6515.539062 1068.382812 C 6505.398438 1068.382812 6495.261719 1068.382812 6485.121094 1068.382812 C 6482.878906 1068.402344 6479.570312 1068.011719 6479.804688 1071.117188 C 6479.78125 1078.761719 6479.714844 1086.398438 6481.867188 1093.871094 C 6488.664062 1119.871094 6523.070312 1127.640625 6540.933594 1107.902344 C 6549.765625 1098.453125 6551.332031 1085.265625 6550.917969 1072.910156 C 6550.769531 1068.488281 6550.820312 1068.378906 6546.457031 1068.355469 C 6536.152344 1068.304688 6525.84375 1068.339844 6515.539062 1068.339844 M 6515.335938 1136.550781 C 6503.179688 1136.550781 6491.03125 1136.554688 6478.875 1136.546875 C 6476.878906 1136.542969 6474.871094 1136.617188 6472.886719 1136.429688 C 6469.722656 1136.125 6467.40625 1133.695312 6467.433594 1130.960938 C 6467.464844 1128.085938 6469.664062 1125.695312 6472.832031 1125.484375 C 6475.816406 1125.285156 6478.820312 1125.449219 6481.816406 1125.355469 C 6483.804688 1125.296875 6485.792969 1125.09375 6487.777344 1124.898438 C 6488.421875 1124.835938 6488.742188 1123.816406 6488.277344 1123.367188 C 6468.09375 1107.277344 6467.460938 1086.964844 6468.535156 1063.070312 C 6468.445312 1057.460938 6472.058594 1055.816406 6477.148438 1055.949219 C 6485.304688 1055.964844 6493.464844 1055.980469 6501.621094 1055.984375 C 6519.097656 1055.9375 6536.578125 1055.972656 6554.058594 1056.179688 C 6557.03125 1056.324219 6561.074219 1056.386719 6561.984375 1059.921875 C 6562.558594 1062.183594 6563.96875 1063.210938 6566.320312 1063.203125 C 6567.640625 1063.199219 6568.972656 1063.464844 6570.273438 1063.742188 C 6577.980469 1065.386719 6582.929688 1070.003906 6585.1875 1077.570312 C 6589.515625 1092.695312 6578.054688 1107.425781 6562.449219 1107.363281 C 6555.339844 1107.628906 6555.960938 1108 6552.726562 1112.605469 C 6549.882812 1116.730469 6545.957031 1119.921875 6542.3125 1123.320312 C 6542.109375 1123.527344 6541.925781 1124.042969 6542.039062 1124.214844 C 6542.871094 1125.714844 6544.683594 1125.085938 6546.085938 1125.164062 C 6550.550781 1125.128906 6555.117188 1124.527344 6559.503906 1125.636719 C 6565.152344 1127.085938 6564.796875 1135.726562 6558.78125 1136.132812 C 6544.320312 1136.761719 6529.808594 1136.273438 6515.335938 1136.417969 C 6515.335938 1136.460938 6515.335938 1136.503906 6515.335938 1136.550781 "/>
<path style="fill:none;stroke-width:7;stroke-linecap:butt;stroke-linejoin:miter;stroke:rgb(27.842712%,14.509583%,1.960754%);stroke-opacity:1;stroke-miterlimit:10;" d="M 0.00098125 0.0019125 C -0.0380812 4.763631 -3.909175 8.958944 -8.631831 9.345662 C -10.502925 9.501912 -11.89355 8.548787 -12.307612 6.779256 C -13.245112 1.392537 -12.311519 -4.150431 -13.745112 -9.513713 C -14.010737 -10.533244 -13.100581 -11.408244 -12.022456 -11.462931 C -5.95605 -11.779338 0.0478563 -6.052775 0.00098125 0.0019125 Z M -59.198237 15.654256 L -59.198237 15.611287 C -69.338862 15.611287 -79.475581 15.611287 -89.616206 15.611287 C -91.858394 15.591756 -95.166987 15.982381 -94.932612 12.876912 C -94.95605 5.232381 -95.022456 -2.404338 -92.870112 -9.876994 C -86.073237 -35.876994 -51.666987 -43.646525 -33.803706 -23.908244 C -24.971675 -14.459025 -23.405269 -1.271525 -23.819331 11.083944 C -23.967769 15.505819 -23.916987 15.615194 -28.280269 15.638631 C -38.584956 15.689412 -48.89355 15.654256 -59.198237 15.654256 Z M -59.401362 -52.556681 C -71.557612 -52.556681 -83.70605 -52.560588 -95.8623 -52.552775 C -97.858394 -52.548869 -99.866206 -52.623088 -101.850581 -52.435588 C -105.014644 -52.1309 -107.33105 -49.701213 -107.303706 -46.966838 C -107.272456 -44.091838 -105.073237 -41.701213 -101.905269 -41.490275 C -98.920894 -41.291056 -95.916987 -41.455119 -92.920894 -41.361369 C -90.932612 -41.302775 -88.944331 -41.09965 -86.959956 -40.904338 C -86.315425 -40.841838 -85.995112 -39.822306 -86.459956 -39.373088 C -106.64355 -23.283244 -107.276362 -2.970744 -106.202144 20.923787 C -106.291987 26.533162 -102.678706 28.177694 -97.588862 28.044881 C -89.432612 28.029256 -81.272456 28.013631 -73.116206 28.009725 C -55.639644 28.0566 -38.159175 28.021444 -20.678706 27.814412 C -17.70605 27.669881 -13.663081 27.607381 -12.752925 24.072225 C -12.178706 21.810506 -10.76855 20.783162 -8.416987 20.790975 C -7.096675 20.794881 -5.764644 20.529256 -4.463862 20.251912 C 3.243169 18.607381 8.192388 13.990194 10.4502 6.423787 C 14.778325 -8.701213 3.317388 -23.431681 -12.288081 -23.369181 C -19.397456 -23.634806 -18.776362 -24.0059 -22.010737 -28.611369 C -24.854487 -32.736369 -28.780269 -35.927775 -32.4248 -39.326213 C -32.627925 -39.533244 -32.811519 -40.048869 -32.698237 -40.220744 C -31.866206 -41.720744 -30.053706 -41.091838 -28.651362 -41.169963 C -24.186519 -41.134806 -19.620112 -40.533244 -15.233394 -41.642619 C -9.584956 -43.091838 -9.940425 -51.732463 -15.95605 -52.138713 C -30.416987 -52.767619 -44.928706 -52.279338 -59.401362 -52.423869 C -59.401362 -52.466838 -59.401362 -52.509806 -59.401362 -52.556681 Z M -59.401362 -52.556681 " transform="matrix(1,0,0,-1,6574.7373,1083.9941)"/>
<path style=" stroke:none;fill-rule:nonzero;fill:rgb(27.842712%,14.509583%,1.960754%);fill-opacity:1;" d="M 6517.78125 1016.164062 C 6517.691406 1016.679688 6517.675781 1017.71875 6517.324219 1018.625 C 6516.265625 1021.339844 6516.828125 1023.84375 6518.066406 1026.304688 C 6519.265625 1028.683594 6520.253906 1031.136719 6520.953125 1033.71875 C 6521.949219 1037.402344 6521.664062 1040.949219 6520.175781 1044.441406 C 6519.714844 1045.527344 6519.160156 1046.535156 6518.226562 1047.285156 C 6515.320312 1049.875 6509.949219 1047.632812 6510.773438 1043.402344 C 6510.847656 1042.746094 6510.925781 1042.054688 6511.183594 1041.457031 C 6513.351562 1036.675781 6509.765625 1032.640625 6508.042969 1028.414062 C 6505.757812 1023.605469 6506.640625 1014.351562 6511.914062 1011.902344 C 6514.855469 1010.542969 6517.734375 1012.425781 6517.78125 1016.164062 "/>
<path style="fill:none;stroke-width:7;stroke-linecap:butt;stroke-linejoin:miter;stroke:rgb(27.842712%,14.509583%,1.960754%);stroke-opacity:1;stroke-miterlimit:10;" d="M 0.00005 0.0014375 C -0.0897938 -0.514187 -0.105419 -1.55325 -0.456981 -2.4595 C -1.515575 -5.174344 -0.953075 -7.67825 0.285206 -10.139187 C 1.484425 -12.518094 2.472706 -14.971219 3.171925 -17.55325 C 4.168019 -21.236844 3.882862 -24.783719 2.394581 -28.275906 C 1.933644 -29.361844 1.378956 -30.369656 0.445362 -31.119656 C -2.460888 -33.7095 -7.831981 -31.467312 -7.007763 -27.236844 C -6.933544 -26.580594 -6.855419 -25.889187 -6.597606 -25.291531 C -4.429638 -20.510281 -8.015575 -16.475125 -9.738231 -12.248562 C -12.023388 -7.439969 -11.140575 1.813938 -5.867138 4.263156 C -2.925731 5.622531 -0.046825 3.739719 0.00005 0.0014375 Z M 0.00005 0.0014375 " transform="matrix(1,0,0,-1,6517.7812,1016.1655)"/>
<path style=" stroke:none;fill-rule:nonzero;fill:rgb(27.842712%,14.509583%,1.960754%);fill-opacity:1;" d="M 6530.417969 1040.054688 C 6530.324219 1036.589844 6528.460938 1034.386719 6527.402344 1031.34375 C 6526.402344 1028.785156 6526.324219 1026.167969 6527.214844 1023.558594 C 6528.210938 1020.65625 6530.117188 1019.257812 6533.144531 1019.125 C 6535.308594 1019.027344 6536.929688 1020.636719 6536.867188 1022.835938 C 6536.859375 1023.164062 6536.878906 1023.527344 6536.753906 1023.816406 C 6533.523438 1032.070312 6544.152344 1036.847656 6537.613281 1046.507812 C 6535.414062 1050.078125 6529.074219 1048.683594 6529.664062 1044.101562 C 6529.816406 1042.628906 6530.203125 1041.179688 6530.417969 1040.054688 "/>
<path style="fill:none;stroke-width:7;stroke-linecap:butt;stroke-linejoin:miter;stroke:rgb(27.842712%,14.509583%,1.960754%);stroke-opacity:1;stroke-miterlimit:10;" d="M -0.00143125 0.0005125 C -0.0951812 3.465356 -1.958462 5.668481 -3.017056 8.71145 C -4.017056 11.270044 -4.095181 13.887231 -3.204556 16.496606 C -2.208462 19.39895 -0.302212 20.797388 2.725131 20.9302 C 4.889194 21.027856 6.510288 19.418481 6.447788 17.219263 C 6.439975 16.891138 6.459506 16.527856 6.334506 16.238794 C 3.104038 7.984888 13.732944 3.207544 7.193881 -6.452612 C 4.994663 -10.022925 -1.345181 -8.628394 -0.755337 -4.046362 C -0.602994 -2.573706 -0.216275 -1.124487 -0.00143125 0.0005125 Z M -0.00143125 0.0005125 " transform="matrix(1,0,0,-1,6530.4194,1040.0552)"/>
<path style=" stroke:none;fill-rule:nonzero;fill:rgb(27.842712%,14.509583%,1.960754%);fill-opacity:1;" d="M 6492.542969 1042.433594 C 6493.132812 1039.929688 6492.410156 1037.769531 6491.445312 1035.601562 C 6489.628906 1031.472656 6487.910156 1027.113281 6490.003906 1022.726562 C 6491.3125 1018.636719 6498.714844 1017.484375 6498.871094 1022.746094 C 6498.875 1022.910156 6498.902344 1023.09375 6498.84375 1023.238281 C 6497.359375 1027.046875 6498.933594 1030.34375 6500.488281 1033.6875 C 6501.847656 1036.617188 6502.199219 1039.757812 6501.757812 1042.933594 C 6501.386719 1045.585938 6500.0625 1047.621094 6497.289062 1048.304688 C 6494.796875 1048.914062 6492.59375 1047.789062 6492.542969 1044.820312 C 6492.53125 1043.992188 6492.542969 1043.164062 6492.542969 1042.433594 "/>
<path style="fill:none;stroke-width:7;stroke-linecap:butt;stroke-linejoin:miter;stroke:rgb(27.842712%,14.509583%,1.960754%);stroke-opacity:1;stroke-miterlimit:10;" d="M 0.00146875 0.00190625 C 0.591312 2.505812 -0.131344 4.665969 -1.096188 6.833937 C -2.912594 10.962844 -4.631344 15.322219 -2.537594 19.708937 C -1.229 23.798781 6.173344 24.951125 6.329594 19.689406 C 6.3335 19.525344 6.360844 19.34175 6.30225 19.197219 C 4.817875 15.388625 6.392094 12.09175 7.946781 8.748 C 9.306156 5.818312 9.657719 2.677687 9.216312 -0.498094 C 8.845219 -3.150438 7.521 -5.185594 4.747562 -5.869188 C 2.255375 -6.478563 0.05225 -5.353563 0.00146875 -2.384813 C -0.01025 -1.556688 0.00146875 -0.728563 0.00146875 0.00190625 Z M 0.00146875 0.00190625 " transform="matrix(1,0,0,-1,6492.5415,1042.4355)"/>
</svg>
