<?xml version="1.0" encoding="UTF-8"?>
<svg xmlns="http://www.w3.org/2000/svg" width="256" height="256" viewBox="5072.53 1918.03 769.93 769.93" preserveAspectRatio="xMidYMid meet">
<path style=" stroke:none;fill-rule:nonzero;fill:rgb(27.842712%,14.509583%,1.960754%);fill-opacity:1;" d="M 5667.589844 2268.019531 L 5667.640625 2268.019531 C 5667.832031 2284.328125 5667.25 2300.695312 5667.875 2316.976562 C 5668.023438 2317.785156 5668.75 2317.976562 5669.40625 2317.65625 C 5677.265625 2312.089844 5684.636719 2305.769531 5692.308594 2299.925781 C 5705.375 2289.59375 5718.640625 2279.507812 5731.394531 2268.789062 C 5733.28125 2267.195312 5733.28125 2266.386719 5731.75 2264.621094 C 5730.992188 2263.742188 5730.175781 2262.886719 5729.261719 2262.175781 C 5711.296875 2248.929688 5693.257812 2235.78125 5675.25 2222.59375 C 5673.371094 2221.222656 5671.394531 2219.980469 5669.398438 2218.796875 C 5668.804688 2218.445312 5667.96875 2218.742188 5667.90625 2219.554688 C 5667.167969 2235.691406 5667.773438 2251.871094 5667.589844 2268.019531 M 5248.753906 2268.4375 L 5248.824219 2268.4375 C 5248.652344 2252.136719 5249.167969 2235.792969 5248.621094 2219.511719 C 5248.472656 2218.683594 5247.738281 2218.5 5247.085938 2218.691406 C 5245.460938 2219.160156 5244.179688 2220.261719 5242.839844 2221.246094 C 5231.027344 2229.914062 5219.214844 2238.578125 5207.402344 2247.242188 C 5201.226562 2251.773438 5195.03125 2256.269531 5188.890625 2260.84375 C 5187.296875 2262.03125 5185.792969 2263.371094 5184.40625 2264.792969 C 5181.796875 2267.136719 5184.722656 2268.605469 5186.519531 2270.082031 C 5193.59375 2275.628906 5200.691406 2281.148438 5207.742188 2286.71875 C 5220.902344 2296.882812 5233.632812 2307.710938 5246.996094 2317.558594 C 5247.605469 2317.824219 5248.433594 2317.730469 5248.542969 2316.871094 C 5249.089844 2300.75 5248.589844 2284.574219 5248.753906 2268.4375 M 5740.203125 2429.53125 L 5740.285156 2429.53125 C 5740.5 2383.378906 5739.832031 2337.214844 5740.5 2291.078125 C 5740.605469 2288.585938 5740.449219 2286.078125 5740.296875 2283.585938 C 5740.152344 2281.25 5739.039062 2280.71875 5736.980469 2282.0625 C 5725.394531 2290.472656 5714.554688 2299.890625 5703.234375 2308.65625 C 5647.808594 2352.6875 5592.046875 2396.316406 5536.464844 2440.164062 C 5534.242188 2441.914062 5531.859375 2443.457031 5529.640625 2445.214844 C 5527.789062 2446.679688 5527.902344 2447.800781 5529.835938 2449.121094 C 5566.566406 2471.734375 5602.636719 2495.417969 5638.910156 2518.765625 C 5670.910156 2539.519531 5703.1875 2559.851562 5734.972656 2580.933594 C 5737.433594 2582.566406 5738.238281 2582.257812 5739.21875 2579.382812 C 5740.261719 2576.316406 5740.207031 2573.160156 5740.207031 2569.988281 C 5740.199219 2523.167969 5740.203125 2476.347656 5740.203125 2429.53125 M 5175.25 2427.832031 L 5175.046875 2427.832031 C 5175.035156 2471.816406 5175.21875 2515.796875 5175.382812 2559.78125 C 5175.410156 2565.773438 5175.675781 2571.773438 5176.828125 2577.691406 C 5177.71875 2582.277344 5178.386719 2582.65625 5182.214844 2580.238281 C 5188.976562 2575.972656 5195.652344 2571.574219 5202.375 2567.25 C 5262.246094 2528.890625 5321.835938 2490.085938 5381.957031 2452.113281 C 5383.640625 2451.042969 5385.328125 2449.964844 5386.957031 2448.808594 C 5388.726562 2447.546875 5388.78125 2446.582031 5387.109375 2445.308594 C 5364.019531 2428.074219 5341.878906 2409.589844 5319.109375 2391.929688 C 5272.207031 2355.121094 5225.84375 2317.558594 5178.429688 2281.4375 C 5177.460938 2280.78125 5176.355469 2281.289062 5176.160156 2282.433594 C 5175.996094 2283.414062 5175.90625 2284.414062 5175.875 2285.40625 C 5174.492188 2332.859375 5175.570312 2380.363281 5175.25 2427.832031 M 5458.417969 2602.269531 L 5458.417969 2602.277344 C 5542.527344 2602.183594 5626.636719 2602.398438 5710.75 2602.398438 C 5716.734375 2602.382812 5722.226562 2600.585938 5727.183594 2597.230469 C 5730.625 2594.902344 5730.625 2593.730469 5727.296875 2591.46875 C 5693.679688 2570.8125 5660.800781 2548.972656 5627.550781 2527.71875 C 5577.859375 2495.714844 5528.160156 2463.71875 5478.117188 2432.261719 C 5472.183594 2428.496094 5465.539062 2426.5 5458.710938 2426.632812 C 5451.582031 2426.765625 5444.523438 2428.355469 5438.265625 2432.335938 C 5430.679688 2437.160156 5422.980469 2441.800781 5415.382812 2446.613281 C 5361.339844 2480.761719 5307.71875 2515.570312 5253.949219 2550.144531 C 5231.839844 2564.398438 5209.675781 2578.566406 5187.605469 2592.882812 C 5186.585938 2593.554688 5186.523438 2594.632812 5187.332031 2595.421875 C 5187.804688 2595.882812 5188.335938 2596.292969 5188.859375 2596.703125 C 5193.761719 2600.578125 5199.445312 2602.265625 5205.589844 2602.335938 C 5289.863281 2602.828125 5374.140625 2601.957031 5458.417969 2602.269531 M 5458.4375 2005.050781 L 5458.4375 2005.089844 C 5403.132812 2005.101562 5347.828125 2005.09375 5292.523438 2005.03125 C 5287.859375 2005.039062 5283.179688 2005.066406 5278.539062 2005.449219 C 5265.523438 2006.6875 5261.964844 2016.074219 5261.976562 2025.878906 C 5260.683594 2124.980469 5262.511719 2224.109375 5261.875 2323.222656 C 5261.863281 2327.664062 5263.207031 2330.667969 5266.777344 2333.359375 C 5276.21875 2340.472656 5285.40625 2347.925781 5294.683594 2355.261719 C 5328.992188 2382.496094 5363.527344 2409.449219 5397.671875 2436.890625 C 5400.027344 2438.820312 5402.238281 2439.339844 5404.839844 2437.480469 C 5413.023438 2432.375 5421.277344 2427.332031 5429.335938 2422.019531 C 5445.953125 2411.316406 5468.335938 2410.113281 5485.261719 2420.675781 C 5494.652344 2426.382812 5503.804688 2432.476562 5513.199219 2438.183594 C 5514.828125 2439.195312 5516.335938 2439.023438 5517.761719 2437.769531 C 5535.125 2424.011719 5552.539062 2410.320312 5569.910156 2396.574219 C 5596.050781 2375.921875 5622.167969 2355.242188 5648.21875 2334.480469 C 5653.890625 2329.96875 5654.589844 2331.304688 5654.59375 2321.605469 C 5654.132812 2221.339844 5655.21875 2121.027344 5654.117188 2020.785156 C 5653.503906 2012.3125 5645.828125 2005.273438 5637.34375 2005.363281 C 5577.714844 2004.585938 5518.070312 2005.269531 5458.4375 2005.050781 M 5458.285156 2615.273438 C 5376.972656 2615.253906 5295.664062 2615.101562 5214.355469 2615.78125 C 5210.195312 2615.800781 5206.03125 2615.5625 5201.871094 2615.359375 C 5179.4375 2614.410156 5162.636719 2593.464844 5163.199219 2571.648438 C 5163.257812 2526.828125 5163.28125 2482.007812 5163.292969 2437.1875 C 5163.304688 2390.203125 5163.28125 2343.214844 5163.300781 2296.226562 C 5163.304688 2289.90625 5163.175781 2283.578125 5164.183594 2277.28125 C 5165.890625 2266.585938 5170.839844 2257.832031 5179.382812 2251.171875 C 5200.210938 2235.636719 5221.453125 2220.652344 5242.308594 2205.152344 C 5250.046875 2199.375 5248.792969 2200.765625 5248.796875 2192.492188 C 5248.828125 2138.507812 5248.765625 2084.523438 5248.765625 2030.539062 C 5248.417969 2018.152344 5250.167969 2005.042969 5261.242188 1997.46875 C 5266.253906 1993.875 5271.871094 1991.933594 5278.003906 1991.675781 C 5284.492188 1991.40625 5290.992188 1991.207031 5297.488281 1991.203125 C 5411.117188 1991.40625 5524.757812 1990.734375 5638.386719 1991.488281 C 5652.8125 1991.898438 5665.238281 2003.136719 5666.773438 2017.53125 C 5667.253906 2020.980469 5667.425781 2024.511719 5667.339844 2027.996094 C 5666.878906 2084.136719 5667.410156 2140.296875 5667.640625 2196.441406 C 5667.628906 2199.035156 5668.539062 2200.875 5670.609375 2202.367188 C 5692.097656 2218.128906 5713.613281 2233.867188 5735.144531 2249.570312 C 5745.738281 2257.300781 5751.394531 2267.839844 5752.949219 2280.71875 C 5753.628906 2286.359375 5753.527344 2292.03125 5753.410156 2297.695312 C 5752.4375 2386.65625 5752.675781 2475.644531 5753.320312 2564.613281 C 5753.390625 2570.945312 5753.300781 2577.277344 5751.929688 2583.503906 C 5748.34375 2599.792969 5732.769531 2614.753906 5714.195312 2615.386719 C 5628.90625 2616.09375 5543.585938 2614.480469 5458.285156 2615.042969 Z M 5458.285156 2615.273438 "/>
<path style="fill:none;stroke-width:7;stroke-linecap:butt;stroke-linejoin:miter;stroke:rgb(27.842712%,14.509583%,1.960754%);stroke-opacity:1;stroke-miterlimit:10;" d="M 0.00044375 0.00096875 L 0.051225 0.00096875 C 0.242631 -16.307625 -0.3394 -32.674812 0.2856 -48.956062 C 0.434038 -49.764656 1.1606 -49.956062 1.81685 -49.63575 C 9.676225 -44.069344 17.047319 -37.749031 24.719194 -31.905281 C 37.7856 -21.57325 51.051225 -11.487312 63.805131 -0.768562 C 65.69185 0.825188 65.69185 1.633781 64.1606 3.399406 C 63.402788 4.278313 62.586381 5.133781 61.672319 5.844719 C 43.707475 19.090813 25.668413 32.23925 7.6606 45.42675 C 5.781694 46.797844 3.805131 48.040031 1.809038 49.223625 C 1.215288 49.575188 0.37935 49.278313 0.31685 48.465813 C -0.421431 32.329094 0.184038 16.149406 0.00044375 0.00096875 Z M -418.835494 -0.417 L -418.765181 -0.417 C -418.937056 15.883781 -418.421431 32.227531 -418.968306 48.508781 C -419.116744 49.336906 -419.851119 49.5205 -420.503462 49.329094 C -422.128462 48.860344 -423.409712 47.758781 -424.749556 46.774406 C -436.562056 38.106438 -448.374556 29.442375 -460.187056 20.778313 C -466.362837 16.247063 -472.55815 11.750969 -478.698775 7.17675 C -480.292525 5.98925 -481.796431 4.649406 -483.18315 3.227531 C -485.792525 0.883781 -482.866744 -0.584969 -481.069869 -2.061531 C -473.99565 -7.608406 -466.897994 -13.127937 -459.847212 -18.69825 C -446.687056 -28.862312 -433.956587 -39.690437 -420.593306 -49.538094 C -419.983931 -49.803719 -419.155806 -49.709969 -419.046431 -48.850594 C -418.499556 -32.7295 -418.999556 -16.553719 -418.835494 -0.417 Z M 72.613725 -161.51075 L 72.695756 -161.51075 C 72.9106 -115.358406 72.242631 -69.194344 72.9106 -23.057625 C 73.016069 -20.565437 72.859819 -18.057625 72.707475 -15.565437 C 72.562944 -13.2295 71.449663 -12.69825 69.391069 -14.042 C 57.805131 -22.452156 46.965288 -31.870125 35.644975 -40.63575 C -19.780806 -84.667 -75.542525 -128.295906 -131.124556 -172.143562 C -133.347212 -173.893562 -135.730025 -175.436531 -137.948775 -177.194344 C -139.800337 -178.659187 -139.687056 -179.780281 -137.753462 -181.100594 C -101.022994 -203.713875 -64.952681 -227.397469 -28.679244 -250.745125 C 3.320756 -271.499031 35.5981 -291.831062 67.383256 -312.913094 C 69.844194 -314.545906 70.648881 -314.237312 71.62935 -311.362312 C 72.672319 -308.295906 72.617631 -305.139656 72.617631 -301.967781 C 72.609819 -255.147469 72.613725 -208.327156 72.613725 -161.51075 Z M -492.3394 -159.811531 L -492.542525 -159.811531 C -492.554244 -203.795906 -492.37065 -247.776375 -492.206587 -291.76075 C -492.179244 -297.752937 -491.913619 -303.752937 -490.761275 -309.670906 C -489.87065 -314.256844 -489.202681 -314.63575 -485.374556 -312.217781 C -478.612837 -307.952156 -471.937056 -303.553719 -465.2144 -299.2295 C -405.343306 -260.870125 -345.753462 -222.065437 -285.632369 -184.092781 C -283.948775 -183.022469 -282.261275 -181.944344 -280.632369 -180.788094 C -278.862837 -179.526375 -278.80815 -178.561531 -280.480025 -177.288094 C -303.569869 -160.053719 -325.710494 -141.569344 -348.480025 -123.909187 C -395.382369 -87.100594 -441.74565 -49.538094 -489.159712 -13.417 C -490.128462 -12.76075 -491.233931 -13.268562 -491.429244 -14.413094 C -491.593306 -15.393562 -491.68315 -16.393562 -491.7144 -17.38575 C -493.097212 -64.838875 -492.019087 -112.342781 -492.3394 -159.811531 Z M -209.171431 -334.249031 L -209.171431 -334.256844 C -125.062056 -334.163094 -40.952681 -334.377937 43.1606 -334.377937 C 49.144975 -334.362312 54.637163 -332.565437 59.594194 -329.209969 C 63.0356 -326.881844 63.0356 -325.709969 59.707475 -323.44825 C 26.090288 -302.792 -6.788619 -280.952156 -40.038619 -259.69825 C -89.730025 -227.694344 -139.429244 -195.69825 -189.472212 -164.241219 C -195.405806 -160.475594 -202.050337 -158.4795 -208.878462 -158.612312 C -216.007369 -158.745125 -223.065962 -160.334969 -229.323775 -164.315437 C -236.909712 -169.139656 -244.608931 -173.780281 -252.206587 -178.592781 C -306.249556 -212.741219 -359.87065 -247.549812 -413.640181 -282.124031 C -435.749556 -296.377937 -457.913619 -310.545906 -479.983931 -324.862312 C -481.003462 -325.534187 -481.065962 -326.612312 -480.257369 -327.401375 C -479.784712 -327.862312 -479.253462 -328.272469 -478.730025 -328.682625 C -473.827681 -332.557625 -468.144087 -334.245125 -461.999556 -334.315437 C -377.726119 -334.807625 -293.448775 -333.936531 -209.171431 -334.249031 Z M -209.1519 262.969719 L -209.1519 262.930656 C -264.456587 262.918938 -319.761275 262.92675 -375.065962 262.98925 C -379.730025 262.981438 -384.409712 262.954094 -389.050337 262.571281 C -402.065962 261.333 -405.624556 251.946281 -405.612837 242.141594 C -406.905806 143.040031 -405.077681 43.911125 -405.7144 -55.202156 C -405.726119 -59.643562 -404.382369 -62.647469 -400.812056 -65.338875 C -391.37065 -72.452156 -382.18315 -79.905281 -372.905806 -87.241219 C -338.597212 -114.475594 -304.062056 -141.428719 -269.917525 -168.870125 C -267.562056 -170.799812 -265.351119 -171.319344 -262.749556 -169.459969 C -254.565962 -164.3545 -246.312056 -159.311531 -238.253462 -153.999031 C -221.636275 -143.295906 -199.253462 -142.092781 -182.327681 -152.655281 C -172.937056 -158.362312 -163.784712 -164.456062 -154.390181 -170.163094 C -152.761275 -171.174812 -151.253462 -171.002937 -149.827681 -169.749031 C -132.4644 -155.991219 -115.050337 -142.299812 -97.679244 -128.553719 C -71.538619 -107.901375 -45.421431 -87.221687 -19.37065 -66.459969 C -13.698775 -61.94825 -12.999556 -63.284187 -12.99565 -53.584969 C -13.456587 46.680656 -12.37065 146.993156 -13.472212 247.235344 C -14.085494 255.708 -21.761275 262.747063 -30.24565 262.657219 C -89.874556 263.434563 -149.519087 262.750969 -209.1519 262.969719 Z M -209.304244 -347.252937 C -290.616744 -347.233406 -371.925337 -347.081062 -453.233931 -347.76075 C -457.394087 -347.780281 -461.55815 -347.542 -465.718306 -347.338875 C -488.1519 -346.389656 -504.952681 -325.444344 -504.390181 -303.627937 C -504.331587 -258.807625 -504.30815 -213.987312 -504.296431 -169.167 C -504.284712 -122.182625 -504.30815 -75.194344 -504.288619 -28.206062 C -504.284712 -21.88575 -504.413619 -15.557625 -503.405806 -9.26075 C -501.698775 1.434563 -496.749556 10.188469 -488.206587 16.848625 C -467.378462 32.383781 -446.136275 47.368156 -425.280806 62.868156 C -417.542525 68.6455 -418.796431 67.254875 -418.792525 75.528313 C -418.761275 129.512688 -418.823775 183.497063 -418.823775 237.481438 C -419.171431 249.868156 -417.421431 262.977531 -406.347212 270.55175 C -401.335494 274.1455 -395.718306 276.086906 -389.585494 276.344719 C -383.097212 276.61425 -376.597212 276.813469 -370.101119 276.817375 C -256.472212 276.61425 -142.831587 277.286125 -29.202681 276.532219 C -14.7769 276.122063 -2.351119 264.883781 -0.815962 250.48925 C -0.335494 247.040031 -0.163619 243.508781 -0.249556 240.024406 C -0.710494 183.883781 -0.179244 127.723625 0.051225 71.579094 C 0.0395063 68.985344 0.949663 67.1455 3.019975 65.653313 C 24.508256 49.891594 46.023881 34.153313 67.555131 18.450188 C 78.148881 10.719719 83.805131 0.180656 85.359819 -12.69825 C 86.039506 -18.338875 85.937944 -24.01075 85.820756 -29.674812 C 84.8481 -118.63575 85.086381 -207.624031 85.730913 -296.592781 C 85.801225 -302.924812 85.711381 -309.256844 84.340288 -315.483406 C 80.75435 -331.772469 65.180131 -346.733406 46.605913 -347.366219 C -38.68315 -348.07325 -124.003462 -346.459969 -209.304244 -347.022469 Z M -209.304244 -347.252937 " transform="matrix(1,0,0,-1,5667.5894,2268.0205)"/>
<path style=" stroke:none;fill-rule:nonzero;fill:rgb(27.842712%,14.509583%,1.960754%);fill-opacity:1;" d="M 5542.578125 2282.953125 L 5542.582031 2282.757812 C 5545.40625 2282.757812 5548.230469 2282.820312 5551.054688 2282.746094 C 5568.75 2282.007812 5582.363281 2262.296875 5573.898438 2244.574219 C 5567.222656 2231.003906 5553.226562 2227.421875 5539.105469 2228.570312 C 5536.195312 2228.9375 5535.851562 2231.417969 5535.933594 2233.886719 C 5535.867188 2239.039062 5535.738281 2244.191406 5535.761719 2249.347656 C 5535.921875 2260.0625 5533.980469 2270.511719 5531.320312 2280.84375 C 5531.140625 2281.796875 5531.644531 2282.503906 5532.621094 2282.554688 C 5535.9375 2282.730469 5539.261719 2282.828125 5542.578125 2282.953125 M 5443.199219 2213.539062 L 5443.199219 2213.550781 C 5417.890625 2213.640625 5392.566406 2213.375 5367.265625 2213.652344 C 5364.425781 2213.894531 5363.769531 2214.503906 5363.757812 2217.382812 C 5363.71875 2227.703125 5363.402344 2238.042969 5363.875 2248.347656 C 5365 2279.8125 5379.109375 2314.316406 5409.507812 2327.667969 C 5414.746094 2329.953125 5420.226562 2331.269531 5425.96875 2331.285156 C 5437.625 2331.324219 5449.28125 2331.414062 5460.9375 2331.289062 C 5482.816406 2330.996094 5501.457031 2313.394531 5511.195312 2294.988281 C 5523.101562 2273.089844 5523.511719 2250.1875 5523.269531 2225.945312 C 5523.277344 2222.785156 5523.171875 2219.617188 5523.019531 2216.460938 C 5522.9375 2214.734375 5522.300781 2214.042969 5520.617188 2213.832031 C 5494.839844 2213.0625 5468.996094 2213.773438 5443.199219 2213.539062 M 5443.558594 2344.304688 C 5412.101562 2343.996094 5380.570312 2344.929688 5349.152344 2343.925781 C 5346.214844 2343.484375 5344.824219 2342.070312 5344.371094 2339.582031 C 5343.449219 2334.375 5347.820312 2331.15625 5352.546875 2331.398438 C 5362.875 2331.304688 5373.199219 2331.316406 5383.523438 2331.34375 C 5384.566406 2331.21875 5386.035156 2331.675781 5386.792969 2330.773438 C 5387.121094 2330.304688 5386.945312 2329.808594 5386.574219 2329.441406 C 5384.671875 2327.574219 5382.78125 2325.695312 5380.832031 2323.878906 C 5358.90625 2303.03125 5350.953125 2271.65625 5350.609375 2242.238281 C 5350.738281 2230.09375 5350.140625 2217.902344 5350.941406 2205.777344 C 5351.085938 2200.367188 5356.9375 2199.679688 5361.277344 2199.800781 C 5415.738281 2199.714844 5470.199219 2199.730469 5524.664062 2199.691406 C 5528.828125 2199.65625 5535.605469 2199.746094 5535.835938 2205.238281 C 5535.9375 2207.230469 5535.808594 2209.234375 5535.890625 2211.230469 C 5536.015625 2214.402344 5536.644531 2215.074219 5539.710938 2215.191406 C 5557.480469 2214.875 5570.910156 2217.273438 5582.035156 2232.472656 C 5591.917969 2245.753906 5592.257812 2264.902344 5582.660156 2278.425781 C 5573.476562 2291.433594 5561.9375 2296.390625 5546.199219 2296.171875 C 5540.542969 2296.3125 5534.871094 2296.28125 5529.214844 2296.25 C 5526.597656 2296.148438 5524.878906 2297.226562 5523.679688 2299.636719 C 5521.976562 2303.058594 5520.105469 2306.414062 5518.066406 2309.648438 C 5513.382812 2317.4375 5506.746094 2323.507812 5500.257812 2329.742188 C 5499.882812 2330.1875 5500.300781 2330.867188 5500.707031 2330.925781 C 5511.324219 2331.597656 5522.015625 2331.121094 5532.65625 2331.371094 C 5537.597656 2331.140625 5542.890625 2332.121094 5542.238281 2338.316406 C 5542.011719 2340.960938 5541.046875 2343.960938 5537.976562 2344.222656 C 5506.53125 2344.742188 5475.023438 2343.964844 5443.558594 2344.035156 C 5443.558594 2344.125 5443.558594 2344.214844 5443.558594 2344.304688 "/>
<path style="fill:none;stroke-width:7;stroke-linecap:butt;stroke-linejoin:miter;stroke:rgb(27.842712%,14.509583%,1.960754%);stroke-opacity:1;stroke-miterlimit:10;" d="M -0.000975 -0.001925 L 0.00293125 0.193388 C 2.82715 0.193388 5.651369 0.130888 8.475588 0.205106 C 26.1709 0.943388 39.784181 20.654325 31.319338 38.376981 C 24.643556 51.947294 10.647463 55.529325 -3.473631 54.380888 C -6.383787 54.0137 -6.727537 51.533231 -6.645506 49.064481 C -6.711912 43.912138 -6.840819 38.759794 -6.817381 33.603544 C -6.657225 22.8887 -8.598631 12.439481 -11.258787 2.10745 C -11.438475 1.154325 -10.934569 0.447294 -9.958006 0.396513 C -6.6416 0.220731 -3.317381 0.123075 -0.000975 -0.001925 Z M -99.379881 69.412138 L -99.379881 69.400419 C -124.688475 69.310575 -150.012694 69.5762 -175.313475 69.298856 C -178.153319 69.056669 -178.809569 68.447294 -178.821287 65.568388 C -178.86035 55.248075 -179.176756 44.908231 -178.7041 34.603544 C -177.5791 3.1387 -163.469725 -31.365206 -133.071287 -44.716769 C -127.833006 -47.001925 -122.352537 -48.318331 -116.61035 -48.333956 C -104.9541 -48.373019 -93.29785 -48.462862 -81.6416 -48.337862 C -59.762694 -48.044894 -41.122069 -30.443331 -31.383787 -12.037081 C -19.477537 9.861356 -19.067381 32.7637 -19.309569 57.005888 C -19.301756 60.166044 -19.407225 63.334013 -19.559569 66.490263 C -19.6416 68.216825 -20.278319 68.908231 -21.961912 69.119169 C -47.739256 69.8887 -73.583006 69.177763 -99.379881 69.412138 Z M -99.020506 -61.353487 C -130.477537 -61.044894 -162.008787 -61.978487 -193.426756 -60.974581 C -196.364256 -60.533175 -197.754881 -59.119112 -198.208006 -56.630831 C -199.129881 -51.4238 -194.758787 -48.20505 -190.032225 -48.447237 C -179.7041 -48.353487 -169.379881 -48.365206 -159.055662 -48.39255 C -158.012694 -48.26755 -156.543944 -48.724581 -155.786131 -47.822237 C -155.458006 -47.353487 -155.633787 -46.857394 -156.004881 -46.490206 C -157.907225 -44.623019 -159.79785 -42.744112 -161.747069 -40.927706 C -183.67285 -20.08005 -191.625975 11.29495 -191.969725 40.712919 C -191.840819 52.85745 -192.438475 65.048856 -191.637694 77.173856 C -191.493162 82.584013 -185.6416 83.271513 -181.301756 83.150419 C -126.840819 83.236356 -72.379881 83.220731 -17.915037 83.259794 C -13.750975 83.29495 -6.973631 83.205106 -6.743162 77.712919 C -6.6416 75.720731 -6.770506 73.716825 -6.688475 71.720731 C -6.563475 68.548856 -5.934569 67.876981 -2.868162 67.759794 C 14.901369 68.0762 28.331056 65.677763 39.456056 50.478544 C 49.338869 37.197294 49.678713 18.048856 40.081056 4.525419 C 30.897463 -8.482394 19.3584 -13.439425 3.620119 -13.220675 C -2.036131 -13.3613 -7.708006 -13.33005 -13.364256 -13.2988 C -15.981444 -13.197237 -17.700194 -14.275362 -18.899412 -16.685519 C -20.602537 -20.107394 -22.473631 -23.462862 -24.512694 -26.697237 C -29.196287 -34.4863 -35.833006 -40.556612 -42.321287 -46.790987 C -42.696287 -47.2363 -42.278319 -47.915987 -41.872069 -47.974581 C -31.254881 -48.646456 -20.563475 -48.169894 -9.92285 -48.419894 C -4.981444 -48.189425 0.311525 -49.169894 -0.340819 -55.365206 C -0.567381 -58.009737 -1.532225 -61.009737 -4.602537 -61.271456 C -36.04785 -61.790987 -67.555662 -61.013644 -99.020506 -61.083956 C -99.020506 -61.1738 -99.020506 -61.263644 -99.020506 -61.353487 Z M -99.020506 -61.353487 " transform="matrix(1,0,0,-1,5542.5791,2282.9512)"/>
<path style=" stroke:none;fill-rule:nonzero;fill:rgb(27.842712%,14.509583%,1.960754%);fill-opacity:1;" d="M 5572.507812 2115.8125 C 5575.496094 2113.226562 5576.996094 2109.378906 5579.800781 2106.5625 C 5582.722656 2103.628906 5586.542969 2101.863281 5589.621094 2098.957031 C 5588.34375 2097.097656 5586.597656 2096.128906 5584.96875 2095.015625 C 5581.21875 2092.460938 5578.027344 2089.367188 5575.734375 2085.402344 C 5574.75 2083.863281 5572.800781 2079.863281 5570.929688 2082.65625 C 5567.296875 2088.554688 5562.605469 2093.363281 5556.75 2097.078125 C 5553.660156 2098.886719 5557.339844 2100.847656 5558.976562 2101.949219 C 5563.273438 2104.636719 5566.757812 2108.125 5569.421875 2112.441406 C 5570.195312 2113.691406 5570.816406 2115.113281 5572.507812 2115.8125 M 5572.40625 2144.390625 C 5569.179688 2144.398438 5567.480469 2143.25 5566.492188 2140.121094 C 5563.167969 2122.515625 5555.695312 2111.070312 5537.785156 2106.289062 C 5535.53125 2105.726562 5533.230469 2105.324219 5531.089844 2104.378906 C 5528.6875 2103.398438 5527.472656 2101.4375 5527.222656 2098.992188 C 5526.992188 2096.679688 5529.203125 2093.664062 5531.597656 2092.894531 C 5533.96875 2092.132812 5536.386719 2091.484375 5538.820312 2090.96875 C 5544.878906 2089.683594 5549.890625 2086.570312 5554.332031 2082.386719 C 5559.558594 2077.46875 5563.160156 2071.617188 5564.726562 2064.566406 C 5565.269531 2062.128906 5565.828125 2059.699219 5566.414062 2057.273438 C 5567.070312 2054.542969 5568.769531 2052.941406 5571.601562 2052.664062 C 5577.683594 2051.929688 5578.800781 2058.613281 5579.667969 2063.257812 C 5581.550781 2076.464844 5594.605469 2088.765625 5605.484375 2090.972656 C 5607.925781 2091.46875 5610.324219 2092.167969 5612.753906 2092.722656 C 5616.394531 2093.558594 5618.613281 2098.046875 5616.515625 2101.933594 C 5615.855469 2103.15625 5614.964844 2104.09375 5613.589844 2104.464844 C 5611.503906 2105.023438 5609.4375 2105.65625 5607.332031 2106.097656 C 5599.917969 2107.648438 5593.75 2111.316406 5588.582031 2116.800781 C 5584.136719 2121.523438 5581.261719 2127.058594 5579.8125 2133.347656 C 5579.332031 2135.449219 5579.09375 2137.617188 5578.535156 2139.695312 C 5577.625 2143.0625 5575.789062 2144.382812 5572.40625 2144.390625 "/>
<path style="fill:none;stroke-width:7;stroke-linecap:butt;stroke-linejoin:miter;stroke:rgb(27.842712%,14.509583%,1.960754%);stroke-opacity:1;stroke-miterlimit:10;" d="M 0.0005125 0.001 C 2.988794 2.586937 4.488794 6.434594 7.293481 9.251 C 10.215356 12.184594 14.035669 13.950219 17.113794 16.856469 C 15.83645 18.715844 14.090356 19.684594 12.46145 20.797875 C 8.71145 23.352562 5.520044 26.446312 3.227075 30.411156 C 2.2427 31.950219 0.293481 35.950219 -1.577612 33.15725 C -5.210425 27.258812 -9.901831 22.450219 -15.7573 18.735375 C -18.847144 16.926781 -15.167456 14.965844 -13.530737 13.864281 C -9.233862 11.176781 -5.749487 7.6885 -3.085425 3.372094 C -2.311987 2.122094 -1.690894 0.700219 0.0005125 0.001 Z M -0.10105 -28.577125 C -3.327612 -28.584938 -5.026831 -27.4365 -6.015112 -24.307594 C -9.339331 -6.702125 -16.811987 4.743187 -34.722144 9.524437 C -36.97605 10.086937 -39.276831 10.489281 -41.417456 11.434594 C -43.8198 12.415062 -45.034644 14.376 -45.284644 16.821312 C -45.515112 19.133812 -43.304175 22.149437 -40.909644 22.918969 C -38.53855 23.680687 -36.120581 24.329125 -33.686987 24.84475 C -27.628394 26.129906 -22.616675 29.243187 -18.175269 33.426781 C -12.948706 38.34475 -9.347144 44.196312 -7.780737 51.247094 C -7.237769 53.684594 -6.679175 56.114281 -6.093237 58.540062 C -5.436987 61.270531 -3.737769 62.872094 -0.905737 63.149437 C 5.176294 63.883812 6.293481 57.200219 7.160669 52.555687 C 9.043481 39.348656 22.098169 27.047875 32.977075 24.840844 C 35.418481 24.34475 37.816919 23.645531 40.246606 23.090844 C 43.887231 22.254906 46.105981 17.766625 44.008325 13.879906 C 43.348169 12.65725 42.457544 11.71975 41.082544 11.348656 C 38.996606 10.790062 36.9302 10.15725 34.824731 9.715844 C 27.410669 8.165062 21.2427 4.497094 16.074731 -0.987281 C 11.629419 -5.709938 8.754419 -11.245094 7.3052 -17.534156 C 6.824731 -19.635719 6.58645 -21.803688 6.027856 -23.881813 C 5.1177 -27.249 3.281763 -28.569313 -0.10105 -28.577125 Z M -0.10105 -28.577125 " transform="matrix(1,0,0,-1,5572.5073,2115.8135)"/>
<path style=" stroke:none;fill-rule:nonzero;fill:rgb(27.842712%,14.509583%,1.960754%);fill-opacity:1;" d="M 5426.015625 2156.082031 C 5426.230469 2162.664062 5424.25 2168.269531 5421.226562 2173.539062 C 5420.328125 2175.105469 5419.117188 2176.539062 5417.84375 2177.835938 C 5415.257812 2180.476562 5413.0625 2180.703125 5410.300781 2178.867188 C 5407.015625 2176.683594 5406.039062 2174.050781 5407.457031 2170.796875 C 5408.050781 2169.433594 5408.875 2168.160156 5409.660156 2166.890625 C 5414.0625 2159.746094 5413.871094 2152.714844 5409.0625 2145.867188 C 5406.957031 2142.875 5404.660156 2140.019531 5402.480469 2137.082031 C 5399.257812 2132.746094 5397.046875 2128.003906 5396.058594 2122.632812 C 5394.058594 2111.550781 5398.03125 2100.496094 5405.117188 2092.054688 C 5407.460938 2088.742188 5412.597656 2087.507812 5415.484375 2090.785156 C 5417.253906 2092.570312 5417.832031 2094.738281 5417.042969 2097.207031 C 5416.476562 2098.988281 5415.347656 2100.433594 5414.324219 2101.949219 C 5412.277344 2104.996094 5410.515625 2108.152344 5409.511719 2111.75 C 5406.804688 2120.976562 5411.378906 2127.03125 5416.875 2133.828125 C 5421.855469 2140.023438 5426.386719 2148.066406 5426.015625 2156.082031 "/>
<path style="fill:none;stroke-width:7;stroke-linecap:butt;stroke-linejoin:miter;stroke:rgb(27.842712%,14.509583%,1.960754%);stroke-opacity:1;stroke-miterlimit:10;" d="M 0.000525 0.00096875 C 0.215369 -6.581062 -1.7651 -12.186531 -4.788538 -17.456062 C -5.686975 -19.022469 -6.897913 -20.456062 -8.17135 -21.752937 C -10.757288 -24.393562 -12.9526 -24.620125 -15.714319 -22.784187 C -18.999475 -20.600594 -19.976038 -17.967781 -18.558069 -14.713875 C -17.964319 -13.350594 -17.1401 -12.077156 -16.354944 -10.807625 C -11.9526 -3.663094 -12.144006 3.368156 -16.9526 10.215813 C -19.058069 13.208 -21.354944 16.063469 -23.534631 19.000969 C -26.757288 23.336906 -28.968225 28.079094 -29.956506 33.450188 C -31.956506 44.532219 -27.98385 55.586906 -20.897913 64.028313 C -18.554163 67.340813 -13.417444 68.575188 -10.530725 65.297844 C -8.761194 63.512688 -8.183069 61.344719 -8.972131 58.875969 C -9.538538 57.094719 -10.667444 55.649406 -11.690881 54.133781 C -13.737756 51.086906 -15.499475 47.930656 -16.503381 44.333 C -19.210413 35.106438 -14.636194 29.05175 -9.1401 22.254875 C -4.159631 16.059563 0.371619 8.016594 0.000525 0.00096875 Z M 0.000525 0.00096875 " transform="matrix(1,0,0,-1,5426.0151,2156.083)"/>
<path style=" stroke:none;fill-rule:nonzero;fill:rgb(27.842712%,14.509583%,1.960754%);fill-opacity:1;" d="M 5469.945312 2156.128906 C 5469.824219 2163.507812 5467.5 2170.152344 5463.1875 2176.113281 C 5461.1875 2178.941406 5457.6875 2181.246094 5454.765625 2179.433594 C 5451.734375 2177.863281 5450.351562 2175.234375 5450.882812 2172.066406 C 5451.191406 2170.207031 5452.160156 2168.652344 5453.160156 2167.121094 C 5454.71875 2164.730469 5455.953125 2162.238281 5456.386719 2159.359375 C 5456.898438 2155.96875 5456.550781 2152.746094 5455.160156 2149.609375 C 5453.296875 2145.308594 5450.289062 2141.679688 5447.308594 2138.117188 C 5438.648438 2128.085938 5437.203125 2113.277344 5443.046875 2101.546875 C 5444.609375 2098.441406 5446.628906 2095.5625 5448.542969 2092.648438 C 5450.640625 2089.226562 5456.179688 2087.164062 5459.171875 2090.589844 C 5460.96875 2092.496094 5462.019531 2094.785156 5460.890625 2097.417969 C 5458.574219 2102.027344 5455.144531 2105.910156 5453.589844 2110.96875 C 5450.082031 2120.195312 5455.863281 2128.480469 5461.667969 2135.179688 C 5466.515625 2141.0625 5469.789062 2148.441406 5469.945312 2156.128906 "/>
<path style="fill:none;stroke-width:7;stroke-linecap:butt;stroke-linejoin:miter;stroke:rgb(27.842712%,14.509583%,1.960754%);stroke-opacity:1;stroke-miterlimit:10;" d="M -0.0004875 -0.00000625 C -0.121581 -7.378913 -2.4458 -14.023444 -6.7583 -19.984381 C -8.7583 -22.812506 -12.2583 -25.117194 -15.180175 -23.304694 C -18.211425 -21.734381 -19.594237 -19.105475 -19.062987 -15.937506 C -18.754394 -14.078131 -17.785644 -12.523444 -16.785644 -10.992194 C -15.22705 -8.601569 -13.992675 -6.109381 -13.559081 -3.230475 C -13.047362 0.16015 -13.395019 3.382806 -14.785644 6.519525 C -16.648925 10.820306 -19.656737 14.449212 -22.637206 18.011712 C -31.297362 28.042962 -32.742675 42.851556 -26.898925 54.582025 C -25.336425 57.687494 -23.316894 60.5664 -21.402831 63.480462 C -19.305175 66.902337 -13.766112 68.964837 -10.773925 65.539056 C -8.97705 63.632806 -7.926269 61.343744 -9.055175 58.710931 C -11.371581 54.101556 -14.801269 50.218744 -16.355956 45.16015 C -19.863769 35.933587 -14.082519 27.648431 -8.277831 20.949212 C -3.430175 15.0664 -0.156737 7.687494 -0.0004875 -0.00000625 Z M -0.0004875 -0.00000625 " transform="matrix(1,0,0,-1,5469.9458,2156.1289)"/>
</svg>
