<?xml version="1.0" encoding="UTF-8"?>
<svg xmlns="http://www.w3.org/2000/svg" width="256" height="256" viewBox="7739.73 3018.73 1216.54 1216.54" preserveAspectRatio="xMidYMid meet">
<path style=" stroke:none;fill-rule:nonzero;fill:rgb(27.842712%,14.509583%,1.960754%);fill-opacity:1;" d="M 8296.832031 3918.273438 C 8222.007812 3918.527344 8151.886719 3874.550781 8115.957031 3809.726562 C 8098.808594 3778.964844 8090.757812 3743.6875 8090.109375 3708.617188 C 8090.355469 3604.957031 8166.773438 3507.886719 8223.671875 3425.851562 C 8235.390625 3409.453125 8247.074219 3393.027344 8258.695312 3376.5625 C 8265.804688 3366.492188 8272.878906 3356.394531 8279.769531 3346.175781 C 8285.195312 3338.125 8298.632812 3332.976562 8309.238281 3341.464844 C 8311.085938 3342.945312 8312.519531 3344.761719 8313.84375 3346.6875 C 8324.882812 3362.75 8335.871094 3378.84375 8346.976562 3394.855469 C 8372.664062 3431.757812 8398.722656 3468.464844 8423.195312 3506.167969 C 8430.058594 3521.535156 8408.316406 3531.457031 8400.460938 3517.1875 C 8367.917969 3468.410156 8333.585938 3420.863281 8300.234375 3372.636719 C 8296.828125 3367.761719 8296.574219 3366.957031 8292.636719 3372.800781 C 8285.097656 3383.984375 8277.21875 3394.945312 8269.382812 3405.925781 C 8211.332031 3490.539062 8111 3608.804688 8114.949219 3714.339844 C 8119.375 3848.570312 8266.683594 3939.347656 8385.089844 3868.890625 C 8437.921875 3838.234375 8472.386719 3780.277344 8475.425781 3719.414062 C 8475.515625 3711.585938 8476.714844 3705.175781 8485.476562 3703.425781 C 8491.101562 3702.285156 8496.4375 3704.664062 8499.058594 3709.488281 C 8500.277344 3711.738281 8500.851562 3714.144531 8500.652344 3716.703125 C 8500.371094 3720.359375 8500.15625 3724.019531 8499.75 3727.660156 C 8498.484375 3738.917969 8496.820312 3750.113281 8494.035156 3761.109375 C 8472.261719 3851.300781 8390.039062 3918.285156 8296.832031 3918.273438 "/>
<path style="fill:none;stroke-width:7;stroke-linecap:butt;stroke-linejoin:miter;stroke:rgb(27.842712%,14.509583%,1.960754%);stroke-opacity:1;stroke-miterlimit:10;" d="M 0.00093125 0.0004625 C -74.823287 -0.253444 -144.944381 43.723119 -180.874069 108.547337 C -198.022506 139.309056 -206.073287 174.5864 -206.721725 209.656712 C -206.475631 313.316869 -130.057662 410.387181 -73.159225 492.422337 C -61.440475 508.820775 -49.756881 525.246556 -38.135787 541.7114 C -31.026412 551.781712 -23.952194 561.879369 -17.061569 572.098119 C -11.635787 580.1489 1.801713 585.297337 12.407181 576.809056 C 14.254838 575.328587 15.688431 573.512181 17.01265 571.5864 C 28.051713 555.5239 39.039994 539.43015 50.145463 523.418431 C 75.832963 486.516087 101.891556 449.809056 126.364213 412.105931 C 133.227494 396.738744 111.485306 386.816869 103.629838 401.0864 C 71.086869 449.863744 36.754838 497.410619 3.403275 545.637181 C -0.002975 550.512181 -0.256881 551.316869 -4.194381 545.473119 C -11.733444 534.289525 -19.61235 523.328587 -27.448287 512.348119 C -85.499069 427.734837 -185.8311 309.469212 -181.881881 203.934056 C -177.4561 69.703587 -30.147506 -21.073756 88.258744 49.383275 C 141.090775 80.039525 175.555619 137.996556 178.594681 198.859837 C 178.684525 206.687962 179.883744 213.098119 188.645463 214.848119 C 194.270463 215.988744 199.6064 213.609837 202.227494 208.785619 C 203.446244 206.535619 204.020463 204.129369 203.821244 201.570775 C 203.539994 197.914525 203.32515 194.254369 202.9189 190.613744 C 201.653275 179.355931 199.989213 168.160619 197.204056 157.164525 C 175.430619 66.973119 93.207963 -0.0112563 0.00093125 0.0004625 Z M 0.00093125 0.0004625 " transform="matrix(1,0,0,-1,8296.8311,3918.2739)"/>
<path style=" stroke:none;fill-rule:nonzero;fill:rgb(27.842712%,14.509583%,1.960754%);fill-opacity:1;" d="M 8551.15625 3567.597656 C 8550.832031 3566.707031 8550 3566.4375 8549.261719 3566.113281 C 8524.96875 3554.753906 8506.011719 3534.929688 8494.195312 3511.070312 C 8493.492188 3509.675781 8493.632812 3507.203125 8491.601562 3507.300781 C 8490.234375 3507.367188 8489.910156 3509.570312 8489.15625 3510.839844 C 8484.632812 3520.152344 8479.003906 3528.757812 8472.242188 3536.632812 C 8461.792969 3548.777344 8449.582031 3558.59375 8435.175781 3565.664062 C 8434.03125 3566.226562 8432.097656 3566.402344 8432.066406 3567.785156 C 8432.023438 3569.503906 8434.121094 3569.605469 8435.347656 3570.230469 C 8460.222656 3582.820312 8478.597656 3602.105469 8490.488281 3627.273438 C 8490.804688 3627.8125 8491.089844 3628.585938 8491.917969 3628.304688 C 8492.328125 3628.164062 8492.730469 3627.738281 8492.941406 3627.339844 C 8494.796875 3623.804688 8496.441406 3620.152344 8498.460938 3616.714844 C 8509.867188 3596.601562 8527.273438 3580.609375 8547.96875 3570.28125 C 8549.003906 3569.765625 8549.976562 3569.125 8550.929688 3568.472656 C 8551.121094 3568.339844 8551.089844 3567.890625 8551.15625 3567.597656 M 8606.929688 3567.929688 C 8607.503906 3574.851562 8601.699219 3580.859375 8595.011719 3581.609375 C 8570.589844 3583.628906 8547.625 3593.753906 8531.054688 3611.925781 C 8515.296875 3628.742188 8507.171875 3649.96875 8504.921875 3672.804688 C 8502.574219 3687.332031 8480.347656 3687.8125 8478.003906 3672.203125 C 8475.863281 3628.949219 8441.851562 3590.050781 8399.007812 3582.953125 C 8394.921875 3582.199219 8390.691406 3582.261719 8386.601562 3581.488281 C 8376.390625 3579.199219 8373.429688 3567.503906 8378.019531 3560.535156 C 8380.046875 3557.453125 8382.757812 3555.375 8386.394531 3554.730469 C 8390.492188 3554 8394.617188 3553.4375 8398.730469 3552.832031 C 8420.371094 3549.328125 8440.164062 3537.527344 8454.453125 3521.023438 C 8467.945312 3504.96875 8476.769531 3485.378906 8477.871094 3464.300781 C 8478.015625 3462.46875 8478.199219 3460.675781 8478.8125 3458.914062 C 8480.902344 3452.914062 8486.355469 3449.257812 8492.683594 3449.699219 C 8498.753906 3450.121094 8503.75 3454.375 8504.871094 3460.417969 C 8505.664062 3464.664062 8506.109375 3468.972656 8506.691406 3473.257812 C 8512.753906 3515.28125 8549.097656 3550.347656 8591.558594 3553.796875 C 8599.980469 3554.160156 8607.136719 3558.804688 8606.929688 3567.929688 "/>
<path style="fill:none;stroke-width:7;stroke-linecap:butt;stroke-linejoin:miter;stroke:rgb(27.842712%,14.509583%,1.960754%);stroke-opacity:1;stroke-miterlimit:10;" d="M -0.00005 0.00194375 C -0.324269 0.892569 -1.1563 1.1621 -1.894581 1.486319 C -26.18755 12.845694 -45.144581 32.669913 -56.960987 56.529288 C -57.664112 57.923819 -57.523487 60.396475 -59.554737 60.298819 C -60.921925 60.232413 -61.246144 58.029288 -62.00005 56.759756 C -66.523487 47.447256 -72.152394 38.841788 -78.914112 30.966788 C -89.363331 18.822256 -101.574269 9.00585 -115.980519 1.935538 C -117.12505 1.373038 -119.058644 1.197256 -119.089894 -0.185556 C -119.132862 -1.904306 -117.035206 -2.005869 -115.808644 -2.630869 C -90.933644 -15.220712 -72.558644 -34.505869 -60.668019 -59.673837 C -60.351612 -60.2129 -60.066456 -60.986337 -59.238331 -60.705087 C -58.828175 -60.564462 -58.425831 -60.138681 -58.214894 -59.740244 C -56.359425 -56.205087 -54.714894 -52.552744 -52.695362 -49.115244 C -41.289112 -29.001962 -23.882862 -13.009775 -3.18755 -2.68165 C -2.152394 -2.166025 -1.179737 -1.5254 -0.226612 -0.873056 C -0.0352062 -0.740244 -0.0664562 -0.291025 -0.00005 0.00194375 Z M 55.773388 -0.330087 C 56.347606 -7.251962 50.542919 -13.259775 43.855419 -14.009775 C 19.433544 -16.029306 -3.5313 -26.154306 -20.101612 -44.326181 C -35.859425 -61.142587 -43.984425 -82.36915 -46.234425 -105.205087 C -48.582081 -119.732431 -70.808644 -120.2129 -73.152394 -104.603525 C -75.293019 -61.349619 -109.304737 -22.451181 -152.148487 -15.353525 C -156.234425 -14.599619 -160.464894 -14.662119 -164.554737 -13.888681 C -174.765675 -11.599619 -177.726612 0.0956938 -173.136769 7.064444 C -171.109425 10.146475 -168.398487 12.2246 -164.761769 12.869131 C -160.664112 13.5996 -156.539112 14.1621 -152.425831 14.767569 C -130.785206 18.271475 -110.992237 30.072256 -96.703175 46.576163 C -83.210987 62.63085 -74.386769 82.220694 -73.285206 103.298819 C -73.140675 105.13085 -72.957081 106.923819 -72.3438 108.685538 C -70.253956 114.685538 -64.800831 118.341788 -58.472706 117.900381 C -52.402394 117.478506 -47.4063 113.2246 -46.285206 107.181631 C -45.492237 102.935538 -45.046925 98.626944 -44.464894 94.341788 C -38.402394 52.31835 -2.058644 17.251944 40.402294 13.802725 C 48.824169 13.439444 55.980419 8.794913 55.773388 -0.330087 Z M 55.773388 -0.330087 " transform="matrix(1,0,0,-1,8551.1563,3567.5996)"/>
<path style=" stroke:none;fill-rule:nonzero;fill:rgb(27.842712%,14.509583%,1.960754%);fill-opacity:1;" d="M 8287.167969 3845.902344 C 8216.742188 3841.027344 8160.90625 3780.371094 8160.355469 3710.269531 C 8159.441406 3696.582031 8178.550781 3692.441406 8183.039062 3705.441406 C 8183.695312 3707.539062 8183.773438 3709.679688 8183.898438 3711.847656 C 8184.359375 3719.824219 8185.039062 3727.78125 8186.984375 3735.566406 C 8197.613281 3781.402344 8238.78125 3816.828125 8285.386719 3821.777344 C 8287.1875 3822.066406 8289.035156 3822.324219 8290.734375 3822.945312 C 8303.140625 3827.671875 8299.972656 3846.179688 8287.167969 3845.902344 "/>
<path style="fill:none;stroke-width:7;stroke-linecap:butt;stroke-linejoin:miter;stroke:rgb(27.842712%,14.509583%,1.960754%);stroke-opacity:1;stroke-miterlimit:10;" d="M 0.00096875 0.00095625 C -70.424812 4.875956 -126.26075 65.532206 -126.811531 135.633769 C -127.725594 149.321269 -108.616219 153.461894 -104.127937 140.461894 C -103.471687 138.364237 -103.393562 136.223612 -103.268562 134.055644 C -102.807625 126.079081 -102.127937 118.12205 -100.182625 110.336894 C -89.553719 64.500956 -48.38575 29.075175 -1.780281 24.125956 C 0.0205 23.836894 1.868156 23.579081 3.567375 22.957987 C 15.973625 18.231425 12.805656 -0.276388 0.00096875 0.00095625 Z M 0.00096875 0.00095625 " transform="matrix(1,0,0,-1,8287.167,3845.9033)"/>
</svg>
