<?xml version="1.0" encoding="UTF-8"?>
<svg xmlns="http://www.w3.org/2000/svg" width="256" height="256" viewBox="5747.75 3165.25 937.51 937.51" preserveAspectRatio="xMidYMid meet">
<path style=" stroke:none;fill-rule:nonzero;fill:rgb(27.842712%,14.509583%,1.960754%);fill-opacity:1;" d="M 6565.5625 3731.375 C 6565.546875 3731.375 6565.53125 3731.375 6565.515625 3731.375 C 6565.515625 3728.046875 6565.566406 3724.71875 6565.5 3721.394531 C 6565.445312 3718.789062 6564.941406 3718.21875 6562.234375 3718.0625 C 6559.417969 3717.902344 6556.582031 3717.902344 6553.757812 3717.996094 C 6551.449219 3718.070312 6550.785156 3718.730469 6550.75 3721.042969 C 6550.707031 3727.855469 6550.617188 3734.683594 6550.800781 3741.496094 C 6550.949219 3743.738281 6551.640625 3744.601562 6553.769531 3744.730469 C 6556.585938 3744.902344 6559.425781 3744.921875 6562.242188 3744.777344 C 6564.746094 3744.652344 6565.476562 3743.835938 6565.539062 3741.351562 C 6565.625 3738.027344 6565.5625 3734.703125 6565.5625 3731.375 M 6427.046875 3739.402344 L 6427.046875 3739.484375 C 6436.859375 3739.484375 6446.671875 3739.488281 6456.484375 3739.476562 C 6458.683594 3739.234375 6463.09375 3740.34375 6463.210938 3737.125 C 6463.285156 3733.808594 6463.234375 3730.488281 6463.164062 3727.167969 C 6462.941406 3724.355469 6459.328125 3725.054688 6457.34375 3724.914062 C 6454.519531 3724.964844 6451.695312 3725.160156 6448.871094 3725.191406 C 6442.71875 3725.261719 6436.5625 3725.335938 6430.410156 3725.273438 C 6427.667969 3725.242188 6425.167969 3725.851562 6422.765625 3727.125 C 6414.046875 3731.746094 6404.785156 3734.898438 6395.226562 3737.246094 C 6394.585938 3737.402344 6393.9375 3737.582031 6393.335938 3737.855469 C 6393.136719 3737.949219 6392.9375 3738.394531 6392.992188 3738.613281 C 6393.058594 3738.863281 6393.390625 3739.195312 6393.632812 3739.21875 C 6394.785156 3739.332031 6395.949219 3739.394531 6397.109375 3739.394531 C 6407.089844 3739.40625 6417.066406 3739.402344 6427.046875 3739.402344 M 6509.519531 3753.050781 L 6509.519531 3753.042969 C 6517.515625 3752.996094 6525.519531 3753.144531 6533.515625 3752.976562 C 6536.636719 3752.949219 6536.753906 3751.40625 6536.714844 3748.578125 C 6536.703125 3736.75 6536.703125 3724.921875 6536.675781 3713.09375 C 6536.835938 3708.984375 6535.027344 3708.636719 6531.234375 3708.738281 C 6516.90625 3708.902344 6502.578125 3709.242188 6488.253906 3709.152344 C 6482.035156 3709.109375 6477.921875 3712.042969 6478.09375 3719.089844 C 6478.339844 3727.582031 6477.902344 3736.085938 6478.15625 3744.578125 C 6478.417969 3752.605469 6483.789062 3753.234375 6490.523438 3753.046875 C 6496.855469 3753.054688 6503.1875 3753.050781 6509.519531 3753.050781 M 6144.386719 3620.6875 L 6144.292969 3620.6875 C 6144.292969 3638.515625 6144.289062 3656.34375 6144.296875 3674.171875 C 6144.300781 3676.171875 6144.371094 3678.171875 6144.398438 3680.167969 C 6144.507812 3688.015625 6152.113281 3695.246094 6159.65625 3695.109375 C 6171.316406 3694.816406 6182.996094 3695.210938 6194.648438 3694.90625 C 6202.828125 3694.351562 6208.597656 3686.597656 6208.738281 3678.742188 C 6208.820312 3676.578125 6208.757812 3674.410156 6208.753906 3672.242188 C 6208.421875 3635.269531 6209.292969 3598.238281 6208.210938 3561.289062 C 6207.492188 3552.460938 6201.707031 3546.898438 6192.898438 3546.507812 C 6181.742188 3546.007812 6170.566406 3545.996094 6159.410156 3546.480469 C 6148.734375 3547.09375 6143.511719 3556.128906 6144.394531 3566.203125 C 6144.386719 3584.363281 6144.386719 3602.527344 6144.386719 3620.6875 M 6366.566406 3723.480469 C 6438.578125 3723.882812 6494.144531 3652.273438 6467.140625 3583.375 C 6448.804688 3532.949219 6389.816406 3510.324219 6339.886719 3523.207031 C 6306.3125 3531.820312 6274.597656 3546.207031 6241.980469 3557.753906 C 6237.617188 3559.386719 6233.277344 3561.113281 6228.835938 3562.507812 C 6225.949219 3563.414062 6224.882812 3565.144531 6224.894531 3568.011719 C 6224.976562 3574.007812 6224.683594 3580.011719 6224.820312 3586.003906 C 6224.976562 3587.707031 6225.886719 3588.707031 6227.839844 3588.117188 C 6233.253906 3586.476562 6238.75 3585.089844 6244.148438 3583.390625 C 6300.265625 3565.4375 6374.589844 3518.742188 6426.546875 3568.921875 C 6465.429688 3606.195312 6449.019531 3672.355469 6399.671875 3691.101562 C 6369.164062 3704.078125 6335.050781 3694.945312 6305.480469 3683.535156 C 6279.574219 3673.128906 6254.40625 3660.339844 6227.0625 3654.015625 C 6224.546875 3653.554688 6224.890625 3656.945312 6224.820312 3658.597656 C 6224.808594 3662.929688 6224.816406 3667.261719 6224.835938 3671.59375 C 6224.953125 3677.511719 6224.394531 3677.886719 6230.453125 3679.792969 C 6254.699219 3688.695312 6278.152344 3699.496094 6302.105469 3709.121094 C 6322.609375 3717.402344 6344.335938 3723.289062 6366.566406 3723.480469 M 6127.421875 3576.476562 L 6127.394531 3576.476562 C 6127.394531 3573.644531 6127.4375 3570.808594 6127.386719 3567.976562 C 6127.320312 3564.171875 6127.179688 3563.964844 6123.464844 3562.660156 C 6100.832031 3555.25 6078.929688 3545.808594 6056.765625 3537.132812 C 6033.503906 3527.867188 6009.074219 3519.945312 5983.816406 3519.695312 C 5923.808594 3519.332031 5873.214844 3560.441406 5873.074219 3622.539062 C 5875.582031 3681.691406 5922.738281 3722.898438 5980.691406 3724.769531 C 6007 3725.054688 6032.472656 3716.648438 6056.328125 3706.242188 C 6078.644531 3696.585938 6100.792969 3686.519531 6123.984375 3679.046875 C 6126.421875 3678.261719 6127.503906 3676.84375 6127.480469 3674.324219 C 6127.425781 3668.828125 6127.507812 3663.328125 6127.460938 3657.828125 C 6127.421875 3653.535156 6127.175781 3653.34375 6122.730469 3654.417969 C 6095.914062 3660.816406 6071.070312 3673 6045.625 3683.242188 C 6028.835938 3689.882812 6011.695312 3694.996094 5993.621094 3696.851562 C 5963.253906 3700.042969 5931.324219 3689.429688 5913.554688 3663.679688 C 5898.441406 3642.277344 5895.089844 3619.03125 5904.742188 3594.464844 C 5916.824219 3562.542969 5951.488281 3545.492188 5984.390625 3546.667969 C 6011.164062 3547.316406 6036.730469 3556.816406 6061.40625 3566.425781 C 6082.101562 3574.703125 6102.8125 3583.28125 6124.636719 3588.148438 C 6126.804688 3588.636719 6127.335938 3588.261719 6127.398438 3585.972656 C 6127.484375 3582.808594 6127.421875 3579.640625 6127.421875 3576.476562 M 6224.867188 3620.933594 L 6224.894531 3620.933594 C 6224.894531 3623.929688 6224.882812 3626.929688 6224.894531 3629.925781 C 6224.914062 3634.792969 6224.632812 3635.644531 6230.3125 3637.058594 C 6242.757812 3640.152344 6254.980469 3644 6266.957031 3648.605469 C 6294.285156 3659.019531 6320.300781 3673.492188 6349.425781 3678.410156 C 6381.863281 3685.488281 6417.695312 3671.007812 6428.347656 3637.800781 C 6440.015625 3605.785156 6416.171875 3571.492188 6385.289062 3565.648438 C 6340.609375 3555.703125 6286.175781 3590.441406 6242.855469 3601.871094 C 6238.375 3603.148438 6233.871094 3604.34375 6229.402344 3605.65625 C 6224.9375 3606.964844 6224.921875 3607.019531 6224.875 3611.4375 C 6224.839844 3614.601562 6224.867188 3617.765625 6224.867188 3620.933594 M 6127.492188 3621.386719 L 6127.414062 3621.386719 C 6127.414062 3617.554688 6127.476562 3613.722656 6127.394531 3609.894531 C 6127.339844 3607.277344 6126.910156 3606.820312 6124.375 3606.0625 C 6123.582031 3605.824219 6122.75 3605.710938 6121.941406 3605.507812 C 6095.835938 3599.265625 6070.945312 3589.117188 6046.09375 3579.160156 C 6020.464844 3569.675781 5992.554688 3559.726562 5964.992188 3565.714844 C 5897.996094 3581.84375 5902.21875 3664.730469 5968.089844 3678.792969 C 6003.710938 3685.253906 6037.441406 3667.457031 6069.457031 3654.351562 C 6085.738281 3647.472656 6102.335938 3641.550781 6119.558594 3637.484375 C 6121.015625 3637.136719 6122.472656 3636.773438 6123.902344 3636.335938 C 6127.132812 3635.355469 6127.394531 3635.09375 6127.472656 3631.875 C 6127.5625 3628.378906 6127.492188 3624.882812 6127.492188 3621.386719 M 6577.703125 3731.652344 C 6577.535156 3737.117188 6578.152344 3742.683594 6577.273438 3748.089844 C 6576.199219 3752.613281 6573.296875 3755.320312 6568.722656 3756.078125 C 6563.605469 3756.707031 6558.398438 3756.273438 6553.25 3756.378906 C 6551.964844 3756.382812 6550.988281 3756.882812 6550.800781 3758.328125 C 6550.734375 3758.824219 6550.65625 3759.320312 6550.519531 3759.800781 C 6549.160156 3764.554688 6547.039062 3766.292969 6541.964844 3766.683594 C 6522.480469 3767.117188 6502.964844 3766.9375 6483.480469 3766.847656 C 6477.632812 3766.707031 6472.742188 3764.484375 6469.199219 3759.816406 C 6467.265625 3757.265625 6464.886719 3756.519531 6461.847656 3756.53125 C 6442.1875 3756.671875 6422.511719 3756.207031 6402.855469 3756.507812 C 6338.335938 3758.554688 6284.328125 3718.207031 6226.136719 3696.597656 C 6224.207031 3695.984375 6221.675781 3694.457031 6220.273438 3696.730469 C 6213.453125 3708.066406 6201.703125 3712.863281 6188.820312 3712.390625 C 6179.488281 3712.421875 6170.160156 3712.441406 6160.828125 3712.4375 C 6150.015625 3712.539062 6139.128906 3707.269531 6133.207031 3698.0625 C 6131.152344 3694.742188 6131.023438 3694.75 6127.144531 3696.09375 C 6079.488281 3712.296875 6034.765625 3742.027344 5982.980469 3742.109375 C 5915.371094 3742.574219 5857.015625 3691.078125 5856.28125 3622.070312 C 5855.410156 3544.226562 5926.164062 3494.152344 6000.128906 3503.414062 C 6034.984375 3507.421875 6066.804688 3522.867188 6099.230469 3535.171875 C 6108.101562 3538.542969 6116.976562 3541.902344 6125.851562 3545.261719 C 6131.011719 3547.214844 6130.9375 3547.519531 6133.855469 3542.953125 C 6139.296875 3535.132812 6146.695312 3530.539062 6156.191406 3529.414062 C 6168.324219 3528.761719 6180.519531 3529.246094 6192.671875 3529.167969 C 6202.363281 3529.25 6210.46875 3533 6216.886719 3540.261719 C 6218.089844 3541.625 6218.980469 3543.257812 6220.054688 3544.738281 C 6221.3125 3546.464844 6221.75 3546.65625 6223.847656 3545.90625 C 6229.179688 3544 6234.484375 3542.023438 6239.792969 3540.054688 C 6263.679688 3531.1875 6287.539062 3522.246094 6311.460938 3513.476562 C 6322.742188 3509.34375 6334.34375 3506.261719 6346.207031 3504.34375 C 6403.453125 3494.03125 6466.164062 3524.027344 6484.777344 3581.007812 C 6489.085938 3593.230469 6491.265625 3605.785156 6490.726562 3618.773438 C 6490.554688 3622.933594 6490.605469 3627.105469 6490.296875 3631.25 C 6487.738281 3658.878906 6474.699219 3684.992188 6455.460938 3704.792969 C 6454.882812 3705.386719 6454.304688 3705.992188 6453.789062 3706.644531 C 6453.628906 3706.851562 6453.570312 3707.277344 6453.667969 3707.515625 C 6453.773438 3707.777344 6454.121094 3708.117188 6454.363281 3708.117188 C 6457.359375 3708.109375 6460.359375 3708.066406 6463.355469 3707.988281 C 6464.597656 3707.953125 6465.558594 3707.386719 6466.230469 3706.292969 C 6471.082031 3697.96875 6477.570312 3695.023438 6487.046875 3695.230469 C 6505.375 3695.246094 6523.714844 3694.949219 6542.035156 3695.164062 C 6547.273438 3695.605469 6550.210938 3698.289062 6550.894531 3703.609375 C 6551.097656 3704.976562 6551.914062 3705.625 6553.273438 3705.632812 C 6556.105469 3705.65625 6558.9375 3705.675781 6561.769531 3705.691406 C 6563.605469 3705.703125 6565.445312 3705.59375 6567.269531 3705.722656 C 6572.300781 3706.078125 6575.941406 3709.234375 6577.046875 3714.207031 C 6578.085938 3719.941406 6577.40625 3725.847656 6577.578125 3731.652344 Z M 6577.703125 3731.652344 "/>
<path style="fill:none;stroke-width:7;stroke-linecap:butt;stroke-linejoin:miter;stroke:rgb(27.842712%,14.509583%,1.960754%);stroke-opacity:1;stroke-miterlimit:10;" d="M 0.0005 -0.0005 C -0.015125 -0.0005 -0.03075 -0.0005 -0.046375 -0.0005 C -0.046375 3.327625 0.00440625 6.65575 -0.062 9.979969 C -0.116688 12.585437 -0.620594 13.15575 -3.327625 13.312 C -6.144031 13.472156 -8.979969 13.472156 -11.804188 13.378406 C -14.112781 13.304187 -14.776844 12.644031 -14.812 10.331531 C -14.854969 3.519031 -14.944813 -3.309094 -14.761219 -10.121594 C -14.612781 -12.363781 -13.921375 -13.227063 -11.792469 -13.355969 C -8.976063 -13.527844 -6.136219 -13.547375 -3.319813 -13.402844 C -0.815906 -13.277844 -0.0854375 -12.461438 -0.0229375 -9.977063 C 0.063 -6.652844 0.0005 -3.328625 0.0005 -0.0005 Z M -138.515125 -8.027844 L -138.515125 -8.109875 C -128.702625 -8.109875 -118.890125 -8.113781 -109.077625 -8.102063 C -106.878406 -7.859875 -102.46825 -8.96925 -102.351063 -5.7505 C -102.276844 -2.434094 -102.327625 0.886219 -102.397938 4.206531 C -102.620594 7.019031 -106.233875 6.319812 -108.21825 6.460437 C -111.042469 6.409656 -113.866688 6.214344 -116.690906 6.183094 C -122.84325 6.112781 -128.9995 6.038562 -135.151844 6.101062 C -137.894031 6.132312 -140.394031 5.522937 -142.796375 4.2495 C -151.515125 -0.371594 -160.776844 -3.523938 -170.335438 -5.871594 C -170.976063 -6.027844 -171.6245 -6.207531 -172.226063 -6.480969 C -172.425281 -6.574719 -172.6245 -7.020031 -172.569813 -7.238781 C -172.503406 -7.488781 -172.171375 -7.820813 -171.929188 -7.84425 C -170.776844 -7.957531 -169.612781 -8.020031 -168.452625 -8.020031 C -158.472156 -8.03175 -148.495594 -8.027844 -138.515125 -8.027844 Z M -56.042469 -21.676281 L -56.042469 -21.668469 C -48.046375 -21.621594 -40.042469 -21.770031 -32.046375 -21.602063 C -28.925281 -21.574719 -28.808094 -20.03175 -28.847156 -17.203625 C -28.858875 -5.3755 -28.858875 6.452625 -28.886219 18.28075 C -28.726063 22.390125 -30.534656 22.737781 -34.327625 22.636219 C -48.65575 22.472156 -62.983875 22.132312 -77.308094 22.222156 C -83.526844 22.265125 -87.640125 19.331531 -87.46825 12.284656 C -87.222156 3.792469 -87.659656 -4.711438 -87.40575 -13.203625 C -87.144031 -21.230969 -81.772938 -21.859875 -75.038563 -21.672375 C -68.706531 -21.680188 -62.3745 -21.676281 -56.042469 -21.676281 Z M -421.175281 110.687 L -421.269031 110.687 C -421.269031 92.858875 -421.272938 75.03075 -421.265125 57.202625 C -421.261219 55.202625 -421.190906 53.202625 -421.163563 51.206531 C -421.054188 43.358875 -413.448719 36.128406 -405.90575 36.265125 C -394.245594 36.558094 -382.565906 36.163562 -370.913563 36.46825 C -362.733875 37.022937 -356.964344 44.776844 -356.823719 52.632312 C -356.741688 54.796375 -356.804188 56.964344 -356.808094 59.132312 C -357.140125 96.104969 -356.269031 133.136219 -357.351063 170.085437 C -358.069813 178.913562 -363.854969 184.476062 -372.663563 184.866687 C -383.819813 185.366687 -394.995594 185.378406 -406.151844 184.894031 C -416.827625 184.28075 -422.050281 175.245594 -421.167469 165.171375 C -421.175281 147.011219 -421.175281 128.847156 -421.175281 110.687 Z M -198.995594 7.894031 C -126.983875 7.491687 -71.417469 79.101062 -98.421375 147.9995 C -116.757313 198.425281 -175.745594 221.050281 -225.675281 208.167469 C -259.2495 199.554187 -290.964344 185.167469 -323.581531 173.620594 C -327.944813 171.987781 -332.284656 170.261219 -336.726063 168.866687 C -339.612781 167.960437 -340.679188 166.229969 -340.667469 163.362781 C -340.585438 157.366687 -340.878406 151.362781 -340.741688 145.370594 C -340.585438 143.667469 -339.675281 142.667469 -337.722156 143.257312 C -332.308094 144.897937 -326.812 146.284656 -321.413563 147.983875 C -265.296375 165.937 -190.972156 212.632312 -139.015125 162.452625 C -100.132313 125.179187 -116.542469 59.019031 -165.890125 40.272937 C -196.397938 27.296375 -230.511219 36.429187 -260.081531 47.839344 C -285.987781 58.245594 -311.15575 71.034656 -338.4995 77.358875 C -341.015125 77.819812 -340.671375 74.429187 -340.741688 72.776844 C -340.753406 68.444812 -340.745594 64.112781 -340.726063 59.78075 C -340.608875 53.862781 -341.167469 53.487781 -335.108875 51.581531 C -310.862781 42.679187 -287.409656 31.878406 -263.456531 22.253406 C -242.952625 13.972156 -221.226063 8.085437 -198.995594 7.894031 Z M -438.140125 154.897937 L -438.167469 154.897937 C -438.167469 157.729969 -438.1245 160.565906 -438.175281 163.397937 C -438.241688 167.202625 -438.382313 167.409656 -442.097156 168.714344 C -464.729969 176.1245 -486.632313 185.565906 -508.796375 194.241687 C -532.058094 203.507312 -556.487781 211.429187 -581.745594 211.679187 C -641.753406 212.042469 -692.347156 170.933094 -692.487781 108.835437 C -689.979969 49.683094 -642.823719 8.476062 -584.870594 6.604969 C -558.562 6.319812 -533.089344 14.726062 -509.233875 25.132312 C -486.917469 34.788562 -464.769031 44.854969 -441.577625 52.327625 C -439.140125 53.112781 -438.058094 54.53075 -438.081531 57.050281 C -438.136219 62.546375 -438.054188 68.046375 -438.101063 73.546375 C -438.140125 77.839344 -438.386219 78.03075 -442.831531 76.956531 C -469.647938 70.558094 -494.491688 58.3745 -519.937 48.132312 C -536.726063 41.491687 -553.866688 36.378406 -571.940906 34.522937 C -602.308094 31.331531 -634.237781 41.944812 -652.007313 67.694812 C -667.120594 89.097156 -670.472156 112.34325 -660.819813 136.909656 C -648.737781 168.831531 -614.073719 185.882312 -581.171375 184.706531 C -554.397938 184.058094 -528.831531 174.558094 -504.15575 164.948719 C -483.460438 156.671375 -462.7495 148.09325 -440.925281 143.226062 C -438.757313 142.737781 -438.226063 143.112781 -438.163563 145.401844 C -438.077625 148.565906 -438.140125 151.733875 -438.140125 154.897937 Z M -340.694813 110.440906 L -340.667469 110.440906 C -340.667469 107.444812 -340.679188 104.444812 -340.667469 101.448719 C -340.647938 96.581531 -340.929188 95.729969 -335.2495 94.315906 C -322.804188 91.222156 -310.581531 87.3745 -298.604969 82.769031 C -271.276844 72.354969 -245.261219 57.882312 -216.136219 52.964344 C -183.698719 45.886219 -147.866688 60.366687 -137.214344 93.573719 C -125.546375 125.589344 -149.390125 159.882312 -180.272938 165.726062 C -224.952625 175.671375 -279.386219 140.933094 -322.706531 129.503406 C -327.187 128.226062 -331.690906 127.03075 -336.159656 125.71825 C -340.6245 124.409656 -340.640125 124.354969 -340.687 119.937 C -340.722156 116.772937 -340.694813 113.608875 -340.694813 110.440906 Z M -438.069813 109.987781 L -438.147938 109.987781 C -438.147938 113.819812 -438.085438 117.651844 -438.167469 121.479969 C -438.222156 124.097156 -438.651844 124.554187 -441.187 125.312 C -441.979969 125.550281 -442.812 125.663562 -443.620594 125.866687 C -469.726063 132.108875 -494.616688 142.257312 -519.46825 152.214344 C -545.097156 161.698719 -573.007313 171.647937 -600.569813 165.659656 C -667.565906 149.53075 -663.34325 66.644031 -597.472156 52.581531 C -561.851063 46.120594 -528.120594 63.917469 -496.104969 77.022937 C -479.823719 83.901844 -463.226063 89.823719 -446.003406 93.890125 C -444.546375 94.237781 -443.089344 94.601062 -441.659656 95.038562 C -438.429188 96.019031 -438.167469 96.28075 -438.089344 99.4995 C -437.9995 102.995594 -438.069813 106.491687 -438.069813 109.987781 Z M 12.141125 -0.277844 C 11.973156 -5.742688 12.590344 -11.309094 11.711437 -16.715344 C 10.637219 -21.238781 7.734875 -23.945813 3.160656 -24.703625 C -1.956531 -25.332531 -7.163563 -24.898938 -12.312 -25.004406 C -13.597156 -25.008313 -14.573719 -25.508313 -14.761219 -26.953625 C -14.827625 -27.449719 -14.90575 -27.945813 -15.042469 -28.426281 C -16.401844 -33.180188 -18.522938 -34.918469 -23.597156 -35.309094 C -43.081531 -35.742688 -62.597156 -35.563 -82.081531 -35.473156 C -87.929188 -35.332531 -92.819813 -33.109875 -96.362781 -28.441906 C -98.296375 -25.891125 -100.675281 -25.145031 -103.714344 -25.15675 C -123.3745 -25.297375 -143.050281 -24.832531 -162.706531 -25.133313 C -227.226063 -27.180188 -281.233875 13.167469 -339.425281 34.776844 C -341.354969 35.390125 -343.886219 36.917469 -345.288563 34.644031 C -352.108875 23.308094 -363.858875 18.511219 -376.741688 18.983875 C -386.073719 18.952625 -395.401844 18.933094 -404.733875 18.937 C -415.546375 18.835437 -426.433094 24.104969 -432.354969 33.312 C -434.409656 36.632312 -434.538563 36.6245 -438.417469 35.28075 C -486.073719 19.077625 -530.796375 -10.652844 -582.581531 -10.734875 C -650.190906 -11.199719 -708.546375 40.296375 -709.28075 109.304187 C -710.151844 187.147937 -639.397938 237.222156 -565.433094 227.960437 C -530.577625 223.952625 -498.757313 208.507312 -466.331531 196.202625 C -457.460438 192.831531 -448.585438 189.472156 -439.710438 186.112781 C -434.550281 184.159656 -434.6245 183.854969 -431.706531 188.421375 C -426.265125 196.241687 -418.866688 200.835437 -409.370594 201.960437 C -397.237781 202.612781 -385.042469 202.128406 -372.890125 202.206531 C -363.198719 202.1245 -355.09325 198.3745 -348.675281 191.112781 C -347.472156 189.7495 -346.581531 188.116687 -345.507313 186.636219 C -344.2495 184.909656 -343.812 184.71825 -341.714344 185.46825 C -336.382313 187.3745 -331.077625 189.351062 -325.769031 191.319812 C -301.882313 200.187 -278.022938 209.128406 -254.101063 217.897937 C -242.819813 222.03075 -231.21825 225.112781 -219.354969 227.03075 C -162.108875 237.34325 -99.397938 207.347156 -80.784656 150.366687 C -76.476063 138.144031 -74.296375 125.589344 -74.835438 112.601062 C -75.007313 108.440906 -74.956531 104.269031 -75.265125 100.1245 C -77.823719 72.495594 -90.862781 46.382312 -110.101063 26.581531 C -110.679188 25.987781 -111.257313 25.382312 -111.772938 24.729969 C -111.933094 24.522937 -111.991688 24.097156 -111.894031 23.858875 C -111.788563 23.597156 -111.440906 23.257312 -111.198719 23.257312 C -108.202625 23.265125 -105.202625 23.308094 -102.206531 23.386219 C -100.964344 23.421375 -100.003406 23.987781 -99.331531 25.081531 C -94.479969 33.40575 -87.991688 36.351062 -78.515125 36.144031 C -60.187 36.128406 -41.847156 36.425281 -23.526844 36.210437 C -18.288563 35.769031 -15.351063 33.085437 -14.667469 27.765125 C -14.464344 26.397937 -13.647938 25.7495 -12.288563 25.741687 C -9.456531 25.71825 -6.6245 25.698719 -3.792469 25.683094 C -1.956531 25.671375 -0.116688 25.78075 1.707531 25.651844 C 6.738781 25.296375 10.379406 22.140125 11.484875 17.167469 C 12.523937 11.433094 11.84425 5.526844 12.016125 -0.277844 Z M 12.141125 -0.277844 " transform="matrix(1,0,0,-1,6565.562,3731.3745)"/>
</svg>
