<?xml version="1.0" encoding="UTF-8"?>
<svg xmlns="http://www.w3.org/2000/svg" width="256" height="256" viewBox="4583.16 3039.16 1152.67 1152.67" preserveAspectRatio="xMidYMid meet">
<path style=" stroke:none;fill-rule:nonzero;fill:rgb(27.842712%,14.509583%,1.960754%);fill-opacity:1;" d="M 5159.429688 3845.9375 L 5159.429688 3845.828125 C 5237.082031 3845.761719 5314.746094 3845.953125 5392.390625 3845.757812 C 5410.507812 3844.988281 5424.738281 3828.832031 5421.609375 3810.335938 C 5420.371094 3802.25 5415.484375 3795.691406 5411.488281 3788.785156 C 5335.929688 3659.523438 5259.738281 3530.628906 5184.238281 3401.328125 C 5178.730469 3391.578125 5167.753906 3385.636719 5156.695312 3386.953125 C 5147.761719 3388.699219 5140.558594 3392.980469 5135.917969 3401.082031 C 5132.855469 3406.425781 5129.648438 3411.6875 5126.542969 3417.011719 C 5055.789062 3538.457031 4984.355469 3659.507812 4913.300781 3780.777344 C 4909.679688 3786.957031 4906.039062 3793.121094 4902.503906 3799.347656 C 4899.484375 3804.664062 4897.59375 3810.445312 4898.128906 3816.542969 C 4899.792969 3835.511719 4913.660156 3845.511719 4928.46875 3845.84375 C 5005.457031 3846.105469 5082.445312 3845.855469 5159.429688 3845.9375 M 5159.804688 3869.160156 C 5081.648438 3869.671875 5003.503906 3868.066406 4925.347656 3868.511719 C 4884.4375 3868.441406 4860.648438 3821.371094 4881.429688 3786.960938 C 4959.152344 3653.359375 5037.3125 3520.003906 5115.394531 3386.613281 C 5134.472656 3353.609375 5186.347656 3353.75 5205.050781 3387.128906 C 5283.222656 3520.265625 5361.320312 3653.453125 5438.742188 3787.023438 C 5443.269531 3794.636719 5445.960938 3802.722656 5445.855469 3811.652344 C 5448.667969 3841.769531 5424.851562 3871.898438 5389.769531 3870.191406 C 5313.117188 3870.050781 5236.460938 3869.722656 5159.804688 3869.421875 Z M 5159.804688 3869.160156 "/>
<path style="fill:none;stroke-width:7;stroke-linecap:butt;stroke-linejoin:miter;stroke:rgb(27.842712%,14.509583%,1.960754%);stroke-opacity:1;stroke-miterlimit:10;" d="M -0.0015125 0.001 L -0.0015125 0.110375 C 77.650831 0.176781 155.314894 -0.014625 232.959425 0.180687 C 251.076613 0.950219 265.307081 17.106469 262.178175 35.602562 C 260.939894 43.6885 256.053175 50.247094 252.057081 57.153344 C 176.498488 186.415062 100.307081 315.309594 24.807081 444.610375 C 19.299269 454.360375 8.322706 460.301781 -2.735887 458.985375 C -11.669481 457.239281 -18.872606 452.958031 -23.513231 444.856469 C -26.575731 439.512719 -29.782762 434.251 -32.888231 428.926781 C -103.642137 307.481469 -175.075731 186.430687 -246.130419 65.161156 C -249.751512 58.981469 -253.392137 52.817406 -256.927294 46.590844 C -259.946825 41.274437 -261.83745 35.493187 -261.302294 29.395531 C -259.638231 10.426781 -245.771044 0.426781 -230.96245 0.09475 C -153.974169 -0.166969 -76.985887 0.0830312 -0.0015125 0.001 Z M 0.373488 -23.221656 C -77.782762 -23.733375 -155.927294 -22.127906 -234.083544 -22.573219 C -274.9937 -22.502906 -298.782762 24.567406 -278.001512 58.977562 C -200.278856 192.579125 -122.1187 325.934594 -44.036669 459.325219 C -24.958544 492.329125 26.916456 492.1885 45.619581 458.809594 C 123.791456 325.672875 201.889113 192.485375 279.310988 58.915062 C 283.838331 51.301781 286.529738 43.215844 286.424269 34.286156 C 289.236769 4.168969 265.420363 -25.959938 230.338331 -24.252906 C 153.685988 -24.112281 77.029738 -23.784156 0.373488 -23.483375 Z M 0.373488 -23.221656 " transform="matrix(1,0,0,-1,5159.4312,3845.9385)"/>
<path style=" stroke:none;fill-rule:nonzero;fill:rgb(27.842712%,14.509583%,1.960754%);fill-opacity:1;" d="M 5173.703125 3606.203125 C 5173.71875 3634.6875 5173.492188 3663.175781 5173.375 3691.660156 C 5173.363281 3693.824219 5173.382812 3696.003906 5173.140625 3698.148438 C 5172.378906 3704.910156 5167.023438 3709.6875 5160.21875 3709.601562 C 5149.878906 3709.234375 5146.292969 3702.121094 5146.640625 3693.542969 C 5146.445312 3660.550781 5145.894531 3627.582031 5144.929688 3594.613281 C 5144.320312 3570.296875 5144.726562 3545.964844 5143.890625 3521.65625 C 5143.71875 3518.5 5143.652344 3515.328125 5144.320312 3512.195312 C 5145.902344 3504.757812 5153.316406 3499.289062 5160.933594 3499.945312 C 5169.148438 3500.652344 5175.503906 3506.9375 5175.835938 3514.773438 C 5175.949219 3517.4375 5175.886719 3520.105469 5175.839844 3522.769531 C 5175.46875 3544.089844 5175.070312 3565.410156 5174.714844 3586.730469 C 5174.605469 3593.226562 5174.652344 3599.726562 5173.703125 3606.203125 "/>
<path style="fill:none;stroke-width:7;stroke-linecap:butt;stroke-linejoin:miter;stroke:rgb(27.842712%,14.509583%,1.960754%);stroke-opacity:1;stroke-miterlimit:10;" d="M 0.001425 -0.000025 C 0.01705 -28.4844 -0.209512 -56.972681 -0.3267 -85.457056 C -0.338419 -87.621119 -0.318887 -89.800806 -0.561075 -91.945338 C -1.322794 -98.707056 -6.678262 -103.4844 -13.48295 -103.398463 C -23.822794 -103.031275 -27.408731 -95.917994 -27.061075 -87.339869 C -27.256387 -54.347681 -27.807169 -21.378931 -28.772012 11.589819 C -29.381387 35.906225 -28.975137 60.238256 -29.811075 84.54685 C -29.98295 87.7031 -30.049356 90.874975 -29.381387 94.007787 C -27.799356 101.445287 -20.385294 106.914037 -12.768106 106.257787 C -4.553262 105.550756 1.802206 99.2656 2.134238 91.429662 C 2.247519 88.7656 2.185019 86.097631 2.138144 83.433569 C 1.76705 62.113256 1.368613 40.792944 1.013144 19.472631 C 0.903769 12.976537 0.950644 6.476537 0.001425 -0.000025 Z M 0.001425 -0.000025 " transform="matrix(1,0,0,-1,5173.7017,3606.2031)"/>
<path style=" stroke:none;fill-rule:nonzero;fill:rgb(27.842712%,14.509583%,1.960754%);fill-opacity:1;" d="M 5183.96875 3766.007812 C 5184.660156 3778.832031 5172.554688 3790.046875 5159.722656 3789.835938 C 5128.308594 3787.929688 5128.542969 3743.015625 5159.96875 3741.398438 C 5173.472656 3741.234375 5184.097656 3752.28125 5183.96875 3766.007812 "/>
<path style="fill:none;stroke-width:7;stroke-linecap:butt;stroke-linejoin:miter;stroke:rgb(27.842712%,14.509583%,1.960754%);stroke-opacity:1;stroke-miterlimit:10;" d="M 0.00195 -0.0015125 C 0.693356 -12.825731 -11.412113 -24.040575 -24.244144 -23.829637 C -55.658206 -21.923387 -55.423831 22.990675 -23.99805 24.607863 C -10.494144 24.771925 0.130856 13.72505 0.00195 -0.0015125 Z M 0.00195 -0.0015125 " transform="matrix(1,0,0,-1,5183.9668,3766.0063)"/>
</svg>
