<svg width="554" height="529" viewBox="0 0 554 529" fill="none" xmlns="http://www.w3.org/2000/svg">
<path d="M0.524096 256.667C2.30538 182.259 29.7078 117.848 86.0826 66.4144C126.637 29.4139 174.586 7.40696 228.943 2.05152C320.008 -6.92027 396.864 22.9532 455.89 93.3622C499.137 144.942 517.511 205.68 514.624 272.863C513.949 288.612 511.614 304.118 507.856 319.404C507.1 322.484 507.783 324.118 510.207 326.198C546.483 357.185 560.612 396.176 549.192 442.636C528.955 524.983 428.219 556.092 364.418 500.197C361.742 497.857 359.774 497.694 356.586 498.946C274.069 531.192 194.237 525.585 119.829 477.296C46.203 429.52 6.69747 360.322 1.22348 272.327C0.93067 267.597 0.784359 262.859 0.507812 256.683L0.524096 256.667ZM265.089 433.486C282.219 433.632 302.269 430.259 321.635 422.905C324.254 421.913 325.539 420.678 325.295 417.631C324.832 411.812 325.328 405.969 326.149 400.215C333.225 350.554 369.762 312.35 419.126 303.021C421.525 302.566 422.534 301.534 423.152 299.307C426.78 286.191 429.081 272.822 429.049 259.243C428.943 210.174 411.35 168.347 375.651 134.524C321.546 83.269 241.217 73.0457 175.871 108.795C110.638 144.471 76.1433 217.602 89.6127 290.685C103.708 367.197 172.455 434.193 265.106 433.494L265.089 433.486ZM19.6546 262.29C20.1345 269.994 20.2564 277.739 21.1592 285.386C28.3169 346.45 54.5156 397.94 100.479 438.792C142.742 476.346 192.195 497.028 249.139 499.108C281.715 500.303 313.111 495.232 343.523 483.578C346.996 482.245 347.077 481.254 345.101 478.393C337.715 467.739 332.038 456.216 329.11 443.53C328.28 439.914 327.166 439.158 323.514 440.418C286.538 453.112 248.928 455.021 211.049 445.334C132.673 425.302 73.9228 353.715 68.6847 273.107C65.4556 223.478 78.2417 178.554 109.695 140.188C151.933 88.6569 207.421 64.4152 273.906 69.8113C339.342 75.118 389.446 107.438 422.404 164.161C446.276 205.258 452.864 249.954 443.625 296.723C442.949 300.152 443.25 301.461 447.154 301.664C460.689 302.371 473.679 305.638 485.936 311.4C489.653 313.147 490.41 311.879 491.068 308.563C496.624 280.543 497.689 252.408 493.313 224.144C482.878 156.685 450.79 102.09 394.716 62.7818C341.172 25.2368 281.446 11.9335 216.987 23.4408C146.793 35.972 92.7522 73.4845 54.906 133.548C30.2527 172.67 19.1015 215.993 19.6546 262.298V262.29ZM439.281 319.347C387.063 318.9 343.401 361.695 343.011 413.722C342.612 466.569 385.111 510.063 437.654 510.591C490.889 511.127 534.592 469.194 535.039 417.143C535.519 362.158 494.054 319.819 439.273 319.347H439.281Z" fill="#472505" stroke="#472505" stroke-miterlimit="10"/>
<path d="M201.368 264.12C201.368 235.141 201.368 206.169 201.368 177.19C201.368 168.933 204.914 165.333 213.284 165.317C232.259 165.268 251.227 165.146 270.203 165.341C299.802 165.642 322.706 183.959 327.7 211.777C331.735 234.247 326.928 254.433 309.391 270.191C298.313 280.146 284.746 284.031 270.057 284.169C255.286 284.307 240.515 284.388 225.744 284.169C221.824 284.112 221.084 285.469 221.108 289.012C221.23 310.133 221.189 331.254 221.1 352.376C221.067 360.348 215.008 364.817 207.826 362.404C203.49 360.949 201.408 357.755 201.4 352.278C201.368 332.238 201.368 312.198 201.359 292.157C201.359 282.812 201.359 273.474 201.359 264.129L201.368 264.12ZM221.165 224.495C221.165 236.539 221.246 248.582 221.108 260.626C221.076 263.73 221.913 264.827 225.199 264.795C240.23 264.624 255.27 264.795 270.301 264.689C293.157 264.519 309.074 248.525 309.318 225.641C309.57 201.83 294.035 185.235 270.805 184.87C255.636 184.634 240.466 184.935 225.297 184.748C221.767 184.707 221.051 185.942 221.1 189.177C221.271 200.944 221.165 212.72 221.165 224.495Z" fill="#472505" stroke="#472505" stroke-miterlimit="10"/>
<path d="M429.889 447.315C429.889 441.229 429.727 435.125 429.955 429.047C430.077 425.853 429.068 424.829 425.855 424.87C413.663 425.04 401.47 425.065 389.286 424.927C382.356 424.845 378.053 419.27 379.704 412.989C380.859 408.592 384.154 406.097 389.457 406.057C401.373 405.959 413.297 405.845 425.213 406.089C429.084 406.17 429.979 404.846 429.922 401.246C429.735 389.47 429.841 377.695 429.865 365.919C429.881 359.393 433.745 355.021 439.349 355.111C444.945 355.2 448.508 359.255 448.532 365.765C448.581 377.808 448.646 389.86 448.483 401.896C448.442 405.049 449.305 406.138 452.583 406.089C464.368 405.894 476.154 405.975 487.94 405.983C494.821 405.983 499.099 409.738 499.026 415.597C498.953 421.318 494.829 424.902 488.07 424.935C476.146 424.992 464.23 425.057 452.314 424.894C449.215 424.853 448.418 425.829 448.459 428.819C448.638 441.131 448.629 453.451 448.581 465.763C448.556 471.972 445.319 475.702 439.959 476.051C434.306 476.425 430.068 472.679 429.914 466.795C429.743 460.302 429.873 453.8 429.873 447.307C429.881 447.307 429.889 447.307 429.898 447.307L429.889 447.315Z" fill="#472505" stroke="#472505" stroke-miterlimit="10"/>
</svg>
