<?xml version="1.0" encoding="UTF-8"?>
<svg xmlns="http://www.w3.org/2000/svg" width="256" height="256" viewBox="12104.63 3230.63 795.75 795.75" preserveAspectRatio="xMidYMid meet">
<path style=" stroke:none;fill-rule:nonzero;fill:rgb(27.842712%,14.509583%,1.960754%);fill-opacity:1;" d="M 12561.519531 3499.476562 L 12561.519531 3499.417969 C 12604 3499.40625 12646.480469 3499.4375 12688.960938 3499.429688 C 12690.453125 3499.429688 12691.957031 3499.335938 12693.429688 3499.121094 C 12695.191406 3498.863281 12694.914062 3496.699219 12694.664062 3495.359375 C 12692.171875 3478.910156 12690.386719 3462.332031 12687.316406 3445.972656 C 12686.296875 3441.183594 12683.117188 3438.582031 12678.414062 3437.691406 C 12674.234375 3436.855469 12670.203125 3438.6875 12666.171875 3439.535156 C 12588.921875 3458.523438 12511.699219 3477.628906 12434.480469 3496.742188 C 12433.511719 3496.980469 12432.5625 3497.304688 12431.613281 3497.613281 C 12431.160156 3497.761719 12430.671875 3497.976562 12430.867188 3498.589844 C 12431.042969 3499.148438 12431.59375 3499.226562 12432.085938 3499.253906 C 12475.222656 3499.265625 12518.371094 3499.644531 12561.519531 3499.476562 M 12335.113281 3499.257812 L 12335.113281 3499.320312 C 12340.609375 3499.320312 12346.105469 3499.28125 12351.605469 3499.335938 C 12354.714844 3499.363281 12357.429688 3498.609375 12359.832031 3496.460938 C 12364.605469 3492.09375 12371.078125 3490.804688 12377.140625 3489.148438 C 12457.546875 3468.984375 12538.011719 3449.042969 12618.554688 3429.40625 C 12624.476562 3427.964844 12624.546875 3428.003906 12622.617188 3422.167969 C 12619.429688 3412.527344 12616.175781 3402.90625 12612.90625 3393.292969 C 12612.320312 3391.566406 12611.671875 3389.832031 12610.8125 3388.226562 C 12605.894531 3379.648438 12598.292969 3381.832031 12590.628906 3384.980469 C 12564.253906 3395.675781 12537.542969 3405.542969 12511.019531 3415.875 C 12467.804688 3432.429688 12424.777344 3449.464844 12381.640625 3466.226562 C 12372.527344 3469.703125 12362.980469 3471.082031 12353.289062 3471.59375 C 12349.132812 3471.8125 12344.957031 3471.617188 12340.832031 3472.402344 C 12327.410156 3474.90625 12317.050781 3484.003906 12314.101562 3497.449219 C 12313.988281 3498.136719 12314.421875 3498.785156 12315.160156 3498.90625 C 12321.761719 3499.683594 12328.46875 3499.082031 12335.113281 3499.257812 M 12707.007812 3727.628906 L 12707.007812 3727.585938 C 12724.980469 3727.449219 12742.996094 3727.859375 12760.953125 3727.429688 C 12765.109375 3726.746094 12767.734375 3723.917969 12768.195312 3719.699219 C 12768.320312 3693.917969 12768.621094 3668.066406 12768.179688 3642.296875 C 12767.632812 3638.855469 12765.695312 3636.519531 12762.28125 3635.625 C 12757.757812 3634.460938 12753.027344 3634.515625 12748.386719 3634.402344 C 12722.242188 3634.378906 12696.097656 3634.375 12669.953125 3634.410156 C 12663.625 3634.417969 12657.289062 3634.542969 12651.03125 3635.613281 C 12610.152344 3641.101562 12597.429688 3694.761719 12630.515625 3718.652344 C 12638.6875 3724.695312 12647.914062 3727.601562 12658.046875 3727.621094 C 12674.367188 3727.652344 12690.6875 3727.628906 12707.007812 3727.628906 M 12333.867188 3875.976562 C 12395.199219 3877.457031 12443.1875 3815.082031 12424.742188 3756.335938 C 12399.613281 3670.070312 12278.261719 3665.371094 12245.527344 3748.824219 C 12220.621094 3808.675781 12269.523438 3877.238281 12333.867188 3875.976562 M 12520.039062 3520.34375 L 12520.039062 3520.488281 C 12452.050781 3520.582031 12384.054688 3520.308594 12316.078125 3520.589844 C 12313.9375 3520.765625 12313.171875 3521.523438 12312.949219 3523.738281 C 12312.65625 3571.363281 12312.421875 3619.042969 12313.109375 3666.664062 C 12313.246094 3668.265625 12314.089844 3668.984375 12315.789062 3668.945312 C 12318.949219 3668.859375 12322.082031 3668.25 12325.222656 3668 C 12347.679688 3666.476562 12370.554688 3670.890625 12390.257812 3681.875 C 12445.839844 3711.710938 12466.207031 3784.144531 12434.542969 3838.632812 C 12433.875 3839.785156 12433.191406 3840.929688 12432.589844 3842.117188 C 12431.851562 3843.574219 12432.28125 3844.433594 12433.867188 3844.449219 C 12526.679688 3844.496094 12619.496094 3844.472656 12712.3125 3844.496094 C 12715.3125 3844.496094 12718.316406 3844.546875 12721.3125 3844.398438 C 12737.207031 3843.902344 12749.335938 3830.1875 12748.515625 3814.550781 C 12748.589844 3793.730469 12748.371094 3772.898438 12748.675781 3752.082031 C 12748.945312 3747.71875 12745.335938 3748.484375 12742.125 3748.421875 C 12713.296875 3748.429688 12684.46875 3748.441406 12655.640625 3748.441406 C 12646.84375 3748.441406 12638.421875 3746.601562 12630.460938 3742.921875 C 12590.558594 3724.480469 12583.277344 3681.03125 12597.066406 3652.402344 C 12606.703125 3632.464844 12624.8125 3618.164062 12646.875 3614.816406 C 12652.667969 3613.878906 12658.484375 3613.765625 12664.316406 3613.761719 C 12691.144531 3613.691406 12717.972656 3613.921875 12744.800781 3613.699219 C 12747.984375 3613.625 12748.425781 3613.117188 12748.585938 3609.808594 C 12748.617188 3596.816406 12748.574219 3583.820312 12748.589844 3570.828125 C 12748.445312 3562.175781 12749.023438 3553.476562 12748.203125 3544.859375 C 12746.445312 3530.96875 12735.949219 3521.207031 12722 3520.636719 C 12654.691406 3519.878906 12587.355469 3520.566406 12520.039062 3520.34375 M 12570.011719 3865.484375 C 12519.019531 3865.542969 12468.019531 3865.34375 12417.035156 3865.601562 C 12414.523438 3865.554688 12412.539062 3866.339844 12410.734375 3868.039062 C 12407.703125 3870.890625 12404.527344 3873.582031 12401.101562 3875.976562 C 12379.476562 3891.382812 12353.007812 3898.695312 12326.550781 3896.78125 C 12257.378906 3894.292969 12203.710938 3824.015625 12220.859375 3756.640625 C 12229.167969 3721.851562 12253.695312 3691.296875 12286.960938 3677.550781 C 12292.324219 3675.332031 12292.320312 3675.296875 12292.316406 3669.515625 C 12292.300781 3616.867188 12292.28125 3564.222656 12292.261719 3511.574219 C 12292.261719 3506.078125 12292.292969 3500.597656 12293.144531 3495.128906 C 12296.417969 3474.1875 12313.078125 3457.132812 12333.636719 3452.269531 C 12338.054688 3451.226562 12342.558594 3450.957031 12347.039062 3450.902344 C 12359.410156 3450.757812 12371.027344 3447.667969 12382.398438 3443.007812 C 12396.417969 3437.257812 12410.566406 3431.824219 12424.683594 3426.324219 C 12475.105469 3406.65625 12525.621094 3387.242188 12576.128906 3367.808594 C 12580.484375 3366.132812 12584.835938 3364.457031 12589.199219 3362.808594 C 12601.195312 3358.320312 12616.019531 3360.347656 12624.597656 3370.367188 C 12628.367188 3374.488281 12630.925781 3379.304688 12632.664062 3384.601562 C 12636.195312 3395.355469 12639.667969 3406.125 12643.394531 3416.8125 C 12645.605469 3423.15625 12644.585938 3422.679688 12651.386719 3421.089844 C 12658.195312 3419.5 12665 3417.882812 12671.839844 3416.441406 C 12678.402344 3415.0625 12684.832031 3415.976562 12690.914062 3418.601562 C 12703.0625 3423.574219 12708.734375 3436.351562 12709.789062 3448.777344 C 12712.03125 3464.597656 12713.597656 3480.527344 12715.703125 3496.335938 C 12716.269531 3498.753906 12716.675781 3499.054688 12719.046875 3499.226562 C 12731.5625 3499.417969 12743.679688 3502.910156 12753.023438 3511.550781 C 12762.695312 3520.324219 12768.597656 3531.058594 12768.9375 3544.308594 C 12769.207031 3563.789062 12768.9375 3583.289062 12769.226562 3602.773438 C 12769.242188 3605.605469 12769.136719 3608.433594 12769.132812 3611.265625 C 12769.125 3613.8125 12770.070312 3615.722656 12772.621094 3616.71875 C 12781.605469 3620.746094 12787.933594 3629.3125 12788.753906 3639.160156 C 12789.269531 3665.292969 12788.734375 3691.476562 12788.871094 3717.621094 C 12788.871094 3718.789062 12788.859375 3719.957031 12788.867188 3721.121094 C 12789.019531 3732.285156 12782.496094 3740.808594 12772.972656 3745.769531 C 12769.878906 3746.785156 12769.097656 3749.066406 12769.164062 3752.011719 C 12768.894531 3772.824219 12769.242188 3793.65625 12769.296875 3814.480469 C 12769.335938 3820.179688 12768.902344 3825.824219 12767.09375 3831.246094 C 12760.269531 3853.457031 12739.855469 3866.371094 12716.992188 3865.496094 C 12667.996094 3865.449219 12619.003906 3865.386719 12570.011719 3865.398438 Z M 12570.011719 3865.484375 "/>
<path style=" stroke:none;fill-rule:nonzero;fill:rgb(27.842712%,14.509583%,1.960754%);fill-opacity:1;" d="M 12334.242188 3809.679688 C 12355.9375 3810.125 12369.640625 3784.527344 12357.007812 3767.257812 C 12337.101562 3738.714844 12290.808594 3765.550781 12310.71875 3797.386719 C 12316.449219 3805.40625 12324.210938 3809.5 12334.242188 3809.679688 M 12333.554688 3830.4375 C 12305.289062 3830.972656 12282.355469 3805.953125 12285.378906 3777.960938 C 12286.613281 3757.59375 12302.726562 3739.570312 12323.019531 3735.402344 C 12351.847656 3728.324219 12381.753906 3749.882812 12382.675781 3779.824219 C 12384.679688 3807.253906 12361.265625 3831.699219 12333.554688 3830.4375 "/>
<path style=" stroke:none;fill-rule:nonzero;fill:rgb(27.842712%,14.509583%,1.960754%);fill-opacity:1;" d="M 12676.871094 3681.40625 C 12676.589844 3693.007812 12667.199219 3700.417969 12656.539062 3700.3125 C 12630.355469 3699.28125 12631.125 3660.835938 12657.53125 3660.925781 C 12668.640625 3661.121094 12677.183594 3670.167969 12676.871094 3681.40625 "/>
</svg>
