<?xml version="1.0" encoding="UTF-8"?>
<svg xmlns="http://www.w3.org/2000/svg" width="256" height="256" viewBox="10907.11 1814.11 994.78 994.78" preserveAspectRatio="xMidYMid meet">
<path style=" stroke:none;fill-rule:nonzero;fill:rgb(27.842712%,14.509583%,1.960754%);fill-opacity:1;" d="M 11459.757812 2260.910156 C 11502.027344 2261.65625 11542.769531 2239.238281 11566.320312 2204.507812 C 11582.113281 2180.125 11590.738281 2145.9375 11586.03125 2117.144531 C 11585.722656 2115.230469 11585.480469 2113 11583.101562 2112.339844 C 11581.050781 2111.773438 11579.644531 2113.109375 11578.277344 2114.355469 C 11555.398438 2136.46875 11534.042969 2160.125 11511.285156 2182.335938 C 11504.109375 2188.6875 11493.820312 2189.203125 11484.742188 2187.988281 C 11479.996094 2187.300781 11475.910156 2185.097656 11472.289062 2182.027344 C 11453.121094 2163.277344 11434.402344 2144.042969 11414.714844 2125.820312 C 11408.8125 2120.285156 11405.328125 2113.734375 11404.621094 2105.800781 C 11403.816406 2096.8125 11405.785156 2088.675781 11412.464844 2082 C 11434.554688 2059.792969 11456.410156 2037.355469 11478.332031 2014.984375 C 11479.839844 2013.4375 11481.34375 2011.84375 11482.570312 2010.082031 C 11484.34375 2007.535156 11483.800781 2004.871094 11481.234375 2003.15625 C 11478.410156 2001.390625 11474.921875 2001.0625 11471.6875 2000.585938 C 11455.128906 1998.609375 11438.761719 1999.597656 11422.648438 2003.96875 C 11402.96875 2009.164062 11384.5 2018.773438 11369.761719 2032.929688 C 11345.265625 2054.429688 11329.519531 2085.292969 11327.304688 2117.898438 C 11325.652344 2140.296875 11331.507812 2162.582031 11341.730469 2182.414062 C 11347.027344 2193.046875 11346.019531 2198.640625 11337.972656 2207.222656 C 11330.570312 2215.125 11323.289062 2223.140625 11315.914062 2231.066406 C 11309.21875 2238.261719 11302.238281 2245.203125 11295.796875 2252.617188 C 11286.070312 2263.820312 11275.511719 2274.242188 11265.707031 2285.367188 C 11260.210938 2291.613281 11254.019531 2297.242188 11249.078125 2303.988281 C 11225.429688 2329.5 11202.867188 2356.023438 11179.476562 2381.796875 C 11164.480469 2397.878906 11150.179688 2414.589844 11135.417969 2430.878906 C 11123.960938 2443.429688 11112.746094 2456.195312 11101.480469 2468.90625 C 11097.632812 2472.847656 11094.074219 2477.042969 11090.78125 2481.441406 C 11067.195312 2510.214844 11082.667969 2556.5 11117.570312 2567.742188 C 11140.042969 2576.339844 11166.1875 2567.640625 11180.347656 2548.410156 C 11204.863281 2517.257812 11229.394531 2486.109375 11254.164062 2455.15625 C 11303.253906 2394.375 11351.523438 2332.910156 11402.410156 2273.617188 C 11406.277344 2268.925781 11410.84375 2265.078125 11415.84375 2261.75 C 11420.574219 2258.59375 11425.835938 2257.457031 11431.550781 2258.304688 C 11441.105469 2259.722656 11450.675781 2261.085938 11459.757812 2260.910156 M 11456.898438 1973.875 C 11474.144531 1974.257812 11491.433594 1976.171875 11507.175781 1983.472656 C 11517.851562 1988.027344 11522.84375 1999.15625 11517.539062 2010.839844 C 11516.710938 2012.683594 11515.53125 2014.273438 11514.105469 2015.710938 C 11488.980469 2041 11463.859375 2066.296875 11438.746094 2091.597656 C 11436.636719 2093.726562 11434.445312 2095.792969 11432.542969 2098.101562 C 11430.117188 2101.046875 11430.1875 2103.734375 11432.542969 2106.710938 C 11449.28125 2124.089844 11467.039062 2140.527344 11484.15625 2157.554688 C 11487.46875 2160.824219 11491.359375 2165.15625 11495.945312 2161.160156 C 11522.183594 2135.371094 11547.828125 2108.914062 11573.828125 2082.863281 C 11582.34375 2073.484375 11599.308594 2071.917969 11605.199219 2086.171875 C 11608.039062 2093.519531 11609.78125 2101.125 11610.996094 2108.863281 C 11616.953125 2146.320312 11607.753906 2184.800781 11588.386719 2217.132812 C 11565.992188 2253.480469 11526.710938 2277.832031 11484.851562 2284.601562 C 11480.742188 2285.234375 11476.597656 2285.820312 11472.453125 2285.980469 C 11459.964844 2286.453125 11447.464844 2286.648438 11435.074219 2284.570312 C 11430.753906 2283.847656 11427.183594 2285.082031 11424.160156 2288.109375 C 11416.214844 2296.175781 11409.296875 2305.195312 11401.894531 2313.753906 C 11348.074219 2377.71875 11296.609375 2443.628906 11243.777344 2508.40625 C 11230.746094 2524.855469 11217.761719 2541.339844 11204.664062 2557.734375 C 11202.179688 2560.867188 11199.683594 2563.988281 11197.242188 2567.152344 C 11189.320312 2577.433594 11179.144531 2584.761719 11167.332031 2589.875 C 11141.636719 2600.890625 11109.984375 2597.605469 11087.683594 2580.578125 C 11054.332031 2556.652344 11043.949219 2507.484375 11065.972656 2472.535156 C 11068.972656 2467.515625 11072.578125 2462.972656 11076.53125 2458.640625 C 11084.957031 2449.417969 11093.148438 2439.984375 11101.464844 2430.664062 C 11158.921875 2366.292969 11216.414062 2301.949219 11274.726562 2238.34375 C 11285.839844 2226.160156 11296.914062 2213.941406 11308.011719 2201.746094 C 11310.03125 2199.527344 11312.03125 2197.292969 11314.121094 2195.144531 C 11315.949219 2193.269531 11316.378906 2191.121094 11315.636719 2188.703125 C 11309.808594 2174.121094 11304.652344 2159.398438 11302.917969 2143.675781 C 11294.945312 2088.636719 11321.738281 2032.582031 11367.027344 2001.128906 C 11393.140625 1982.730469 11425.273438 1974.480469 11456.898438 1973.875 "/>
<path style=" stroke:none;fill-rule:nonzero;fill:rgb(27.842712%,14.509583%,1.960754%);fill-opacity:1;" d="M 11693.128906 2566.226562 C 11692.914062 2562.785156 11690.207031 2560.933594 11688.359375 2558.414062 C 11685.058594 2554.539062 11682.933594 2550.074219 11681.53125 2545.210938 C 11674.996094 2522.292969 11689.195312 2497.148438 11712.746094 2491.992188 C 11715.851562 2491.199219 11719.03125 2491.359375 11722.1875 2491.1875 C 11729.296875 2490.796875 11731.707031 2488.386719 11731.796875 2481.273438 C 11731.785156 2473.453125 11731.957031 2465.601562 11731.566406 2457.789062 C 11730.792969 2450.796875 11725.515625 2450.308594 11719.636719 2450.246094 C 11711.980469 2449.671875 11704.84375 2447.441406 11698.890625 2442.535156 C 11684.523438 2430.695312 11678.902344 2415.472656 11682.304688 2397.144531 C 11683.40625 2391.195312 11685.902344 2385.726562 11689.878906 2381.03125 C 11692.996094 2377.335938 11697.019531 2372.890625 11692.691406 2368.4375 C 11687.824219 2362.738281 11683.042969 2356.890625 11677.558594 2351.832031 C 11672.574219 2347.238281 11669.9375 2347.710938 11665.160156 2351.257812 C 11661.878906 2354.113281 11658.242188 2356.636719 11654.054688 2357.8125 C 11636.234375 2363.054688 11620.210938 2360.550781 11606.675781 2346.84375 C 11599.519531 2339.597656 11595.886719 2330.992188 11595.351562 2320.941406 C 11595.277344 2319.613281 11595.363281 2318.242188 11595.078125 2316.960938 C 11593.890625 2309.617188 11589.984375 2308.363281 11581.714844 2308.332031 C 11575.382812 2308.328125 11569.054688 2308.355469 11562.722656 2308.390625 C 11557.15625 2308.191406 11552.550781 2311.65625 11552.332031 2317.460938 C 11553.28125 2337.863281 11537.796875 2355.027344 11518.28125 2359.054688 C 11504.863281 2362.050781 11492.039062 2359.890625 11480.957031 2351.285156 C 11475.03125 2347.1875 11472.023438 2347.796875 11466.976562 2352.753906 C 11461.886719 2358.015625 11456.449219 2362.980469 11451.597656 2368.460938 C 11447.226562 2373.484375 11451.394531 2377.332031 11454.628906 2381.453125 C 11457.542969 2385.179688 11459.535156 2389.367188 11460.8125 2393.902344 C 11467.519531 2416.246094 11455.078125 2442.679688 11431.933594 2448.917969 C 11423.386719 2451.914062 11411.023438 2446.5625 11410.964844 2459.707031 C 11410.871094 2467.535156 11410.9375 2475.367188 11410.945312 2483.195312 C 11410.761719 2489.804688 11415.039062 2490.8125 11420.652344 2491.027344 C 11455.972656 2491.734375 11474.816406 2536.023438 11452.683594 2560.660156 C 11449.089844 2564.753906 11447.496094 2567.890625 11451.664062 2572.386719 C 11456.636719 2577.523438 11461.722656 2582.605469 11467.015625 2587.414062 C 11475.09375 2594.578125 11479.027344 2587.480469 11485.902344 2583.171875 C 11510.191406 2566.847656 11552.117188 2582.265625 11553.066406 2616.953125 C 11553.035156 2623.207031 11556.691406 2625.636719 11562.679688 2625.914062 C 11569.175781 2625.945312 11575.679688 2626.160156 11582.167969 2625.9375 C 11589.933594 2625.839844 11592.0625 2621.910156 11592.125 2614.628906 C 11592.757812 2609.480469 11593.832031 2604.476562 11596.246094 2599.800781 C 11607.96875 2577.136719 11639.664062 2567.558594 11661.898438 2586.765625 C 11666.996094 2591.457031 11670.097656 2591.839844 11675.503906 2586.457031 C 11680.109375 2581.875 11684.691406 2577.269531 11689.289062 2572.683594 C 11691.148438 2571.0625 11692.671875 2568.566406 11693.128906 2566.226562 M 11719.082031 2373.417969 C 11719.714844 2381.34375 11716.546875 2388.261719 11710.894531 2394.210938 C 11705.816406 2399.546875 11704.601562 2405.769531 11706.699219 2412.707031 C 11708.96875 2420.210938 11715.433594 2425.339844 11723.238281 2425.695312 C 11726.75 2425.855469 11730.207031 2426.167969 11733.609375 2427.058594 C 11744.789062 2429.878906 11754.03125 2439.835938 11754.972656 2451.386719 C 11755.082031 2454.214844 11755.199219 2457.046875 11755.203125 2459.875 C 11755.164062 2469.703125 11755.308594 2479.535156 11755.046875 2489.359375 C 11754.871094 2500.441406 11746.703125 2510.902344 11735.1875 2514.152344 C 11730.84375 2515.378906 11726.433594 2516.050781 11721.890625 2516.101562 C 11714.246094 2516.191406 11708.910156 2520.046875 11706.097656 2527.019531 C 11703.050781 2534.136719 11705.261719 2541.8125 11710.832031 2547.09375 C 11722.742188 2559.441406 11719.144531 2579.621094 11707.289062 2590.652344 C 11702.078125 2595.5625 11696.9375 2600.554688 11691.710938 2605.449219 C 11686.480469 2610.347656 11680.371094 2613.523438 11673.257812 2614.773438 C 11664.003906 2616.402344 11655.765625 2614.261719 11648.457031 2608.425781 C 11641.953125 2601.886719 11636.167969 2599.242188 11627.375 2602.796875 C 11618.699219 2606.367188 11616.519531 2612.8125 11616.65625 2621.785156 C 11615.667969 2636.902344 11603.292969 2647.765625 11592.535156 2649.601562 C 11590.410156 2649.960938 11588.234375 2650.15625 11586.082031 2650.179688 C 11577.417969 2650.265625 11568.757812 2650.261719 11560.09375 2650.277344 C 11557.59375 2650.28125 11555.136719 2649.886719 11552.65625 2649.550781 C 11541.941406 2648.105469 11531.503906 2637.933594 11529.425781 2626.820312 C 11528.9375 2624.199219 11528.46875 2621.597656 11528.398438 2618.910156 C 11528.207031 2611.734375 11524.609375 2606.503906 11518.320312 2603.4375 C 11509.042969 2598.84375 11501.527344 2601.558594 11494.25 2608.421875 C 11486.636719 2614.53125 11477.875 2616.515625 11468.425781 2614.875 C 11460.917969 2613.574219 11454.222656 2610.441406 11448.820312 2604.707031 C 11443.6875 2599.253906 11438.382812 2593.925781 11432.796875 2588.9375 C 11421.914062 2578.957031 11420.488281 2558.082031 11431.359375 2547.34375 C 11444.574219 2535.644531 11433.855469 2515.648438 11420.238281 2516.058594 C 11405.863281 2516.785156 11390.164062 2508.246094 11387.597656 2493.199219 C 11387 2490.269531 11386.609375 2487.292969 11386.621094 2484.273438 C 11386.652344 2474.777344 11386.390625 2465.277344 11386.648438 2455.789062 C 11387.378906 2435.453125 11401.71875 2425.769531 11420.003906 2425.804688 C 11431.875 2425.039062 11439.941406 2414.441406 11437.59375 2402.742188 C 11436.929688 2399.21875 11435.019531 2396.242188 11432.546875 2393.730469 C 11421.296875 2381.808594 11422.203125 2363.210938 11433.257812 2351.585938 C 11439.742188 2345.113281 11446.070312 2338.480469 11452.679688 2332.140625 C 11461.636719 2323.546875 11472.347656 2321.507812 11484.128906 2324.664062 C 11488.839844 2325.925781 11493.003906 2328.363281 11496.746094 2331.546875 C 11502.722656 2336.625 11509.519531 2337.015625 11516.402344 2334.046875 C 11523.160156 2331.128906 11527.230469 2325.925781 11527.582031 2318.257812 C 11527.695312 2315.761719 11527.871094 2313.269531 11528.121094 2310.785156 C 11529.410156 2298.023438 11541.703125 2285.179688 11556.128906 2284.632812 C 11558.789062 2284.53125 11561.457031 2284.445312 11564.121094 2284.449219 C 11572.949219 2284.460938 11581.78125 2284.726562 11590.605469 2284.515625 C 11604.761719 2284.183594 11618.316406 2297.050781 11619.105469 2310.820312 C 11619.265625 2313.644531 11619.472656 2316.472656 11619.765625 2319.285156 C 11621.054688 2331.652344 11633.140625 2339.023438 11644.722656 2334.5625 C 11646.78125 2333.765625 11648.511719 2332.507812 11650.136719 2331.054688 C 11662.445312 2320.214844 11682.804688 2320.457031 11694.058594 2332.722656 C 11699.957031 2338.835938 11705.792969 2345.007812 11711.34375 2351.445312 C 11716.679688 2357.640625 11719.503906 2364.726562 11719.082031 2373.417969 "/>
<path style=" stroke:none;fill-rule:nonzero;fill:rgb(27.842712%,14.509583%,1.960754%);fill-opacity:1;" d="M 11157.671875 2514.96875 C 11157.800781 2501.964844 11146.640625 2493.035156 11135.796875 2493.109375 C 11124.476562 2493.1875 11114.234375 2502.578125 11114.058594 2514.667969 C 11113.890625 2526.265625 11123.421875 2536.640625 11135.742188 2536.742188 C 11147.5 2536.835938 11157.8125 2527.210938 11157.671875 2514.96875 M 11135.808594 2551.472656 C 11116.539062 2551.832031 11099.300781 2535.675781 11099.28125 2514.980469 C 11099.265625 2494.222656 11116.554688 2478.140625 11136.226562 2478.3125 C 11155.738281 2478.484375 11172.582031 2494.757812 11172.488281 2515.148438 C 11172.398438 2535.289062 11155.527344 2551.898438 11135.808594 2551.472656 "/>
<path style=" stroke:none;fill-rule:nonzero;fill:rgb(27.842712%,14.509583%,1.960754%);fill-opacity:1;" d="M 11621.707031 2471.054688 C 11622.0625 2442.53125 11596.933594 2418.140625 11568.84375 2418.816406 C 11530.96875 2418.949219 11502.652344 2460.539062 11522.40625 2494.636719 C 11541.226562 2530.199219 11593.316406 2532.28125 11614.097656 2497.472656 C 11619.496094 2489.175781 11621.78125 2479.835938 11621.707031 2471.054688 M 11569.308594 2546.734375 C 11499.394531 2547.910156 11464.253906 2460.863281 11517.210938 2414.144531 C 11560.695312 2374.691406 11632.914062 2396.886719 11644.632812 2455.015625 C 11654.660156 2502.640625 11618.207031 2547.445312 11569.308594 2546.734375 "/>
</svg>
