<?xml version="1.0" encoding="UTF-8"?>
<svg xmlns="http://www.w3.org/2000/svg" width="256" height="256" viewBox="1369.47 1787.47 1040.06 1040.06" preserveAspectRatio="xMidYMid meet">
<path style=" stroke:none;fill-rule:nonzero;fill:rgb(27.842712%,14.509583%,1.960754%);fill-opacity:1;" d="M 2055.886719 2307.789062 C 2057.222656 2207.925781 1969.082031 2121.496094 1868.011719 2135.585938 C 1786.894531 2146.226562 1726.5 2216.945312 1722.289062 2297.660156 C 1719.128906 2355.769531 1745.566406 2415.035156 1792.828125 2449.5 C 1906.609375 2532.949219 2056.300781 2444.328125 2055.886719 2307.789062 M 1888.0625 2508.789062 C 1796.171875 2509.871094 1716.820312 2437.914062 1700.246094 2348.894531 C 1676.972656 2238.820312 1749.183594 2124.457031 1862.652344 2108.640625 C 1972.792969 2092.503906 2070.4375 2176.90625 2081.035156 2285.71875 C 2094.164062 2400.195312 2006.363281 2510.851562 1888.0625 2508.789062 "/>
<path style=" stroke:none;fill-rule:nonzero;fill:rgb(27.842712%,14.509583%,1.960754%);fill-opacity:1;" d="M 1891.742188 1994.832031 C 2036.972656 1994.160156 2148.746094 2094.546875 2181.3125 2233.269531 C 2181.632812 2234.5625 2181.925781 2235.863281 2182.246094 2237.15625 C 2182.40625 2237.804688 2182.585938 2238.546875 2183.394531 2238.5625 C 2184.117188 2238.578125 2184.5 2237.925781 2184.839844 2237.359375 C 2185.4375 2236.359375 2186.015625 2235.347656 2186.585938 2234.332031 C 2191.410156 2225.972656 2195.863281 2217.363281 2200.917969 2209.148438 C 2205.222656 2203.011719 2213.4375 2201.679688 2219.46875 2206.117188 C 2222.429688 2208.296875 2224.222656 2211.144531 2224.28125 2214.984375 C 2224.335938 2218.71875 2223.753906 2222.1875 2221.832031 2225.515625 C 2213.757812 2239.503906 2205.804688 2253.566406 2197.828125 2267.609375 C 2195.195312 2272.246094 2192.632812 2276.917969 2190.019531 2281.5625 C 2187.65625 2285.761719 2184.039062 2288.117188 2179.3125 2288.957031 C 2174.171875 2289.761719 2169.558594 2287.109375 2165.28125 2284.675781 C 2149.15625 2274.992188 2132.84375 2265.5625 2116.820312 2255.726562 C 2104.027344 2247.089844 2114.003906 2226.121094 2128.871094 2232.222656 C 2136.695312 2235.835938 2143.929688 2240.796875 2151.386719 2245.128906 C 2152.53125 2245.8125 2153.691406 2246.46875 2154.875 2247.078125 C 2155.59375 2247.441406 2156.371094 2248.148438 2157.171875 2247.660156 C 2158.046875 2247.125 2157.566406 2246.179688 2157.386719 2245.40625 C 2148.695312 2207.59375 2133.617188 2171.152344 2111.644531 2139.082031 C 2060.210938 2061.617188 1968.191406 2017.328125 1875.695312 2022.394531 C 1761.605469 2029.589844 1668.890625 2100.210938 1630.121094 2207.53125 C 1626.632812 2214.261719 1617.5625 2216.664062 1611.140625 2212.628906 C 1606.585938 2209.761719 1604.148438 2203.507812 1605.808594 2198.183594 C 1614.824219 2171.460938 1627.722656 2146.25 1643.578125 2122.949219 C 1698.117188 2041.953125 1794.441406 1993.433594 1891.742188 1994.832031 "/>
<path style=" stroke:none;fill-rule:nonzero;fill:rgb(27.842712%,14.509583%,1.960754%);fill-opacity:1;" d="M 1891.9375 2621.605469 C 1763.785156 2621.53125 1643.777344 2530.230469 1603.378906 2409.601562 C 1601.300781 2403.449219 1599.476562 2397.210938 1597.527344 2391.015625 C 1597.230469 2390.0625 1596.921875 2389.113281 1596.550781 2388.1875 C 1596.21875 2387.355469 1595.128906 2387.289062 1594.59375 2388.089844 C 1593.847656 2389.195312 1593.140625 2390.328125 1592.480469 2391.484375 C 1588.9375 2397.707031 1585.429688 2403.949219 1581.875 2410.167969 C 1580.636719 2412.335938 1579.464844 2414.570312 1577.984375 2416.566406 C 1574.03125 2421.90625 1566.746094 2423.414062 1560.984375 2420.214844 C 1553.671875 2416.433594 1553.695312 2406.363281 1557.398438 2399.910156 C 1567.898438 2381.738281 1578.21875 2363.460938 1588.632812 2345.242188 C 1593.660156 2334.992188 1604.621094 2334.460938 1613.371094 2340.0625 C 1629.605469 2349.574219 1645.980469 2358.878906 1662.132812 2368.519531 C 1667.527344 2372.355469 1670.941406 2380.820312 1664.90625 2388.304688 C 1661.929688 2391.996094 1657.792969 2393.65625 1652.882812 2392.707031 C 1650.394531 2392.226562 1648.105469 2391.273438 1645.921875 2390.027344 C 1640.433594 2386.878906 1635.011719 2383.601562 1629.429688 2380.628906 C 1626.757812 2379.210938 1624.507812 2376.691406 1621.078125 2376.941406 C 1645.722656 2478.949219 1734.679688 2564.808594 1836.863281 2588.128906 C 1969.074219 2618.753906 2099.632812 2536.582031 2146.800781 2412.636719 C 2147.347656 2411.242188 2147.957031 2409.867188 2148.589844 2408.511719 C 2151.578125 2402.089844 2159.574219 2399.96875 2164.671875 2401.9375 C 2170.949219 2404.355469 2174.523438 2410.917969 2172.925781 2417.722656 C 2172.46875 2419.65625 2171.71875 2421.53125 2171 2423.394531 C 2165.957031 2436.457031 2160.058594 2449.125 2153.546875 2461.523438 C 2103.785156 2557.421875 2000.515625 2622.546875 1891.9375 2621.605469 "/>
<path style=" stroke:none;fill-rule:nonzero;fill:rgb(27.842712%,14.509583%,1.960754%);fill-opacity:1;" d="M 1875.054688 2248.960938 C 1875.367188 2228.015625 1874.410156 2206.941406 1875.457031 2186.050781 C 1876.46875 2180.835938 1879.710938 2177.492188 1884.859375 2176.140625 C 1891.386719 2174.246094 1898.90625 2178.519531 1900.292969 2185.195312 C 1900.808594 2187.824219 1900.964844 2190.46875 1900.957031 2193.140625 C 1900.859375 2226.941406 1900.785156 2260.738281 1900.703125 2294.539062 C 1900.757812 2303.265625 1901.019531 2302.792969 1905.914062 2307.152344 C 1929.941406 2329.957031 1954.445312 2352.269531 1978.171875 2375.390625 C 1980.230469 2377.398438 1981.800781 2379.660156 1982.523438 2382.53125 C 1986.273438 2395.90625 1971.140625 2404.761719 1961.042969 2396.425781 C 1957.964844 2393.886719 1955.03125 2391.15625 1952.148438 2388.394531 C 1928.40625 2366.023438 1905.476562 2342.742188 1881.175781 2320.984375 C 1877.039062 2317.484375 1875.082031 2313.214844 1875.082031 2307.902344 C 1874.960938 2288.257812 1875.042969 2268.609375 1875.023438 2248.960938 Z M 1875.054688 2248.960938 "/>
</svg>
