<?xml version="1.0" encoding="UTF-8"?>
<svg xmlns="http://www.w3.org/2000/svg" width="256" height="256" viewBox="13221.79 3311.79 656.42 656.42" preserveAspectRatio="xMidYMid meet">
<path style=" stroke:none;fill-rule:nonzero;fill:rgb(27.842712%,14.509583%,1.960754%);fill-opacity:1;" d="M 13691.265625 3381.128906 L 13691.265625 3381.027344 C 13671.949219 3381.113281 13652.621094 3380.859375 13633.308594 3381.128906 C 13631.550781 3381.257812 13631.140625 3381.628906 13630.949219 3383.410156 C 13630.78125 3384.980469 13630.761719 3386.570312 13630.769531 3388.148438 C 13630.855469 3401.136719 13630.875 3414.128906 13631.023438 3427.117188 C 13631.019531 3431.144531 13634.898438 3430.6875 13637.890625 3430.78125 C 13674.199219 3430.898438 13710.503906 3430.835938 13746.808594 3430.851562 C 13750.972656 3430.851562 13751.589844 3430.230469 13751.605469 3426.105469 C 13751.660156 3412.53125 13751.695312 3398.960938 13751.734375 3385.386719 C 13751.742188 3381.195312 13751.261719 3380.746094 13746.96875 3380.886719 C 13728.421875 3381.511719 13709.828125 3380.945312 13691.265625 3381.128906 M 13812.425781 3569.140625 L 13812.414062 3569.140625 C 13812.40625 3509.308594 13812.429688 3449.476562 13812.4375 3389.644531 C 13812.4375 3387.8125 13812.453125 3385.972656 13812.339844 3384.148438 C 13812.214844 3382.160156 13811.394531 3381.308594 13809.414062 3381.050781 C 13808.34375 3380.914062 13807.246094 3380.882812 13806.171875 3380.9375 C 13799.503906 3381.253906 13792.839844 3381.054688 13786.171875 3381.050781 C 13782.339844 3381.050781 13778.503906 3380.988281 13774.675781 3381.082031 C 13771.757812 3381.152344 13771.347656 3381.605469 13771.316406 3384.488281 C 13771.496094 3400.402344 13771.324219 3416.320312 13771.414062 3432.234375 C 13771.429688 3434.933594 13771.117188 3437.554688 13770.457031 3440.140625 C 13768.929688 3447.070312 13762.359375 3450.417969 13755.648438 3450.171875 C 13713.652344 3449.992188 13671.652344 3449.929688 13629.65625 3450.226562 C 13627.3125 3450.25 13624.992188 3450.101562 13622.691406 3449.640625 C 13615.484375 3448.464844 13611.265625 3441.148438 13611.519531 3434.25 C 13611.492188 3417.75 13611.496094 3401.25 13611.492188 3384.753906 C 13611.488281 3381.40625 13611.160156 3381.046875 13607.847656 3380.875 C 13604.773438 3380.890625 13601.6875 3381.144531 13598.609375 3381.132812 C 13544.28125 3381.101562 13489.9375 3380.910156 13435.617188 3381.210938 C 13432.441406 3381.371094 13432.53125 3384.941406 13432.515625 3387.355469 C 13432.320312 3509.101562 13432.289062 3630.847656 13432.566406 3752.59375 C 13432.582031 3756.628906 13433.15625 3757.15625 13437.21875 3757.136719 C 13444.21875 3757.101562 13451.21875 3757.109375 13458.21875 3757.082031 C 13463.039062 3757.0625 13463.042969 3757.046875 13463.039062 3752.222656 C 13463.136719 3724.476562 13462.75 3696.71875 13463.128906 3668.976562 C 13463.199219 3663.015625 13468.851562 3659.226562 13474.453125 3659.476562 C 13487.171875 3659.285156 13499.507812 3661.410156 13511.46875 3665.675781 C 13549.128906 3678.609375 13576 3714.804688 13578.328125 3754.457031 C 13578.539062 3756.925781 13578.714844 3757.082031 13581.203125 3757.144531 C 13581.453125 3757.152344 13581.703125 3757.148438 13581.953125 3757.148438 C 13656.617188 3757.164062 13731.285156 3757.140625 13805.949219 3757.140625 C 13808.421875 3757.070312 13812.199219 3757.800781 13812.429688 3754.378906 C 13812.472656 3692.648438 13812.390625 3630.882812 13812.425781 3569.140625 M 13622.785156 3361.042969 C 13685.449219 3361.121094 13748.113281 3360.878906 13810.773438 3361.136719 C 13817.511719 3361.296875 13823.359375 3363.5 13827.496094 3369.117188 C 13830.398438 3373.054688 13831.910156 3377.519531 13831.945312 3382.414062 C 13831.988281 3388.578125 13831.910156 3394.742188 13831.90625 3400.910156 C 13831.761719 3518.984375 13831.691406 3637.054688 13831.957031 3755.128906 C 13831.964844 3758.0625 13831.683594 3760.9375 13830.671875 3763.730469 C 13827.703125 3772.691406 13819.023438 3777.304688 13809.945312 3777.1875 C 13734.367188 3776.890625 13658.789062 3777.199219 13583.210938 3777.074219 C 13578.878906 3777.074219 13574.546875 3777.144531 13570.214844 3777.210938 C 13568.617188 3777.234375 13567.058594 3777.074219 13565.53125 3776.585938 C 13561.371094 3775.265625 13559.054688 3772.25 13559.042969 3767.878906 C 13559.40625 3748.558594 13555.003906 3729.410156 13543.511719 3713.617188 C 13530.011719 3694.429688 13508.539062 3682.089844 13485.191406 3680.058594 C 13483.085938 3679.875 13482.644531 3680.230469 13482.546875 3682.332031 C 13482.460938 3684.246094 13482.542969 3686.164062 13482.542969 3688.078125 C 13482.457031 3714.90625 13482.757812 3741.75 13482.457031 3768.570312 C 13482.105469 3773.207031 13478.894531 3776.347656 13475.0625 3776.757812 C 13473.65625 3776.910156 13472.269531 3777.167969 13470.84375 3777.167969 C 13458.84375 3777.160156 13446.84375 3777.179688 13434.847656 3777.171875 C 13425.140625 3777.167969 13417.554688 3771.953125 13414.453125 3763.171875 C 13413.492188 3760.460938 13413.320312 3757.636719 13413.324219 3754.789062 C 13413.40625 3670.628906 13413.355469 3586.46875 13413.34375 3502.308594 C 13413.410156 3462.230469 13413.058594 3422.144531 13413.339844 3382.070312 C 13413.230469 3370.550781 13422.125 3361.476562 13434.050781 3361.136719 C 13496.957031 3360.828125 13559.875 3361.121094 13622.785156 3361.023438 Z M 13622.785156 3361.042969 "/>
<path style=" stroke:none;fill-rule:nonzero;fill:rgb(27.842712%,14.509583%,1.960754%);fill-opacity:1;" d="M 13309.855469 3570.535156 C 13309.699219 3523.714844 13310.179688 3476.882812 13309.644531 3430.066406 C 13309.625 3429.363281 13309.972656 3428.386719 13309.164062 3428.035156 C 13308.242188 3427.632812 13307.65625 3428.566406 13307.105469 3429.113281 C 13304.089844 3432.105469 13301.109375 3435.132812 13298.144531 3438.175781 C 13293.414062 3443.5625 13283.472656 3440.566406 13283.828125 3433.027344 C 13283.949219 3430.539062 13284.777344 3428.328125 13286.589844 3426.515625 C 13294.542969 3418.566406 13302.546875 3410.667969 13310.386719 3402.601562 C 13314.476562 3398.390625 13321.222656 3398.0625 13325.664062 3402.722656 C 13333.128906 3410.558594 13340.894531 3418.113281 13348.535156 3425.785156 C 13349.414062 3426.671875 13350.246094 3427.585938 13350.90625 3428.667969 C 13356.292969 3437.316406 13345.101562 3444.960938 13338.496094 3438.886719 C 13335.429688 3436.070312 13332.597656 3433.007812 13329.664062 3430.054688 C 13329.191406 3429.582031 13328.730469 3429.101562 13328.242188 3428.648438 C 13327.878906 3428.304688 13327.476562 3427.957031 13326.921875 3428.128906 C 13326.328125 3428.3125 13326.316406 3428.863281 13326.289062 3429.351562 C 13325.859375 3522.914062 13326.171875 3616.480469 13326.097656 3710.046875 C 13326.28125 3711.050781 13325.648438 3712.453125 13326.859375 3712.96875 C 13327.894531 3713.378906 13328.417969 3712.21875 13329.035156 3711.613281 C 13331.949219 3708.757812 13334.820312 3705.855469 13337.699219 3702.964844 C 13339.6875 3700.964844 13342.039062 3699.894531 13344.886719 3700.277344 C 13352.222656 3700.96875 13354.675781 3709.613281 13349.472656 3714.527344 C 13341.617188 3722.453125 13333.648438 3730.273438 13325.84375 3738.253906 C 13322.09375 3742.632812 13315.144531 3743.660156 13311.027344 3739.238281 C 13302.925781 3731.203125 13294.890625 3723.097656 13286.84375 3715.007812 C 13284.613281 3712.765625 13283.332031 3710.082031 13283.9375 3706.878906 C 13284.734375 3700.394531 13293.148438 3697.953125 13297.636719 3702.511719 C 13301.070312 3705.789062 13304.179688 3709.398438 13307.714844 3712.570312 C 13308.136719 3712.945312 13308.566406 3713.496094 13309.21875 3713.109375 C 13309.714844 3712.816406 13309.605469 3712.234375 13309.621094 3711.75 C 13309.722656 3708.667969 13309.890625 3705.589844 13309.898438 3702.507812 C 13309.847656 3658.515625 13309.859375 3614.527344 13309.863281 3570.535156 Z M 13309.855469 3570.535156 "/>
<path style=" stroke:none;fill-rule:nonzero;fill:rgb(27.842712%,14.509583%,1.960754%);fill-opacity:1;" d="M 13618.996094 3862.839844 C 13668.5625 3862.734375 13718.199219 3863.039062 13767.722656 3862.746094 C 13768.292969 3862.652344 13768.953125 3862.660156 13769.105469 3861.933594 C 13769.230469 3861.359375 13768.734375 3861.066406 13768.382812 3860.722656 C 13765.242188 3857.621094 13762.09375 3854.523438 13758.964844 3851.410156 C 13756.996094 3849.449219 13756.390625 3847.039062 13756.640625 3844.324219 C 13757.195312 3838.207031 13764.90625 3834.933594 13769.972656 3839.382812 C 13778.019531 3846.980469 13785.582031 3855.117188 13793.566406 3862.789062 C 13797.859375 3866.605469 13798.410156 3873.394531 13794.324219 3877.492188 C 13786.558594 3885.152344 13778.769531 3892.800781 13771.023438 3900.484375 C 13767.773438 3903.707031 13763.621094 3903.589844 13759.929688 3901.84375 C 13755.285156 3899.398438 13755.800781 3892.332031 13759.441406 3889.140625 C 13762.070312 3886.59375 13764.578125 3883.914062 13767.136719 3881.289062 C 13769.722656 3878.933594 13768.0625 3878.441406 13765.148438 3878.472656 C 13667.589844 3877.511719 13570.011719 3878.035156 13472.449219 3878.628906 C 13472.035156 3878.636719 13471.601562 3878.640625 13471.214844 3878.765625 C 13470.382812 3879.035156 13470.210938 3879.636719 13470.726562 3880.304688 C 13471.183594 3880.894531 13471.761719 3881.390625 13472.289062 3881.917969 C 13474.824219 3884.449219 13477.394531 3886.945312 13479.886719 3889.519531 C 13481.984375 3891.691406 13482.910156 3894.222656 13482.113281 3897.289062 C 13481.109375 3901.144531 13477.816406 3903.132812 13474.34375 3903.128906 C 13472.066406 3903.125 13469.945312 3902.441406 13468.230469 3900.71875 C 13463.011719 3895.457031 13457.734375 3890.25 13452.476562 3885.027344 C 13449.355469 3881.691406 13445.671875 3878.820312 13442.9375 3875.160156 C 13440.722656 3871.507812 13441.113281 3867.683594 13444.300781 3864.140625 C 13451.519531 3856.648438 13459.019531 3849.402344 13466.308594 3841.972656 C 13467.542969 3840.726562 13468.835938 3839.546875 13470.355469 3838.652344 C 13478.058594 3834.261719 13485.699219 3842.695312 13480.914062 3849.976562 C 13477.820312 3853.894531 13473.859375 3857.058594 13470.359375 3860.609375 C 13469.949219 3861.007812 13469.375 3861.351562 13469.570312 3862.039062 C 13469.777344 3862.761719 13470.460938 3862.707031 13471.019531 3862.738281 C 13472.101562 3862.804688 13473.183594 3862.847656 13474.265625 3862.847656 C 13522.511719 3862.847656 13570.753906 3862.839844 13618.996094 3862.839844 "/>
<path style=" stroke:none;fill-rule:nonzero;fill:rgb(27.842712%,14.509583%,1.960754%);fill-opacity:1;" d="M 13813.964844 3867.023438 C 13814.027344 3856.375 13813.84375 3841.695312 13814.035156 3828.269531 C 13814.492188 3823.851562 13817.371094 3821.132812 13821.757812 3820.933594 C 13827.453125 3820.59375 13830.695312 3825.496094 13830.285156 3830.863281 C 13830.226562 3855.761719 13830.136719 3880.660156 13830.363281 3905.554688 C 13830.375 3907.96875 13830.425781 3910.382812 13830.078125 3912.789062 C 13829.253906 3918.523438 13823.480469 3920.640625 13819.148438 3919.199219 C 13814.851562 3917.832031 13813.675781 3913.46875 13813.875 3909.457031 C 13813.917969 3896.300781 13813.582031 3883.144531 13813.964844 3867.023438 "/>
<path style=" stroke:none;fill-rule:nonzero;fill:rgb(27.842712%,14.509583%,1.960754%);fill-opacity:1;" d="M 13428.535156 3870.511719 C 13428.535156 3883.839844 13428.539062 3897.164062 13428.519531 3910.492188 C 13428.746094 3915.441406 13426.164062 3919.851562 13420.722656 3919.671875 C 13412.699219 3919.3125 13412.5 3912.796875 13412.652344 3906.5625 C 13412.929688 3881.910156 13413.105469 3857.242188 13412.582031 3832.59375 C 13412.445312 3826.78125 13413.941406 3820.789062 13421.011719 3821.011719 C 13426.109375 3821.007812 13428.855469 3825.542969 13428.550781 3830.277344 C 13428.535156 3843.6875 13428.464844 3857.101562 13428.488281 3870.511719 Z M 13428.535156 3870.511719 "/>
<path style=" stroke:none;fill-rule:nonzero;fill:rgb(27.842712%,14.509583%,1.960754%);fill-opacity:1;" d="M 13317.886719 3772.5 C 13303.992188 3772.292969 13290.027344 3772.914062 13276.167969 3772.253906 C 13272.679688 3771.59375 13270.773438 3769.695312 13270.066406 3766.203125 C 13269.0625 3761.277344 13271.871094 3757.363281 13276.863281 3756.832031 C 13279.929688 3756.507812 13283.015625 3756.476562 13286.097656 3756.507812 C 13310.167969 3756.808594 13334.246094 3756.554688 13358.320312 3756.605469 C 13363.519531 3756.9375 13365.929688 3760.246094 13365.789062 3764.570312 C 13365.628906 3769.535156 13363.371094 3771.722656 13358.117188 3772.410156 C 13344.734375 3772.761719 13331.289062 3772.421875 13317.886719 3772.535156 Z M 13317.886719 3772.5 "/>
<path style=" stroke:none;fill-rule:nonzero;fill:rgb(27.842712%,14.509583%,1.960754%);fill-opacity:1;" d="M 13317.640625 3380.972656 C 13305.148438 3380.972656 13292.652344 3380.96875 13280.15625 3380.976562 C 13278.816406 3380.976562 13277.5 3380.835938 13276.191406 3380.5625 C 13272.21875 3379.730469 13269.628906 3376.871094 13269.859375 3373.066406 C 13270.140625 3368.394531 13272.328125 3365.773438 13276.628906 3365.074219 C 13303.515625 3364.703125 13330.445312 3365.058594 13357.34375 3364.929688 C 13359.214844 3364.929688 13360.996094 3365.242188 13362.566406 3366.328125 C 13364.78125 3367.859375 13366.367188 3371.851562 13365.703125 3374.542969 C 13364.933594 3377.667969 13363.253906 3379.960938 13359.820312 3380.574219 C 13358.34375 3380.839844 13356.894531 3381.160156 13355.375 3381.160156 C 13342.796875 3381.136719 13330.21875 3381.148438 13317.640625 3381.148438 Z M 13317.640625 3380.972656 "/>
</svg>
