<?xml version="1.0" encoding="UTF-8"?>
<svg xmlns="http://www.w3.org/2000/svg" width="256" height="256" viewBox="7151.98 796.48 887.04 887.04" preserveAspectRatio="xMidYMid meet">
<path style=" stroke:none;fill-rule:nonzero;fill:rgb(27.842712%,14.509583%,1.960754%);fill-opacity:1;" d="M 7802.023438 1505.355469 C 7811.933594 1504.695312 7817.847656 1492.316406 7812.460938 1484.101562 C 7811.03125 1481.84375 7809.136719 1479.953125 7807.253906 1478.066406 C 7791.371094 1462.179688 7775.546875 1446.234375 7759.667969 1430.34375 C 7758.101562 1428.789062 7757.3125 1428.835938 7756.089844 1430.632812 C 7752.226562 1436.304688 7747.546875 1441.257812 7742.757812 1446.121094 C 7739.742188 1449.1875 7739.777344 1449.292969 7742.902344 1452.449219 C 7759.234375 1468.828125 7775.292969 1485.480469 7791.804688 1501.675781 C 7794.441406 1504.210938 7797.613281 1505.492188 7802.023438 1505.355469 M 7707.585938 1089.984375 C 7707.566406 1089.980469 7707.546875 1089.980469 7707.53125 1089.980469 C 7707.53125 1079.007812 7707.511719 1068.03125 7707.539062 1057.054688 C 7707.71875 1052.925781 7706.347656 1052.15625 7702.003906 1052.039062 C 7689.867188 1052.09375 7677.730469 1052.105469 7665.59375 1052.234375 C 7660.949219 1052.285156 7660.414062 1052.898438 7660.417969 1057.476562 C 7660.429688 1065.460938 7660.621094 1073.445312 7660.5 1081.421875 C 7660.449219 1084.554688 7661.492188 1086.855469 7663.90625 1088.730469 C 7670.222656 1093.632812 7675.769531 1099.402344 7681.777344 1104.65625 C 7686.28125 1108.597656 7690.769531 1112.554688 7695.246094 1116.527344 C 7697.855469 1118.84375 7700.398438 1121.238281 7703.019531 1123.542969 C 7704.023438 1124.269531 7706.78125 1126.988281 7707.425781 1124.875 C 7707.855469 1113.273438 7707.453125 1101.605469 7707.585938 1089.984375 M 7761.175781 1371.890625 C 7764.496094 1292.277344 7678.09375 1241.847656 7613.25 1288.109375 C 7576.96875 1313.953125 7563.03125 1365.722656 7582.101562 1406.082031 C 7600.332031 1446.851562 7644.914062 1469.277344 7688.53125 1459.359375 C 7728.402344 1450.941406 7760.570312 1409.878906 7761.175781 1371.890625 M 7358.089844 1320.476562 C 7358.183594 1320.476562 7358.28125 1320.476562 7358.375 1320.476562 C 7358.644531 1346.96875 7357.953125 1373.453125 7358.257812 1399.9375 C 7358.515625 1409.265625 7358.453125 1418.597656 7358.625 1427.925781 C 7358.667969 1430.074219 7358.871094 1432.273438 7359.390625 1434.351562 C 7360.730469 1439.738281 7364.539062 1442.824219 7370.070312 1443.257812 C 7407.539062 1443.613281 7445.027344 1443.371094 7482.503906 1443.503906 C 7516.8125 1443.390625 7551.132812 1443.859375 7585.4375 1443.367188 C 7586.0625 1443.34375 7586.808594 1443.449219 7587.175781 1442.6875 C 7587.53125 1441.960938 7587.105469 1441.441406 7586.699219 1440.921875 C 7584.535156 1438.175781 7582.296875 1435.488281 7580.210938 1432.683594 C 7542.949219 1382.511719 7555.199219 1309.246094 7606.6875 1273.875 C 7629.449219 1257.792969 7657.847656 1252.476562 7685.261719 1256.425781 C 7698.042969 1258.523438 7709.875 1263.367188 7721.328125 1269.289062 C 7722.085938 1269.621094 7723.015625 1268.980469 7723.140625 1268.105469 C 7723.238281 1267.449219 7723.265625 1266.78125 7723.296875 1266.117188 C 7724.132812 1248.632812 7723.507812 1231.140625 7723.382812 1213.652344 C 7723.214844 1209.496094 7724.605469 1205.792969 7728.960938 1204.800781 C 7730.558594 1204.394531 7732.242188 1204.175781 7733.890625 1204.164062 C 7742.042969 1204.003906 7750.21875 1204.433594 7758.359375 1204.042969 C 7760.4375 1203.847656 7762.394531 1203.070312 7762.984375 1200.847656 C 7763.484375 1198.972656 7762.023438 1197.792969 7760.777344 1196.671875 C 7728.476562 1167.589844 7696.023438 1138.679688 7663.382812 1109.980469 C 7648.195312 1095.984375 7632.574219 1082.46875 7617.335938 1068.558594 C 7613.023438 1065.140625 7608.949219 1061.453125 7604.953125 1057.675781 C 7593.085938 1046.722656 7580.753906 1036.273438 7568.804688 1025.410156 C 7563.566406 1020.023438 7557.613281 1015.445312 7551.992188 1010.488281 C 7546.5625 1005.789062 7539.375 1004.378906 7533.089844 1008.398438 C 7531.535156 1009.347656 7530.042969 1010.445312 7528.660156 1011.636719 C 7523.230469 1016.304688 7517.796875 1020.976562 7512.464844 1025.757812 C 7461.804688 1071.554688 7410.46875 1116.585938 7359.648438 1162.207031 C 7347.355469 1173.199219 7335.09375 1184.21875 7322.839844 1195.253906 C 7320.609375 1197.277344 7316.785156 1200.921875 7321.128906 1203.066406 C 7324.386719 1204.421875 7328.007812 1204.15625 7331.464844 1204.234375 C 7338.597656 1204.417969 7345.832031 1203.671875 7352.921875 1204.546875 C 7356.804688 1205.292969 7358.320312 1207.027344 7358.558594 1211.019531 C 7358.625 1247.496094 7358.191406 1283.992188 7358.089844 1320.476562 M 7343.425781 1327.988281 C 7343.425781 1293.496094 7343.425781 1259 7343.425781 1224.507812 C 7343.425781 1220.332031 7343.089844 1219.933594 7338.933594 1219.839844 C 7333.601562 1219.722656 7328.269531 1219.707031 7322.941406 1219.617188 C 7317.738281 1219.523438 7313.167969 1217.882812 7309.394531 1214.160156 C 7304.480469 1209.3125 7302.882812 1203.382812 7303.929688 1196.769531 C 7304.648438 1192.25 7306.597656 1188.171875 7310.089844 1185.03125 C 7314.175781 1181.351562 7318.320312 1177.742188 7322.410156 1174.066406 C 7368.796875 1132.226562 7415.671875 1090.933594 7462.125 1049.167969 C 7479.5625 1033.683594 7497.003906 1018.199219 7514.402344 1002.667969 C 7526.3125 989.410156 7547.339844 984.757812 7562.765625 998.113281 C 7589.355469 1021.855469 7616.21875 1045.3125 7642.328125 1069.5625 C 7642.667969 1069.914062 7643.125 1070.160156 7643.550781 1070.414062 C 7644.039062 1070.707031 7645.078125 1070.246094 7645.117188 1069.679688 C 7645.210938 1068.1875 7645.289062 1066.691406 7645.28125 1065.199219 C 7645.316406 1054.792969 7643.695312 1038.910156 7657.535156 1037.40625 C 7673.960938 1036.109375 7690.515625 1037.035156 7706.984375 1036.898438 C 7715.433594 1036.980469 7720.703125 1041.609375 7722.039062 1049.933594 C 7722.746094 1059.046875 7721.597656 1068.253906 7721.765625 1077.394531 C 7722.03125 1097.375 7721.035156 1117.425781 7722.648438 1137.351562 C 7722.824219 1139.597656 7723.703125 1141.476562 7725.433594 1143.015625 C 7728.417969 1145.675781 7731.257812 1148.496094 7734.25 1151.148438 C 7747.171875 1162.6875 7760.4375 1173.851562 7772.839844 1185.949219 C 7783.140625 1195.40625 7779.015625 1215.792969 7764.363281 1218.703125 C 7756.8125 1220.351562 7749.105469 1219.695312 7741.464844 1219.871094 C 7738.210938 1219.902344 7738.3125 1223.179688 7738.25 1225.59375 C 7738.125 1230.257812 7737.917969 1234.921875 7737.933594 1239.585938 C 7738.074219 1252.578125 7737.960938 1265.59375 7738.460938 1278.570312 C 7738.441406 1281.082031 7739.417969 1283.078125 7741.308594 1284.683594 C 7759.011719 1301.664062 7770.039062 1322.558594 7774.558594 1346.601562 C 7778.359375 1367.511719 7776.113281 1389.730469 7767.667969 1409.261719 C 7766.023438 1413.003906 7766.453125 1415.71875 7769.371094 1418.585938 C 7785.796875 1434.910156 7802 1451.460938 7818.441406 1467.773438 C 7831.328125 1478.496094 7833.914062 1497.746094 7822.351562 1510.480469 C 7808.632812 1525.570312 7787.886719 1522.921875 7775.417969 1507.679688 C 7760.226562 1492.238281 7745.046875 1476.789062 7729.859375 1461.347656 C 7727.929688 1459.386719 7727.566406 1459.316406 7725.101562 1460.550781 C 7723.617188 1461.300781 7722.175781 1462.140625 7720.730469 1462.96875 C 7710.976562 1468.570312 7700.621094 1472.566406 7689.613281 1474.929688 C 7677.359375 1476.761719 7664.605469 1476.988281 7652.25 1475.902344 C 7640.324219 1474.625 7629.179688 1470.921875 7618.527344 1465.578125 C 7616.296875 1464.457031 7614.074219 1463.289062 7611.980469 1461.933594 C 7609.386719 1460.253906 7606.617188 1459.484375 7603.558594 1459.160156 C 7550.476562 1457.484375 7497.273438 1459.121094 7444.152344 1458.601562 C 7419.996094 1458.714844 7395.835938 1458.171875 7371.683594 1458.660156 C 7368.835938 1458.734375 7366.027344 1458.515625 7363.234375 1457.988281 C 7350.835938 1456.027344 7343.546875 1443.851562 7343.527344 1431.96875 C 7343.292969 1397.308594 7343.464844 1362.648438 7343.417969 1327.988281 Z M 7343.425781 1327.988281 "/>
<path style="fill:none;stroke-width:7;stroke-linecap:butt;stroke-linejoin:miter;stroke:rgb(27.842712%,14.509583%,1.960754%);stroke-opacity:1;stroke-miterlimit:10;" d="M 0.0000375 0.00093125 C 9.910194 0.661087 15.824256 13.039994 10.437537 21.254837 C 9.00785 23.51265 7.113319 25.403275 5.230506 27.289994 C -10.652306 43.176712 -26.476525 59.122025 -42.355431 75.01265 C -43.921838 76.567337 -44.7109 76.520462 -45.933556 74.723587 C -49.796838 69.051712 -54.476525 64.098587 -59.265588 59.235306 C -62.281213 56.1689 -62.246056 56.063431 -59.121056 52.907181 C -42.789025 36.528275 -26.730431 19.875931 -10.218713 3.680619 C -7.581994 1.145462 -4.410119 -0.135788 0.0000375 0.00093125 Z M -94.437463 415.372025 C -94.456994 415.375931 -94.476525 415.375931 -94.49215 415.375931 C -94.49215 426.348587 -94.511681 437.32515 -94.484338 448.301712 C -94.30465 452.430619 -95.675744 453.20015 -100.019494 453.317337 C -112.156213 453.26265 -124.292931 453.250931 -136.42965 453.122025 C -141.074181 453.071244 -141.609338 452.457962 -141.605431 447.879837 C -141.593713 439.895462 -141.402306 431.911087 -141.5234 423.934525 C -141.574181 420.801712 -140.531213 418.500931 -138.11715 416.625931 C -131.800744 411.723587 -126.253869 405.954056 -120.246056 400.70015 C -115.74215 396.758744 -111.253869 392.801712 -106.777306 388.829056 C -104.167931 386.51265 -101.624963 384.118119 -99.003869 381.813431 C -97.999963 381.086869 -95.24215 378.368119 -94.597619 380.4814 C -94.167931 392.082962 -94.570275 403.750931 -94.437463 415.372025 Z M -40.847619 133.465775 C -37.527306 213.079056 -123.92965 263.508744 -188.7734 217.247025 C -225.05465 191.403275 -238.99215 139.633744 -219.921838 99.274369 C -201.691369 58.504837 -157.109338 36.079056 -113.49215 45.997025 C -73.621056 54.414994 -41.453088 95.477494 -40.847619 133.465775 Z M -443.933556 184.879837 C -443.839806 184.879837 -443.74215 184.879837 -443.6484 184.879837 C -443.378869 158.38765 -444.070275 131.903275 -443.765588 105.4189 C -443.507775 96.090775 -443.570275 86.758744 -443.3984 77.430619 C -443.355431 75.282181 -443.152306 73.082962 -442.632775 71.004837 C -441.292931 65.618119 -437.484338 62.532181 -431.953088 62.098587 C -394.484338 61.743119 -356.996056 61.985306 -319.519494 61.852494 C -285.2109 61.965775 -250.890588 61.497025 -216.5859 61.989212 C -215.9609 62.01265 -215.214806 61.907181 -214.847619 62.6689 C -214.49215 63.395462 -214.917931 63.914994 -215.324181 64.434525 C -217.488244 67.180619 -219.726525 69.868119 -221.812463 72.672806 C -259.074181 122.844681 -246.824181 196.110306 -195.3359 231.4814 C -172.574181 247.563431 -144.175744 252.879837 -116.761681 248.930619 C -103.980431 246.832962 -92.1484 241.989212 -80.695275 236.067337 C -79.937463 235.735306 -79.007775 236.375931 -78.882775 237.250931 C -78.785119 237.907181 -78.757775 238.57515 -78.726525 239.239212 C -77.890588 256.723587 -78.515588 274.215775 -78.640588 291.704056 C -78.808556 295.860306 -77.417931 299.563431 -73.062463 300.555619 C -71.464806 300.961869 -69.781213 301.180619 -68.132775 301.192337 C -59.980431 301.352494 -51.80465 300.922806 -43.664025 301.313431 C -41.5859 301.508744 -39.628869 302.286087 -39.039025 304.508744 C -38.539025 306.383744 -39.999963 307.563431 -41.246056 308.684525 C -73.546838 337.766556 -105.999963 366.676712 -138.640588 395.375931 C -153.828088 409.372025 -169.449181 422.88765 -184.687463 436.797806 C -188.999963 440.215775 -193.074181 443.903275 -197.070275 447.680619 C -208.937463 458.633744 -221.269494 469.082962 -233.218713 479.946244 C -238.456994 485.332962 -244.410119 489.911087 -250.031213 494.868119 C -255.4609 499.567337 -262.6484 500.977494 -268.933556 496.957962 C -270.488244 496.008744 -271.980431 494.911087 -273.363244 493.719681 C -278.792931 489.051712 -284.226525 484.379837 -289.558556 479.598587 C -340.218713 433.801712 -391.55465 388.770462 -442.374963 343.149369 C -454.667931 332.157181 -466.92965 321.13765 -479.183556 310.102494 C -481.414025 308.079056 -485.238244 304.434525 -480.894494 302.289994 C -477.636681 300.934525 -474.015588 301.20015 -470.558556 301.122025 C -463.425744 300.938431 -456.191369 301.684525 -449.101525 300.809525 C -445.218713 300.063431 -443.703088 298.329056 -443.464806 294.336869 C -443.3984 257.860306 -443.831994 221.364212 -443.933556 184.879837 Z M -458.597619 177.368119 C -458.597619 211.860306 -458.597619 246.3564 -458.597619 280.848587 C -458.597619 285.024369 -458.933556 285.422806 -463.089806 285.516556 C -468.421838 285.633744 -473.753869 285.649369 -479.081994 285.739212 C -484.285119 285.832962 -488.855431 287.473587 -492.628869 291.196244 C -497.542931 296.0439 -499.140588 301.973587 -498.093713 308.586869 C -497.374963 313.1064 -495.425744 317.184525 -491.933556 320.32515 C -487.847619 324.004837 -483.703088 327.614212 -479.613244 331.289994 C -433.226525 373.129837 -386.351525 414.422806 -339.8984 456.188431 C -322.4609 471.672806 -305.019494 487.157181 -287.621056 502.688431 C -275.7109 515.946244 -254.683556 520.598587 -239.257775 507.243119 C -212.667931 483.500931 -185.80465 460.0439 -159.695275 435.7939 C -159.355431 435.442337 -158.8984 435.196244 -158.472619 434.942337 C -157.984338 434.649369 -156.945275 435.110306 -156.906213 435.676712 C -156.812463 437.1689 -156.734338 438.664994 -156.74215 440.157181 C -156.706994 450.563431 -158.328088 466.446244 -144.488244 467.95015 C -128.062463 469.247025 -111.507775 468.321244 -95.039025 468.457962 C -86.589806 468.375931 -81.320275 463.747025 -79.984338 455.422806 C -79.277306 446.309525 -80.425744 437.102494 -80.257775 427.961869 C -79.99215 407.9814 -80.988244 387.930619 -79.374963 368.004837 C -79.199181 365.758744 -78.320275 363.879837 -76.589806 362.340775 C -73.605431 359.680619 -70.765588 356.860306 -67.7734 354.207962 C -54.851525 342.6689 -41.5859 331.504837 -29.183556 319.407181 C -18.882775 309.95015 -23.007775 289.563431 -37.660119 286.653275 C -45.2109 285.004837 -52.917931 285.661087 -60.558556 285.485306 C -63.812463 285.454056 -63.7109 282.176712 -63.7734 279.76265 C -63.8984 275.098587 -64.105431 270.434525 -64.089806 265.770462 C -63.949181 252.778275 -64.062463 239.76265 -63.562463 226.786087 C -63.581994 224.274369 -62.605431 222.278275 -60.714806 220.672806 C -43.011681 203.692337 -31.984338 182.797806 -27.464806 158.754837 C -23.664025 137.844681 -25.910119 115.625931 -34.355431 96.094681 C -35.999963 92.352494 -35.570275 89.63765 -32.652306 86.770462 C -16.226525 70.446244 -0.0234 53.895462 16.418006 37.582962 C 29.304725 26.860306 31.890662 7.610306 20.328162 -5.124069 C 6.609412 -20.213913 -14.136681 -17.565475 -26.605431 -2.323288 C -41.796838 13.118119 -56.976525 28.567337 -72.164025 44.008744 C -74.093713 45.969681 -74.456994 46.039994 -76.921838 44.805619 C -78.406213 44.055619 -79.847619 43.215775 -81.292931 42.38765 C -91.046838 36.786087 -101.402306 32.789994 -112.410119 30.426712 C -124.664025 28.594681 -137.417931 28.368119 -149.7734 29.454056 C -161.699181 30.7314 -172.843713 34.434525 -183.496056 39.778275 C -185.726525 40.899369 -187.949181 42.067337 -190.042931 43.422806 C -192.636681 45.102494 -195.406213 45.872025 -198.464806 46.196244 C -251.546838 47.872025 -304.749963 46.235306 -357.871056 46.754837 C -382.027306 46.641556 -406.187463 47.184525 -430.339806 46.696244 C -433.187463 46.622025 -435.996056 46.840775 -438.789025 47.368119 C -451.187463 49.329056 -458.476525 61.504837 -458.496056 73.38765 C -458.730431 108.047806 -458.558556 142.707962 -458.605431 177.368119 Z M -458.597619 177.368119 " transform="matrix(1,0,0,-1,7802.0234,1505.3564)"/>
<path style=" stroke:none;fill-rule:nonzero;fill:rgb(27.842712%,14.509583%,1.960754%);fill-opacity:1;" d="M 7377.433594 1014.453125 C 7377.46875 1013.617188 7377.019531 1012.894531 7375.574219 1011.980469 C 7370.296875 1008.644531 7366.050781 1004.335938 7362.558594 999.152344 C 7360.140625 995.5625 7359.511719 995.652344 7357.089844 999.480469 C 7353.855469 1004.601562 7349.941406 1009.035156 7344.921875 1012.460938 C 7343.09375 1013.667969 7341.960938 1015.003906 7344.257812 1016.566406 C 7349.964844 1020.65625 7355.023438 1025.382812 7358.910156 1031.292969 C 7359.71875 1032.523438 7360.753906 1032.484375 7361.628906 1031.121094 C 7363.792969 1027.753906 7366.210938 1024.601562 7369.203125 1021.929688 C 7371.839844 1019.414062 7375.097656 1017.210938 7377.433594 1014.453125 M 7360.199219 1064.5 C 7355.414062 1064.351562 7353.316406 1059.734375 7352.597656 1055.339844 C 7349.621094 1039.878906 7338.171875 1027.265625 7322.511719 1024.234375 C 7316.921875 1023.132812 7310.035156 1022.550781 7310.3125 1015.28125 C 7310.488281 1011.507812 7312.394531 1008.996094 7315.980469 1007.9375 C 7335.300781 1006.199219 7348.660156 990.519531 7351.183594 971.941406 C 7351.761719 966.683594 7353.328125 961.527344 7359.503906 961.433594 C 7373.5 961.96875 7359.914062 986.820312 7390.339844 1002.691406 C 7393.464844 1004.328125 7396.894531 1005.113281 7400.386719 1005.554688 C 7402.046875 1005.765625 7403.671875 1006.046875 7405.191406 1006.804688 C 7411.347656 1009.703125 7411.386719 1018.941406 7404.3125 1020.929688 C 7388.097656 1023.640625 7375.9375 1032.890625 7370.710938 1048.601562 C 7369.546875 1051.886719 7369.007812 1055.386719 7368 1058.734375 C 7366.894531 1062.40625 7364.175781 1064.453125 7360.199219 1064.5 "/>
<path style="fill:none;stroke-width:7;stroke-linecap:butt;stroke-linejoin:miter;stroke:rgb(27.842712%,14.509583%,1.960754%);stroke-opacity:1;stroke-miterlimit:10;" d="M 0.00049375 -0.001025 C 0.03565 0.834913 -0.413569 1.557569 -1.858881 2.471631 C -7.136225 5.807569 -11.382319 10.116163 -14.874506 15.299756 C -17.292475 18.8896 -17.921381 18.799756 -20.343256 14.971631 C -23.577631 9.850538 -27.491694 5.416944 -32.511225 1.991163 C -34.33935 0.784131 -35.472162 -0.551806 -33.175287 -2.114306 C -27.468256 -6.20415 -22.409662 -10.930712 -18.522944 -16.840869 C -17.71435 -18.071337 -16.679194 -18.032275 -15.804194 -16.668994 C -13.640131 -13.301806 -11.222162 -10.149462 -8.229975 -7.477587 C -5.593256 -4.961962 -2.335444 -2.758837 0.00049375 -0.001025 Z M -17.233881 -50.0479 C -22.019037 -49.899462 -24.116694 -45.282275 -24.835444 -40.887744 C -27.812006 -25.426806 -39.261225 -12.813525 -54.921381 -9.782275 C -60.511225 -8.680712 -67.397944 -8.098681 -67.1206 -0.82915 C -66.944819 2.944288 -65.038569 5.456006 -61.452631 6.5146 C -42.132319 8.252881 -28.772944 23.932569 -26.249506 42.510694 C -25.671381 47.768506 -24.104975 52.924756 -17.929194 53.018506 C -3.9331 52.48335 -17.519037 27.631788 12.906744 11.760694 C 16.031744 10.123975 19.461431 9.338819 22.953619 8.897413 C 24.613775 8.686475 26.238775 8.405225 27.758306 7.647413 C 33.914556 4.748975 33.953619 -4.489306 26.8794 -6.477587 C 10.664556 -9.188525 -1.4956 -18.438525 -6.722162 -34.149462 C -7.886225 -37.434619 -8.425287 -40.934619 -9.4331 -44.282275 C -10.538569 -47.95415 -13.257319 -50.001025 -17.233881 -50.0479 Z M -17.233881 -50.0479 " transform="matrix(1,0,0,-1,7377.4331,1014.4521)"/>
<path style=" stroke:none;fill-rule:nonzero;fill:rgb(27.842712%,14.509583%,1.960754%);fill-opacity:1;" d="M 7842.148438 1244.484375 C 7841.691406 1244.675781 7841.300781 1244.71875 7841.113281 1244.9375 C 7840.25 1245.9375 7839.324219 1246.917969 7838.632812 1248.039062 C 7836.066406 1252.214844 7832.800781 1255.683594 7828.636719 1258.292969 C 7827.214844 1259.054688 7826.539062 1260.339844 7827.929688 1261.347656 C 7828.953125 1262.1875 7830.066406 1262.921875 7831.152344 1263.6875 C 7835.21875 1266.402344 7838.269531 1270.128906 7840.945312 1274.175781 C 7841.925781 1275.425781 7842.820312 1275.5 7843.746094 1274.246094 C 7847.632812 1268.828125 7852.648438 1264.457031 7857.671875 1260.144531 C 7856.597656 1257.53125 7853.828125 1256.710938 7852.03125 1254.839844 C 7849.15625 1251.84375 7846.089844 1249.035156 7843.53125 1245.746094 C 7843.136719 1245.242188 7842.578125 1244.867188 7842.148438 1244.484375 M 7842.765625 1304.703125 C 7839.25 1304.722656 7836.714844 1302.929688 7835.664062 1299.554688 C 7834.191406 1283.355469 7820.742188 1270.042969 7806.976562 1268.53125 C 7802.488281 1268.15625 7797.9375 1266.3125 7797.648438 1261.371094 C 7797.480469 1258.539062 7799.410156 1255.417969 7802.230469 1254.265625 C 7803.445312 1253.769531 7804.789062 1253.566406 7806.09375 1253.335938 C 7820.964844 1250.785156 7831.039062 1238.199219 7833.738281 1223.9375 C 7834.164062 1221.648438 7834.671875 1219.367188 7835.222656 1217.105469 C 7835.898438 1213.738281 7839.234375 1212.839844 7842.257812 1212.804688 C 7848.328125 1212.667969 7848.507812 1218.472656 7849.417969 1223.03125 C 7852.050781 1236.507812 7862.242188 1248.304688 7875.746094 1251.53125 C 7878.003906 1252.121094 7880.3125 1252.511719 7882.539062 1253.195312 C 7885.816406 1254.207031 7887.78125 1256.714844 7887.867188 1259.679688 C 7887.945312 1266.125 7880.753906 1267.121094 7875.628906 1268.335938 C 7865.949219 1270.34375 7853.207031 1280.972656 7850.5625 1295 C 7850.226562 1296.792969 7849.917969 1298.625 7849.285156 1300.328125 C 7848.113281 1303.488281 7846.167969 1304.679688 7842.765625 1304.703125 "/>
<path style="fill:none;stroke-width:7;stroke-linecap:butt;stroke-linejoin:miter;stroke:rgb(27.842712%,14.509583%,1.960754%);stroke-opacity:1;stroke-miterlimit:10;" d="M 0.0000375 0.000025 C -0.456994 -0.191381 -0.847619 -0.23435 -1.035119 -0.4531 C -1.8984 -1.4531 -2.824181 -2.433569 -3.515588 -3.554663 C -6.081994 -7.730444 -9.347619 -11.199194 -13.511681 -13.808569 C -14.933556 -14.570288 -15.609338 -15.855444 -14.218713 -16.863256 C -13.195275 -17.7031 -12.081994 -18.437475 -10.996056 -19.2031 C -6.92965 -21.917944 -3.878869 -25.644506 -1.203088 -29.691381 C -0.222619 -30.941381 0.671912 -31.0156 1.597694 -29.761694 C 5.484412 -24.343725 10.500037 -19.972631 15.523475 -15.660131 C 14.449256 -13.04685 11.679725 -12.226538 9.88285 -10.355444 C 7.00785 -7.35935 3.941444 -4.550756 1.38285 -1.261694 C 0.988319 -0.757788 0.429725 -0.382788 0.0000375 0.000025 Z M 0.617225 -60.218725 C -2.8984 -60.238256 -5.433556 -58.445288 -6.484338 -55.070288 C -7.956994 -38.871069 -21.406213 -25.558569 -35.171838 -24.04685 C -39.660119 -23.67185 -44.2109 -21.8281 -44.499963 -16.886694 C -44.667931 -14.054663 -42.738244 -10.933569 -39.917931 -9.781225 C -38.703088 -9.285131 -37.359338 -9.082006 -36.05465 -8.851538 C -21.183556 -6.300756 -11.109338 6.285181 -8.410119 20.5469 C -7.984338 22.835962 -7.476525 25.117212 -6.925744 27.378931 C -6.249963 30.746119 -2.914025 31.644556 0.109412 31.679712 C 6.179725 31.816431 6.359412 26.011744 7.269569 21.45315 C 9.902381 7.976587 20.093787 -3.820288 33.597694 -7.04685 C 35.855506 -7.636694 38.1641 -8.027319 40.390662 -8.710913 C 43.668006 -9.722631 45.63285 -12.230444 45.718787 -15.195288 C 45.796912 -21.6406 38.605506 -22.636694 33.480506 -23.851538 C 23.800819 -25.85935 11.058631 -36.488256 8.4141 -50.5156 C 8.078162 -52.308569 7.769569 -54.1406 7.136756 -55.843725 C 5.964881 -59.003881 4.019569 -60.195288 0.617225 -60.218725 Z M 0.617225 -60.218725 " transform="matrix(1,0,0,-1,7842.1484,1244.4844)"/>
<path style=" stroke:none;fill-rule:nonzero;fill:rgb(27.842712%,14.509583%,1.960754%);fill-opacity:1;" d="M 7508.15625 1286.101562 C 7508.152344 1286.011719 7508.152344 1285.921875 7508.152344 1285.828125 C 7502.335938 1285.960938 7496.515625 1286.078125 7490.699219 1286.234375 C 7484.984375 1286.449219 7484.429688 1286.484375 7484.414062 1292.449219 C 7484.398438 1303.421875 7484.402344 1314.398438 7484.429688 1325.375 C 7484.621094 1327.425781 7483.992188 1330.84375 7486.746094 1331.261719 C 7499.367188 1331.609375 7512.019531 1331.394531 7524.652344 1331.457031 C 7530.300781 1331.441406 7531.265625 1330.484375 7531.324219 1324.679688 C 7531.441406 1313.371094 7531.40625 1302.0625 7531.433594 1290.75 C 7531.675781 1285.96875 7528.933594 1286.179688 7525.113281 1286.109375 C 7519.460938 1286.089844 7513.808594 1286.101562 7508.15625 1286.101562 M 7446.089844 1331.375 L 7446.089844 1331.417969 C 7452.40625 1331.417969 7458.71875 1331.476562 7465.03125 1331.398438 C 7469.226562 1331.347656 7469.523438 1331.054688 7469.578125 1326.773438 C 7469.734375 1315.140625 7469.828125 1303.503906 7469.886719 1291.871094 C 7469.910156 1286.726562 7469.433594 1286.1875 7464.160156 1286.179688 C 7450.710938 1286.308594 7437.226562 1285.964844 7423.792969 1286.558594 C 7421.582031 1286.808594 7421.757812 1289.351562 7421.746094 1291.023438 C 7421.773438 1302.160156 7421.796875 1313.296875 7421.867188 1324.429688 C 7422.144531 1329.714844 7422.078125 1331.722656 7428.144531 1331.371094 C 7434.125 1331.378906 7440.109375 1331.375 7446.089844 1331.375 M 7484.3125 1247.699219 L 7484.328125 1247.699219 C 7484.328125 1253.851562 7484.324219 1260 7484.328125 1266.152344 C 7484.332031 1270.113281 7484.972656 1270.839844 7488.820312 1271.074219 C 7500.945312 1271.394531 7513.097656 1271.117188 7525.21875 1271.375 C 7530.816406 1271.238281 7531.246094 1270.886719 7531.382812 1265.421875 C 7531.667969 1253.953125 7531.679688 1242.476562 7531.144531 1231.011719 C 7530.890625 1225.574219 7530.066406 1224.660156 7524.558594 1224.605469 C 7512.925781 1224.488281 7501.285156 1224.496094 7489.652344 1224.554688 C 7485.058594 1224.578125 7484.441406 1225.308594 7484.3125 1229.742188 C 7484.308594 1235.726562 7484.3125 1241.714844 7484.3125 1247.699219 M 7469.59375 1247.863281 L 7469.796875 1247.863281 C 7469.796875 1241.53125 7469.789062 1235.195312 7469.800781 1228.863281 C 7469.804688 1225.976562 7469.613281 1224.894531 7465.8125 1224.367188 C 7453.003906 1224.34375 7440.152344 1224.5 7427.335938 1224.601562 C 7421.917969 1224.773438 7421.847656 1228.347656 7421.820312 1232.777344 C 7422.035156 1244.753906 7421.304688 1256.800781 7422.152344 1268.746094 C 7422.496094 1271.292969 7425.667969 1270.871094 7427.578125 1271.058594 C 7440.230469 1271.03125 7452.910156 1271.597656 7465.546875 1271.175781 C 7469.035156 1270.804688 7469.542969 1270.332031 7469.578125 1266.859375 C 7469.640625 1260.527344 7469.59375 1254.195312 7469.59375 1247.863281 M 7476.554688 1345.753906 C 7460.394531 1345.902344 7444.234375 1346.066406 7428.074219 1346.195312 C 7418.011719 1346.734375 7409.203125 1343.945312 7407.429688 1332.871094 C 7406.964844 1330.089844 7406.746094 1327.238281 7406.746094 1324.417969 C 7406.734375 1301.421875 7406.808594 1278.425781 7406.835938 1255.429688 C 7406.972656 1245.105469 7406.40625 1234.761719 7407.132812 1224.453125 C 7407.570312 1218.09375 7413.195312 1211.054688 7421.414062 1209.769531 C 7455.671875 1208.6875 7490.050781 1209.71875 7524.351562 1209.398438 C 7534.296875 1208.773438 7542.941406 1212.371094 7545.472656 1222.75 C 7546.273438 1226.003906 7546.40625 1229.335938 7546.390625 1232.679688 C 7546.308594 1254.007812 7546.226562 1275.339844 7546.179688 1296.667969 C 7546.164062 1303.832031 7546.28125 1311 7546.277344 1318.164062 C 7546.273438 1321.996094 7546.148438 1325.828125 7546.054688 1329.660156 C 7545.992188 1332.195312 7545.347656 1334.609375 7544.289062 1336.898438 C 7539.945312 1346.546875 7531.757812 1346.273438 7522.535156 1346.113281 C 7507.207031 1345.699219 7491.882812 1345.675781 7476.554688 1345.753906 "/>
<path style="fill:none;stroke-width:7;stroke-linecap:butt;stroke-linejoin:miter;stroke:rgb(27.842712%,14.509583%,1.960754%);stroke-opacity:1;stroke-miterlimit:10;" d="M 0.00145 0.0000375 C -0.00245625 0.0898812 -0.00245625 0.179725 -0.00245625 0.273475 C -5.818863 0.140662 -11.639175 0.023475 -17.455581 -0.132775 C -23.170425 -0.347619 -23.725113 -0.382775 -23.740738 -6.347619 C -23.756363 -17.320275 -23.752456 -28.296838 -23.725113 -39.2734 C -23.533706 -41.324181 -24.162613 -44.74215 -21.408706 -45.160119 C -8.787613 -45.507775 3.864731 -45.292931 16.497544 -45.355431 C 22.145981 -45.339806 23.110825 -44.382775 23.169419 -38.578088 C 23.286606 -27.269494 23.25145 -15.9609 23.278794 -4.6484 C 23.520981 0.13285 20.778794 -0.0780875 16.958481 -0.007775 C 11.306137 0.0117562 5.653794 0.0000375 0.00145 0.0000375 Z M -62.064956 -45.2734 L -62.064956 -45.316369 C -55.74855 -45.316369 -49.43605 -45.374963 -43.12355 -45.296838 C -38.928238 -45.246056 -38.631363 -44.953088 -38.576675 -40.671838 C -38.420425 -29.039025 -38.326675 -17.402306 -38.268081 -5.769494 C -38.244644 -0.624963 -38.721206 -0.0859 -43.994644 -0.0780875 C -57.443863 -0.206994 -70.928238 0.136756 -84.361831 -0.456994 C -86.572769 -0.706994 -86.396988 -3.249963 -86.408706 -4.921838 C -86.381363 -16.058556 -86.357925 -27.195275 -86.287613 -38.328088 C -86.010269 -43.613244 -86.076675 -45.621056 -80.010269 -45.269494 C -74.0298 -45.277306 -68.045425 -45.2734 -62.064956 -45.2734 Z M -23.8423 38.402381 L -23.826675 38.402381 C -23.826675 32.250037 -23.830581 26.1016 -23.826675 19.949256 C -23.822769 15.988319 -23.182144 15.261756 -19.334488 15.027381 C -7.209488 14.707069 4.942856 14.984412 17.06395 14.7266 C 22.661606 14.863319 23.091294 15.214881 23.228012 20.679725 C 23.513169 32.148475 23.524887 43.625037 22.989731 55.089881 C 22.735825 60.527381 21.911606 61.441444 16.403794 61.496131 C 4.770981 61.613319 -6.869644 61.605506 -18.502456 61.546912 C -23.096206 61.523475 -23.713394 60.793006 -23.8423 56.359412 C -23.846206 50.375037 -23.8423 44.386756 -23.8423 38.402381 Z M -38.56105 38.238319 L -38.357925 38.238319 C -38.357925 44.57035 -38.365738 50.906287 -38.354019 57.238319 C -38.350113 60.125037 -38.541519 61.207069 -42.3423 61.734412 C -55.150894 61.75785 -68.002456 61.6016 -80.818863 61.500037 C -86.236831 61.328162 -86.307144 57.753944 -86.334488 53.324256 C -86.119644 41.347694 -86.850113 29.300819 -86.002456 17.355506 C -85.658706 14.808631 -82.486831 15.230506 -80.576675 15.043006 C -67.924331 15.07035 -55.244644 14.503944 -42.607925 14.925819 C -39.119644 15.296912 -38.611831 15.769569 -38.576675 19.242225 C -38.514175 25.574256 -38.56105 31.906287 -38.56105 38.238319 Z M -31.600113 -59.652306 C -47.760269 -59.800744 -63.920425 -59.964806 -80.080581 -60.093713 C -90.143081 -60.632775 -98.951675 -57.843713 -100.725113 -46.769494 C -101.189956 -43.988244 -101.408706 -41.136681 -101.408706 -38.316369 C -101.420425 -15.320275 -101.346206 7.675819 -101.318863 30.671912 C -101.182144 40.996131 -101.74855 51.339881 -101.021988 61.648475 C -100.584488 68.00785 -94.959488 75.046912 -86.740738 76.332069 C -52.482925 77.4141 -18.104019 76.38285 16.196762 76.703162 C 26.142075 77.328162 34.786606 73.730506 37.317856 63.3516 C 38.118637 60.097694 38.25145 56.765662 38.235825 53.421912 C 38.153794 32.093787 38.071762 10.761756 38.024887 -10.566369 C 38.009262 -17.730431 38.12645 -24.8984 38.122544 -32.062463 C 38.118637 -35.894494 37.993637 -39.726525 37.899887 -43.558556 C 37.837387 -46.093713 37.192856 -48.507775 36.134262 -50.796838 C 31.790512 -60.445275 23.603012 -60.171838 14.380356 -60.011681 C -0.947769 -59.597619 -16.271988 -59.574181 -31.600113 -59.652306 Z M -31.600113 -59.652306 " transform="matrix(1,0,0,-1,7508.1548,1286.1016)"/>
<path style=" stroke:none;fill-rule:nonzero;fill:rgb(27.842712%,14.509583%,1.960754%);fill-opacity:1;" d="M 7607.464844 1370.519531 C 7607.617188 1386.378906 7618.375 1405.757812 7632.832031 1415.761719 C 7663.398438 1439.175781 7709.96875 1424.738281 7723.183594 1388.832031 C 7727.929688 1377.609375 7728.945312 1365.875 7726.1875 1354.042969 C 7721.046875 1331.960938 7707.65625 1316.847656 7686.582031 1308.605469 C 7680.492188 1306.222656 7674.066406 1304.84375 7667.546875 1304.96875 C 7632.394531 1305.429688 7606.472656 1335.335938 7607.464844 1370.519531 M 7668.515625 1289.855469 C 7730.75 1290.789062 7764.226562 1364.160156 7726.800781 1412.992188 C 7708.082031 1437.421875 7676.949219 1447.480469 7647.292969 1439.59375 C 7632.566406 1435.820312 7620.699219 1427.574219 7610.835938 1416.269531 C 7587.421875 1389.960938 7586.457031 1347.855469 7607.699219 1320.003906 C 7622.019531 1300.433594 7644.273438 1290.195312 7668.515625 1289.855469 "/>
<path style="fill:none;stroke-width:7;stroke-linecap:butt;stroke-linejoin:miter;stroke:rgb(27.842712%,14.509583%,1.960754%);stroke-opacity:1;stroke-miterlimit:10;" d="M -0.00045625 -0.00193125 C 0.151888 -15.861306 10.9097 -35.240212 25.366731 -45.244119 C 55.933138 -68.658181 102.50345 -54.220681 115.718294 -18.314431 C 120.464388 -7.091775 121.480013 4.6426 118.7222 16.474631 C 113.581575 38.556663 100.19095 53.669944 79.116731 61.912131 C 73.026888 64.294944 66.601106 65.67385 60.081575 65.54885 C 24.929231 65.087913 -0.992644 35.181663 -0.00045625 -0.00193125 Z M 61.050325 80.662131 C 123.2847 79.728538 156.761263 6.357444 119.335481 -42.474587 C 100.616731 -66.904275 69.483919 -76.962869 39.827669 -69.07615 C 25.101106 -65.302712 13.233919 -57.056619 3.370638 -45.751931 C -20.043425 -19.443337 -21.008269 22.662131 0.233919 50.513694 C 14.554231 70.084006 36.808138 80.322288 61.050325 80.662131 Z M 61.050325 80.662131 " transform="matrix(1,0,0,-1,7607.4653,1370.5176)"/>
</svg>
