<?xml version="1.0" encoding="UTF-8"?>
<svg xmlns="http://www.w3.org/2000/svg" width="256" height="256" viewBox="13465.43 1976.93 642.13 642.13" preserveAspectRatio="xMidYMid meet">
<path style=" stroke:none;fill-rule:nonzero;fill:rgb(27.842712%,14.509583%,1.960754%);fill-opacity:1;" d="M 13786.417969 2103.300781 L 13786.417969 2103.285156 C 13820.363281 2102.949219 13854.40625 2103.949219 13888.304688 2102.894531 C 13893.375 2102.054688 13895.558594 2097.71875 13895.273438 2092.914062 C 13895.214844 2082.597656 13895.308594 2072.269531 13895.152344 2061.953125 C 13894.523438 2054.972656 13889.023438 2053.957031 13883.089844 2053.527344 C 13876.449219 2053.042969 13869.800781 2052.636719 13863.160156 2052.164062 C 13853.679688 2051.4375 13843.945312 2052.300781 13841.878906 2040.554688 C 13841.242188 2029.308594 13835.6875 2019.511719 13823.90625 2017.25 C 13821.285156 2016.679688 13818.644531 2016.429688 13815.976562 2016.414062 C 13798.824219 2016.328125 13781.671875 2016.234375 13764.519531 2016.191406 C 13758.261719 2016.433594 13751.667969 2016.046875 13745.816406 2018.589844 C 13736.574219 2022.332031 13732.582031 2030.300781 13732.257812 2039.988281 C 13732.003906 2045.652344 13727.386719 2051.066406 13720.519531 2051.449219 C 13715.867188 2051.707031 13711.210938 2051.96875 13706.566406 2052.324219 C 13700.089844 2052.816406 13693.625 2053.390625 13687.15625 2053.945312 C 13683.003906 2054.203125 13679.398438 2056.953125 13678.957031 2061.242188 C 13678.640625 2071.546875 13678.925781 2081.890625 13678.835938 2092.207031 C 13678.480469 2097.195312 13680.105469 2101.859375 13685.523438 2102.824219 C 13719.105469 2104.019531 13752.800781 2102.957031 13786.417969 2103.300781 M 13995.414062 2326.5625 L 13995.449219 2326.5625 C 13995.40625 2252.425781 13995.589844 2178.285156 13995.289062 2104.148438 C 13995.28125 2101.484375 13995.175781 2098.839844 13994.480469 2096.222656 C 13990.808594 2082.417969 13979.761719 2073.652344 13965.234375 2073.484375 C 13950.238281 2073.3125 13935.238281 2073.429688 13920.242188 2073.441406 C 13918.910156 2073.441406 13917.574219 2073.53125 13916.253906 2073.671875 C 13915.109375 2073.789062 13914.453125 2074.542969 13914.371094 2075.65625 C 13914.25 2077.316406 13914.191406 2078.980469 13914.1875 2080.644531 C 13914.167969 2086.476562 13914.476562 2092.320312 13914.140625 2098.128906 C 13913.402344 2110.863281 13904.402344 2120.144531 13891.75 2121.71875 C 13888.261719 2122.152344 13884.765625 2122.078125 13881.269531 2122.066406 C 13817.28125 2121.726562 13753.289062 2122.148438 13689.300781 2122.191406 C 13686.285156 2122.199219 13683.304688 2122.03125 13680.355469 2121.421875 C 13667.972656 2119.332031 13659.808594 2108.558594 13659.839844 2096.15625 C 13659.824219 2089.332031 13660.101562 2082.488281 13659.738281 2075.671875 C 13659.660156 2072.988281 13656.386719 2073.492188 13654.460938 2073.414062 C 13641.964844 2073.414062 13629.464844 2073.417969 13616.96875 2073.4375 C 13601.371094 2072.691406 13587.648438 2075.835938 13580.738281 2091.398438 C 13577.335938 2099.183594 13578.464844 2107.808594 13578.175781 2116.0625 C 13578.164062 2259.835938 13577.917969 2403.613281 13578.25 2547.390625 C 13577.527344 2565.472656 13591.246094 2580.394531 13609.523438 2580.472656 C 13727.832031 2580.679688 13846.152344 2580.488281 13964.464844 2580.398438 C 13980.8125 2580.367188 13995.058594 2567.078125 13995.332031 2549.972656 C 13995.558594 2475.503906 13995.347656 2401.03125 13995.414062 2326.5625 M 13559.085938 2326.484375 C 13559.085938 2252.519531 13559.089844 2178.558594 13559.078125 2104.59375 C 13559.078125 2099.578125 13559.269531 2094.542969 13560.710938 2089.742188 C 13566.882812 2067.382812 13585.492188 2054.117188 13608.523438 2053.871094 C 13623.847656 2053.757812 13639.179688 2053.671875 13654.507812 2053.738281 C 13660.769531 2053.773438 13660.125 2053.886719 13662.472656 2049.058594 C 13666.972656 2039.433594 13676.96875 2035.171875 13687.125 2034.847656 C 13694.433594 2034.296875 13701.746094 2033.824219 13709.054688 2033.316406 C 13710.839844 2033.183594 13713.046875 2033.136719 13713.542969 2031.019531 C 13714.09375 2029.097656 13714.648438 2027.175781 13715.242188 2025.269531 C 13719.097656 2011.546875 13735.460938 1995.976562 13755.917969 1997.402344 C 13777.082031 1997.386719 13798.242188 1997.371094 13819.402344 1997.371094 C 13838.3125 1996.78125 13853.824219 2009.109375 13859.144531 2026.988281 C 13861.117188 2033.160156 13859.898438 2032.882812 13867.253906 2033.394531 C 13874.234375 2033.878906 13881.21875 2034.300781 13888.1875 2034.882812 C 13898.171875 2035.304688 13907.953125 2040.164062 13911.835938 2049.703125 C 13913.359375 2053.171875 13915.421875 2053.8125 13918.730469 2053.785156 C 13934.394531 2053.660156 13950.058594 2053.636719 13965.71875 2053.730469 C 13977.804688 2053.804688 13988.675781 2057.523438 13997.882812 2065.46875 C 14009.546875 2075.28125 14015.0625 2089.929688 14014.707031 2105.007812 C 14014.703125 2253.433594 14014.636719 2401.859375 14014.679688 2550.285156 C 14014.800781 2562.867188 14010.507812 2573.925781 14002.246094 2583.171875 C 13990.984375 2596.058594 13976.484375 2600.433594 13959.589844 2599.855469 C 13843.121094 2599.65625 13726.648438 2599.644531 13610.179688 2600.023438 C 13605.992188 2600.046875 13601.859375 2599.605469 13597.800781 2598.628906 C 13573.53125 2593.46875 13558.128906 2571.75 13559.058594 2547.371094 C 13559.035156 2473.742188 13559.035156 2400.113281 13559.039062 2326.484375 Z M 13559.085938 2326.484375 "/>
<path style=" stroke:none;fill-rule:nonzero;fill:rgb(27.842712%,14.509583%,1.960754%);fill-opacity:1;" d="M 13634.515625 2448.371094 C 13634.515625 2456.183594 13634.511719 2464 13634.515625 2471.816406 C 13634.523438 2476.671875 13634.4375 2476.625 13639.058594 2476.625 C 13655.855469 2476.519531 13672.660156 2476.824219 13689.449219 2476.503906 C 13690.386719 2476.410156 13690.917969 2475.824219 13690.980469 2474.878906 C 13691.21875 2458.09375 13691.011719 2441.292969 13691.0625 2424.5 C 13691.054688 2420.242188 13691.003906 2420.195312 13686.539062 2420.191406 C 13669.746094 2420.265625 13652.9375 2419.988281 13636.148438 2420.300781 C 13635.160156 2420.371094 13634.679688 2421.019531 13634.625 2421.933594 C 13634.542969 2423.261719 13634.519531 2424.59375 13634.519531 2425.921875 C 13634.507812 2433.402344 13634.515625 2440.886719 13634.515625 2448.371094 M 13692.179688 2448.472656 C 13692.15625 2457.292969 13692.222656 2466.117188 13692.15625 2474.933594 C 13692.046875 2477.644531 13691.746094 2477.917969 13688.847656 2478.027344 C 13671.035156 2478 13653.214844 2478.152344 13635.410156 2477.96875 C 13633.863281 2477.839844 13633.347656 2477.3125 13633.234375 2475.8125 C 13633.082031 2458.34375 13633.214844 2440.863281 13633.1875 2423.386719 C 13633.191406 2418.875 13633.242188 2418.800781 13637.523438 2418.792969 C 13655.160156 2418.878906 13672.820312 2418.546875 13690.453125 2418.917969 C 13692.90625 2419.085938 13691.953125 2422.8125 13692.171875 2424.503906 C 13692.183594 2432.492188 13692.179688 2440.484375 13692.179688 2448.472656 "/>
<path style="fill:none;stroke-width:15;stroke-linecap:round;stroke-linejoin:round;stroke:rgb(27.842712%,14.509583%,1.960754%);stroke-opacity:1;stroke-miterlimit:10;" d="M 0.000025 -0.00099375 C 0.000025 -7.813494 -0.00388125 -15.6299 0.000025 -23.446306 C 0.0078375 -28.301775 -0.0781 -28.2549 4.542994 -28.2549 C 21.339869 -28.149431 38.144556 -28.454119 54.933619 -28.133806 C 55.871119 -28.040056 56.402369 -27.454119 56.464869 -26.508806 C 56.70315 -9.72365 56.496119 7.077131 56.5469 23.8701 C 56.539088 28.127912 56.488306 28.174787 52.023463 28.178694 C 35.230494 28.104475 18.4219 28.381819 1.632838 28.069319 C 0.644556 27.999006 0.164088 27.350569 0.1094 26.436506 C 0.0273688 25.108381 0.00393125 23.77635 0.00393125 22.448225 C -0.0077875 14.967756 0.000025 7.483381 0.000025 -0.00099375 Z M 57.664088 -0.102556 C 57.64065 -8.922869 57.707056 -17.747088 57.64065 -26.563494 C 57.531275 -29.274431 57.230494 -29.547869 54.332056 -29.657244 C 36.519556 -29.6299 18.699244 -29.782244 0.894556 -29.59865 C -0.652319 -29.469744 -1.167944 -28.9424 -1.281225 -27.4424 C -1.433569 -9.97365 -1.300756 7.506819 -1.3281 24.983381 C -1.324194 29.4951 -1.273412 29.569319 3.007838 29.577131 C 20.644556 29.491194 38.304713 29.823225 55.937525 29.452131 C 58.39065 29.284162 57.437525 25.5576 57.656275 23.866194 C 57.667994 15.877912 57.664088 7.885725 57.664088 -0.102556 Z M 57.664088 -0.102556 " transform="matrix(1,0,0,-1,13634.5156,2448.3701)"/>
<path style=" stroke:none;fill-rule:nonzero;fill:rgb(27.842712%,14.509583%,1.960754%);fill-opacity:1;" d="M 13928.867188 2341.480469 C 13926.3125 2342.402344 13924.636719 2342.121094 13922.988281 2342.121094 C 13863.839844 2342.027344 13804.683594 2342.355469 13745.539062 2342.007812 C 13745.082031 2341.996094 13744.863281 2341.742188 13745.058594 2341.371094 C 13745.183594 2341.132812 13745.480469 2340.835938 13745.714844 2340.824219 C 13804.863281 2340.546875 13864.019531 2340.8125 13923.175781 2340.738281 C 13924.761719 2340.738281 13926.410156 2340.429688 13928.867188 2341.480469 "/>
<path style="fill:none;stroke-width:15;stroke-linecap:round;stroke-linejoin:round;stroke:rgb(27.842712%,14.509583%,1.960754%);stroke-opacity:1;stroke-miterlimit:10;" d="M -0.0019125 0.00093125 C -2.5566 -0.920944 -4.232381 -0.639694 -5.880819 -0.639694 C -65.029256 -0.545944 -124.185506 -0.874069 -183.330037 -0.526413 C -183.787069 -0.514694 -184.005819 -0.260788 -183.810506 0.110306 C -183.685506 0.348587 -183.388631 0.645462 -183.154256 0.657181 C -124.005819 0.934525 -64.849569 0.6689 -5.693319 0.743119 C -4.107381 0.743119 -2.458944 1.051712 -0.0019125 0.00093125 Z M -0.0019125 0.00093125 " transform="matrix(1,0,0,-1,13928.8691,2341.4814)"/>
<path style=" stroke:none;fill-rule:nonzero;fill:rgb(27.842712%,14.509583%,1.960754%);fill-opacity:1;" d="M 13662.699219 2200.34375 C 13653.882812 2200.398438 13645.0625 2200.222656 13636.25 2200.4375 C 13633.976562 2200.554688 13634.6875 2203.417969 13634.519531 2204.96875 C 13634.511719 2220.773438 13634.5 2236.574219 13634.527344 2252.378906 C 13634.535156 2256.78125 13634.59375 2256.78125 13638.941406 2256.855469 C 13655.742188 2256.761719 13672.554688 2257.058594 13689.347656 2256.738281 C 13690.246094 2256.652344 13690.890625 2256.136719 13690.957031 2255.15625 C 13691.257812 2238.367188 13690.980469 2221.558594 13691.066406 2204.761719 C 13690.875 2203.398438 13691.554688 2200.683594 13689.640625 2200.5 C 13680.671875 2200.136719 13671.679688 2200.4375 13662.699219 2200.34375 M 13692.179688 2228.789062 C 13692.179688 2236.605469 13692.179688 2244.425781 13692.175781 2252.238281 C 13692.175781 2253.402344 13692.203125 2254.570312 13692.132812 2255.730469 C 13692.023438 2257.660156 13691.601562 2258.101562 13689.796875 2258.207031 C 13671.503906 2258.230469 13653.195312 2258.375 13634.90625 2258.144531 C 13632.65625 2257.96875 13633.320312 2255.160156 13633.179688 2253.589844 C 13633.175781 2236.957031 13633.167969 2220.324219 13633.1875 2203.695312 C 13633.191406 2199.226562 13633.238281 2199.152344 13637.558594 2199.140625 C 13655.1875 2199.230469 13672.835938 2198.886719 13690.453125 2199.273438 C 13691.367188 2199.378906 13691.980469 2199.898438 13692.039062 2200.855469 C 13692.121094 2202.183594 13692.171875 2203.511719 13692.171875 2204.839844 C 13692.183594 2212.824219 13692.179688 2220.808594 13692.179688 2228.789062 "/>
<path style="fill:none;stroke-width:15;stroke-linecap:round;stroke-linejoin:round;stroke:rgb(27.842712%,14.509583%,1.960754%);stroke-opacity:1;stroke-miterlimit:10;" d="M 0.00001875 0.00145 C -8.816388 -0.0532375 -17.6367 0.122544 -26.4492 -0.0923 C -28.722638 -0.209488 -28.0117 -3.072769 -28.179669 -4.62355 C -28.187481 -20.428238 -28.1992 -36.229019 -28.171856 -52.033706 C -28.164044 -56.43605 -28.10545 -56.43605 -23.757794 -56.510269 C -6.957013 -56.416519 9.855487 -56.713394 26.648456 -56.393081 C 27.546894 -56.307144 28.191425 -55.791519 28.257831 -54.81105 C 28.558612 -38.021988 28.281269 -21.213394 28.367206 -4.416519 C 28.1758 -3.053238 28.855487 -0.338394 26.941425 -0.1548 C 17.972675 0.208481 8.980487 -0.0923 0.00001875 0.00145 Z M 29.480487 -28.443863 C 29.480487 -36.260269 29.480487 -44.080581 29.476581 -51.893081 C 29.476581 -53.057144 29.503925 -54.225113 29.433612 -55.385269 C 29.324237 -57.314956 28.902362 -57.756363 27.097675 -57.861831 C 8.804706 -57.885269 -9.503888 -58.0298 -27.79295 -57.799331 C -30.04295 -57.62355 -29.378888 -54.814956 -29.519513 -53.244644 C -29.523419 -36.611831 -29.531231 -19.979019 -29.5117 -3.350113 C -29.507794 1.118637 -29.460919 1.192856 -25.140606 1.204575 C -7.5117 1.114731 10.136737 1.458481 27.753925 1.071762 C 28.667987 0.966294 29.281269 0.446762 29.339862 -0.510269 C 29.421894 -1.838394 29.472675 -3.166519 29.472675 -4.494644 C 29.484394 -12.479019 29.480487 -20.463394 29.480487 -28.443863 Z M 29.480487 -28.443863 " transform="matrix(1,0,0,-1,13662.6992,2200.3452)"/>
<path style=" stroke:none;fill-rule:nonzero;fill:rgb(27.842712%,14.509583%,1.960754%);fill-opacity:1;" d="M 13691.074219 2338.402344 C 13691.074219 2330.917969 13691.078125 2323.4375 13691.066406 2315.953125 C 13691.066406 2314.625 13691.042969 2313.296875 13690.96875 2311.96875 C 13690.917969 2311.019531 13690.339844 2310.441406 13689.40625 2310.386719 C 13672.117188 2310.121094 13654.8125 2310.328125 13637.519531 2310.292969 C 13634.898438 2310.378906 13634.667969 2310.613281 13634.542969 2313.128906 C 13634.464844 2329.253906 13634.539062 2345.386719 13634.519531 2361.511719 C 13634.734375 2363.144531 13633.859375 2366.410156 13636.199219 2366.589844 C 13653.8125 2366.851562 13671.457031 2366.726562 13689.074219 2366.644531 C 13690.203125 2366.578125 13690.953125 2366.046875 13691 2364.835938 C 13691.046875 2363.507812 13691.066406 2362.175781 13691.070312 2360.847656 C 13691.078125 2353.363281 13691.074219 2345.882812 13691.074219 2338.402344 M 13662.644531 2368.132812 C 13654.648438 2368.132812 13646.648438 2368.144531 13638.648438 2368.128906 C 13637.324219 2368.125 13635.992188 2368.058594 13634.667969 2367.941406 C 13633.949219 2367.878906 13633.449219 2367.390625 13633.351562 2366.660156 C 13632.914062 2348.359375 13633.277344 2330.011719 13633.207031 2311.699219 C 13633.332031 2309.671875 13633.808594 2309.199219 13635.984375 2309.046875 C 13652.8125 2308.894531 13669.648438 2309.03125 13686.476562 2308.996094 C 13692.589844 2309.003906 13692.164062 2308.890625 13692.171875 2314.773438 C 13692.179688 2331.433594 13692.203125 2348.09375 13692.164062 2364.753906 C 13692.046875 2367.859375 13691.859375 2368.101562 13688.644531 2368.117188 C 13679.976562 2368.15625 13671.3125 2368.128906 13662.644531 2368.128906 Z M 13662.644531 2368.132812 "/>
<path style="fill:none;stroke-width:15;stroke-linecap:round;stroke-linejoin:round;stroke:rgb(27.842712%,14.509583%,1.960754%);stroke-opacity:1;stroke-miterlimit:10;" d="M 0.00191875 -0.00194375 C 0.00191875 7.482431 0.005825 14.9629 -0.00589375 22.447275 C -0.00589375 23.7754 -0.0293312 25.103525 -0.10355 26.43165 C -0.154331 27.380869 -0.732456 27.958994 -1.66605 28.013681 C -18.955112 28.279306 -36.2598 28.072275 -53.552769 28.107431 C -56.173862 28.021494 -56.404331 27.787119 -56.529331 25.271494 C -56.607456 9.146494 -56.533237 -6.986319 -56.552769 -23.111319 C -56.337925 -24.744131 -57.212925 -28.009756 -54.873081 -28.189444 C -37.2598 -28.451163 -19.615269 -28.326163 -1.998081 -28.244131 C -0.869175 -28.177725 -0.119175 -27.646475 -0.0723 -26.435538 C -0.025425 -25.107413 -0.00589375 -23.775381 -0.0019875 -22.447256 C 0.005825 -14.962881 0.00191875 -7.482413 0.00191875 -0.00194375 Z M -28.427769 -29.732413 C -36.423862 -29.732413 -44.423862 -29.744131 -52.423862 -29.728506 C -53.748081 -29.7246 -55.080112 -29.658194 -56.404331 -29.541006 C -57.123081 -29.478506 -57.623081 -28.990225 -57.720737 -28.259756 C -58.158237 -9.958975 -57.794956 8.388681 -57.865269 26.701181 C -57.740269 28.728525 -57.263706 29.201181 -55.087925 29.353525 C -38.2598 29.505869 -21.423862 29.36915 -4.595737 29.404306 C 1.517544 29.396494 1.091763 29.509775 1.099575 23.626962 C 1.107388 6.966806 1.130825 -9.69335 1.091763 -26.353506 C 0.974575 -29.458975 0.787075 -29.701163 -2.427769 -29.716788 C -11.095737 -29.75585 -19.7598 -29.728506 -28.427769 -29.728506 Z M -28.427769 -29.732413 " transform="matrix(1,0,0,-1,13691.0723,2338.4004)"/>
<path style=" stroke:none;fill-rule:nonzero;fill:rgb(27.842712%,14.509583%,1.960754%);fill-opacity:1;" d="M 13927.785156 2219.929688 C 13921.910156 2220.171875 13759.101562 2221.875 13744.199219 2219.933594 C 13758.164062 2217.984375 13922.265625 2219.703125 13927.785156 2219.929688 "/>
<path style="fill:none;stroke-width:15;stroke-linecap:round;stroke-linejoin:round;stroke:rgb(27.842712%,14.509583%,1.960754%);stroke-opacity:1;stroke-miterlimit:10;" d="M -0.00004375 -0.0014875 C -5.875044 -0.243675 -168.683638 -1.9468 -183.585981 -0.00539375 C -169.621138 1.943825 -5.519575 0.225075 -0.00004375 -0.0014875 Z M -0.00004375 -0.0014875 " transform="matrix(1,0,0,-1,13927.7852,2219.9282)"/>
<path style=" stroke:none;fill-rule:nonzero;fill:rgb(27.842712%,14.509583%,1.960754%);fill-opacity:1;" d="M 13928.917969 2456.929688 C 13921.261719 2457.425781 13780.703125 2459.308594 13744.074219 2456.992188 C 13744.695312 2456.769531 13745.109375 2456.511719 13745.53125 2456.488281 C 13751.945312 2456.113281 13924.332031 2456.4375 13928.917969 2456.929688 "/>
<path style="fill:none;stroke-width:15;stroke-linecap:round;stroke-linejoin:round;stroke:rgb(27.842712%,14.509583%,1.960754%);stroke-opacity:1;stroke-miterlimit:10;" d="M -0.00193125 -0.0004875 C -7.658181 -0.496581 -148.216775 -2.379394 -184.845681 -0.0629875 C -184.224587 0.159669 -183.810525 0.417481 -183.38865 0.440919 C -176.974587 0.815919 -4.587869 0.4917 -0.00193125 -0.0004875 Z M -0.00193125 -0.0004875 " transform="matrix(1,0,0,-1,13928.9199,2456.9292)"/>
</svg>
