<?xml version="1.0" encoding="UTF-8"?>
<svg xmlns="http://www.w3.org/2000/svg" width="256" height="256" viewBox="6747.56 3156.56 1015.88 1015.88" preserveAspectRatio="xMidYMid meet">
<path style=" stroke:none;fill-rule:nonzero;fill:rgb(27.842712%,14.509583%,1.960754%);fill-opacity:1;" d="M 7269.785156 3928.414062 C 7275.28125 3928.40625 7281.105469 3928.476562 7286.640625 3928.433594 C 7296.609375 3928.96875 7307.074219 3926.082031 7309.976562 3914.605469 C 7311.097656 3910.027344 7311.1875 3905.5 7310.230469 3900.78125 C 7308.511719 3892.28125 7300.667969 3886.136719 7292.992188 3885.96875 C 7277.339844 3885.625 7261.6875 3885.5 7246.035156 3885.957031 C 7244.261719 3886.007812 7242.550781 3886.386719 7240.921875 3887.019531 C 7235.1875 3889.253906 7231.035156 3892.976562 7229.394531 3899.164062 C 7228.105469 3904.019531 7228.230469 3908.910156 7228.949219 3913.777344 C 7229.414062 3916.9375 7230.933594 3919.695312 7233.199219 3922.089844 C 7237.09375 3926.207031 7241.824219 3928.171875 7247.421875 3928.316406 C 7254.746094 3928.507812 7262.074219 3928.496094 7269.785156 3928.414062 M 7434.582031 3721.410156 L 7434.488281 3721.410156 C 7434.488281 3736.574219 7434.496094 3751.734375 7434.480469 3766.898438 C 7434.476562 3772.984375 7434.789062 3779.050781 7435.386719 3785.109375 C 7435.730469 3788.585938 7436.785156 3791.777344 7438.675781 3794.695312 C 7444.28125 3803.65625 7452.652344 3807.3125 7463.085938 3806.792969 C 7473.417969 3806.816406 7483.753906 3806.785156 7494.085938 3806.816406 C 7502.121094 3806.84375 7509.660156 3804.914062 7516.433594 3800.636719 C 7530.519531 3791.75 7537.980469 3778.839844 7538.359375 3762.21875 C 7538.691406 3747.480469 7538.476562 3732.730469 7538.472656 3717.984375 C 7538.46875 3706.070312 7538.433594 3694.15625 7538.394531 3682.246094 C 7538.359375 3672.566406 7535.753906 3663.625 7530.3125 3655.625 C 7521.707031 3642.976562 7509.691406 3636.296875 7494.367188 3635.867188 C 7482.535156 3635.535156 7470.703125 3635.613281 7458.871094 3635.882812 C 7446.570312 3636.316406 7436.164062 3645.558594 7435.085938 3659.695312 C 7434.808594 3663.933594 7434.621094 3668.183594 7434.605469 3672.429688 C 7434.550781 3688.753906 7434.582031 3705.082031 7434.582031 3721.410156 M 7078.933594 3721.910156 L 7079.03125 3721.910156 C 7079.03125 3709.914062 7079.054688 3697.917969 7079.023438 3685.921875 C 7079.003906 3677.589844 7079.066406 3669.253906 7078.816406 3660.929688 C 7078.453125 3648.71875 7069.367188 3636.964844 7055.253906 3636.21875 C 7041.945312 3635.511719 7028.59375 3635.535156 7015.269531 3636.203125 C 7009.554688 3636.488281 7004.035156 3638.003906 6998.992188 3640.667969 C 6982.753906 3649.238281 6974.144531 3663.011719 6973.738281 3681.164062 C 6973.132812 3708.144531 6973.425781 3735.148438 6973.679688 3762.140625 C 6973.738281 3768.167969 6974.851562 3774.109375 6977.332031 3779.652344 C 6984.480469 3796.226562 7001.296875 3807.453125 7019.445312 3806.945312 C 7029.945312 3807.027344 7040.445312 3806.988281 7050.945312 3806.992188 C 7060.136719 3807.339844 7068.628906 3804.320312 7074.070312 3796.613281 C 7077.453125 3792.007812 7078.910156 3786.777344 7078.917969 3781.144531 C 7078.953125 3761.398438 7078.933594 3741.65625 7078.933594 3721.910156 M 7098.390625 3722.941406 C 7098.390625 3742.433594 7098.382812 3761.929688 7098.394531 3781.421875 C 7099.324219 3799.007812 7089.109375 3815.761719 7073.082031 3823.050781 C 7067.34375 3825.753906 7061.164062 3826.875 7054.875 3826.9375 C 7041.878906 3827.066406 7028.867188 3827.28125 7015.882812 3826.859375 C 6981.1875 3826.789062 6953.332031 3796.519531 6954.167969 3762.125 C 6954.203125 3734.46875 6953.964844 3706.808594 6954.292969 3679.152344 C 6953.726562 3646.878906 6980.644531 3618.179688 7012.902344 3616.425781 C 7014.828125 3616.253906 7016.460938 3616.335938 7016.464844 3613.980469 C 7016.683594 3611.242188 7016.933594 3608.5 7016.972656 3605.753906 C 7022.75 3492.59375 7107.746094 3399.25 7220.316406 3384.296875 C 7363.078125 3363.953125 7490.253906 3465.796875 7494.621094 3611.171875 C 7494.574219 3615.554688 7494.636719 3615.554688 7498.878906 3616.117188 C 7514.789062 3616.914062 7528.542969 3623.253906 7539.550781 3634.535156 C 7552.90625 3647.71875 7558.242188 3665.699219 7558.050781 3684.199219 C 7557.992188 3710.023438 7557.945312 3735.851562 7557.890625 3761.675781 C 7557.875 3767.183594 7557.449219 3772.65625 7556.25 3778.046875 C 7551.832031 3798.796875 7536.046875 3816.296875 7516.078125 3823.300781 C 7508.113281 3826.175781 7499.425781 3826.914062 7490.992188 3826.957031 C 7488.273438 3826.871094 7488.117188 3827.089844 7487.277344 3829.667969 C 7486.292969 3832.675781 7485.910156 3835.828125 7484.945312 3838.859375 C 7469.539062 3887.117188 7418.90625 3918.183594 7369.386719 3917.960938 C 7357.472656 3917.976562 7345.554688 3917.800781 7333.640625 3917.945312 C 7329.894531 3918.144531 7329.632812 3918.363281 7328.664062 3921.898438 C 7324.460938 3937.671875 7309.21875 3948.394531 7293.082031 3947.878906 C 7277.335938 3947.613281 7261.589844 3947.824219 7245.839844 3947.890625 C 7227.15625 3948.589844 7209.394531 3933.292969 7209.027344 3914.226562 C 7208.929688 3909.3125 7208.515625 3904.398438 7208.960938 3899.492188 C 7210.222656 3881.277344 7226.425781 3866.160156 7244.691406 3866.382812 C 7260.855469 3866.132812 7277.023438 3866.222656 7293.1875 3866.347656 C 7300.71875 3866.402344 7307.695312 3868.171875 7313.960938 3872.433594 C 7321.484375 3877.546875 7326.578125 3884.410156 7328.890625 3893.265625 C 7329.183594 3894.390625 7329.578125 3895.496094 7329.808594 3896.636719 C 7330.042969 3897.824219 7330.765625 3898.335938 7331.882812 3898.410156 C 7342.535156 3898.722656 7353.210938 3898.429688 7363.871094 3898.472656 C 7374.761719 3898.414062 7385.484375 3896.988281 7395.964844 3894.0625 C 7427.972656 3885.203125 7457.160156 3861.652344 7466.464844 3828.972656 C 7466.734375 3827.460938 7466.441406 3826.964844 7464.875 3826.832031 C 7463.304688 3826.699219 7461.714844 3826.832031 7460.132812 3826.808594 C 7450.953125 3826.671875 7442.242188 3824.777344 7434.601562 3819.449219 C 7422.085938 3810.726562 7415.621094 3798.484375 7415.464844 3783.398438 C 7415.164062 3753.910156 7415.367188 3724.417969 7415.371094 3694.929688 C 7415.371094 3682.765625 7415.34375 3670.605469 7415.421875 3658.441406 C 7415.640625 3634.824219 7434.984375 3615.363281 7460.625 3615.863281 C 7464.457031 3615.738281 7468.292969 3615.839844 7472.125 3615.785156 C 7474.339844 3615.753906 7474.78125 3615.363281 7474.910156 3613.191406 C 7474.996094 3611.699219 7474.980469 3610.1875 7474.832031 3608.699219 C 7469.480469 3521.632812 7416.683594 3447.113281 7334.511719 3416.417969 C 7313.382812 3408.410156 7290.980469 3404.167969 7268.453125 3402.71875 C 7254.402344 3401.410156 7240.300781 3402.648438 7226.347656 3404.417969 C 7149.324219 3414.210938 7082.710938 3463.828125 7053.464844 3536.066406 C 7043.582031 3559.742188 7038.355469 3585.226562 7036.546875 3610.773438 C 7036.113281 3616.382812 7036.179688 3616.359375 7041.707031 3616.347656 C 7060.109375 3616.03125 7073.136719 3615.601562 7086.515625 3630.027344 C 7094.6875 3638.824219 7098.511719 3649.425781 7098.476562 3661.464844 C 7098.421875 3681.957031 7098.460938 3702.449219 7098.460938 3722.941406 Z M 7098.390625 3722.941406 "/>
<path style="fill:none;stroke-width:7;stroke-linecap:butt;stroke-linejoin:miter;stroke:rgb(27.842712%,14.509583%,1.960754%);stroke-opacity:1;stroke-miterlimit:10;" d="M 0.00045625 0.0000375 C 5.49655 0.00785 11.320769 -0.0624625 16.855925 -0.0194938 C 26.824675 -0.55465 37.289519 2.332069 40.191863 13.808631 C 41.312956 18.386756 41.4028 22.9141 40.445769 27.63285 C 38.727019 36.13285 30.883269 42.277381 23.207488 42.44535 C 7.555144 42.7891 -8.0972 42.9141 -23.749544 42.457069 C -25.522981 42.406287 -27.233919 42.027381 -28.862825 41.394569 C -34.5972 39.160194 -38.749544 35.437537 -40.390169 29.250037 C -41.679231 24.394569 -41.554231 19.503944 -40.835481 14.636756 C -40.370637 11.4766 -38.851106 8.718787 -36.585481 6.324256 C -32.69095 2.207069 -27.960481 0.242225 -22.362825 0.0976937 C -15.038606 -0.0937125 -7.710481 -0.0819938 0.00045625 0.0000375 Z M 164.797331 207.003944 L 164.703581 207.003944 C 164.703581 191.839881 164.711394 176.679725 164.695769 161.515662 C 164.691863 155.429725 165.004363 149.363319 165.602019 143.304725 C 165.945769 139.828162 167.000456 136.636756 168.891081 133.718787 C 174.49655 124.75785 182.867644 121.1016 193.301238 121.621131 C 203.633269 121.597694 213.969206 121.628944 224.301238 121.597694 C 232.336394 121.57035 239.875456 123.500037 246.648894 127.777381 C 260.734831 136.6641 268.195769 149.574256 268.574675 166.19535 C 268.906706 180.933631 268.691863 195.683631 268.687956 210.429725 C 268.68405 222.343787 268.648894 234.25785 268.609831 246.168006 C 268.574675 255.847694 265.969206 264.7891 260.5278 272.7891 C 251.922331 285.437537 239.906706 292.117225 224.582488 292.546912 C 212.750456 292.878944 200.918425 292.800819 189.086394 292.531287 C 176.785613 292.097694 166.379363 282.855506 165.301238 268.718787 C 165.023894 264.480506 164.836394 260.230506 164.820769 255.984412 C 164.766081 239.660194 164.797331 223.332069 164.797331 207.003944 Z M -190.851106 206.503944 L -190.75345 206.503944 C -190.75345 218.500037 -190.730012 230.496131 -190.761262 242.492225 C -190.780794 250.824256 -190.718294 259.160194 -190.968294 267.484412 C -191.331575 279.69535 -200.417512 291.449256 -214.530794 292.19535 C -227.839387 292.902381 -241.19095 292.878944 -254.515169 292.210975 C -260.230012 291.925819 -265.749544 290.410194 -270.792512 287.746131 C -287.030794 279.175819 -295.640169 265.402381 -296.046419 247.250037 C -296.651887 220.269569 -296.358919 193.265662 -296.105012 166.273475 C -296.046419 160.246131 -294.933137 154.304725 -292.452669 148.761756 C -285.304231 132.187537 -268.487825 120.960975 -250.339387 121.468787 C -239.839387 121.386756 -229.339387 121.425819 -218.839387 121.421912 C -209.647981 121.074256 -201.155794 124.093787 -195.714387 131.800819 C -192.331575 136.406287 -190.874544 141.636756 -190.866731 147.269569 C -190.831575 167.015662 -190.851106 186.75785 -190.851106 206.503944 Z M -171.394075 205.472694 C -171.394075 185.980506 -171.401887 166.484412 -171.390169 146.992225 C -170.460481 129.406287 -180.675325 112.652381 -196.702669 105.363319 C -202.44095 102.660194 -208.620637 101.5391 -214.9097 101.4766 C -227.905794 101.347694 -240.917512 101.13285 -253.901887 101.554725 C -288.5972 101.625037 -316.452669 131.894569 -315.616731 166.2891 C -315.581575 193.94535 -315.819856 221.605506 -315.491731 249.261756 C -316.058137 281.535194 -289.140169 310.234412 -256.882356 311.988319 C -254.956575 312.160194 -253.323762 312.078162 -253.319856 314.433631 C -253.101106 317.171912 -252.851106 319.9141 -252.812044 322.660194 C -247.0347 435.82035 -162.038606 529.1641 -49.468294 544.117225 C 93.293425 564.460975 220.469206 462.617225 224.836394 317.242225 C 224.789519 312.859412 224.852019 312.859412 229.094206 312.296912 C 245.004363 311.500037 258.758269 305.160194 269.766081 293.878944 C 283.12155 280.69535 288.457488 262.714881 288.266081 244.214881 C 288.207488 218.390662 288.160613 192.562537 288.105925 166.738319 C 288.0903 161.230506 287.664519 155.75785 286.4653 150.367225 C 282.047331 129.617225 266.262175 112.117225 246.293425 105.113319 C 238.328581 102.238319 229.641081 101.500037 221.207488 101.457069 C 218.488738 101.543006 218.332488 101.324256 217.492644 98.746131 C 216.508269 95.738319 216.125456 92.585975 215.160613 89.554725 C 199.754363 41.296912 149.12155 10.230506 99.602019 10.453162 C 87.687956 10.437537 75.769988 10.613319 63.855925 10.468787 C 60.109831 10.269569 59.848113 10.050819 58.879363 6.515662 C 54.676238 -9.257775 39.43405 -19.980431 23.297331 -19.464806 C 7.551238 -19.199181 -8.194856 -19.410119 -23.944856 -19.476525 C -42.62845 -20.175744 -60.390169 -4.878869 -60.757356 14.187537 C -60.855012 19.1016 -61.269075 24.015662 -60.823762 28.921912 C -59.562044 47.136756 -43.358919 62.253944 -25.093294 62.031287 C -8.929231 62.281287 7.238738 62.191444 23.4028 62.066444 C 30.93405 62.011756 37.910613 60.242225 44.176238 55.980506 C 51.699675 50.867225 56.793425 44.003944 59.105925 35.148475 C 59.398894 34.023475 59.793425 32.918006 60.023894 31.777381 C 60.258269 30.589881 60.980925 30.078162 62.098113 30.003944 C 72.750456 29.691444 83.426238 29.984412 94.086394 29.941444 C 104.977019 30.000037 115.699675 31.425819 126.180144 34.3516 C 158.187956 43.210975 187.375456 66.761756 196.680144 99.441444 C 196.949675 100.953162 196.656706 101.449256 195.0903 101.582069 C 193.519988 101.714881 191.930144 101.582069 190.348113 101.605506 C 181.168425 101.742225 172.457488 103.636756 164.816863 108.964881 C 152.301238 117.687537 145.836394 129.929725 145.680144 145.015662 C 145.379363 174.503944 145.582488 203.996131 145.586394 233.484412 C 145.586394 245.648475 145.55905 257.808631 145.637175 269.972694 C 145.855925 293.589881 165.199675 313.050819 190.8403 312.550819 C 194.672331 312.675819 198.508269 312.574256 202.3403 312.628944 C 204.555144 312.660194 204.99655 313.050819 205.125456 315.222694 C 205.211394 316.714881 205.195769 318.2266 205.047331 319.714881 C 199.695769 406.781287 146.898894 481.300819 64.727019 511.996131 C 43.598113 520.003944 21.195769 524.246131 -1.331575 525.69535 C -15.382356 527.003944 -29.483919 525.765662 -43.437044 523.996131 C -120.460481 514.203162 -187.073762 464.585975 -216.319856 392.347694 C -226.202669 368.671912 -231.429231 343.187537 -233.237825 317.640662 C -233.671419 312.031287 -233.605012 312.054725 -228.077669 312.066444 C -209.675325 312.38285 -196.647981 312.812537 -183.269075 298.386756 C -175.0972 289.589881 -171.272981 278.988319 -171.308137 266.949256 C -171.362825 246.457069 -171.323762 225.964881 -171.323762 205.472694 Z M -171.394075 205.472694 " transform="matrix(1,0,0,-1,7269.7847,3928.4141)"/>
</svg>
