<?xml version="1.0" encoding="UTF-8"?>
<svg xmlns="http://www.w3.org/2000/svg" width="256" height="256" viewBox="12270.11 1953.61 749.77 749.77" preserveAspectRatio="xMidYMid meet">
<path style=" stroke:none;fill-rule:nonzero;fill:rgb(27.842712%,14.509583%,1.960754%);fill-opacity:1;" d="M 12686.695312 2473.871094 C 12686.578125 2473.210938 12686.132812 2472.8125 12685.730469 2472.402344 C 12674.632812 2461.144531 12663.441406 2449.980469 12652.269531 2438.792969 C 12649.859375 2436.390625 12649.28125 2436.554688 12648.207031 2439.835938 C 12644.089844 2452.402344 12640.15625 2465.023438 12636.21875 2477.644531 C 12634.8125 2482.167969 12633.417969 2486.695312 12632.058594 2491.234375 C 12631.855469 2491.90625 12631.4375 2492.742188 12632.203125 2493.308594 C 12632.796875 2493.746094 12633.472656 2493.371094 12634.105469 2493.152344 C 12649.039062 2487.984375 12664.050781 2483.039062 12678.894531 2477.609375 C 12681.160156 2476.785156 12683.40625 2475.914062 12685.65625 2475.046875 C 12686.203125 2474.835938 12686.75 2474.574219 12686.695312 2473.871094 M 12855.050781 2227.972656 C 12850.816406 2227.992188 12847.402344 2229.566406 12843.945312 2233.054688 C 12837.675781 2239.378906 12831.429688 2245.734375 12825.175781 2252.078125 C 12823.527344 2253.753906 12823.519531 2254.046875 12825.082031 2255.75 C 12838.480469 2269.074219 12851.773438 2282.503906 12865.054688 2295.949219 C 12866.5 2297.40625 12866.949219 2297.949219 12868.839844 2295.945312 C 12872.496094 2292.070312 12876.320312 2288.359375 12880.039062 2284.542969 C 12886.609375 2278.003906 12896.222656 2270.574219 12892.21875 2260.09375 C 12891.28125 2257.5 12889.550781 2255.53125 12887.621094 2253.660156 C 12879.796875 2246.054688 12871.644531 2238.808594 12863.574219 2231.476562 C 12861.066406 2229.195312 12858.0625 2228.121094 12855.050781 2227.972656 M 12852.53125 2311.863281 C 12852.605469 2311.210938 12852.210938 2310.871094 12851.882812 2310.503906 C 12850.710938 2309.207031 12849.578125 2307.871094 12848.347656 2306.628906 C 12836.621094 2294.808594 12824.882812 2283 12813.132812 2271.203125 C 12812.3125 2270.375 12811.414062 2269.628906 12810.542969 2268.855469 C 12809.796875 2268.1875 12809.050781 2268.199219 12808.339844 2268.910156 C 12784.050781 2293.835938 12759.570312 2318.578125 12734.972656 2343.203125 C 12710.859375 2367.367188 12686.855469 2391.644531 12662.910156 2415.976562 C 12659.992188 2418.914062 12659.683594 2418.449219 12662.898438 2421.679688 C 12675.351562 2434.1875 12687.792969 2446.703125 12700.253906 2459.203125 C 12703.828125 2462.789062 12702.992188 2463.617188 12707.425781 2459.136719 C 12716.625 2449.84375 12725.761719 2440.488281 12734.9375 2431.171875 C 12769.800781 2395.722656 12804.816406 2360.425781 12839.828125 2325.125 C 12843.578125 2321.339844 12847.34375 2317.566406 12851.09375 2313.78125 C 12851.675781 2313.191406 12852.292969 2312.621094 12852.53125 2311.863281 M 12590.699219 2155.433594 L 12590.699219 2155.441406 C 12625.347656 2155.414062 12659.996094 2155.5 12694.644531 2155.402344 C 12701.726562 2155.339844 12704.628906 2150.410156 12704.472656 2145.550781 C 12704.519531 2134.734375 12704.5625 2123.898438 12704.371094 2113.074219 C 12704.300781 2107.84375 12701.160156 2104.539062 12696.050781 2103.914062 C 12684.214844 2102.488281 12672.300781 2102.25 12660.449219 2101.121094 C 12655.234375 2100.519531 12651.371094 2098.078125 12649.3125 2093.105469 C 12647.828125 2089.335938 12648.441406 2085.175781 12647.085938 2081.367188 C 12644.058594 2070.609375 12634.332031 2064.644531 12623.425781 2064.6875 C 12602.523438 2064.207031 12581.621094 2064.082031 12560.714844 2064.613281 C 12549.6875 2064.386719 12538.566406 2069.382812 12535.207031 2080.640625 C 12533.09375 2087.300781 12535.300781 2093.832031 12528.847656 2098.65625 C 12526.523438 2100.484375 12523.785156 2101.109375 12520.914062 2101.292969 C 12509.363281 2102.03125 12497.8125 2102.769531 12486.289062 2103.863281 C 12481.367188 2104.328125 12477.984375 2107.621094 12477.953125 2112.453125 C 12477.875 2123.863281 12477.933594 2135.273438 12477.929688 2146.683594 C 12477.882812 2151.605469 12482.15625 2155.53125 12487.007812 2155.261719 C 12521.566406 2155.664062 12556.136719 2155.332031 12590.699219 2155.433594 M 12398.484375 2359.089844 L 12398.527344 2359.089844 C 12398.851562 2429.558594 12397.863281 2500.0625 12398.933594 2570.515625 C 12399.679688 2582.144531 12408.832031 2591.929688 12420.335938 2593.558594 C 12529.980469 2594.902344 12639.78125 2593.453125 12749.476562 2594 C 12761.914062 2594.0625 12773.140625 2585.683594 12775.296875 2572.433594 C 12776.117188 2567.382812 12776.058594 2562.300781 12776.0625 2557.230469 C 12776.101562 2521.660156 12776.070312 2486.085938 12776.070312 2450.511719 C 12776.070312 2441.097656 12776.101562 2431.683594 12776.109375 2422.273438 C 12776.109375 2421.125 12776.421875 2419.632812 12775.28125 2419.074219 C 12774.121094 2418.5 12773.414062 2419.90625 12772.707031 2420.625 C 12752.769531 2441.316406 12732.453125 2461.632812 12712.324219 2482.136719 C 12707.03125 2487.554688 12699.769531 2490.328125 12692.886719 2493.070312 C 12671.800781 2501.289062 12650.429688 2508.84375 12628.851562 2515.675781 C 12625.75 2516.632812 12622.648438 2517.644531 12619.480469 2518.328125 C 12612.261719 2519.882812 12606.59375 2514.191406 12607.867188 2506.925781 C 12611.417969 2488.929688 12617.953125 2471.734375 12623.253906 2454.21875 C 12626.796875 2442.761719 12630.585938 2431.394531 12635.050781 2420.253906 C 12638.101562 2412.136719 12645.050781 2406.65625 12650.773438 2400.460938 C 12690.875 2359.882812 12731.144531 2319.472656 12771.113281 2278.761719 C 12776.25 2273.621094 12775.839844 2275.246094 12776.015625 2267.546875 C 12776.203125 2259.386719 12776.09375 2251.21875 12776.09375 2243.054688 C 12776.097656 2214.898438 12776.132812 2186.738281 12776.0625 2158.582031 C 12776.050781 2153.683594 12776.300781 2148.746094 12775.203125 2143.894531 C 12773.746094 2137.472656 12770.679688 2132.121094 12765.101562 2128.402344 C 12760.144531 2125.101562 12754.605469 2123.851562 12748.738281 2123.847656 C 12741.492188 2123.847656 12734.242188 2123.910156 12726.996094 2123.941406 C 12726.414062 2123.945312 12725.828125 2123.929688 12725.246094 2123.957031 C 12723.429688 2124.039062 12723.359375 2124.113281 12723.292969 2126.023438 C 12723.277344 2134.9375 12723.296875 2143.851562 12723.296875 2152.765625 C 12723.296875 2154.691406 12723.15625 2156.59375 12722.460938 2158.417969 C 12718.675781 2168.726562 12708.007812 2175.230469 12697.183594 2175.082031 C 12691.769531 2175.054688 12686.355469 2175.042969 12680.941406 2175.042969 C 12616.625 2175.085938 12552.308594 2174.933594 12487.992188 2175.234375 C 12484.640625 2175.25 12481.324219 2175.011719 12478.070312 2174.238281 C 12466.195312 2171.71875 12458.101562 2160.765625 12457.988281 2148.800781 C 12457.839844 2141.554688 12458.042969 2134.304688 12457.957031 2127.058594 C 12457.933594 2124.804688 12457.464844 2124.359375 12455.230469 2123.980469 C 12454.824219 2123.910156 12454.402344 2123.914062 12453.984375 2123.914062 C 12443.988281 2123.96875 12433.992188 2124.015625 12423.996094 2124.09375 C 12413.015625 2124.195312 12402.914062 2130.691406 12399.867188 2141.539062 C 12398.710938 2145.179688 12398.621094 2148.914062 12398.613281 2152.660156 C 12398.460938 2221.46875 12398.472656 2290.277344 12398.484375 2359.089844 M 12378.480469 2357.753906 C 12378.480469 2289.023438 12378.492188 2220.292969 12378.464844 2151.558594 C 12378.460938 2144.929688 12378.859375 2138.363281 12381.351562 2132.15625 C 12389.5 2111.160156 12407.25 2103.75 12428.832031 2104.472656 C 12436.996094 2104.402344 12445.164062 2104.402344 12453.324219 2104.488281 C 12455.070312 2104.507812 12456.496094 2103.695312 12458.070312 2103.289062 C 12459.050781 2103.039062 12459.242188 2101.929688 12459.589844 2101.109375 C 12462.835938 2092.746094 12470.101562 2086.78125 12478.777344 2084.792969 C 12482.773438 2083.769531 12486.878906 2083.9375 12490.941406 2083.644531 C 12497.835938 2083.144531 12504.726562 2082.578125 12511.613281 2081.992188 C 12513.605469 2081.824219 12513.746094 2081.601562 12514.28125 2079.652344 C 12517.902344 2063.253906 12529.613281 2049.695312 12546.300781 2045.769531 C 12549.898438 2044.875 12553.53125 2044.59375 12557.195312 2044.585938 C 12580.105469 2044.542969 12603.015625 2044.484375 12625.929688 2044.542969 C 12646.050781 2044.222656 12662.105469 2058.085938 12667.109375 2077.125 C 12667.316406 2077.929688 12667.667969 2078.703125 12667.824219 2079.515625 C 12668.144531 2081.164062 12669.082031 2081.882812 12670.757812 2081.960938 C 12673.839844 2082.105469 12676.917969 2082.3125 12679.980469 2082.625 C 12687.433594 2083.386719 12694.960938 2083.371094 12702.371094 2084.527344 C 12709.859375 2085.691406 12715.625 2089.6875 12719.886719 2095.863281 C 12721.449219 2098.121094 12722.898438 2100.480469 12723.253906 2103.304688 C 12723.355469 2104.121094 12723.835938 2104.4375 12724.617188 2104.429688 C 12733.613281 2104.480469 12742.613281 2104.476562 12751.609375 2104.492188 C 12778.226562 2103.878906 12796.496094 2124.90625 12795.585938 2151.003906 C 12795.523438 2183.828125 12795.753906 2216.652344 12795.5 2249.476562 C 12795.667969 2250.453125 12795.105469 2253.839844 12796.949219 2252.746094 C 12808.3125 2241.523438 12819.417969 2229.984375 12830.707031 2218.671875 C 12842.234375 2206.492188 12861.910156 2205.0625 12875.160156 2215.21875 C 12878.65625 2217.789062 12881.824219 2220.753906 12884.9375 2223.761719 C 12890.683594 2229.320312 12896.5 2234.800781 12902.378906 2240.21875 C 12913.800781 2250.648438 12915.382812 2268.816406 12908.363281 2282.144531 C 12907.039062 2284.765625 12905.179688 2287.007812 12903.117188 2289.09375 C 12868.539062 2324.113281 12833.980469 2359.160156 12799.140625 2393.921875 C 12795.617188 2397.449219 12795.539062 2397.425781 12795.535156 2402.398438 C 12795.550781 2457.214844 12795.535156 2512.035156 12795.542969 2566.851562 C 12796.261719 2592 12777.496094 2613.921875 12751.527344 2613.03125 C 12641.894531 2612.675781 12532.246094 2612.726562 12422.613281 2613.179688 C 12410.636719 2613.507812 12400.390625 2609.210938 12391.820312 2601.105469 C 12382.648438 2592.585938 12378.449219 2579.820312 12378.46875 2567.445312 C 12378.503906 2497.546875 12378.492188 2427.652344 12378.496094 2357.753906 Z M 12378.480469 2357.753906 "/>
<path style=" stroke:none;fill-rule:nonzero;fill:rgb(27.842712%,14.509583%,1.960754%);fill-opacity:1;" d="M 12564.734375 2233.285156 C 12599.195312 2233.574219 12633.710938 2232.703125 12668.140625 2233.632812 C 12672.789062 2234.207031 12675.753906 2237.589844 12675.847656 2242.289062 C 12675.972656 2248.558594 12672.332031 2252.640625 12666.039062 2252.777344 C 12657.882812 2252.953125 12649.71875 2252.832031 12641.558594 2252.835938 C 12581.058594 2252.425781 12520.410156 2253.746094 12459.984375 2252.457031 C 12455.554688 2251.242188 12452.300781 2247.054688 12452.734375 2242.609375 C 12453.207031 2237.726562 12455.332031 2234.535156 12460.832031 2233.613281 C 12495.410156 2232.886719 12530.117188 2233.65625 12564.734375 2233.285156 "/>
<path style=" stroke:none;fill-rule:nonzero;fill:rgb(27.842712%,14.509583%,1.960754%);fill-opacity:1;" d="M 12548.691406 2333.011719 C 12519.375 2332.984375 12490.035156 2333.214844 12460.730469 2333.007812 C 12455.542969 2332.523438 12451.789062 2327.4375 12452.765625 2322.332031 C 12453.679688 2317.578125 12457.453125 2314.210938 12462.308594 2313.875 C 12518.117188 2313.71875 12573.9375 2313.871094 12629.75 2313.820312 C 12631.664062 2313.820312 12633.585938 2313.765625 12635.496094 2313.890625 C 12640.121094 2314.191406 12643.445312 2316.863281 12644.753906 2321.03125 C 12646.648438 2327.074219 12641.890625 2333.21875 12636.40625 2333.160156 C 12607.171875 2332.820312 12577.929688 2333.09375 12548.691406 2333.011719 "/>
<path style=" stroke:none;fill-rule:nonzero;fill:rgb(27.842712%,14.509583%,1.960754%);fill-opacity:1;" d="M 12522.785156 2413.929688 C 12501.917969 2413.597656 12480.914062 2414.582031 12460.113281 2413.554688 C 12449.476562 2410.628906 12450.644531 2396.640625 12461.070312 2394.691406 C 12495.992188 2393.953125 12531.03125 2394.632812 12565.992188 2394.386719 C 12571.65625 2394.386719 12577.316406 2394.398438 12582.980469 2394.472656 C 12593.941406 2394.070312 12597.242188 2409.472656 12586.917969 2413.15625 C 12584.832031 2413.855469 12582.675781 2413.953125 12580.503906 2413.953125 C 12561.265625 2413.941406 12542.023438 2413.945312 12522.785156 2413.945312 Z M 12522.785156 2413.929688 "/>
<path style=" stroke:none;fill-rule:nonzero;fill:rgb(27.842712%,14.509583%,1.960754%);fill-opacity:1;" d="M 12462.070312 2499.355469 C 12465.257812 2499.292969 12467.601562 2500.066406 12469.507812 2501.859375 C 12475.335938 2507.332031 12481.589844 2512.332031 12487.175781 2518.0625 C 12488.960938 2519.894531 12489.199219 2519.914062 12490.921875 2518.058594 C 12497.316406 2511.15625 12503.632812 2504.179688 12510.085938 2497.328125 C 12517.851562 2489.085938 12525.558594 2480.789062 12533.164062 2472.394531 C 12536.332031 2468.894531 12540.277344 2467.5 12544.90625 2469.085938 C 12549.347656 2470.605469 12552.007812 2476.1875 12550.59375 2480.695312 C 12549.902344 2482.890625 12548.683594 2484.738281 12547.109375 2486.394531 C 12542.234375 2491.527344 12537.363281 2496.660156 12532.523438 2501.824219 C 12521.171875 2514.007812 12509.8125 2526.195312 12498.296875 2538.222656 C 12492.914062 2544.167969 12485.207031 2542.722656 12480.878906 2538.6875 C 12473.140625 2531.476562 12464.878906 2524.855469 12457.359375 2517.402344 C 12455.933594 2515.988281 12454.617188 2514.53125 12453.632812 2512.753906 C 12450.796875 2507.777344 12454.546875 2499.175781 12462.070312 2499.355469 "/>
</svg>
