<?xml version="1.0" encoding="UTF-8"?>
<svg xmlns="http://www.w3.org/2000/svg" width="256" height="256" viewBox="9778.84 3056.84 1249.33 1249.33" preserveAspectRatio="xMidYMid meet">
<path style=" stroke:none;fill-rule:nonzero;fill:rgb(27.842712%,14.509583%,1.960754%);fill-opacity:1;" d="M 10618.78125 3594.738281 L 10618.804688 3594.738281 C 10618.632812 3569.421875 10619.179688 3544.082031 10618.558594 3518.777344 C 10618.230469 3513.84375 10615.300781 3510.597656 10610.492188 3509.660156 C 10608.769531 3509.324219 10607.03125 3509.164062 10605.28125 3509.089844 C 10594.699219 3508.652344 10584.183594 3507.386719 10573.71875 3505.902344 C 10514.554688 3497.03125 10457.316406 3474.296875 10408.964844 3438.957031 C 10405.460938 3436.550781 10402.007812 3436.613281 10398.546875 3439.144531 C 10395.925781 3441.058594 10393.226562 3442.867188 10390.550781 3444.703125 C 10369.410156 3459.492188 10346.433594 3471.621094 10322.648438 3481.566406 C 10282.785156 3498.046875 10240.183594 3506.953125 10197.207031 3509.625 C 10192.398438 3510.4375 10189.390625 3513.757812 10189.054688 3518.644531 C 10188.792969 3556.375 10188.957031 3594.113281 10188.859375 3631.84375 C 10188.230469 3675.695312 10193.976562 3720.011719 10211.34375 3760.5625 C 10229.226562 3803.6875 10260.121094 3840.164062 10296.355469 3869.136719 C 10327.523438 3894.226562 10362.21875 3915.226562 10399.554688 3929.757812 C 10403.019531 3931.050781 10406.335938 3931.007812 10409.773438 3929.707031 C 10435.886719 3919.621094 10460.734375 3906.417969 10484.019531 3890.90625 C 10554.859375 3844.125 10603.242188 3777.890625 10615.21875 3692.773438 C 10620.015625 3660.296875 10618.671875 3627.449219 10618.78125 3594.738281 M 10647.199219 3588.875 C 10646.851562 3621.175781 10648.527344 3653.582031 10645.054688 3685.757812 C 10641.554688 3719.296875 10632.554688 3752.285156 10618.277344 3782.839844 C 10590.527344 3842.90625 10540.871094 3890.335938 10484.820312 3924.269531 C 10469.898438 3933.25 10454.597656 3941.519531 10438.589844 3948.449219 C 10431.941406 3951.328125 10425.273438 3954.152344 10418.589844 3956.941406 C 10409.089844 3960.910156 10399.640625 3960.796875 10390.164062 3956.859375 C 10331.066406 3933.007812 10276.121094 3897.078125 10233.296875 3849.640625 C 10197.855469 3810 10174.976562 3759.769531 10165.75 3707.539062 C 10162.007812 3686.152344 10160.253906 3664.613281 10160.28125 3642.902344 C 10160.332031 3600.585938 10160.257812 3558.265625 10160.25 3515.945312 C 10159.6875 3502.058594 10161.796875 3489.984375 10175.851562 3483.804688 C 10177.621094 3483.015625 10179.492188 3482.597656 10181.410156 3482.445312 C 10184.8125 3482.171875 10188.21875 3481.828125 10191.628906 3481.71875 C 10224.035156 3480.480469 10256.144531 3474.378906 10286.792969 3463.769531 C 10323.527344 3450.996094 10358.585938 3433.03125 10389.0625 3408.761719 C 10397.46875 3402.652344 10411.667969 3402.882812 10419.96875 3409.671875 C 10440.738281 3426.265625 10464.035156 3439.453125 10488.097656 3450.65625 C 10515.765625 3463.289062 10544.921875 3472.597656 10574.957031 3477.535156 C 10591.492188 3480.378906 10608.1875 3481.390625 10624.917969 3482.273438 C 10635.886719 3482.667969 10643.445312 3491.75 10645.761719 3498.8125 C 10647.171875 3503.117188 10647.226562 3507.484375 10647.21875 3511.902344 C 10647.195312 3537.558594 10647.128906 3563.21875 10647.121094 3588.875 Z M 10647.199219 3588.875 "/>
<path style="fill:none;stroke-width:4;stroke-linecap:butt;stroke-linejoin:miter;stroke:rgb(27.842712%,14.509583%,1.960754%);stroke-opacity:1;stroke-miterlimit:10;" d="M -0.00005 0.00101875 L 0.0233875 0.00101875 C -0.148488 25.317425 0.398387 50.657269 -0.222706 75.961956 C -0.550831 80.89555 -3.480519 84.141644 -8.289113 85.079144 C -10.011769 85.415081 -11.75005 85.575238 -13.50005 85.649456 C -24.082081 86.086956 -34.597706 87.352581 -45.06255 88.836956 C -104.226613 97.70805 -161.464894 120.442425 -209.816456 155.782269 C -213.320363 158.188519 -216.773488 158.126019 -220.234425 155.594769 C -222.855519 153.680706 -225.554738 151.872113 -228.230519 150.036175 C -249.371144 135.247113 -272.347706 123.118206 -296.132863 113.172894 C -335.996144 96.692425 -378.597706 87.786175 -421.574269 85.1143 C -426.382863 84.3018 -429.390675 80.981488 -429.726613 76.094769 C -429.988331 38.3643 -429.824269 0.626019 -429.921925 -37.10445 C -430.550831 -80.956012 -424.804738 -125.272419 -407.43755 -165.8232 C -389.554738 -208.9482 -358.660206 -245.424762 -322.425831 -274.397419 C -291.257863 -299.487262 -256.56255 -320.487262 -219.226613 -335.018512 C -215.761769 -336.311481 -212.445363 -336.268512 -209.007863 -334.967731 C -182.894581 -324.881794 -158.046925 -311.678669 -134.761769 -296.16695 C -63.921925 -249.3857 -15.539113 -183.151325 -3.56255 -98.034137 C 1.234325 -65.557575 -0.109425 -32.709919 -0.00005 0.00101875 Z M 28.417919 5.8643 C 28.070262 -26.436481 29.746044 -58.842731 26.273387 -91.018512 C 22.773387 -124.557575 13.773387 -157.545856 -0.503956 -188.100544 C -28.253956 -248.16695 -77.910206 -295.596637 -133.960988 -329.530231 C -148.882863 -338.5107 -164.183644 -346.780231 -180.191456 -353.709919 C -186.839894 -356.588825 -193.507863 -359.413044 -200.191456 -362.202106 C -209.691456 -366.170856 -219.140675 -366.057575 -228.617238 -362.120075 C -287.714894 -338.268512 -342.660206 -302.338825 -385.484425 -254.901325 C -420.925831 -215.2607 -443.804738 -165.030231 -453.0313 -112.799762 C -456.773488 -91.413044 -458.527394 -69.873981 -458.50005 -48.163044 C -458.449269 -5.846637 -458.523488 36.473675 -458.5313 78.793988 C -459.0938 92.680706 -456.984425 104.754925 -442.929738 110.934613 C -441.160206 111.723675 -439.289113 112.141644 -437.371144 112.293988 C -433.9688 112.567425 -430.56255 112.911175 -427.152394 113.02055 C -394.746144 114.258831 -362.636769 120.360394 -331.988331 130.969769 C -295.253956 143.743206 -260.195363 161.70805 -229.7188 185.977581 C -221.31255 192.086956 -207.113331 191.856488 -198.81255 185.067425 C -178.043019 168.473675 -154.746144 155.286175 -130.683644 144.08305 C -103.015675 131.450238 -73.859425 122.141644 -43.824269 117.204144 C -27.289113 114.360394 -10.5938 113.348675 6.136669 112.465863 C 17.105419 112.071331 24.664012 102.9893 26.980419 95.9268 C 28.390575 91.622113 28.445262 87.254925 28.43745 82.836956 C 28.414012 57.180706 28.347606 31.52055 28.339794 5.8643 Z M 28.417919 5.8643 " transform="matrix(1,0,0,-1,10618.7813,3594.7393)"/>
<path style=" stroke:none;fill-rule:nonzero;fill:rgb(27.842712%,14.509583%,1.960754%);fill-opacity:1;" d="M 10374.175781 3763.78125 C 10369.199219 3763.734375 10364.984375 3762.019531 10361.433594 3758.417969 C 10350.441406 3747.265625 10339.371094 3736.195312 10328.3125 3725.109375 C 10315.546875 3712.308594 10302.800781 3699.488281 10289.964844 3686.761719 C 10283.210938 3680.375 10282.886719 3666.140625 10292.980469 3661.398438 C 10299.460938 3658.234375 10306.546875 3659.316406 10311.414062 3664.257812 C 10331.683594 3684.726562 10351.703125 3705.460938 10372.261719 3725.636719 C 10374.085938 3727.1875 10374.335938 3727.1875 10375.960938 3725.550781 C 10379.125 3722.351562 10382.28125 3719.148438 10385.417969 3715.921875 C 10424.722656 3675.148438 10463.894531 3634.246094 10503.335938 3593.597656 C 10504.902344 3591.984375 10506.355469 3590.265625 10507.914062 3588.644531 C 10514.535156 3581.371094 10528.617188 3582.757812 10532.855469 3591.902344 C 10535.917969 3598.183594 10534.382812 3606.3125 10529.980469 3610.679688 C 10511.347656 3629.152344 10493.429688 3648.316406 10475.1875 3667.175781 C 10449.449219 3693.027344 10424.625 3719.761719 10399 3745.722656 C 10394.863281 3749.941406 10390.730469 3754.171875 10386.664062 3758.464844 C 10383.253906 3762.066406 10379.101562 3763.796875 10374.175781 3763.78125 "/>
<path style="fill:none;stroke-width:4;stroke-linecap:butt;stroke-linejoin:miter;stroke:rgb(27.842712%,14.509583%,1.960754%);stroke-opacity:1;stroke-miterlimit:10;" d="M -0.00001875 0.00095 C -4.976581 0.047825 -9.191425 1.762669 -12.742206 5.364231 C -23.734394 16.516575 -34.804706 27.586888 -45.8633 38.672825 C -58.628925 51.473606 -71.375019 64.293919 -84.210956 77.020481 C -90.964862 83.4072 -91.289081 97.641575 -81.195331 102.383763 C -74.714862 105.547825 -67.628925 104.465794 -62.761737 99.524388 C -42.492206 79.055638 -22.472675 58.321263 -1.914081 38.145481 C -0.0898625 36.5947 0.160138 36.5947 1.785138 38.231419 C 4.9492 41.430638 8.10545 44.633763 11.242169 47.860325 C 50.546856 88.633763 89.718731 129.536106 129.160138 170.184544 C 130.726544 171.797825 132.179669 173.516575 133.738263 175.137669 C 140.359356 182.411106 154.441388 181.024388 158.679669 171.879856 C 161.742169 165.598606 160.207013 157.4697 155.804669 153.102513 C 137.171856 134.629856 119.253888 115.465794 101.0117 96.606419 C 75.273419 70.754856 50.4492 44.020481 24.8242 18.059544 C 20.687481 13.840794 16.554669 9.610325 12.488263 5.317356 C 9.078106 1.715794 4.925763 -0.014675 -0.00001875 0.00095 Z M -0.00001875 0.00095 " transform="matrix(1,0,0,-1,10374.1758,3763.7822)"/>
</svg>
