<?xml version="1.0" encoding="UTF-8"?>
<svg xmlns="http://www.w3.org/2000/svg" width="256" height="256" viewBox="7377.48 1855.98 879.03 879.03" preserveAspectRatio="xMidYMid meet">
<path style=" stroke:none;fill-rule:nonzero;fill:rgb(27.842712%,14.509583%,1.960754%);fill-opacity:1;" d="M 7818.058594 2097.992188 L 7818.058594 2097.980469 C 7847.636719 2097.878906 7877.222656 2098.195312 7906.792969 2097.851562 C 7912.582031 2097.707031 7915.433594 2092.984375 7915.054688 2087.53125 C 7915.054688 2079.363281 7915.039062 2071.199219 7915.03125 2063.03125 C 7915.027344 2056.359375 7912.335938 2053.53125 7905.726562 2053.464844 C 7896.558594 2053.371094 7887.394531 2053.367188 7878.230469 2053.328125 C 7873.597656 2053.636719 7868.78125 2051.875 7867.9375 2046.792969 C 7866.878906 2040.859375 7867.777344 2034.808594 7867.554688 2028.828125 C 7867.308594 2017.375 7859.4375 2009.585938 7848.023438 2009.464844 C 7838.109375 2009.359375 7828.195312 2009.269531 7818.277344 2009.277344 C 7809.113281 2009.28125 7799.949219 2009.335938 7790.785156 2009.527344 C 7780.800781 2009.660156 7772.558594 2018.804688 7773.085938 2028.691406 C 7772.929688 2034.59375 7773.664062 2040.558594 7772.835938 2046.417969 C 7771.898438 2051.644531 7767.351562 2053.523438 7762.480469 2053.316406 C 7751.316406 2053.429688 7740.140625 2053.25 7728.988281 2053.476562 C 7724.867188 2053.910156 7721.511719 2057.234375 7721.488281 2061.167969 C 7721.433594 2070.582031 7721.433594 2079.996094 7721.550781 2089.410156 C 7721.613281 2094.472656 7725.347656 2097.992188 7730.316406 2097.992188 C 7759.5625 2097.996094 7788.808594 2097.992188 7818.058594 2097.992188 M 7620.460938 2330.425781 L 7620.476562 2330.425781 C 7620.617188 2405.003906 7620.195312 2479.597656 7620.632812 2554.171875 C 7621.449219 2570.425781 7634.421875 2582.082031 7649.390625 2581.988281 C 7761.804688 2582.0625 7874.222656 2582 7986.636719 2581.957031 C 8001.328125 2581.867188 8012.894531 2571.683594 8015.183594 2557.214844 C 8015.882812 2552.816406 8015.734375 2548.410156 8015.730469 2544 C 8015.492188 2399 8015.886719 2254.003906 8015.671875 2109.007812 C 8015.667969 2105.566406 8015.167969 2102.179688 8014.03125 2098.941406 C 8010.117188 2086.511719 7998.175781 2078.09375 7985.132812 2078.484375 C 7968.96875 2078.523438 7952.796875 2078.300781 7936.636719 2078.507812 C 7933.425781 2078.707031 7933.375 2078.769531 7933.296875 2082.050781 C 7933.195312 2086.210938 7933.535156 2090.398438 7932.734375 2094.519531 C 7930.472656 2108.269531 7918.617188 2117.082031 7904.847656 2116.5 C 7846.183594 2116.4375 7787.515625 2116.660156 7728.851562 2116.476562 C 7726.148438 2116.472656 7723.539062 2115.859375 7721.042969 2114.980469 C 7706.355469 2109.914062 7702.679688 2097.285156 7703.550781 2082.929688 C 7703.480469 2078.605469 7703.257812 2078.410156 7699.011719 2078.417969 C 7690.84375 2078.429688 7682.675781 2078.425781 7674.511719 2078.457031 C 7666.09375 2078.488281 7657.671875 2078.378906 7649.265625 2078.652344 C 7639.539062 2078.96875 7631.585938 2082.925781 7625.878906 2091.015625 C 7622.238281 2096.171875 7620.699219 2101.988281 7620.574219 2108.183594 C 7620.269531 2182.261719 7620.558594 2256.347656 7620.460938 2330.425781 M 8033.476562 2330.230469 C 8033.476562 2404.394531 8033.445312 2478.5625 8033.507812 2552.726562 C 8033.519531 2563.613281 8030.699219 2573.492188 8023.996094 2582.09375 C 8014.988281 2593.648438 8003.207031 2600.191406 7988.425781 2600.554688 C 7977.351562 2600.824219 7966.265625 2600.660156 7955.179688 2600.660156 C 7855.183594 2600.664062 7755.1875 2600.683594 7655.191406 2600.816406 C 7635.378906 2601.90625 7616.425781 2592.914062 7607.515625 2574.660156 C 7604.121094 2568.09375 7602.421875 2561.113281 7602.394531 2553.746094 C 7602.839844 2402.707031 7601.058594 2251.511719 7603.042969 2100.546875 C 7606.359375 2077.378906 7624.988281 2060.730469 7648.398438 2060.128906 C 7665.3125 2059.679688 7682.230469 2060.0625 7699.144531 2059.914062 C 7703.289062 2059.894531 7703.378906 2059.777344 7704.113281 2055.71875 C 7705.929688 2043.433594 7717.363281 2034.816406 7729.527344 2034.914062 C 7736.109375 2034.824219 7742.691406 2034.878906 7749.273438 2034.847656 C 7755.324219 2034.820312 7754.902344 2035.164062 7754.890625 2029.320312 C 7754.515625 2007.019531 7771.042969 1990.425781 7793.460938 1990.960938 C 7812.042969 1990.84375 7830.625 1990.847656 7849.207031 1990.878906 C 7870.582031 1991.1875 7885.480469 2008.253906 7885.5 2027.457031 C 7885.519531 2029.207031 7885.476562 2030.960938 7885.59375 2032.703125 C 7885.707031 2034.359375 7886.082031 2034.679688 7887.746094 2034.863281 C 7894.238281 2034.984375 7900.75 2034.667969 7907.242188 2034.84375 C 7921.179688 2034.988281 7931.058594 2044.917969 7933.050781 2057.804688 C 7933.289062 2059.1875 7934.085938 2059.839844 7935.429688 2059.882812 C 7952.34375 2059.972656 7969.261719 2060.105469 7986.175781 2059.945312 C 8006.773438 2059.707031 8024.367188 2072.835938 8031.082031 2091.996094 C 8032.699219 2096.601562 8033.398438 2101.378906 8033.417969 2106.238281 C 8033.40625 2180.902344 8033.402344 2255.566406 8033.40625 2330.230469 Z M 8033.476562 2330.230469 "/>
<path style="fill:none;stroke-width:7;stroke-linecap:butt;stroke-linejoin:miter;stroke:rgb(27.842712%,14.509583%,1.960754%);stroke-opacity:1;stroke-miterlimit:10;" d="M 0.00149375 0.0019125 L 0.00149375 0.0136312 C 29.579619 0.115194 59.165556 -0.201213 88.735869 0.142537 C 94.524931 0.287069 97.376494 5.009725 96.997588 10.46285 C 96.997588 18.630819 96.981963 26.794881 96.97415 34.96285 C 96.970244 41.634725 94.278838 44.46285 87.669463 44.529256 C 78.501494 44.623006 69.337431 44.626912 60.173369 44.665975 C 55.540556 44.357381 50.72415 46.1191 49.8804 51.201131 C 48.821806 57.134725 49.720244 63.185506 49.497588 69.165975 C 49.251494 80.6191 41.3804 88.408162 29.966338 88.529256 C 20.052275 88.634725 10.138213 88.724569 0.220244 88.716756 C -8.943819 88.71285 -18.107881 88.658162 -27.271944 88.466756 C -37.256319 88.333944 -45.498506 79.189412 -44.971162 69.302694 C -45.127412 63.40035 -44.393037 57.435506 -45.221162 51.576131 C -46.158662 46.349569 -50.705537 44.470662 -55.576631 44.677694 C -66.740694 44.564412 -77.916475 44.7441 -89.068819 44.517537 C -93.189912 44.083944 -96.545381 40.759725 -96.568819 36.826131 C -96.623506 27.412069 -96.623506 17.998006 -96.506319 8.583944 C -96.443819 3.521444 -92.709444 0.0019125 -87.740694 0.0019125 C -58.4946 -0.00199375 -29.248506 0.0019125 0.00149375 0.0019125 Z M -197.596162 -232.431681 L -197.580537 -232.431681 C -197.439912 -307.009806 -197.861787 -381.603556 -197.424287 -456.177775 C -196.607881 -472.431681 -183.635225 -484.087931 -168.666475 -483.994181 C -56.252412 -484.0684 56.165556 -484.0059 168.579619 -483.962931 C 183.271025 -483.873088 194.837431 -473.689494 197.126494 -459.220744 C 197.825713 -454.822306 197.677275 -450.416056 197.673369 -446.0059 C 197.435088 -301.0059 197.829619 -156.009806 197.614775 -11.013713 C 197.610869 -7.572306 197.110869 -4.185588 195.97415 -0.947306 C 192.060088 11.482381 180.118681 19.90035 167.075713 19.509725 C 150.91165 19.470662 134.739775 19.693319 118.579619 19.486287 C 115.368681 19.287069 115.3179 19.224569 115.239775 15.943319 C 115.138213 11.783162 115.478056 7.595662 114.677275 3.474569 C 112.415556 -10.275431 100.560088 -19.087931 86.790556 -18.5059 C 28.126494 -18.4434 -30.541475 -18.666056 -89.205537 -18.482463 C -91.908662 -18.478556 -94.518037 -17.865275 -97.014131 -16.986369 C -111.701631 -11.919963 -115.377412 0.708944 -114.506319 15.064412 C -114.576631 19.388631 -114.799287 19.583944 -119.045381 19.576131 C -127.21335 19.564412 -135.381319 19.568319 -143.545381 19.537069 C -151.96335 19.505819 -160.385225 19.615194 -168.791475 19.341756 C -178.518037 19.02535 -186.471162 15.068319 -192.178194 6.978475 C -195.818819 1.822225 -197.357881 -3.994181 -197.482881 -10.189494 C -197.787569 -84.267619 -197.498506 -158.353556 -197.596162 -232.431681 Z M 215.419463 -232.236369 C 215.419463 -306.400431 215.388213 -380.5684 215.450713 -454.732463 C 215.462431 -465.619181 212.642119 -475.498088 205.938994 -484.09965 C 196.931181 -495.654338 185.149931 -502.197306 170.368681 -502.560588 C 159.294463 -502.830119 148.208525 -502.666056 137.122588 -502.666056 C 37.126494 -502.669963 -62.8696 -502.689494 -162.865694 -502.822306 C -182.678194 -503.91215 -201.631319 -494.919963 -210.541475 -476.666056 C -213.936006 -470.09965 -215.635225 -463.119181 -215.662569 -455.751994 C -215.217256 -304.712931 -216.998506 -153.517619 -215.014131 -2.552775 C -211.697725 20.615194 -193.068819 37.263631 -169.658662 37.865194 C -152.7446 38.314412 -135.826631 37.9316 -118.912569 38.080037 C -114.768037 38.099569 -114.678194 38.216756 -113.943819 42.27535 C -112.127412 54.560506 -100.693819 63.177694 -88.529756 63.080037 C -81.947725 63.169881 -75.365694 63.115194 -68.783662 63.146444 C -62.732881 63.173787 -63.154756 62.830037 -63.166475 68.673787 C -63.541475 90.974569 -47.014131 107.568319 -24.596162 107.033162 C -6.014131 107.15035 12.5679 107.146444 31.149931 107.115194 C 52.524931 106.8066 67.423369 89.740194 67.4429 70.537069 C 67.462431 68.787069 67.419463 67.033162 67.53665 65.290975 C 67.649931 63.634725 68.024931 63.314412 69.688994 63.130819 C 76.181181 63.009725 82.6929 63.326131 89.185088 63.15035 C 103.122588 63.005819 113.001494 53.076131 114.993681 40.189412 C 115.231963 38.8066 116.028838 38.154256 117.372588 38.111287 C 134.28665 38.021444 151.204619 37.888631 168.118681 38.048787 C 188.716338 38.287069 206.310088 25.158162 213.024931 5.998006 C 214.642119 1.392537 215.341338 -3.384806 215.360869 -8.244181 C 215.34915 -82.908244 215.345244 -157.572306 215.34915 -232.236369 Z M 215.419463 -232.236369 " transform="matrix(1,0,0,-1,7818.0571,2097.9941)"/>
<path style=" stroke:none;fill-rule:nonzero;fill:rgb(27.842712%,14.509583%,1.960754%);fill-opacity:1;" d="M 7896.214844 2256.203125 C 7896.988281 2211.738281 7855.683594 2173.214844 7811.21875 2178.339844 C 7771.796875 2181.875 7740.691406 2214.667969 7739.984375 2254.253906 C 7738.304688 2289.675781 7764.867188 2322.855469 7799.082031 2331.148438 C 7847.058594 2344.222656 7896.285156 2305.714844 7896.214844 2256.203125 M 7721.925781 2256.089844 C 7720.917969 2207.207031 7760.328125 2159.476562 7818.464844 2159.394531 C 7944.980469 2164.660156 7945.730469 2345.027344 7820.300781 2352.226562 C 7763.257812 2353.355469 7720.902344 2306.449219 7721.925781 2256.089844 "/>
<path style="fill:none;stroke-width:7;stroke-linecap:butt;stroke-linejoin:miter;stroke:rgb(27.842712%,14.509583%,1.960754%);stroke-opacity:1;stroke-miterlimit:10;" d="M -0.00045625 -0.001025 C 0.772981 44.463819 -40.531706 82.987256 -84.99655 77.862256 C -124.418425 74.3271 -155.523894 41.534131 -156.230925 1.948194 C -157.910612 -33.473681 -131.348112 -66.653369 -97.133269 -74.946337 C -49.156706 -88.020556 0.0698563 -49.512744 -0.00045625 -0.001025 Z M -174.289519 0.112256 C -175.297331 48.995069 -135.887175 96.725538 -77.750456 96.807569 C 48.765169 91.541944 49.515169 -88.825244 -75.914519 -96.024462 C -132.957487 -97.153369 -175.312956 -50.247119 -174.289519 0.112256 Z M -174.289519 0.112256 " transform="matrix(1,0,0,-1,7896.2153,2256.2021)"/>
<path style="fill-rule:nonzero;fill:rgb(27.842712%,14.509583%,1.960754%);fill-opacity:1;stroke-width:7;stroke-linecap:butt;stroke-linejoin:miter;stroke:rgb(27.842712%,14.509583%,1.960754%);stroke-opacity:1;stroke-miterlimit:10;" d="M -0.00096875 0.0005 C 26.241219 0.0005 52.483406 0.0005 78.7295 0.0005 C 80.315438 0.0005 81.905281 -0.0268437 83.428719 -0.522937 C 87.772469 -1.940906 89.553719 -4.640125 90.061531 -9.253406 C 90.420906 -12.542469 88.092781 -16.15575 84.866219 -17.694812 C 80.987313 -19.327625 76.612313 -18.577625 72.51075 -18.800281 C 24.608406 -18.831531 -23.297844 -18.858875 -71.200187 -18.878406 C -76.98925 -18.644031 -84.231437 -20.448719 -88.313469 -15.198719 C -92.688469 -9.53075 -89.438469 -1.562 -82.211906 -0.261219 C -80.399406 0.063 -78.559562 0.00440625 -76.727531 0.00440625 C -51.153312 -0.0190312 -25.575187 -0.0659062 -0.00096875 -0.0502812 Z M -0.00096875 0.0005 " transform="matrix(1,0,0,-1,7866.583,2494.313)"/>
<path style="fill-rule:nonzero;fill:rgb(27.842712%,14.509583%,1.960754%);fill-opacity:1;stroke-width:7;stroke-linecap:butt;stroke-linejoin:miter;stroke:rgb(27.842712%,14.509583%,1.960754%);stroke-opacity:1;stroke-miterlimit:10;" d="M -0.001025 -0.0015 C -26.399462 -0.0015 -52.801806 0.00240625 -79.20415 -0.00540625 C -81.040087 -0.00540625 -82.8604 0.0414687 -84.633837 0.639125 C -92.9854 3.650844 -92.157275 17.662562 -81.157275 18.369594 C -27.114306 18.568812 26.9521 18.271937 80.995069 18.381312 C 84.241163 18.260219 87.143506 17.260219 88.760694 14.228969 C 90.534131 10.896937 90.991163 7.420375 88.8271 4.014125 C 86.893506 0.650844 83.057569 -0.114781 79.4521 0.0258437 C 65.291944 0.0649062 51.135694 0.146937 36.979444 0.178187 C 24.651319 0.205531 12.3271 0.182094 -0.001025 0.182094 Z M -0.001025 -0.0015 " transform="matrix(1,0,0,-1,7866.4854,2431.3735)"/>
<path style=" stroke:none;fill-rule:nonzero;fill:rgb(27.842712%,14.509583%,1.960754%);fill-opacity:1;" d="M 7749.683594 2400.347656 C 7749.65625 2402.929688 7749.019531 2405.222656 7747.144531 2407.175781 C 7735.492188 2419.3125 7723.871094 2431.476562 7712.285156 2443.675781 C 7709.382812 2446.726562 7705.945312 2447.792969 7701.867188 2447.105469 C 7699.820312 2446.761719 7698.105469 2445.824219 7696.691406 2444.3125 C 7691.691406 2438.957031 7686.679688 2433.609375 7681.679688 2428.253906 C 7679.769531 2426.207031 7678.695312 2423.8125 7679.027344 2420.980469 C 7679.429688 2417.53125 7680.941406 2414.820312 7684.402344 2413.511719 C 7688.238281 2412.058594 7691.644531 2412.816406 7694.546875 2415.589844 C 7696.953125 2417.890625 7699.195312 2420.363281 7701.507812 2422.761719 C 7701.796875 2423.0625 7702.070312 2423.378906 7702.363281 2423.671875 C 7704.253906 2425.585938 7704.484375 2425.59375 7706.28125 2423.605469 C 7715.167969 2413.78125 7724.539062 2404.417969 7733.710938 2394.867188 C 7736.425781 2392.042969 7739.714844 2391.386719 7743.328125 2392.007812 C 7747.265625 2392.679688 7749.753906 2396.089844 7749.683594 2400.347656 "/>
<path style="fill:none;stroke-width:7;stroke-linecap:butt;stroke-linejoin:miter;stroke:rgb(27.842712%,14.509583%,1.960754%);stroke-opacity:1;stroke-miterlimit:10;" d="M -0.00190625 0.00044375 C -0.02925 -2.581588 -0.665969 -4.874556 -2.540969 -6.827681 C -14.193313 -18.9644 -25.814406 -31.128463 -37.400344 -43.327681 C -40.302688 -46.378463 -43.740188 -47.444869 -47.818313 -46.757369 C -49.865188 -46.413619 -51.580031 -45.476119 -52.994094 -43.9644 C -57.994094 -38.608931 -63.005813 -33.261275 -68.005813 -27.905806 C -69.915969 -25.858931 -70.990188 -23.4644 -70.658156 -20.632369 C -70.255813 -17.18315 -68.744094 -14.472213 -65.283156 -13.163619 C -61.447219 -11.710494 -58.040969 -12.468306 -55.138625 -15.241744 C -52.732375 -17.542525 -50.490188 -20.015181 -48.177688 -22.413619 C -47.888625 -22.7144 -47.615188 -23.030806 -47.322219 -23.323775 C -45.431594 -25.237838 -45.201125 -25.24565 -43.40425 -23.257369 C -34.517531 -13.43315 -25.146438 -4.069869 -15.974563 5.480912 C -13.259719 8.305131 -9.970656 8.961381 -6.357375 8.340287 C -2.419875 7.668412 0.0684062 4.258256 -0.00190625 0.00044375 Z M -0.00190625 0.00044375 " transform="matrix(1,0,0,-1,7749.6855,2400.3481)"/>
<path style=" stroke:none;fill-rule:nonzero;fill:rgb(27.842712%,14.509583%,1.960754%);fill-opacity:1;" d="M 7689.839844 2504.132812 C 7689.914062 2495.824219 7695.835938 2489.949219 7704.042969 2489.976562 C 7722.082031 2489.953125 7723.183594 2518.367188 7703.894531 2518.832031 C 7697.027344 2518.835938 7689.328125 2513.335938 7689.839844 2504.132812 "/>
<path style="fill:none;stroke-width:7;stroke-linecap:butt;stroke-linejoin:miter;stroke:rgb(27.842712%,14.509583%,1.960754%);stroke-opacity:1;stroke-miterlimit:10;" d="M 0.00144375 -0.0000125 C 0.0756625 8.308581 5.997538 14.183581 14.204569 14.156237 C 32.243631 14.179675 33.345194 -14.234388 14.056131 -14.699231 C 7.188944 -14.703138 -0.510275 -9.203138 0.00144375 -0.0000125 Z M 0.00144375 -0.0000125 " transform="matrix(1,0,0,-1,7689.8384,2504.1328)"/>
<path style="fill-rule:nonzero;fill:rgb(27.842712%,14.509583%,1.960754%);fill-opacity:1;stroke-width:7;stroke-linecap:butt;stroke-linejoin:miter;stroke:rgb(27.842712%,14.509583%,1.960754%);stroke-opacity:1;stroke-miterlimit:10;" d="M 0.00190625 0.00191875 C 0.02925 -6.662144 -0.0645 -13.330112 0.0409687 -19.994175 C 0.0956562 -21.16605 0.650344 -21.8848 1.892531 -21.873081 C 3.244094 -21.861362 4.537062 -22.220737 5.826125 -22.521519 C 10.013625 -23.41605 12.333937 -26.994175 12.076125 -31.216831 C 12.013625 -38.751987 6.369094 -40.408237 -0.173875 -40.111362 C -7.466844 -39.927769 -15.478563 -40.459019 -22.642625 -39.771519 C -29.306688 -38.373081 -32.009813 -30.599644 -27.712938 -25.283237 C -25.865281 -22.818394 -22.72075 -22.41605 -19.896531 -21.91605 C -18.697313 -21.755894 -18.15825 -21.119175 -17.978563 -19.990269 C -17.6895 -18.16605 -17.611375 -16.334019 -17.775438 -14.505894 C -18.466844 -7.681675 -17.494188 -0.861362 -17.787156 5.970669 C -17.916063 9.080044 -18.400438 9.599575 -21.486375 9.779263 C -27.771531 9.95895 -31.173875 16.33395 -29.111375 21.869106 C -27.451219 27.701138 -21.123094 27.724575 -16.072313 27.580044 C -7.884813 27.498013 0.126906 28.39645 0.0214375 17.744106 C 0.0253437 11.830044 -0.0566875 5.915981 -0.0371563 0.00191875 Z M 0.00190625 0.00191875 " transform="matrix(1,0,0,-1,7827.5645,2267.2402)"/>
<path style=" stroke:none;fill-rule:nonzero;fill:rgb(27.842712%,14.509583%,1.960754%);fill-opacity:1;" d="M 7818.1875 2229.074219 C 7809.535156 2228.597656 7805.144531 2223.230469 7805.207031 2215.886719 C 7804.757812 2198.734375 7830.957031 2197.992188 7831.253906 2215.953125 C 7831.230469 2223.527344 7824.539062 2229.269531 7818.1875 2229.074219 "/>
<path style="fill:none;stroke-width:7;stroke-linecap:butt;stroke-linejoin:miter;stroke:rgb(27.842712%,14.509583%,1.960754%);stroke-opacity:1;stroke-miterlimit:10;" d="M 0 -0.00141875 C -8.652344 0.475144 -13.042969 5.842331 -12.980469 13.186081 C -13.429688 30.338425 12.769531 31.080612 13.066406 13.119675 C 13.042969 5.545456 6.351562 -0.196731 0 -0.00141875 Z M 0 -0.00141875 " transform="matrix(1,0,0,-1,7818.1875,2229.0728)"/>
</svg>
