<?xml version="1.0" encoding="UTF-8"?>
<svg xmlns="http://www.w3.org/2000/svg" width="256" height="256" viewBox="8493.62 1763.62 1083.75 1083.75" preserveAspectRatio="xMidYMid meet">
<path style=" stroke:none;fill-rule:nonzero;fill:rgb(27.842712%,14.509583%,1.960754%);fill-opacity:1;" d="M 9003.316406 2277.261719 C 9003.238281 2276.359375 9002.621094 2275.773438 9002.035156 2275.199219 C 8968.0625 2241.554688 8934.414062 2207.566406 8900.824219 2173.535156 C 8892.152344 2164.75 8889.105469 2152.148438 8887.746094 2140.214844 C 8887.089844 2133.609375 8884.296875 2128.476562 8878.296875 2125.304688 C 8877.414062 2124.839844 8876.589844 2124.261719 8875.746094 2123.734375 C 8864.15625 2116.507812 8852.574219 2109.273438 8840.976562 2102.054688 C 8835.039062 2098.359375 8829.09375 2094.675781 8823.128906 2091.027344 C 8821.085938 2089.777344 8820.390625 2089.84375 8818.726562 2091.464844 C 8816.578125 2093.558594 8814.53125 2095.75 8812.417969 2097.878906 C 8808.542969 2101.78125 8804.628906 2105.644531 8800.777344 2109.566406 C 8799.1875 2111.183594 8799.203125 2111.472656 8800.34375 2113.476562 C 8811.804688 2132.238281 8823.375 2150.9375 8834.96875 2169.613281 C 8839.671875 2177.1875 8845.183594 2176.195312 8852.816406 2177.515625 C 8860.902344 2179.011719 8868.683594 2181.277344 8875.398438 2186.339844 C 8912.535156 2221.203125 8947.460938 2258.492188 8984.101562 2293.90625 C 8985.503906 2295.125 8986.15625 2295.109375 8987.53125 2293.769531 C 8990.515625 2290.867188 8993.441406 2287.898438 8996.394531 2284.964844 C 8998.402344 2282.964844 9000.429688 2280.988281 9002.425781 2278.976562 C 9002.882812 2278.511719 9003.363281 2278.011719 9003.316406 2277.261719 M 9241.695312 2495.304688 C 9241.292969 2486.117188 9238.140625 2476.371094 9230.316406 2468.476562 C 9200.574219 2438.167969 9170.421875 2408.25 9140.523438 2378.09375 C 9138.289062 2375.851562 9136.035156 2373.628906 9133.78125 2371.410156 C 9130.578125 2368.269531 9126.75 2366.476562 9122.292969 2365.882812 C 9119.945312 2365.570312 9117.652344 2365.761719 9115.328125 2365.960938 C 9099.539062 2367.503906 9093.558594 2356.136719 9083.367188 2346.765625 C 9081.96875 2345.648438 9080.609375 2347.394531 9079.613281 2348.273438 C 9071.542969 2356.21875 9063.472656 2364.164062 9055.433594 2372.140625 C 9052.105469 2375.445312 9052.125 2375.898438 9055.539062 2379.363281 C 9063.28125 2387.578125 9071.925781 2392.53125 9071.335938 2405.1875 C 9071.253906 2407.34375 9071.132812 2409.511719 9070.878906 2411.65625 C 9070.167969 2417.65625 9071.796875 2422.605469 9076.214844 2427.007812 C 9109.460938 2459.941406 9142.15625 2493.441406 9175.527344 2526.238281 C 9201.566406 2548.769531 9241.984375 2531 9241.695312 2495.304688 M 9181.839844 2257.71875 C 9239.269531 2259.351562 9281.847656 2209.460938 9273.421875 2154.453125 C 9273.296875 2152.714844 9271.90625 2152.164062 9270.632812 2153.3125 C 9257.679688 2165.550781 9245.636719 2178.726562 9233.09375 2191.382812 C 9225.398438 2199.070312 9214.703125 2202.503906 9204.011719 2202.515625 C 9193.179688 2202.765625 9183.664062 2199.609375 9175.828125 2191.957031 C 9170.226562 2186.492188 9164.601562 2181.042969 9159.128906 2175.445312 C 9147.941406 2164.003906 9145.667969 2150.261719 9149.195312 2135.1875 C 9150.71875 2128.679688 9154.371094 2123.328125 9159.03125 2118.640625 C 9171.925781 2105.40625 9185.414062 2092.710938 9197.988281 2079.175781 C 9198.429688 2078.628906 9198.25 2077.832031 9197.480469 2077.558594 C 9195.101562 2076.714844 9192.601562 2076.5 9190.105469 2076.433594 C 9152.796875 2075.050781 9115.996094 2097.085938 9102.015625 2132.109375 C 9092.605469 2153.699219 9093.515625 2175.363281 9099.886719 2197.59375 C 9100.808594 2201.453125 9099.890625 2204.859375 9097.585938 2207.949219 C 9090.34375 2216.199219 9082.296875 2223.757812 9074.691406 2231.683594 C 8994.996094 2312.195312 8915.34375 2392.761719 8835.542969 2473.167969 C 8827.015625 2481.921875 8823.207031 2492.410156 8825.363281 2504.667969 C 8829.195312 2528.945312 8858.550781 2538.550781 8877.398438 2525.808594 C 8880.769531 2523.566406 8883.539062 2520.707031 8886.34375 2517.867188 C 8946.351562 2457.003906 9006.6875 2396.472656 9066.714844 2335.632812 C 9092.289062 2309.84375 9117.984375 2284.175781 9143.476562 2258.308594 C 9147.871094 2253.992188 9152.988281 2252.507812 9159.042969 2254.046875 C 9167.617188 2256.222656 9176.277344 2257.882812 9181.839844 2257.71875 M 9186.960938 2058.265625 C 9197.015625 2058.367188 9207.105469 2059.753906 9216.792969 2063.011719 C 9224 2065.21875 9226.84375 2074.757812 9221.703125 2081.082031 C 9220.449219 2082.628906 9218.9375 2083.96875 9217.53125 2085.386719 C 9202.628906 2100.410156 9187.738281 2115.4375 9172.816406 2130.441406 C 9170.070312 2133.203125 9167.875 2136.285156 9166.609375 2139.988281 C 9163.894531 2147.949219 9165.304688 2155.3125 9170.8125 2161.453125 C 9176.480469 2167.765625 9182.523438 2173.792969 9188.816406 2179.484375 C 9197.523438 2187.355469 9211.898438 2186.671875 9220.15625 2178.304688 C 9235.371094 2162.882812 9250.535156 2147.417969 9265.65625 2131.910156 C 9268.308594 2129.1875 9271.128906 2127.152344 9275.078125 2126.878906 C 9281.15625 2126.460938 9285.289062 2129.09375 9287.316406 2134.921875 C 9293.398438 2154.398438 9294.226562 2175.277344 9289.414062 2195.105469 C 9279.746094 2235.132812 9245.164062 2267.683594 9204.464844 2274.4375 C 9189.472656 2277.117188 9174.613281 2276.660156 9159.902344 2272.828125 C 9156.875 2272.042969 9154.898438 2272.785156 9152.820312 2274.90625 C 9135.683594 2292.40625 9118.402344 2309.761719 9100.882812 2326.878906 C 9099.34375 2328.402344 9097.875 2329.996094 9096.425781 2331.605469 C 9095.847656 2332.246094 9095.480469 2333.148438 9096.183594 2333.859375 C 9100.515625 2338.230469 9104.863281 2342.59375 9109.300781 2346.863281 C 9110.734375 2348.242188 9112.664062 2348.066406 9114.527344 2347.796875 C 9119.367188 2347.101562 9124.144531 2347.414062 9128.910156 2348.554688 C 9135.386719 2350.109375 9140.980469 2353.101562 9145.714844 2357.855469 C 9177.695312 2389.964844 9209.636719 2422.117188 9241.785156 2454.0625 C 9262.425781 2473.597656 9265.972656 2507.277344 9249.179688 2530.308594 C 9231.054688 2557.480469 9190.566406 2562.132812 9165.515625 2541.671875 C 9151.824219 2529.53125 9139.507812 2515.835938 9126.410156 2503.046875 C 9104.902344 2481.4375 9083.390625 2459.824219 9061.878906 2438.21875 C 9054.378906 2430.476562 9051.835938 2420.976562 9053.125 2410.621094 C 9054.117188 2402.667969 9052.953125 2402.566406 9048.875 2398.308594 C 9046.453125 2395.78125 9043.996094 2393.289062 9041.5 2390.835938 C 9038.835938 2387.75 9036.28125 2391.484375 9034.246094 2393.367188 C 8988.144531 2440.332031 8942.027344 2487.285156 8895.816406 2534.148438 C 8876.46875 2554.167969 8842.425781 2555.464844 8822.265625 2535.820312 C 8800.371094 2515.277344 8802.863281 2479.6875 8820.792969 2462.386719 C 8870.875 2412.324219 8920.226562 2361.53125 8970.132812 2311.296875 C 8972.695312 2308.691406 8972.667969 2308.425781 8970.117188 2305.636719 C 8969.667969 2305.144531 8969.191406 2304.679688 8968.71875 2304.207031 C 8935.238281 2270.769531 8901.742188 2237.339844 8868.289062 2203.871094 C 8865.144531 2200.726562 8861.53125 2198.515625 8857.335938 2197.164062 C 8842.933594 2192.394531 8830.890625 2196.421875 8821.015625 2181.585938 C 8817.527344 2176.308594 8814.296875 2170.859375 8810.980469 2165.46875 C 8801.289062 2149.160156 8790.535156 2133.417969 8781.523438 2116.734375 C 8778.496094 2110.101562 8781.152344 2103.371094 8786.296875 2098.757812 C 8793.667969 2091.285156 8801.210938 2083.972656 8808.363281 2076.296875 C 8814.03125 2070.214844 8822.574219 2069.078125 8829.703125 2073.554688 C 8837.742188 2078.605469 8845.820312 2083.59375 8853.890625 2088.59375 C 8864.9375 2095.429688 8875.996094 2102.25 8887.042969 2109.085938 C 8895.984375 2114.171875 8902.722656 2121.886719 8904.511719 2132.210938 C 8905.855469 2138.886719 8906.175781 2145.824219 8908.613281 2152.238281 C 8909.917969 2155.710938 8911.867188 2158.742188 8914.515625 2161.394531 C 8938.28125 2185.230469 8962.015625 2209.09375 8985.738281 2232.96875 C 8994.898438 2242.1875 9004 2251.464844 9013.148438 2260.695312 C 9016.632812 2264.214844 9016.902344 2264.195312 9020.234375 2260.808594 C 9039.625 2241.082031 9059.011719 2221.359375 9078.402344 2201.632812 C 9079.769531 2200.242188 9081.59375 2198.789062 9080.914062 2196.589844 C 9060.441406 2127.320312 9114.714844 2056.328125 9186.960938 2058.265625 "/>
<path style="fill:none;stroke-width:7;stroke-linecap:butt;stroke-linejoin:miter;stroke:rgb(27.842712%,14.509583%,1.960754%);stroke-opacity:1;stroke-miterlimit:10;" d="M 0.00100625 0.00098125 C -0.0771187 0.903325 -0.694306 1.489263 -1.280244 2.063481 C -35.2529 35.708013 -68.901337 69.696294 -102.491181 103.727544 C -111.163056 112.5127 -114.209931 125.114263 -115.569306 137.047856 C -116.225556 143.653325 -119.018525 148.786138 -125.018525 151.958013 C -125.901337 152.422856 -126.725556 153.000981 -127.569306 153.528325 C -139.15915 160.754888 -150.741181 167.989263 -162.338837 175.208013 C -168.276337 178.903325 -174.22165 182.586919 -180.186494 186.235356 C -182.229462 187.485356 -182.924775 187.41895 -184.588837 185.797856 C -186.737275 183.704106 -188.78415 181.5127 -190.897431 179.383794 C -194.772431 175.48145 -198.686494 171.618169 -202.538056 167.696294 C -204.1279 166.079106 -204.112275 165.790044 -202.97165 163.786138 C -191.510712 145.024419 -179.9404 126.3252 -168.34665 107.649419 C -163.643525 100.0752 -158.131806 101.067388 -150.498994 99.747075 C -142.413056 98.250981 -134.631806 95.985356 -127.916962 90.922856 C -90.780244 56.059575 -55.854462 18.770513 -19.213837 -16.64355 C -17.811494 -17.8623 -17.15915 -17.846675 -15.78415 -16.506831 C -12.799775 -13.604487 -9.873994 -10.635737 -6.920869 -7.702144 C -4.913056 -5.702144 -2.885712 -3.725581 -0.889619 -1.713862 C -0.432587 -1.249019 0.0478813 -0.749019 0.00100625 0.00098125 Z M 238.379913 -218.041987 C 237.977569 -208.854487 234.825225 -199.108394 227.001006 -191.213862 C 197.258819 -160.905269 167.106475 -130.9873 137.208038 -100.83105 C 134.973663 -98.588862 132.719756 -96.366206 130.46585 -94.147456 C 127.262725 -91.006831 123.4346 -89.213862 118.977569 -88.620112 C 116.629913 -88.307612 114.336944 -88.499019 112.012725 -88.698237 C 96.223663 -90.241206 90.243194 -78.874019 80.051788 -69.502925 C 78.65335 -68.385737 77.293975 -70.131831 76.297881 -71.010737 C 68.227569 -78.95605 60.157256 -86.901362 52.118194 -94.877925 C 48.790069 -98.182612 48.8096 -98.635737 52.223663 -102.100581 C 59.96585 -110.315425 68.610381 -115.26855 68.020538 -127.9248 C 67.938506 -130.08105 67.817413 -132.249019 67.563506 -134.39355 C 66.852569 -140.39355 68.481475 -145.342769 72.899444 -149.745112 C 106.145538 -182.678706 138.84085 -216.178706 172.211944 -248.975581 C 198.251006 -271.506831 238.668975 -253.7373 238.379913 -218.041987 Z M 178.524444 19.54395 C 235.954131 17.911138 278.532256 67.801763 270.106475 122.809575 C 269.981475 124.547856 268.59085 125.098638 267.317413 123.9502 C 254.364288 111.711919 242.321319 98.536138 229.77835 85.879888 C 222.083038 78.192388 211.387725 74.758794 200.696319 74.747075 C 189.864288 74.497075 180.348663 77.653325 172.512725 85.305669 C 166.911163 90.770513 161.286163 96.219731 155.813506 101.817388 C 144.626006 113.258794 142.352569 127.000981 145.879913 142.0752 C 147.40335 148.583013 151.055694 153.934575 155.71585 158.622075 C 168.610381 171.85645 182.098663 184.551763 194.672881 198.086919 C 195.114288 198.633794 194.9346 199.430669 194.165069 199.704106 C 191.786163 200.547856 189.286163 200.7627 186.790069 200.829106 C 149.481475 202.211919 112.680694 180.176763 98.700225 145.153325 C 89.290069 123.563481 90.200225 101.899419 96.571319 79.66895 C 97.493194 75.809575 96.575225 72.403325 94.270538 69.313481 C 87.02835 61.063481 78.981475 53.504888 71.376006 45.579106 C -8.319306 -34.932612 -87.97165 -115.499019 -167.772431 -195.905269 C -176.299775 -204.659175 -180.108369 -215.147456 -177.952119 -227.405269 C -174.120087 -251.682612 -144.764619 -261.288081 -125.916962 -248.545894 C -122.545869 -246.303706 -119.776337 -243.444331 -116.97165 -240.604487 C -56.963837 -179.741206 3.3721 -119.209956 63.399444 -58.370112 C 88.973663 -32.58105 114.668975 -6.913081 140.161163 18.954106 C 144.555694 23.270513 149.672881 24.754888 155.727569 23.215825 C 164.301788 21.040044 172.961944 19.379888 178.524444 19.54395 Z M 183.645538 218.997075 C 193.700225 218.895513 203.790069 217.508794 213.477569 214.250981 C 220.6846 212.04395 223.52835 202.504888 218.387725 196.180669 C 217.133819 194.633794 215.6221 193.29395 214.21585 191.875981 C 199.313506 176.852544 184.422881 161.8252 169.501006 146.821294 C 166.754913 144.059575 164.5596 140.977544 163.293975 137.274419 C 160.579131 129.313481 161.989288 121.9502 167.4971 115.809575 C 173.165069 109.497075 179.208038 103.469731 185.501006 97.778325 C 194.208038 89.907231 208.583038 90.590825 216.84085 98.958013 C 232.055694 114.379888 247.219756 129.844731 262.34085 145.352544 C 264.993194 148.0752 267.813506 150.110356 271.762725 150.383794 C 277.84085 150.801763 281.973663 148.16895 284.001006 142.340825 C 290.083038 122.864263 290.911163 101.985356 286.098663 82.157231 C 276.430694 42.129888 241.848663 9.579106 201.149444 2.8252 C 186.157256 0.145513 171.297881 0.602544 156.586944 4.434575 C 153.5596 5.219731 151.583038 4.477544 149.504913 2.35645 C 132.368194 -15.14355 115.086944 -32.499019 97.567413 -49.616206 C 96.02835 -51.139644 94.5596 -52.733394 93.110381 -54.342769 C 92.532256 -54.983394 92.165069 -55.885737 92.868194 -56.596675 C 97.200225 -60.967769 101.547881 -65.33105 105.985381 -69.600581 C 107.418975 -70.979487 109.348663 -70.803706 111.211944 -70.534175 C 116.051788 -69.838862 120.829131 -70.151362 125.594756 -71.291987 C 132.071319 -72.846675 137.665069 -75.838862 142.399444 -80.592769 C 174.379913 -112.702144 206.321319 -144.854487 238.469756 -176.7998 C 259.110381 -196.334956 262.657256 -230.014644 245.864288 -253.045894 C 227.739288 -280.217769 187.251006 -284.870112 162.200225 -264.409175 C 148.508819 -252.26855 136.192413 -238.573237 123.094756 -225.784175 C 101.586944 -204.1748 80.075225 -182.561519 58.563506 -160.95605 C 51.063506 -153.213862 48.520538 -143.713862 49.8096 -133.358394 C 50.801788 -125.405269 49.637725 -125.303706 45.5596 -121.045894 C 43.137725 -118.51855 40.680694 -116.026362 38.1846 -113.573237 C 35.520538 -110.4873 32.96585 -114.221675 30.930694 -116.104487 C -15.170869 -163.069331 -61.288056 -210.022456 -107.498994 -256.885737 C -126.84665 -276.905269 -160.889619 -278.202144 -181.049775 -258.557612 C -202.944306 -238.014644 -200.452119 -202.4248 -182.522431 -185.124019 C -132.4404 -135.061519 -83.088837 -84.26855 -33.182587 -34.034175 C -30.620087 -31.428706 -30.647431 -31.163081 -33.198212 -28.374019 C -33.647431 -27.881831 -34.123994 -27.416987 -34.59665 -26.944331 C -68.077119 6.493169 -101.573212 39.922856 -135.026337 73.391606 C -138.170869 76.536138 -141.78415 78.747075 -145.979462 80.098638 C -160.381806 84.868169 -172.424775 80.840825 -182.299775 95.676763 C -185.788056 100.954106 -189.018525 106.403325 -192.334931 111.79395 C -202.026337 128.102544 -212.780244 143.844731 -221.791962 160.528325 C -224.819306 167.161138 -222.163056 173.891606 -217.018525 178.504888 C -209.647431 185.977544 -202.104462 193.290044 -194.952119 200.965825 C -189.28415 207.047856 -180.741181 208.184575 -173.612275 203.708013 C -165.573212 198.657231 -157.495087 193.66895 -149.424775 188.66895 C -138.3779 181.833013 -127.319306 175.0127 -116.272431 168.176763 C -107.331025 163.090825 -100.592744 155.375981 -98.803681 145.051763 C -97.459931 138.375981 -97.139619 131.438481 -94.702119 125.024419 C -93.397431 121.551763 -91.448212 118.520513 -88.799775 115.868169 C -65.03415 92.032231 -41.299775 68.16895 -17.577119 44.29395 C -8.416962 35.0752 0.6846 25.797856 9.833038 16.567388 C 13.317413 13.047856 13.586944 13.067388 16.918975 16.454106 C 36.3096 36.180669 55.696319 55.903325 75.086944 75.629888 C 76.454131 77.020513 78.27835 78.473638 77.598663 80.672856 C 57.126006 149.942388 111.399444 220.934575 183.645538 218.997075 Z M 183.645538 218.997075 " transform="matrix(1,0,0,-1,9003.3154,2277.2627)"/>
<path style=" stroke:none;fill-rule:nonzero;fill:rgb(27.842712%,14.509583%,1.960754%);fill-opacity:1;" d="M 9211.238281 2496.554688 C 9211.113281 2500.523438 9210.128906 2503.480469 9206.90625 2505.03125 C 9203.703125 2506.578125 9200.425781 2506.460938 9197.402344 2504.460938 C 9169.1875 2477.226562 9141.949219 2448.863281 9114.082031 2421.234375 C 9111.382812 2418.378906 9108.03125 2415.621094 9107.636719 2411.441406 C 9106.757812 2404.527344 9113.191406 2399.671875 9119.675781 2402.3125 C 9121.75 2403.160156 9123.300781 2404.628906 9124.832031 2406.164062 C 9130.816406 2412.175781 9136.8125 2418.179688 9142.792969 2424.195312 C 9164.8125 2446.40625 9186.921875 2468.53125 9208.890625 2490.789062 C 9210.546875 2492.578125 9211.402344 2494.6875 9211.238281 2496.554688 "/>
<path style="fill:none;stroke-width:7;stroke-linecap:butt;stroke-linejoin:miter;stroke:rgb(27.842712%,14.509583%,1.960754%);stroke-opacity:1;stroke-miterlimit:10;" d="M -0.00001875 0.0015125 C -0.125019 -3.967237 -1.109394 -6.924269 -4.33205 -8.47505 C -7.535175 -10.021925 -10.812519 -9.904737 -13.835956 -7.904737 C -42.0508 19.329638 -69.289081 47.692919 -97.156269 75.321825 C -99.855488 78.177294 -103.20705 80.935106 -103.601581 85.114794 C -104.480488 92.028856 -98.046894 96.884325 -91.562519 94.2437 C -89.4883 93.396044 -87.937519 91.927294 -86.406269 90.392138 C -80.421894 84.380419 -74.4258 78.376513 -68.445331 72.360888 C -46.4258 50.14995 -24.316425 28.02495 -2.347675 5.767138 C -0.691425 3.978075 0.164044 1.8687 -0.00001875 0.0015125 Z M -0.00001875 0.0015125 " transform="matrix(1,0,0,-1,9211.2383,2496.5562)"/>
</svg>
