<?xml version="1.0" encoding="UTF-8"?>
<svg xmlns="http://www.w3.org/2000/svg" width="256" height="256" viewBox="9852.97 1947.97 730.07 730.07" preserveAspectRatio="xMidYMid meet">
<path style=" stroke:none;fill-rule:nonzero;fill:rgb(27.842712%,14.509583%,1.960754%);fill-opacity:1;" d="M 10122.773438 2294.945312 L 10122.917969 2294.945312 C 10122.917969 2282.789062 10122.917969 2270.636719 10122.921875 2258.480469 C 10122.921875 2252.207031 10122.851562 2252.96875 10117.992188 2250.546875 C 10106.222656 2244.6875 10094.382812 2238.976562 10082.5625 2233.21875 C 10080.769531 2232.34375 10078.960938 2231.488281 10077.128906 2230.695312 C 10076.027344 2230.222656 10075.132812 2230.777344 10075.015625 2231.976562 C 10074.585938 2254.605469 10074.882812 2277.265625 10074.734375 2299.90625 C 10074.730469 2303.066406 10074.789062 2306.234375 10074.96875 2309.390625 C 10075.183594 2313.15625 10075.839844 2313.972656 10079.523438 2314.886719 C 10083.394531 2315.847656 10087.3125 2316.644531 10091.21875 2317.453125 C 10097.703125 2318.796875 10103.558594 2321.394531 10108.488281 2325.910156 C 10111.933594 2329.046875 10115.484375 2332.078125 10119.171875 2334.925781 C 10120.019531 2335.496094 10122.089844 2336.917969 10122.503906 2335.371094 C 10123.199219 2321.933594 10122.566406 2308.414062 10122.773438 2294.945312 M 10369.949219 2118.625 C 10368.042969 2116.785156 10365.542969 2115.820312 10363.179688 2114.703125 C 10349.804688 2108.347656 10336.324219 2102.222656 10322.933594 2095.898438 C 10321.140625 2095.023438 10319.460938 2094.910156 10317.695312 2095.84375 C 10316.960938 2096.230469 10316.1875 2096.550781 10315.441406 2096.917969 C 10307.984375 2100.605469 10300.539062 2104.320312 10293.066406 2107.976562 C 10223.683594 2141.84375 10154.3125 2175.738281 10085.5625 2210.871094 C 10083.328125 2212.347656 10086.503906 2213.726562 10087.816406 2214.367188 C 10101.558594 2221.109375 10115.335938 2227.796875 10129.03125 2234.636719 C 10131.53125 2235.882812 10133.585938 2235.835938 10136.050781 2234.582031 C 10212.769531 2196.757812 10289.320312 2158.582031 10366.339844 2121.367188 C 10367.632812 2120.738281 10369.222656 2120.445312 10369.949219 2118.625 M 10459.796875 2161.96875 C 10459.667969 2161.605469 10459.648438 2161.175781 10459.429688 2161.015625 C 10458.636719 2160.429688 10457.824219 2159.835938 10456.9375 2159.417969 C 10436.941406 2150.328125 10417.121094 2140.84375 10397.253906 2131.472656 C 10394.375 2130.105469 10391.871094 2129.730469 10388.789062 2131.269531 C 10345.726562 2152.699219 10302.429688 2173.65625 10259.28125 2194.910156 C 10226.160156 2211.296875 10193.007812 2227.617188 10159.980469 2244.183594 C 10158.65625 2244.851562 10157.410156 2245.6875 10156.195312 2246.539062 C 10155.3125 2247.386719 10156.777344 2248.324219 10157.507812 2248.65625 C 10177.871094 2258.910156 10198.421875 2268.832031 10218.699219 2279.234375 C 10221.414062 2280.78125 10223.917969 2281.074219 10226.628906 2279.292969 C 10228.152344 2278.292969 10229.863281 2277.574219 10231.5 2276.757812 C 10305.40625 2239.941406 10379.171875 2202.851562 10453.15625 2166.191406 C 10455.089844 2165.230469 10456.957031 2164.125 10458.820312 2163.03125 C 10459.222656 2162.792969 10459.488281 2162.316406 10459.796875 2161.96875 M 10218.195312 2047.796875 C 10213.292969 2047.820312 10209.546875 2049.171875 10205.910156 2050.882812 C 10131.410156 2086.097656 10057.347656 2122.242188 9982.839844 2157.441406 C 9981.640625 2158.015625 9980.460938 2158.632812 9979.34375 2159.347656 C 9978.671875 2159.78125 9978.691406 2160.558594 9979.335938 2160.984375 C 10002.152344 2172.980469 10025.699219 2183.644531 10048.777344 2195.152344 C 10052.667969 2197.046875 10056.613281 2198.835938 10060.476562 2200.78125 C 10061.996094 2201.542969 10063.316406 2201.546875 10064.691406 2200.605469 C 10065.101562 2200.320312 10065.554688 2200.101562 10065.984375 2199.851562 C 10123.953125 2168.464844 10183.851562 2140.707031 10242.777344 2111.15625 C 10260.578125 2102.113281 10278.988281 2094.195312 10296.492188 2084.613281 C 10297.148438 2084.195312 10297.140625 2083.457031 10296.511719 2082.960938 C 10296.003906 2082.554688 10295.382812 2082.273438 10294.789062 2081.988281 C 10271.5625 2071.136719 10248.59375 2059.71875 10225.203125 2049.234375 C 10222.710938 2048.179688 10220.0625 2047.898438 10218.195312 2047.796875 M 10231.976562 2437.390625 L 10231.953125 2437.390625 C 10231.949219 2481.710938 10231.992188 2526.03125 10231.8125 2570.347656 C 10231.8125 2571.515625 10231.796875 2572.683594 10231.863281 2573.847656 C 10232.019531 2576.664062 10232.792969 2577.210938 10235.238281 2576.199219 C 10300.765625 2543.046875 10366.128906 2509.539062 10431.664062 2476.394531 C 10439.683594 2472.324219 10447.683594 2468.210938 10455.773438 2464.289062 C 10461.660156 2461.4375 10464.558594 2457.011719 10464.417969 2450.40625 C 10464.785156 2393.9375 10464.554688 2337.4375 10464.4375 2280.957031 C 10464.324219 2248.804688 10464.554688 2216.644531 10464.277344 2184.492188 C 10464.078125 2181.601562 10461.007812 2183.671875 10459.539062 2184.308594 C 10412.332031 2207.558594 10365.492188 2231.542969 10318.292969 2254.816406 C 10291.054688 2268.480469 10263.890625 2282.292969 10236.464844 2295.578125 C 10233.101562 2297.203125 10231.835938 2299.308594 10231.976562 2302.933594 C 10232.046875 2347.742188 10231.933594 2392.574219 10231.976562 2437.390625 M 10213.660156 2438.921875 L 10213.722656 2438.921875 C 10213.707031 2393.953125 10213.824219 2348.980469 10213.867188 2304.011719 C 10213.726562 2299.507812 10214.265625 2297.585938 10209.402344 2295.691406 C 10187.398438 2284.996094 10165.769531 2273.492188 10143.523438 2263.320312 C 10142.277344 2262.792969 10141.484375 2263.25 10141.414062 2264.492188 C 10140.914062 2291.117188 10141.875 2317.820312 10141.097656 2344.421875 C 10140.285156 2350.085938 10137.578125 2354.375 10131.949219 2356.484375 C 10120.257812 2360.886719 10106.3125 2349.65625 10098.351562 2341.949219 C 10094.664062 2338.285156 10090.347656 2336.066406 10085.179688 2335.492188 C 10080.394531 2334.878906 10075.648438 2333.832031 10071.132812 2332.113281 C 10061.554688 2328.375 10056.160156 2320.40625 10056.164062 2310.128906 C 10056.167969 2282.148438 10056.179688 2254.164062 10056.160156 2226.183594 C 10056.15625 2220.195312 10056.824219 2220.621094 10050.71875 2217.542969 C 10025.117188 2205.117188 9999.640625 2192.402344 9973.972656 2180.113281 C 9972.332031 2179.464844 9971.558594 2180.011719 9971.40625 2181.890625 C 9971.351562 2182.554688 9971.359375 2183.222656 9971.351562 2183.890625 C 9970.917969 2269 9971.324219 2354.117188 9971.214844 2439.230469 C 9971.214844 2443.226562 9971.296875 2447.222656 9971.378906 2451.222656 C 9971.460938 2455.238281 9973.367188 2458.175781 9976.816406 2460.148438 C 10053.542969 2498.769531 10130.195312 2537.542969 10206.863281 2576.285156 C 10208.199219 2576.960938 10209.566406 2577.582031 10210.964844 2578.113281 C 10212.597656 2578.734375 10213.453125 2578.175781 10213.628906 2576.320312 C 10214.042969 2530.535156 10213.433594 2484.71875 10213.660156 2438.921875 M 9953.050781 2310.070312 C 9953.035156 2262.597656 9953.101562 2215.109375 9952.996094 2167.644531 C 9953.320312 2160.25 9955.515625 2153.582031 9961.011719 2148.300781 C 9963.195312 2146.199219 9965.667969 2144.574219 9968.40625 2143.261719 C 10002.03125 2127.140625 10035.625 2110.945312 10069.265625 2094.851562 C 10112.875 2074.128906 10156.417969 2053.253906 10200.089844 2032.664062 C 10211.207031 2027.5 10222.683594 2027.117188 10233.964844 2032.152344 C 10301.1875 2063.664062 10368.058594 2095.953125 10434.964844 2128.148438 C 10445.324219 2133.109375 10455.703125 2138.027344 10466.101562 2142.902344 C 10484.175781 2150.675781 10483.386719 2165.914062 10483 2182.847656 C 10482.992188 2272.632812 10482.835938 2362.425781 10482.933594 2452.207031 C 10482.789062 2461.667969 10479.339844 2469.703125 10472.308594 2476.144531 C 10470.070312 2478.199219 10467.503906 2479.707031 10464.820312 2481.0625 C 10392.203125 2517.851562 10319.476562 2554.433594 10247.214844 2591.914062 C 10232.691406 2599.789062 10214.714844 2601.53125 10199.65625 2594.171875 C 10173.3125 2580.964844 10146.988281 2567.71875 10120.699219 2554.410156 C 10070.632812 2529.089844 10020.703125 2503.507812 9970.507812 2478.449219 C 9961.367188 2473.90625 9955.578125 2466.960938 9953.578125 2456.949219 C 9952.175781 2408.074219 9953.511719 2359.003906 9953.0625 2310.070312 Z M 9953.050781 2310.070312 "/>
<path style=" stroke:none;fill-rule:nonzero;fill:rgb(27.842712%,14.509583%,1.960754%);fill-opacity:1;" d="M 10402.460938 2366.097656 L 10402.621094 2366.097656 C 10402.539062 2357.773438 10402.835938 2349.4375 10402.410156 2341.125 C 10402.339844 2339.976562 10401.632812 2339.25 10400.515625 2339.167969 C 10399.027344 2339.054688 10397.523438 2339.050781 10396.027344 2339.109375 C 10382.292969 2339.820312 10368.800781 2336.996094 10355.882812 2332.519531 C 10353.714844 2331.808594 10352.125 2332.195312 10350.511719 2333.84375 C 10347.605469 2336.820312 10344.535156 2339.640625 10341.464844 2342.449219 C 10330.351562 2352.597656 10318.46875 2361.664062 10304.855469 2368.273438 C 10300.464844 2370.582031 10300.03125 2370.824219 10300.210938 2375.949219 C 10300.222656 2387.773438 10300.292969 2399.597656 10300.222656 2411.425781 C 10300.1875 2417.671875 10301.351562 2423.6875 10303.339844 2429.550781 C 10309.589844 2449 10328.542969 2458.964844 10347.46875 2462.597656 C 10350.144531 2463.191406 10352.277344 2462.476562 10354.449219 2460.933594 C 10361.675781 2455.800781 10368.234375 2449.902344 10374.46875 2443.644531 C 10390.457031 2427.613281 10402.433594 2406.199219 10402.464844 2383.089844 C 10402.457031 2377.425781 10402.460938 2371.761719 10402.460938 2366.097656 M 10421.058594 2357.980469 C 10421.058594 2364.808594 10421.007812 2371.636719 10421.066406 2378.464844 C 10422.132812 2420.300781 10395.140625 2455.953125 10361.851562 2478.625 C 10357.644531 2481.605469 10353.105469 2482.757812 10348.167969 2482.070312 C 10315.859375 2478.683594 10285.171875 2455.476562 10282.421875 2421.441406 C 10281.222656 2404.335938 10282.050781 2387.136719 10281.808594 2370 C 10281.875 2364.761719 10282.058594 2359.765625 10287.03125 2356.777344 C 10304.886719 2347.847656 10321.359375 2336.988281 10335.339844 2322.636719 C 10341.765625 2316.671875 10347.074219 2307.988281 10357.011719 2312.433594 C 10367.183594 2316.917969 10377.933594 2318.980469 10388.890625 2320.230469 C 10395.875 2321.148438 10402.839844 2319.839844 10409.785156 2319.144531 C 10418.132812 2318.132812 10421.832031 2325.46875 10421.125 2332.5 C 10421.132812 2340.992188 10421.128906 2349.488281 10421.128906 2357.980469 Z M 10421.058594 2357.980469 "/>
<path style=" stroke:none;fill-rule:nonzero;fill:rgb(27.842712%,14.509583%,1.960754%);fill-opacity:1;" d="M 10388.976562 2378.644531 C 10388.75 2381.167969 10387.578125 2383.480469 10385.714844 2385.507812 C 10380.988281 2390.648438 10376.308594 2395.839844 10371.574219 2400.972656 C 10364.597656 2408.324219 10357.945312 2416.039062 10350.707031 2423.117188 C 10346.246094 2426.96875 10340.183594 2426.710938 10335.527344 2423.246094 C 10330.78125 2419.597656 10326.042969 2415.9375 10321.308594 2412.273438 C 10319.542969 2410.910156 10318.300781 2409.1875 10317.804688 2406.976562 C 10315.789062 2399.46875 10322.703125 2393.207031 10329.976562 2395.835938 C 10331.570312 2396.34375 10332.921875 2397.320312 10334.183594 2398.445312 C 10336.292969 2400.324219 10338.449219 2402.160156 10340.660156 2403.921875 C 10342.15625 2405.113281 10342.808594 2405.050781 10344.078125 2403.691406 C 10347.707031 2399.800781 10351.304688 2395.878906 10354.894531 2391.949219 C 10360.386719 2385.929688 10365.859375 2379.890625 10371.347656 2373.863281 C 10372.699219 2372.382812 10374.167969 2371.050781 10376.027344 2370.199219 C 10381.714844 2367.59375 10388.988281 2372.195312 10388.976562 2378.644531 "/>
</svg>
