<?xml version="1.0" encoding="UTF-8"?>
<svg xmlns="http://www.w3.org/2000/svg" width="256" height="256" viewBox="12856.58 780.58 906.83 906.83" preserveAspectRatio="xMidYMid meet">
<path style=" stroke:none;fill-rule:nonzero;fill:rgb(27.842712%,14.509583%,1.960754%);fill-opacity:1;" d="M 13679.078125 1316.746094 L 13679.070312 1316.746094 C 13679.070312 1311.660156 13679.09375 1306.578125 13679.0625 1301.496094 C 13679.046875 1299.269531 13678.75 1298.992188 13676.589844 1298.464844 C 13674.761719 1298.019531 13672.945312 1298.207031 13671.125 1298.445312 C 13666.777344 1299.019531 13664.574219 1301.355469 13664.476562 1305.742188 C 13664.308594 1313.242188 13664.25 1320.738281 13664.484375 1328.238281 C 13664.515625 1329.324219 13664.554688 1330.410156 13664.917969 1331.445312 C 13665.535156 1333.210938 13666.640625 1334.59375 13668.570312 1334.804688 C 13671.472656 1335.125 13674.394531 1334.996094 13677.308594 1334.789062 C 13679.335938 1334.6875 13679.023438 1332.445312 13679.074219 1330.992188 C 13679.082031 1326.242188 13679.078125 1321.496094 13679.078125 1316.746094 M 13555.070312 1435.9375 C 13582.847656 1436.417969 13605.191406 1414.824219 13605.421875 1387.242188 C 13603.527344 1321.957031 13510.152344 1320.71875 13506.566406 1385.710938 C 13505.945312 1414.335938 13529.699219 1436.175781 13555.070312 1435.9375 M 13207.84375 1435.941406 C 13233.597656 1436.511719 13257.023438 1416.75 13257.839844 1387.960938 C 13257.042969 1322 13162.898438 1320.675781 13159.09375 1385.109375 C 13158 1414.730469 13182.386719 1436.207031 13207.84375 1435.941406 M 13477.363281 1242.785156 L 13477.453125 1242.785156 C 13477.480469 1283.03125 13477.40625 1323.285156 13477.476562 1363.527344 C 13477.566406 1365.460938 13477.984375 1365.90625 13479.882812 1365.957031 C 13483.046875 1366.046875 13486.214844 1366.007812 13489.378906 1366.0625 C 13491.023438 1366.09375 13491.917969 1365.359375 13492.507812 1363.796875 C 13500.738281 1341.476562 13520.777344 1324.042969 13544.414062 1320.222656 C 13578.59375 1313.664062 13612.773438 1336.855469 13621.117188 1370.324219 C 13621.636719 1372.378906 13623.808594 1372.21875 13625.503906 1372.191406 C 13638.917969 1371.894531 13652.335938 1372.191406 13665.75 1372.109375 C 13674.410156 1371.816406 13679.859375 1364.34375 13679.046875 1356.042969 C 13679.023438 1353.15625 13678.730469 1352.742188 13675.789062 1352.515625 C 13670.601562 1352.199219 13665.144531 1353.15625 13660.257812 1350.894531 C 13651.53125 1347.027344 13647.074219 1340.070312 13646.574219 1330.761719 C 13646.074219 1321.527344 13646.257812 1312.257812 13646.660156 1303.019531 C 13647.191406 1290.953125 13655.675781 1282.230469 13667.644531 1281.207031 C 13670.460938 1280.96875 13673.304688 1281.0625 13676.136719 1280.960938 C 13678.761719 1280.867188 13679.140625 1280.476562 13679.125 1277.828125 C 13679.058594 1267.082031 13679.015625 1256.332031 13678.882812 1245.585938 C 13678.8125 1240.25 13677.554688 1235.273438 13674.640625 1230.65625 C 13653.648438 1197.125 13632.726562 1163.546875 13611.777344 1129.984375 C 13607.390625 1122.914062 13601.144531 1119.449219 13592.875 1119.46875 C 13555.125 1119.511719 13517.378906 1119.285156 13479.632812 1119.402344 C 13478.371094 1119.417969 13477.546875 1119.953125 13477.46875 1121.296875 C 13477.171875 1161.789062 13477.460938 1202.292969 13477.363281 1242.785156 M 13279.871094 1015.074219 C 13336.453125 1015.167969 13393.042969 1014.890625 13449.617188 1015.179688 C 13460.675781 1015.699219 13468.921875 1020.796875 13474.285156 1030.5 C 13475.96875 1033.546875 13476.796875 1036.851562 13477.074219 1040.285156 C 13477.765625 1058.679688 13477.160156 1077.117188 13477.347656 1095.527344 C 13477.34375 1096.609375 13477.332031 1097.695312 13477.421875 1098.773438 C 13477.585938 1100.730469 13477.957031 1101.078125 13479.847656 1101.199219 C 13480.515625 1101.238281 13481.183594 1101.21875 13481.847656 1101.21875 C 13517.765625 1101.203125 13553.679688 1101.199219 13589.597656 1101.148438 C 13595.128906 1101.140625 13600.574219 1101.496094 13605.878906 1103.253906 C 13614.992188 1106.28125 13621.777344 1112.238281 13626.835938 1120.1875 C 13648.433594 1154.902344 13670.800781 1189.179688 13691.695312 1224.3125 C 13694.808594 1230.335938 13696.632812 1236.679688 13696.722656 1243.472656 C 13696.984375 1277.46875 13696.78125 1311.46875 13696.820312 1345.46875 C 13696.816406 1350.300781 13696.832031 1355.140625 13696.648438 1359.96875 C 13696.03125 1376.078125 13684.644531 1388.019531 13669.539062 1389.671875 C 13665.386719 1390.128906 13661.21875 1390.0625 13657.054688 1390.078125 C 13646.636719 1390.179688 13636.21875 1389.925781 13625.804688 1390.175781 C 13623.078125 1390.320312 13622.785156 1390.640625 13622.535156 1393.449219 C 13620.785156 1420.90625 13599.421875 1445.9375 13572.621094 1452.027344 C 13530.988281 1462.816406 13489.429688 1431.625 13488.839844 1388.460938 C 13488.722656 1384.058594 13488.675781 1384.046875 13484.320312 1384.046875 C 13417.238281 1383.996094 13350.15625 1384.035156 13283.074219 1384.078125 C 13281.238281 1384.078125 13279.40625 1384.125 13277.574219 1384.121094 C 13275.261719 1383.957031 13275.609375 1386.558594 13275.515625 1388.140625 C 13275.65625 1418.773438 13252.542969 1447.152344 13222.335938 1452.59375 C 13188.824219 1460.472656 13152.695312 1439.175781 13143.832031 1405.734375 C 13142.148438 1399.601562 13141.117188 1393.382812 13141.046875 1387.007812 C 13141.015625 1384.359375 13140.679688 1384.054688 13137.929688 1384.054688 C 13128.765625 1384.050781 13119.597656 1384.125 13110.433594 1384.058594 C 13105.460938 1384.023438 13100.65625 1383.074219 13096.242188 1380.636719 C 13086.035156 1375.398438 13080.941406 1364.8125 13081.222656 1353.539062 C 13081.226562 1336.121094 13081.210938 1318.707031 13081.191406 1301.289062 C 13080.8125 1295.011719 13084.765625 1289.34375 13091.527344 1290.433594 C 13096.3125 1291.230469 13099.171875 1294.421875 13099.324219 1299.375 C 13099.464844 1317.957031 13099.242188 1336.542969 13099.347656 1355.125 C 13099.34375 1360.960938 13103.914062 1365.921875 13110.035156 1365.929688 C 13120.535156 1365.992188 13131.042969 1365.886719 13141.535156 1366.039062 C 13143.375 1366.144531 13144.515625 1365.390625 13145.175781 1363.679688 C 13146.371094 1360.574219 13147.59375 1357.484375 13149.21875 1354.554688 C 13166.050781 1321.847656 13209.777344 1309.078125 13241.425781 1328.042969 C 13255.65625 1336.128906 13265.648438 1347.90625 13271.4375 1363.230469 C 13272.488281 1366.019531 13272.5 1366.023438 13275.621094 1366.023438 C 13335.621094 1366.019531 13395.621094 1365.886719 13455.621094 1365.976562 C 13459.078125 1365.976562 13459.359375 1365.703125 13459.359375 1362.328125 C 13459.203125 1256.164062 13459.566406 1149.992188 13459.179688 1043.832031 C 13458.984375 1037.734375 13455.351562 1034.152344 13449.234375 1033.886719 C 13338.574219 1033.242188 13227.90625 1033.695312 13117.242188 1033.785156 C 13114.742188 1033.789062 13112.242188 1033.839844 13109.742188 1033.886719 C 13103.457031 1034.007812 13099.597656 1037.699219 13099.382812 1043.984375 C 13098.949219 1056.730469 13099.304688 1069.480469 13099.347656 1082.226562 C 13099.125 1087.242188 13100.4375 1094.179688 13095.175781 1097.066406 C 13091.792969 1098.953125 13088.308594 1098.859375 13084.949219 1096.90625 C 13081.792969 1095.070312 13081.308594 1090.921875 13081.234375 1087.582031 C 13081.246094 1072.832031 13080.949219 1058.078125 13081.339844 1043.335938 C 13081.765625 1027.253906 13093.398438 1015.628906 13109.625 1015.207031 C 13166.367188 1014.816406 13223.125 1015.195312 13279.871094 1015.070312 Z M 13279.871094 1015.074219 "/>
<path style="fill:none;stroke-width:7;stroke-linecap:butt;stroke-linejoin:miter;stroke:rgb(27.842712%,14.509583%,1.960754%);stroke-opacity:1;stroke-miterlimit:10;" d="M 0.001025 -0.00149375 L -0.0067875 -0.00149375 C -0.0067875 5.084444 0.01665 10.166475 -0.0146 15.248506 C -0.030225 17.475069 -0.3271 17.752412 -2.487256 18.279756 C -4.315381 18.725069 -6.131787 18.537569 -7.9521 18.299287 C -12.299756 17.725069 -14.502881 15.389131 -14.600537 11.002412 C -14.768506 3.502412 -14.8271 -3.993681 -14.592725 -11.493681 C -14.561475 -12.579619 -14.522412 -13.665556 -14.159131 -14.700713 C -13.541944 -16.466338 -12.436475 -17.84915 -10.506787 -18.060088 C -7.604444 -18.3804 -4.682569 -18.251494 -1.768506 -18.044463 C 0.258838 -17.9429 -0.0536625 -15.700713 -0.00288125 -14.247588 C 0.00493125 -9.497588 0.001025 -4.751494 0.001025 -0.00149375 Z M -124.006787 -119.1929 C -96.229444 -119.673369 -73.885694 -98.079619 -73.655225 -70.497588 C -75.549756 -5.212431 -168.924756 -3.97415 -172.510694 -68.966338 C -173.131787 -97.591338 -149.377881 -119.431181 -124.006787 -119.1929 Z M -471.23335 -119.196806 C -445.479444 -119.767119 -422.053662 -100.0054 -421.237256 -71.216338 C -422.034131 -5.2554 -516.178662 -3.931181 -519.98335 -68.364775 C -521.0771 -97.985869 -496.690381 -119.462431 -471.23335 -119.196806 Z M -201.713819 73.959444 L -201.623975 73.959444 C -201.596631 33.71335 -201.67085 -6.540556 -201.600537 -46.782744 C -201.510694 -48.716338 -201.092725 -49.16165 -199.194287 -49.212431 C -196.030225 -49.302275 -192.862256 -49.263213 -189.698194 -49.3179 C -188.053662 -49.34915 -187.159131 -48.614775 -186.569287 -47.052275 C -178.338819 -24.731963 -158.299756 -7.298369 -134.663037 -3.478056 C -100.48335 3.080537 -66.303662 -20.110869 -57.959912 -53.579619 C -57.440381 -55.634306 -55.268506 -55.47415 -53.573194 -55.446806 C -40.159131 -55.149931 -26.741162 -55.446806 -13.3271 -55.364775 C -4.666944 -55.071806 0.782275 -47.59915 -0.030225 -39.298369 C -0.0536625 -36.41165 -0.346631 -35.997588 -3.288037 -35.771025 C -8.475537 -35.454619 -13.932569 -36.41165 -18.819287 -34.149931 C -27.54585 -30.282744 -32.002881 -23.325713 -32.502881 -14.017119 C -33.002881 -4.782744 -32.819287 4.486787 -32.416944 13.725069 C -31.885694 25.791475 -23.401319 34.514131 -11.432569 35.537569 C -8.616162 35.77585 -5.772412 35.6821 -2.940381 35.783662 C -0.315381 35.877412 0.063525 36.268037 0.0479 38.916475 C -0.0185062 49.662569 -0.061475 60.412569 -0.194287 71.158662 C -0.2646 76.4946 -1.522412 81.471162 -4.436475 86.08835 C -25.428662 119.6196 -46.350537 153.197725 -67.299756 186.760225 C -71.686475 193.830537 -77.932569 197.295381 -86.2021 197.27585 C -123.9521 197.232881 -161.698194 197.459444 -199.444287 197.342256 C -200.706006 197.326631 -201.530225 196.791475 -201.60835 195.447725 C -201.905225 154.955537 -201.616162 114.451631 -201.713819 73.959444 Z M -399.206006 301.670381 C -342.623975 301.576631 -286.034131 301.853975 -229.459912 301.564912 C -218.401319 301.045381 -210.155225 295.947725 -204.791944 286.2446 C -203.10835 283.197725 -202.280225 279.893037 -202.002881 276.459444 C -201.311475 258.064912 -201.916944 239.627412 -201.729444 221.217256 C -201.73335 220.135225 -201.745069 219.049287 -201.655225 217.971162 C -201.491162 216.014131 -201.120069 215.666475 -199.229444 215.545381 C -198.561475 215.506319 -197.893506 215.52585 -197.229444 215.52585 C -161.311475 215.541475 -125.397412 215.545381 -89.479444 215.596162 C -83.948194 215.603975 -78.502881 215.248506 -73.198194 213.490694 C -64.084912 210.46335 -57.299756 204.506319 -52.241162 196.5571 C -30.643506 161.842256 -8.276319 127.564912 12.618213 92.4321 C 15.731494 86.408662 17.555713 80.064912 17.645556 73.271944 C 17.907275 39.27585 17.70415 5.27585 17.743213 -28.72415 C 17.739306 -33.556181 17.754931 -38.396025 17.571338 -43.22415 C 16.95415 -59.333525 5.567431 -71.274931 -9.538037 -72.927275 C -13.690381 -73.384306 -17.85835 -73.3179 -22.022412 -73.333525 C -32.440381 -73.435088 -42.85835 -73.181181 -53.272412 -73.431181 C -55.998975 -73.575713 -56.291944 -73.896025 -56.541944 -76.704619 C -58.291944 -104.16165 -79.655225 -129.1929 -106.456006 -135.282744 C -148.088819 -146.071806 -189.647412 -114.8804 -190.237256 -71.716338 C -190.354444 -67.313994 -190.401319 -67.302275 -194.756787 -67.302275 C -261.838819 -67.251494 -328.92085 -67.290556 -396.002881 -67.333525 C -397.838819 -67.333525 -399.67085 -67.3804 -401.502881 -67.376494 C -403.815381 -67.212431 -403.467725 -69.813994 -403.561475 -71.396025 C -403.42085 -102.028838 -426.534131 -130.407744 -456.741162 -135.84915 C -490.252881 -143.728056 -526.381787 -122.431181 -535.245069 -88.989775 C -536.928662 -82.856963 -537.959912 -76.638213 -538.030225 -70.263213 C -538.061475 -67.614775 -538.397412 -67.310088 -541.147412 -67.310088 C -550.311475 -67.306181 -559.479444 -67.3804 -568.643506 -67.313994 C -573.616162 -67.278838 -578.42085 -66.329619 -582.834912 -63.892119 C -593.041944 -58.653838 -598.135694 -48.0679 -597.854444 -36.794463 C -597.850537 -19.376494 -597.866162 -1.962431 -597.885694 15.455537 C -598.2646 21.732881 -594.311475 27.40085 -587.549756 26.311006 C -582.7646 25.514131 -579.905225 22.322725 -579.752881 17.3696 C -579.612256 -1.212431 -579.834912 -19.798369 -579.729444 -38.3804 C -579.73335 -44.216338 -575.163037 -49.177275 -569.041944 -49.185088 C -558.541944 -49.247588 -548.034131 -49.142119 -537.541944 -49.294463 C -535.7021 -49.399931 -534.561475 -48.646025 -533.901319 -46.935088 C -532.706006 -43.829619 -531.48335 -40.739775 -529.85835 -37.810088 C -513.026319 -5.103056 -469.299756 7.666475 -437.651319 -11.298369 C -423.42085 -19.384306 -413.428662 -31.16165 -407.6396 -46.485869 C -406.588819 -49.274931 -406.5771 -49.278838 -403.456006 -49.278838 C -343.456006 -49.274931 -283.456006 -49.142119 -223.456006 -49.231963 C -219.998975 -49.231963 -219.717725 -48.958525 -219.717725 -45.583525 C -219.873975 60.580537 -219.510694 166.752412 -219.897412 272.912569 C -220.092725 279.010225 -223.725537 282.592256 -229.842725 282.857881 C -340.502881 283.502412 -451.17085 283.049287 -561.834912 282.959444 C -564.334912 282.955537 -566.834912 282.904756 -569.334912 282.857881 C -575.620069 282.736787 -579.479444 279.045381 -579.694287 272.760225 C -580.127881 260.014131 -579.772412 247.264131 -579.729444 234.518037 C -579.9521 229.502412 -578.6396 222.564912 -583.901319 219.678194 C -587.284131 217.791475 -590.768506 217.885225 -594.127881 219.83835 C -597.284131 221.674287 -597.768506 225.822725 -597.842725 229.162569 C -597.831006 243.912569 -598.127881 258.666475 -597.737256 273.408662 C -597.311475 289.490694 -585.678662 301.115694 -569.4521 301.537569 C -512.709912 301.928194 -455.9521 301.549287 -399.206006 301.674287 Z M -399.206006 301.670381 " transform="matrix(1,0,0,-1,13679.0771,1316.7446)"/>
<path style=" stroke:none;fill-rule:nonzero;fill:rgb(27.842712%,14.509583%,1.960754%);fill-opacity:1;" d="M 13031.921875 1202.105469 C 12988.097656 1201.886719 12960.9375 1202.539062 12930.304688 1201.871094 C 12924.492188 1200.90625 12922.484375 1194.542969 12924.425781 1189.5 C 12926.152344 1184.382812 12932.207031 1184.09375 12936.785156 1184.082031 C 12951.527344 1184.117188 12966.273438 1184.160156 12981.015625 1184.160156 C 13022.785156 1184.652344 13064.730469 1183.339844 13106.414062 1184.535156 C 13110.777344 1185.738281 13113.441406 1189.363281 13113.15625 1193.8125 C 13112.882812 1198.082031 13109.578125 1201.597656 13105.207031 1202.117188 C 13078.410156 1202.34375 13045.898438 1201.949219 13031.921875 1202.105469 "/>
<path style="fill:none;stroke-width:7;stroke-linecap:butt;stroke-linejoin:miter;stroke:rgb(27.842712%,14.509583%,1.960754%);stroke-opacity:1;stroke-miterlimit:10;" d="M -0.000025 0.00093125 C -43.824244 0.219681 -70.9844 -0.432663 -101.617212 0.235306 C -107.429712 1.20015 -109.437525 7.563431 -107.496119 12.6064 C -105.769556 17.723587 -99.714869 18.01265 -95.136744 18.024369 C -80.394556 17.989212 -65.648462 17.946244 -50.906275 17.946244 C -9.136744 17.454056 32.808569 18.766556 74.492163 17.571244 C 78.855444 16.368119 81.519506 12.743119 81.23435 8.2939 C 80.960913 4.024369 77.656225 0.508744 73.285131 -0.0107875 C 46.488256 -0.23735 13.976538 0.157181 -0.000025 0.00093125 Z M -0.000025 0.00093125 " transform="matrix(1,0,0,-1,13031.9219,1202.1064)"/>
<path style="fill-rule:nonzero;fill:rgb(27.842712%,14.509583%,1.960754%);fill-opacity:1;stroke-width:7;stroke-linecap:butt;stroke-linejoin:miter;stroke:rgb(27.842712%,14.509583%,1.960754%);stroke-opacity:1;stroke-miterlimit:10;" d="M 0.001025 0.00191875 C -27.229444 0.275356 -54.541944 -0.544956 -81.729444 0.306606 C -90.971631 2.150356 -91.588819 14.849575 -82.440381 17.611294 C -80.487256 18.173794 -78.518506 18.290981 -76.506788 18.290981 C -37.428663 18.279263 1.653369 18.287075 40.7354 18.279263 C 53.067431 18.279263 65.399462 18.236294 77.7354 18.236294 C 82.325244 18.443325 87.926806 16.064419 88.348681 10.912075 C 88.997119 4.935513 86.348681 0.314419 79.993212 0.068325 C 53.336962 -0.2598 26.661181 0.0487938 0.001025 -0.0527687 Z M 0.001025 0.00191875 " transform="matrix(1,0,0,-1,13041.2646,1264.3027)"/>
<path style="fill-rule:nonzero;fill:rgb(27.842712%,14.509583%,1.960754%);fill-opacity:1;stroke-width:7;stroke-linecap:butt;stroke-linejoin:miter;stroke:rgb(27.842712%,14.509583%,1.960754%);stroke-opacity:1;stroke-miterlimit:10;" d="M -0.00093125 -0.00049375 C -25.204056 0.323725 -50.5439 -0.637212 -75.680619 0.354975 C -85.039994 3.108881 -83.676713 16.737788 -74.133744 18.108881 C -24.844681 18.405756 24.48735 18.218256 73.784225 18.101069 C 85.702194 16.858881 84.639694 0.417475 73.463912 0.0229438 C 68.385787 -0.121587 63.29985 -0.051275 58.221725 -0.051275 C 38.811569 -0.0590875 19.405319 -0.0551812 -0.00093125 -0.0551812 Z M -0.00093125 -0.00049375 " transform="matrix(1,0,0,-1,13062.9814,1141.5581)"/>
<path style=" stroke:none;fill-rule:nonzero;fill:rgb(27.842712%,14.509583%,1.960754%);fill-opacity:1;" d="M 13571.996094 1231.050781 L 13571.996094 1231.082031 C 13587.824219 1231.082031 13603.65625 1231.082031 13619.488281 1231.078125 C 13622.6875 1231.171875 13626.140625 1230.925781 13623.398438 1226.816406 C 13610.996094 1206.289062 13597.988281 1186.132812 13585.390625 1165.714844 C 13582.941406 1161.421875 13577.972656 1160.480469 13573.40625 1160.53125 C 13557.90625 1160.289062 13542.410156 1160.507812 13526.914062 1160.519531 C 13524.214844 1160.648438 13519.871094 1160.503906 13519.71875 1164.117188 C 13519.367188 1184.773438 13519.699219 1205.445312 13519.597656 1226.105469 C 13519.445312 1229.710938 13520.355469 1231.335938 13524.25 1231.046875 C 13540.167969 1231.050781 13556.082031 1231.050781 13571.996094 1231.050781 M 13572.640625 1249.230469 C 13555.890625 1249.230469 13539.140625 1249.277344 13522.394531 1249.214844 C 13509.960938 1249.171875 13502.113281 1239.476562 13502.105469 1229.46875 C 13502.101562 1207.21875 13502.105469 1184.972656 13502.183594 1162.722656 C 13502.054688 1150.765625 13511.46875 1142.503906 13523.171875 1142.890625 C 13541.335938 1142.914062 13559.5 1142.941406 13577.667969 1142.984375 C 13587.320312 1142.808594 13595.714844 1147.917969 13600.542969 1156.199219 C 13613.601562 1177.105469 13626.675781 1198.003906 13639.671875 1218.945312 C 13646.636719 1229.445312 13642.402344 1245.597656 13627.839844 1248.613281 C 13625.277344 1249.078125 13622.726562 1249.265625 13620.136719 1249.261719 C 13604.304688 1249.253906 13588.472656 1249.257812 13572.640625 1249.257812 Z M 13572.640625 1249.230469 "/>
<path style="fill:none;stroke-width:7;stroke-linecap:butt;stroke-linejoin:miter;stroke:rgb(27.842712%,14.509583%,1.960754%);stroke-opacity:1;stroke-miterlimit:10;" d="M 0.00099375 -0.00148125 L 0.00099375 -0.0327312 C 15.829119 -0.0327312 31.66115 -0.0327312 47.493181 -0.028825 C 50.6924 -0.122575 54.145525 0.123519 51.403338 4.232894 C 39.000994 24.760238 25.993181 44.916488 13.395525 65.334456 C 10.946306 69.627425 5.977556 70.568831 1.41115 70.51805 C -14.08885 70.760238 -29.584944 70.541488 -45.081037 70.529769 C -47.780256 70.400863 -52.124006 70.545394 -52.27635 66.932113 C -52.627912 46.275863 -52.295881 25.603988 -52.397444 4.943831 C -52.549787 1.338363 -51.639631 -0.286637 -47.7451 0.002425 C -31.827131 -0.00148125 -15.913069 -0.00148125 0.00099375 -0.00148125 Z M 0.645525 -18.181169 C -16.104475 -18.181169 -32.854475 -18.228044 -49.600569 -18.165544 C -62.034162 -18.122575 -69.881819 -8.427262 -69.889631 1.58055 C -69.893537 23.83055 -69.889631 46.076644 -69.811506 68.326644 C -69.940412 80.283675 -60.52635 88.545394 -48.823225 88.158675 C -30.659162 88.135238 -12.4951 88.107894 5.672869 88.064925 C 15.325213 88.240706 23.719744 83.131331 28.547869 74.850081 C 41.606463 53.943831 54.680681 33.045394 67.676775 12.103988 C 74.641619 1.603988 70.407244 -14.548356 55.844744 -17.563981 C 53.282244 -18.028825 50.731463 -18.216325 48.141619 -18.212419 C 32.309588 -18.204606 16.477556 -18.208512 0.645525 -18.208512 Z M 0.645525 -18.181169 " transform="matrix(1,0,0,-1,13571.9951,1231.0493)"/>
<path style="fill-rule:nonzero;fill:rgb(27.842712%,14.509583%,1.960754%);fill-opacity:1;stroke-width:7;stroke-linecap:butt;stroke-linejoin:miter;stroke:rgb(27.842712%,14.509583%,1.960754%);stroke-opacity:1;stroke-miterlimit:10;" d="M 0.00191875 0.00000625 C 4.08395 -0.00780625 8.165981 0.0156313 12.248013 -0.00780625 C 19.173794 -0.156244 22.951138 -4.980462 21.357388 -11.730462 C 20.404263 -16.062494 15.912075 -18.230462 11.77145 -18.2539 C 4.107388 -18.238275 -3.556675 -18.214837 -11.220737 -18.218744 C -12.8223 -18.218744 -14.373081 -17.980462 -15.904331 -17.550775 C -24.111362 -15.617181 -24.154331 -2.882806 -16.189487 -0.59765 C -14.990269 -0.210931 -13.7598 -0.050775 -12.498081 -0.050775 C -8.330112 -0.0585875 -4.16605 -0.0546812 0.00191875 -0.0546812 Z M 0.00191875 0.00000625 " transform="matrix(1,0,0,-1,13532.0098,1282.9961)"/>
<path style=" stroke:none;fill-rule:nonzero;fill:rgb(27.842712%,14.509583%,1.960754%);fill-opacity:1;" d="M 13197.390625 1386.671875 C 13197.347656 1392.832031 13202.199219 1397.433594 13208.699219 1397.402344 C 13214.175781 1397.375 13219.667969 1392.070312 13219.570312 1386.726562 C 13219.488281 1382.355469 13215.429688 1375.738281 13208.378906 1375.796875 C 13202.273438 1375.847656 13197.429688 1380.558594 13197.390625 1386.671875 M 13208.433594 1357.921875 C 13225.144531 1357.71875 13237.207031 1371.90625 13237.371094 1386.332031 C 13237.441406 1422.652344 13181.363281 1426.816406 13179.734375 1386.859375 C 13179.746094 1368.808594 13193.296875 1358.097656 13208.433594 1357.921875 "/>
<path style="fill:none;stroke-width:7;stroke-linecap:butt;stroke-linejoin:miter;stroke:rgb(27.842712%,14.509583%,1.960754%);stroke-opacity:1;stroke-miterlimit:10;" d="M 0.001025 0.000525 C -0.0419437 -6.159631 4.809619 -10.761194 11.309619 -10.729944 C 16.786181 -10.7026 22.278369 -5.397913 22.180713 -0.0541625 C 22.098681 4.316931 18.040088 10.934119 10.989306 10.875525 C 4.883838 10.824744 0.0400875 6.113806 0.001025 0.000525 Z M 11.043994 28.750525 C 27.754931 28.95365 39.817431 14.76615 39.981494 0.340369 C 40.051806 -35.979944 -16.026319 -40.144006 -17.655225 -0.186975 C -17.643506 17.863806 -4.092725 28.574744 11.043994 28.750525 Z M 11.043994 28.750525 " transform="matrix(1,0,0,-1,13197.3896,1386.6724)"/>
<path style=" stroke:none;fill-rule:nonzero;fill:rgb(27.842712%,14.509583%,1.960754%);fill-opacity:1;" d="M 13555.792969 1397.4375 C 13562.34375 1397.519531 13566.972656 1392.070312 13567.117188 1386.761719 C 13567.269531 1381.074219 13561.921875 1375.886719 13556.027344 1375.824219 C 13550.054688 1375.765625 13545.160156 1380.613281 13545.03125 1386.722656 C 13544.910156 1392.648438 13549.65625 1397.375 13555.792969 1397.4375 M 13584.785156 1387.136719 C 13584.449219 1402.941406 13572.398438 1415.246094 13555.761719 1415.285156 C 13518.238281 1414.980469 13517.40625 1358.621094 13555.890625 1358.054688 C 13572.839844 1357.863281 13584.664062 1371.171875 13584.785156 1387.136719 "/>
<path style="fill:none;stroke-width:7;stroke-linecap:butt;stroke-linejoin:miter;stroke:rgb(27.842712%,14.509583%,1.960754%);stroke-opacity:1;stroke-miterlimit:10;" d="M -0.00193125 0.0005 C 6.54885 -0.0815313 11.177756 5.367687 11.322287 10.676281 C 11.474631 16.363781 6.126975 21.551281 0.232444 21.613781 C -5.740213 21.672375 -10.634744 16.824719 -10.76365 10.715344 C -10.884744 4.789562 -6.13865 0.063 -0.00193125 0.0005 Z M 28.990256 10.301281 C 28.654319 -5.503406 16.603537 -17.808094 -0.0331813 -17.847156 C -37.556619 -17.542469 -38.38865 38.816906 0.095725 39.383312 C 17.044944 39.574719 28.869162 26.266125 28.990256 10.301281 Z M 28.990256 10.301281 " transform="matrix(1,0,0,-1,13555.7949,1397.438)"/>
</svg>
